<svg width="48" height="48" viewBox="0 0 48 48" fill="none" xmlns="http://www.w3.org/2000/svg">
<path d="M5.39966 37.6926H0.599963C0.440843 37.6926 0.28824 37.6305 0.175725 37.5199C0.0632102 37.4094 0 37.2594 0 37.103C0 36.9467 0.0632102 36.7967 0.175725 36.6861C0.28824 36.5755 0.440843 36.5134 0.599963 36.5134H5.39966C5.55878 36.5134 5.71139 36.5755 5.8239 36.6861C5.93642 36.7967 5.99963 36.9467 5.99963 37.103C5.99963 37.2594 5.93642 37.4094 5.8239 37.5199C5.71139 37.6305 5.55878 37.6926 5.39966 37.6926Z" fill="currentColor"/>
<path d="M5.39966 24.7214H0.599963C0.440843 24.7214 0.28824 24.6593 0.175725 24.5487C0.0632102 24.4382 0 24.2882 0 24.1318C0 23.9755 0.0632102 23.8255 0.175725 23.7149C0.28824 23.6044 0.440843 23.5422 0.599963 23.5422H5.39966C5.55878 23.5422 5.71139 23.6044 5.8239 23.7149C5.93642 23.8255 5.99963 23.9755 5.99963 24.1318C5.99963 24.2882 5.93642 24.4382 5.8239 24.5487C5.71139 24.6593 5.55878 24.7214 5.39966 24.7214Z" fill="currentColor"/>
<path d="M5.39966 11.7502H0.599963C0.440843 11.7502 0.28824 11.6881 0.175725 11.5776C0.0632102 11.467 0 11.317 0 11.1606C0 11.0043 0.0632102 10.8543 0.175725 10.7437C0.28824 10.6332 0.440843 10.571 0.599963 10.571H5.39966C5.55878 10.571 5.71139 10.6332 5.8239 10.7437C5.93642 10.8543 5.99963 11.0043 5.99963 11.1606C5.99963 11.317 5.93642 11.467 5.8239 11.5776C5.71139 11.6881 5.55878 11.7502 5.39966 11.7502Z" fill="currentColor"/>
<path d="M2.39989 21.1839C2.24077 21.1839 2.08817 21.1217 1.97565 21.0112C1.86314 20.9006 1.79993 20.7506 1.79993 20.5943V14.6982C1.79993 14.5419 1.86314 14.3919 1.97565 14.2813C2.08817 14.1708 2.24077 14.1086 2.39989 14.1086C2.55901 14.1086 2.71161 14.1708 2.82413 14.2813C2.93664 14.3919 2.99985 14.5419 2.99985 14.6982V20.5943C2.99985 20.7506 2.93664 20.9006 2.82413 21.0112C2.71161 21.1217 2.55901 21.1839 2.39989 21.1839Z" fill="currentColor"/>
<path d="M2.39989 34.155C2.24077 34.155 2.08817 34.0929 1.97565 33.9824C1.86314 33.8718 1.79993 33.7218 1.79993 33.5654V27.0798C1.79993 26.9235 1.86314 26.7735 1.97565 26.6629C2.08817 26.5524 2.24077 26.4902 2.39989 26.4902C2.55901 26.4902 2.71161 26.5524 2.82413 26.6629C2.93664 26.7735 2.99985 26.9235 2.99985 27.0798V33.5654C2.99985 33.7218 2.93664 33.8718 2.82413 33.9824C2.71161 34.0929 2.55901 34.155 2.39989 34.155Z" fill="currentColor"/>
<path d="M45.8629 23.5712C45.7038 23.5712 45.5512 23.5091 45.4387 23.3985C45.3261 23.2879 45.2629 23.1379 45.2629 22.9816C45.2629 22.8252 45.3261 22.6752 45.4387 22.5647C45.5512 22.4541 45.7038 22.392 45.8629 22.392C46.1114 22.3918 46.3497 22.2947 46.5254 22.1221C46.7011 21.9494 46.7999 21.7152 46.8 21.471V17.3668C46.7996 17.1228 46.7006 16.8889 46.525 16.7165C46.3493 16.5441 46.1112 16.4472 45.8629 16.447C45.7038 16.447 45.5512 16.3849 45.4387 16.2743C45.3261 16.1638 45.2629 16.0138 45.2629 15.8574C45.2629 15.7011 45.3261 15.5511 45.4387 15.4405C45.5512 15.3299 45.7038 15.2678 45.8629 15.2678C46.4295 15.2684 46.9727 15.4899 47.3733 15.8836C47.774 16.2774 47.9993 16.8112 48 17.368V21.4722C47.999 22.0288 47.7735 22.5623 47.3729 22.9558C46.9723 23.3492 46.4293 23.5705 45.8629 23.5712Z" fill="currentColor"/>
<path d="M45.8629 12.3758C45.7038 12.3758 45.5512 12.3137 45.4387 12.2031C45.3261 12.0926 45.2629 11.9426 45.2629 11.7862C45.2629 11.6298 45.3261 11.4799 45.4387 11.3693C45.5512 11.2587 45.7038 11.1966 45.8629 11.1966C46.1114 11.1965 46.3497 11.0994 46.5254 10.9267C46.7011 10.754 46.7999 10.5199 46.8 10.2757V6.17145C46.7999 5.92725 46.7011 5.69309 46.5254 5.52041C46.3497 5.34773 46.1114 5.25065 45.8629 5.25049C45.7038 5.25049 45.5512 5.18837 45.4387 5.0778C45.3261 4.96723 45.2629 4.81726 45.2629 4.66089C45.2629 4.50452 45.3261 4.35455 45.4387 4.24398C45.5512 4.13341 45.7038 4.07129 45.8629 4.07129C46.4295 4.07191 46.9727 4.29338 47.3733 4.6871C47.774 5.08082 47.9993 5.61465 48 6.17145V10.2757C47.9993 10.8325 47.774 11.3663 47.3733 11.76C46.9727 12.1537 46.4295 12.3752 45.8629 12.3758Z" fill="currentColor"/>
<path d="M8.99938 40.6405C8.84026 40.6405 8.68765 40.5783 8.57514 40.4678C8.46262 40.3572 8.39941 40.2072 8.39941 40.0509V7.6228C8.39941 7.46643 8.46262 7.31646 8.57514 7.20589C8.68765 7.09532 8.84026 7.0332 8.99938 7.0332C9.1585 7.0332 9.3111 7.09532 9.42361 7.20589C9.53613 7.31646 9.59934 7.46643 9.59934 7.6228V40.0509C9.59934 40.2072 9.53613 40.3572 9.42361 40.4678C9.3111 40.5783 9.1585 40.6405 8.99938 40.6405Z" fill="currentColor"/>
<path d="M39.7152 48H5.90367C4.92972 47.9989 3.99598 47.6182 3.30729 46.9414C2.61861 46.2646 2.23121 45.347 2.2301 44.3899V39.857C2.2301 39.7007 2.29331 39.5507 2.40583 39.4401C2.51834 39.3295 2.67095 39.2674 2.83007 39.2674C2.98919 39.2674 3.14179 39.3295 3.2543 39.4401C3.36682 39.5507 3.43003 39.7007 3.43003 39.857V44.3881C3.43082 45.0326 3.69169 45.6505 4.15542 46.1062C4.61915 46.5619 5.24787 46.8183 5.90367 46.819H39.7152C40.371 46.8183 40.9997 46.5619 41.4634 46.1062C41.9271 45.6505 42.188 45.0326 42.1888 44.3881V3.61013C42.188 2.96565 41.9271 2.34778 41.4634 1.89207C40.9997 1.43635 40.371 1.17998 39.7152 1.1792H5.90367C5.24787 1.17998 4.61915 1.43635 4.15542 1.89207C3.69169 2.34778 3.43082 2.96565 3.43003 3.61013V8.14121C3.43003 8.29758 3.36682 8.44755 3.2543 8.55812C3.14179 8.66869 2.98919 8.73081 2.83007 8.73081C2.67095 8.73081 2.51834 8.66869 2.40583 8.55812C2.29331 8.44755 2.2301 8.29758 2.2301 8.14121V3.61013C2.23121 2.653 2.61861 1.73538 3.30729 1.05859C3.99598 0.381796 4.92972 0.00109235 5.90367 0H39.7152C40.6891 0.00109235 41.6229 0.381796 42.3115 1.05859C43.0002 1.73538 43.3876 2.653 43.3887 3.61013V44.3893C43.3878 45.3465 43.0005 46.2643 42.3118 46.9412C41.6231 47.6181 40.6892 47.9989 39.7152 48Z" fill="currentColor"/>
<path d="M35.8736 35.1627C35.8286 35.1628 35.7837 35.1578 35.7398 35.148C35.6954 35.138 34.6335 34.8986 33.415 34.4912C31.7135 33.9228 30.5772 33.3161 30.036 32.6882C29.802 32.4164 29.5092 31.8527 29.6664 30.1004C29.745 29.2243 29.8986 28.4496 29.9064 28.4177C29.9313 28.2934 29.9963 28.1803 30.0918 28.0952C30.9269 27.3494 31.1171 26.7892 31.4471 25.3789C31.7207 24.2186 32.3183 21.3991 32.4616 20.1356C32.5905 19.1862 32.5752 18.2233 32.4161 17.2784L32.3987 17.1434C32.3064 16.4777 32.0741 15.8383 31.7166 15.2656C31.3591 14.693 30.8842 14.1998 30.3222 13.8174C29.0181 12.9352 27.4654 12.4771 25.8825 12.5073C24.2651 12.4833 22.6784 12.9424 21.3323 13.8239C20.7509 14.1941 20.2564 14.6819 19.8821 15.2549C19.5078 15.8278 19.2622 16.4726 19.1617 17.1463L19.1467 17.2583C18.9855 18.2095 18.9685 19.1789 19.0963 20.135C19.3163 21.4176 19.6037 22.6881 19.9572 23.9415C20.1048 24.5122 20.2326 25.0027 20.3172 25.3789C20.6466 26.7869 20.8362 27.3464 21.6731 28.0952C21.7685 28.1806 21.8333 28.2939 21.8579 28.4183C21.8645 28.4507 22.0169 29.2237 22.0949 30.0987C22.2503 31.8468 21.9617 32.4117 21.7307 32.6841C21.1955 33.3161 19.9614 33.9057 17.9582 34.4859C16.547 34.8951 15.2907 35.1403 15.2379 35.151C15.0819 35.181 14.9202 35.149 14.7882 35.0619C14.6563 34.9749 14.5648 34.84 14.534 34.6867C14.5031 34.5335 14.5354 34.3745 14.6238 34.2447C14.7121 34.1148 14.8493 34.0247 15.0051 33.9942C15.0177 33.9942 16.2651 33.7471 17.6264 33.3527C19.9914 32.6664 20.6388 32.1293 20.8062 31.93C20.8062 31.93 21.027 31.624 20.8956 30.1783C20.8446 29.6158 20.7594 29.094 20.7126 28.8281C20.2912 28.4402 19.9498 27.9762 19.707 27.4614C19.4581 26.8752 19.2701 26.2658 19.1461 25.6425C19.0621 25.2816 18.9361 24.7952 18.7903 24.2315C18.4219 22.9262 18.1247 21.6024 17.9 20.2659C17.7605 19.2156 17.7784 18.1508 17.9534 17.1056L17.9684 16.9936C18.0935 16.1584 18.3961 15.3583 18.8566 14.6456C19.3171 13.9329 19.9252 13.3235 20.6412 12.857C22.1903 11.8368 24.0184 11.3036 25.8831 11.3281C27.7187 11.2977 29.5178 11.8339 31.0271 12.8611C31.7106 13.3438 32.2921 13.9523 32.7394 14.6529C33.189 15.3627 33.4782 16.1591 33.5872 16.9883L33.6052 17.1239C33.7759 18.1628 33.7921 19.2206 33.6532 20.2641C33.5032 21.5901 32.9032 24.4208 32.6158 25.6407C32.2931 27.0192 32.0537 27.8723 31.0493 28.8245C31.0019 29.0922 30.9155 29.6187 30.8639 30.1806C30.7332 31.6163 30.9515 31.9194 30.9533 31.9223C31.6829 32.769 34.4403 33.6416 36.0068 33.9924C36.1506 34.0246 36.2772 34.1077 36.3626 34.2258C36.448 34.3439 36.4861 34.4888 36.4698 34.6328C36.4534 34.7768 36.3836 34.9098 36.2737 35.0065C36.1639 35.1032 36.0217 35.1567 35.8742 35.1568L35.8736 35.1627Z" fill="currentColor"/>
</svg>
