<svg width="48" height="48" viewBox="0 0 48 48" fill="none" xmlns="http://www.w3.org/2000/svg">
<path d="M20.9319 3.68156e-05C25.778 0.00298104 30.4742 1.6788 34.2249 4.74362C37.9755 7.80844 40.5501 12.0738 41.5124 16.8172C42.4747 21.5606 41.7656 26.4904 39.5052 30.7715C37.2448 35.0525 33.5721 38.4217 29.1092 40.3082C23.9808 42.4472 18.2127 42.4699 13.0676 40.3714C7.92242 38.273 3.81932 34.2242 1.65644 29.1114C-0.506449 23.9986 -0.552932 18.2383 1.52716 13.0914C3.60726 7.94442 7.64448 3.83014 12.7551 1.64911C15.3418 0.555653 18.1229 -0.00523469 20.9319 3.68156e-05ZM20.9319 40.7729C25.505 40.7712 29.937 39.1906 33.4767 36.2989C37.0164 33.4072 39.4462 29.3822 40.3543 24.9061C41.2625 20.4299 40.5931 15.7778 38.4596 11.7382C36.3262 7.69852 32.8599 4.5197 28.648 2.7404C23.8044 0.696884 18.3463 0.658653 13.4744 2.63412C8.60254 4.60958 4.716 8.43692 2.66978 13.2742C0.623565 18.1114 0.585283 23.5623 2.56336 28.4277C4.54144 33.2932 8.37384 37.1746 13.2175 39.2181C15.658 40.2494 18.2818 40.7782 20.9319 40.7729Z" fill="currentColor"/>
<path d="M40.4413 48C39.4493 48.004 38.4664 47.8115 37.5495 47.4336C36.6326 47.0557 35.7998 46.4999 35.0993 45.7985L29.5383 40.2443L30.3776 39.4061L35.9386 44.9603C37.1328 46.153 38.7525 46.8231 40.4414 46.8231C42.1302 46.8232 43.75 46.1532 44.9442 44.9606C46.1385 43.768 46.8095 42.1505 46.8095 40.4638C46.8096 38.7771 46.1387 37.1596 44.9445 35.9669L39.383 30.4126L40.2222 29.5745L45.7838 35.1287C46.8415 36.1827 47.5622 37.5266 47.8543 38.9901C48.1465 40.4536 47.997 41.9707 47.4249 43.3492C46.8527 44.7278 45.8837 45.9057 44.6405 46.7336C43.3974 47.5616 41.9361 48.0023 40.4419 48H40.4413Z" fill="currentColor"/>
<path d="M29.2516 12.8357C29.9677 12.8357 30.6678 13.0478 31.2632 13.4451C31.8586 13.8424 32.3227 14.4071 32.5967 15.0678C32.8707 15.7285 32.9424 16.4556 32.8027 17.157C32.663 17.8584 32.3182 18.5027 31.8118 19.0084C31.3055 19.5141 30.6603 19.8585 29.958 19.998C29.2557 20.1375 28.5277 20.0659 27.8661 19.7922C27.2045 19.5185 26.639 19.0551 26.2412 18.4604C25.8433 17.8658 25.631 17.1667 25.631 16.4516C25.631 15.4926 26.0124 14.5729 26.6914 13.8948C27.3705 13.2167 28.2914 12.8357 29.2516 12.8357ZM29.2516 18.876C29.7332 18.876 30.2039 18.7333 30.6043 18.466C31.0046 18.1987 31.3165 17.8188 31.5005 17.3743C31.6845 16.9299 31.7324 16.4409 31.638 15.9693C31.5436 15.4977 31.3113 15.0647 30.9703 14.725C30.6294 14.3854 30.1952 14.1544 29.7228 14.0613C29.2503 13.9682 28.7608 14.0171 28.3162 14.202C27.8717 14.3869 27.492 14.6993 27.2253 15.0997C26.9586 15.5002 26.8169 15.9706 26.8181 16.4516C26.8197 17.0951 27.0767 17.7118 27.533 18.1663C27.9892 18.6207 28.6073 18.876 29.2516 18.876Z" fill="currentColor"/>
<path d="M20.9349 24.917C21.651 24.917 22.351 25.1291 22.9464 25.5264C23.5418 25.9237 24.0059 26.4884 24.2799 27.1491C24.554 27.8098 24.6257 28.5369 24.486 29.2383C24.3463 29.9397 24.0014 30.584 23.4951 31.0897C22.9887 31.5954 22.3436 31.9397 21.6412 32.0793C20.9389 32.2188 20.2109 32.1472 19.5493 31.8735C18.8877 31.5998 18.3222 31.1364 17.9244 30.5417C17.5266 29.9471 17.3142 29.248 17.3142 28.5329C17.3142 27.5739 17.6957 26.6542 18.3747 25.9761C19.0537 25.2979 19.9746 24.917 20.9349 24.917ZM20.9349 30.9573C21.4164 30.9573 21.8872 30.8146 22.2875 30.5473C22.6878 30.28 22.9997 29.9001 23.1837 29.4556C23.3678 29.0112 23.4156 28.5222 23.3212 28.0506C23.2268 27.579 22.9945 27.146 22.6535 26.8063C22.3126 26.4667 21.8784 26.2357 21.406 26.1426C20.9335 26.0495 20.444 26.0984 19.9995 26.2833C19.5549 26.4682 19.1752 26.7806 18.9086 27.181C18.6419 27.5815 18.5001 28.0519 18.5013 28.5329C18.5029 29.1764 18.76 29.7931 19.2162 30.2476C19.6724 30.702 20.2905 30.9573 20.9349 30.9573Z" fill="currentColor"/>
<path d="M11.1063 15.8564C11.8224 15.8564 12.5224 16.0685 13.1178 16.4658C13.7132 16.8631 14.1773 17.4279 14.4513 18.0886C14.7254 18.7493 14.7971 19.4763 14.6573 20.1777C14.5176 20.8792 14.1728 21.5234 13.6665 22.0291C13.1601 22.5348 12.515 22.8792 11.8126 23.0187C11.1103 23.1582 10.3823 23.0866 9.72069 22.813C9.0591 22.5393 8.49363 22.0758 8.09579 21.4812C7.69794 20.8866 7.4856 20.1875 7.4856 19.4723C7.4856 18.5133 7.86706 17.5936 8.54606 16.9155C9.22507 16.2374 10.146 15.8564 11.1063 15.8564ZM11.1063 21.8967C11.5878 21.8967 12.0586 21.754 12.4589 21.4867C12.8592 21.2194 13.1711 20.8395 13.3551 20.3951C13.5392 19.9506 13.587 19.4617 13.4926 18.9901C13.3982 18.5185 13.1659 18.0854 12.8249 17.7458C12.484 17.4061 12.0498 17.1751 11.5774 17.082C11.1049 16.9889 10.6154 17.0379 10.1709 17.2228C9.72628 17.4076 9.34663 17.72 9.07994 18.1205C8.81325 18.5209 8.67152 18.9914 8.6727 19.4723C8.67427 20.1159 8.93136 20.7325 9.38757 21.187C9.84378 21.6415 10.4619 21.8967 11.1063 21.8967Z" fill="currentColor"/>
<path d="M36.8093 17.042H32.2728C32.1153 17.042 31.9644 16.9795 31.853 16.8684C31.7417 16.7572 31.6792 16.6064 31.6792 16.4492C31.6792 16.292 31.7417 16.1412 31.853 16.0301C31.9644 15.9189 32.1153 15.8564 32.2728 15.8564H36.8093C36.8872 15.8564 36.9644 15.8718 37.0364 15.9016C37.1084 15.9314 37.1738 15.975 37.229 16.0301C37.2841 16.0851 37.3278 16.1505 37.3576 16.2224C37.3875 16.2943 37.4028 16.3714 37.4028 16.4492C37.4028 16.5271 37.3875 16.6041 37.3576 16.6761C37.3278 16.748 37.2841 16.8133 37.229 16.8684C37.1738 16.9234 37.1084 16.9671 37.0364 16.9969C36.9644 17.0266 36.8872 17.042 36.8093 17.042Z" fill="currentColor"/>
<path d="M5.81108 25.3504C5.73284 25.3498 5.6555 25.3338 5.58348 25.3033C5.51146 25.2728 5.4462 25.2283 5.39144 25.1725C5.28016 25.0614 5.21765 24.9106 5.21765 24.7534C5.21765 24.5963 5.28016 24.4455 5.39144 24.3344L8.41855 21.3112C8.52985 21.2001 8.6808 21.1377 8.83819 21.1377C8.99557 21.1377 9.14652 21.2001 9.25783 21.3112C9.31328 21.3666 9.35719 21.4325 9.38702 21.5049C9.41685 21.5773 9.43201 21.655 9.43162 21.7333C9.43124 21.8116 9.41531 21.8891 9.38477 21.9612C9.35422 22.0334 9.30967 22.0987 9.25367 22.1536L6.23072 25.1725C6.17596 25.2283 6.11069 25.2728 6.03867 25.3033C5.96665 25.3338 5.88931 25.3498 5.81108 25.3504Z" fill="currentColor"/>
<path d="M23.2005 26.8576C23.0835 26.8584 22.9689 26.8245 22.871 26.7604C22.8062 26.7172 22.7505 26.6617 22.7071 26.597C22.6638 26.5323 22.6336 26.4597 22.6183 26.3834C22.603 26.307 22.603 26.2284 22.6181 26.152C22.6333 26.0757 22.6634 26.003 22.7066 25.9383L27.2431 19.1404C27.2864 19.0755 27.3421 19.0197 27.4069 18.9763C27.4718 18.9329 27.5447 18.9027 27.6212 18.8874C27.6978 18.8722 27.7767 18.8722 27.8533 18.8874C27.9299 18.9026 28.0027 18.9328 28.0676 18.9762C28.1984 19.0636 28.2891 19.1994 28.3197 19.3535C28.3503 19.5077 28.3183 19.6677 28.2308 19.7984L23.6943 26.5939C23.6401 26.675 23.5666 26.7416 23.4805 26.7876C23.3943 26.8336 23.2982 26.8577 23.2005 26.8576Z" fill="currentColor"/>
<path d="M18.6633 26.8576C18.5218 26.8574 18.3849 26.8068 18.2775 26.7147L12.9848 22.1842C12.8653 22.0819 12.7915 21.9363 12.7794 21.7796C12.7674 21.6228 12.8182 21.4678 12.9207 21.3484C13.0232 21.2291 13.1689 21.1553 13.3259 21.1433C13.4828 21.1313 13.6381 21.1821 13.7576 21.2844L19.0497 25.8143C19.1417 25.8932 19.2074 25.9983 19.2378 26.1155C19.2682 26.2327 19.262 26.3564 19.2199 26.47C19.1778 26.5836 19.1019 26.6815 19.0024 26.7507C18.9029 26.8199 18.7846 26.8576 18.6633 26.8576Z" fill="currentColor"/>
</svg>
