<svg width="48" height="48" viewBox="0 0 48 48" fill="none" xmlns="http://www.w3.org/2000/svg">
<path d="M26.2225 21.2316H17.3785C17.2221 21.2316 17.0721 21.1695 16.9616 21.0589C16.851 20.9483 16.7889 20.7983 16.7889 20.642C16.7889 20.4856 16.851 20.3356 16.9616 20.2251C17.0721 20.1145 17.2221 20.0524 17.3785 20.0524H26.2225C26.3789 20.0524 26.5288 20.1145 26.6394 20.2251C26.75 20.3356 26.8121 20.4856 26.8121 20.642C26.8121 20.7983 26.75 20.9483 26.6394 21.0589C26.5288 21.1695 26.3789 21.2316 26.2225 21.2316Z" fill="currentColor"/>
<path d="M26.2225 27.7172H17.3785C17.2221 27.7172 17.0721 27.655 16.9616 27.5445C16.851 27.4339 16.7889 27.2839 16.7889 27.1276C16.7889 26.9712 16.851 26.8212 16.9616 26.7107C17.0721 26.6001 17.2221 26.538 17.3785 26.538H26.2225C26.3789 26.538 26.5288 26.6001 26.6394 26.7107C26.75 26.8212 26.8121 26.9712 26.8121 27.1276C26.8121 27.2839 26.75 27.4339 26.6394 27.5445C26.5288 27.655 26.3789 27.7172 26.2225 27.7172Z" fill="currentColor"/>
<path d="M39.1937 33.6132H17.3785C17.2221 33.6132 17.0721 33.551 16.9616 33.4405C16.851 33.3299 16.7889 33.1799 16.7889 33.0236C16.7889 32.8672 16.851 32.7172 16.9616 32.6067C17.0721 32.4961 17.2221 32.434 17.3785 32.434H39.1937C39.3501 32.434 39.5001 32.4961 39.6106 32.6067C39.7212 32.7172 39.7833 32.8672 39.7833 33.0236C39.7833 33.1799 39.7212 33.3299 39.6106 33.4405C39.5001 33.551 39.3501 33.6132 39.1937 33.6132Z" fill="currentColor"/>
<path d="M39.1937 39.5092H17.3785C17.2221 39.5092 17.0721 39.447 16.9616 39.3365C16.851 39.2259 16.7889 39.0759 16.7889 38.9196C16.7889 38.7632 16.851 38.6132 16.9616 38.5026C17.0721 38.3921 17.2221 38.33 17.3785 38.33H39.1937C39.3501 38.33 39.5001 38.3921 39.6106 38.5026C39.7212 38.6132 39.7833 38.7632 39.7833 38.9196C39.7833 39.0759 39.7212 39.2259 39.6106 39.3365C39.5001 39.447 39.3501 39.5092 39.1937 39.5092Z" fill="currentColor"/>
<path d="M30.3497 20.0524H39.1937C39.3501 20.0524 39.5 20.1145 39.6106 20.2251C39.7212 20.3356 39.7833 20.4856 39.7833 20.642V27.1276C39.7833 27.284 39.7212 27.4339 39.6106 27.5445C39.5 27.6551 39.3501 27.7172 39.1937 27.7172H30.3497C30.1933 27.7172 30.0433 27.6551 29.9328 27.5445C29.8222 27.4339 29.7601 27.284 29.7601 27.1276V20.642C29.7601 20.4856 29.8222 20.3356 29.9328 20.2251C30.0433 20.1145 30.1933 20.0524 30.3497 20.0524ZM38.6041 21.2316H30.9393V26.538H38.6041V21.2316Z" fill="currentColor"/>
<path d="M17.3785 8.26025H39.1937C39.3501 8.26025 39.5001 8.32237 39.6106 8.43294C39.7212 8.54352 39.7833 8.69348 39.7833 8.84985V14.7459C39.7833 14.9022 39.7212 15.0522 39.6106 15.1628C39.5001 15.2733 39.3501 15.3355 39.1937 15.3355H17.3785C17.2221 15.3355 17.0721 15.2733 16.9616 15.1628C16.851 15.0522 16.7889 14.9022 16.7889 14.7459V8.84985C16.7889 8.69348 16.851 8.54352 16.9616 8.43294C17.0721 8.32237 17.2221 8.26025 17.3785 8.26025ZM38.6041 9.43946H17.9681V14.1563H38.6041V9.43946Z" fill="currentColor"/>
<path d="M41.3688 48H4.53108V47.9664C3.28484 47.8182 2.13594 47.219 1.3012 46.2818C0.466453 45.3446 0.00360576 44.1343 0 42.8793V14.8845C0 14.7281 0.062127 14.5781 0.172699 14.4676C0.28327 14.357 0.433229 14.2949 0.589601 14.2949H4.95264V15.4741H1.1792V42.8793C1.1792 43.9247 1.59446 44.9272 2.33363 45.6664C3.0728 46.4055 4.07534 46.8208 5.12068 46.8208C6.16603 46.8208 7.16857 46.4055 7.90774 45.6664C8.64691 44.9272 9.06216 43.9247 9.06216 42.8793V2.10016C9.06279 1.54346 9.28417 1.00972 9.67776 0.61602C10.0714 0.222316 10.605 0.000780222 11.1617 0L45.8998 0C46.4566 0.000624221 46.9904 0.222091 47.3842 0.615812C47.7779 1.00953 47.9994 1.54335 48 2.10016V41.3676C48 43.1263 47.3013 44.813 46.0577 46.0566C44.8141 47.3002 43.1275 47.9988 41.3688 47.9988V48ZM8.38177 46.8208H41.3688C42.8142 46.8192 44.2001 46.2443 45.2222 45.2222C46.2443 44.2001 46.8192 42.8143 46.8208 41.3688V2.10016C46.8206 1.85595 46.7235 1.6218 46.5509 1.44912C46.3782 1.27644 46.144 1.17936 45.8998 1.1792H11.1617C10.9175 1.17936 10.6834 1.27644 10.5107 1.44912C10.338 1.6218 10.2409 1.85595 10.2408 2.10016V42.8793C10.2418 43.5517 10.1095 44.2176 9.8514 44.8385C9.59332 45.4594 9.21465 46.023 8.7373 46.4965C8.62331 46.6105 8.5048 46.7186 8.38177 46.8208Z" fill="currentColor"/>
</svg>
