<svg width="49" height="48" viewBox="0 0 49 48" fill="none" xmlns="http://www.w3.org/2000/svg">
<path d="M24.0015 32.1414C23.8452 32.1414 23.6952 32.0793 23.5846 31.9687C23.474 31.8582 23.4119 31.7082 23.4119 31.5518V26.6434C23.4119 26.487 23.474 26.3371 23.5846 26.2265C23.6952 26.1159 23.8452 26.0538 24.0015 26.0538C24.8315 26.0538 25.653 25.8874 26.4174 25.5644C27.1819 25.2413 27.8739 24.7683 28.4523 24.1732C29.0308 23.578 29.484 22.873 29.7852 22.0996C30.0864 21.3263 30.2295 20.5004 30.2059 19.6708C30.1445 18.0914 29.4898 16.5932 28.3724 15.4753C27.255 14.3574 25.7572 13.7019 24.1778 13.6398C23.348 13.6163 22.5219 13.7596 21.7485 14.061C20.975 14.3625 20.2699 14.816 19.6747 15.3947C19.0796 15.9735 18.6066 16.6657 18.2837 17.4304C17.9608 18.1952 17.7946 19.0169 17.7948 19.8471C17.7948 20.0035 17.7327 20.1534 17.6221 20.264C17.5115 20.3746 17.3616 20.4367 17.2052 20.4367C17.0488 20.4367 16.8989 20.3746 16.7883 20.264C16.6777 20.1534 16.6156 20.0035 16.6156 19.8471C16.6151 18.4106 17.0333 17.0051 17.8191 15.8026C18.6049 14.6001 19.7242 13.6527 21.04 13.0763C22.3558 12.5 23.8111 12.3197 25.2278 12.5575C26.6444 12.7954 27.9611 13.441 29.0165 14.4154C30.072 15.3898 30.8206 16.6508 31.1706 18.0439C31.5207 19.4371 31.457 20.9022 30.9875 22.2597C30.5179 23.6173 29.6628 24.8086 28.5268 25.6878C27.3907 26.567 26.0231 27.0959 24.5911 27.21V31.5518C24.5911 31.7082 24.529 31.8582 24.4184 31.9687C24.3079 32.0793 24.1579 32.1414 24.0015 32.1414Z" fill="currentColor"/>
<path d="M24.0021 35.6231C23.7944 35.6231 23.5914 35.5615 23.4187 35.4461C23.246 35.3308 23.1114 35.1668 23.032 34.9749C22.9525 34.783 22.9317 34.5719 22.9722 34.3682C23.0127 34.1645 23.1127 33.9774 23.2596 33.8305C23.4064 33.6837 23.5936 33.5836 23.7972 33.5431C24.0009 33.5026 24.2121 33.5234 24.404 33.6029C24.5958 33.6824 24.7598 33.817 24.8752 33.9896C24.9906 34.1623 25.0522 34.3654 25.0522 34.573C25.0519 34.8514 24.9411 35.1183 24.7443 35.3152C24.5474 35.5121 24.2805 35.6228 24.0021 35.6231ZM24.0021 34.1126C23.911 34.1126 23.822 34.1396 23.7463 34.1902C23.6706 34.2408 23.6115 34.3127 23.5767 34.3968C23.5418 34.481 23.5327 34.5736 23.5505 34.6629C23.5683 34.7522 23.6121 34.8342 23.6765 34.8986C23.7409 34.963 23.823 35.0069 23.9123 35.0247C24.0016 35.0424 24.0942 35.0333 24.1783 34.9985C24.2625 34.9636 24.3344 34.9046 24.385 34.8289C24.4356 34.7531 24.4626 34.6641 24.4626 34.573C24.4624 34.451 24.4139 34.3339 24.3275 34.2476C24.2412 34.1613 24.1242 34.1127 24.0021 34.1126Z" fill="currentColor"/>
<path d="M24.0033 48C22.9351 47.9992 21.868 47.9289 20.8089 47.7895C18.1173 47.4359 15.5072 46.6195 13.0939 45.3763C8.33669 42.924 4.52285 38.9688 2.24529 34.1255C1.09029 31.6688 0.369381 29.0307 0.114481 26.328C-0.212261 22.9956 0.162295 19.6317 1.21404 16.4528C2.26579 13.2738 3.97143 10.3503 6.22121 7.87035C8.47098 5.39037 11.215 3.40888 14.2768 2.05339C17.3386 0.697892 20.6502 -0.00157448 23.9986 2.66115e-06C24.7716 2.66115e-06 25.5569 0.0371544 26.3328 0.110265C29.0352 0.365682 31.6729 1.087 34.1291 2.24226C38.972 4.52137 42.9262 8.33668 45.377 13.095C46.6198 15.5084 47.4358 18.1185 47.789 20.81C48.4851 25.9745 47.4692 31.2248 44.897 35.7569L47.417 45.1599C47.4912 45.4323 47.5013 45.7183 47.4465 45.9953C47.3917 46.2723 47.2734 46.5329 47.1009 46.7565C46.9291 46.9806 46.7084 47.1624 46.4556 47.2881C46.2028 47.4138 45.9246 47.48 45.6423 47.4817C45.4792 47.4815 45.3168 47.4599 45.1594 47.4175L35.7564 44.8975C34.0373 45.8699 32.205 46.627 30.3009 47.1516C28.2491 47.7148 26.131 48.0001 24.0033 48ZM24.0033 1.1792C19.1793 1.17161 14.4781 2.69972 10.5805 5.54225C9.32608 6.45664 8.1675 7.49572 7.12247 8.64355C4.97289 11.0007 3.34252 13.7831 2.33698 16.8106C1.33145 19.8381 0.973196 23.043 1.28542 26.2178C1.79997 31.333 4.02035 36.1263 7.58932 39.8266C11.1583 43.5269 15.8683 45.919 20.9616 46.618C21.9699 46.7507 22.9857 46.8177 24.0027 46.8184C26.026 46.8192 28.0402 46.5483 29.9913 46.013C31.8774 45.4931 33.689 44.7336 35.382 43.7531C35.4491 43.7144 35.5231 43.6892 35.5999 43.6791C35.6767 43.669 35.7547 43.6741 35.8295 43.6941L45.4672 46.2766C45.5248 46.2923 45.5843 46.3004 45.644 46.3008C45.7455 46.2996 45.8454 46.2752 45.936 46.2295C46.0267 46.1839 46.1057 46.1181 46.167 46.0372C46.2294 45.9571 46.2721 45.8634 46.2916 45.7638C46.3112 45.6641 46.3071 45.5613 46.2796 45.4635L43.6966 35.8259C43.6765 35.7511 43.6714 35.6731 43.6816 35.5963C43.6917 35.5195 43.7168 35.4455 43.7556 35.3784C46.2856 31.0245 47.2938 25.952 46.621 20.9615C45.9225 15.8677 43.5307 11.1571 39.8304 7.58755C36.13 4.01801 31.3364 1.79716 26.2208 1.28238C25.4856 1.21457 24.7374 1.1792 23.9986 1.1792H24.0033Z" fill="currentColor"/>
</svg>
