<svg width="48" height="48" viewBox="0 0 48 48" fill="none" xmlns="http://www.w3.org/2000/svg">
<path d="M27.0208 45.967H20.9792C20.4373 45.9531 19.9205 45.7355 19.5319 45.3575C19.1433 44.9795 18.9115 44.4689 18.8826 43.9276C18.8602 43.7018 18.8018 43.7018 18.7139 43.7018H2.10016C1.54335 43.7011 1.00953 43.4797 0.615813 43.0859C0.222092 42.6922 0.000624221 42.1584 0 41.6016V9.12934C0.000624221 8.57254 0.222092 8.03871 0.615813 7.64499C1.00953 7.25127 1.54335 7.0298 2.10016 7.02917H2.85544V8.20838H2.10016C1.85595 8.20853 1.6218 8.30561 1.44912 8.47829C1.27644 8.65097 1.17936 8.88514 1.1792 9.12934V41.6016C1.17936 41.8458 1.27644 42.08 1.44912 42.2526C1.6218 42.4253 1.85595 42.5224 2.10016 42.5226H18.7139C19.0621 42.5165 19.3985 42.6484 19.6499 42.8894C19.9013 43.1304 20.0472 43.461 20.0559 43.8091C20.0591 44.0584 20.1558 44.2974 20.3269 44.4788C20.498 44.6602 20.731 44.7707 20.9798 44.7884H27.0214C27.2703 44.7704 27.5034 44.6596 27.6745 44.4779C27.8456 44.2962 27.9423 44.0569 27.9453 43.8073C27.9543 43.4594 28.1004 43.1292 28.3517 42.8886C28.6031 42.6479 28.9393 42.5164 29.2872 42.5226H45.901C46.1452 42.5224 46.3794 42.4253 46.5521 42.2526C46.7247 42.08 46.8218 41.8458 46.822 41.6016V9.12934C46.8219 9.00832 46.798 8.88849 46.7516 8.77671C46.7052 8.66493 46.6373 8.5634 46.5516 8.47788C46.466 8.39236 46.3644 8.32454 46.2525 8.2783C46.1407 8.23206 46.0209 8.2083 45.8998 8.20838H45.1446V7.02917H45.8998C46.4566 7.0298 46.9905 7.25127 47.3842 7.64499C47.7779 8.03871 47.9994 8.57254 48 9.12934V41.6016C47.9994 42.1584 47.7779 42.6922 47.3842 43.0859C46.9905 43.4797 46.4566 43.7011 45.8998 43.7018H29.2861C29.1982 43.7018 29.1398 43.7018 29.1174 43.9258C29.0888 44.4674 28.8571 44.9783 28.4685 45.3567C28.0799 45.735 27.563 45.9529 27.0208 45.967Z" fill="currentColor"/>
<path d="M24.0003 41.4361C23.9068 41.4361 23.8146 41.4139 23.7314 41.3713C23.6481 41.3286 23.5762 41.2668 23.5216 41.1908C23.2144 40.764 22.1331 39.9739 18.3461 39.4851C15.6142 39.1716 12.8655 39.0285 10.1158 39.0565C7.31463 39.0565 5.1732 39.1685 5.15198 39.1697C5.07196 39.1739 4.99192 39.1618 4.91674 39.1341C4.84156 39.1064 4.77282 39.0636 4.71472 39.0085C4.65661 38.9533 4.61037 38.8868 4.5788 38.8132C4.54724 38.7395 4.53102 38.6602 4.53113 38.5801V4.59667C4.53111 4.44192 4.59193 4.29337 4.70047 4.18306C4.80901 4.07276 4.95657 4.00955 5.1113 4.00707C5.12898 4.00707 5.55939 4 6.2905 4C8.3824 4 12.4542 4.05483 16.2188 4.42097C17.9724 4.56477 19.7119 4.84609 21.4214 5.26233C23.1714 5.72988 24.1589 6.3071 24.5292 7.07889C24.5677 7.15831 24.5878 7.24535 24.5882 7.3336V40.8442C24.5882 41.0005 24.5261 41.1505 24.4155 41.2611C24.3049 41.3716 24.1549 41.4338 23.9986 41.4338L24.0003 41.4361ZM10.1158 37.8779C12.9159 37.8497 15.7151 37.996 18.497 38.316C19.7237 38.4551 20.9351 38.7054 22.1166 39.0636C22.564 39.2041 22.9971 39.3867 23.4102 39.6089V7.49633C23.2374 7.26049 22.7121 6.8289 21.1195 6.4038C19.4726 6.00439 17.797 5.73452 16.1079 5.59664C12.3935 5.23522 8.36412 5.18392 6.29344 5.18392C6.07058 5.18392 5.87483 5.18392 5.71092 5.18392V37.9657C6.55346 37.9304 8.17958 37.8779 10.1158 37.8779Z" fill="currentColor"/>
<path d="M24.0003 41.4361C23.8439 41.4361 23.694 41.374 23.5834 41.2634C23.4728 41.1528 23.4107 41.0028 23.4107 40.8465V7.33592C23.4111 7.24767 23.4312 7.16063 23.4697 7.08121C23.8399 6.30942 24.8257 5.73161 26.5775 5.26465C28.287 4.84841 30.0265 4.56709 31.7801 4.42329C35.5447 4.05656 39.6165 4.00232 41.7084 4.00232C42.4424 4.00232 42.8723 4.00939 42.8876 4.00939C43.0423 4.01187 43.1899 4.07508 43.2984 4.18538C43.4069 4.29569 43.4678 4.44424 43.4678 4.59899V38.5812C43.4679 38.6614 43.4516 38.7407 43.4201 38.8143C43.3885 38.888 43.3423 38.9544 43.2842 39.0096C43.2261 39.0648 43.1573 39.1075 43.0821 39.1353C43.007 39.163 42.9269 39.1751 42.8469 39.1708C42.8257 39.1708 40.6842 39.0576 37.8831 39.0576C35.1334 39.0296 32.3847 39.1728 29.6528 39.4863C28.0273 39.6962 25.1937 40.1967 24.4773 41.192C24.4227 41.2674 24.351 41.3289 24.2681 41.3713C24.1852 41.4138 24.0934 41.436 24.0003 41.4361ZM24.5899 7.49629V39.6089C25.0029 39.3867 25.436 39.2041 25.8835 39.0635C27.0649 38.7053 28.2764 38.4551 29.503 38.3159C32.285 37.996 35.0841 37.8496 37.8842 37.8778C39.8199 37.8778 41.4466 37.9309 42.2897 37.9645V5.18269C42.1258 5.18269 41.9301 5.18269 41.7072 5.18269C39.6365 5.18269 35.6084 5.23694 31.8927 5.59542C30.2037 5.7333 28.528 6.00317 26.8811 6.40258C25.288 6.82886 24.7627 7.26163 24.5899 7.49629Z" fill="currentColor"/>
<path d="M33.8172 27.8427C33.6608 27.8427 33.5108 27.7806 33.4002 27.67C33.2897 27.5594 33.2276 27.4095 33.2276 27.2531V18.7805H30.7966C30.6403 18.7805 30.4903 18.7184 30.3797 18.6078C30.2691 18.4972 30.207 18.3473 30.207 18.1909C30.207 18.0345 30.2691 17.8846 30.3797 17.774C30.4903 17.6634 30.6403 17.6013 30.7966 17.6013H33.8172C33.9735 17.6013 34.1235 17.6634 34.2341 17.774C34.3446 17.8846 34.4068 18.0345 34.4068 18.1909V27.2531C34.4068 27.4095 34.3446 27.5594 34.2341 27.67C34.1235 27.7806 33.9735 27.8427 33.8172 27.8427Z" fill="currentColor"/>
<path d="M35.7734 28.5602H31.0566C30.9002 28.5602 30.7502 28.4981 30.6397 28.3875C30.5291 28.2769 30.467 28.127 30.467 27.9706C30.467 27.8142 30.5291 27.6642 30.6397 27.5537C30.7502 27.4431 30.9002 27.381 31.0566 27.381H35.7734C35.9298 27.381 36.0797 27.4431 36.1903 27.5537C36.3009 27.6642 36.363 27.8142 36.363 27.9706C36.363 28.127 36.3009 28.2769 36.1903 28.3875C36.0797 28.4981 35.9298 28.5602 35.7734 28.5602Z" fill="currentColor"/>
<path d="M33.8177 16.2205C33.61 16.2205 33.407 16.1589 33.2343 16.0436C33.0616 15.9282 32.9271 15.7642 32.8476 15.5723C32.7681 15.3804 32.7473 15.1693 32.7878 14.9656C32.8283 14.7619 32.9283 14.5748 33.0752 14.4279C33.2221 14.2811 33.4092 14.1811 33.6129 14.1405C33.8166 14.1 34.0277 14.1208 34.2196 14.2003C34.4114 14.2798 34.5754 14.4144 34.6908 14.5871C34.8062 14.7597 34.8678 14.9628 34.8678 15.1705C34.8675 15.4489 34.7568 15.7158 34.5599 15.9126C34.363 16.1095 34.0961 16.2202 33.8177 16.2205ZM33.8177 14.71C33.7571 14.7093 33.6969 14.7208 33.6408 14.7437C33.5846 14.7667 33.5336 14.8006 33.4907 14.8434C33.4478 14.8863 33.4139 14.9373 33.391 14.9935C33.3681 15.0496 33.3566 15.1098 33.3572 15.1705C33.3572 15.2615 33.3842 15.3506 33.4348 15.4263C33.4854 15.502 33.5574 15.561 33.6415 15.5959C33.7256 15.6307 33.8182 15.6398 33.9076 15.6221C33.9969 15.6043 34.0789 15.5605 34.1433 15.4961C34.2077 15.4317 34.2516 15.3496 34.2693 15.2603C34.2871 15.171 34.278 15.0784 34.2431 14.9942C34.2083 14.9101 34.1493 14.8382 34.0735 14.7876C33.9978 14.737 33.9088 14.71 33.8177 14.71Z" fill="currentColor"/>
</svg>
