<svg width="48" height="48" viewBox="0 0 48 48" fill="none" xmlns="http://www.w3.org/2000/svg">
<path d="M44.3866 48H3.61358C3.05599 47.9994 2.52141 47.7776 2.12713 47.3833C1.73285 46.989 1.51106 46.4544 1.51044 45.8968V30.0408C1.51044 29.8836 1.57289 29.7329 1.68406 29.6217C1.79522 29.5105 1.94599 29.4481 2.10321 29.4481C2.26042 29.4481 2.41119 29.5105 2.52236 29.6217C2.63352 29.7329 2.69598 29.8836 2.69598 30.0408V45.8968C2.69613 46.1402 2.79286 46.3735 2.96491 46.5455C3.13696 46.7176 3.37027 46.8143 3.61358 46.8144H44.3866C44.63 46.8143 44.8633 46.7176 45.0353 46.5455C45.2074 46.3735 45.3041 46.1402 45.3043 45.8968V26.2655C45.3043 26.1083 45.3667 25.9575 45.4779 25.8463C45.589 25.7352 45.7398 25.6727 45.897 25.6727C46.0542 25.6727 46.205 25.7352 46.3162 25.8463C46.4273 25.9575 46.4898 26.1083 46.4898 26.2655V45.8968C46.4892 46.4544 46.2674 46.989 45.8731 47.3833C45.4788 47.7776 44.9442 47.9994 44.3866 48Z" fill="currentColor"/>
<path d="M35.1637 5.71648H33.9781V3.88246C33.313 3.36527 32.5823 2.93851 31.8051 2.61334C29.3292 1.6061 26.6722 1.12018 24.0001 1.18595C21.3298 1.13866 18.6769 1.6239 16.1962 2.61334C15.4186 2.93837 14.6874 3.36514 14.022 3.88246V5.71648H12.8364V3.6163C12.8365 3.4591 12.8989 3.30835 13.0101 3.19721C13.7895 2.50875 14.6795 1.95683 15.6426 1.56473C16.7345 1.08694 17.8735 0.725145 19.0409 0.485293C20.6729 0.153269 22.3347 -0.00922304 24.0001 0.000407533C25.6656 -0.00926389 27.3276 0.153228 28.9598 0.485293C30.1271 0.72419 31.2661 1.08499 32.3581 1.56176C33.3212 1.95387 34.2112 2.50579 34.9906 3.19425C35.1018 3.30539 35.1642 3.45614 35.1643 3.61334L35.1637 5.71648Z" fill="currentColor"/>
<path d="M22.1655 25.6727H25.8347C26.3063 25.6727 26.7587 25.8601 27.0922 26.1936C27.4256 26.5271 27.613 26.9794 27.613 27.451V32.6307C27.613 33.1023 27.4256 33.5546 27.0922 33.8881C26.7587 34.2216 26.3063 34.409 25.8347 34.409H22.1655C21.6938 34.409 21.2415 34.2216 20.908 33.8881C20.5745 33.5546 20.3871 33.1023 20.3871 32.6307V27.451C20.3871 26.9794 20.5745 26.5271 20.908 26.1936C21.2415 25.8601 21.6938 25.6727 22.1655 25.6727ZM25.8347 33.2234C25.9919 33.2234 26.1427 33.161 26.2538 33.0498C26.365 32.9386 26.4275 32.7879 26.4275 32.6307V27.451C26.4275 27.2938 26.365 27.1431 26.2538 27.0319C26.1427 26.9207 25.9919 26.8583 25.8347 26.8583H22.1655C22.0082 26.8583 21.8575 26.9207 21.7463 27.0319C21.6351 27.1431 21.5727 27.2938 21.5727 27.451V32.6307C21.5727 32.7879 21.6351 32.9386 21.7463 33.0498C21.8575 33.161 22.0082 33.2234 22.1655 33.2234H25.8347Z" fill="currentColor"/>
<path d="M27.019 29.7593C26.9412 29.762 26.8636 29.7494 26.7906 29.7221C26.7176 29.6948 26.6508 29.6534 26.5938 29.6003C26.4787 29.493 26.411 29.3445 26.4055 29.1872C26.4 29.03 26.4572 28.8771 26.5645 28.762C26.6717 28.647 26.8203 28.5792 26.9775 28.5737C34.7505 28.0177 44.6237 25.6028 46.814 25.0491V9.65429C46.8138 9.41098 46.7171 9.17767 46.545 9.00562C46.373 8.83357 46.1397 8.73684 45.8964 8.73669H2.10315C1.85983 8.73684 1.62652 8.83357 1.45447 9.00562C1.28242 9.17767 1.1857 9.41098 1.18554 9.65429V25.0503C3.37582 25.6039 13.2508 28.0189 21.022 28.5749C21.1788 28.5861 21.3247 28.6592 21.4277 28.7781C21.5306 28.8969 21.5821 29.0518 21.5709 29.2086C21.5596 29.3654 21.4866 29.5113 21.3677 29.6143C21.2489 29.7172 21.094 29.7687 20.9372 29.7575C16.3586 29.3662 11.811 28.6719 7.32426 27.6792C3.37227 26.8517 0.470659 26.0912 0.442206 26.0835C0.315821 26.0503 0.203945 25.9763 0.123974 25.8729C0.0440025 25.7696 0.000418872 25.6427 0 25.5121L0 9.65429C0.000627571 9.0967 0.22241 8.56212 0.61669 8.16784C1.01097 7.77356 1.54555 7.55178 2.10315 7.55115H45.897C46.4546 7.55178 46.9891 7.77356 47.3834 8.16784C47.7777 8.56212 47.9995 9.0967 48.0001 9.65429V25.5121C48.0001 25.643 47.9567 25.7703 47.8767 25.874C47.7967 25.9777 47.6846 26.052 47.5579 26.0853C47.5289 26.093 44.6278 26.8559 40.6758 27.681C36.1863 28.6588 31.6397 29.3529 27.0629 29.7593H27.019Z" fill="currentColor"/>
</svg>
