<svg width="48" height="48" viewBox="0 0 48 48" fill="none" xmlns="http://www.w3.org/2000/svg">
<mask id="mask0_149_1110" style="mask-type:luminance" maskUnits="userSpaceOnUse" x="0" y="4" width="48" height="39">
<path d="M48 4H0V42.4928H48V4Z" fill="white"/>
</mask>
<g mask="url(#mask0_149_1110)">
<path d="M37.8363 22.1655C39.8471 22.1641 41.8132 22.7594 43.4856 23.8759C45.1579 24.9925 46.4614 26.5802 47.2309 28.4379C48.0004 30.2957 48.2014 32.3401 47.8084 34.3121C47.4154 36.2842 46.4462 38.0953 45.0233 39.5162C43.9624 40.5756 42.6803 41.3872 41.2689 41.8928C39.8575 42.3984 38.3517 42.5855 36.8594 42.4406C35.3672 42.2958 33.9255 41.8226 32.6376 41.055C31.3498 40.2873 30.2477 39.2443 29.4104 38.0007C28.5731 36.757 28.0213 35.3435 27.7946 33.8615C27.5679 32.3795 27.6718 30.8657 28.099 29.4286C28.5262 27.9914 29.266 26.6666 30.2655 25.5491C31.2649 24.4316 32.4992 23.549 33.8799 22.9646C35.1315 22.4348 36.4772 22.163 37.8363 22.1655ZM37.8363 41.5422C39.9618 41.5409 42.0215 40.8049 43.6665 39.459C45.3115 38.113 46.4406 36.2397 46.8627 34.1566C47.2847 32.0734 46.9736 29.9084 45.9822 28.0283C44.9907 26.1482 43.3798 24.6686 41.4224 23.8402C39.171 22.8891 36.634 22.8714 34.3695 23.7908C32.1049 24.7103 30.2984 26.4917 29.3473 28.7431C28.3962 30.9945 28.3784 33.5316 29.2979 35.7961C30.2174 38.0606 31.9988 39.8671 34.2502 40.8182C35.3847 41.2984 36.6044 41.5446 37.8363 41.5422Z" fill="currentColor"/>
<path d="M43.2854 32.8041H37.8358C37.7098 32.8041 37.5889 32.754 37.4997 32.6648C37.4106 32.5757 37.3605 32.4548 37.3605 32.3287V26.8792C37.3605 26.7531 37.4106 26.6322 37.4997 26.543C37.5889 26.4539 37.7098 26.4038 37.8358 26.4038C37.9619 26.4038 38.0828 26.4539 38.172 26.543C38.2611 26.6322 38.3112 26.7531 38.3112 26.8792V31.8533H43.2854C43.4114 31.8533 43.5323 31.9034 43.6215 31.9926C43.7106 32.0817 43.7607 32.2026 43.7607 32.3287C43.7607 32.4548 43.7106 32.5757 43.6215 32.6648C43.5323 32.754 43.4114 32.8041 43.2854 32.8041Z" fill="currentColor"/>
<path d="M43.8915 21.2993C43.7654 21.2993 43.6445 21.2492 43.5553 21.16C43.4662 21.0709 43.4161 20.95 43.4161 20.8239V7.50286C43.4158 7.30778 43.3382 7.12076 43.2003 6.98281C43.0623 6.84487 42.8753 6.76726 42.6802 6.76701H11.1938C10.9987 6.76726 10.8117 6.84487 10.6737 6.98281C10.5358 7.12076 10.4582 7.30778 10.4579 7.50286V12.9524C10.4579 13.0785 10.4078 13.1994 10.3187 13.2885C10.2295 13.3777 10.1086 13.4278 9.98256 13.4278C9.85649 13.4278 9.73558 13.3777 9.64643 13.2885C9.55728 13.1994 9.5072 13.0785 9.5072 12.9524V7.50286C9.50771 7.05571 9.68556 6.62701 10.0017 6.31083C10.3179 5.99464 10.7466 5.81679 11.1938 5.81628H42.6802C43.1274 5.81679 43.5561 5.99464 43.8723 6.31083C44.1885 6.62701 44.3663 7.05571 44.3668 7.50286V20.8239C44.3668 20.95 44.3167 21.0709 44.2276 21.16C44.1384 21.2492 44.0175 21.2993 43.8915 21.2993Z" fill="currentColor"/>
<path d="M16.0377 8.5839C15.9117 8.5839 15.7908 8.53382 15.7016 8.44467C15.6125 8.35552 15.5624 8.23461 15.5624 8.10854V4.47536C15.5624 4.34929 15.6125 4.22838 15.7016 4.13923C15.7908 4.05008 15.9117 4 16.0377 4C16.1638 4 16.2847 4.05008 16.3739 4.13923C16.463 4.22838 16.5131 4.34929 16.5131 4.47536V8.10854C16.5131 8.17097 16.5008 8.23278 16.4769 8.29045C16.453 8.34813 16.418 8.40053 16.3739 8.44467C16.3297 8.48881 16.2773 8.52383 16.2197 8.54772C16.162 8.57161 16.1002 8.5839 16.0377 8.5839Z" fill="currentColor"/>
<path d="M21.4872 8.5839C21.3612 8.5839 21.2402 8.53382 21.1511 8.44467C21.062 8.35552 21.0119 8.23461 21.0119 8.10854V4.47536C21.0119 4.34929 21.062 4.22838 21.1511 4.13923C21.2402 4.05008 21.3612 4 21.4872 4C21.6133 4 21.7342 4.05008 21.8234 4.13923C21.9125 4.22838 21.9626 4.34929 21.9626 4.47536V8.10854C21.9626 8.17097 21.9503 8.23278 21.9264 8.29045C21.9025 8.34813 21.8675 8.40053 21.8234 8.44467C21.7792 8.48881 21.7268 8.52383 21.6691 8.54772C21.6115 8.57161 21.5497 8.5839 21.4872 8.5839Z" fill="currentColor"/>
<path d="M26.9368 8.5839C26.8107 8.5839 26.6898 8.53382 26.6007 8.44467C26.5115 8.35552 26.4615 8.23461 26.4615 8.10854V4.47536C26.4615 4.34929 26.5115 4.22838 26.6007 4.13923C26.6898 4.05008 26.8107 4 26.9368 4C27.0629 4 27.1838 4.05008 27.2729 4.13923C27.3621 4.22838 27.4122 4.34929 27.4122 4.47536V8.10854C27.4122 8.17097 27.3999 8.23278 27.376 8.29045C27.3521 8.34813 27.3171 8.40053 27.2729 8.44467C27.2288 8.48881 27.1764 8.52383 27.1187 8.54772C27.0611 8.57161 26.9992 8.5839 26.9368 8.5839Z" fill="currentColor"/>
<path d="M32.3863 8.5839C32.2602 8.5839 32.1393 8.53382 32.0502 8.44467C31.961 8.35552 31.9109 8.23461 31.9109 8.10854V4.47536C31.9109 4.34929 31.961 4.22838 32.0502 4.13923C32.1393 4.05008 32.2602 4 32.3863 4C32.5124 4 32.6333 4.05008 32.7224 4.13923C32.8116 4.22838 32.8617 4.34929 32.8617 4.47536V8.10854C32.8617 8.17097 32.8494 8.23278 32.8255 8.29045C32.8016 8.34813 32.7666 8.40053 32.7224 8.44467C32.6783 8.48881 32.6259 8.52383 32.5682 8.54772C32.5105 8.57161 32.4487 8.5839 32.3863 8.5839Z" fill="currentColor"/>
<path d="M37.8358 8.5839C37.7098 8.5839 37.5889 8.53382 37.4997 8.44467C37.4106 8.35552 37.3605 8.23461 37.3605 8.10854V4.47536C37.3605 4.34929 37.4106 4.22838 37.4997 4.13923C37.5889 4.05008 37.7098 4 37.8358 4C37.9619 4 38.0828 4.05008 38.172 4.13923C38.2611 4.22838 38.3112 4.34929 38.3112 4.47536V8.10854C38.3112 8.17097 38.2989 8.23278 38.275 8.29045C38.2511 8.34813 38.2161 8.40053 38.172 8.44467C38.1278 8.48881 38.0754 8.52383 38.0177 8.54772C37.9601 8.57161 37.8983 8.5839 37.8358 8.5839Z" fill="currentColor"/>
<path d="M15.6132 42.4929H1.68515C1.23832 42.4917 0.810139 42.3136 0.494315 41.9975C0.178492 41.6815 0.000752926 41.2531 0 40.8063L0 14.1642C0.000503269 13.7171 0.178358 13.2884 0.494543 12.9722C0.810729 12.656 1.23943 12.4782 1.68658 12.4777H33.173C33.6202 12.4782 34.0489 12.656 34.3651 12.9722C34.6813 13.2884 34.8591 13.7171 34.8596 14.1642V27.4829C34.8596 27.609 34.8095 27.7299 34.7204 27.819C34.6312 27.9082 34.5103 27.9583 34.3843 27.9583C34.2582 27.9583 34.1373 27.9082 34.0481 27.819C33.959 27.7299 33.9089 27.609 33.9089 27.4829V14.1642C33.9086 13.9692 33.831 13.7821 33.6931 13.6442C33.5551 13.5062 33.3681 13.4286 33.173 13.4284H1.68658C1.49149 13.4286 1.30447 13.5062 1.16653 13.6442C1.02858 13.7821 0.950973 13.9692 0.950721 14.1642V40.8063C0.951097 41.0012 1.02862 41.188 1.16633 41.3259C1.30404 41.4638 1.49075 41.5415 1.68563 41.5421H15.6137C15.7398 41.5421 15.8607 41.5922 15.9498 41.6814C16.039 41.7705 16.0891 41.8914 16.0891 42.0175C16.0891 42.1436 16.039 42.2645 15.9498 42.3536C15.8607 42.4428 15.7393 42.4929 15.6132 42.4929Z" fill="currentColor"/>
<path d="M6.53048 15.245C6.4044 15.245 6.28349 15.195 6.19434 15.1058C6.1052 15.0167 6.05511 14.8957 6.05511 14.7697V11.1365C6.05511 11.0104 6.1052 10.8895 6.19434 10.8004C6.28349 10.7112 6.4044 10.6611 6.53048 10.6611C6.65655 10.6611 6.77746 10.7112 6.86661 10.8004C6.95575 10.8895 7.00584 11.0104 7.00584 11.1365V14.7697C7.00584 14.8321 6.99354 14.8939 6.96965 14.9516C6.94576 15.0093 6.91075 15.0617 6.86661 15.1058C6.82246 15.1499 6.77006 15.185 6.71239 15.2088C6.65471 15.2327 6.5929 15.245 6.53048 15.245Z" fill="currentColor"/>
<path d="M11.9801 15.245C11.854 15.245 11.7331 15.195 11.6439 15.1058C11.5548 15.0167 11.5047 14.8957 11.5047 14.7697V11.1365C11.5047 11.0104 11.5548 10.8895 11.6439 10.8004C11.7331 10.7112 11.854 10.6611 11.9801 10.6611C12.1061 10.6611 12.227 10.7112 12.3162 10.8004C12.4053 10.8895 12.4554 11.0104 12.4554 11.1365V14.7697C12.4554 14.8321 12.4431 14.8939 12.4192 14.9516C12.3953 15.0093 12.3603 15.0617 12.3162 15.1058C12.272 15.1499 12.2196 15.185 12.162 15.2088C12.1043 15.2327 12.0425 15.245 11.9801 15.245Z" fill="currentColor"/>
<path d="M17.4296 15.245C17.3035 15.245 17.1826 15.195 17.0934 15.1058C17.0043 15.0167 16.9542 14.8957 16.9542 14.7697V11.1365C16.9542 11.0104 17.0043 10.8895 17.0934 10.8004C17.1826 10.7112 17.3035 10.6611 17.4296 10.6611C17.5556 10.6611 17.6765 10.7112 17.7657 10.8004C17.8548 10.8895 17.9049 11.0104 17.9049 11.1365V14.7697C17.9049 14.8321 17.8926 14.8939 17.8687 14.9516C17.8448 15.0093 17.8098 15.0617 17.7657 15.1058C17.7215 15.1499 17.6691 15.185 17.6115 15.2088C17.5538 15.2327 17.492 15.245 17.4296 15.245Z" fill="currentColor"/>
<path d="M22.8791 15.245C22.753 15.245 22.6321 15.195 22.543 15.1058C22.4538 15.0167 22.4037 14.8957 22.4037 14.7697V11.1365C22.4037 11.0104 22.4538 10.8895 22.543 10.8004C22.6321 10.7112 22.753 10.6611 22.8791 10.6611C23.0052 10.6611 23.1261 10.7112 23.2152 10.8004C23.3044 10.8895 23.3545 11.0104 23.3545 11.1365V14.7697C23.3545 14.8321 23.3422 14.8939 23.3183 14.9516C23.2944 15.0093 23.2594 15.0617 23.2152 15.1058C23.1711 15.1499 23.1187 15.185 23.061 15.2088C23.0033 15.2327 22.9415 15.245 22.8791 15.245Z" fill="currentColor"/>
<path d="M28.3286 15.245C28.2026 15.245 28.0816 15.195 27.9925 15.1058C27.9034 15.0167 27.8533 14.8957 27.8533 14.7697V11.1365C27.8533 11.0104 27.9034 10.8895 27.9925 10.8004C28.0816 10.7112 28.2026 10.6611 28.3286 10.6611C28.4547 10.6611 28.5756 10.7112 28.6648 10.8004C28.7539 10.8895 28.804 11.0104 28.804 11.1365V14.7697C28.804 14.8321 28.7917 14.8939 28.7678 14.9516C28.7439 15.0093 28.7089 15.0617 28.6648 15.1058C28.6206 15.1499 28.5682 15.185 28.5105 15.2088C28.4529 15.2327 28.3911 15.245 28.3286 15.245Z" fill="currentColor"/>
<path d="M31.2264 20.089H3.63318V19.1383H31.2264V20.089Z" fill="currentColor"/>
</g>
</svg>
