<svg width="49" height="48" viewBox="0 0 49 48" fill="none" xmlns="http://www.w3.org/2000/svg">
<path d="M30.9578 47.9997C29.5645 47.9955 28.1785 47.7971 26.84 47.4101C23.395 46.426 20.3143 44.3141 17.697 42.412C15.3875 40.7451 13.2117 38.9003 11.1895 36.8945C9.15582 34.8457 7.28319 32.6431 5.5883 30.3062C3.68623 27.6884 1.57427 24.6065 0.589633 21.1632C0.197033 19.8054 -0.00146904 18.3988 2.78119e-05 16.9853C-0.00299481 15.5649 0.240381 14.1546 0.719342 12.8174C1.28824 11.3066 2.16736 9.9318 3.30005 8.78154C4.67795 7.39538 6.19913 6.66309 7.69908 6.66309C7.86118 6.66321 8.02315 6.67187 8.18433 6.68903C9.70583 6.90769 11.1164 7.61062 12.2072 8.69368C13.2848 9.71101 14.1741 10.9108 14.8339 12.2378C15.575 13.7254 15.7554 15.0455 15.371 16.1616C14.9523 17.1365 14.2863 17.9852 13.4389 18.6238C12.9603 19.0195 12.5277 19.4679 12.1494 19.9604C11.6654 20.6619 11.4453 21.512 11.528 22.3601C11.608 23.2495 11.8982 24.1072 12.3746 24.8624C15.0165 29.2847 18.7141 32.9827 23.1361 35.6251C23.9826 36.1619 24.9589 36.4588 25.9609 36.4841C26.7029 36.4955 27.4297 36.274 28.0393 35.8509C28.5318 35.4726 28.9802 35.0401 29.3759 34.5614C30.0155 33.7132 30.8657 33.047 31.8422 32.6287C32.2324 32.4964 32.6419 32.43 33.0538 32.4323C34.0023 32.4652 34.9304 32.7162 35.766 33.1658C37.0927 33.8261 38.2923 34.7156 39.3096 35.7931C40.3927 36.8835 41.0957 38.294 41.3142 39.8154C41.4834 41.4073 40.8184 43.0382 39.3897 44.5293C38.2056 45.7416 36.7709 46.6806 35.1859 47.2804C33.8295 47.7658 32.3984 48.0092 30.9578 47.9997ZM7.70203 7.83994C6.2121 7.83994 4.94209 8.80276 4.13905 9.60875C3.12933 10.6399 2.3433 11.8683 1.83016 13.2171C1.00251 15.6836 0.966849 18.3471 1.72816 20.8348C2.65973 24.0936 4.70389 27.0723 6.547 29.6087C8.20473 31.8955 10.0364 34.051 12.0256 36.0561C14.0043 38.0184 16.1334 39.8232 18.3933 41.4539C20.9286 43.2964 23.9073 45.3406 27.1672 46.2715C28.4004 46.6292 29.6774 46.8132 30.9613 46.8181C32.264 46.8273 33.5582 46.6078 34.7849 46.1695C36.2013 45.6333 37.4833 44.794 38.5413 43.7103C39.3667 42.8513 40.3101 41.4993 40.1444 39.9368C39.9506 38.6683 39.3548 37.4955 38.4446 36.5908C37.5246 35.6176 36.44 34.8144 35.2407 34.2183C34.5677 33.851 33.8197 33.6425 33.0538 33.6086C32.7733 33.6067 32.4944 33.6513 32.2284 33.7407C31.4485 34.103 30.7717 34.6547 30.2597 35.3456C29.8051 35.8923 29.2892 36.3849 28.722 36.8137C27.9149 37.377 26.9515 37.6731 25.9674 37.6604C24.7485 37.6346 23.5595 37.2779 22.5276 36.6286C17.9462 33.8887 14.1146 30.0568 11.3753 25.475C10.8008 24.5597 10.4522 23.521 10.3582 22.4444C10.2587 21.3255 10.5529 20.2069 11.1901 19.2818C11.6188 18.7147 12.1112 18.1987 12.6577 17.7441C13.3483 17.232 13.8998 16.5552 14.262 15.7754C14.5397 14.9694 14.3799 13.9559 13.7844 12.762C13.1887 11.5624 12.3857 10.4775 11.4124 9.55746C10.5076 8.64715 9.33457 8.05114 8.06582 7.85704C7.94495 7.8449 7.82351 7.8392 7.70203 7.83994Z" fill="currentColor"/>
<path d="M12.193 18.8256C12.0366 18.8255 11.8867 18.7634 11.7762 18.6528L10.0073 16.884C9.89681 16.7734 9.83472 16.6235 9.83472 16.4672C9.83472 16.3108 9.89681 16.1609 10.0073 16.0503C10.1179 15.9398 10.2679 15.8777 10.4242 15.8777C10.5805 15.8777 10.7305 15.9398 10.841 16.0503L12.6099 17.8191C12.6923 17.9016 12.7484 18.0066 12.7712 18.121C12.7939 18.2353 12.7822 18.3539 12.7376 18.4616C12.693 18.5693 12.6174 18.6614 12.5205 18.7262C12.4236 18.791 12.3096 18.8256 12.193 18.8256Z" fill="currentColor"/>
<path d="M31.65 37.6928C31.5587 37.6926 31.4687 37.6712 31.3871 37.6303L30.2079 37.0407C30.068 36.9708 29.9616 36.8483 29.9121 36.7C29.8626 36.5517 29.8739 36.3899 29.9437 36.25C30.0137 36.1102 30.1362 36.004 30.2845 35.9546C30.4328 35.9052 30.5946 35.9166 30.7344 35.9864L31.9136 36.576C32.0322 36.6355 32.1274 36.7333 32.1835 36.8535C32.2397 36.9737 32.2537 37.1094 32.2232 37.2386C32.1928 37.3677 32.1196 37.4829 32.0156 37.5653C31.9115 37.6477 31.7828 37.6926 31.65 37.6928Z" fill="currentColor"/>
<path d="M45.6077 29.9578C45.5091 29.9578 45.4122 29.9331 45.3256 29.8859C45.2391 29.8387 45.1658 29.7706 45.1123 29.6878C45.0589 29.605 45.0271 29.5101 45.0198 29.4119C45.0125 29.3136 45.0299 29.2151 45.0705 29.1253C46.7261 25.4596 47.2259 21.3766 46.5034 17.4198C45.7809 13.463 43.8704 9.82018 41.0262 6.97615C38.1819 4.13212 34.539 2.22184 30.5821 1.49961C26.6253 0.777378 22.5423 1.27745 18.8768 2.93326C18.806 2.96684 18.7292 2.98598 18.651 2.98956C18.5727 2.99315 18.4946 2.9811 18.421 2.95413C18.3475 2.92715 18.28 2.88579 18.2226 2.83246C18.1653 2.77914 18.1191 2.71491 18.0868 2.64354C18.0545 2.57216 18.0368 2.49506 18.0346 2.41676C18.0325 2.33845 18.046 2.2605 18.0743 2.18746C18.1026 2.11442 18.1452 2.04775 18.1996 1.99136C18.2539 1.93496 18.319 1.88997 18.3909 1.859C22.2748 0.105144 26.6006 -0.424261 30.7928 0.341251C34.9849 1.10676 38.8445 3.13088 41.8578 6.1442C44.8712 9.15751 46.8953 13.0171 47.6608 17.2093C48.4263 21.4014 47.8969 25.7273 46.143 29.6111C46.0964 29.7141 46.0212 29.8016 45.9263 29.8631C45.8314 29.9246 45.7208 29.9574 45.6077 29.9578Z" fill="currentColor"/>
<path d="M39.2977 23.6467C39.212 23.6467 39.1272 23.6281 39.0494 23.5921C38.9716 23.556 38.9026 23.5034 38.8472 23.438C38.7918 23.3725 38.7513 23.2958 38.7286 23.2131C38.7059 23.1304 38.7016 23.0437 38.7158 22.9592C39.0456 21.0906 38.92 19.1701 38.3497 17.3604C37.7793 15.5507 36.781 13.9052 35.4394 12.5634C34.0978 11.2216 32.4524 10.2231 30.6428 9.6525C28.8332 9.08192 26.9127 8.95608 25.044 9.28566C24.9671 9.29986 24.8882 9.29861 24.8117 9.28199C24.7353 9.26538 24.663 9.23372 24.5989 9.18887C24.5348 9.14402 24.4803 9.08687 24.4385 9.02075C24.3968 8.95463 24.3686 8.88086 24.3556 8.80374C24.3426 8.72661 24.3451 8.64768 24.3629 8.57152C24.3807 8.49537 24.4135 8.42352 24.4594 8.36017C24.5052 8.29681 24.5632 8.24321 24.63 8.20249C24.6968 8.16176 24.771 8.13473 24.8483 8.12296C26.9023 7.76146 29.0131 7.90031 31.002 8.52775C32.9909 9.1552 34.7993 10.2528 36.274 11.7274C37.7487 13.2021 38.8463 15.0105 39.4737 16.9995C40.1011 18.9884 40.24 21.0992 39.8785 23.1532C39.8558 23.2908 39.7849 23.416 39.6786 23.5064C39.5722 23.5967 39.4373 23.6464 39.2977 23.6467Z" fill="currentColor"/>
</svg>
