<svg width="49" height="48" viewBox="0 0 49 48" fill="none" xmlns="http://www.w3.org/2000/svg">
<path d="M30.959 47.9998C29.5656 47.9957 28.1796 47.7972 26.8411 47.4102C23.3959 46.4261 20.3151 44.3141 17.6977 42.4119C15.3881 40.745 13.2122 38.9001 11.19 36.8942C9.15618 34.8453 7.28347 32.6426 5.58852 30.3057C3.68638 27.6877 1.57433 24.6058 0.589655 21.1623C0.197033 19.8044 -0.00147701 18.3978 2.78125e-05 16.9842C-0.00299493 15.5637 0.240395 14.1535 0.719374 12.8161C1.28812 11.3054 2.16708 9.93052 3.29959 8.78015C4.67755 7.39394 6.19879 6.66162 7.6988 6.66162C7.8609 6.66175 8.02287 6.6704 8.18406 6.68756C9.70564 6.90619 11.1163 7.60915 12.2071 8.6923C13.2847 9.70967 14.174 10.9096 14.8339 12.2366C15.5751 13.7242 15.7555 15.0444 15.371 16.1605C14.9522 17.1355 14.2862 17.9842 13.4388 18.6228C12.9602 19.0185 12.5276 19.4669 12.1493 19.9595C11.6653 20.661 11.4452 21.5111 11.5279 22.3593C11.6079 23.2487 11.8981 24.1064 12.3745 24.8616C15.0165 29.2841 18.7142 32.9822 23.1364 35.6247C23.9829 36.1616 24.9593 36.4585 25.9613 36.4838C26.7033 36.4952 27.4302 36.2737 28.0398 35.8505C28.5324 35.4723 28.9807 35.0397 29.3765 34.561C30.0163 33.7127 30.8667 33.0464 31.8435 32.6282C32.2336 32.4959 32.6431 32.4296 33.0551 32.4319C34.0036 32.4647 34.9317 32.7157 35.7674 33.1654C37.0941 33.8257 38.2938 34.7152 39.3111 35.7928C40.3943 36.8833 41.0973 38.2938 41.3158 39.8152C41.4851 41.4072 40.82 43.0381 39.3913 44.5293C38.2071 45.7417 36.7723 46.6806 35.1872 47.2805C33.8308 47.7659 32.3997 48.0094 30.959 47.9998ZM7.70234 7.83852C6.21236 7.83852 4.9423 8.80138 4.13923 9.6074C3.12944 10.6385 2.34337 11.867 1.83023 13.2159C1.00256 15.6825 0.966887 18.3461 1.72823 20.8339C2.65984 24.0928 4.70408 27.0716 6.54725 29.6082C8.20506 31.895 10.0368 34.0506 12.0261 36.0557C14.0049 38.0182 16.134 39.823 18.3941 41.4538C20.9295 43.2964 23.9083 45.3406 27.1683 46.2716C28.4015 46.6293 29.6786 46.8133 30.9626 46.8182C32.2653 46.8274 33.5595 46.6079 34.7863 46.1696C36.2027 45.6333 37.4848 44.7939 38.5428 43.7103C39.3683 42.8512 40.3117 41.4992 40.146 39.9367C39.9522 38.6681 39.3563 37.4952 38.4461 36.5905C37.5259 35.6172 36.441 34.814 35.2415 34.2179C34.5685 33.8506 33.8205 33.6421 33.0546 33.6082C32.774 33.6062 32.495 33.6509 32.2291 33.7403C31.4492 34.1026 30.7724 34.6543 30.2603 35.3452C29.8055 35.892 29.2894 36.3846 28.722 36.8134C27.9148 37.3767 26.9514 37.6728 25.9672 37.6601C24.7483 37.6343 23.5593 37.2776 22.5274 36.6283C17.9457 33.8883 14.114 30.0562 11.3745 25.4743C10.8001 24.5589 10.4514 23.5202 10.3574 22.4436C10.2579 21.3246 10.5522 20.206 11.1894 19.2808C11.618 18.7137 12.1105 18.1977 12.657 17.7431C13.3476 17.2309 13.8992 16.5541 14.2614 15.7743C14.5391 14.9683 14.3793 13.9547 13.7838 12.7607C13.1881 11.5611 12.385 10.4762 11.4117 9.5561C10.5068 8.64576 9.33375 8.04973 8.06496 7.85561C7.94447 7.84352 7.82343 7.83782 7.70234 7.83852Z" fill="currentColor"/>
<path d="M11.9188 18.1863C11.7624 18.1862 11.6125 18.1241 11.5019 18.0135L10.3227 16.8342C10.2121 16.7237 10.15 16.5737 10.15 16.4174C10.15 16.261 10.2121 16.1111 10.3227 16.0005C10.4332 15.89 10.5832 15.8279 10.7395 15.8279C10.8959 15.8279 11.0458 15.89 11.1564 16.0005L12.3356 17.1798C12.4181 17.2622 12.4742 17.3673 12.497 17.4816C12.5197 17.596 12.508 17.7145 12.4634 17.8223C12.4188 17.93 12.3432 18.0221 12.2463 18.0869C12.1494 18.1516 12.0354 18.1862 11.9188 18.1863Z" fill="currentColor"/>
<path d="M31.9661 38.2337C31.8097 38.2336 31.6597 38.1715 31.5492 38.0609L29.7803 36.292C29.6698 36.1814 29.6077 36.0315 29.6077 35.8751C29.6077 35.7188 29.6698 35.5689 29.7803 35.4583C29.8909 35.3477 30.0408 35.2856 30.1972 35.2856C30.3535 35.2856 30.5035 35.3477 30.614 35.4583L32.3829 37.2272C32.4654 37.3096 32.5215 37.4147 32.5442 37.529C32.567 37.6434 32.5553 37.7619 32.5107 37.8697C32.4661 37.9774 32.3905 38.0695 32.2936 38.1342C32.1966 38.199 32.0826 38.2336 31.9661 38.2337Z" fill="currentColor"/>
<path d="M43.6884 38.2318C43.583 38.2318 43.4794 38.2034 43.3887 38.1498C43.2979 38.0961 43.2231 38.0191 43.1722 37.9267C43.1214 37.8343 43.0962 37.73 43.0994 37.6246C43.1025 37.5191 43.1339 37.4165 43.1902 37.3273C46.0436 32.8047 47.2744 27.4463 46.6806 22.1318C46.0867 16.8173 43.7035 11.8627 39.9222 8.08144C36.141 4.30017 31.1864 1.91697 25.8719 1.32313C20.5574 0.72929 15.199 1.96011 10.6764 4.81351C10.5441 4.89701 10.3842 4.92457 10.2316 4.89013C10.0791 4.85568 9.94647 4.76205 9.86297 4.62983C9.77946 4.49761 9.75189 4.33764 9.78633 4.1851C9.82078 4.03256 9.91441 3.89995 10.0466 3.81644C14.7955 0.821189 20.4215 -0.47054 26.0013 0.153303C31.581 0.777145 36.7829 3.27949 40.753 7.24955C44.723 11.2196 47.2254 16.4215 47.8492 22.0012C48.4731 27.581 47.1813 33.2071 44.1861 37.9559C44.1331 38.0401 44.0597 38.1096 43.9727 38.1579C43.8857 38.2061 43.7879 38.2315 43.6884 38.2318Z" fill="currentColor"/>
<path d="M28.5357 26.0996H20.2284C20.1144 26.0996 20.0028 26.0665 19.9072 26.0043C19.8116 25.9422 19.7361 25.8536 19.6898 25.7494C19.6435 25.6452 19.6284 25.5298 19.6464 25.4172C19.6643 25.3046 19.7145 25.1996 19.7909 25.115L25.1005 19.2387L25.1212 19.2169C25.6966 18.6403 27.1908 16.882 27.1908 15.6927C27.1908 15.6927 27.1908 15.6892 27.1908 15.688C27.2266 15.2616 27.1767 14.8324 27.044 14.4256C26.9114 14.0189 26.6986 13.6427 26.4183 13.3195C26.0914 13.0276 25.7088 12.8051 25.2935 12.6652C24.8782 12.5253 24.4389 12.4711 24.002 12.5058C23.1581 12.5073 22.3491 12.8433 21.7523 13.4401C21.1556 14.0369 20.8196 14.8458 20.818 15.6898C20.818 15.8461 20.7559 15.9961 20.6453 16.1067C20.5348 16.2173 20.3848 16.2794 20.2284 16.2794C20.072 16.2794 19.9221 16.2173 19.8115 16.1067C19.7009 15.9961 19.6388 15.8461 19.6388 15.6898C19.6407 14.5331 20.101 13.4244 20.9188 12.6066C21.7367 11.7887 22.8454 11.3284 24.002 11.3265C24.594 11.294 25.1866 11.3801 25.7449 11.5796C26.3032 11.7792 26.816 12.0882 27.2532 12.4887C27.6458 12.9204 27.9469 13.4271 28.1384 13.9782C28.3299 14.5294 28.4079 15.1136 28.3676 15.6957C28.2659 16.781 27.8356 17.8094 27.1341 18.6438C26.7773 19.1348 26.3864 19.6002 25.9643 20.0365L21.5533 24.918H28.5333C28.6897 24.918 28.8397 24.9802 28.9503 25.0907C29.0608 25.2013 29.1229 25.3513 29.1229 25.5077C29.1229 25.664 29.0608 25.814 28.9503 25.9246C28.8397 26.0352 28.6897 26.0973 28.5333 26.0973L28.5357 26.0996Z" fill="currentColor"/>
<path d="M36.0876 26.0998C35.9312 26.0998 35.7812 26.0377 35.6707 25.9271C35.5601 25.8165 35.498 25.6666 35.498 25.5102V22.3262H29.291C29.1834 22.3262 29.0779 22.2967 28.9859 22.241C28.8938 22.1853 28.8188 22.1055 28.7689 22.0102C28.7189 21.9149 28.6961 21.8078 28.7026 21.7004C28.7092 21.5931 28.7451 21.4895 28.8063 21.4011L35.6029 11.5832C35.6745 11.4799 35.7771 11.4022 35.8959 11.3614C36.0147 11.3205 36.1435 11.3187 36.2634 11.3562C36.3833 11.3936 36.4881 11.4684 36.5625 11.5696C36.637 11.6707 36.6772 11.7931 36.6772 11.9187V21.1469H38.3529C38.5093 21.1469 38.6593 21.2091 38.7699 21.3196C38.8805 21.4302 38.9426 21.5802 38.9426 21.7366C38.9426 21.893 38.8805 22.0429 38.7699 22.1535C38.6593 22.2641 38.5093 22.3262 38.3529 22.3262H36.6772V25.5102C36.6772 25.6666 36.6151 25.8165 36.5045 25.9271C36.3939 26.0377 36.244 26.0998 36.0876 26.0998ZM30.416 21.1469H35.498V13.8031L30.416 21.1469Z" fill="currentColor"/>
</svg>
