<svg width="48" height="48" viewBox="0 0 48 48" fill="none" xmlns="http://www.w3.org/2000/svg">
<path d="M15.6509 21.6768H17.8448C18.6483 21.6777 19.4186 21.9973 19.9867 22.5654C20.5549 23.1336 20.8744 23.9038 20.8754 24.7073V27.4902C20.8744 28.2937 20.5549 29.064 19.9867 29.6321C19.4186 30.2002 18.6483 30.5198 17.8448 30.5208H15.6509C14.8476 30.5198 14.0775 30.2003 13.5095 29.6323C12.9414 29.0643 12.6219 28.2941 12.621 27.4908V24.7067C12.6219 23.9034 12.9414 23.1333 13.5095 22.5652C14.0775 21.9972 14.8476 21.6777 15.6509 21.6768ZM17.8448 29.3416C18.3356 29.3409 18.8062 29.1457 19.1532 28.7986C19.5003 28.4516 19.6956 27.981 19.6962 27.4902V24.7073C19.6956 24.2165 19.5003 23.746 19.1532 23.3989C18.8062 23.0518 18.3356 22.8566 17.8448 22.856H15.6509C15.1603 22.8566 14.6899 23.0518 14.3429 23.3987C13.996 23.7457 13.8008 24.2161 13.8002 24.7067V27.4908C13.8008 27.9815 13.996 28.4519 14.3429 28.7988C14.6899 29.1457 15.1603 29.3409 15.6509 29.3416H17.8448Z" fill="currentColor"/>
<path d="M24.5009 38.9381C24.3513 38.9384 24.2072 38.8819 24.0977 38.78C23.9883 38.6781 23.9216 38.5384 23.9113 38.3891C23.8523 37.7501 23.7314 37.1182 23.5505 36.5024C23.2946 35.6381 22.8081 34.4978 21.9432 33.963L19.698 32.7632C18.7979 33.3278 17.7568 33.6272 16.6943 33.6272C15.6317 33.6272 14.5907 33.3278 13.6906 32.7632L11.4501 33.9601C10.5857 34.4948 10.0993 35.6351 9.84342 36.4995C9.66345 37.1163 9.54379 37.7492 9.48612 38.3891C9.48082 38.4666 9.46032 38.5422 9.42579 38.6117C9.39126 38.6812 9.34338 38.7432 9.28488 38.7942C9.22638 38.8452 9.1584 38.8842 9.08484 38.9089C9.01128 38.9337 8.93356 38.9437 8.85614 38.9384C8.77871 38.9331 8.70308 38.9126 8.63358 38.878C8.56408 38.8435 8.50205 38.7956 8.45106 38.7371C8.40006 38.6786 8.36108 38.6106 8.33635 38.5371C8.31162 38.4635 8.30162 38.3858 8.30692 38.3084C8.31813 38.1462 8.60172 34.3185 10.851 32.9507L10.8799 32.9342L13.4471 31.5628C13.5438 31.511 13.653 31.4873 13.7625 31.4943C13.872 31.5013 13.9773 31.5387 14.0667 31.6023C14.8312 32.1559 15.751 32.4539 16.6949 32.4539C17.6388 32.4539 18.5585 32.1559 19.323 31.6023C19.4125 31.5384 19.518 31.5007 19.6277 31.4937C19.7374 31.4866 19.8469 31.5103 19.9439 31.5622L22.5157 32.9365L22.5446 32.953C24.7916 34.3209 25.0799 38.1486 25.0887 38.3107C25.094 38.388 25.084 38.4656 25.0593 38.539C25.0346 38.6124 24.9957 38.6802 24.9448 38.7386C24.8939 38.797 24.8319 38.8447 24.7626 38.8792C24.6932 38.9136 24.6177 38.934 24.5404 38.9393L24.5009 38.9381Z" fill="currentColor"/>
<path d="M23.2444 23.0793C23.088 23.0793 22.938 23.0172 22.8275 22.9066C22.7169 22.7961 22.6548 22.6461 22.6548 22.4897V2.10016C22.6554 1.54336 22.8769 1.00954 23.2706 0.615816C23.6643 0.222096 24.1981 0.000624221 24.7549 0H45.8998C46.4566 0.000624221 46.9904 0.222096 47.3841 0.615816C47.7778 1.00954 47.9993 1.54336 47.9999 2.10016V15.6934C47.9993 16.2502 47.7778 16.784 47.3841 17.1777C46.9904 17.5715 46.4566 17.7929 45.8998 17.7935H29.5089L23.6329 22.9355C23.5251 23.0288 23.387 23.08 23.2444 23.0793ZM24.7549 1.1792C24.5107 1.17936 24.2766 1.27644 24.1039 1.44912C23.9312 1.6218 23.8341 1.85596 23.834 2.10016V21.1902L28.8975 16.7594C29.0051 16.6654 29.1431 16.6136 29.286 16.6138H45.8998C46.144 16.6136 46.3781 16.5165 46.5508 16.3438C46.7235 16.1712 46.8206 15.937 46.8207 15.6928V2.10016C46.8206 1.85596 46.7235 1.6218 46.5508 1.44912C46.3781 1.27644 46.144 1.17936 45.8998 1.1792H24.7549Z" fill="currentColor"/>
<path d="M41.5114 7.52637H29.1298C28.9734 7.52637 28.8234 7.46425 28.7129 7.35368C28.6023 7.24311 28.5402 7.09314 28.5402 6.93677C28.5402 6.7804 28.6023 6.63043 28.7129 6.51986C28.8234 6.40929 28.9734 6.34717 29.1298 6.34717H41.5114C41.6677 6.34717 41.8177 6.40929 41.9283 6.51986C42.0389 6.63043 42.101 6.7804 42.101 6.93677C42.101 7.09314 42.0389 7.24311 41.9283 7.35368C41.8177 7.46425 41.6677 7.52637 41.5114 7.52637Z" fill="currentColor"/>
<path d="M35.6154 11.6536H29.1298C28.9734 11.6536 28.8234 11.5914 28.7129 11.4809C28.6023 11.3703 28.5402 11.2203 28.5402 11.064C28.5402 10.9076 28.6023 10.7576 28.7129 10.6471C28.8234 10.5365 28.9734 10.4744 29.1298 10.4744H35.6154C35.7717 10.4744 35.9217 10.5365 36.0323 10.6471C36.1428 10.7576 36.205 10.9076 36.205 11.064C36.205 11.2203 36.1428 11.3703 36.0323 11.4809C35.9217 11.5914 35.7717 11.6536 35.6154 11.6536Z" fill="currentColor"/>
<path d="M45.0491 40.544H43.8699V21.0872H45.0491V40.544Z" fill="currentColor"/>
<path d="M4.19971 40.4484H3.02051V14.1829C3.0216 13.2257 3.4023 12.3081 4.07909 11.6313C4.75589 10.9546 5.6735 10.5738 6.63063 10.5728H19.3029V11.752H6.63063C5.98615 11.7527 5.36829 12.0091 4.91257 12.4648C4.45685 12.9205 4.20049 13.5384 4.19971 14.1829V40.4484Z" fill="currentColor"/>
<path d="M42.8793 48.0001H5.12068C3.76331 47.9977 2.4622 47.4575 1.5024 46.4977C0.542588 45.5379 0.00233828 44.2368 0 42.8794C0 42.723 0.0621184 42.5731 0.17269 42.4625C0.283261 42.3519 0.433229 42.2898 0.5896 42.2898H18.7139C18.8703 42.2898 19.0203 42.3519 19.1308 42.4625C19.2414 42.5731 19.3035 42.723 19.3035 42.8794V43.8004H28.6964V42.8794C28.6964 42.723 28.7586 42.5731 28.8691 42.4625C28.9797 42.3519 29.1297 42.2898 29.286 42.2898H47.4104C47.5667 42.2898 47.7167 42.3519 47.8273 42.4625C47.9378 42.5731 48 42.723 48 42.8794C47.9976 44.2368 47.4574 45.5379 46.4976 46.4977C45.5378 47.4575 44.2366 47.9977 42.8793 48.0001ZM1.22342 43.469C1.36623 44.4008 1.83756 45.2508 2.55228 45.8655C3.267 46.4802 4.17798 46.8191 5.12068 46.8209H42.8793C43.822 46.8191 44.733 46.4802 45.4477 45.8655C46.1624 45.2508 46.6337 44.4008 46.7765 43.469H29.8756V44.39C29.8756 44.5463 29.8135 44.6963 29.703 44.8069C29.5924 44.9174 29.4424 44.9796 29.286 44.9796H18.7139C18.5575 44.9796 18.4076 44.9174 18.297 44.8069C18.1864 44.6963 18.1243 44.5463 18.1243 44.39V43.469H1.22342Z" fill="currentColor"/>
</svg>
