<svg width="48" height="48" viewBox="0 0 48 48" fill="none" xmlns="http://www.w3.org/2000/svg">
<path d="M3.61012 0H36.0836C37.0407 0.00111262 37.9583 0.388879 38.6351 1.07823C39.3119 1.76758 39.6926 2.70222 39.6937 3.67711V26.7529C39.6926 27.7278 39.3119 28.6624 38.6351 29.3518C37.9583 30.0411 37.0407 30.4289 36.0836 30.43H10.6865L2.29591 38.9865C2.17258 39.1138 2.0257 39.2149 1.86379 39.2841C1.70187 39.3532 1.52812 39.3891 1.35255 39.3894C0.994715 39.3902 0.651212 39.2463 0.397578 38.9892C0.143943 38.7321 0.000937111 38.3829 0 38.0184V3.67711C0.00109235 2.70222 0.3818 1.76758 1.05859 1.07823C1.73539 0.388879 2.65299 0.00111262 3.61012 0ZM36.0836 29.2289C36.7281 29.2281 37.3459 28.967 37.8016 28.5028C38.2574 28.0386 38.5137 27.4093 38.5145 26.7529V3.67711C38.5137 3.02067 38.2574 2.39134 37.8016 1.92717C37.3459 1.463 36.7281 1.20188 36.0836 1.20108H3.61012C2.96564 1.20188 2.34777 1.463 1.89206 1.92717C1.43634 2.39134 1.17998 3.02067 1.1792 3.67711V38.0184C1.17928 38.0411 1.18378 38.0635 1.19244 38.0844C1.20111 38.1053 1.21376 38.1243 1.22967 38.1401C1.24558 38.156 1.26442 38.1685 1.28511 38.1769C1.3058 38.1853 1.32793 38.1894 1.35019 38.189C1.37123 38.1888 1.39202 38.1842 1.41121 38.1754C1.4304 38.1667 1.44757 38.1539 1.46162 38.1379L10.0232 29.4049C10.078 29.349 10.1431 29.3047 10.2147 29.2745C10.2864 29.2444 10.3631 29.2288 10.4407 29.2289H36.0836Z" fill="currentColor"/>
<path d="M46.6527 48C46.4724 47.9996 46.2941 47.9622 46.1283 47.89C45.9626 47.8177 45.8129 47.7122 45.6881 47.5796L39.6259 41.1988H20.9791C20.0218 41.1977 19.104 40.8098 18.4272 40.1202C17.7504 39.4306 17.3698 38.4956 17.369 37.5205V33.844H18.5482V37.5205C18.549 38.177 18.8054 38.8063 19.2611 39.2705C19.7168 39.7346 20.3347 39.9958 20.9791 39.9966H39.8759C39.9548 39.9962 40.0329 40.0119 40.1058 40.0429C40.1786 40.0738 40.2445 40.1193 40.2998 40.1767L46.536 46.7424C46.5589 46.7666 46.5884 46.7832 46.6207 46.7902C46.6529 46.7972 46.6865 46.7942 46.7171 46.7816C46.7477 46.769 46.7739 46.7474 46.7924 46.7196C46.8108 46.6918 46.8207 46.6589 46.8208 46.6253V20.5991C46.82 19.9427 46.5636 19.3133 46.1079 18.8492C45.6522 18.385 45.0343 18.1239 44.3898 18.1231H43.045V16.922H44.3898C45.347 16.9231 46.2646 17.3109 46.9414 18.0002C47.6182 18.6896 47.9989 19.6242 48 20.5991V46.6295C47.9993 46.9931 47.8572 47.3416 47.6046 47.5985C47.352 47.8554 47.0097 47.9998 46.6527 48Z" fill="currentColor"/>
</svg>
