<svg width="48" height="48" viewBox="0 0 48 48" fill="none" xmlns="http://www.w3.org/2000/svg">
<path d="M44.3931 40.4484H42.2944V39.2691H44.3931C45.0371 39.2683 45.6545 39.0119 46.1099 38.5562C46.5653 38.1005 46.8215 37.4826 46.8223 36.8381V3.61028C46.8215 2.96577 46.5653 2.34788 46.1099 1.89215C45.6545 1.43641 45.0371 1.18003 44.3931 1.17925H3.64235C2.99832 1.18003 2.3809 1.43641 1.92551 1.89215C1.47011 2.34788 1.21393 2.96577 1.21315 3.61028V36.8393C1.21393 37.4838 1.47011 38.1017 1.92551 38.5574C2.3809 39.0131 2.99832 39.2695 3.64235 39.2703H26.8708V40.4495H3.64235C2.6859 40.4484 1.76893 40.0677 1.09262 39.3909C0.416309 38.7141 0.0358816 37.7964 0.03479 36.8393V3.61028C0.0358816 2.65311 0.416309 1.73546 1.09262 1.05863C1.76893 0.381812 2.6859 0.00109239 3.64235 0H44.3925C45.3489 0.00109239 46.2659 0.381812 46.9422 1.05863C47.6185 1.73546 47.9989 2.65311 48 3.61028V36.8393C47.9986 37.7961 47.6181 38.7134 46.942 39.3899C46.2658 40.0665 45.3492 40.4471 44.3931 40.4484Z" fill="currentColor"/>
<path d="M47.1345 9.39214H0.589181C0.432921 9.39214 0.28306 9.33002 0.172567 9.21945C0.0620743 9.10887 0 8.9589 0 8.80252C0 8.64614 0.0620743 8.49616 0.172567 8.38559C0.28306 8.27501 0.432921 8.21289 0.589181 8.21289H47.1345C47.2908 8.21289 47.4406 8.27501 47.5511 8.38559C47.6616 8.49616 47.7237 8.64614 47.7237 8.80252C47.7237 8.9589 47.6616 9.10887 47.5511 9.21945C47.4406 9.33002 47.2908 9.39214 47.1345 9.39214Z" fill="currentColor"/>
<path d="M4.77407 6.1704C4.49195 6.1704 4.21616 6.08668 3.98159 5.92983C3.74702 5.77297 3.56419 5.55003 3.45623 5.28919C3.34827 5.02835 3.32003 4.74133 3.37507 4.46443C3.43011 4.18752 3.56595 3.93317 3.76544 3.73353C3.96493 3.53389 4.21909 3.39794 4.49578 3.34286C4.77248 3.28778 5.05928 3.31605 5.31992 3.42409C5.58057 3.53214 5.80334 3.7151 5.96008 3.94985C6.11681 4.1846 6.20047 4.46058 6.20047 4.74291C6.2 5.12136 6.04957 5.48418 5.78217 5.75178C5.51477 6.01939 5.15223 6.16993 4.77407 6.1704ZM4.77407 3.90506C4.60848 3.90506 4.4466 3.9542 4.30892 4.04626C4.17124 4.13833 4.06394 4.26918 4.00057 4.42228C3.9372 4.57538 3.92062 4.74385 3.95292 4.90638C3.98522 5.06891 4.06497 5.21819 4.18205 5.33537C4.29914 5.45255 4.44833 5.53235 4.61073 5.56468C4.77314 5.59701 4.94148 5.58041 5.09446 5.517C5.24744 5.45358 5.3782 5.34619 5.47019 5.20841C5.56219 5.07062 5.61129 4.90863 5.61129 4.74291C5.61098 4.5208 5.52267 4.30787 5.36573 4.15081C5.20879 3.99374 4.99602 3.90537 4.77407 3.90506Z" fill="currentColor"/>
<path d="M8.54787 6.1704C8.26575 6.1704 7.98997 6.08668 7.75539 5.92983C7.52082 5.77297 7.338 5.55003 7.23003 5.28919C7.12207 5.02835 7.09383 4.74133 7.14887 4.46443C7.20391 4.18752 7.33976 3.93317 7.53924 3.73353C7.73873 3.53389 7.99289 3.39794 8.26959 3.34286C8.54628 3.28778 8.83309 3.31605 9.09373 3.42409C9.35437 3.53214 9.57715 3.7151 9.73388 3.94985C9.89062 4.1846 9.97427 4.46058 9.97427 4.74291C9.9738 5.12136 9.82338 5.48418 9.55598 5.75178C9.28857 6.01939 8.92603 6.16993 8.54787 6.1704ZM8.54787 3.90506C8.38228 3.90506 8.22041 3.9542 8.08273 4.04626C7.94505 4.13833 7.83774 4.26918 7.77437 4.42228C7.711 4.57538 7.69442 4.74385 7.72672 4.90638C7.75903 5.06891 7.83877 5.21819 7.95586 5.33537C8.07295 5.45255 8.22213 5.53235 8.38454 5.56468C8.54694 5.59701 8.71528 5.58041 8.86826 5.517C9.02125 5.45358 9.152 5.34619 9.244 5.20841C9.33599 5.07062 9.38509 4.90863 9.38509 4.74291C9.38478 4.5208 9.29648 4.30787 9.13953 4.15081C8.98259 3.99374 8.76982 3.90537 8.54787 3.90506Z" fill="currentColor"/>
<path d="M12.3211 6.1704C12.0389 6.1704 11.7632 6.08668 11.5286 5.92983C11.294 5.77297 11.1112 5.55003 11.0032 5.28919C10.8953 5.02835 10.867 4.74133 10.9221 4.46443C10.9771 4.18752 11.1129 3.93317 11.3124 3.73353C11.5119 3.53389 11.7661 3.39794 12.0428 3.34286C12.3195 3.28778 12.6063 3.31605 12.8669 3.42409C13.1276 3.53214 13.3503 3.7151 13.5071 3.94985C13.6638 4.1846 13.7475 4.46058 13.7475 4.74291C13.747 5.12136 13.5966 5.48418 13.3292 5.75178C13.0618 6.01939 12.6992 6.16993 12.3211 6.1704ZM12.3211 3.90506C12.1555 3.90506 11.9936 3.9542 11.8559 4.04626C11.7182 4.13833 11.6109 4.26918 11.5476 4.42228C11.4842 4.57538 11.4676 4.74385 11.4999 4.90638C11.5322 5.06891 11.612 5.21819 11.7291 5.33537C11.8461 5.45255 11.9953 5.53235 12.1577 5.56468C12.3201 5.59701 12.4885 5.58041 12.6415 5.517C12.7944 5.45358 12.9252 5.34619 13.0172 5.20841C13.1092 5.07062 13.1583 4.90863 13.1583 4.74291C13.158 4.5208 13.0697 4.30787 12.9127 4.15081C12.7558 3.99374 12.543 3.90537 12.3211 3.90506Z" fill="currentColor"/>
<path d="M15.3187 14.1091H43.0102C43.1664 14.1091 43.3163 14.1713 43.4268 14.2818C43.5373 14.3924 43.5994 14.5424 43.5994 14.6988V18.8261C43.5994 18.9825 43.5373 19.1325 43.4268 19.2431C43.3163 19.3536 43.1664 19.4158 43.0102 19.4158H15.3187C15.1624 19.4158 15.0126 19.3536 14.9021 19.2431C14.7916 19.1325 14.7295 18.9825 14.7295 18.8261V14.6988C14.7295 14.5424 14.7916 14.3924 14.9021 14.2818C15.0126 14.1713 15.1624 14.1091 15.3187 14.1091ZM42.421 15.2884H15.9079V18.2365H42.421V15.2884Z" fill="currentColor"/>
<path d="M26.8708 34.4083H15.717C15.5607 34.4083 15.4109 34.3462 15.3004 34.2356C15.1899 34.1251 15.1278 33.9751 15.1278 33.8187V23.2461C15.1278 23.0897 15.1899 22.9398 15.3004 22.8292C15.4109 22.7186 15.5607 22.6565 15.717 22.6565H42.8841C43.0404 22.6565 43.1903 22.7186 43.3007 22.8292C43.4112 22.9398 43.4733 23.0897 43.4733 23.2461V32.8983H42.2949V23.8357H16.3062V33.2291H26.8708V34.4083Z" fill="currentColor"/>
<path d="M11.1944 24.1329H4.71345C4.55719 24.1329 4.40733 24.0707 4.29683 23.9602C4.18634 23.8496 4.12427 23.6996 4.12427 23.5432C4.12427 23.3869 4.18634 23.2369 4.29683 23.1263C4.40733 23.0157 4.55719 22.9536 4.71345 22.9536H11.1944C11.3507 22.9536 11.5006 23.0157 11.6111 23.1263C11.7215 23.2369 11.7836 23.3869 11.7836 23.5432C11.7836 23.6996 11.7215 23.8496 11.6111 23.9602C11.5006 24.0707 11.3507 24.1329 11.1944 24.1329Z" fill="currentColor"/>
<path d="M11.1944 15.2884H4.71345C4.55719 15.2884 4.40733 15.2263 4.29683 15.1157C4.18634 15.0051 4.12427 14.8551 4.12427 14.6988C4.12427 14.5424 4.18634 14.3924 4.29683 14.2818C4.40733 14.1713 4.55719 14.1091 4.71345 14.1091H11.1944C11.3507 14.1091 11.5006 14.1713 11.6111 14.2818C11.7215 14.3924 11.7836 14.5424 11.7836 14.6988C11.7836 14.8551 11.7215 15.0051 11.6111 15.1157C11.5006 15.2263 11.3507 15.2884 11.1944 15.2884Z" fill="currentColor"/>
<path d="M29.3 26.4324C29.4164 26.4323 29.5301 26.4668 29.627 26.5314L43.2105 35.594C43.3042 35.6564 43.378 35.7443 43.4233 35.8474C43.4686 35.9505 43.4835 36.0644 43.4661 36.1757C43.4488 36.2869 43.3999 36.3909 43.3254 36.4753C43.2509 36.5596 43.1538 36.6209 43.0456 36.6518L38.5018 37.9489L42.6343 44.8417C42.6741 44.9081 42.7005 44.9817 42.7119 45.0583C42.7233 45.1348 42.7195 45.2129 42.7007 45.288C42.6819 45.3632 42.6486 45.4339 42.6025 45.4961C42.5564 45.5583 42.4986 45.6108 42.4322 45.6506L38.6615 47.916C38.5951 47.9558 38.5216 47.9822 38.4451 47.9936C38.3685 48.005 38.2905 48.0012 38.2154 47.9824C38.1404 47.9636 38.0698 47.9302 38.0076 47.8841C37.9454 47.838 37.8929 47.7801 37.8531 47.7138L33.6794 40.752L29.68 44.0875C29.594 44.1592 29.4893 44.2049 29.3783 44.2193C29.2672 44.2336 29.1544 44.216 29.0531 44.1685C28.9517 44.121 28.8659 44.0455 28.8058 43.951C28.7457 43.8565 28.7138 43.7468 28.7137 43.6347V27.022C28.7137 26.8656 28.7758 26.7156 28.8863 26.6051C28.9968 26.4945 29.1467 26.4324 29.3029 26.4324H29.3ZM41.496 35.8664L29.8892 28.124V42.3776L33.4508 39.4077C33.5161 39.353 33.5926 39.3131 33.6748 39.2908C33.757 39.2685 33.8431 39.2643 33.9272 39.2786C34.0112 39.2928 34.0911 39.3251 34.1614 39.3733C34.2318 39.4214 34.2908 39.4843 34.3345 39.5574L38.559 46.6041L41.3193 44.9466L37.0949 37.9C37.0484 37.8224 37.0203 37.7352 37.0129 37.645C37.0055 37.5549 37.0189 37.4642 37.0521 37.3801C37.0853 37.296 37.1374 37.2206 37.2044 37.1598C37.2714 37.0991 37.3514 37.0546 37.4383 37.0297L41.496 35.8664Z" fill="currentColor"/>
</svg>
