<svg width="49" height="48" viewBox="0 0 49 48" fill="none" xmlns="http://www.w3.org/2000/svg">
<path d="M37.8009 48H28.7436C28.6296 48 28.5181 47.9669 28.4226 47.9048C28.327 47.8427 28.2515 47.7542 28.2053 47.65C28.159 47.5459 28.1439 47.4305 28.1619 47.318C28.1798 47.2055 28.23 47.1005 28.3063 47.0159L34.0554 40.6517L34.0813 40.6245C34.7066 40.014 36.3306 38.1442 36.3306 36.8425C36.3306 36.8425 36.3306 36.839 36.3306 36.8372C36.3697 36.3592 36.3124 35.8782 36.1622 35.4227C36.012 34.9672 35.7719 34.5464 35.4561 34.1854C34.7331 33.5527 33.7914 33.2277 32.832 33.2797C32.3708 33.2803 31.9144 33.3738 31.49 33.5545C31.0656 33.7352 30.6819 33.9995 30.3618 34.3316C29.7013 35.001 29.3316 35.9039 29.3329 36.8443C29.3329 37.0006 29.2708 37.1504 29.1603 37.261C29.0498 37.3715 28.8999 37.4336 28.7436 37.4336C28.5873 37.4336 28.4374 37.3715 28.3269 37.261C28.2164 37.1504 28.1543 37.0006 28.1543 36.8443C28.153 35.5962 28.6438 34.398 29.5203 33.5095C29.9498 33.0649 30.4645 32.7113 31.0335 32.4698C31.6026 32.2282 32.2144 32.1036 32.8326 32.1035C33.4676 32.0428 34.1082 32.1243 34.7077 32.3422C35.3073 32.56 35.8507 32.9087 36.2987 33.3629C36.7466 33.817 37.0877 34.3653 37.2972 34.9678C37.5067 35.5703 37.5793 36.2119 37.5098 36.846C37.4028 38.0052 36.9385 39.1025 36.181 39.9863C35.796 40.5059 35.3741 40.997 34.9187 41.456L30.0707 46.8185H37.8009C37.9572 46.8185 38.1071 46.8806 38.2176 46.9911C38.3281 47.1016 38.3902 47.2515 38.3902 47.4078C38.3902 47.5641 38.3281 47.714 38.2176 47.8245C38.1071 47.935 37.9572 47.9971 37.8009 47.9971V48Z" fill="currentColor"/>
<path d="M46.1027 47.9999C45.9465 47.9999 45.7966 47.9378 45.6861 47.8273C45.5755 47.7168 45.5135 47.5669 45.5135 47.4106V44.2285H38.7437C38.6362 44.2284 38.5308 44.199 38.4388 44.1433C38.3468 44.0877 38.2719 44.0079 38.222 43.9127C38.1721 43.8174 38.1492 43.7104 38.1558 43.6031C38.1624 43.4957 38.1982 43.3923 38.2594 43.3039L45.6184 32.6744C45.6899 32.5712 45.7924 32.4935 45.9112 32.4527C46.0299 32.4118 46.1586 32.41 46.2784 32.4474C46.3983 32.4849 46.503 32.5596 46.5774 32.6607C46.6518 32.7619 46.692 32.8841 46.692 33.0097V43.0499H48.3668C48.5231 43.0499 48.673 43.112 48.7835 43.2225C48.894 43.333 48.9561 43.4829 48.9561 43.6392C48.9561 43.7955 48.894 43.9454 48.7835 44.0559C48.673 44.1664 48.5231 44.2285 48.3668 44.2285H46.692V47.4106C46.692 47.5669 46.6299 47.7168 46.5194 47.8273C46.4089 47.9378 46.259 47.9999 46.1027 47.9999ZM39.8687 43.0499H45.5135V34.8936L39.8687 43.0499Z" fill="currentColor"/>
<path d="M24.215 47.9876H24.1961C19.4836 47.8382 14.9195 46.3039 11.0735 43.5765C7.22761 40.849 4.27024 37.0492 2.57062 32.6513C0.870998 28.2534 0.50442 23.4523 1.51665 18.8474C2.52888 14.2424 4.87507 10.0376 8.26234 6.75791C11.6496 3.47818 15.9279 1.26882 20.5631 0.405641C25.1983 -0.457543 29.9851 0.0636859 34.3258 1.90427C38.6666 3.74485 42.3691 6.82324 44.9711 10.7551C47.5731 14.687 48.9593 19.2982 48.9567 24.0131C48.9571 25.5716 48.8067 27.1265 48.5077 28.6561C48.4928 28.7321 48.4631 28.8043 48.4202 28.8688C48.3774 28.9333 48.3223 28.9887 48.2581 29.0319C48.1938 29.075 48.1217 29.1051 48.0458 29.1204C47.9699 29.1357 47.8918 29.1359 47.8158 29.121C47.7399 29.1062 47.6676 29.0764 47.6031 29.0336C47.5387 28.9908 47.4833 28.9357 47.4401 28.8714C47.3969 28.8072 47.3668 28.7351 47.3515 28.6592C47.3362 28.5833 47.336 28.5052 47.3509 28.4292C47.6352 26.9744 47.778 25.4955 47.7775 24.0131C47.7739 18.7513 45.9516 13.6525 42.6194 9.5804C39.2871 5.50825 34.6497 2.71308 29.4927 1.66835C24.3356 0.623614 18.976 1.39354 14.3216 3.84771C9.66721 6.30189 6.00418 10.2894 3.95296 15.1349C2.51015 18.5457 1.91979 22.2566 2.23293 25.9467C2.54607 29.6368 3.75329 33.1951 5.7502 36.314C7.74711 39.4328 10.4736 42.0184 13.694 43.8471C16.9144 45.6758 20.5317 46.6926 24.2332 46.8096C24.3895 46.8121 24.5384 46.8765 24.6472 46.9887C24.756 47.1009 24.8158 47.2518 24.8134 47.4081C24.811 47.5643 24.7465 47.7133 24.6343 47.8221C24.5221 47.9309 24.3712 47.9901 24.215 47.9876Z" fill="currentColor"/>
<path d="M24.793 22.3278C24.6367 22.3278 24.4868 22.2658 24.3763 22.1552C24.2658 22.0447 24.2037 21.8948 24.2037 21.7386V8.18499C24.2037 8.0287 24.2658 7.87881 24.3763 7.7683C24.4868 7.65779 24.6367 7.5957 24.793 7.5957C24.9493 7.5957 25.0992 7.65779 25.2097 7.7683C25.3202 7.87881 25.3823 8.0287 25.3823 8.18499V21.7386C25.3823 21.8948 25.3202 22.0447 25.2097 22.1552C25.0992 22.2658 24.9493 22.3278 24.793 22.3278Z" fill="currentColor"/>
<path d="M24.793 21.1492C25.3757 21.1492 25.9454 21.322 26.4299 21.6457C26.9145 21.9695 27.2921 22.4297 27.5151 22.968C27.7381 23.5064 27.7965 24.0989 27.6828 24.6704C27.5691 25.242 27.2885 25.767 26.8764 26.179C26.4644 26.5911 25.9394 26.8717 25.3678 26.9854C24.7963 27.0991 24.2038 27.0408 23.6654 26.8177C23.127 26.5947 22.6669 26.2171 22.3431 25.7325C22.0194 25.248 21.8466 24.6783 21.8466 24.0956C21.8475 23.3144 22.1582 22.5656 22.7106 22.0132C23.2629 21.4608 24.0118 21.1501 24.793 21.1492ZM24.793 25.8635C25.1426 25.8635 25.4844 25.7598 25.7752 25.5655C26.0659 25.3713 26.2925 25.0952 26.4263 24.7721C26.5601 24.4491 26.5951 24.0936 26.5269 23.7507C26.4587 23.4078 26.2903 23.0928 26.043 22.8455C25.7958 22.5983 25.4808 22.4299 25.1379 22.3617C24.7949 22.2935 24.4395 22.3285 24.1165 22.4623C23.7934 22.5961 23.5173 22.8227 23.3231 23.1134C23.1288 23.4042 23.0251 23.7459 23.0251 24.0956C23.0251 24.5645 23.2114 25.0141 23.5429 25.3457C23.8745 25.6772 24.3241 25.8635 24.793 25.8635Z" fill="currentColor"/>
<path d="M27.2339 22.3377C27.0777 22.3376 26.9278 22.2755 26.8173 22.165C26.7068 22.0545 26.6448 21.9046 26.6448 21.7484C26.6448 21.5921 26.7068 21.4423 26.8173 21.3318L31.4909 16.6581C31.6014 16.5477 31.7513 16.4856 31.9076 16.4856C32.0638 16.4856 32.2137 16.5477 32.3242 16.6581C32.4347 16.7686 32.4967 16.9185 32.4967 17.0748C32.4967 17.231 32.4347 17.3809 32.3242 17.4914L27.6506 22.165C27.5401 22.2755 27.3902 22.3376 27.2339 22.3377Z" fill="currentColor"/>
</svg>
