<svg width="48" height="48" viewBox="0 0 48 48" fill="none" xmlns="http://www.w3.org/2000/svg">
<path d="M20.9793 0H27.0196C27.5772 0.00062757 28.1117 0.222408 28.506 0.616688C28.9003 1.01097 29.1221 1.54554 29.1227 2.10314V3.16479C29.1225 3.34634 29.1763 3.52385 29.2772 3.67478C29.3781 3.8257 29.5216 3.94324 29.6894 4.01245L34.1097 5.84351C34.2772 5.91312 34.4617 5.93135 34.6397 5.89589C34.8176 5.86042 34.981 5.77287 35.1091 5.64434L35.8607 4.89389C36.255 4.49963 36.7898 4.27814 37.3474 4.27814C37.905 4.27814 38.4397 4.49963 38.834 4.89389L43.1055 9.16538C43.4998 9.55968 43.7213 10.0944 43.7213 10.652C43.7213 11.2096 43.4998 11.7444 43.1055 12.1387L42.3545 12.8897C42.226 13.0177 42.1384 13.181 42.1031 13.3589C42.0677 13.5368 42.0861 13.7212 42.1559 13.8886L43.987 18.31C44.0562 18.4779 44.1737 18.6213 44.3246 18.7222C44.4756 18.8231 44.6531 18.8769 44.8346 18.8767H45.8963C46.4539 18.8773 46.9884 19.0991 47.3827 19.4934C47.777 19.8877 47.9988 20.4223 47.9994 20.9798V27.0202C47.9988 27.5777 47.777 28.1123 47.3827 28.5066C46.9884 28.9009 46.4539 29.1227 45.8963 29.1233H44.8346C44.6531 29.123 44.4756 29.1766 44.3247 29.2774C44.1738 29.3782 44.0562 29.5216 43.987 29.6894L42.1559 34.1097C42.0859 34.2772 42.0674 34.4618 42.1028 34.6399C42.1382 34.818 42.2258 34.9816 42.3545 35.1097L43.1055 35.8601C43.4993 36.2549 43.7204 36.7898 43.7204 37.3474C43.7204 37.905 43.4993 38.4398 43.1055 38.8346L38.834 43.1055C38.4397 43.4998 37.905 43.7213 37.3474 43.7213C36.7898 43.7213 36.255 43.4998 35.8607 43.1055L35.1097 42.3551C34.9814 42.2267 34.8179 42.1393 34.6399 42.1038C34.4619 42.0684 34.2774 42.0865 34.1097 42.1559L29.6888 43.987C29.521 44.0562 29.3775 44.1737 29.2766 44.3246C29.1757 44.4756 29.1219 44.6531 29.1221 44.8346V45.8969C29.1215 46.4545 28.8997 46.989 28.5054 47.3833C28.1111 47.7776 27.5766 47.9994 27.019 48H20.9787C20.4211 47.9994 19.8865 47.7776 19.4922 47.3833C19.0979 46.989 18.8761 46.4545 18.8755 45.8969V44.8346C18.8758 44.6531 18.8222 44.4756 18.7214 44.3247C18.6206 44.1738 18.4772 44.0562 18.3094 43.987L13.8892 42.1559C13.7214 42.0866 13.537 42.0686 13.359 42.104C13.181 42.1395 13.0175 42.2268 12.8891 42.3551L12.1387 43.1055C11.7442 43.4997 11.2094 43.7211 10.6518 43.7211C10.0941 43.7211 9.55927 43.4997 9.16479 43.1055L4.8933 38.8376C4.49969 38.4427 4.27867 37.9079 4.27867 37.3503C4.27867 36.7928 4.49969 36.258 4.8933 35.8631L5.64494 35.112C5.77358 34.9839 5.86121 34.8204 5.89668 34.6423C5.93214 34.4643 5.91384 34.2797 5.84411 34.112L4.01303 29.6912C3.94371 29.5235 3.82612 29.3802 3.67519 29.2795C3.52426 29.1789 3.34681 29.1253 3.16538 29.1257H2.10314C1.54504 29.125 1.01 28.9029 0.615634 28.5079C0.221269 28.113 -0.000157395 27.5777 8.39421e-08 27.0196V20.9793C0.000627654 20.4217 0.222403 19.8871 0.616683 19.4928C1.01096 19.0985 1.54555 18.8767 2.10314 18.8761H3.16538C3.34693 18.8763 3.52444 18.8225 3.67537 18.7216C3.8263 18.6207 3.94382 18.4773 4.01303 18.3094L5.84411 13.8892C5.9138 13.7216 5.93207 13.5371 5.8966 13.3591C5.86114 13.1812 5.77353 13.0178 5.64494 12.8897L4.8939 12.1387C4.50022 11.7441 4.27912 11.2095 4.27912 10.652C4.27912 10.0946 4.50022 9.55999 4.8939 9.16538L9.16539 4.89389C9.55989 4.49956 10.0948 4.27803 10.6526 4.27803C11.2104 4.27803 11.7454 4.49956 12.1399 4.89389L12.8903 5.64434C13.0185 5.77266 13.1819 5.86008 13.3598 5.89553C13.5377 5.93098 13.7221 5.91288 13.8897 5.84351L18.3112 4.01245C18.479 3.94321 18.6224 3.82565 18.7232 3.67472C18.824 3.52378 18.8776 3.34629 18.8773 3.16479V2.10314C18.8779 1.54575 19.0995 1.01135 19.4936 0.617108C19.8876 0.222862 20.4219 0.000941185 20.9793 0ZM34.46 7.0984C34.1839 7.09876 33.9105 7.04436 33.6556 6.93835L29.2353 5.10729C28.8506 4.94868 28.5218 4.67924 28.2906 4.33324C28.0595 3.98724 27.9364 3.58031 27.9372 3.1642V2.10255C27.9369 1.85933 27.8401 1.62618 27.668 1.45426C27.496 1.28234 27.2628 1.18569 27.0196 1.18554H20.9793C20.7359 1.18569 20.5026 1.28242 20.3306 1.45447C20.1585 1.62652 20.0618 1.85982 20.0616 2.10314V3.16479C20.0624 3.58083 19.9395 3.98772 19.7084 4.33371C19.4774 4.6797 19.1487 4.94918 18.7641 5.10788L14.3426 6.93895C13.9583 7.0982 13.5353 7.13983 13.1272 7.05858C12.7192 6.97733 12.3444 6.77685 12.0504 6.48251L11.2999 5.73207C11.1278 5.55998 10.8943 5.46332 10.6509 5.46332C10.4074 5.46332 10.174 5.55998 10.0018 5.73207L5.73088 10.003C5.55916 10.1751 5.46272 10.4083 5.46272 10.6515C5.46272 10.8946 5.55916 11.1278 5.73088 11.2999L6.48192 12.051C6.77663 12.3445 6.97739 12.7191 7.05866 13.1271C7.13993 13.535 7.09805 13.9579 6.93834 14.342L5.10729 18.7629C4.94868 19.1476 4.67924 19.4764 4.33324 19.7076C3.98724 19.9387 3.58032 20.0618 3.1642 20.0611H2.10195C1.85874 20.0615 1.62566 20.1585 1.45385 20.3306C1.28203 20.5028 1.18554 20.736 1.18554 20.9793V27.0196C1.18569 27.2629 1.28243 27.4962 1.45448 27.6682C1.62653 27.8403 1.85983 27.937 2.10314 27.9372H3.16538C3.58143 27.9364 3.9883 28.0593 4.33429 28.2904C4.68028 28.5214 4.94978 28.8502 5.10848 29.2347L6.93954 33.6562C7.09942 34.0405 7.1414 34.4636 7.06013 34.8718C6.97885 35.28 6.778 35.6547 6.48311 35.9484L5.73148 36.6989C5.55987 36.8712 5.46352 37.1045 5.46352 37.3477C5.46352 37.5908 5.55987 37.8241 5.73148 37.9964L10.0024 42.2644C10.1745 42.4363 10.4079 42.5328 10.6512 42.5328C10.8944 42.5328 11.1278 42.4363 11.2999 42.2644L12.0504 41.5139C12.3445 41.2199 12.7192 41.0196 13.127 40.9384C13.5349 40.8572 13.9577 40.8986 14.342 41.0575L18.7629 42.8886C19.1475 43.0473 19.4762 43.3167 19.7072 43.6627C19.9383 44.0087 20.0612 44.4156 20.0605 44.8317V45.8939C20.0606 46.1372 20.1573 46.3705 20.3294 46.5426C20.5014 46.7146 20.7348 46.8113 20.9781 46.8115H27.0184C27.2617 46.8113 27.495 46.7146 27.6671 46.5426C27.8391 46.3705 27.9358 46.1372 27.936 45.8939V44.8317C27.9352 44.4155 28.0583 44.0086 28.2895 43.6626C28.5206 43.3166 28.8494 43.0472 29.2341 42.8886L33.6556 41.0575C34.0398 40.8986 34.4625 40.8571 34.8703 40.9384C35.2781 41.0196 35.6527 41.2199 35.9467 41.5139L36.6977 42.2644C36.7828 42.3495 36.8839 42.4171 36.9952 42.4632C37.1065 42.5093 37.2257 42.533 37.3462 42.533C37.4666 42.533 37.5859 42.5093 37.6972 42.4632C37.8084 42.4171 37.9095 42.3495 37.9947 42.2644L42.2662 37.9964C42.4378 37.8241 42.5341 37.5908 42.5341 37.3477C42.5341 37.1045 42.4378 36.8712 42.2662 36.6989L41.5151 35.9484C41.2201 35.6547 41.0193 35.2797 40.9382 34.8714C40.8571 34.463 40.8995 34.0398 41.0599 33.6556L42.8909 29.2353C43.0496 28.8507 43.3191 28.522 43.6651 28.291C44.0111 28.0599 44.418 27.937 44.834 27.9378H45.8957C46.139 27.9376 46.3723 27.8409 46.5443 27.6688C46.7164 27.4968 46.8131 27.2635 46.8133 27.0202V20.9798C46.8131 20.7365 46.7164 20.5032 46.5443 20.3312C46.3723 20.1591 46.139 20.0624 45.8957 20.0622H44.834C44.4179 20.063 44.011 19.9399 43.665 19.7088C43.319 19.4776 43.0495 19.1488 42.8909 18.7641L41.0599 14.3426C40.8997 13.9587 40.8575 13.5358 40.9385 13.1278C41.0196 12.7197 41.2203 12.3451 41.5151 12.0516L42.2662 11.3005C42.3513 11.2154 42.4189 11.1143 42.465 11.003C42.5111 10.8917 42.5348 10.7725 42.5348 10.652C42.5348 10.5316 42.5111 10.4123 42.465 10.3011C42.4189 10.1898 42.3513 10.0887 42.2662 10.0036L37.9964 5.73207C37.9113 5.6469 37.8102 5.57933 37.6989 5.53324C37.5877 5.48714 37.4684 5.46342 37.348 5.46342C37.2275 5.46342 37.1083 5.48714 36.997 5.53324C36.8857 5.57933 36.7846 5.6469 36.6995 5.73207L35.9478 6.48251C35.7529 6.67848 35.521 6.83382 35.2656 6.93954C35.0102 7.04526 34.7364 7.09925 34.46 7.0984Z" fill="currentColor"/>
<path d="M24 39.6929C21.2694 39.6926 18.5861 38.9801 16.2151 37.6257C13.8441 36.2713 11.8674 34.3219 10.4801 31.9699C9.0929 29.618 8.34314 26.9448 8.30489 24.2145C8.26663 21.4842 8.94121 18.7911 10.262 16.4012C10.4991 15.9685 10.7688 15.5358 11.0575 15.1161C11.1465 14.9865 11.2833 14.8975 11.4379 14.8688C11.5925 14.8401 11.7521 14.8739 11.8818 14.9629C12.0114 15.0519 12.1003 15.1887 12.1291 15.3433C12.1578 15.4978 12.124 15.6575 12.035 15.7871C11.7682 16.176 11.5205 16.5761 11.2994 16.9762C9.57305 20.0958 9.05564 23.7417 9.84583 27.2184C10.636 30.695 12.6785 33.7591 15.5836 35.826C18.4887 37.8929 22.053 38.818 25.5966 38.4247C29.1402 38.0314 32.415 36.3473 34.7962 33.6937C37.1773 31.04 38.4982 27.6027 38.5069 24.0373C38.5155 20.472 37.2112 17.0283 34.8428 14.3632C32.4745 11.6981 29.2079 9.99817 25.6663 9.58777C22.1246 9.17737 18.5558 10.0852 15.6408 12.1381C15.5123 12.2263 15.3542 12.2604 15.2007 12.2329C15.0472 12.2055 14.9107 12.1186 14.8208 11.9912C14.7309 11.8638 14.6949 11.7061 14.7204 11.5523C14.746 11.3985 14.8311 11.261 14.9573 11.1695C16.9743 9.74634 19.2984 8.81893 21.7411 8.46255C24.1837 8.10618 26.6759 8.33087 29.0154 9.11839C31.3549 9.90591 33.4757 11.2341 35.2056 12.995C36.9354 14.7559 38.2257 16.9 38.9715 19.2531C39.7172 21.6062 39.8976 24.1021 39.4978 26.538C39.0981 28.9739 38.1295 31.2811 36.6707 33.2725C35.2119 35.2638 33.3041 36.883 31.1021 37.9987C28.9002 39.1144 26.4661 39.695 23.9976 39.6935L24 39.6929Z" fill="currentColor"/>
<path d="M29.2851 29.8778C29.1279 29.8777 28.9772 29.8153 28.866 29.7041L23.5809 24.419C23.4697 24.3078 23.4073 24.1571 23.4072 23.9999V17.959C23.4072 17.8018 23.4697 17.651 23.5809 17.5398C23.692 17.4287 23.8428 17.3662 24 17.3662C24.1572 17.3662 24.308 17.4287 24.4191 17.5398C24.5303 17.651 24.5928 17.8018 24.5928 17.959V23.7539L29.7048 28.8659C29.7877 28.9488 29.8441 29.0544 29.867 29.1694C29.8898 29.2844 29.8781 29.4035 29.8332 29.5118C29.7884 29.6201 29.7124 29.7127 29.615 29.7778C29.5175 29.843 29.4029 29.8777 29.2857 29.8778H29.2851Z" fill="currentColor"/>
<path d="M24 14.7765C23.8428 14.7765 23.692 14.714 23.5808 14.6029C23.4697 14.4917 23.4072 14.3409 23.4072 14.1837V12.6733C23.4072 12.5161 23.4697 12.3653 23.5808 12.2542C23.692 12.143 23.8428 12.0806 24 12.0806C24.1572 12.0806 24.308 12.143 24.4191 12.2542C24.5303 12.3653 24.5928 12.5161 24.5928 12.6733V14.1837C24.5928 14.3409 24.5303 14.4917 24.4191 14.6029C24.308 14.714 24.1572 14.7765 24 14.7765Z" fill="currentColor"/>
<path d="M35.326 24.592H33.8157C33.6585 24.592 33.5077 24.5296 33.3965 24.4184C33.2854 24.3072 33.2229 24.1565 33.2229 23.9993C33.2229 23.8421 33.2854 23.6913 33.3965 23.5801C33.5077 23.4689 33.6585 23.4065 33.8157 23.4065H35.326C35.4833 23.4065 35.634 23.4689 35.7452 23.5801C35.8564 23.6913 35.9188 23.8421 35.9188 23.9993C35.9188 24.1565 35.8564 24.3072 35.7452 24.4184C35.634 24.5296 35.4833 24.592 35.326 24.592Z" fill="currentColor"/>
<path d="M24 35.9181C23.8428 35.9181 23.692 35.8556 23.5808 35.7445C23.4697 35.6333 23.4072 35.4825 23.4072 35.3253V33.8149C23.4072 33.6577 23.4697 33.507 23.5808 33.3958C23.692 33.2846 23.8428 33.2222 24 33.2222C24.1572 33.2222 24.308 33.2846 24.4191 33.3958C24.5303 33.507 24.5928 33.6577 24.5928 33.8149V35.3253C24.5928 35.4825 24.5303 35.6333 24.4191 35.7445C24.308 35.8556 24.1572 35.9181 24 35.9181Z" fill="currentColor"/>
<path d="M14.1843 24.592H12.6739C12.5167 24.592 12.366 24.5296 12.2548 24.4184C12.1436 24.3072 12.0812 24.1565 12.0812 23.9993C12.0812 23.8421 12.1436 23.6913 12.2548 23.5801C12.366 23.4689 12.5167 23.4065 12.6739 23.4065H14.1843C14.3415 23.4065 14.4923 23.4689 14.6035 23.5801C14.7146 23.6913 14.7771 23.8421 14.7771 23.9993C14.7771 24.1565 14.7146 24.3072 14.6035 24.4184C14.4923 24.5296 14.3415 24.592 14.1843 24.592Z" fill="currentColor"/>
</svg>
