<svg width="48" height="48" viewBox="0 0 48 48" fill="none" xmlns="http://www.w3.org/2000/svg">
<path d="M40.7405 15.2629C40.6732 15.2517 40.6044 15.2539 40.5379 15.2693C40.4715 15.2847 40.4087 15.313 40.3532 15.3526C40.2977 15.3923 40.2506 15.4425 40.2145 15.5004C40.1784 15.5582 40.154 15.6227 40.1428 15.6899C40.1316 15.7572 40.1337 15.8261 40.1491 15.8925C40.1645 15.959 40.1929 16.0217 40.2325 16.0772C40.2722 16.1327 40.3224 16.1799 40.3802 16.216C40.4381 16.2521 40.5025 16.2764 40.5698 16.2877C41.8546 16.513 43.079 17.001 44.1666 17.7211C45.2542 18.4412 46.1815 19.378 46.8906 20.4728C46.9298 20.5344 46.9807 20.5877 47.0405 20.6296C47.1004 20.6715 47.1678 20.7013 47.2391 20.7171C47.3104 20.733 47.3842 20.7346 47.4561 20.722C47.5281 20.7094 47.5968 20.6827 47.6584 20.6435C47.7201 20.6042 47.7734 20.5533 47.8153 20.4935C47.8572 20.4337 47.887 20.3662 47.9028 20.2949C47.9187 20.2236 47.9203 20.1498 47.9077 20.0779C47.895 20.006 47.8683 19.9372 47.8291 19.8756C47.0402 18.6501 46.0006 17.6056 44.7788 16.8109C43.557 16.0162 42.1807 15.4894 40.7405 15.2651" fill="currentColor"/>
<path d="M5.37981 16.8856C5.4483 16.8769 5.51425 16.8541 5.57353 16.8187C5.63281 16.7833 5.68413 16.736 5.72427 16.6798C5.76442 16.6237 5.79252 16.5598 5.80682 16.4922C5.82112 16.4247 5.82131 16.3549 5.80737 16.2873C5.47723 13.6566 6.05112 10.9918 7.43486 8.73012C8.81861 6.46849 10.93 4.74438 13.4226 3.84072C15.9152 2.93705 18.641 2.9075 21.1526 3.75692C23.6642 4.60633 25.8125 6.28426 27.245 8.51536C27.2835 8.57854 27.3342 8.63342 27.3941 8.67678C27.4541 8.72013 27.5221 8.7511 27.5942 8.76787C27.6662 8.78464 27.7409 8.78687 27.8138 8.77443C27.8868 8.762 27.9565 8.73514 28.0189 8.69544C28.0814 8.65574 28.1352 8.60399 28.1774 8.54322C28.2196 8.48244 28.2493 8.41386 28.2647 8.34149C28.2801 8.26912 28.2809 8.19441 28.267 8.12173C28.2532 8.04904 28.225 7.97985 28.1841 7.91819C26.6266 5.47668 24.2845 3.63803 21.543 2.70474C18.8015 1.77146 15.824 1.79913 13.1003 2.78321C10.3767 3.76728 8.06908 5.64914 6.55724 8.11918C5.0454 10.5892 4.41935 13.5003 4.78209 16.3735C4.79709 16.5191 4.8674 16.6534 4.97851 16.7487C5.08963 16.8439 5.23362 16.8929 5.37981 16.8856Z" fill="currentColor"/>
<path d="M38.6052 17.8234C38.6919 16.4026 38.3803 14.9858 37.7057 13.7324C37.031 12.479 36.0199 11.4388 34.7862 10.7288C33.5525 10.0187 32.1451 9.66703 30.7224 9.71328C29.2998 9.75953 27.9182 10.2019 26.7332 10.9905C25.8559 8.81763 24.2505 7.01724 22.192 5.89753C20.1335 4.77783 17.7498 4.40845 15.4489 4.85262C13.148 5.29678 11.0731 6.52688 9.57923 8.33235C8.08538 10.1378 7.26553 12.4064 7.26001 14.7497C7.26387 15.7952 7.4368 16.8331 7.77211 17.8234C5.90257 18.1004 4.20321 19.0638 3.00537 20.5257C1.80753 21.9876 1.19707 23.8432 1.29301 25.7307C1.38896 27.6182 2.18443 29.4023 3.52434 30.7352C4.86424 32.0681 6.65252 32.8542 8.54052 32.9403H16.9931V37.5507C16.9843 37.9951 16.8152 38.4213 16.5169 38.7509C16.2187 39.0804 15.8114 39.291 15.3701 39.3439C15.2331 38.7421 14.8973 38.2041 14.4169 37.8167C13.9364 37.4293 13.3395 37.2151 12.7223 37.2088C12.0201 37.2088 11.3466 37.4877 10.8501 37.9843C10.3536 38.4808 10.0746 39.1543 10.0746 39.8565C10.0746 40.5587 10.3536 41.2322 10.8501 41.7287C11.3466 42.2253 12.0201 42.5042 12.7223 42.5042C13.3395 42.4979 13.9366 42.2837 14.417 41.8961C14.8974 41.5086 15.2332 40.9705 15.3701 40.3686C16.1103 40.3254 16.806 40.0006 17.3143 39.4608C17.8227 38.921 18.1052 38.2072 18.104 37.4657V32.8552H21.861V42.2523C21.8524 42.6968 21.6834 43.1231 21.3851 43.4527C21.0868 43.7823 20.6794 43.9928 20.238 44.0455C20.101 43.4437 19.7652 42.9057 19.2847 42.5183C18.8043 42.1309 18.2074 41.9167 17.5902 41.9104C16.888 41.9104 16.2145 42.1893 15.718 42.6859C15.2215 43.1824 14.9425 43.8559 14.9425 44.5581C14.9425 45.2603 15.2215 45.9338 15.718 46.4303C16.2145 46.9269 16.888 47.2058 17.5902 47.2058C18.2074 47.1995 18.8045 46.9852 19.2849 46.5977C19.7653 46.2102 20.1011 45.6721 20.238 45.0702C20.9783 45.0273 21.6741 44.7026 22.1825 44.1627C22.6909 43.6228 22.9734 42.9088 22.9719 42.1672V32.7718H26.2179V42.1672C26.2162 42.9086 26.4983 43.6225 27.0064 44.1623C27.5145 44.7021 28.21 45.027 28.9501 45.0702C29.087 45.6721 29.4227 46.2102 29.9032 46.5977C30.3836 46.9852 30.9806 47.1995 31.5978 47.2058C32.3001 47.2058 32.9735 46.9269 33.4701 46.4303C33.9666 45.9338 34.2456 45.2603 34.2456 44.5581C34.2456 43.8559 33.9666 43.1824 33.4701 42.6859C32.9735 42.1893 32.3001 41.9104 31.5978 41.9104C30.9807 41.9167 30.3837 42.1309 29.9033 42.5183C29.4229 42.9057 29.0871 43.4437 28.9501 44.0455C28.5029 44.0073 28.0868 43.8011 27.7857 43.4684C27.4845 43.1356 27.3206 42.7011 27.3271 42.2523V32.8574H31.0857V37.5551C31.0842 38.297 31.3669 39.0113 31.8756 39.5513C32.3844 40.0913 33.0806 40.416 33.8213 40.4586C33.9582 41.0605 34.2939 41.5986 34.7744 41.9862C35.2548 42.3737 35.8518 42.5879 36.469 42.5943C37.1647 42.5842 37.8285 42.3009 38.3169 41.8053C38.8054 41.3098 39.0792 40.642 39.0792 39.9463C39.0792 39.2505 38.8054 38.5827 38.3169 38.0872C37.8285 37.5917 37.1647 37.3083 36.469 37.2983C35.8518 37.3046 35.2548 37.5188 34.7744 37.9064C34.2939 38.2939 33.9582 38.832 33.8213 39.4339C33.3737 39.3956 32.9573 39.1888 32.6563 38.8554C32.3552 38.5219 32.1919 38.0866 32.1994 37.6375V33.027H39.288C41.3024 33.0225 43.233 32.2204 44.6575 30.7963C46.0821 29.3721 46.8847 27.4417 46.8898 25.4274C46.8622 24.3786 46.624 23.3461 46.1892 22.3913C45.7545 21.4365 45.1321 20.5788 44.3592 19.8694C43.5863 19.16 42.6786 18.6133 41.6901 18.2618C40.7016 17.9103 39.6525 17.7612 38.6052 17.8234ZM12.8112 41.4795C12.3809 41.4795 11.9683 41.3086 11.664 41.0043C11.3597 40.7 11.1888 40.2874 11.1888 39.8571C11.1888 39.4268 11.3597 39.0141 11.664 38.7098C11.9683 38.4056 12.3809 38.2346 12.8112 38.2346C13.0264 38.2273 13.2407 38.2642 13.4409 38.3432C13.6412 38.4221 13.823 38.5414 13.9752 38.6936C14.1274 38.8458 14.2467 39.0277 14.3257 39.2279C14.4046 39.4282 14.4416 39.6425 14.4342 39.8576C14.4204 40.2836 14.2449 40.6882 13.9435 40.9895C13.642 41.2907 13.2372 41.4659 12.8112 41.4795ZM17.5941 46.3485C17.1636 46.3485 16.7508 46.1775 16.4464 45.8731C16.1421 45.5688 15.9711 45.156 15.9711 44.7255C15.9711 44.2951 16.1421 43.8822 16.4464 43.5779C16.7508 43.2735 17.1636 43.1025 17.5941 43.1025C17.8092 43.0952 18.0235 43.1321 18.2237 43.2111C18.424 43.29 18.6058 43.4093 18.758 43.5615C18.9102 43.7137 19.0295 43.8956 19.1085 44.0958C19.1875 44.2961 19.2244 44.5104 19.2171 44.7255C19.2028 45.1514 19.0273 45.556 18.7259 45.8574C18.4246 46.1587 18.02 46.3343 17.5941 46.3485ZM31.4304 43.1025C31.7514 43.1025 32.0652 43.1977 32.3321 43.376C32.599 43.5544 32.807 43.8079 32.9299 44.1044C33.0527 44.401 33.0849 44.7273 33.0222 45.0421C32.9596 45.357 32.805 45.6462 32.5781 45.8731C32.3511 46.1001 32.0619 46.2547 31.7471 46.3173C31.4322 46.3799 31.1059 46.3478 30.8093 46.225C30.5128 46.1021 30.2593 45.8941 30.081 45.6272C29.9026 45.3603 29.8074 45.0465 29.8074 44.7255C29.8215 44.2995 29.9971 43.8949 30.2984 43.5935C30.5998 43.2921 31.0045 43.1166 31.4304 43.1025ZM36.2994 38.3197C36.6203 38.3198 36.9339 38.415 37.2006 38.5934C37.4673 38.7717 37.6752 39.0251 37.7979 39.3215C37.9207 39.6179 37.9527 39.9441 37.8901 40.2588C37.8275 40.5735 37.673 40.8625 37.4461 41.0894C37.2193 41.3163 36.9302 41.4708 36.6155 41.5334C36.3009 41.596 35.9747 41.5639 35.6782 41.4412C35.3818 41.3185 35.1284 41.1106 34.9501 40.8439C34.7718 40.5771 34.6765 40.2635 34.6764 39.9427C34.6691 39.7276 34.706 39.5132 34.785 39.313C34.864 39.1128 34.9832 38.9309 35.1354 38.7787C35.2876 38.6265 35.4695 38.5072 35.6697 38.4283C35.87 38.3493 36.0843 38.3123 36.2994 38.3197ZM39.1173 31.9144H32.0287V25.5124C32.0287 25.3766 31.9747 25.2462 31.8786 25.1501C31.7825 25.0541 31.6522 25.0001 31.5163 25.0001C31.3804 25.0001 31.2501 25.0541 31.154 25.1501C31.0579 25.2462 31.004 25.3766 31.004 25.5124V31.9183H27.2459V28.1602C27.2459 28.0243 27.1919 27.894 27.0958 27.7979C26.9997 27.7018 26.8694 27.6478 26.7335 27.6478C26.5976 27.6478 26.4673 27.7018 26.3712 27.7979C26.2751 27.894 26.2211 28.0243 26.2211 28.1602V31.9183H22.9752V28.1602C22.9752 28.0243 22.9212 27.894 22.8251 27.7979C22.729 27.7018 22.5987 27.6478 22.4628 27.6478C22.3269 27.6478 22.1966 27.7018 22.1005 27.7979C22.0044 27.894 21.9504 28.0243 21.9504 28.1602V31.9183H18.1918V25.5124C18.194 25.4438 18.1825 25.3754 18.1577 25.3114C18.133 25.2473 18.0957 25.1889 18.0479 25.1396C18.0002 25.0902 17.943 25.051 17.8798 25.0242C17.8166 24.9974 17.7486 24.9836 17.68 24.9836C17.6113 24.9836 17.5433 24.9974 17.4801 25.0242C17.4169 25.051 17.3597 25.0902 17.312 25.1396C17.2642 25.1889 17.2269 25.2473 17.2022 25.3114C17.1775 25.3754 17.1659 25.4438 17.1681 25.5124V31.9183H8.71122C7.03591 31.8494 5.45213 31.1354 4.29113 29.9256C3.13012 28.7159 2.48182 27.1041 2.48182 25.4274C2.48182 23.7506 3.13012 22.1389 4.29113 20.9291C5.45213 19.7194 7.03591 19.0054 8.71122 18.9365C8.79729 18.9236 8.87971 18.8929 8.95322 18.8463C9.02672 18.7997 9.08967 18.7383 9.13804 18.6659C9.18641 18.5936 9.21913 18.5119 9.2341 18.4262C9.24906 18.3404 9.24595 18.2525 9.22496 18.1681C8.81297 17.1068 8.60983 15.9759 8.62669 14.8375C8.62586 12.6763 9.39847 10.5861 10.8048 8.94505C12.2111 7.30396 14.1583 6.2203 16.2941 5.89008C18.43 5.55985 20.6135 6.00486 22.4497 7.14462C24.286 8.28438 25.6538 10.0436 26.3057 12.1042C26.3329 12.1875 26.3798 12.263 26.4425 12.3242C26.5052 12.3854 26.5817 12.4305 26.6657 12.4557C26.7496 12.4809 26.8383 12.4854 26.9244 12.4688C27.0104 12.4522 27.0911 12.4151 27.1597 12.3605C28.3507 11.4176 29.8258 10.9056 31.3448 10.9077C32.2854 10.9024 33.2158 11.1026 34.0709 11.4945C34.926 11.8863 35.6852 12.4601 36.2954 13.176C36.9056 13.8918 37.352 14.7323 37.6035 15.6387C37.8549 16.545 37.9053 17.4954 37.7512 18.4233C37.7346 18.5053 37.7386 18.5901 37.7627 18.6702C37.7869 18.7503 37.8304 18.8232 37.8895 18.8824C37.9486 18.9416 38.0214 18.9853 38.1015 19.0095C38.1815 19.0338 38.2663 19.0379 38.3483 19.0216C39.2749 18.8762 40.222 18.9328 41.1247 19.1875C42.0273 19.4422 42.8643 19.8891 43.5782 20.4974C44.2921 21.1057 44.866 21.8612 45.2607 22.712C45.6555 23.5628 45.8616 24.4889 45.8651 25.4268C45.6087 28.928 42.7036 31.9177 39.1168 31.9177" fill="currentColor"/>
<path d="M17.5935 8.43008C17.5848 8.29701 17.528 8.17165 17.4337 8.07741C17.3393 7.98318 17.2139 7.9265 17.0808 7.91798C16.2504 7.91617 15.4278 8.07842 14.6602 8.39542C13.8927 8.71241 13.1953 9.1779 12.6081 9.76516C12.021 10.3524 11.5556 11.0499 11.2387 11.8175C10.9219 12.5851 10.7598 13.4077 10.7617 14.2382C10.7617 14.3741 10.8157 14.5044 10.9118 14.6005C11.0079 14.6966 11.1382 14.7505 11.2741 14.7505C11.41 14.7505 11.5403 14.6966 11.6364 14.6005C11.7325 14.5044 11.7865 14.3741 11.7865 14.2382C11.794 12.8362 12.3541 11.4938 13.3454 10.5024C14.3366 9.51095 15.6789 8.9505 17.0808 8.94272C17.214 8.93418 17.3395 8.87743 17.4338 8.78308C17.5282 8.68873 17.5849 8.56324 17.5935 8.43008Z" fill="currentColor"/>
<path d="M6.06431 0.999512C6.21629 0.999512 6.36485 1.04458 6.49122 1.12901C6.61758 1.21345 6.71607 1.33346 6.77423 1.47387C6.83239 1.61427 6.84761 1.76878 6.81796 1.91783C6.78831 2.06689 6.71513 2.20381 6.60766 2.31127C6.5002 2.41874 6.36328 2.49192 6.21422 2.52157C6.06516 2.55122 5.91066 2.536 5.77025 2.47785C5.62984 2.41969 5.50983 2.3212 5.4254 2.19483C5.34097 2.06847 5.2959 1.9199 5.2959 1.76792C5.2959 1.56413 5.37686 1.36868 5.52096 1.22457C5.66507 1.08047 5.86052 0.999512 6.06431 0.999512Z" fill="currentColor"/>
<path d="M32.284 2.02441C32.436 2.02441 32.5846 2.06948 32.7109 2.15391C32.8373 2.23835 32.9358 2.35836 32.994 2.49877C33.0521 2.63918 33.0673 2.79368 33.0377 2.94274C33.008 3.09179 32.9349 3.22871 32.8274 3.33618C32.7199 3.44364 32.583 3.51683 32.4339 3.54647C32.2849 3.57612 32.1304 3.56091 31.99 3.50275C31.8496 3.44459 31.7296 3.3461 31.6451 3.21973C31.5607 3.09337 31.5156 2.9448 31.5156 2.79283C31.5156 2.58903 31.5966 2.39358 31.7407 2.24948C31.8848 2.10537 32.0802 2.02441 32.284 2.02441Z" fill="currentColor"/>
<path d="M47.2303 12.7007C47.3823 12.7007 47.5309 12.7458 47.6572 12.8302C47.7836 12.9146 47.8821 13.0346 47.9402 13.175C47.9984 13.3154 48.0136 13.4699 47.984 13.619C47.9543 13.7681 47.8811 13.905 47.7737 14.0124C47.6662 14.1199 47.5293 14.1931 47.3802 14.2227C47.2312 14.2524 47.0767 14.2372 46.9363 14.179C46.7959 14.1209 46.6758 14.0224 46.5914 13.896C46.507 13.7696 46.4619 13.6211 46.4619 13.4691C46.4619 13.2653 46.5429 13.0699 46.687 12.9257C46.8311 12.7816 47.0265 12.7007 47.2303 12.7007Z" fill="currentColor"/>
<path d="M1.87974 12.189C2.03172 12.189 2.18028 12.234 2.30665 12.3185C2.43301 12.4029 2.5315 12.5229 2.58966 12.6633C2.64782 12.8037 2.66304 12.9582 2.63339 13.1073C2.60374 13.2563 2.53056 13.3933 2.42309 13.5007C2.31563 13.6082 2.17871 13.6814 2.02965 13.711C1.88059 13.7407 1.72609 13.7255 1.58568 13.6673C1.44527 13.6091 1.32526 13.5107 1.24083 13.3843C1.15639 13.2579 1.11133 13.1094 1.11133 12.9574C1.11133 12.7536 1.19229 12.5581 1.33639 12.414C1.4805 12.2699 1.67595 12.189 1.87974 12.189Z" fill="currentColor"/>
<path d="M46.1219 34.0527C46.2739 34.0527 46.4225 34.0978 46.5488 34.1822C46.6752 34.2667 46.7737 34.3867 46.8318 34.5271C46.89 34.6675 46.9052 34.822 46.8756 34.9711C46.8459 35.1201 46.7727 35.257 46.6653 35.3645C46.5578 35.472 46.4209 35.5451 46.2718 35.5748C46.1228 35.6044 45.9683 35.5892 45.8279 35.5311C45.6875 35.4729 45.5675 35.3744 45.483 35.2481C45.3986 35.1217 45.3535 34.9731 45.3535 34.8211C45.3535 34.6174 45.4345 34.4219 45.5786 34.2778C45.7227 34.1337 45.9181 34.0527 46.1219 34.0527Z" fill="currentColor"/>
<path d="M31.601 22.8643C31.7022 22.8643 31.8012 22.8943 31.8855 22.9506C31.9697 23.0068 32.0353 23.0868 32.0741 23.1804C32.1128 23.274 32.123 23.3769 32.1032 23.4763C32.0835 23.5756 32.0347 23.6668 31.9631 23.7385C31.8914 23.8101 31.8002 23.8588 31.7009 23.8786C31.6015 23.8984 31.4986 23.8882 31.405 23.8495C31.3114 23.8107 31.2314 23.7451 31.1752 23.6609C31.1189 23.5766 31.0889 23.4776 31.0889 23.3763C31.0888 23.3091 31.102 23.2425 31.1277 23.1803C31.1534 23.1181 31.1911 23.0617 31.2387 23.0141C31.2863 22.9665 31.3427 22.9288 31.4049 22.9031C31.4671 22.8774 31.5337 22.8642 31.601 22.8643Z" fill="currentColor"/>
<path d="M17.5937 22.8643C17.695 22.8644 17.7939 22.8945 17.878 22.9508C17.9622 23.0072 18.0277 23.0872 18.0664 23.1808C18.1051 23.2743 18.1152 23.3773 18.0953 23.4766C18.0755 23.5759 18.0267 23.6671 17.9551 23.7386C17.8834 23.8102 17.7922 23.8589 17.6928 23.8786C17.5935 23.8984 17.4906 23.8882 17.3971 23.8494C17.3035 23.8106 17.2236 23.745 17.1673 23.6608C17.1111 23.5766 17.0811 23.4776 17.0811 23.3763C17.0811 23.3091 17.0943 23.2424 17.1201 23.1803C17.1459 23.1181 17.1836 23.0616 17.2312 23.0141C17.2788 22.9665 17.3354 22.9288 17.3976 22.9031C17.4598 22.8774 17.5264 22.8642 17.5937 22.8643Z" fill="currentColor"/>
<path d="M41.3387 42.5928C41.4907 42.5928 41.6393 42.6378 41.7656 42.7223C41.892 42.8067 41.9905 42.9267 42.0486 43.0671C42.1068 43.2075 42.122 43.362 42.0924 43.5111C42.0627 43.6602 41.9895 43.7971 41.8821 43.9045C41.7746 44.012 41.6377 44.0852 41.4886 44.1148C41.3396 44.1445 41.1851 44.1293 41.0447 44.0711C40.9043 44.0129 40.7842 43.9145 40.6998 43.7881C40.6154 43.6617 40.5703 43.5132 40.5703 43.3612C40.5703 43.1574 40.6513 42.9619 40.7954 42.8178C40.9395 42.6737 41.1349 42.5928 41.3387 42.5928Z" fill="currentColor"/>
<path d="M9.30943 34.5649C9.46141 34.5649 9.60997 34.61 9.73634 34.6944C9.8627 34.7789 9.96119 34.8989 10.0193 35.0393C10.0775 35.1797 10.0927 35.3342 10.0631 35.4833C10.0334 35.6323 9.96024 35.7692 9.85278 35.8767C9.74531 35.9842 9.6084 36.0574 9.45934 36.087C9.31028 36.1167 9.15578 36.1014 9.01537 36.0433C8.87496 35.9851 8.75495 35.8866 8.67052 35.7603C8.58608 35.6339 8.54102 35.4853 8.54102 35.3334C8.54102 35.1296 8.62197 34.9341 8.76608 34.79C8.91018 34.6459 9.10563 34.5649 9.30943 34.5649Z" fill="currentColor"/>
<path d="M3.41587 45.2407C3.56785 45.2407 3.71642 45.2858 3.84278 45.3702C3.96915 45.4547 4.06764 45.5747 4.12579 45.7151C4.18395 45.8555 4.19917 46.01 4.16952 46.159C4.13987 46.3081 4.06669 46.445 3.95922 46.5525C3.85176 46.6599 3.71484 46.7331 3.56578 46.7628C3.41673 46.7924 3.26222 46.7772 3.12181 46.7191C2.98141 46.6609 2.8614 46.5624 2.77696 46.436C2.69253 46.3097 2.64746 46.1611 2.64746 46.0091C2.64746 45.8053 2.72842 45.6099 2.87252 45.4658C3.01663 45.3217 3.21208 45.2407 3.41587 45.2407Z" fill="currentColor"/>
<path d="M42.7043 10.5645C43.6984 10.556 44.6494 10.1573 45.3523 9.45439C46.0553 8.75143 46.454 7.80046 46.4624 6.80637C46.4624 5.80981 46.0665 4.85406 45.3619 4.14939C44.6572 3.44471 43.7014 3.04883 42.7049 3.04883C41.7083 3.04883 40.7526 3.44471 40.0479 4.14939C39.3432 4.85406 38.9473 5.80981 38.9473 6.80637C38.9443 7.30063 39.0395 7.79057 39.2272 8.24779C39.415 8.70502 39.6916 9.12045 40.041 9.47C40.3905 9.81955 40.8058 10.0963 41.263 10.2842C41.7201 10.472 42.2101 10.5673 42.7043 10.5645ZM42.7043 4.15918C43.228 4.15918 43.7399 4.31447 44.1753 4.60541C44.6107 4.89634 44.9501 5.30986 45.1505 5.79367C45.3509 6.27748 45.4033 6.80985 45.3012 7.32346C45.199 7.83707 44.9468 8.30885 44.5766 8.67914C44.2063 9.04944 43.7345 9.30161 43.2209 9.40377C42.7073 9.50593 42.1749 9.4535 41.6911 9.2531C41.2073 9.0527 40.7938 8.71333 40.5028 8.27792C40.2119 7.8425 40.0566 7.33059 40.0566 6.80692C40.0439 6.4558 40.1037 6.10584 40.2323 5.77887C40.3609 5.4519 40.5555 5.15493 40.8039 4.9065C41.0523 4.65806 41.3493 4.46348 41.6763 4.33491C42.0033 4.20633 42.3532 4.14651 42.7043 4.15918Z" fill="currentColor"/>
<path d="M2.64773 35.0776C2.12413 35.0776 1.61228 35.2329 1.1769 35.5237C0.741521 35.8146 0.402154 36.228 0.201705 36.7117C0.00125634 37.1955 -0.0512736 37.7277 0.0507563 38.2413C0.152786 38.7549 0.404795 39.2267 0.774922 39.597C1.14505 39.9674 1.61668 40.2197 2.13018 40.322C2.64368 40.4244 3.176 40.3722 3.65983 40.172C4.14367 39.9719 4.5573 39.6328 4.84844 39.1976C5.13957 38.7624 5.29514 38.2506 5.29546 37.727C5.292 37.0259 5.01193 36.3544 4.51613 35.8586C4.02034 35.3628 3.34889 35.0827 2.64773 35.0793M2.64773 39.35C2.21743 39.35 1.80475 39.1791 1.50049 38.8748C1.19622 38.5705 1.02528 38.1579 1.02528 37.7276C1.02528 37.2973 1.19622 36.8846 1.50049 36.5803C1.80475 36.2761 2.21743 36.1051 2.64773 36.1051C2.86275 36.0978 3.07699 36.1347 3.27715 36.2136C3.47731 36.2925 3.65912 36.4117 3.8113 36.5638C3.96348 36.7158 4.08279 36.8976 4.16182 37.0977C4.24085 37.2978 4.27792 37.512 4.27073 37.727C4.27087 37.9402 4.22899 38.1513 4.14748 38.3483C4.06597 38.5453 3.94642 38.7242 3.79569 38.875C3.64495 39.0257 3.46597 39.1453 3.269 39.2268C3.07202 39.3083 2.86091 39.3502 2.64773 39.35Z" fill="currentColor"/>
</svg>
