<svg width="48" height="48" viewBox="0 0 48 48" fill="none" xmlns="http://www.w3.org/2000/svg">
<path d="M47.9994 22.0534C47.9965 20.997 47.7776 19.9523 47.3561 18.9836C46.9345 18.015 46.3194 17.1427 45.5484 16.4205C44.7774 15.6983 43.8668 15.1414 42.8727 14.784C41.8785 14.4267 40.8218 14.2764 39.7674 14.3425C39.8555 12.9011 39.5396 11.4638 38.8552 10.1922C38.1708 8.92065 37.1451 7.86535 35.8935 7.14506C34.6419 6.42476 33.2142 6.06808 31.7709 6.11514C30.3276 6.1622 28.9261 6.61114 27.7241 7.41143C26.8338 5.20807 25.2055 3.38253 23.1179 2.24711C21.0302 1.11168 18.6129 0.736924 16.2794 1.18695C13.946 1.63697 11.8414 2.8838 10.3257 4.71416C8.81006 6.54451 7.97746 8.84465 7.97038 11.2211C7.974 12.282 8.14941 13.3354 8.48977 14.3402C6.64579 14.6087 4.96193 15.5374 3.75099 16.9538C2.54005 18.3701 1.88433 20.1778 1.90565 22.0411C1.92696 23.9044 2.62385 25.6967 3.86688 27.0849C5.1099 28.4732 6.81455 29.3631 8.6642 29.5894V34.0079C8.67237 34.5568 8.89406 35.0809 9.28224 35.4691C9.67042 35.8573 10.1945 36.0789 10.7435 36.0871H12.996V37.2187H10.7435C10.1945 37.2268 9.67042 37.4485 9.28224 37.8367C8.89406 38.2249 8.67237 38.749 8.6642 39.2979V43.7164C8.67153 44.2656 8.89295 44.7902 9.28131 45.1785C9.66967 45.5669 10.1943 45.7883 10.7435 45.7957H12.996V47.4399C13.0052 47.5746 13.0627 47.7014 13.1579 47.7971C13.2531 47.8927 13.3797 47.9507 13.5143 47.9605H35.1751C35.3099 47.9511 35.4368 47.8932 35.5323 47.7975C35.6278 47.7018 35.6854 47.5748 35.6945 47.4399V45.7934H37.947C38.4961 45.7856 39.0206 45.564 39.409 45.1758C39.7974 44.7876 40.0192 44.2633 40.0274 43.7142V39.2957C40.0187 38.7473 39.7968 38.2238 39.4088 37.8361C39.0208 37.4484 38.4971 37.227 37.9487 37.2187H35.6961V36.0893H37.9487C38.4978 36.0814 39.0222 35.8599 39.4106 35.4717C39.7991 35.0835 40.0209 34.5592 40.0291 34.0101V29.5916H40.2007C41.2157 29.6402 42.2299 29.4804 43.1808 29.1221C44.1317 28.7639 44.9992 28.2147 45.7298 27.5085C46.4604 26.8023 47.0387 25.954 47.429 25.0158C47.8194 24.0776 48.0135 23.0695 47.9994 22.0534ZM2.94806 22.0534C2.94725 20.3518 3.60495 18.7159 4.78336 17.4884C5.96178 16.2609 7.56949 15.5371 9.2697 15.4685C9.35686 15.4555 9.44035 15.4245 9.5148 15.3773C9.58926 15.3302 9.65304 15.268 9.70205 15.1948C9.75106 15.1216 9.78422 15.0389 9.7994 14.9521C9.81459 14.8653 9.81145 14.7763 9.79021 14.6908C9.37255 13.6141 9.16695 12.4669 9.18471 11.3122C9.18223 9.11875 9.96514 6.99691 11.3917 5.33076C12.8183 3.66461 14.7942 2.56427 16.9619 2.22893C19.1295 1.89358 21.3456 2.34538 23.209 3.50256C25.0723 4.65973 26.4598 6.4458 27.1203 8.53744C27.1478 8.62194 27.1953 8.69853 27.2589 8.76065C27.3224 8.82278 27.4 8.8686 27.4851 8.8942C27.5702 8.9198 27.6603 8.92442 27.7475 8.90766C27.8348 8.89091 27.9167 8.85327 27.9863 8.79797C29.1944 7.84207 30.6904 7.32305 32.2309 7.32533C33.1851 7.31969 34.1291 7.52263 34.9967 7.91997C35.8643 8.31731 36.6346 8.89943 37.2537 9.62562C37.8728 10.3518 38.3257 11.2045 38.5808 12.124C38.8358 13.0436 38.8869 14.0077 38.7303 14.9491C38.7139 15.032 38.7182 15.1177 38.7428 15.1986C38.7674 15.2795 38.8116 15.3531 38.8714 15.4129C38.9312 15.4727 39.0048 15.5169 39.0857 15.5415C39.1666 15.5661 39.2523 15.5704 39.3353 15.554C40.2323 15.4104 41.1495 15.454 42.0289 15.6822C42.9083 15.9103 43.7309 16.318 44.4451 16.8796C45.1592 17.4412 45.7494 18.1446 46.1784 18.9454C46.6074 19.7463 46.866 20.6273 46.9379 21.5329C47.0098 22.4386 46.8935 23.3493 46.5962 24.2078C46.299 25.0664 45.8272 25.854 45.2106 26.5213C44.5941 27.1886 43.8461 27.721 43.0137 28.0851C42.1813 28.4491 41.2826 28.6369 40.374 28.6367H39.9408C39.7585 28.3093 39.4954 28.034 39.1765 27.8372C38.8576 27.6404 38.4936 27.5285 38.1193 27.5124H35.8695V26.3863H38.1193C38.6684 26.379 39.193 26.1576 39.5814 25.7692C39.9698 25.3809 40.1912 24.8563 40.1985 24.3071V19.8869C40.191 19.3379 39.9695 18.8134 39.5812 18.4252C39.1929 18.0369 38.6683 17.8156 38.1193 17.8082H10.829C10.2802 17.8164 9.75614 18.038 9.36798 18.4261C8.97981 18.8141 8.75806 19.3381 8.74975 19.8869V24.3054C8.75749 24.8546 8.97899 25.3792 9.36721 25.7677C9.75544 26.1562 10.2798 26.3782 10.829 26.3863H13.0827V27.5129H10.829C10.4617 27.5131 10.1007 27.6091 9.78184 27.7914C9.46297 27.9738 9.19721 28.2363 9.01083 28.5528C7.35544 28.4648 5.79864 27.7384 4.6677 26.5263C3.53676 25.3142 2.91976 23.7109 2.9464 22.0534M10.829 25.4331C10.691 25.4386 10.5534 25.4154 10.4248 25.3651C10.2962 25.3148 10.1795 25.2383 10.0819 25.1406C9.98427 25.0429 9.90797 24.9261 9.85778 24.7975C9.80758 24.6688 9.78457 24.5312 9.79021 24.3932V19.9747C9.78457 19.8367 9.80758 19.6991 9.85778 19.5705C9.90797 19.4418 9.98427 19.325 10.0819 19.2273C10.1795 19.1296 10.2962 19.0531 10.4248 19.0028C10.5534 18.9525 10.691 18.9293 10.829 18.9348H38.0348C38.1729 18.9292 38.3106 18.9522 38.4394 19.0025C38.5681 19.0527 38.685 19.1291 38.7827 19.2268C38.8804 19.3246 38.9568 19.4415 39.0071 19.5702C39.0573 19.6989 39.0804 19.8366 39.0747 19.9747V24.3932C39.0804 24.5313 39.0573 24.669 39.0071 24.7977C38.9568 24.9265 38.8804 25.0434 38.7827 25.1411C38.685 25.2388 38.5681 25.3152 38.4394 25.3654C38.3106 25.4157 38.1729 25.4387 38.0348 25.4331H10.829ZM14.1215 26.5591H34.7435V27.6851H14.1215V26.5591ZM14.1215 47.0928V45.9668H34.7418V47.0928H14.1215ZM38.9892 39.4679V43.8875C38.9948 44.0256 38.9718 44.1633 38.9215 44.292C38.8713 44.4208 38.7949 44.5377 38.6971 44.6354C38.5994 44.7331 38.4825 44.8095 38.3538 44.8597C38.2251 44.91 38.0873 44.933 37.9493 44.9274H10.7435C10.6054 44.933 10.4676 44.91 10.3389 44.8597C10.2102 44.8095 10.0933 44.7331 9.99558 44.6354C9.89787 44.5377 9.82147 44.4208 9.77121 44.292C9.72094 44.1633 9.6979 44.0256 9.70355 43.8875V39.4685C9.6979 39.3304 9.72094 39.1927 9.77121 39.0639C9.82147 38.9352 9.89787 38.8183 9.99558 38.7206C10.0933 38.6229 10.2102 38.5465 10.3389 38.4962C10.4676 38.446 10.6054 38.4229 10.7435 38.4286H37.9487C38.2233 38.4326 38.4854 38.5434 38.6796 38.7376C38.8737 38.9317 38.9852 39.1934 38.9892 39.4679ZM14.1215 37.3898V36.2632H34.7418V37.3898H14.1215ZM38.9886 34.1834C38.9943 34.3215 38.9712 34.4592 38.921 34.5879C38.8707 34.7167 38.7943 34.8336 38.6966 34.9313C38.5989 35.029 38.482 35.1054 38.3532 35.1556C38.2245 35.2059 38.0868 35.2289 37.9487 35.2233H10.7435C10.6054 35.2289 10.4676 35.2059 10.3389 35.1556C10.2102 35.1054 10.0933 35.029 9.99558 34.9313C9.89787 34.8336 9.82147 34.7167 9.77121 34.5879C9.72094 34.4592 9.6979 34.3215 9.70355 34.1834V29.7649C9.6979 29.6269 9.72094 29.4891 9.77121 29.3604C9.82147 29.2317 9.89787 29.1148 9.99558 29.017C10.0933 28.9193 10.2102 28.8429 10.3389 28.7927C10.4676 28.7424 10.6054 28.7194 10.7435 28.725H37.9487C38.0868 28.7194 38.2245 28.7424 38.3532 28.7927C38.482 28.8429 38.5989 28.9193 38.6966 29.017C38.7943 29.1148 38.8707 29.2317 38.921 29.3604C38.9712 29.4891 38.9943 29.6269 38.9886 29.7649V34.1834Z" fill="currentColor"/>
<path d="M11.9561 11.3105C12.0912 11.3015 12.2184 11.2438 12.3142 11.1481C12.4099 11.0523 12.4676 10.9251 12.4766 10.79C12.4838 9.36741 13.0522 8.00513 14.0583 6.99934C15.0644 5.99355 16.4269 5.42556 17.8495 5.41884C17.9844 5.40988 18.1115 5.35232 18.2072 5.25681C18.3029 5.1613 18.3607 5.03434 18.37 4.89944C18.3609 4.76439 18.3031 4.63722 18.2074 4.54151C18.1117 4.4458 17.9845 4.38804 17.8495 4.37894C17.0068 4.37674 16.1719 4.54106 15.3929 4.86247C14.6139 5.18388 13.9061 5.65604 13.3101 6.25182C12.7141 6.84761 12.2417 7.55528 11.92 8.33418C11.5983 9.11307 11.4337 9.94786 11.4356 10.7906C11.4327 10.8597 11.4442 10.9287 11.4693 10.9931C11.4944 11.0576 11.5327 11.1162 11.5816 11.1651C11.6305 11.214 11.6891 11.2522 11.7535 11.2774C11.818 11.3025 11.887 11.3134 11.9561 11.3105Z" fill="currentColor"/>
<path d="M33.6169 41.7216C33.6169 42.0472 33.7135 42.3656 33.8944 42.6363C34.0753 42.9071 34.3325 43.1182 34.6333 43.2428C34.9342 43.3674 35.2652 43.4 35.5846 43.3365C35.904 43.2729 36.1974 43.1161 36.4277 42.8859C36.6579 42.6556 36.8148 42.3622 36.8783 42.0428C36.9418 41.7234 36.9092 41.3924 36.7846 41.0915C36.66 40.7906 36.4489 40.5335 36.1782 40.3526C35.9074 40.1716 35.5891 40.0751 35.2634 40.0751C35.0471 40.0749 34.833 40.1174 34.6331 40.2001C34.4333 40.2828 34.2517 40.4041 34.0988 40.557C33.9459 40.7099 33.8246 40.8915 33.7419 41.0913C33.6592 41.2912 33.6167 41.5053 33.6169 41.7216ZM35.7834 41.7216C35.7835 41.8244 35.7531 41.925 35.696 42.0106C35.639 42.0961 35.5579 42.1628 35.4629 42.2023C35.3679 42.2418 35.2634 42.2522 35.1625 42.2322C35.0616 42.2123 34.9689 42.1628 34.8961 42.0902C34.8233 42.0176 34.7737 41.925 34.7536 41.8241C34.7334 41.7233 34.7436 41.6187 34.7828 41.5237C34.8221 41.4286 34.8886 41.3474 34.9741 41.2901C35.0595 41.2329 35.16 41.2023 35.2629 41.2022C35.3319 41.1993 35.4008 41.2107 35.4652 41.2358C35.5295 41.2609 35.588 41.299 35.6369 41.3478C35.6859 41.3966 35.7241 41.455 35.7493 41.5194C35.7745 41.5837 35.7861 41.6525 35.7834 41.7216Z" fill="currentColor"/>
<path d="M30.9321 40.0756C30.6064 40.0754 30.288 40.1718 30.0171 40.3526C29.7462 40.5334 29.535 40.7904 29.4102 41.0913C29.2854 41.3921 29.2526 41.7232 29.316 42.0427C29.3794 42.3621 29.5361 42.6556 29.7664 42.886C29.9966 43.1164 30.29 43.2733 30.6094 43.3369C30.9288 43.4006 31.2599 43.368 31.5609 43.2434C31.8618 43.1188 32.119 42.9078 32.3 42.637C32.4809 42.3662 32.5775 42.0478 32.5775 41.7221C32.5488 41.2951 32.3663 40.8929 32.0637 40.5902C31.7612 40.2874 31.3592 40.1046 30.9321 40.0756ZM30.9321 42.2421C30.8293 42.242 30.7288 42.2114 30.6434 42.1542C30.5579 42.0969 30.4914 42.0157 30.4521 41.9206C30.4129 41.8256 30.4027 41.721 30.4228 41.6202C30.443 41.5193 30.4926 41.4267 30.5654 41.3541C30.6382 41.2815 30.7309 41.232 30.8318 41.2121C30.9327 41.1921 31.0372 41.2025 31.1322 41.242C31.2272 41.2814 31.3083 41.3482 31.3653 41.4337C31.4224 41.5193 31.4528 41.6199 31.4526 41.7227C31.4441 41.8578 31.3865 41.9852 31.2906 42.0808C31.1948 42.1765 31.0673 42.2338 30.9321 42.2421Z" fill="currentColor"/>
<path d="M26.5987 41.2016H12.4766C12.3387 41.2016 12.2065 41.2564 12.109 41.3539C12.0115 41.4514 11.9567 41.5837 11.9567 41.7216C11.9567 41.8595 12.0115 41.9917 12.109 42.0892C12.2065 42.1868 12.3387 42.2415 12.4766 42.2415H26.5987C26.7337 42.2326 26.861 42.1748 26.9567 42.0791C27.0524 41.9834 27.1102 41.8561 27.1192 41.721C27.1219 41.652 27.1103 41.5831 27.0851 41.5188C27.0599 41.4545 27.0217 41.3961 26.9727 41.3473C26.9238 41.2984 26.8653 41.2603 26.801 41.2353C26.7366 41.2102 26.6677 41.1987 26.5987 41.2016Z" fill="currentColor"/>
<path d="M35.2634 30.371C34.9378 30.371 34.6195 30.4675 34.3487 30.6484C34.078 30.8293 33.8669 31.0864 33.7423 31.3873C33.6176 31.6881 33.585 32.0191 33.6485 32.3385C33.712 32.6579 33.8687 32.9513 34.0989 33.1816C34.3292 33.4118 34.6225 33.5687 34.9418 33.6323C35.2612 33.6959 35.5922 33.6634 35.8931 33.5388C36.194 33.4143 36.4512 33.2033 36.6322 32.9326C36.8132 32.662 36.9098 32.3437 36.9099 32.018C36.8959 31.5858 36.7179 31.175 36.4122 30.8691C36.1064 30.5632 35.6957 30.3851 35.2634 30.371ZM35.2634 32.5374C35.1606 32.5373 35.0601 32.5067 34.9746 32.4495C34.8892 32.3923 34.8226 32.311 34.7834 32.216C34.7441 32.1209 34.7339 32.0163 34.7541 31.9155C34.7743 31.8147 34.8239 31.7221 34.8967 31.6494C34.9695 31.5768 35.0622 31.5274 35.1631 31.5074C35.2639 31.4875 35.3685 31.4979 35.4635 31.5373C35.5584 31.5768 35.6396 31.6435 35.6966 31.7291C35.7536 31.8146 35.784 31.9152 35.7839 32.018C35.7747 32.1529 35.7168 32.2799 35.6211 32.3754C35.5254 32.4709 35.3983 32.5285 35.2634 32.5374Z" fill="currentColor"/>
<path d="M30.9321 30.371C30.6065 30.3708 30.288 30.4671 30.0171 30.6479C29.7462 30.8286 29.535 31.0857 29.4102 31.3865C29.2854 31.6873 29.2526 32.0184 29.316 32.3378C29.3793 32.6573 29.536 32.9508 29.7662 33.1812C29.9963 33.4116 30.2897 33.5685 30.6091 33.6322C30.9284 33.6959 31.2595 33.6634 31.5605 33.5389C31.8614 33.4144 32.1187 33.2035 32.2997 32.9328C32.4807 32.662 32.5774 32.3437 32.5775 32.018C32.5638 31.5859 32.3861 31.1751 32.0805 30.8692C31.7749 30.5633 31.3643 30.3852 30.9321 30.371ZM30.9321 32.5374C30.8293 32.5373 30.7288 32.5067 30.6434 32.4495C30.5579 32.3923 30.4914 32.311 30.4521 32.216C30.4129 32.1209 30.4027 32.0163 30.4228 31.9155C30.443 31.8147 30.4926 31.7221 30.5654 31.6494C30.6382 31.5768 30.7309 31.5274 30.8318 31.5074C30.9327 31.4875 31.0372 31.4979 31.1322 31.5373C31.2272 31.5768 31.3083 31.6435 31.3653 31.7291C31.4224 31.8146 31.4528 31.9152 31.4526 32.018C31.4441 32.1532 31.3865 32.2805 31.2906 32.3762C31.1948 32.4718 31.0673 32.5292 30.9321 32.5374Z" fill="currentColor"/>
<path d="M26.5987 31.4114H12.4766C12.4083 31.4114 12.3407 31.4249 12.2776 31.451C12.2146 31.4771 12.1572 31.5154 12.109 31.5637C12.0607 31.612 12.0224 31.6693 11.9963 31.7324C11.9701 31.7955 11.9567 31.8631 11.9567 31.9314C11.9567 31.9997 11.9701 32.0673 11.9963 32.1304C12.0224 32.1934 12.0607 32.2508 12.109 32.299C12.1572 32.3473 12.2146 32.3856 12.2776 32.4118C12.3407 32.4379 12.4083 32.4513 12.4766 32.4513H26.5987C26.6669 32.4513 26.7345 32.4379 26.7976 32.4118C26.8607 32.3856 26.918 32.3473 26.9663 32.299C27.0146 32.2508 27.0529 32.1934 27.079 32.1304C27.1052 32.0673 27.1186 31.9997 27.1186 31.9314C27.1186 31.8631 27.1052 31.7955 27.079 31.7324C27.0529 31.6693 27.0146 31.612 26.9663 31.5637C26.918 31.5154 26.8607 31.4771 26.7976 31.451C26.7345 31.4249 26.6669 31.4114 26.5987 31.4114Z" fill="currentColor"/>
<path d="M35.2634 20.5808C35.0471 20.5806 34.8329 20.623 34.6331 20.7057C34.4332 20.7883 34.2516 20.9096 34.0987 21.0625C33.9457 21.2155 33.8244 21.3971 33.7418 21.5969C33.6591 21.7968 33.6167 22.011 33.6169 22.2273C33.6094 22.4455 33.6468 22.663 33.7269 22.8662C33.807 23.0693 33.928 23.2539 34.0824 23.4083C34.2368 23.5627 34.4214 23.6837 34.6245 23.7638C34.8277 23.8439 35.0452 23.8813 35.2634 23.8738C35.4821 23.8778 35.6995 23.8382 35.9027 23.7573C36.106 23.6764 36.2911 23.5557 36.4472 23.4025C36.6033 23.2492 36.7273 23.0664 36.8119 22.8646C36.8966 22.6629 36.9402 22.4463 36.9402 22.2276C36.9402 22.0088 36.8966 21.7922 36.8119 21.5905C36.7273 21.3888 36.6033 21.2059 36.4472 21.0527C36.2911 20.8994 36.106 20.7788 35.9027 20.6978C35.6995 20.6169 35.4821 20.5768 35.2634 20.5808ZM35.2634 22.7478C35.1606 22.7477 35.0602 22.7171 34.9747 22.6599C34.8893 22.6028 34.8228 22.5215 34.7835 22.4266C34.7442 22.3316 34.7339 22.2271 34.754 22.1263C34.7741 22.0255 34.8236 21.9329 34.8963 21.8602C34.969 21.7875 35.0616 21.738 35.1624 21.7179C35.2632 21.6978 35.3677 21.7081 35.4627 21.7474C35.5577 21.7866 35.6389 21.8532 35.6961 21.9386C35.7532 22.024 35.7838 22.1245 35.7839 22.2273C35.7749 22.3624 35.7172 22.4896 35.6215 22.5853C35.5257 22.6811 35.3985 22.7388 35.2634 22.7478Z" fill="currentColor"/>
<path d="M30.9321 20.5808C30.7158 20.5805 30.5016 20.6229 30.3017 20.7055C30.1018 20.7881 29.9202 20.9094 29.7672 21.0624C29.6143 21.2153 29.493 21.3969 29.4104 21.5968C29.3277 21.7967 29.2853 22.011 29.2856 22.2273C29.2781 22.4455 29.3156 22.663 29.3956 22.8662C29.4757 23.0693 29.5967 23.2539 29.7512 23.4083C29.9056 23.5627 30.0901 23.6837 30.2933 23.7638C30.4964 23.8439 30.7139 23.8813 30.9321 23.8738C31.3635 23.8659 31.7745 23.6889 32.0768 23.3811C32.3791 23.0732 32.5484 22.659 32.5484 22.2276C32.5484 21.7961 32.3791 21.3819 32.0768 21.074C31.7745 20.7662 31.3635 20.5887 30.9321 20.5808ZM30.9321 22.7478C30.8293 22.7477 30.7289 22.7171 30.6435 22.6599C30.5581 22.6028 30.4915 22.5215 30.4522 22.4266C30.4129 22.3316 30.4027 22.2271 30.4228 22.1263C30.4428 22.0255 30.4923 21.9329 30.565 21.8602C30.6377 21.7875 30.7303 21.738 30.8311 21.7179C30.9319 21.6978 31.0364 21.7081 31.1314 21.7474C31.2264 21.7866 31.3076 21.8532 31.3648 21.9386C31.422 22.024 31.4525 22.1245 31.4526 22.2273C31.4444 22.3626 31.3869 22.4903 31.291 22.5861C31.1951 22.682 31.0675 22.7395 30.9321 22.7478Z" fill="currentColor"/>
<path d="M26.5987 21.7073H12.4766C12.4083 21.7073 12.3407 21.7208 12.2776 21.7469C12.2146 21.773 12.1572 21.8113 12.109 21.8596C12.0607 21.9079 12.0224 21.9652 11.9963 22.0283C11.9701 22.0914 11.9567 22.159 11.9567 22.2273C11.9567 22.2956 11.9701 22.3632 11.9963 22.4263C12.0224 22.4893 12.0607 22.5467 12.109 22.5949C12.1572 22.6432 12.2146 22.6815 12.2776 22.7077C12.3407 22.7338 12.4083 22.7472 12.4766 22.7472H26.5987C26.7336 22.7383 26.8607 22.6807 26.9564 22.5852C27.0521 22.4897 27.1099 22.3627 27.1192 22.2278C27.1221 22.1587 27.1106 22.0897 27.0855 22.0253C27.0603 21.9608 27.0221 21.9023 26.9732 21.8533C26.9242 21.8044 26.8657 21.7662 26.8012 21.741C26.7368 21.7159 26.6678 21.7044 26.5987 21.7073Z" fill="currentColor"/>
<path d="M6.75771 1.69141C6.91153 1.69141 7.06189 1.73702 7.18978 1.82247C7.31767 1.90793 7.41735 2.02939 7.47622 2.1715C7.53508 2.31361 7.55048 2.46998 7.52047 2.62084C7.49046 2.7717 7.4164 2.91027 7.30763 3.01903C7.19887 3.1278 7.06029 3.20187 6.90943 3.23188C6.75857 3.26188 6.6022 3.24648 6.46009 3.18762C6.31799 3.12876 6.19653 3.02908 6.11107 2.90118C6.02562 2.77329 5.98 2.62293 5.98 2.46911C5.98 2.26285 6.06194 2.06504 6.20779 1.91919C6.35364 1.77334 6.55145 1.69141 6.75771 1.69141Z" fill="currentColor"/>
<path d="M1.38654 13.0431C1.54036 13.0431 1.69072 13.0887 1.81861 13.1742C1.9465 13.2597 2.04618 13.3811 2.10505 13.5232C2.16391 13.6653 2.17931 13.8217 2.1493 13.9726C2.11929 14.1234 2.04523 14.262 1.93646 14.3708C1.8277 14.4795 1.68912 14.5536 1.53826 14.5836C1.3874 14.6136 1.23103 14.5982 1.08892 14.5393C0.946818 14.4805 0.825357 14.3808 0.739901 14.2529C0.654446 14.125 0.608834 13.9747 0.608834 13.8208C0.608834 13.6146 0.690771 13.4168 0.836619 13.2709C0.982467 13.1251 1.18028 13.0431 1.38654 13.0431Z" fill="currentColor"/>
<path d="M45.7474 33.0579C45.9012 33.0579 46.0516 33.1036 46.1795 33.189C46.3074 33.2745 46.4071 33.3959 46.4659 33.538C46.5248 33.6801 46.5402 33.8365 46.5102 33.9874C46.4802 34.1382 46.4061 34.2768 46.2973 34.3856C46.1886 34.4943 46.05 34.5684 45.8992 34.5984C45.7483 34.6284 45.5919 34.613 45.4498 34.5542C45.3077 34.4953 45.1862 34.3956 45.1008 34.2677C45.0153 34.1398 44.9697 33.9895 44.9697 33.8357C44.9697 33.6294 45.0517 33.4316 45.1975 33.2857C45.3434 33.1399 45.5412 33.0579 45.7474 33.0579Z" fill="currentColor"/>
<path d="M37.0832 1.69141C37.237 1.69141 37.3874 1.73702 37.5153 1.82247C37.6432 1.90793 37.7429 2.02939 37.8017 2.1715C37.8606 2.31361 37.876 2.46998 37.846 2.62084C37.816 2.7717 37.7419 2.91027 37.6332 3.01903C37.5244 3.1278 37.3858 3.20187 37.235 3.23188C37.0841 3.26188 36.9277 3.24648 36.7856 3.18762C36.6435 3.12876 36.522 3.02908 36.4366 2.90118C36.3511 2.77329 36.3055 2.62293 36.3055 2.46911C36.3055 2.26285 36.3875 2.06504 36.5333 1.91919C36.6792 1.77334 36.877 1.69141 37.0832 1.69141Z" fill="currentColor"/>
<path d="M43.581 45.534C43.7348 45.534 43.8851 45.5796 44.013 45.6651C44.1409 45.7505 44.2406 45.872 44.2995 46.0141C44.3583 46.1562 44.3737 46.3126 44.3437 46.4634C44.3137 46.6143 44.2397 46.7529 44.1309 46.8616C44.0221 46.9704 43.8835 47.0445 43.7327 47.0745C43.5818 47.1045 43.4255 47.0891 43.2834 47.0302C43.1412 46.9714 43.0198 46.8717 42.9343 46.7438C42.8489 46.6159 42.8033 46.4655 42.8033 46.3117C42.8033 46.1055 42.8852 45.9076 43.031 45.7618C43.1769 45.6159 43.3747 45.534 43.581 45.534Z" fill="currentColor"/>
<path d="M4.0724 32.018C4.22622 32.018 4.37658 32.0637 4.50447 32.1491C4.63237 32.2346 4.73205 32.356 4.79091 32.4981C4.84977 32.6402 4.86517 32.7966 4.83517 32.9475C4.80516 33.0983 4.73109 33.2369 4.62232 33.3457C4.51356 33.4544 4.37499 33.5285 4.22413 33.5585C4.07327 33.5885 3.91689 33.5731 3.77479 33.5143C3.63268 33.4554 3.51122 33.3557 3.42576 33.2278C3.34031 33.0999 3.2947 32.9496 3.2947 32.7957C3.2947 32.5895 3.37663 32.3917 3.52248 32.2458C3.66833 32.1 3.86614 32.018 4.0724 32.018Z" fill="currentColor"/>
<path d="M44.9669 9.23127C45.4981 9.23083 46.0171 9.07293 46.4585 8.77754C46.8999 8.48214 47.2438 8.06251 47.4468 7.5717C47.6497 7.08088 47.7026 6.54092 47.5987 6.02006C47.4948 5.4992 47.2388 5.02083 46.8631 4.64543C46.4874 4.27002 46.0088 4.01444 45.4879 3.91099C44.967 3.80753 44.427 3.86085 43.9364 4.0642C43.4457 4.26755 43.0264 4.61181 42.7314 5.05345C42.4363 5.49509 42.2789 6.01428 42.2789 6.5454C42.2822 7.2567 42.5663 7.93791 43.0692 8.44088C43.5722 8.94385 44.2534 9.22791 44.9647 9.23127M44.9647 4.89833C45.2904 4.89833 45.6087 4.9949 45.8795 5.17582C46.1503 5.35674 46.3613 5.61389 46.4859 5.91475C46.6105 6.21561 46.6431 6.54667 46.5796 6.86607C46.5161 7.18546 46.3593 7.47884 46.129 7.70911C45.8987 7.93938 45.6053 8.09619 45.2859 8.15972C44.9666 8.22326 44.6355 8.19065 44.3346 8.06603C44.0338 7.94141 43.7766 7.73037 43.5957 7.4596C43.4148 7.18883 43.3182 6.8705 43.3182 6.54485C43.3179 6.32854 43.3603 6.1143 43.443 5.91441C43.5256 5.71451 43.6469 5.53288 43.7998 5.37993C43.9528 5.22698 44.1344 5.10571 44.3343 5.02307C44.5342 4.94043 44.7484 4.89804 44.9647 4.89833Z" fill="currentColor"/>
<path d="M3.55245 37.3898C2.84984 37.3898 2.16301 37.5981 1.57882 37.9885C0.994618 38.3788 0.539292 38.9336 0.270416 39.5828C0.0015392 40.2319 -0.0688111 40.9462 0.0682609 41.6353C0.205333 42.3244 0.543671 42.9574 1.04049 43.4542C1.53731 43.951 2.17029 44.2893 2.8594 44.4264C3.54851 44.5635 4.26279 44.4931 4.91191 44.2243C5.56104 43.9554 6.11586 43.5 6.5062 42.9159C6.89655 42.3317 7.1049 41.6448 7.1049 40.9422C7.10095 40.0013 6.72541 39.1 6.06005 38.4346C5.39469 37.7693 4.4934 37.3937 3.55245 37.3898ZM3.55245 43.3681C3.0725 43.3683 2.60326 43.2262 2.20409 42.9597C1.80492 42.6932 1.49374 42.3143 1.30992 41.871C1.1261 41.4276 1.07789 40.9397 1.17139 40.469C1.26488 39.9982 1.49589 39.5658 1.83519 39.2263C2.17449 38.8868 2.60684 38.6556 3.07756 38.5619C3.54827 38.4682 4.0362 38.5162 4.47964 38.6998C4.92308 38.8834 5.30211 39.1944 5.56878 39.5935C5.83545 39.9925 5.97778 40.4617 5.97778 40.9417C5.96432 41.5808 5.70451 42.19 5.25259 42.6421C4.80066 43.0943 4.19156 43.3544 3.55245 43.3681Z" fill="currentColor"/>
</svg>
