<svg width="48" height="48" viewBox="0 0 48 48" fill="none" xmlns="http://www.w3.org/2000/svg">
<path d="M41.3689 31.3908H33.0671C32.91 31.3908 32.7593 31.3283 32.6482 31.2172C32.537 31.106 32.4746 30.9553 32.4746 30.7981C32.4746 30.6409 32.537 30.4901 32.6482 30.379C32.7593 30.2678 32.91 30.2054 33.0671 30.2054H41.3689C42.1532 30.2048 42.9282 30.0347 43.6407 29.7068C44.3532 29.3788 44.9865 28.9008 45.4973 28.3054C46.008 27.7099 46.3842 27.0112 46.5999 26.2569C46.8157 25.5026 46.866 24.7105 46.7474 23.935C46.6289 23.1594 46.3442 22.4186 45.9129 21.7633C45.4816 21.108 44.9139 20.5536 44.2486 20.1381C43.5833 19.7226 42.8361 19.4557 42.0582 19.3558C41.2802 19.2559 40.4899 19.3253 39.7412 19.5592C39.641 19.5905 39.5342 19.5946 39.4318 19.5711C39.3294 19.5475 39.2351 19.4971 39.1586 19.4251C39.0821 19.3531 39.0261 19.262 38.9963 19.1612C38.9666 19.0604 38.9642 18.9536 38.9893 18.8515C39.1704 18.129 39.2637 17.3874 39.2672 16.6425C39.2709 14.7858 38.7133 12.9713 37.6677 11.4372C36.622 9.90312 35.1372 8.72104 33.408 8.04612C31.6788 7.3712 29.7861 7.23497 27.9781 7.65528C26.1701 8.07559 24.5314 9.03281 23.277 10.4013C23.2244 10.4591 23.1609 10.5059 23.0902 10.5391C23.0195 10.5722 22.9429 10.591 22.8649 10.5945C22.7868 10.5979 22.7089 10.5858 22.6356 10.559C22.5622 10.5322 22.4949 10.4912 22.4374 10.4382C22.38 10.3853 22.3336 10.3216 22.3008 10.2506C22.2681 10.1797 22.2497 10.103 22.2468 10.0249C22.2438 9.94684 22.2563 9.86895 22.2835 9.79573C22.3107 9.7225 22.3521 9.65538 22.4054 9.59823C23.36 8.55805 24.5161 7.723 25.8035 7.14385C27.3873 6.43382 29.1237 6.13173 30.8542 6.26512C32.5847 6.39851 34.2542 6.96314 35.7107 7.90752C37.1671 8.85189 38.364 10.146 39.1922 11.6717C40.0204 13.1975 40.4536 14.9063 40.4523 16.6425C40.4514 17.1668 40.4096 17.6901 40.3272 18.2078C40.672 18.1533 41.0205 18.126 41.3695 18.1261C43.128 18.1261 44.8145 18.8248 46.058 20.0687C47.3015 21.3126 48 22.9996 48 24.7587C48 26.5178 47.3015 28.2048 46.058 29.4487C44.8145 30.6926 43.128 31.3914 41.3695 31.3914L41.3689 31.3908Z" fill="currentColor"/>
<path d="M15.7076 31.3908C13.3233 31.3934 10.9699 30.8524 8.82592 29.809C6.68197 28.7656 4.80393 27.2471 3.33445 25.369C1.86496 23.4908 0.84269 21.3024 0.34527 18.9699C-0.15215 16.6374 -0.111632 14.2222 0.463747 11.9077C1.03913 9.59318 2.13423 7.44029 3.66589 5.61253C5.19754 3.78476 7.12546 2.3302 9.3032 1.35932C11.4809 0.388446 13.8512 -0.0732043 16.234 0.00942323C18.6168 0.0920508 20.9495 0.716793 23.0548 1.83619C25.239 3.00493 27.119 4.66949 28.5439 6.69635C28.6342 6.82502 28.6698 6.98433 28.6427 7.13922C28.6157 7.29411 28.5282 7.43191 28.3996 7.5223C28.271 7.61269 28.1117 7.64825 27.9569 7.62119C27.802 7.59412 27.6643 7.50664 27.5739 7.37798C26.2559 5.50382 24.5172 3.96471 22.4972 2.8841C20.5511 1.85099 18.3952 1.27496 16.1933 1.19977C13.9914 1.12457 11.8013 1.55218 9.78925 2.45011C7.77721 3.34805 5.99611 4.69271 4.58117 6.38204C3.16622 8.07137 2.15462 10.0609 1.62315 12.1998C1.09167 14.3386 1.0543 16.5704 1.51387 18.7258C1.97343 20.8812 2.91786 22.9036 4.27545 24.6394C5.63304 26.3751 7.36811 27.7787 9.34897 28.7436C11.3298 29.7084 13.5044 30.2091 15.7076 30.2077C15.8647 30.2077 16.0154 30.2702 16.1265 30.3813C16.2377 30.4925 16.3001 30.6432 16.3001 30.8004C16.3001 30.9576 16.2377 31.1084 16.1265 31.2196C16.0154 31.3307 15.8647 31.3931 15.7076 31.3931V31.3908Z" fill="currentColor"/>
<path d="M19.3193 48.0001H18.1339V21.1453H19.3193V48.0001Z" fill="currentColor"/>
<path d="M30.6406 48.0001H29.4552V21.1453H30.6406V48.0001Z" fill="currentColor"/>
<path d="M30.6401 27.6158H21.9076V26.4304H30.6401V27.6158Z" fill="currentColor"/>
<path d="M30.6401 35.1656H21.9076V33.9802H30.6401V35.1656Z" fill="currentColor"/>
<path d="M30.6401 42.7154H21.9076V41.53H30.6401V42.7154Z" fill="currentColor"/>
</svg>
