<svg width="48" height="48" viewBox="0 0 48 48" fill="none" xmlns="http://www.w3.org/2000/svg">
<path d="M26.2647 29.8766H22.4914C22.2126 29.8813 21.9358 29.8304 21.6769 29.727C21.4181 29.6236 21.1824 29.4697 20.9837 29.2742C20.7849 29.0788 20.6271 28.8457 20.5193 28.5886C20.4116 28.3315 20.3561 28.0556 20.3561 27.7768C20.3561 27.4981 20.4116 27.2221 20.5193 26.9651C20.6271 26.708 20.7849 26.4749 20.9837 26.2795C21.1824 26.084 21.4181 25.9301 21.6769 25.8267C21.9358 25.7233 22.2126 25.6724 22.4914 25.6771H26.2647C26.5434 25.6724 26.8202 25.7233 27.0791 25.8267C27.3379 25.9301 27.5736 26.084 27.7723 26.2795C27.9711 26.4749 28.1289 26.708 28.2367 26.9651C28.3444 27.2221 28.3999 27.4981 28.3999 27.7768C28.3999 28.0556 28.3444 28.3315 28.2367 28.5886C28.1289 28.8457 27.9711 29.0788 27.7723 29.2742C27.5736 29.4697 27.3379 29.6236 27.0791 29.727C26.8202 29.8304 26.5434 29.8813 26.2647 29.8766ZM22.4914 26.8562C22.3685 26.8531 22.2463 26.8746 22.1318 26.9195C22.0174 26.9644 21.9131 27.0317 21.8251 27.1175C21.7372 27.2033 21.6672 27.3058 21.6195 27.419C21.5717 27.5323 21.5471 27.6539 21.5471 27.7768C21.5471 27.8997 21.5717 28.0214 21.6195 28.1346C21.6672 28.2479 21.7372 28.3504 21.8251 28.4362C21.9131 28.522 22.0174 28.5893 22.1318 28.6342C22.2463 28.6791 22.3685 28.7006 22.4914 28.6975H26.2647C26.3875 28.7006 26.5098 28.6791 26.6242 28.6342C26.7386 28.5893 26.8429 28.522 26.9309 28.4362C27.0189 28.3504 27.0888 28.2479 27.1365 28.1346C27.1843 28.0214 27.2089 27.8997 27.2089 27.7768C27.2089 27.6539 27.1843 27.5323 27.1365 27.419C27.0888 27.3058 27.0189 27.2033 26.9309 27.1175C26.8429 27.0317 26.7386 26.9644 26.6242 26.9195C26.5098 26.8746 26.3875 26.8531 26.2647 26.8562H22.4914Z" fill="currentColor"/>
<path d="M20.2232 28.3664H16.4499C15.0917 28.3647 13.7897 27.8244 12.8294 26.864C11.869 25.9037 11.3287 24.6016 11.327 23.2435V19.4702C11.327 19.3138 11.3891 19.1639 11.4997 19.0533C11.6103 18.9427 11.7602 18.8806 11.9166 18.8806C12.073 18.8806 12.2229 18.9427 12.3335 19.0533C12.4441 19.1639 12.5062 19.3138 12.5062 19.4702V23.2435C12.5073 24.2885 12.9229 25.2903 13.6618 26.0293C14.4007 26.7682 15.4026 27.1838 16.4475 27.1848H20.2208C20.3772 27.1848 20.5272 27.247 20.6377 27.3575C20.7483 27.4681 20.8104 27.6181 20.8104 27.7744C20.8104 27.9308 20.7483 28.0808 20.6377 28.1913C20.5272 28.3019 20.3772 28.364 20.2208 28.364L20.2232 28.3664Z" fill="currentColor"/>
<path d="M11.9143 24.591C10.759 24.6169 9.63699 24.2035 8.77474 23.4342C8.38555 23.0731 8.07563 22.6351 7.86463 22.148C7.65363 21.6608 7.54615 21.1351 7.54901 20.6042V18.3391C7.54615 17.8082 7.65363 17.2825 7.86463 16.7953C8.07563 16.3082 8.38555 15.8702 8.77474 15.5091C9.63663 14.739 10.7587 14.3247 11.9143 14.35C12.0706 14.35 12.2206 14.4121 12.3312 14.5227C12.4417 14.6332 12.5038 14.7832 12.5038 14.9395C12.5038 15.0959 12.4417 15.2459 12.3312 15.3564C12.2206 15.467 12.0706 15.5291 11.9143 15.5291C10.0683 15.5291 8.73052 16.7083 8.73052 18.3379V20.6031C8.73052 22.2303 10.0706 23.4118 11.9143 23.4118C12.0706 23.4118 12.2206 23.4739 12.3312 23.5845C12.4417 23.6951 12.5038 23.845 12.5038 24.0014C12.5038 24.1578 12.4417 24.3077 12.3312 24.4183C12.2206 24.5289 12.0706 24.591 11.9143 24.591Z" fill="currentColor"/>
<path d="M36.8364 24.5908C36.68 24.5908 36.5301 24.5287 36.4195 24.4181C36.309 24.3075 36.2468 24.1576 36.2468 24.0012C36.2468 23.8448 36.309 23.6949 36.4195 23.5843C36.5301 23.4738 36.68 23.4116 36.8364 23.4116C38.6824 23.4116 40.0201 22.2325 40.0201 20.6029V18.3377C40.0201 16.7105 38.68 15.5289 36.8364 15.5289C36.68 15.5289 36.5301 15.4668 36.4195 15.3563C36.309 15.2457 36.2468 15.0957 36.2468 14.9394C36.2468 14.783 36.309 14.633 36.4195 14.5225C36.5301 14.4119 36.68 14.3498 36.8364 14.3498C37.9916 14.3239 39.1137 14.7373 39.9759 15.5065C40.3653 15.8675 40.6753 16.3055 40.8863 16.7927C41.0973 17.2798 41.2047 17.8056 41.2017 18.3365V20.6017C41.2047 21.1326 41.0973 21.6584 40.8863 22.1456C40.6753 22.6328 40.3653 23.0707 39.9759 23.4317C39.114 24.2018 37.992 24.6161 36.8364 24.5908Z" fill="currentColor"/>
<path d="M47.9983 48.0001H46.8192V47.305C46.8193 45.4188 46.285 43.5711 45.2781 41.9761C44.2713 40.3811 42.8331 39.1039 41.1303 38.2927L33.1344 35.2328C32.0263 35.9947 30.8492 36.6512 29.6187 37.1937C28.0812 37.8497 26.4264 38.1865 24.7547 38.1836C23.0904 38.2195 21.4312 37.9866 19.8412 37.4938C18.3144 36.9722 16.8812 36.209 15.5962 35.2333L6.86389 38.2992C5.16281 39.1105 3.72618 40.3869 2.72018 41.9806C1.71417 43.5744 1.1799 45.4203 1.17916 47.305V48.0001H2.59373e-08V47.305C-0.000144018 45.1917 0.59968 43.1218 1.72971 41.336C2.85973 39.5502 4.47352 38.1219 6.38338 37.2173C6.4026 37.2084 6.42228 37.2005 6.44235 37.1937L15.4989 34.017C15.5903 33.985 15.6882 33.976 15.784 33.9908C15.8797 34.0056 15.9703 34.0438 16.0478 34.1019C18.5014 36.0953 21.597 37.127 24.7559 37.0044C28.0782 37.0044 30.4259 35.6225 32.7353 34.0831C32.8137 34.0311 32.9034 33.9986 32.997 33.9883C33.0905 33.978 33.1851 33.9903 33.273 34.0241L41.5743 37.2008C41.5884 37.2063 41.6024 37.2122 41.6161 37.2185C43.526 38.1231 45.1398 39.5514 46.2698 41.3372C47.3998 43.123 47.9996 45.1929 47.9995 47.3062L47.9983 48.0001Z" fill="currentColor"/>
<path d="M36.8364 24.5901C36.68 24.5901 36.53 24.528 36.4195 24.4174C36.3089 24.3069 36.2468 24.1569 36.2468 24.0005V12.6735C36.2409 11.1345 35.913 9.61371 35.2843 8.20893C34.6556 6.80416 33.7399 5.54646 32.5961 4.51668C31.4571 3.46609 30.1323 2.63694 28.6895 2.07169C27.1962 1.48157 25.6046 1.17931 23.9989 1.18084C22.4821 1.15342 20.9753 1.43195 19.5686 1.99981C18.1618 2.56766 16.8839 3.41319 15.8112 4.48589C14.7385 5.5586 13.893 6.83648 13.3251 8.24322C12.7573 9.64997 12.4787 11.1567 12.5062 12.6735V19.4696C12.5062 19.626 12.444 19.776 12.3335 19.8865C12.2229 19.9971 12.0729 20.0592 11.9166 20.0592C11.7602 20.0592 11.6102 19.9971 11.4997 19.8865C11.3891 19.776 11.327 19.626 11.327 19.4696V12.6735C11.2996 11.0019 11.6086 9.34178 12.2357 7.79197C12.8628 6.24216 13.7952 4.83429 14.9774 3.6521C16.1596 2.4699 17.5675 1.53752 19.1173 0.910409C20.6671 0.283297 22.3272 -0.0257418 23.9989 0.00167707C25.7526 0.000178634 27.4908 0.330452 29.1217 0.975075C30.7004 1.59382 32.15 2.50134 33.3962 3.65118C34.6322 4.78371 35.6306 6.15072 36.3335 7.6727C37.056 9.24068 37.4288 10.9471 37.4259 12.6735V24.0005C37.4259 24.078 37.4107 24.1546 37.3811 24.2262C37.3514 24.2977 37.308 24.3627 37.2533 24.4174C37.1985 24.4722 37.1335 24.5156 37.062 24.5452C36.9905 24.5749 36.9138 24.5901 36.8364 24.5901Z" fill="currentColor"/>
<path d="M24.3768 33.6525C22.9002 33.6857 21.4375 33.3605 20.114 32.7048C18.7906 32.0491 17.6458 31.0824 16.7777 29.8874C15.9562 28.7692 15.3361 27.5162 14.9453 26.1848C14.5505 24.8636 14.3494 23.4921 14.348 22.1132V15.8601H15.5272V22.1132C15.4977 24.6418 16.266 27.1153 17.7228 29.1823C18.5041 30.2056 19.511 31.0349 20.6651 31.6057C21.8191 32.1765 23.0893 32.4734 24.3768 32.4734C25.6643 32.4734 26.9345 32.1765 28.0885 31.6057C29.2426 31.0349 30.2494 30.2056 31.0308 29.1823C32.4876 27.1153 33.2558 24.6418 33.2264 22.1132V15.8601H34.4055V22.1132C34.4042 23.4921 34.203 24.8636 33.8083 26.1848C33.4174 27.5162 32.7973 28.7692 31.9759 29.8874C31.1078 31.0824 29.963 32.0491 28.6395 32.7048C27.3161 33.3605 25.8534 33.6857 24.3768 33.6525Z" fill="currentColor"/>
<path d="M34.4061 14.0185H33.8166C32.8948 14.044 31.9929 13.748 31.2654 13.1813C30.6885 12.7036 30.2423 12.0873 29.9684 11.3902C29.8254 11.0432 29.7123 10.6846 29.6305 10.3183C28.5536 11.3344 27.267 12.102 25.8614 12.567C23.2082 13.5298 19.5322 14.0185 14.9376 14.0185H14.348V12.8394H14.9376C19.3948 12.8394 22.9347 12.3748 25.4593 11.4586C27.3813 10.7611 28.7196 9.81658 29.5498 8.56962C29.62 8.46433 29.7222 8.38443 29.8413 8.34172C29.9604 8.29901 30.0901 8.29577 30.2112 8.33246C30.3323 8.36915 30.4384 8.44382 30.5138 8.54545C30.5892 8.64709 30.6299 8.77028 30.6299 8.89683C30.654 9.60603 30.8024 10.3055 31.0685 10.9633C31.2682 11.4708 31.5926 11.9198 32.0118 12.2687C32.5297 12.6592 33.166 12.8601 33.8142 12.8376H34.4038L34.4061 14.0185Z" fill="currentColor"/>
</svg>
