<svg width="48" height="48" viewBox="0 0 48 48" fill="none" xmlns="http://www.w3.org/2000/svg">
<path d="M26.2643 27.6163H22.489C21.931 27.6163 21.3957 27.3946 21.0011 26.9999C20.6065 26.6053 20.3848 26.0701 20.3848 25.512C20.3848 24.9539 20.6065 24.4187 21.0011 24.024C21.3957 23.6294 21.931 23.4077 22.489 23.4077H26.2643C26.8224 23.4077 27.3576 23.6294 27.7522 24.024C28.1469 24.4187 28.3686 24.9539 28.3686 25.512C28.3686 26.0701 28.1469 26.6053 27.7522 26.9999C27.3576 27.3946 26.8224 27.6163 26.2643 27.6163ZM22.489 24.5932C22.2454 24.5932 22.0117 24.69 21.8394 24.8623C21.6671 25.0346 21.5703 25.2683 21.5703 25.512C21.5703 25.7557 21.6671 25.9894 21.8394 26.1617C22.0117 26.334 22.2454 26.4308 22.489 26.4308H26.2643C26.508 26.4308 26.7416 26.334 26.9139 26.1617C27.0862 25.9894 27.1831 25.7557 27.1831 25.512C27.1831 25.2683 27.0862 25.0346 26.9139 24.8623C26.7416 24.69 26.508 24.5932 26.2643 24.5932H22.489Z" fill="currentColor"/>
<path d="M20.2241 26.1036H16.4489C15.0906 26.1021 13.7884 25.5618 12.828 24.6014C11.8675 23.6409 11.3273 22.3387 11.3257 20.9805V18.7156C11.3257 18.5583 11.3881 18.4076 11.4993 18.2964C11.6105 18.1853 11.7612 18.1228 11.9184 18.1228C12.0756 18.1228 12.2264 18.1853 12.3376 18.2964C12.4487 18.4076 12.5112 18.5583 12.5112 18.7156V20.9805C12.5123 22.0245 12.9275 23.0254 13.6657 23.7636C14.4039 24.5018 15.4049 24.917 16.4489 24.9181H20.2241C20.3813 24.9181 20.5321 24.9806 20.6432 25.0917C20.7544 25.2029 20.8169 25.3537 20.8169 25.5109C20.8169 25.6681 20.7544 25.8189 20.6432 25.93C20.5321 26.0412 20.3813 26.1036 20.2241 26.1036Z" fill="currentColor"/>
<path d="M11.9185 23.8382C10.7625 23.8644 9.63972 23.4509 8.77688 22.6812C8.38701 22.3198 8.07658 21.8813 7.86534 21.3936C7.65411 20.9058 7.54667 20.3794 7.54987 19.8478V17.5829C7.54667 17.0513 7.65411 16.5249 7.86534 16.0371C8.07658 15.5494 8.38701 15.1109 8.77688 14.7495C9.63972 13.9798 10.7625 13.5663 11.9185 13.5925C12.0757 13.5925 12.2265 13.6549 12.3376 13.7661C12.4488 13.8773 12.5112 14.028 12.5112 14.1852C12.5112 14.3424 12.4488 14.4932 12.3376 14.6044C12.2265 14.7155 12.0757 14.778 11.9185 14.778C10.0744 14.778 8.73598 15.9576 8.73598 17.5829V19.8478C8.73598 21.4731 10.0744 22.6527 11.9185 22.6527C12.0757 22.6527 12.2265 22.7152 12.3376 22.8263C12.4488 22.9375 12.5112 23.0883 12.5112 23.2455C12.5112 23.4027 12.4488 23.5535 12.3376 23.6646C12.2265 23.7758 12.0757 23.8382 11.9185 23.8382Z" fill="currentColor"/>
<path d="M36.8348 23.8382C36.6776 23.8382 36.5269 23.7758 36.4157 23.6646C36.3045 23.5535 36.2421 23.4027 36.2421 23.2455C36.2421 23.0883 36.3045 22.9375 36.4157 22.8263C36.5269 22.7152 36.6776 22.6527 36.8348 22.6527C38.6789 22.6527 40.0173 21.4731 40.0173 19.8478V17.5829C40.0173 15.9576 38.6789 14.778 36.8348 14.778C36.6776 14.778 36.5269 14.7155 36.4157 14.6044C36.3045 14.4932 36.2421 14.3424 36.2421 14.1852C36.2421 14.028 36.3045 13.8773 36.4157 13.7661C36.5269 13.6549 36.6776 13.5925 36.8348 13.5925C37.9908 13.5663 39.1136 13.9798 39.9764 14.7495C40.3663 15.1109 40.6767 15.5494 40.8879 16.0371C41.0992 16.5249 41.2066 17.0513 41.2034 17.5829V19.8478C41.2066 20.3794 41.0992 20.9058 40.8879 21.3936C40.6767 21.8813 40.3663 22.3198 39.9764 22.6812C39.1136 23.4509 37.9908 23.8644 36.8348 23.8382Z" fill="currentColor"/>
<path d="M36.8349 23.8387C36.6777 23.8387 36.5269 23.7762 36.4158 23.6651C36.3046 23.5539 36.2422 23.4031 36.2422 23.2459V12.6753C36.2364 11.1369 35.9087 9.61671 35.2801 8.21251C34.6516 6.80831 33.7361 5.5512 32.5926 4.52202C31.454 3.47189 30.1297 2.6431 28.6875 2.0781C27.1949 1.48878 25.6042 1.1871 23.9995 1.18897C22.4834 1.16149 20.9773 1.4398 19.5712 2.00729C18.1651 2.57479 16.8878 3.41982 15.8155 4.49193C14.7432 5.56404 13.898 6.84123 13.3303 8.24726C12.7626 9.65328 12.484 11.1593 12.5113 12.6753V18.7155C12.5113 18.8727 12.4488 19.0235 12.3377 19.1346C12.2265 19.2458 12.0757 19.3083 11.9185 19.3083C11.7613 19.3083 11.6106 19.2458 11.4994 19.1346C11.3882 19.0235 11.3258 18.8727 11.3258 18.7155V12.6753C11.2983 11.0034 11.6073 9.34308 12.2345 7.79302C12.8617 6.24296 13.7942 4.83486 14.9766 3.65248C16.159 2.4701 17.5671 1.53759 19.1171 0.910411C20.6672 0.283232 22.3275 -0.0258029 23.9995 0.00168524C25.7533 0.000149937 27.4915 0.330388 29.1226 0.974986C30.7015 1.59376 32.1512 2.50135 33.3975 3.65127C34.6338 4.78405 35.6324 6.15138 36.3352 7.6737C37.058 9.24191 37.431 10.9486 37.4283 12.6753V23.2459C37.4283 23.3238 37.4129 23.4009 37.3831 23.4729C37.3533 23.5448 37.3096 23.6102 37.2545 23.6653C37.1994 23.7203 37.1339 23.764 37.062 23.7937C36.99 23.8235 36.9128 23.8388 36.8349 23.8387Z" fill="currentColor"/>
<path d="M24.3764 31.3885C22.8994 31.422 21.4363 31.0969 20.1125 30.4411C18.7887 29.7852 17.6437 28.8182 16.7755 27.6228C15.9541 26.5044 15.3341 25.2513 14.9433 23.9199C14.5485 22.5984 14.3472 21.2268 14.3458 19.8476V15.1021H15.5313V19.8476C15.5013 22.375 16.2687 24.8476 17.7245 26.9139C18.5056 27.9364 19.5119 28.7651 20.6654 29.3355C21.8188 29.9059 23.0882 30.2026 24.3749 30.2026C25.6617 30.2026 26.9311 29.9059 28.0845 29.3355C29.2379 28.7651 30.2443 27.9364 31.0253 26.9139C32.4811 24.8476 33.2485 22.375 33.2185 19.8476V15.1021H34.404V19.8476C34.4026 21.2266 34.2013 22.598 33.8065 23.9193C33.4158 25.2507 32.7957 26.5038 31.9743 27.6222C31.1065 28.8173 29.962 29.7842 28.6387 30.4401C27.3155 31.0961 25.8529 31.4215 24.3764 31.3885Z" fill="currentColor"/>
<path d="M34.4076 13.2681H33.8148C32.8924 13.2937 31.9898 12.9976 31.2618 12.4305C30.6847 11.9525 30.2383 11.336 29.9643 10.6386C29.8219 10.2932 29.7093 9.93622 29.6276 9.57164C28.5511 10.5856 27.2658 11.3518 25.8618 11.8164C23.2081 12.7796 19.533 13.2675 14.9386 13.2675H14.3458V12.082H14.9386C19.3949 12.082 22.9342 11.6178 25.4576 10.702C27.3787 10.0049 28.7177 9.06069 29.5476 7.81591C29.6182 7.71006 29.7209 7.62972 29.8407 7.58678C29.9605 7.54384 30.0909 7.54058 30.2126 7.57746C30.3344 7.61435 30.441 7.68944 30.5168 7.79162C30.5926 7.8938 30.6335 8.01766 30.6335 8.14489C30.6575 8.85361 30.8057 9.55262 31.0716 10.21C31.2715 10.7173 31.5963 11.1659 32.0158 11.5141C32.533 11.9043 33.1685 12.105 33.816 12.0825H34.4087L34.4076 13.2681Z" fill="currentColor"/>
<path d="M17.9586 32.899C17.8014 32.899 17.6506 32.8365 17.5395 32.7254C17.4283 32.6142 17.3658 32.4634 17.3658 32.3062V28.531C17.3658 28.3738 17.4283 28.223 17.5395 28.1118C17.6506 28.0007 17.8014 27.9382 17.9586 27.9382C18.1158 27.9382 18.2666 28.0007 18.3777 28.1118C18.4889 28.223 18.5514 28.3738 18.5514 28.531V32.3062C18.5514 32.4634 18.4889 32.6142 18.3777 32.7254C18.2666 32.8365 18.1158 32.899 17.9586 32.899Z" fill="currentColor"/>
<path d="M30.0389 32.9012C29.8817 32.9012 29.7309 32.8387 29.6198 32.7276C29.5086 32.6164 29.4462 32.4656 29.4462 32.3084V29.2854C29.4462 29.1282 29.5086 28.9774 29.6198 28.8662C29.7309 28.7551 29.8817 28.6926 30.0389 28.6926C30.1961 28.6926 30.3469 28.7551 30.4581 28.8662C30.5692 28.9774 30.6317 29.1282 30.6317 29.2854V32.3084C30.6317 32.4656 30.5692 32.6164 30.4581 32.7276C30.3469 32.8387 30.1961 32.9012 30.0389 32.9012Z" fill="currentColor"/>
<path d="M47.4066 47.9999C47.2494 47.9999 47.0986 47.9375 46.9874 47.8263C46.8763 47.7151 46.8138 47.5644 46.8138 47.4072C46.7598 46.1721 46.5122 44.9532 46.08 43.7949C45.6825 42.694 45.1081 41.6653 44.3794 40.7494C43.4915 39.6482 42.3754 38.7528 41.108 38.1246L29.7899 32.8426C29.7182 32.8105 29.6536 32.7644 29.5999 32.707C29.5461 32.6496 29.5043 32.5821 29.4769 32.5085C29.4495 32.4348 29.437 32.3564 29.4402 32.2779C29.4433 32.1993 29.4621 32.1222 29.4954 32.051C29.5286 31.9797 29.5757 31.9158 29.6339 31.863C29.6921 31.8101 29.7602 31.7694 29.8343 31.7431C29.9083 31.7168 29.9869 31.7055 30.0654 31.7099C30.1439 31.7143 30.2207 31.7342 30.2914 31.7685L41.6172 37.0535L41.6314 37.0606C43.0629 37.7693 44.3223 38.7822 45.3213 40.0286C46.1315 41.0514 46.7691 42.2 47.2086 43.4286C47.6826 44.704 47.9495 46.0469 47.9993 47.4066C47.9994 47.4845 47.9841 47.5616 47.9544 47.6336C47.9246 47.7056 47.881 47.771 47.8259 47.8261C47.7709 47.8812 47.7055 47.9249 47.6336 47.9547C47.5616 47.9846 47.4845 47.9999 47.4066 47.9999Z" fill="currentColor"/>
<path d="M0.592754 47.9992C0.435546 47.9992 0.284776 47.9368 0.173613 47.8256C0.0624502 47.7145 0 47.5637 0 47.4065C0.0498133 46.0468 0.316762 44.7039 0.790733 43.4285C1.23028 42.1999 1.86781 41.0514 2.67806 40.0285C3.67707 38.7821 4.93642 37.7692 6.36795 37.0606L6.38751 37.0511L14.6932 33.2758C14.764 33.2436 14.8406 33.2257 14.9184 33.223C14.9962 33.2203 15.0738 33.2331 15.1467 33.2604C15.2196 33.2877 15.2864 33.3291 15.3433 33.3823C15.4002 33.4354 15.4461 33.4993 15.4783 33.5701C15.5105 33.641 15.5285 33.7175 15.5311 33.7953C15.5338 33.8732 15.5211 33.9507 15.4937 34.0236C15.4664 34.0965 15.425 34.1633 15.3718 34.2202C15.3187 34.2771 15.2548 34.323 15.184 34.3552L6.88839 38.1257C5.61445 38.7575 4.4936 39.6595 3.60394 40.7688C2.87445 41.6909 2.30061 42.7261 1.90511 43.8334C1.4798 44.9794 1.23698 46.1851 1.18551 47.4065C1.18551 47.5637 1.12306 47.7145 1.01189 47.8256C0.900731 47.9368 0.749962 47.9992 0.592754 47.9992Z" fill="currentColor"/>
<path d="M14.1833 42.7145C14.1008 42.7148 14.019 42.6979 13.9433 42.6648C13.8676 42.6317 13.7997 42.5832 13.7439 42.5223C13.6881 42.4614 13.6456 42.3895 13.6192 42.3112C13.5928 42.233 13.5831 42.1501 13.5906 42.0678L14.3458 33.7621C14.36 33.6056 14.4358 33.461 14.5566 33.3604C14.6774 33.2597 14.8332 33.2112 14.9898 33.2254C15.1464 33.2396 15.2909 33.3155 15.3915 33.4363C15.4922 33.557 15.5408 33.7128 15.5265 33.8694L14.852 41.3162C16.1373 40.9489 17.3365 40.3291 18.3794 39.4929C19.4223 38.6567 20.2881 37.6209 20.9259 36.4461C19.8161 36.0107 18.8702 35.2391 18.2206 34.2393C17.8496 33.6903 17.5671 33.0865 17.3836 32.4498C17.3485 32.2984 17.3743 32.1392 17.4554 32.0066C17.5365 31.874 17.6665 31.7785 17.8173 31.7408C17.9681 31.7031 18.1277 31.7262 18.2617 31.805C18.3956 31.8839 18.4933 32.0122 18.5336 32.1623C18.6892 32.6795 18.9237 33.1695 19.2289 33.6151C19.8399 34.5586 20.7866 35.2347 21.8773 35.5066C21.9565 35.5264 22.0307 35.5624 22.0954 35.6123C22.16 35.6621 22.2137 35.7248 22.253 35.7964C22.2923 35.8679 22.3163 35.9469 22.3237 36.0282C22.3311 36.1095 22.3216 36.1914 22.2958 36.2689C21.9172 37.2424 21.3678 38.1405 20.6734 38.9209C19.9668 39.7419 19.1443 40.4556 18.2319 41.0394C17.0295 41.802 15.7103 42.3627 14.3268 42.6991C14.2798 42.7101 14.2316 42.7152 14.1833 42.7145Z" fill="currentColor"/>
<path d="M33.8148 42.7143C33.7664 42.7143 33.7183 42.7083 33.6713 42.6965C32.2878 42.3601 30.9687 41.7995 29.7663 41.0368C28.8538 40.453 28.0313 39.7393 27.3247 38.9183C26.6304 38.138 26.081 37.2399 25.7024 36.2663C25.6766 36.1889 25.667 36.1069 25.6744 36.0256C25.6818 35.9443 25.7059 35.8654 25.7452 35.7938C25.7844 35.7223 25.8381 35.6596 25.9027 35.6097C25.9674 35.5599 26.0416 35.5239 26.1208 35.5041C27.2115 35.2321 28.1582 34.556 28.7693 33.6126C29.0748 33.1665 29.3096 32.6758 29.4652 32.158C29.4841 32.0825 29.5178 32.0114 29.5643 31.9489C29.6107 31.8865 29.669 31.8337 29.7358 31.7938C29.8026 31.7538 29.8767 31.7274 29.9537 31.716C30.0307 31.7047 30.1093 31.7086 30.1848 31.7276C30.2603 31.7466 30.3313 31.7803 30.3938 31.8267C30.4563 31.8732 30.509 31.9315 30.549 31.9983C30.5889 32.0651 30.6153 32.1392 30.6267 32.2162C30.638 32.2932 30.6341 32.3717 30.6151 32.4472C30.4316 33.0839 30.1492 33.6878 29.7781 34.2368C29.1287 35.2364 28.183 36.008 27.0734 36.4436C27.3979 37.0717 27.7971 37.6582 28.2625 38.1904C28.8947 38.9155 29.6284 39.5454 30.4408 40.0606C31.2848 40.5935 32.1944 41.0147 33.1467 41.3136L32.4698 33.8675C32.4556 33.7109 32.5041 33.5551 32.6048 33.4343C32.7055 33.3135 32.85 33.2377 33.0066 33.2234C33.1632 33.2092 33.319 33.2578 33.4397 33.3584C33.5605 33.4591 33.6364 33.6036 33.6506 33.7602L34.4058 42.0658C34.4133 42.1481 34.4035 42.231 34.3771 42.3093C34.3507 42.3875 34.3082 42.4594 34.2524 42.5203C34.1966 42.5812 34.1287 42.6298 34.053 42.6629C33.9774 42.696 33.8956 42.7129 33.813 42.7125L33.8148 42.7143Z" fill="currentColor"/>
<path d="M20.7861 47.9999C20.697 48 20.6091 47.98 20.5288 47.9415C20.4485 47.9029 20.3779 47.8467 20.3223 47.7771C20.2668 47.7075 20.2276 47.6263 20.2077 47.5395C20.1878 47.4526 20.1878 47.3624 20.2075 47.2756C20.7487 44.901 21.5318 42.4014 21.8175 41.5152C21.3818 41.0119 21.0551 40.4239 20.8579 39.7881C20.6607 39.1524 20.5973 38.4827 20.6717 37.8212C20.7342 37.1275 20.9146 36.4495 21.2051 35.8165C21.2691 35.689 21.3769 35.5888 21.5088 35.5344C21.6406 35.4799 21.7877 35.4749 21.923 35.5201C23.2799 35.9151 24.7213 35.9151 26.0782 35.5201C26.2135 35.4749 26.3605 35.4799 26.4924 35.5344C26.6242 35.5888 26.732 35.689 26.796 35.8165C27.0865 36.4495 27.2669 37.1275 27.3295 37.8212C27.4038 38.4827 27.3404 39.1524 27.1432 39.7881C26.946 40.4239 26.6193 41.0119 26.1837 41.5152C26.4694 42.4044 27.2506 44.9004 27.7936 47.2732C27.8109 47.3491 27.8131 47.4277 27.8001 47.5044C27.787 47.5812 27.759 47.6546 27.7176 47.7205C27.6762 47.7864 27.6222 47.8435 27.5587 47.8886C27.4952 47.9336 27.4235 47.9657 27.3476 47.9831C27.2717 48.0004 27.1931 48.0026 27.1163 47.9895C27.0396 47.9765 26.9662 47.9484 26.9003 47.907C26.8344 47.8656 26.7772 47.8116 26.7322 47.7481C26.6872 47.6846 26.6551 47.6129 26.6377 47.537C25.981 44.6598 24.9602 41.5852 24.9496 41.5543C24.9148 41.4499 24.9098 41.3379 24.9352 41.2308C24.9605 41.1237 25.0152 41.0257 25.093 40.948C25.484 40.5638 25.7826 40.0957 25.9661 39.5792C26.1496 39.0627 26.2133 38.5112 26.1523 37.9664C26.1185 37.5697 26.039 37.1783 25.9152 36.7999C24.6578 37.0817 23.3532 37.0783 22.0972 36.7898C21.9709 37.1712 21.8895 37.5661 21.8548 37.9664C21.7938 38.5112 21.8575 39.0627 22.041 39.5792C22.2245 40.0957 22.523 40.5638 22.9141 40.948C22.9919 41.0257 23.0465 41.1237 23.0719 41.2308C23.0972 41.3379 23.0922 41.4499 23.0575 41.5543C23.0474 41.5852 22.0255 44.6598 21.3699 47.5411C21.3394 47.6727 21.2649 47.7899 21.1587 47.8733C21.0526 47.9567 20.9211 48.0014 20.7861 47.9999Z" fill="currentColor"/>
</svg>
