<svg width="48" height="48" viewBox="0 0 48 48" fill="none" xmlns="http://www.w3.org/2000/svg">
<path d="M41.7378 36.8064H40.0326V36.1793H41.7378C42.3925 36.1786 43.0202 35.9182 43.4832 35.4552C43.9462 34.9922 44.2066 34.3645 44.2073 33.7098V3.09656C44.2066 2.44183 43.9462 1.81413 43.4832 1.35116C43.0202 0.888194 42.3925 0.627772 41.7378 0.627025H4.16523C3.51049 0.627772 2.88279 0.888194 2.41982 1.35116C1.95686 1.81413 1.69644 2.44183 1.69569 3.09656V33.711C1.69677 34.3656 1.95734 34.9929 2.42027 35.4556C2.8832 35.9183 3.51071 36.1786 4.16523 36.1793H25.3524V36.8064H4.16523C3.34446 36.8054 2.55756 36.4791 1.97708 35.8988C1.39659 35.3186 1.06991 34.5318 1.06866 33.711L1.06866 3.09656C1.06958 2.27558 1.39611 1.48849 1.97663 0.90797C2.55715 0.32745 3.34425 0.000912799 4.16523 0L41.7378 0C42.5589 0.000746842 43.3461 0.327211 43.9268 0.907749C44.5075 1.48829 44.8341 2.27547 44.835 3.09656V33.711C44.8338 34.5319 44.507 35.3188 43.9264 35.899C43.3457 36.4793 42.5587 36.8056 41.7378 36.8064Z" fill="currentColor"/>
<path d="M44.5782 8.39643H1.31351C1.23036 8.39643 1.15062 8.3634 1.09183 8.30461C1.03303 8.24581 1 8.16607 1 8.08292C1 7.99977 1.03303 7.92003 1.09183 7.86123C1.15062 7.80244 1.23036 7.76941 1.31351 7.76941H44.5782C44.6614 7.76941 44.7411 7.80244 44.7999 7.86123C44.8587 7.92003 44.8917 7.99977 44.8917 8.08292C44.8917 8.16607 44.8587 8.24581 44.7999 8.30461C44.7411 8.3634 44.6614 8.39643 44.5782 8.39643Z" fill="currentColor"/>
<path d="M5.23241 2.91003C5.48044 2.91003 5.7229 2.98358 5.92913 3.12138C6.13535 3.25918 6.29609 3.45503 6.391 3.68418C6.48592 3.91333 6.51075 4.16547 6.46237 4.40874C6.41398 4.652 6.29454 4.87545 6.11916 5.05083C5.94378 5.22621 5.72033 5.34565 5.47707 5.39404C5.2338 5.44242 4.98166 5.41759 4.75251 5.32267C4.52336 5.22776 4.32751 5.06702 4.18971 4.8608C4.05191 4.65457 3.97836 4.41211 3.97836 4.16408C3.97836 3.83149 4.11049 3.51252 4.34567 3.27734C4.58085 3.04216 4.89982 2.91003 5.23241 2.91003ZM5.23241 5.10462C5.41843 5.10462 5.60028 5.04946 5.75495 4.94611C5.90962 4.84276 6.03017 4.69587 6.10136 4.52401C6.17254 4.35215 6.19117 4.16304 6.15488 3.98059C6.11859 3.79815 6.02901 3.63056 5.89747 3.49902C5.76594 3.36749 5.59835 3.27791 5.4159 3.24162C5.23346 3.20533 5.04435 3.22395 4.87248 3.29514C4.70062 3.36633 4.55373 3.48688 4.45038 3.64155C4.34704 3.79622 4.29188 3.97806 4.29188 4.16408C4.29188 4.41353 4.39097 4.65276 4.56735 4.82914C4.74374 5.00553 4.98297 5.10462 5.23241 5.10462Z" fill="currentColor"/>
<path d="M8.68105 2.91003C8.92908 2.91003 9.17154 2.98358 9.37776 3.12138C9.58399 3.25918 9.74473 3.45503 9.83964 3.68418C9.93456 3.91333 9.95939 4.16547 9.911 4.40874C9.86262 4.652 9.74318 4.87545 9.5678 5.05083C9.39242 5.22621 9.16897 5.34565 8.9257 5.39404C8.68244 5.44242 8.4303 5.41759 8.20115 5.32267C7.972 5.22776 7.77614 5.06702 7.63835 4.8608C7.50055 4.65457 7.427 4.41211 7.427 4.16408C7.427 3.83149 7.55912 3.51252 7.7943 3.27734C8.02948 3.04216 8.34846 2.91003 8.68105 2.91003ZM8.68105 5.10462C8.86707 5.10462 9.04892 5.04946 9.20359 4.94611C9.35826 4.84276 9.47881 4.69587 9.54999 4.52401C9.62118 4.35215 9.63981 4.16304 9.60352 3.98059C9.56723 3.79815 9.47765 3.63056 9.34611 3.49902C9.21458 3.36749 9.04699 3.27791 8.86454 3.24162C8.68209 3.20533 8.49298 3.22395 8.32112 3.29514C8.14926 3.36633 8.00237 3.48688 7.89902 3.64155C7.79568 3.79622 7.74051 3.97806 7.74051 4.16408C7.74051 4.41353 7.83961 4.65276 8.01599 4.82914C8.19238 5.00553 8.43161 5.10462 8.68105 5.10462Z" fill="currentColor"/>
<path d="M12.1297 2.91003C12.3777 2.91003 12.6202 2.98358 12.8264 3.12138C13.0326 3.25918 13.1934 3.45503 13.2883 3.68418C13.3832 3.91333 13.408 4.16547 13.3596 4.40874C13.3113 4.652 13.1918 4.87545 13.0164 5.05083C12.8411 5.22621 12.6176 5.34565 12.3743 5.39404C12.1311 5.44242 11.8789 5.41759 11.6498 5.32267C11.4206 5.22776 11.2248 5.06702 11.087 4.8608C10.9492 4.65457 10.8756 4.41211 10.8756 4.16408C10.8756 3.83149 11.0078 3.51252 11.2429 3.27734C11.4781 3.04216 11.7971 2.91003 12.1297 2.91003ZM12.1297 5.10462C12.3157 5.10462 12.4976 5.04946 12.6522 4.94611C12.8069 4.84276 12.9274 4.69587 12.9986 4.52401C13.0698 4.35215 13.0884 4.16304 13.0522 3.98059C13.0159 3.79815 12.9263 3.63056 12.7948 3.49902C12.6632 3.36749 12.4956 3.27791 12.3132 3.24162C12.1307 3.20533 11.9416 3.22395 11.7698 3.29514C11.5979 3.36633 11.451 3.48688 11.3477 3.64155C11.2443 3.79622 11.1892 3.97806 11.1892 4.16408C11.1892 4.41353 11.2882 4.65276 11.4646 4.82914C11.641 5.00553 11.8802 5.10462 12.1297 5.10462Z" fill="currentColor"/>
<path d="M15.4216 12.4722H40.5026C40.5857 12.4722 40.6655 12.5052 40.7243 12.564C40.783 12.6228 40.8161 12.7025 40.8161 12.7857V16.8613C40.8161 16.9445 40.783 17.0242 40.7243 17.083C40.6655 17.1418 40.5857 17.1749 40.5026 17.1749H15.4216C15.3384 17.1749 15.2587 17.1418 15.1999 17.083C15.1411 17.0242 15.1081 16.9445 15.1081 16.8613V12.7857C15.1081 12.7025 15.1411 12.6228 15.1999 12.564C15.2587 12.5052 15.3384 12.4722 15.4216 12.4722ZM40.1891 13.0992H15.7351V16.5478H40.1891V13.0992Z" fill="currentColor"/>
<path d="M25.3527 31.2415H15.298C15.2149 31.2415 15.1351 31.2085 15.0764 31.1497C15.0176 31.0909 14.9845 31.0111 14.9845 30.928V21.1872C14.9845 21.104 15.0176 21.0243 15.0764 20.9655C15.1351 20.9067 15.2149 20.8737 15.298 20.8737H40.3477C40.4308 20.8737 40.5106 20.9067 40.5694 20.9655C40.6282 21.0243 40.6612 21.104 40.6612 21.1872V29.8501H40.0342V21.5007H15.6116V30.6145H25.3524L25.3527 31.2415Z" fill="currentColor"/>
<path d="M11.0324 21.564H5.70269C5.61954 21.564 5.5398 21.531 5.481 21.4722C5.42221 21.4134 5.38918 21.3337 5.38918 21.2505C5.38918 21.1674 5.42221 21.0876 5.481 21.0288C5.5398 20.97 5.61954 20.937 5.70269 20.937H11.0324C11.1155 20.937 11.1953 20.97 11.2541 21.0288C11.3129 21.0876 11.3459 21.1674 11.3459 21.2505C11.3459 21.3337 11.3129 21.4134 11.2541 21.4722C11.1953 21.531 11.1155 21.564 11.0324 21.564Z" fill="currentColor"/>
<path d="M11.0324 13.0992H5.70269C5.61954 13.0992 5.5398 13.0662 5.481 13.0074C5.42221 12.9486 5.38918 12.8688 5.38918 12.7857C5.38918 12.7025 5.42221 12.6228 5.481 12.564C5.5398 12.5052 5.61954 12.4722 5.70269 12.4722H11.0324C11.1155 12.4722 11.1953 12.5052 11.2541 12.564C11.3129 12.6228 11.3459 12.7025 11.3459 12.7857C11.3459 12.8688 11.3129 12.9486 11.2541 13.0074C11.1953 13.0662 11.1155 13.0992 11.0324 13.0992Z" fill="currentColor"/>
<path d="M39.024 38.0636C39.2435 38.2849 39.4554 38.4984 39.6739 38.7182C39.931 38.5141 40.2469 38.398 40.575 38.3871C40.7752 38.3782 40.9751 38.4116 41.1616 38.4851C41.3481 38.5586 41.5171 38.6704 41.6575 38.8135C43.6147 40.7685 45.5708 42.7256 47.5259 44.6846C47.6674 44.8227 47.7796 44.9878 47.856 45.1702C47.9323 45.3525 47.9712 45.5484 47.9703 45.746C47.9694 45.9437 47.9287 46.1392 47.8507 46.3209C47.7727 46.5025 47.6589 46.6666 47.5161 46.8033C47.3943 46.9252 47.272 47.0469 47.1493 47.1686C47.0121 47.3108 46.8477 47.424 46.6659 47.5013C46.484 47.5787 46.2885 47.6187 46.0909 47.619C45.8933 47.6192 45.6976 47.5798 45.5156 47.5029C45.3335 47.426 45.1688 47.3132 45.0312 47.1714C43.8303 45.9767 42.6321 44.7797 41.4368 43.5804C40.7053 42.8479 39.9731 42.1157 39.2404 41.384C38.9542 41.1377 38.7737 40.7909 38.7362 40.4152C38.6987 40.0396 38.807 39.6639 39.0388 39.3659C39.0507 39.3486 39.0598 39.3298 39.0701 39.3101L38.4155 38.6705C36.4404 40.3635 34.1558 41.0701 31.5662 40.6397C29.5033 40.3181 27.6525 39.1904 26.4208 37.5046C25.4911 36.2666 24.9324 34.79 24.8098 33.2466C24.6871 31.7033 25.0056 30.157 25.7281 28.7877C26.4506 27.4185 27.5474 26.2828 28.8906 25.513C30.2338 24.7432 31.7682 24.3709 33.3148 24.4397C34.8614 24.5085 36.3567 25.0154 37.6263 25.9013C38.8959 26.7873 39.8876 28.0159 40.4857 29.4438C41.0839 30.8718 41.2639 32.4403 41.0047 33.9667C40.7456 35.493 40.058 36.9143 39.0222 38.0648M40.2981 32.6056C40.2994 31.1516 39.8694 29.7299 39.0625 28.5204C38.2556 27.3109 37.1081 26.3679 35.7651 25.8107C34.4221 25.2535 32.944 25.1072 31.5179 25.3903C30.0917 25.6734 28.7816 26.3732 27.7532 27.401C26.7249 28.4289 26.0245 29.7387 25.7408 31.1647C25.457 32.5908 25.6026 34.0689 26.1591 35.4122C26.7157 36.7554 27.6582 37.9034 28.8673 38.7109C30.0765 39.5183 31.4979 39.949 32.9519 39.9484C33.9167 39.9489 34.8721 39.7593 35.7636 39.3905C36.6551 39.0216 37.4652 38.4807 38.1476 37.7987C38.83 37.1167 39.3713 36.307 39.7407 35.4157C40.1101 34.5244 40.3003 33.5691 40.3003 32.6044M40.6045 39.1975C40.5976 39.1837 40.5897 39.1703 40.5828 39.1565C40.4302 39.2258 40.2828 39.3061 40.1417 39.3966C40.0181 39.5005 39.9028 39.6138 39.7968 39.7355C39.718 39.7984 39.6544 39.8782 39.6107 39.969C39.567 40.0599 39.5443 40.1594 39.5443 40.2602C39.5443 40.361 39.567 40.4605 39.6107 40.5513C39.6544 40.6422 39.718 40.722 39.7968 40.7848C41.7297 42.7184 43.6631 44.6517 45.5968 46.5848C45.659 46.6508 45.7338 46.7036 45.8168 46.7401C45.8998 46.7766 45.9893 46.796 46.08 46.7973C46.1706 46.7985 46.2606 46.7815 46.3446 46.7472C46.4285 46.713 46.5048 46.6623 46.5687 46.598C46.7051 46.4679 46.8421 46.3365 46.9653 46.1945C47.0358 46.1138 47.0891 46.0196 47.1221 45.9177C47.1592 45.7953 47.1596 45.6647 47.1233 45.5422C47.0869 45.4196 47.0154 45.3103 46.9176 45.2279C45.8573 44.1689 44.7975 43.109 43.738 42.0483C42.8683 41.1792 41.9991 40.3098 41.1302 39.4399C41.0644 39.3647 40.9835 39.3044 40.8927 39.2628C40.8019 39.2212 40.7034 39.1993 40.6035 39.1985" fill="currentColor"/>
<path d="M26.9475 32.6002C26.9427 31.3614 27.4264 30.1706 28.2938 29.2861C28.3454 29.2228 28.4146 29.176 28.4926 29.1516C28.5707 29.1273 28.6541 29.1264 28.7327 29.1491C28.8067 29.1677 28.8735 29.208 28.9245 29.2647C28.9755 29.3214 29.0085 29.3921 29.0192 29.4676C29.03 29.5426 29.0215 29.6191 28.9946 29.69C28.9678 29.7608 28.9234 29.8237 28.8656 29.8727C28.3302 30.413 27.9714 31.103 27.8367 31.8516C27.7107 32.4704 27.7385 33.1106 27.9176 33.7162C28.0966 34.3218 28.4215 34.8742 28.8637 35.325C28.919 35.3723 28.9623 35.4322 28.9899 35.4996C29.0175 35.5669 29.0286 35.6399 29.0224 35.7125C29.015 35.7884 28.9852 35.8605 28.9367 35.9195C28.8883 35.9784 28.8233 36.0216 28.7502 36.0435C28.6734 36.0709 28.5901 36.0743 28.5113 36.0534C28.4324 36.0326 28.3618 35.9884 28.3085 35.9266C27.4345 35.0403 26.9458 33.8447 26.9488 32.5999" fill="currentColor"/>
</svg>
