<svg width="48" height="48" viewBox="0 0 48 48" fill="none" xmlns="http://www.w3.org/2000/svg">
<path d="M44.3903 48H3.61016C2.65302 47.9989 1.7354 47.6182 1.0586 46.9414C0.381798 46.2646 0.00109236 45.347 0 44.3898V14.9378H1.17921V44.3898C1.17999 45.0343 1.43636 45.6522 1.89208 46.1079C2.34781 46.5636 2.96567 46.82 3.61016 46.8208H44.3903C45.0348 46.82 45.6527 46.5636 46.1084 46.1079C46.5641 45.6522 46.8205 45.0343 46.8213 44.3898V14.9378H48.0005V44.3898C47.9994 45.347 47.6187 46.2646 46.9419 46.9414C46.2651 47.6182 45.3475 47.9989 44.3903 48Z" fill="currentColor"/>
<path d="M0.620278 15.4851C0.521227 15.4853 0.423713 15.4606 0.33674 15.4132C0.249767 15.3658 0.176138 15.2972 0.12265 15.2138C0.0807679 15.1484 0.0522215 15.0754 0.0386508 14.9989C0.0250801 14.9224 0.0267527 14.844 0.0435725 14.7682C0.0603922 14.6924 0.0920277 14.6206 0.136662 14.5571C0.181296 14.4935 0.238048 14.4394 0.30366 14.3978L4.80649 11.5323C4.87179 11.4907 4.94466 11.4623 5.02093 11.4489C5.0972 11.4354 5.17537 11.4371 5.25099 11.4539C5.3266 11.4706 5.39817 11.5021 5.46162 11.5465C5.52506 11.5909 5.57913 11.6474 5.62073 11.7128C5.6623 11.7783 5.69051 11.8514 5.70376 11.9279C5.71701 12.0043 5.71504 12.0827 5.69795 12.1584C5.68086 12.2341 5.64899 12.3057 5.60417 12.369C5.55935 12.4324 5.50247 12.4863 5.43678 12.5276L0.936897 15.3907C0.842504 15.4517 0.732651 15.4844 0.620278 15.4851Z" fill="currentColor"/>
<path d="M31.9431 5.71161C31.8316 5.71152 31.7225 5.67983 31.6283 5.62022L25.2252 1.56608C24.844 1.31318 24.3967 1.17829 23.9392 1.17829C23.4818 1.17829 23.0345 1.31318 22.6533 1.56608L16.2891 5.61668C16.2238 5.65935 16.1506 5.68863 16.0739 5.70283C15.9972 5.71703 15.9185 5.71587 15.8422 5.69941C15.7659 5.68295 15.6937 5.65152 15.6297 5.60694C15.5657 5.56236 15.5111 5.50552 15.4692 5.43972C15.4273 5.37391 15.3989 5.30044 15.3856 5.22357C15.3723 5.1467 15.3744 5.06795 15.3918 4.99189C15.4091 4.91584 15.4414 4.84398 15.4867 4.78049C15.5321 4.717 15.5895 4.66313 15.6558 4.62201L22.0218 0.569056H22.0254C22.5939 0.197733 23.2584 0 23.9375 0C24.6165 0 25.281 0.197733 25.8495 0.569056H25.8531L32.2592 4.62378C32.3672 4.69213 32.45 4.79371 32.4953 4.91324C32.5405 5.03276 32.5457 5.16376 32.5101 5.28649C32.4744 5.40922 32.3998 5.51704 32.2976 5.59371C32.1953 5.67039 32.0709 5.71176 31.9431 5.71161Z" fill="currentColor"/>
<path d="M47.379 15.485C47.2683 15.4845 47.16 15.4528 47.0665 15.3936L42.5649 12.5452C42.4994 12.5038 42.4428 12.4499 42.3982 12.3866C42.3536 12.3233 42.3219 12.2518 42.3049 12.1763C42.288 12.1007 42.286 12.0226 42.2993 11.9463C42.3125 11.87 42.3407 11.797 42.3821 11.7316C42.4235 11.6661 42.4774 11.6095 42.5407 11.5649C42.604 11.5203 42.6755 11.4886 42.7511 11.4716C42.8266 11.4547 42.9048 11.4528 42.9811 11.466C43.0574 11.4792 43.1303 11.5074 43.1958 11.5488L47.695 14.3972C47.803 14.4655 47.8859 14.5671 47.9312 14.6867C47.9764 14.8062 47.9816 14.9372 47.9459 15.0599C47.9103 15.1826 47.8357 15.2905 47.7335 15.3671C47.6312 15.4438 47.5068 15.4852 47.379 15.485Z" fill="currentColor"/>
<path d="M23.9351 39.6837C23.2573 39.6785 22.595 39.4808 22.0253 39.1135H22.0218L0.301279 25.2831C0.173448 25.1972 0.0843471 25.0646 0.0530412 24.9137C0.0217353 24.7629 0.0507113 24.6058 0.133769 24.476C0.216827 24.3463 0.347368 24.2542 0.497461 24.2195C0.647554 24.1847 0.805274 24.2102 0.936875 24.2902L22.6533 38.1159C23.0341 38.3688 23.4811 38.5037 23.9383 38.5037C24.3955 38.5037 24.8425 38.3688 25.2234 38.1159L47.0642 24.2902C47.1963 24.2066 47.3563 24.1788 47.5088 24.2131C47.6614 24.2474 47.7942 24.3409 47.8778 24.473C47.9615 24.6052 47.9892 24.7651 47.9549 24.9177C47.9207 25.0703 47.8272 25.203 47.695 25.2867L25.8531 39.1124H25.8495C25.2779 39.4793 24.6143 39.6773 23.9351 39.6837Z" fill="currentColor"/>
<path d="M42.8797 23.8345C42.7234 23.8345 42.5734 23.7723 42.4628 23.6618C42.3522 23.5512 42.2901 23.4012 42.2901 23.2448V8.14089C42.2894 7.4964 42.033 6.87854 41.5773 6.42281C41.1215 5.96709 40.5037 5.71072 39.8592 5.70994H8.14129C7.4968 5.71072 6.87893 5.96709 6.42321 6.42281C5.96749 6.87854 5.71112 7.4964 5.71034 8.14089V23.2448C5.71034 23.4012 5.64822 23.5512 5.53765 23.6618C5.42708 23.7723 5.27711 23.8345 5.12073 23.8345C4.96436 23.8345 4.81439 23.7723 4.70382 23.6618C4.59325 23.5512 4.53113 23.4012 4.53113 23.2448V8.14089C4.53222 7.18375 4.91292 6.26613 5.58972 5.58933C6.26652 4.91253 7.18415 4.53182 8.14129 4.53073H39.8592C40.8163 4.53182 41.7339 4.91253 42.4107 5.58933C43.0875 6.26613 43.4682 7.18375 43.4693 8.14089V23.2448C43.4693 23.4012 43.4072 23.5512 43.2966 23.6618C43.1861 23.7723 43.0361 23.8345 42.8797 23.8345Z" fill="currentColor"/>
<path d="M25.7287 31.708C24.3467 31.715 22.9701 31.5375 21.6351 31.1803C20.2261 30.8087 18.8982 30.1789 17.7189 29.3231C15.6883 27.7779 14.3434 25.4992 13.9719 22.9748C13.7678 21.7342 13.7647 20.4689 13.9625 19.2272C14.155 17.9824 14.5523 16.7781 15.1382 15.6631C15.6734 14.6511 16.3816 13.7405 17.2307 12.9727C18.0608 12.2221 19.007 11.6108 20.0325 11.1626C22.1079 10.2542 24.4155 10.0179 26.632 10.4869C30.9951 11.4303 34.2379 15.2038 34.3305 19.4702C34.3305 19.5397 34.3305 19.6105 34.3305 19.6818C34.3305 19.7337 34.3305 19.7856 34.3305 19.8375C34.3939 21.1446 34.2021 22.4515 33.7656 23.6853C33.4628 24.5391 32.8812 25.266 32.1147 25.7489C31.4942 26.1088 30.7774 26.2678 30.0629 26.2041C29.3981 26.1468 28.7541 25.9444 28.1762 25.6109C27.0972 24.996 26.4268 24.0779 26.4268 23.2136V15.6902C26.4268 15.5338 26.4889 15.3839 26.5995 15.2733C26.7101 15.1627 26.86 15.1006 27.0164 15.1006C27.1728 15.1006 27.3227 15.1627 27.4333 15.2733C27.5439 15.3839 27.606 15.5338 27.606 15.6902V23.2118C27.6799 23.514 27.8224 23.795 28.0225 24.0332C28.2226 24.2713 28.4749 24.4602 28.7599 24.585C29.1676 24.8443 29.6353 24.9942 30.1178 25.0201C30.6003 25.046 31.0813 24.9471 31.5145 24.733C32.0543 24.3814 32.461 23.8594 32.6701 23.2501C33.0476 22.1617 33.211 21.0104 33.1513 19.8599C33.1513 19.8045 33.1513 19.7485 33.1513 19.6924C33.1513 19.6364 33.1513 19.5639 33.1513 19.4996C33.0564 17.6239 32.3395 15.8332 31.1139 14.4101C29.8882 12.987 28.2235 12.0126 26.3826 11.6408C24.4086 11.2233 22.3535 11.434 20.5054 12.2434C19.5962 12.6404 18.7574 13.182 18.0214 13.8471C17.2731 14.5225 16.6489 15.3237 16.1771 16.2144C15.6518 17.2145 15.2958 18.2947 15.1234 19.4112C14.9452 20.5279 14.9478 21.6661 15.1311 22.782C15.4538 25.0039 16.6334 27.0113 18.4176 28.3744C19.4798 29.1437 20.6755 29.7095 21.944 30.043C23.2369 30.3875 24.5713 30.5506 25.9091 30.5277C26.0655 30.5259 26.2161 30.5864 26.3279 30.6958C26.4397 30.8051 26.5035 30.9544 26.5052 31.1108C26.5069 31.2671 26.4465 31.4178 26.3371 31.5296C26.2277 31.6414 26.0785 31.7051 25.9221 31.7069L25.7287 31.708Z" fill="currentColor"/>
<path d="M23.6208 26.0549C23.1176 26.0495 22.6179 25.9688 22.1385 25.8155C21.4598 25.5898 20.8476 25.1994 20.3567 24.6792C19.8658 24.1589 19.5115 23.5251 19.3255 22.8345C18.9774 21.5308 19.0532 20.1501 19.5419 18.8923C20.0281 17.5745 21.0089 16.4982 22.2759 15.8918C23.5928 15.341 25.0614 15.2704 26.425 15.6925C26.5013 15.7097 26.5733 15.7419 26.637 15.7872C26.7007 15.8325 26.7548 15.8901 26.7961 15.9564C26.8374 16.0228 26.865 16.0968 26.8774 16.1739C26.8899 16.2511 26.8868 16.33 26.8685 16.406C26.8502 16.482 26.8169 16.5536 26.7706 16.6166C26.7244 16.6796 26.6661 16.7328 26.5991 16.7731C26.5321 16.8134 26.4577 16.8399 26.3804 16.8512C26.303 16.8624 26.2242 16.8582 26.1485 16.8387C25.0427 16.482 23.8467 16.5259 22.77 16.9626C21.7806 17.4419 21.0169 18.2878 20.6409 19.321C20.2432 20.3401 20.18 21.4593 20.4605 22.5167C20.5922 23.018 20.8461 23.479 21.1994 23.8583C21.5527 24.2377 21.9945 24.5236 22.4852 24.6905C22.8757 24.8411 23.2942 24.9046 23.7117 24.8768C24.1292 24.849 24.5356 24.7305 24.9026 24.5296C25.5305 24.1052 26.0074 23.4925 26.2646 22.7796C26.2945 22.7082 26.3382 22.6434 26.3931 22.5888C26.4481 22.5342 26.5132 22.491 26.5849 22.4617C26.6565 22.4323 26.7332 22.4173 26.8106 22.4176C26.8881 22.4179 26.9647 22.4334 27.0361 22.4633C27.1075 22.4932 27.1724 22.5368 27.2269 22.5918C27.2815 22.6467 27.3247 22.7119 27.3541 22.7835C27.3834 22.8552 27.3984 22.9319 27.3981 23.0093C27.3979 23.0868 27.3823 23.1634 27.3524 23.2348C27.0008 24.1777 26.3568 24.9834 25.5146 25.5343C24.9443 25.881 24.2883 26.0613 23.6208 26.0549Z" fill="currentColor"/>
</svg>
