<svg width="48" height="48" viewBox="0 0 48 48" fill="none" xmlns="http://www.w3.org/2000/svg">
<path d="M41.2036 11.7513H40.0244V6.12006L35.0836 1.1792H18.5482V11.7513H17.369V0.589601C17.369 0.433229 17.4311 0.283261 17.5417 0.17269C17.6523 0.0621181 17.8022 0 17.9586 0H35.3277C35.4841 3.33935e-05 35.634 0.0621734 35.7445 0.172753L41.0309 5.45912C41.1415 5.56967 41.2036 5.71961 41.2036 5.87597V11.7513Z" fill="currentColor"/>
<path d="M38.346 7.21852H36.0807C35.5247 7.21727 34.9919 6.99586 34.5987 6.60271C34.2056 6.20957 33.9842 5.67671 33.9829 5.12072V2.85547H35.1621V5.12072C35.1623 5.36492 35.2593 5.59908 35.432 5.77176C35.6047 5.94444 35.8389 6.04152 36.0831 6.04167H38.346V7.21852Z" fill="currentColor"/>
<path d="M6.2533 48C4.59616 47.9956 3.00815 47.3354 1.83637 46.1636C0.664588 44.9918 0.00435764 43.4038 0 41.7467V21.3571C0 19.6986 0.658823 18.108 1.83155 16.9353C3.00427 15.7626 4.59482 15.1038 6.2533 15.1038C7.91178 15.1038 9.50234 15.7626 10.6751 16.9353C11.8478 18.108 12.5066 19.6986 12.5066 21.3571V41.7467C12.5023 43.4038 11.842 44.9918 10.6703 46.1636C9.49848 47.3354 7.91045 47.9956 6.2533 48ZM6.2533 16.283C4.90891 16.2873 3.62083 16.8233 2.67019 17.7739C1.71955 18.7246 1.18356 20.0127 1.1792 21.3571V41.7467C1.1792 43.0924 1.71379 44.383 2.66537 45.3346C3.61695 46.2862 4.90757 46.8208 6.2533 46.8208C7.59904 46.8208 8.88968 46.2862 9.84126 45.3346C10.7928 44.383 11.3274 43.0924 11.3274 41.7467V21.3571C11.3231 20.0127 10.7871 18.7246 9.83643 17.7739C8.8858 16.8233 7.5977 16.2873 6.2533 16.283Z" fill="currentColor"/>
<path d="M44.3893 48H13.5927V46.8208H44.3893C45.0338 46.82 45.6516 46.5636 46.1074 46.1079C46.5631 45.6522 46.8194 45.0343 46.8202 44.3898V18.7139C46.8194 18.0694 46.5631 17.4515 46.1074 16.9958C45.6516 16.5401 45.0338 16.2837 44.3893 16.283H13.5927V15.1038H44.3893C45.3464 15.1049 46.264 15.4856 46.9408 16.1623C47.6176 16.8391 47.9983 17.7568 47.9994 18.7139V44.3898C47.9983 45.347 47.6176 46.2646 46.9408 46.9414C46.264 47.6182 45.3464 47.9989 44.3893 48Z" fill="currentColor"/>
<path d="M18.4003 19.415H39.6259C39.7823 19.415 39.9323 19.4772 40.0428 19.5877C40.1534 19.6983 40.2155 19.8483 40.2155 20.0046V25.9007C40.2155 26.057 40.1534 26.207 40.0428 26.3176C39.9323 26.4281 39.7823 26.4903 39.6259 26.4903H18.4003C18.2439 26.4903 18.0939 26.4281 17.9834 26.3176C17.8728 26.207 17.8107 26.057 17.8107 25.9007V20.0046C17.8107 19.8483 17.8728 19.6983 17.9834 19.5877C18.0939 19.4772 18.2439 19.415 18.4003 19.415ZM39.0363 20.5942H18.9899V25.3111H39.0363V20.5942Z" fill="currentColor"/>
<path d="M24.2963 37.103H21.3483C21.1919 37.103 21.0419 37.0409 20.9314 36.9303C20.8208 36.8198 20.7587 36.6698 20.7587 36.5134C20.7587 36.3571 20.8208 36.2071 20.9314 36.0965C21.0419 35.9859 21.1919 35.9238 21.3483 35.9238H24.2963C24.4526 35.9238 24.6026 35.9859 24.7132 36.0965C24.8238 36.2071 24.8859 36.3571 24.8859 36.5134C24.8859 36.6698 24.8238 36.8198 24.7132 36.9303C24.6026 37.0409 24.4526 37.103 24.2963 37.103Z" fill="currentColor"/>
<path d="M30.7819 37.103H27.8339C27.6775 37.103 27.5275 37.0409 27.417 36.9303C27.3064 36.8198 27.2443 36.6698 27.2443 36.5134C27.2443 36.3571 27.3064 36.2071 27.417 36.0965C27.5275 35.9859 27.6775 35.9238 27.8339 35.9238H30.7819C30.9382 35.9238 31.0882 35.9859 31.1988 36.0965C31.3094 36.2071 31.3715 36.3571 31.3715 36.5134C31.3715 36.6698 31.3094 36.8198 31.1988 36.9303C31.0882 37.0409 30.9382 37.103 30.7819 37.103Z" fill="currentColor"/>
<path d="M37.2675 37.103H34.3195C34.1631 37.103 34.0131 37.0409 33.9025 36.9303C33.792 36.8198 33.7299 36.6698 33.7299 36.5134C33.7299 36.3571 33.792 36.2071 33.9025 36.0965C34.0131 35.9859 34.1631 35.9238 34.3195 35.9238H37.2675C37.4238 35.9238 37.5738 35.9859 37.6844 36.0965C37.7949 36.2071 37.8571 36.3571 37.8571 36.5134C37.8571 36.6698 37.7949 36.8198 37.6844 36.9303C37.5738 37.0409 37.4238 37.103 37.2675 37.103Z" fill="currentColor"/>
<path d="M24.2963 42.4094H21.3483C21.1919 42.4094 21.0419 42.3473 20.9314 42.2367C20.8208 42.1262 20.7587 41.9762 20.7587 41.8198C20.7587 41.6635 20.8208 41.5135 20.9314 41.4029C21.0419 41.2923 21.1919 41.2302 21.3483 41.2302H24.2963C24.4526 41.2302 24.6026 41.2923 24.7132 41.4029C24.8238 41.5135 24.8859 41.6635 24.8859 41.8198C24.8859 41.9762 24.8238 42.1262 24.7132 42.2367C24.6026 42.3473 24.4526 42.4094 24.2963 42.4094Z" fill="currentColor"/>
<path d="M30.7819 42.4094H27.8339C27.6775 42.4094 27.5275 42.3473 27.417 42.2367C27.3064 42.1262 27.2443 41.9762 27.2443 41.8198C27.2443 41.6635 27.3064 41.5135 27.417 41.4029C27.5275 41.2923 27.6775 41.2302 27.8339 41.2302H30.7819C30.9382 41.2302 31.0882 41.2923 31.1988 41.4029C31.3094 41.5135 31.3715 41.6635 31.3715 41.8198C31.3715 41.9762 31.3094 42.1262 31.1988 42.2367C31.0882 42.3473 30.9382 42.4094 30.7819 42.4094Z" fill="currentColor"/>
<path d="M37.2675 42.4094H34.3195C34.1631 42.4094 34.0131 42.3473 33.9025 42.2367C33.792 42.1262 33.7299 41.9762 33.7299 41.8198C33.7299 41.6635 33.792 41.5135 33.9025 41.4029C34.0131 41.2923 34.1631 41.2302 34.3195 41.2302H37.2675C37.4238 41.2302 37.5738 41.2923 37.6844 41.4029C37.7949 41.5135 37.8571 41.6635 37.8571 41.8198C37.8571 41.9762 37.7949 42.1262 37.6844 42.2367C37.5738 42.3473 37.4238 42.4094 37.2675 42.4094Z" fill="currentColor"/>
<path d="M24.2963 30.0278H21.3483C21.1919 30.0278 21.0419 29.9657 20.9314 29.8551C20.8208 29.7446 20.7587 29.5946 20.7587 29.4382C20.7587 29.2819 20.8208 29.1319 20.9314 29.0213C21.0419 28.9108 21.1919 28.8486 21.3483 28.8486H24.2963C24.4526 28.8486 24.6026 28.9108 24.7132 29.0213C24.8238 29.1319 24.8859 29.2819 24.8859 29.4382C24.8859 29.5946 24.8238 29.7446 24.7132 29.8551C24.6026 29.9657 24.4526 30.0278 24.2963 30.0278Z" fill="currentColor"/>
<path d="M30.7819 30.0278H27.8339C27.6775 30.0278 27.5275 29.9657 27.417 29.8551C27.3064 29.7446 27.2443 29.5946 27.2443 29.4382C27.2443 29.2819 27.3064 29.1319 27.417 29.0213C27.5275 28.9108 27.6775 28.8486 27.8339 28.8486H30.7819C30.9382 28.8486 31.0882 28.9108 31.1988 29.0213C31.3094 29.1319 31.3715 29.2819 31.3715 29.4382C31.3715 29.5946 31.3094 29.7446 31.1988 29.8551C31.0882 29.9657 30.9382 30.0278 30.7819 30.0278Z" fill="currentColor"/>
<path d="M37.2675 30.0278H34.3195C34.1631 30.0278 34.0131 29.9657 33.9025 29.8551C33.792 29.7446 33.7299 29.5946 33.7299 29.4382C33.7299 29.2819 33.792 29.1319 33.9025 29.0213C34.0131 28.9108 34.1631 28.8486 34.3195 28.8486H37.2675C37.4238 28.8486 37.5738 28.9108 37.6844 29.0213C37.7949 29.1319 37.8571 29.2819 37.8571 29.4382C37.8571 29.5946 37.7949 29.7446 37.6844 29.8551C37.5738 29.9657 37.4238 30.0278 37.2675 30.0278Z" fill="currentColor"/>
</svg>
