<svg width="48" height="48" viewBox="0 0 48 48" fill="none" xmlns="http://www.w3.org/2000/svg">
<path d="M22.7502 12.378C22.347 12.378 21.953 12.4976 21.6178 12.7215C21.2826 12.9455 21.0213 13.2638 20.8671 13.6363C20.7128 14.0087 20.6724 14.4185 20.7511 14.8139C20.8297 15.2093 21.0238 15.5725 21.3089 15.8575C21.594 16.1426 21.9571 16.3367 22.3525 16.4153C22.7479 16.494 23.1577 16.4536 23.5301 16.2993C23.9026 16.1451 24.2209 15.8838 24.4449 15.5486C24.6688 15.2135 24.7884 14.8194 24.7884 14.4163C24.791 14.1479 24.7401 13.8816 24.6386 13.6331C24.5371 13.3847 24.3871 13.1589 24.1973 12.9691C24.0075 12.7793 23.7818 12.6293 23.5333 12.5278C23.2848 12.4263 23.0186 12.3754 22.7502 12.378ZM22.7502 15.4763C22.5405 15.4763 22.3355 15.4142 22.1612 15.2977C21.9869 15.1812 21.851 15.0156 21.7708 14.8219C21.6905 14.6282 21.6696 14.4151 21.7105 14.2095C21.7514 14.0038 21.8523 13.8149 22.0006 13.6667C22.1488 13.5184 22.3377 13.4175 22.5433 13.3766C22.749 13.3357 22.9621 13.3567 23.1558 13.4369C23.3495 13.5171 23.5151 13.653 23.6316 13.8273C23.748 14.0016 23.8102 14.2066 23.8102 14.4163C23.8147 14.5567 23.7904 14.6966 23.7387 14.8273C23.6871 14.958 23.6092 15.0767 23.5098 15.1761C23.4105 15.2755 23.2918 15.3534 23.1611 15.4052C23.0305 15.4569 22.8906 15.4813 22.7502 15.4768" fill="currentColor"/>
<path d="M26.9913 14.4971C26.9912 13.6584 26.7424 12.8387 26.2764 12.1414C25.8104 11.4442 25.1481 10.9007 24.3732 10.5799C23.5984 10.2591 22.7458 10.1752 21.9233 10.3389C21.1008 10.5026 20.3453 10.9065 19.7523 11.4996C19.1594 12.0927 18.7556 12.8483 18.5921 13.6709C18.4286 14.4934 18.5127 15.346 18.8337 16.1207C19.1547 16.8955 19.6983 17.5577 20.3957 18.0235C21.093 18.4894 21.9129 18.738 22.7515 18.7378C23.8743 18.7318 24.9493 18.2831 25.7432 17.489C26.537 16.695 26.9855 15.6199 26.9913 14.4971ZM22.7515 17.6778C22.1063 17.6779 21.4755 17.4866 20.939 17.1282C20.4025 16.7698 19.9843 16.2604 19.7373 15.6643C19.4904 15.0682 19.4257 14.4122 19.5516 13.7794C19.6774 13.1466 19.9881 12.5653 20.4444 12.109C20.9006 11.6528 21.4819 11.3421 22.1147 11.2163C22.7476 11.0904 23.4035 11.155 23.9996 11.402C24.5957 11.649 25.1051 12.0672 25.4635 12.6037C25.822 13.1402 26.0132 13.771 26.0131 14.4162C25.9967 15.2761 25.6478 16.0962 25.0396 16.7043C24.4315 17.3125 23.6114 17.6614 22.7515 17.6778Z" fill="currentColor"/>
<path d="M23.9738 22.7335L24.4626 20.6952C24.9649 20.5405 25.4555 20.3499 25.9306 20.125L27.7247 21.2665C27.8254 21.3322 27.9462 21.3601 28.0656 21.3452C28.185 21.3303 28.2953 21.2736 28.3768 21.1851L29.5182 20.0436C29.5921 19.9536 29.6389 19.8446 29.6533 19.7291C29.6677 19.6136 29.6491 19.4964 29.5996 19.391L28.4582 17.5974C28.7184 17.1382 28.9108 16.6437 29.0294 16.1294L31.0676 15.6401C31.1803 15.6155 31.2815 15.5541 31.3553 15.4654C31.429 15.3767 31.471 15.266 31.4746 15.1507V13.6008C31.471 13.4856 31.429 13.3748 31.3553 13.2862C31.2815 13.1975 31.1803 13.136 31.0676 13.1115L29.0294 12.6232C28.8748 12.1206 28.6839 11.63 28.4582 11.1552L29.5996 9.36108C29.6663 9.26061 29.6947 9.13958 29.6798 9.01993C29.6649 8.90029 29.6076 8.78996 29.5182 8.70896L28.3768 7.56649C28.2869 7.49264 28.1779 7.4458 28.0625 7.43139C27.9471 7.41699 27.8299 7.43561 27.7247 7.48511L25.9306 8.62656C25.4714 8.36622 24.977 8.1738 24.4626 8.05532L23.9738 6.18037C23.9492 6.06771 23.8877 5.96648 23.7991 5.89275C23.7104 5.81902 23.5997 5.77703 23.4844 5.77344H21.9355C21.8202 5.77685 21.7094 5.81878 21.6207 5.89254C21.532 5.9663 21.4706 6.06763 21.4462 6.18037L20.9568 8.21861C20.4544 8.37345 19.9636 8.564 19.4883 8.78882L17.6947 7.64737C17.5939 7.58149 17.473 7.5535 17.3535 7.56841C17.234 7.58331 17.1237 7.64013 17.0421 7.72876L15.9007 8.87072C15.8268 8.9607 15.78 9.06976 15.7656 9.18526C15.7512 9.30076 15.7698 9.41798 15.8193 9.52334L16.9607 11.3174C16.7011 11.7764 16.509 12.2705 16.3905 12.7844L14.3513 13.2738C14.2386 13.2983 14.1374 13.3598 14.0636 13.4484C13.9899 13.5371 13.9479 13.6478 13.9443 13.7631V15.3125C13.948 15.4277 13.9901 15.5383 14.0638 15.6268C14.1375 15.7154 14.2387 15.7768 14.3513 15.8013L16.3905 16.2902C16.5445 16.7935 16.7349 17.285 16.9602 17.7607L15.8188 19.5548C15.7521 19.6553 15.7237 19.7763 15.7386 19.8959C15.7535 20.0156 15.8109 20.1259 15.9002 20.2069L17.0416 21.3484C17.1316 21.4222 17.2407 21.469 17.3562 21.4834C17.4717 21.4978 17.5889 21.4792 17.6942 21.4297L19.4878 20.2883C19.947 20.5485 20.4415 20.7409 20.9558 20.8595L21.4452 22.8978C21.4695 23.0105 21.531 23.1118 21.6197 23.1856C21.7084 23.2594 21.8192 23.3013 21.9345 23.3047H23.4834C23.7281 23.1414 23.9727 22.9781 23.9727 22.7335M22.3414 22.0813L21.9345 20.1245C21.9011 20.0307 21.8473 19.9455 21.7769 19.8752C21.7065 19.8048 21.6214 19.7509 21.5276 19.7176C20.9235 19.557 20.3462 19.3091 19.8139 18.9815C19.7243 18.9408 19.6271 18.9197 19.5288 18.9197C19.4304 18.9197 19.3332 18.9408 19.2436 18.9815L17.531 20.0416L17.0416 19.5523L18.1017 17.8396C18.1424 17.75 18.1635 17.6528 18.1635 17.5545C18.1635 17.4561 18.1424 17.3589 18.1017 17.2693C17.7894 16.7299 17.5432 16.1549 17.3682 15.5567C17.3348 15.4629 17.281 15.3777 17.2106 15.3073C17.1402 15.2369 17.055 15.1831 16.9612 15.1497L15.0044 14.7428V14.0083L16.9612 13.6013C17.055 13.568 17.1402 13.5141 17.2106 13.4438C17.281 13.3734 17.3348 13.2882 17.3682 13.1944C17.5282 12.5909 17.7753 12.0139 18.1017 11.4817C18.1424 11.3922 18.1635 11.295 18.1635 11.1966C18.1635 11.0982 18.1424 11.001 18.1017 10.9115L17.0416 9.19881L17.531 8.70998L19.2436 9.77005C19.3333 9.81038 19.4305 9.83123 19.5288 9.83123C19.627 9.83123 19.7242 9.81038 19.8139 9.77005C20.3457 9.44282 20.9228 9.19567 21.5265 9.03655C21.6202 9.00293 21.7052 8.94901 21.7756 8.87866C21.8459 8.8083 21.8999 8.72326 21.9335 8.62961L22.3404 6.67225H23.0739L23.4809 8.62961C23.5143 8.72333 23.5682 8.80844 23.6386 8.87881C23.709 8.94918 23.7941 9.00305 23.8878 9.03655C24.4967 9.18043 25.0762 9.42859 25.6005 9.77005C25.6901 9.81038 25.7873 9.83123 25.8856 9.83123C25.9839 9.83123 26.0811 9.81038 26.1707 9.77005L27.888 8.70642L28.3768 9.19525L27.3167 10.91C27.2764 10.9996 27.2555 11.0968 27.2555 11.1951C27.2555 11.2934 27.2764 11.3906 27.3167 11.4802C27.6295 12.0194 27.8758 12.5944 28.0502 13.1929C28.0836 13.2867 28.1374 13.3718 28.2078 13.4422C28.2782 13.5126 28.3634 13.5664 28.4572 13.5998L30.4145 14.0067V14.7413L28.4572 15.1482C28.3634 15.1817 28.2783 15.2356 28.208 15.3059C28.1376 15.3763 28.0837 15.4614 28.0502 15.5551C27.8911 16.1589 27.6439 16.736 27.3167 17.2678C27.2764 17.3575 27.2555 17.4546 27.2555 17.5529C27.2555 17.6512 27.2764 17.7484 27.3167 17.838L28.3768 19.5507L27.888 20.0401L26.1753 18.9815C26.0857 18.9408 25.9885 18.9197 25.8902 18.9197C25.7918 18.9197 25.6946 18.9408 25.6051 18.9815C25.0656 19.2937 24.4905 19.5399 23.8924 19.715C23.7985 19.7483 23.7133 19.802 23.6429 19.8725C23.5725 19.9429 23.5187 20.0281 23.4854 20.122L23.0785 22.0788L22.3414 22.0813Z" fill="currentColor"/>
<path d="M31.2319 36.2696H29.2746V34.6383C29.2658 34.5116 29.2115 34.3923 29.1216 34.3024C29.0318 34.2126 28.9125 34.1583 28.7857 34.1495H23.4035L21.3637 32.682C21.2829 32.6006 21.2015 32.6006 21.0392 32.6006H16.7974C16.6707 32.6094 16.5514 32.6637 16.4615 32.7535C16.3717 32.8434 16.3174 32.9627 16.3086 33.0894V44.4236C16.3086 44.505 16.3086 44.505 16.39 44.5869C16.428 44.6617 16.4864 44.7243 16.5583 44.7676C16.6303 44.8109 16.713 44.833 16.7969 44.8315H28.7857C28.8897 44.8287 28.9908 44.7965 29.0772 44.7387C29.1637 44.681 29.2321 44.5999 29.2746 44.505L31.7207 37.0031C31.7472 36.921 31.7535 36.8337 31.7392 36.7486C31.7248 36.6636 31.6903 36.5832 31.6383 36.5143C31.6004 36.4394 31.5421 36.3767 31.4701 36.3334C31.3981 36.2901 31.3154 36.268 31.2314 36.2696M20.8749 33.5788L22.9126 35.0468C22.994 35.1282 23.0759 35.1282 23.2392 35.1282H28.2949V36.2696H19.325C19.2209 36.2723 19.1197 36.3044 19.0331 36.3622C18.9465 36.42 18.8781 36.5011 18.8357 36.5962L17.3692 41.0806V33.4958L20.8749 33.5788ZM28.3768 43.7709H17.4511L19.5707 37.2478H30.4974L30.0081 38.6334H21.5265C21.3995 38.6375 21.2791 38.6908 21.1907 38.7821C21.1024 38.8734 21.053 38.9954 21.053 39.1225C21.053 39.2495 21.1024 39.3716 21.1907 39.4629C21.2791 39.5541 21.3995 39.6075 21.5265 39.6116H29.6825L28.3768 43.7709Z" fill="currentColor"/>
<path d="M47.5412 36.2692H45.5833V34.6379C45.5744 34.5111 45.52 34.3918 45.4301 34.302C45.3401 34.2121 45.2208 34.1578 45.094 34.1491H40.282V28.5217C40.2736 28.3949 40.2196 28.2755 40.1299 28.1856C40.0402 28.0957 39.9209 28.0414 39.7942 28.0328H23.2406V25.5047C26.3531 25.6044 29.381 24.4815 31.676 22.3765C33.971 20.2715 35.3507 17.3517 35.5198 14.2421C35.6888 11.1325 34.6338 8.08035 32.5805 5.73896C30.5272 3.39757 27.6389 1.95307 24.5339 1.71468C21.4289 1.47629 18.3539 2.46296 15.9673 4.46348C13.5807 6.46399 12.0721 9.31935 11.7645 12.4183C11.4569 15.5172 12.3747 18.6134 14.3214 21.0441C16.2682 23.4747 19.0892 25.0467 22.1805 25.4234V27.9504H6.85024C6.7233 27.9589 6.60375 28.0132 6.51384 28.1032C6.42392 28.1932 6.36976 28.3128 6.36141 28.4398V33.5773L5.05566 32.5996C4.97478 32.5183 4.89237 32.5183 4.72909 32.5183H0.488831C0.362199 32.5271 0.243025 32.5814 0.153216 32.6711C0.0634081 32.7608 0.00900206 32.88 0 33.0066L0 44.3412C0.0332369 44.4351 0.087023 44.5203 0.157428 44.5908C0.227833 44.6612 0.313078 44.7149 0.406935 44.7482H12.4771C12.5811 44.7453 12.6822 44.7132 12.7686 44.6554C12.8551 44.5976 12.9235 44.5166 12.966 44.4216L15.4127 36.9208C15.4323 36.8451 15.4347 36.7659 15.4196 36.6892C15.4045 36.6125 15.3723 36.5401 15.3255 36.4775C15.2787 36.4149 15.2183 36.3636 15.149 36.3274C15.0796 36.2913 15.003 36.2712 14.9248 36.2687H12.966V34.6379C12.9572 34.5111 12.9029 34.3918 12.813 34.302C12.7232 34.2122 12.6039 34.1578 12.4771 34.1491H7.42046V29.0924H22.2624V31.6205C22.2603 31.686 22.2714 31.7513 22.295 31.8125C22.3186 31.8737 22.3543 31.9295 22.3999 31.9766C22.4456 32.0237 22.5002 32.0612 22.5606 32.0868C22.621 32.1124 22.6859 32.1256 22.7515 32.1256C22.8171 32.1256 22.882 32.1124 22.9424 32.0868C23.0028 32.0612 23.0574 32.0237 23.103 31.9766C23.1486 31.9295 23.1843 31.8737 23.208 31.8125C23.2316 31.7513 23.2427 31.686 23.2406 31.6205V29.0924H39.1415V33.9044L37.5906 32.7629C37.5092 32.6815 37.4268 32.6815 37.2635 32.6815H33.0258C32.8988 32.6901 32.7792 32.7443 32.6891 32.8341C32.599 32.924 32.5444 33.0434 32.5355 33.1704V44.5864C32.5355 44.6678 32.6189 44.7497 32.7003 44.8311C32.7322 44.8621 32.7708 44.8856 32.8131 44.8997C32.8553 44.9137 32.9002 44.9181 32.9444 44.9125H45.0116C45.1157 44.9101 45.217 44.8781 45.3037 44.8203C45.3903 44.7625 45.4587 44.6812 45.5009 44.5859L47.9471 37.0841C48.1104 36.5952 47.8672 36.2702 47.5402 36.2702M12.8017 14.4992C12.8013 12.5315 13.3844 10.6079 14.4772 8.97168C15.57 7.33541 17.1236 6.05996 18.9413 5.30663C20.759 4.55329 22.7593 4.35589 24.6893 4.73941C26.6192 5.12292 28.392 6.07012 29.7836 7.46121C31.1752 8.8523 32.123 10.6248 32.5073 12.5546C32.8915 14.4844 32.6948 16.4848 31.9421 18.3028C31.1894 20.1208 29.9145 21.6747 28.2786 22.7682C26.6428 23.8616 24.7194 24.4454 22.7517 24.4457C20.1206 24.4213 17.6042 23.3652 15.7437 21.5047C13.8831 19.6442 12.8271 17.1277 12.8027 14.4966M13.7005 38.634H5.21792C5.09094 38.6381 4.97053 38.6914 4.88215 38.7827C4.79377 38.8739 4.74436 38.996 4.74436 39.1231C4.74436 39.2501 4.79377 39.3722 4.88215 39.4635C4.97053 39.5547 5.09094 39.6081 5.21792 39.6122H13.3739L11.9878 43.6896H1.14247L3.26158 37.166H14.1888L13.7005 38.634ZM11.9028 36.2692H2.93502C2.83097 36.2717 2.72979 36.3038 2.64325 36.3616C2.5567 36.4194 2.48837 36.5006 2.44619 36.5957L0.97817 41.0802V33.4964H4.56683C6.60455 34.9644 6.52367 34.9644 6.68696 34.9644C6.76784 34.9644 6.85024 35.0458 6.93112 35.0458H11.9878V36.2666L11.9028 36.2692ZM33.594 33.5783H37.1837L39.2214 35.0463C39.3038 35.1277 39.3847 35.1277 39.548 35.1277H44.6036V36.2692H35.6343C35.5302 36.2719 35.429 36.304 35.3424 36.3618C35.2558 36.4195 35.1873 36.5007 35.1449 36.5957L33.6784 41.0802L33.594 33.5783ZM44.683 43.7715H33.7593L35.8795 37.2479H46.8067L46.3178 38.634H37.8358C37.7088 38.6381 37.5884 38.6914 37.5 38.7827C37.4116 38.8739 37.3622 38.996 37.3622 39.1231C37.3622 39.2501 37.4116 39.3722 37.5 39.4635C37.5884 39.5547 37.7088 39.6081 37.8358 39.6122H45.9913L44.683 43.7715Z" fill="currentColor"/>
<path d="M4.72988 23.3849C5.46512 23.3849 6.17026 23.0928 6.69015 22.5729C7.21005 22.053 7.50212 21.3479 7.50212 20.6127C7.50212 19.8774 7.21005 19.1723 6.69015 18.6524C6.17026 18.1325 5.46512 17.8404 4.72988 17.8404C4.36491 17.8374 4.00298 17.907 3.66519 18.0453C3.32741 18.1835 3.02053 18.3877 2.76245 18.6457C2.50436 18.9038 2.30024 19.2107 2.16198 19.5485C2.02371 19.8863 1.95408 20.2482 1.95713 20.6132C1.96481 21.3461 2.25944 22.0468 2.7778 22.565C3.29617 23.0831 3.99697 23.3775 4.72988 23.3849ZM4.72988 18.8186C5.08471 18.8186 5.43158 18.9238 5.72661 19.121C6.02165 19.3181 6.2516 19.5983 6.38739 19.9261C6.52318 20.2539 6.55871 20.6147 6.48948 20.9627C6.42026 21.3107 6.24939 21.6304 5.99848 21.8813C5.74758 22.1322 5.4279 22.303 5.07989 22.3723C4.73187 22.4415 4.37114 22.406 4.04332 22.2702C3.71549 22.1344 3.4353 21.9044 3.23816 21.6094C3.04103 21.3144 2.93581 20.9675 2.93581 20.6127C2.94005 20.1382 3.13043 19.6843 3.46597 19.3488C3.80151 19.0132 4.25538 18.8228 4.72988 18.8186Z" fill="currentColor"/>
<path d="M41.4246 14.7418C42.1826 14.7417 42.9235 14.5168 43.5536 14.0956C44.1838 13.6744 44.6749 13.0759 44.9649 12.3756C45.2549 11.6752 45.3306 10.9047 45.1827 10.1613C45.0347 9.41794 44.6696 8.73513 44.1336 8.19925C43.5976 7.66336 42.9147 7.29846 42.1713 7.15069C41.4278 7.00292 40.6573 7.07891 39.9571 7.36906C39.2569 7.65921 38.6584 8.15049 38.2374 8.78077C37.8164 9.41104 37.5917 10.152 37.5918 10.91C37.6046 11.9224 38.0125 12.8898 38.7286 13.6057C39.4447 14.3215 40.4122 14.7292 41.4246 14.7418ZM41.4246 8.05583C42.1507 8.06974 42.8423 8.36793 43.3508 8.88631C43.8594 9.40469 44.1443 10.1019 44.1443 10.8281C44.1443 11.5543 43.8594 12.2515 43.3508 12.7698C42.8423 13.2882 42.1507 13.5864 41.4246 13.6003C41.0641 13.6125 40.7048 13.5518 40.3683 13.422C40.0318 13.2921 39.7249 13.0957 39.4661 12.8445C39.2072 12.5932 39.0017 12.2924 38.8618 11.9599C38.7219 11.6274 38.6505 11.2702 38.6519 10.9095C38.6566 10.1679 38.9478 9.45693 39.4645 8.92505C39.9813 8.39316 40.6835 8.08155 41.4246 8.05532" fill="currentColor"/>
<path d="M1.22276 10.1753C1.36783 10.1753 1.50965 10.2183 1.63027 10.2989C1.75089 10.3795 1.84491 10.4941 1.90042 10.6281C1.95594 10.7621 1.97047 10.9096 1.94216 11.0519C1.91386 11.1942 1.844 11.3249 1.74142 11.4275C1.63884 11.53 1.50814 11.5999 1.36586 11.6282C1.22357 11.6565 1.07609 11.642 0.94206 11.5865C0.80803 11.5309 0.693473 11.4369 0.612875 11.3163C0.532277 11.1957 0.489258 11.0539 0.489258 10.9088C0.489258 10.7143 0.566537 10.5277 0.704095 10.3901C0.841653 10.2526 1.02822 10.1753 1.22276 10.1753Z" fill="currentColor"/>
<path d="M8.31748 4.5498C8.46266 4.5497 8.6046 4.59265 8.72536 4.67323C8.84613 4.7538 8.94029 4.86837 8.99593 5.00245C9.05158 5.13653 9.06622 5.28411 9.038 5.42651C9.00977 5.56892 8.93996 5.69975 8.83738 5.80248C8.73479 5.9052 8.60405 5.9752 8.46169 6.00362C8.31933 6.03204 8.17173 6.01761 8.03757 5.96214C7.90341 5.90668 7.78871 5.81268 7.70797 5.69203C7.62723 5.57138 7.58409 5.4295 7.58398 5.28432C7.58398 5.08969 7.66123 4.90302 7.79876 4.7653C7.93629 4.62758 8.12285 4.55007 8.31748 4.5498Z" fill="currentColor"/>
<path d="M33.2707 2.99951C33.4158 2.99961 33.5577 3.04276 33.6784 3.1235C33.799 3.20424 33.893 3.31894 33.9485 3.4531C34.0039 3.58726 34.0184 3.73485 33.9899 3.87722C33.9615 4.01958 33.8915 4.15032 33.7888 4.2529C33.6861 4.35548 33.5552 4.4253 33.4128 4.45352C33.2704 4.48175 33.1229 4.46711 32.9888 4.41146C32.8547 4.35581 32.7401 4.26165 32.6596 4.14089C32.579 4.02013 32.536 3.87819 32.5361 3.73301C32.5361 3.6366 32.5551 3.54114 32.5921 3.45208C32.629 3.36302 32.6831 3.28211 32.7513 3.21399C32.8196 3.14586 32.9005 3.09186 32.9896 3.05505C33.0787 3.01825 33.1742 2.99938 33.2707 2.99951Z" fill="currentColor"/>
<path d="M44.5226 17.27C44.6676 17.2702 44.8093 17.3134 44.9298 17.3941C45.0503 17.4749 45.1442 17.5895 45.1995 17.7235C45.2549 17.8576 45.2693 18.005 45.2409 18.1472C45.2125 18.2895 45.1425 18.4201 45.0399 18.5225C44.9373 18.625 44.8066 18.6948 44.6643 18.723C44.5221 18.7512 44.3746 18.7366 44.2407 18.6811C44.1067 18.6255 43.9922 18.5315 43.9116 18.4109C43.8311 18.2903 43.7881 18.1485 43.7881 18.0035C43.7882 17.809 43.8655 17.6225 44.0031 17.485C44.1406 17.3475 44.3271 17.2702 44.5216 17.27" fill="currentColor"/>
<path d="M36.8575 21.918C37.0027 21.9179 37.1446 21.9608 37.2654 22.0414C37.3862 22.122 37.4803 22.2365 37.536 22.3706C37.5916 22.5047 37.6063 22.6523 37.578 22.7947C37.5498 22.9371 37.48 23.0679 37.3774 23.1706C37.2748 23.2734 37.1441 23.3434 37.0017 23.3718C36.8594 23.4002 36.7118 23.3858 36.5776 23.3303C36.4434 23.2748 36.3287 23.1808 36.248 23.0602C36.1673 22.9395 36.1241 22.7977 36.124 22.6525C36.124 22.4579 36.2013 22.2712 36.3388 22.1335C36.4763 21.9957 36.6629 21.9182 36.8575 21.918Z" fill="currentColor"/>
<path d="M44.0342 28.0337C44.1795 28.0334 44.3216 28.0762 44.4425 28.1567C44.5634 28.2372 44.6577 28.3517 44.7135 28.4859C44.7693 28.62 44.784 28.7677 44.7558 28.9102C44.7276 29.0526 44.6578 29.1836 44.5552 29.2864C44.4525 29.3891 44.3217 29.4592 44.1792 29.4876C44.0368 29.5159 43.8891 29.5014 43.7549 29.4458C43.6207 29.3902 43.506 29.2961 43.4253 29.1753C43.3447 29.0545 43.3017 28.9125 43.3018 28.7672C43.3018 28.6708 43.3209 28.5754 43.3578 28.4863C43.3948 28.3973 43.4489 28.3164 43.5171 28.2483C43.5853 28.1802 43.6663 28.1262 43.7553 28.0894C43.8444 28.0525 43.9399 28.0336 44.0363 28.0337" fill="currentColor"/>
<path d="M3.26284 27.4624C3.40801 27.4625 3.54989 27.5056 3.67055 27.5864C3.7912 27.6671 3.8852 27.7818 3.94066 27.916C3.99612 28.0501 4.01055 28.1977 3.98213 28.3401C3.95371 28.4825 3.88372 28.6132 3.78099 28.7158C3.67827 28.8184 3.54743 28.8882 3.40503 28.9164C3.26262 28.9446 3.11505 28.93 2.98097 28.8744C2.84688 28.8187 2.73231 28.7245 2.65174 28.6038C2.57117 28.483 2.52822 28.3411 2.52832 28.1959C2.52839 28.0995 2.54744 28.0041 2.58439 27.915C2.62134 27.826 2.67546 27.7451 2.74367 27.677C2.81187 27.6089 2.89283 27.5549 2.98191 27.5181C3.07099 27.4813 3.16645 27.4623 3.26284 27.4624Z" fill="currentColor"/>
</svg>
