<svg width="49" height="48" viewBox="0 0 49 48" fill="none" xmlns="http://www.w3.org/2000/svg">
<path d="M23.9997 24.5925H15.8331C15.7168 24.5925 15.6031 24.5583 15.5062 24.4942C15.4092 24.4301 15.3332 24.3389 15.2876 24.232C15.2421 24.125 15.229 24.0071 15.25 23.8927C15.271 23.7784 15.3251 23.6728 15.4057 23.5889C15.9927 22.9791 16.3874 22.21 16.5407 21.3775C16.6939 20.545 16.5989 19.6858 16.2675 18.9069C15.9362 18.1279 15.383 17.4637 14.6769 16.9967C13.9709 16.5298 13.1431 16.2808 12.2966 16.2808C11.4501 16.2808 10.6223 16.5298 9.91618 16.9967C9.21011 17.4637 8.65695 18.1279 8.32557 18.9069C7.99418 19.6858 7.8992 20.545 8.05245 21.3775C8.2057 22.21 8.6004 22.9791 9.18744 23.5889C9.268 23.6728 9.32214 23.7784 9.34312 23.8927C9.36411 24.0071 9.35101 24.125 9.30547 24.232C9.25992 24.3389 9.18393 24.4301 9.08695 24.4942C8.98998 24.5583 8.8763 24.5925 8.76005 24.5925H0.592776V23.407H7.56738C7.07177 22.5719 6.80607 21.6206 6.7973 20.6496C6.78852 19.6786 7.03698 18.7226 7.51742 17.8787C7.99786 17.0349 8.69315 16.3333 9.53262 15.8452C10.3721 15.3572 11.3258 15.1001 12.2968 15.1001C13.2679 15.1001 14.2216 15.3572 15.0611 15.8452C15.9005 16.3333 16.5958 17.0349 17.0763 17.8787C17.5567 18.7226 17.8052 19.6786 17.7964 20.6496C17.7876 21.6206 17.5219 22.5719 17.0263 23.407H23.407V15.8331C23.407 15.7168 23.4411 15.6031 23.5052 15.5062C23.5693 15.4092 23.6605 15.3332 23.7675 15.2876C23.8744 15.2421 23.9924 15.229 24.1067 15.25C24.2211 15.271 24.3267 15.3251 24.4105 15.4057C25.0204 15.9927 25.7895 16.3874 26.622 16.5407C27.4545 16.6939 28.3137 16.5989 29.0926 16.2675C29.8716 15.9362 30.5358 15.383 31.0028 14.6769C31.4697 13.9709 31.7186 13.1431 31.7186 12.2966C31.7186 11.4501 31.4697 10.6223 31.0028 9.91618C30.5358 9.21011 29.8716 8.65695 29.0926 8.32557C28.3137 7.99418 27.4545 7.8992 26.622 8.05245C25.7895 8.2057 25.0204 8.60041 24.4105 9.18744C24.3267 9.268 24.2211 9.32214 24.1067 9.34313C23.9924 9.36411 23.8744 9.35101 23.7675 9.30547C23.6605 9.25992 23.5693 9.18393 23.5052 9.08696C23.4411 8.98998 23.407 8.8763 23.407 8.76005V1.18555H3.61594C2.97136 1.18555 2.35318 1.44161 1.8974 1.89739C1.44161 2.35318 1.18555 2.97136 1.18555 3.61594V19.4733H0V3.61594C0 2.65693 0.380964 1.7372 1.05908 1.05908C1.7372 0.380965 2.65693 0 3.61594 0H23.9997C24.157 0 24.3077 0.0624526 24.4189 0.17362C24.5301 0.284787 24.5925 0.435562 24.5925 0.592776V7.56738C25.4275 7.07177 26.3789 6.80607 27.3499 6.7973C28.3209 6.78852 29.2769 7.03698 30.1207 7.51742C30.9646 7.99786 31.6662 8.69315 32.1542 9.53262C32.6423 10.3721 32.8994 11.3258 32.8994 12.2968C32.8994 13.2679 32.6423 14.2216 32.1542 15.0611C31.6662 15.9005 30.9646 16.5958 30.1207 17.0763C29.2769 17.5567 28.3209 17.8052 27.3499 17.7964C26.3789 17.7876 25.4275 17.5219 24.5925 17.0263V23.9997C24.5925 24.157 24.5301 24.3077 24.4189 24.4189C24.3077 24.5301 24.157 24.5925 23.9997 24.5925Z" fill="currentColor"/>
<path d="M35.7018 32.8991C34.7309 32.899 33.7774 32.642 32.9382 32.154C32.0989 31.666 31.4038 30.9645 30.9235 30.1208C30.4432 29.2771 30.1948 28.3212 30.2037 27.3505C30.2125 26.3797 30.4782 25.4285 30.9738 24.5937H24.0004C23.8432 24.5937 23.6924 24.5312 23.5812 24.4201C23.47 24.3089 23.4076 24.1581 23.4076 24.0009V15.8331C23.4076 15.7168 23.4418 15.6031 23.5059 15.5062C23.57 15.4092 23.6612 15.3332 23.7681 15.2876C23.8751 15.2421 23.993 15.229 24.1074 15.25C24.2217 15.271 24.3274 15.3251 24.4112 15.4057C25.021 15.9927 25.7901 16.3874 26.6226 16.5407C27.4551 16.6939 28.3143 16.5989 29.0932 16.2675C29.8722 15.9362 30.5365 15.383 31.0034 14.6769C31.4703 13.9709 31.7193 13.1431 31.7193 12.2966C31.7193 11.4501 31.4703 10.6223 31.0034 9.91618C30.5365 9.21011 29.8722 8.65695 29.0932 8.32557C28.3143 7.99418 27.4551 7.8992 26.6226 8.05245C25.7901 8.2057 25.021 8.60041 24.4112 9.18744C24.3273 9.26804 24.2216 9.32219 24.1072 9.34315C23.9928 9.36412 23.8748 9.35097 23.7678 9.30535C23.6609 9.25973 23.5697 9.18365 23.5056 9.08659C23.4416 8.98952 23.4075 8.87575 23.4076 8.75946V0.592776H24.5931V7.56738C25.4282 7.07177 26.3795 6.80607 27.3505 6.7973C28.3215 6.78852 29.2775 7.03698 30.1214 7.51742C30.9652 7.99786 31.6668 8.69315 32.1549 9.53262C32.6429 10.3721 32.9 11.3258 32.9 12.2968C32.9 13.2679 32.6429 14.2216 32.1549 15.0611C31.6668 15.9005 30.9652 16.5958 30.1214 17.0763C29.2775 17.5567 28.3215 17.8052 27.3505 17.7964C26.3795 17.7876 25.4282 17.5219 24.5931 17.0263V23.407H32.1671C32.2833 23.407 32.397 23.4411 32.494 23.5052C32.5909 23.5693 32.6669 23.6605 32.7125 23.7675C32.758 23.8744 32.7711 23.9924 32.7501 24.1068C32.7291 24.2211 32.675 24.3267 32.5944 24.4105C32.0074 25.0204 31.6127 25.7895 31.4594 26.622C31.3062 27.4545 31.4012 28.3137 31.7326 29.0926C32.064 29.8716 32.6171 30.5358 33.3232 31.0028C34.0293 31.4697 34.8571 31.7186 35.7036 31.7186C36.5501 31.7186 37.3779 31.4697 38.0839 31.0028C38.79 30.5358 39.3432 29.8716 39.6745 29.0926C40.0059 28.3137 40.1009 27.4545 39.9477 26.622C39.7944 25.7895 39.3997 25.0204 38.8127 24.4105C38.7321 24.3267 38.678 24.2211 38.657 24.1068C38.636 23.9924 38.6491 23.8744 38.6946 23.7675C38.7402 23.6605 38.8162 23.5693 38.9132 23.5052C39.0101 23.4411 39.1238 23.407 39.2401 23.407H46.8146V3.61594C46.8146 2.97136 46.5585 2.35318 46.1027 1.89739C45.6469 1.44161 45.0288 1.18555 44.3842 1.18555H28.5298V0H44.3871C45.3461 0 46.2659 0.380965 46.944 1.05908C47.6221 1.7372 48.0031 2.65693 48.0031 3.61594V24.0027C48.0031 24.1599 47.9406 24.3107 47.8295 24.4219C47.7183 24.533 47.5675 24.5955 47.4103 24.5955H40.4327C40.915 25.4263 41.1726 26.3684 41.18 27.3291C41.1874 28.2897 40.9445 29.2357 40.4751 30.0739C40.0057 30.9121 39.326 31.6135 38.503 32.1091C37.6801 32.6047 36.7422 32.8774 35.7818 32.9003L35.7018 32.8991Z" fill="currentColor"/>
<path d="M44.3847 47.9993H24.0003C23.8431 47.9993 23.6924 47.9368 23.5812 47.8256C23.47 47.7145 23.4076 47.5637 23.4076 47.4065V40.4319C22.5725 40.9275 21.6212 41.1932 20.6502 41.202C19.6792 41.2107 18.7232 40.9623 17.8793 40.4818C17.0355 40.0014 16.3339 39.3061 15.8458 38.4666C15.3578 37.6272 15.1007 36.6734 15.1007 35.7024C15.1007 34.7314 15.3578 33.7776 15.8458 32.9382C16.3339 32.0987 17.0355 31.4034 17.8793 30.923C18.7232 30.4425 19.6792 30.1941 20.6502 30.2028C21.6212 30.2116 22.5725 30.4773 23.4076 30.9729V23.9995C23.4076 23.8423 23.47 23.6915 23.5812 23.5804C23.6924 23.4692 23.8431 23.4067 24.0003 23.4067H32.167C32.2833 23.4067 32.397 23.4409 32.4939 23.505C32.5909 23.5691 32.6669 23.6603 32.7124 23.7673C32.758 23.8742 32.7711 23.9922 32.7501 24.1065C32.7291 24.2209 32.675 24.3265 32.5944 24.4103C32.0074 25.0202 31.6127 25.7892 31.4594 26.6217C31.3062 27.4543 31.4012 28.3135 31.7325 29.0924C32.0639 29.8713 32.6171 30.5356 33.3232 31.0025C34.0292 31.4695 34.857 31.7184 35.7035 31.7184C36.55 31.7184 37.3778 31.4695 38.0839 31.0025C38.79 30.5356 39.3431 29.8713 39.6745 29.0924C40.0059 28.3135 40.1009 27.4543 39.9476 26.6217C39.7944 25.7892 39.3997 25.0202 38.8126 24.4103C38.7321 24.3265 38.6779 24.2208 38.6569 24.1064C38.636 23.992 38.6491 23.874 38.6947 23.767C38.7404 23.66 38.8164 23.5688 38.9135 23.5048C39.0106 23.4407 39.1243 23.4066 39.2406 23.4067H47.4079V24.5923H40.4327C40.9283 25.4273 41.194 26.3787 41.2028 27.3497C41.2116 28.3207 40.9631 29.2767 40.4827 30.1205C40.0022 30.9644 39.3069 31.666 38.4675 32.154C37.628 32.6421 36.6743 32.8992 35.7032 32.8992C34.7322 32.8992 33.7785 32.6421 32.939 32.154C32.0995 31.666 31.4042 30.9644 30.9238 30.1205C30.4434 29.2767 30.1949 28.3207 30.2037 27.3497C30.2125 26.3787 30.4782 25.4273 30.9738 24.5923H24.5931V32.1662C24.5931 32.2824 24.559 32.3961 24.4949 32.4931C24.4308 32.5901 24.3396 32.6661 24.2326 32.7116C24.1257 32.7572 24.0077 32.7703 23.8933 32.7493C23.779 32.7283 23.6734 32.6741 23.5896 32.5936C22.9796 32.0066 22.2106 31.612 21.3781 31.4588C20.5456 31.3057 19.6865 31.4007 18.9076 31.7321C18.1287 32.0635 17.4645 32.6167 16.9976 33.3227C16.5307 34.0288 16.2818 34.8565 16.2818 35.703C16.2818 36.5495 16.5307 37.3772 16.9976 38.0833C17.4645 38.7893 18.1287 39.3425 18.9076 39.6739C19.6865 40.0053 20.5456 40.1003 21.3781 39.9472C22.2106 39.794 22.9796 39.3994 23.5896 38.8124C23.6734 38.7318 23.779 38.6777 23.8933 38.6567C24.0077 38.6357 24.1257 38.6488 24.2326 38.6944C24.3396 38.7399 24.4308 38.8159 24.4949 38.9129C24.559 39.0099 24.5931 39.1236 24.5931 39.2398V46.8137H44.3847C45.0293 46.8137 45.6475 46.5576 46.1033 46.1019C46.5591 45.6461 46.8151 45.0279 46.8151 44.3833V28.5301H48.0007V44.3863C47.9999 45.3448 47.6186 46.2637 46.9406 46.9412C46.2625 47.6187 45.3432 47.9993 44.3847 47.9993Z" fill="currentColor"/>
<path d="M19.4697 48.0001H3.61594C2.65693 48.0001 1.7372 47.6191 1.05908 46.941C0.380964 46.2629 0 45.3431 0 44.3841L0 23.9997C0 23.8425 0.0624531 23.6917 0.17362 23.5806C0.284787 23.4694 0.435562 23.407 0.592776 23.407H7.56738C7.07177 22.5719 6.80607 21.6206 6.7973 20.6496C6.78852 19.6786 7.03698 18.7226 7.51742 17.8787C7.99786 17.0349 8.69315 16.3333 9.53262 15.8452C10.3721 15.3572 11.3258 15.1001 12.2968 15.1001C13.2679 15.1001 14.2216 15.3572 15.0611 15.8452C15.9005 16.3333 16.5958 17.0349 17.0763 17.8787C17.5567 18.7226 17.8052 19.6786 17.7964 20.6496C17.7876 21.6206 17.5219 22.5719 17.0263 23.407H23.9997C24.157 23.407 24.3077 23.4694 24.4189 23.5806C24.5301 23.6917 24.5925 23.8425 24.5925 23.9997V32.1664C24.5925 32.2827 24.5583 32.3964 24.4942 32.4933C24.4301 32.5903 24.339 32.6663 24.232 32.7118C24.125 32.7574 24.0071 32.7705 23.8927 32.7495C23.7784 32.7285 23.6728 32.6744 23.5889 32.5938C22.979 32.0069 22.21 31.6122 21.3775 31.4591C20.545 31.3059 19.6859 31.4009 18.907 31.7323C18.1281 32.0637 17.4639 32.6169 16.997 33.3229C16.5301 34.029 16.2811 34.8568 16.2811 35.7032C16.2811 36.5497 16.5301 37.3775 16.997 38.0835C17.4639 38.7896 18.1281 39.3427 18.907 39.6741C19.6859 40.0055 20.545 40.1006 21.3775 39.9474C22.21 39.7942 22.979 39.3996 23.5889 38.8126C23.6728 38.7321 23.7784 38.6779 23.8927 38.657C24.0071 38.636 24.125 38.6491 24.232 38.6946C24.339 38.7402 24.4301 38.8161 24.4942 38.9131C24.5583 39.0101 24.5925 39.1238 24.5925 39.24V47.4073H23.407V40.4321C22.5719 40.9277 21.6206 41.1934 20.6496 41.2022C19.6786 41.211 18.7226 40.9625 17.8787 40.4821C17.0349 40.0016 16.3333 39.3063 15.8452 38.4669C15.3572 37.6274 15.1001 36.6737 15.1001 35.7026C15.1001 34.7316 15.3572 33.7779 15.8452 32.9384C16.3333 32.0989 17.0349 31.4036 17.8787 30.9232C18.7226 30.4428 19.6786 30.1943 20.6496 30.2031C21.6206 30.2119 22.5719 30.4775 23.407 30.9732V24.5925H15.8331C15.7168 24.5925 15.6031 24.5583 15.5062 24.4942C15.4092 24.4301 15.3332 24.339 15.2876 24.232C15.2421 24.1251 15.229 24.0071 15.25 23.8927C15.271 23.7784 15.3251 23.6728 15.4057 23.5889C15.9927 22.9791 16.3874 22.21 16.5407 21.3775C16.6939 20.545 16.5989 19.6858 16.2675 18.9069C15.9362 18.1279 15.383 17.4637 14.6769 16.9967C13.9709 16.5298 13.1431 16.2808 12.2966 16.2808C11.4501 16.2808 10.6223 16.5298 9.91618 16.9967C9.21011 17.4637 8.65695 18.1279 8.32557 18.9069C7.99418 19.6858 7.8992 20.545 8.05245 21.3775C8.2057 22.21 8.6004 22.9791 9.18744 23.5889C9.268 23.6728 9.32214 23.7784 9.34312 23.8927C9.36411 24.0071 9.35101 24.1251 9.30547 24.232C9.25992 24.339 9.18393 24.4301 9.08695 24.4942C8.98998 24.5583 8.8763 24.5925 8.76005 24.5925H1.18555V44.3841C1.18555 45.0287 1.44161 45.6469 1.8974 46.1027C2.35318 46.5585 2.97136 46.8145 3.61594 46.8145H19.4697V48.0001Z" fill="currentColor"/>
</svg>
