<svg width="48" height="48" viewBox="0 0 48 48" fill="none" xmlns="http://www.w3.org/2000/svg">
<path d="M46.573 37.8306C46.7318 37.8307 46.887 37.8779 47.019 37.9662C47.151 38.0545 47.2538 38.18 47.3145 38.3267C47.3752 38.4735 47.3909 38.6349 47.3599 38.7907C47.3288 38.9464 47.2522 39.0894 47.1399 39.2016C47.0275 39.3138 46.8844 39.3902 46.7286 39.4211C46.5728 39.452 46.4114 39.436 46.2647 39.3751C46.118 39.3142 45.9927 39.2112 45.9046 39.0792C45.8164 38.9471 45.7694 38.7918 45.7695 38.633C45.7699 38.4201 45.8548 38.2161 46.0054 38.0657C46.156 37.9153 46.3601 37.8307 46.573 37.8306Z" fill="currentColor"/>
<path d="M45.4128 16.6841C45.5715 16.6841 45.7266 16.7311 45.8586 16.8193C45.9905 16.9075 46.0934 17.0328 46.1541 17.1794C46.2148 17.326 46.2307 17.4874 46.1998 17.643C46.1688 17.7987 46.0924 17.9417 45.9802 18.0539C45.8679 18.1661 45.725 18.2425 45.5693 18.2735C45.4137 18.3044 45.2523 18.2886 45.1057 18.2278C44.9591 18.1671 44.8338 18.0642 44.7456 17.9323C44.6574 17.8003 44.6104 17.6452 44.6104 17.4865C44.6104 17.2737 44.6949 17.0696 44.8454 16.9191C44.9959 16.7686 45.2 16.6841 45.4128 16.6841Z" fill="currentColor"/>
<path d="M35.9557 0.535645C36.1144 0.535645 36.2696 0.582705 36.4015 0.670875C36.5335 0.759045 36.6363 0.884365 36.6971 1.03099C36.7578 1.17761 36.7737 1.33895 36.7427 1.4946C36.7118 1.65025 36.6353 1.79323 36.5231 1.90544C36.4109 2.01766 36.2679 2.09409 36.1123 2.12505C35.9566 2.15601 35.7953 2.14012 35.6487 2.07939C35.502 2.01865 35.3767 1.91581 35.2886 1.78385C35.2004 1.65189 35.1533 1.49676 35.1533 1.33805C35.1533 1.23266 35.174 1.12829 35.2143 1.0309C35.2546 0.933521 35.3137 0.845037 35.3882 0.770512C35.4627 0.695988 35.5512 0.636885 35.6486 0.596585C35.746 0.556284 35.8503 0.535576 35.9557 0.535645Z" fill="currentColor"/>
<path d="M9.19011 1.69689e-07C9.34891 -0.000103051 9.50418 0.0468872 9.63628 0.135029C9.76838 0.22317 9.87137 0.348504 9.93224 0.495181C9.99311 0.641858 10.0091 0.803291 9.97823 0.959065C9.94735 1.11484 9.87097 1.25796 9.75876 1.37032C9.64654 1.48269 9.50352 1.55925 9.34778 1.59033C9.19205 1.62142 9.0306 1.60562 8.88384 1.54494C8.73708 1.48427 8.61162 1.38144 8.5233 1.24945C8.43499 1.11747 8.3878 0.962259 8.3877 0.803455C8.38763 0.698012 8.40833 0.593588 8.44862 0.496146C8.4889 0.398703 8.54799 0.31015 8.6225 0.235543C8.69701 0.160935 8.78549 0.101734 8.88288 0.0613195C8.98027 0.020905 9.08466 6.87056e-05 9.19011 1.69689e-07Z" fill="currentColor"/>
<path d="M1.42741 13.3823C1.58622 13.3822 1.74148 13.4292 1.87358 13.5174C2.00568 13.6055 2.10868 13.7308 2.16955 13.8775C2.23041 14.0242 2.24642 14.1856 2.21554 14.3414C2.18466 14.4972 2.10828 14.6403 1.99606 14.7526C1.88384 14.865 1.74082 14.9416 1.58509 14.9727C1.42936 15.0037 1.2679 14.9879 1.12115 14.9273C0.97439 14.8666 0.848922 14.7638 0.760609 14.6318C0.672296 14.4998 0.625103 14.3446 0.625 14.1858C0.624932 14.0803 0.645632 13.9759 0.68592 13.8785C0.726208 13.781 0.785294 13.6925 0.859804 13.6179C0.934315 13.5433 1.02279 13.4841 1.12018 13.4436C1.21757 13.4032 1.32197 13.3824 1.42741 13.3823Z" fill="currentColor"/>
<path d="M10.3493 37.9194C10.5082 37.9193 10.6636 37.9664 10.7957 38.0546C10.9279 38.1429 11.0309 38.2684 11.0917 38.4152C11.1525 38.562 11.1683 38.7236 11.1372 38.8795C11.1061 39.0353 11.0295 39.1784 10.917 39.2907C10.8045 39.4029 10.6613 39.4793 10.5054 39.5101C10.3495 39.5409 10.1879 39.5247 10.0412 39.4636C9.8945 39.4026 9.76921 39.2993 9.68122 39.167C9.59322 39.0347 9.54646 38.8792 9.54688 38.7203C9.54757 38.5078 9.63238 38.3043 9.78275 38.1542C9.93313 38.0041 10.1368 37.9197 10.3493 37.9194Z" fill="currentColor"/>
<path d="M3.65892 44.0747C3.81771 44.0748 3.97289 44.122 4.10487 44.2103C4.23684 44.2986 4.33967 44.424 4.40036 44.5707C4.46106 44.7175 4.47688 44.8789 4.44584 45.0346C4.4148 45.1903 4.33829 45.3333 4.22598 45.4456C4.11366 45.5578 3.97059 45.6342 3.81485 45.6652C3.65911 45.6961 3.4977 45.6802 3.35101 45.6194C3.20433 45.5586 3.07896 45.4557 2.99075 45.3237C2.90255 45.1916 2.85547 45.0364 2.85547 44.8776C2.85547 44.7722 2.87626 44.6677 2.91665 44.5703C2.95704 44.4729 3.01624 44.3844 3.09086 44.3099C3.16548 44.2354 3.25406 44.1763 3.35153 44.136C3.44901 44.0957 3.55346 44.0746 3.65892 44.0747Z" fill="currentColor"/>
<path d="M43.1833 45.6807C43.3421 45.6806 43.4974 45.7276 43.6296 45.8158C43.7617 45.904 43.8647 46.0293 43.9255 46.1761C43.9863 46.3228 44.0023 46.4843 43.9713 46.6401C43.9404 46.7959 43.8639 46.939 43.7516 47.0514C43.6392 47.1637 43.4961 47.2402 43.3403 47.2711C43.1845 47.3021 43.023 47.2861 42.8763 47.2253C42.7295 47.1645 42.6041 47.0615 42.516 46.9294C42.4278 46.7972 42.3808 46.6419 42.3809 46.4831C42.3809 46.2703 42.4654 46.0662 42.6159 45.9157C42.7664 45.7652 42.9705 45.6807 43.1833 45.6807Z" fill="currentColor"/>
<path d="M36.8483 44.521H30.1571V43.9854C30.1477 43.8465 30.0883 43.7157 29.9898 43.6174C29.8912 43.519 29.7603 43.4598 29.6214 43.4508H26.8545V41.7541C26.8454 41.615 26.7861 41.484 26.6875 41.3854C26.589 41.2869 26.4579 41.2275 26.3189 41.2184V38.3643C30.9557 37.8511 35.2198 35.5813 38.2349 32.0214C41.25 28.4614 42.7869 23.8819 42.5299 19.2238C42.2729 14.5657 40.2415 10.183 36.853 6.97644C33.4646 3.76983 28.9767 1.98291 24.3115 1.98291C19.6464 1.98291 15.1584 3.76983 11.77 6.97644C8.38162 10.183 6.35017 14.5657 6.09316 19.2238C5.83615 23.8819 7.37312 28.4614 10.3882 32.0214C13.4033 35.5813 17.6674 37.8511 22.3042 38.3643V41.2195C22.1655 41.2288 22.0348 41.2881 21.9365 41.3864C21.8382 41.4847 21.7789 41.6154 21.7696 41.7541V43.4508H19.0027C18.864 43.4601 18.7333 43.5194 18.635 43.6177C18.5367 43.716 18.4774 43.8467 18.4681 43.9854V44.521H11.7763C11.3319 44.5288 10.9084 44.7108 10.5969 45.0278C10.2854 45.3448 10.1109 45.7715 10.1109 46.2159C10.1109 46.6603 10.2854 47.087 10.5969 47.404C10.9084 47.721 11.3319 47.903 11.7763 47.9108H36.8483C37.0709 47.9109 37.2914 47.8672 37.497 47.7821C37.7027 47.6969 37.8895 47.5721 38.0469 47.4147C38.2043 47.2573 38.3291 47.0705 38.4142 46.8648C38.4994 46.6592 38.5431 46.4387 38.543 46.2162C38.5132 45.7765 38.3251 45.3625 38.0135 45.0508C37.702 44.7392 37.288 44.5509 36.8483 44.521ZM7.13881 20.7886H11.5988C11.6597 23.9113 12.295 26.996 13.473 29.8886C12.7495 30.4043 12.0635 30.9708 11.4202 31.5838C8.80267 28.5796 7.292 24.7702 7.13933 20.7886M11.5106 8.92261C12.1538 9.53518 12.8394 10.1016 13.5623 10.6177C12.3676 13.5053 11.7315 16.5932 11.6875 19.7178H7.226C7.29813 15.7192 8.82037 11.8828 11.5095 8.92261M36.9376 8.92261C39.6127 11.8916 41.1326 15.7225 41.2206 19.7178H36.7575C36.6974 16.5952 36.0624 13.5103 34.8843 10.6177C35.6085 10.1017 36.2953 9.53527 36.9397 8.92261M36.9397 31.5838C36.2957 30.9715 35.6096 30.405 34.8864 29.8886C36.0822 27.0015 36.7179 23.9133 36.7596 20.7886H41.2206C41.1499 24.787 39.6285 28.6235 36.9397 31.5838ZM17.2198 20.7886C17.2101 23.0597 17.3889 25.3276 17.7544 27.5691C16.5942 28.0086 15.4871 28.5773 14.454 29.2643C13.328 26.6119 12.7514 23.7588 12.7588 20.8773L17.2198 20.7886ZM23.6443 3.29948V12.9362C22.0714 12.8503 20.514 12.5806 19.0037 12.1328C19.9857 7.13664 21.8589 3.83616 23.6443 3.30052M29.4429 12.2231C27.933 12.6708 26.3759 12.9404 24.8033 13.0265V3.30156C26.5877 3.8372 28.4619 7.13768 29.4429 12.2231ZM35.6868 20.7886C35.6242 23.6627 35.0502 26.5027 33.9916 29.1755C32.9383 28.5229 31.8342 27.9561 30.6901 27.4804C31.0564 25.2388 31.2359 22.9706 31.2268 20.6993H35.6868V20.7886ZM33.4576 30.2457C31.9399 33.3687 29.7989 35.599 27.2116 36.6702C28.9067 34.6175 29.8882 31.317 30.4228 28.6399C31.4878 29.0675 32.5049 29.6058 33.4576 30.2457ZM29.6214 27.212C28.0522 26.7577 26.4351 26.4884 24.8033 26.4096V20.7886H30.1571C30.0659 23.109 29.8873 25.2494 29.6214 27.2099M24.8033 19.7178V14.0968C26.4351 14.018 28.0522 13.7487 29.6214 13.2944C29.8884 15.2566 30.0669 17.3971 30.1571 19.7157L24.8033 19.7178ZM23.6443 14.0968V19.7178H18.2895C18.2759 17.5657 18.4551 15.4166 18.8252 13.2965C20.3948 13.7509 22.0122 14.0202 23.6443 14.0989M23.6443 20.7901V26.4091C22.0118 26.4878 20.3941 26.7573 18.8241 27.212C18.5572 25.2498 18.3786 23.1093 18.2885 20.7907L23.6443 20.7901ZM17.9335 28.7286C18.4691 31.317 19.4475 34.7068 21.1458 36.7585C18.6477 35.6882 16.4174 33.3687 14.9008 30.3371C15.8222 29.6476 16.8454 29.1059 17.9335 28.7312M19.0037 28.2859C20.514 27.8381 22.0714 27.5684 23.6443 27.4825V37.2048C21.8589 36.6702 19.9857 33.3687 19.0037 28.2833M24.8033 27.5691C26.3759 27.6553 27.933 27.9249 29.4429 28.3726C28.4619 33.458 26.676 36.7585 24.8033 37.2941V27.5691ZM34.438 30.8706C35.0439 31.328 35.6112 31.8343 36.1342 32.3846C34.4513 34.0277 32.4459 35.3039 30.2448 36.1325C32.0179 34.7128 33.4507 32.9142 34.438 30.8686M35.6868 19.7178H31.2268C31.2365 17.4464 31.0577 15.1781 30.6922 12.9362C31.8529 12.4971 32.9604 11.9285 33.9937 11.2411C35.0426 13.9479 35.6154 16.8158 35.6868 19.7178ZM30.4233 11.7778C29.8887 9.19043 28.9073 5.79963 27.2121 3.74793C29.7102 4.81816 31.9404 7.13768 33.4581 10.1693C32.5472 10.8764 31.5203 11.4198 30.4233 11.7752M17.9335 11.7752C16.8778 11.3289 15.8629 10.7916 14.9003 10.1693C16.4174 7.04945 18.5584 4.81816 21.1458 3.74793C19.4506 5.88838 18.4691 9.19043 17.9335 11.7778M17.755 12.9362C17.3892 15.1781 17.2102 17.4464 17.2198 19.7178H12.7588C12.8205 16.8436 13.3946 14.0035 14.454 11.3309C15.5088 11.9549 16.6128 12.4918 17.755 12.9362ZM14.0076 30.8706C14.9638 32.911 16.3667 34.7101 18.1126 36.1346C15.9288 35.2719 13.93 33.9998 12.2237 32.3867C12.8502 31.8521 13.3832 31.4058 14.0076 30.8727M36.1342 8.12125C35.5975 8.65688 34.9747 9.19252 34.438 9.63784C33.4291 7.57975 32.0008 5.75556 30.2448 4.28252C32.4615 5.12171 34.4705 6.43032 36.1342 8.11864M14.0076 9.63575C13.4015 9.17808 12.8345 8.6708 12.3125 8.11916C13.995 6.47842 15.9987 5.20346 18.1977 4.3744C16.4012 5.77045 14.9638 7.57509 14.005 9.63836M23.4648 38.3643H25.1599V41.1313H23.4648V38.3643ZM11.1535 46.2167C11.1625 46.0778 11.2216 45.947 11.3199 45.8485C11.4181 45.75 11.5487 45.6905 11.6875 45.681H18.3799V46.8405H11.6875C11.5413 46.8108 11.4093 46.7329 11.3125 46.6194C11.2157 46.5058 11.1597 46.3631 11.1535 46.2141M19.5383 44.521H22.3053C22.4441 44.5117 22.5749 44.4522 22.6733 44.3537C22.7716 44.2552 22.8308 44.1243 22.8398 43.9854V42.2908H25.6068V43.9854C25.6159 44.1245 25.6752 44.2555 25.7738 44.354C25.8723 44.4526 26.0033 44.5119 26.1424 44.521H28.9093V46.7513H19.5383V44.521ZM36.8483 46.7513H30.1571V45.5918H36.8483C36.9872 45.6011 37.118 45.6605 37.2164 45.7591C37.3147 45.8576 37.3739 45.9885 37.3829 46.1274C37.3829 46.5727 37.1162 46.7539 36.8483 46.7539" fill="currentColor"/>
<path d="M3.03416 30.0665C2.22971 30.0665 1.45821 30.3861 0.889375 30.9549C0.320543 31.5238 0.000976563 32.2953 0.000976562 33.0997C0.000976563 33.9042 0.320543 34.6757 0.889375 35.2445C1.45821 35.8133 2.22971 36.1329 3.03416 36.1329C3.43348 36.1362 3.82947 36.0601 4.19905 35.9088C4.56862 35.7575 4.90439 35.5342 5.18676 35.2518C5.46913 34.9694 5.69247 34.6337 5.84374 34.2641C5.99502 33.8945 6.07121 33.4985 6.06787 33.0992C6.07873 32.6979 6.00768 32.2986 5.85905 31.9257C5.71043 31.5528 5.48735 31.214 5.20343 30.9302C4.91952 30.6464 4.58073 30.4234 4.20776 30.2749C3.83478 30.1264 3.43546 30.0555 3.03416 30.0665ZM3.03416 35.0627C2.77372 35.0669 2.51504 35.0193 2.2732 34.9226C2.03135 34.8258 1.81117 34.6819 1.62549 34.4993C1.43982 34.3166 1.29235 34.0988 1.19169 33.8586C1.09103 33.6183 1.03919 33.3605 1.03919 33.1C1.03919 32.8395 1.09103 32.5816 1.19169 32.3414C1.29235 32.1012 1.43982 31.8834 1.62549 31.7007C1.81117 31.518 2.03135 31.3741 2.2732 31.2774C2.51504 31.1807 2.77372 31.133 3.03416 31.1373C3.2946 31.133 3.55328 31.1807 3.79512 31.2774C4.03697 31.3741 4.25715 31.518 4.44283 31.7007C4.6285 31.8834 4.77597 32.1012 4.87663 32.3414C4.97729 32.5816 5.02913 32.8395 5.02913 33.1C5.02913 33.3605 4.97729 33.6183 4.87663 33.8586C4.77597 34.0988 4.6285 34.3166 4.44283 34.4993C4.25715 34.6819 4.03697 34.8258 3.79512 34.9226C3.55328 35.0193 3.2946 35.0669 3.03416 35.0627Z" fill="currentColor"/>
<path d="M47.9997 6.06673C47.9997 5.02572 47.5861 4.02735 46.85 3.29124C46.1139 2.55514 45.1155 2.1416 44.0745 2.1416C43.0335 2.1416 42.0352 2.55514 41.2991 3.29124C40.563 4.02735 40.1494 5.02572 40.1494 6.06673C40.1494 7.10774 40.563 8.10611 41.2991 8.84221C42.0352 9.57832 43.0335 9.99186 44.0745 9.99186C45.1155 9.99186 46.1139 9.57832 46.85 8.84221C47.5861 8.10611 47.9997 7.10774 47.9997 6.06673ZM44.0743 8.83366C43.527 8.83366 42.9921 8.67138 42.5371 8.36735C42.082 8.06331 41.7274 7.63118 41.518 7.12559C41.3085 6.62 41.2538 6.06366 41.3605 5.52693C41.4673 4.9902 41.7308 4.49718 42.1178 4.11021C42.5047 3.72325 42.9977 3.45973 43.5345 3.35296C44.0712 3.2462 44.6275 3.30099 45.1331 3.51042C45.6387 3.71984 46.0709 4.07448 46.3749 4.5295C46.6789 4.98452 46.8412 5.51948 46.8412 6.06673C46.8379 6.79955 46.5453 7.50142 46.0272 8.0196C45.509 8.53779 44.8071 8.83036 44.0743 8.83366Z" fill="currentColor"/>
</svg>
