<svg width="48" height="48" viewBox="0 0 48 48" fill="none" xmlns="http://www.w3.org/2000/svg">
<path d="M27.0507 44.8041H21.7805C21.6717 44.8039 21.5674 44.7606 21.4905 44.6836C21.4136 44.6066 21.3704 44.5022 21.3704 44.3934V40.2108C20.2697 40.023 19.1886 39.7341 18.1408 39.3478L16.0487 42.9647C15.9942 43.0587 15.9046 43.1273 15.7996 43.1555C15.6946 43.1837 15.5827 43.1691 15.4884 43.115L10.925 40.4853C10.8308 40.4306 10.7621 40.3408 10.7339 40.2356C10.7058 40.1304 10.7204 40.0183 10.7748 39.9239L12.8674 36.2989C12.0097 35.5854 11.2194 34.7947 10.5063 33.9366L6.8818 36.0315C6.83509 36.0585 6.78351 36.076 6.73002 36.083C6.67653 36.0901 6.62217 36.0865 6.57007 36.0725C6.51797 36.0585 6.46914 36.0343 6.42639 36.0014C6.38364 35.9685 6.3478 35.9275 6.32093 35.8807L3.68693 31.3194C3.63245 31.2252 3.61761 31.1132 3.64568 31.008C3.67376 30.9028 3.74244 30.8131 3.83664 30.7586L7.45785 28.6719C7.07161 27.6243 6.78255 26.5434 6.59431 25.4428H2.41061C2.30176 25.4427 2.1974 25.3994 2.12042 25.3224C2.04345 25.2454 2.00014 25.1411 2 25.0322V19.7707C2.00014 19.6619 2.04345 19.5575 2.12042 19.4805C2.1974 19.4036 2.30176 19.3603 2.41061 19.3601H6.59648C6.78296 18.2607 7.07133 17.1809 7.45785 16.1349L3.8361 14.0422C3.74199 13.9876 3.67342 13.8978 3.64545 13.7927C3.61748 13.6875 3.6324 13.5755 3.68693 13.4814L6.31985 8.92013C6.37451 8.82576 6.46439 8.75694 6.56975 8.72877C6.6751 8.7006 6.78733 8.71539 6.8818 8.76988L10.5095 10.8647C11.2223 10.0066 12.0127 9.21603 12.8707 8.50301L10.7769 4.87746C10.7226 4.78304 10.7079 4.67094 10.7361 4.56572C10.7642 4.46049 10.833 4.37072 10.9272 4.31605L15.4906 1.68585C15.5372 1.65885 15.5888 1.64134 15.6422 1.63431C15.6957 1.62728 15.75 1.63088 15.802 1.64489C15.8541 1.6589 15.9029 1.68305 15.9456 1.71595C15.9883 1.74886 16.0241 1.78987 16.0509 1.83664L18.1408 5.45405C19.1882 5.0672 20.2694 4.77918 21.3704 4.59377V0.410071C21.3706 0.301357 21.4138 0.197138 21.4907 0.120266C21.5676 0.0433934 21.6718 0.000143516 21.7805 0L27.0507 0C27.1595 -9.49373e-08 27.2638 0.0431864 27.3408 0.120074C27.4178 0.196962 27.4611 0.301264 27.4613 0.410071V4.59377C28.5618 4.77918 29.6425 5.06719 30.6892 5.45405L32.7808 1.83664C32.8353 1.74222 32.925 1.67329 33.0303 1.64502C33.1356 1.61674 33.2478 1.63143 33.3422 1.68585L37.9083 4.31605C38.0023 4.37068 38.0709 4.46014 38.0993 4.56502C38.1135 4.6172 38.1172 4.67169 38.1103 4.72532C38.1033 4.77896 38.0857 4.83067 38.0586 4.87746L35.961 8.50301C36.8197 9.21613 37.611 10.0067 38.3249 10.8647L41.9488 8.76988C42.0432 8.71558 42.1552 8.70091 42.2603 8.72908C42.3655 8.75724 42.4551 8.82595 42.5097 8.92013L45.1448 13.4814C45.172 13.528 45.1897 13.5795 45.1969 13.633C45.2041 13.6864 45.2006 13.7408 45.1867 13.793C45.1728 13.8451 45.1487 13.894 45.1158 13.9367C45.0829 13.9795 45.0419 14.0154 44.9951 14.0422L41.3717 16.1322C41.7607 17.1778 42.05 18.2579 42.2358 19.358H46.4189C46.5278 19.358 46.6323 19.4012 46.7093 19.4782C46.7863 19.5552 46.8295 19.6597 46.8295 19.7686V25.0301C46.8295 25.139 46.7863 25.2434 46.7093 25.3204C46.6323 25.3974 46.5278 25.4407 46.4189 25.4407H42.2352C42.0478 26.5415 41.7586 27.6225 41.3711 28.6697L44.9951 30.7564C45.0418 30.7833 45.0828 30.8192 45.1156 30.862C45.1485 30.9048 45.1726 30.9536 45.1865 31.0057C45.2004 31.0578 45.2039 31.1122 45.1967 31.1657C45.1895 31.2191 45.1719 31.2706 45.1448 31.3173L42.5097 35.8785C42.4829 35.9253 42.4471 35.9664 42.4043 35.9994C42.3616 36.0323 42.3127 36.0565 42.2606 36.0705C42.2085 36.0845 42.1541 36.0881 42.1006 36.081C42.0471 36.074 41.9955 36.0564 41.9488 36.0293L38.3249 33.9345C37.6103 34.7922 36.8191 35.583 35.961 36.2972L38.0564 39.9223C38.1108 40.0168 38.1255 40.1289 38.0973 40.2342C38.0691 40.3396 38.0004 40.4294 37.9062 40.4842L33.3422 43.1139C33.2478 43.168 33.1357 43.1826 33.0305 43.1545C32.9254 43.1263 32.8356 43.0577 32.7808 42.9636L30.6892 39.3473C29.6421 39.7339 28.5616 40.023 27.4613 40.2108V44.3913C27.4613 44.5002 27.418 44.6046 27.341 44.6816C27.264 44.7586 27.1596 44.8019 27.0507 44.8019M22.1922 43.9807H26.6401V39.8582C26.6401 39.76 26.6754 39.6651 26.7395 39.5906C26.8036 39.5162 26.8922 39.4672 26.9894 39.4525C28.2664 39.2607 29.5179 38.9259 30.7202 38.4545C30.8116 38.4188 30.9129 38.417 31.0055 38.4496C31.0982 38.4821 31.1761 38.5468 31.2251 38.6318L33.2864 42.1966L37.1375 39.977L35.0725 36.4046C35.0235 36.3195 35.0066 36.2196 35.0249 36.1231C35.0432 36.0265 35.0955 35.9397 35.1724 35.8785C36.1823 35.0729 37.0999 34.1579 37.9083 33.1501C37.9695 33.0734 38.0561 33.0213 38.1525 33.0032C38.2489 32.9851 38.3486 33.0022 38.4334 33.0514L42.0052 35.1126L44.2292 31.2614L40.6584 29.2089C40.5731 29.1598 40.5083 29.0817 40.4757 28.9888C40.4431 28.8959 40.445 28.7944 40.481 28.7028C40.9522 27.5002 41.2872 26.2486 41.4796 24.9715C41.4941 24.8742 41.543 24.7854 41.6175 24.7211C41.6919 24.6569 41.787 24.6216 41.8854 24.6216H46.0078V20.1781H41.8854C41.7868 20.1782 41.6916 20.1429 41.617 20.0786C41.5424 20.0142 41.4934 19.9252 41.4791 19.8277C41.2894 18.5516 40.9548 17.3014 40.4816 16.1013C40.4454 16.0097 40.4434 15.9082 40.4758 15.8153C40.5083 15.7224 40.5731 15.6443 40.6584 15.5952L44.2292 13.534L42.0052 9.68277L38.4334 11.744C38.3486 11.7932 38.2489 11.8103 38.1525 11.7922C38.0561 11.7741 37.9695 11.7219 37.9083 11.6453C37.1007 10.6369 36.1841 9.72095 35.1751 8.91416C35.0984 8.85277 35.0463 8.76597 35.028 8.66946C35.0098 8.57295 35.0268 8.47311 35.0758 8.38801L37.1397 4.82213L33.2869 2.60363L31.2257 6.16842C31.1766 6.25347 31.0987 6.3181 31.006 6.35055C30.9133 6.383 30.8121 6.38112 30.7207 6.34525C29.5191 5.87398 28.2678 5.54078 26.991 5.35208C26.8936 5.33753 26.8047 5.28852 26.7404 5.21397C26.6761 5.13941 26.6407 5.04426 26.6406 4.9458V0.823397H22.1927V4.9458C22.1925 5.04439 22.1569 5.13961 22.0924 5.21417C22.0279 5.28873 21.9388 5.33766 21.8412 5.35208C20.5638 5.54109 19.312 5.87465 18.1099 6.34634C18.0184 6.38223 17.9171 6.38413 17.8244 6.35169C17.7316 6.31924 17.6536 6.2546 17.6044 6.16951L15.5448 2.60363L11.6936 4.82322L13.7548 8.39506C13.8041 8.48002 13.8213 8.5798 13.8032 8.67633C13.7852 8.77286 13.7332 8.85974 13.6566 8.92121C12.6487 9.72767 11.7331 10.6433 10.9266 11.6512C10.8657 11.7283 10.779 11.7808 10.6824 11.7992C10.5859 11.8175 10.486 11.8004 10.401 11.751L6.82755 9.68657L4.60363 13.5378L8.17276 15.599C8.25791 15.6482 8.32261 15.7263 8.35515 15.8192C8.38768 15.912 8.3859 16.0134 8.35013 16.105C7.87843 17.3058 7.54416 18.5561 7.3537 19.832C7.33925 19.9294 7.29026 20.0183 7.21566 20.0826C7.14107 20.1468 7.04587 20.182 6.94743 20.1819H2.82123V24.6243H6.94363C7.04204 24.6243 7.13719 24.6596 7.21175 24.7238C7.28632 24.788 7.33535 24.8769 7.34991 24.9742C7.54089 26.2516 7.8757 27.5033 8.34796 28.7055C8.38373 28.7971 8.38551 28.8986 8.35298 28.9914C8.32044 29.0842 8.25574 29.1623 8.17059 29.2116L4.60363 31.2652L6.82755 35.1164L10.4027 33.0552C10.4876 33.0059 10.5874 32.9888 10.6839 33.007C10.7804 33.0252 10.8672 33.0776 10.9283 33.1545C11.7342 34.1629 12.6498 35.0786 13.6583 35.8845C13.7348 35.946 13.7867 36.0329 13.8047 36.1294C13.8227 36.2259 13.8056 36.3256 13.7565 36.4106L11.6952 39.9825L15.5464 42.2026L17.6076 38.6378C17.6563 38.553 17.7336 38.4882 17.8256 38.4552C17.9177 38.4222 18.0185 38.4231 18.1099 38.4577C19.3126 38.9291 20.5644 39.2639 21.8418 39.4558C21.9391 39.4702 22.028 39.5191 22.0923 39.5936C22.1567 39.668 22.1921 39.7631 22.1922 39.8615V43.9807Z" fill="currentColor"/>
<path d="M24.4147 34.3735C22.0472 34.3715 19.7335 33.6676 17.7659 32.3508C15.7984 31.034 14.2654 29.1635 13.3607 26.9757C12.4561 24.7878 12.2203 22.3809 12.6833 20.0591C13.1464 17.7373 14.2873 15.6049 15.962 13.9314C17.6367 12.258 19.7699 11.1186 22.092 10.6572C24.4142 10.1959 26.8209 10.4334 29.0081 11.3396C31.1953 12.2459 33.0647 13.7802 34.38 15.7487C35.6954 17.7172 36.3976 20.0315 36.3979 22.399C36.3935 25.575 35.1292 28.6195 32.8827 30.8644C30.6361 33.1093 27.5907 34.3713 24.4147 34.3735ZM24.4147 11.249C22.2095 11.2509 20.0543 11.9066 18.2217 13.1332C16.3891 14.3598 14.9612 16.1022 14.1188 18.1402C13.2763 20.1782 13.0569 22.4202 13.4884 24.5828C13.9199 26.7454 14.983 28.7315 16.5431 30.29C18.1032 31.8486 20.0904 32.9096 22.2535 33.3389C24.4165 33.7682 26.6583 33.5466 28.6954 32.702C30.7325 31.8574 32.4735 30.4278 33.6982 28.5939C34.9229 26.7601 35.5765 24.6042 35.5761 22.399C35.5714 19.4413 34.3936 16.6063 32.3011 14.5159C30.2086 12.4256 27.3724 11.2507 24.4147 11.249Z" fill="currentColor"/>
<path d="M26.897 29.8332H21.9366C21.8826 29.8331 21.8292 29.8223 21.7794 29.8015C21.7296 29.7807 21.6844 29.7503 21.6464 29.712C21.6083 29.6737 21.5782 29.6283 21.5577 29.5784C21.5373 29.5284 21.5268 29.475 21.527 29.421V25.2894H17.3905C17.2817 25.2892 17.1774 25.2459 17.1005 25.1689C17.0237 25.0919 16.9805 24.9876 16.9805 24.8787V19.9221C16.9804 19.8682 16.9909 19.8148 17.0115 19.7649C17.0321 19.7151 17.0623 19.6698 17.1004 19.6316C17.1384 19.5934 17.1837 19.5631 17.2334 19.5424C17.2832 19.5217 17.3366 19.511 17.3905 19.5109H21.527V15.3804C21.527 15.3264 21.5375 15.273 21.5581 15.2231C21.5788 15.1732 21.609 15.1279 21.6471 15.0897C21.6853 15.0515 21.7306 15.0212 21.7804 15.0005C21.8303 14.9799 21.8837 14.9692 21.9377 14.9692H26.897C26.951 14.9692 27.0044 14.9799 27.0543 15.0005C27.1041 15.0212 27.1494 15.0515 27.1876 15.0897C27.2257 15.1279 27.2559 15.1732 27.2765 15.2231C27.2971 15.273 27.3077 15.3264 27.3076 15.3804V19.5109H31.442C31.4959 19.5109 31.5493 19.5216 31.5992 19.5423C31.649 19.5629 31.6942 19.5932 31.7323 19.6314C31.7704 19.6696 31.8006 19.715 31.8211 19.7648C31.8417 19.8147 31.8522 19.8682 31.8521 19.9221V24.8787C31.8521 24.9326 31.8416 24.986 31.821 25.0358C31.8004 25.0857 31.7702 25.1309 31.7321 25.1691C31.6941 25.2072 31.6488 25.2374 31.599 25.2581C31.5492 25.2787 31.4959 25.2894 31.442 25.2894H27.3076V29.421C27.3079 29.475 27.2974 29.5286 27.2769 29.5786C27.2563 29.6286 27.2261 29.6741 27.188 29.7124C27.1498 29.7507 27.1045 29.7811 27.0545 29.8018C27.0046 29.8226 26.9511 29.8332 26.897 29.8332ZM22.3472 29.012H26.4859V24.8787C26.4859 24.8248 26.4966 24.7714 26.5173 24.7217C26.538 24.6719 26.5683 24.6266 26.6065 24.5886C26.6447 24.5505 26.69 24.5203 26.7399 24.4997C26.7897 24.4792 26.8431 24.4686 26.897 24.4687H31.0314V20.3322H26.897C26.7882 20.3322 26.6838 20.289 26.6067 20.2121C26.5296 20.1353 26.4862 20.031 26.4859 19.9221V15.7905H22.3472V19.9221C22.347 20.0309 22.3037 20.1352 22.2267 20.2121C22.1497 20.289 22.0454 20.3322 21.9366 20.3322H17.8017V24.4687H21.9366C21.9905 24.4686 22.0439 24.4792 22.0937 24.4997C22.1435 24.5203 22.1888 24.5505 22.2269 24.5886C22.265 24.6267 22.2953 24.6719 22.3159 24.7217C22.3366 24.7715 22.3472 24.8248 22.3472 24.8787V29.012Z" fill="currentColor"/>
<path d="M40.8913 44.8041H7.93698C7.82808 44.8041 7.72364 44.7609 7.64663 44.6839C7.56963 44.6069 7.52637 44.5024 7.52637 44.3935C7.52637 44.2846 7.56963 44.1802 7.64663 44.1032C7.72364 44.0262 7.82808 43.9829 7.93698 43.9829H40.8913C41.0002 43.9829 41.1046 44.0262 41.1816 44.1032C41.2586 44.1802 41.3019 44.2846 41.3019 44.3935C41.3019 44.5024 41.2586 44.6069 41.1816 44.6839C41.1046 44.7609 41.0002 44.8041 40.8913 44.8041Z" fill="currentColor"/>
<path d="M32.991 47.9999H15.8413C15.7324 47.9999 15.6279 47.9567 15.5509 47.8797C15.4739 47.8027 15.4307 47.6982 15.4307 47.5893C15.4307 47.4804 15.4739 47.376 15.5509 47.299C15.6279 47.222 15.7324 47.1787 15.8413 47.1787H32.991C33.0999 47.1787 33.2044 47.222 33.2814 47.299C33.3584 47.376 33.4016 47.4804 33.4016 47.5893C33.4016 47.6982 33.3584 47.8027 33.2814 47.8797C33.2044 47.9567 33.0999 47.9999 32.991 47.9999Z" fill="currentColor"/>
</svg>
