<svg width="48" height="48" viewBox="0 0 48 48" fill="none" xmlns="http://www.w3.org/2000/svg">
<path d="M24.0026 35.9593C21.6336 35.9579 19.3182 35.2541 17.3492 33.937C15.3801 32.6198 13.8457 30.7484 12.9401 28.5593C12.0345 26.3703 11.7983 23.9618 12.2613 21.6385C12.7243 19.3152 13.8658 17.1813 15.5415 15.5067C17.2171 13.832 19.3516 12.6918 21.6752 12.2302C23.9988 11.7685 26.4071 12.0061 28.5956 12.913C30.7842 13.8199 32.6547 15.3554 33.9707 17.3252C35.2867 19.2951 35.9891 21.6109 35.9891 23.9799C35.9845 27.1568 34.7199 30.2022 32.4728 32.448C30.2257 34.6938 27.1796 35.9566 24.0026 35.9593ZM24.0026 12.825C21.7963 12.8268 19.6401 13.4827 17.8065 14.7098C15.973 15.9369 14.5444 17.68 13.7013 19.7189C12.8583 21.7578 12.6387 24.0009 13.0703 26.1645C13.5019 28.3282 14.5653 30.3154 16.126 31.8748C17.6868 33.4342 19.6749 34.4958 21.8389 34.9255C24.003 35.3552 26.2458 35.1337 28.284 34.2888C30.3221 33.444 32.0641 32.0139 33.2895 30.1793C34.515 28.3446 35.1691 26.1878 35.169 23.9815C35.1641 21.0224 33.9857 18.1861 31.8924 16.0946C29.7991 14.0031 26.9617 12.8272 24.0026 12.825Z" fill="currentColor"/>
<path d="M25.6573 32.5635H22.3442C22.2903 32.5636 22.2369 32.553 22.187 32.5324C22.1372 32.5118 22.0919 32.4816 22.0537 32.4435C22.0156 32.4054 21.9853 32.3602 21.9646 32.3103C21.944 32.2605 21.9334 32.2071 21.9334 32.1532V26.0491H15.8255C15.7715 26.0492 15.7181 26.0386 15.6682 26.018C15.6183 25.9975 15.573 25.9672 15.5348 25.9291C15.4966 25.891 15.4663 25.8458 15.4455 25.796C15.4248 25.7461 15.4141 25.6927 15.4141 25.6388V22.3279C15.4141 22.2739 15.4247 22.2204 15.4454 22.1705C15.4661 22.1207 15.4964 22.0753 15.5346 22.0372C15.5728 21.999 15.6182 21.9688 15.6681 21.9481C15.718 21.9275 15.7715 21.917 15.8255 21.917H21.9334V15.8092C21.9334 15.7553 21.9441 15.702 21.9648 15.6522C21.9855 15.6025 22.0158 15.5574 22.054 15.5194C22.0921 15.4813 22.1374 15.4512 22.1872 15.4307C22.237 15.4102 22.2904 15.3998 22.3442 15.3999H25.6573C25.7111 15.3998 25.7644 15.4104 25.8141 15.4309C25.8639 15.4514 25.9091 15.4815 25.9472 15.5195C25.9853 15.5575 26.0155 15.6027 26.0362 15.6524C26.0569 15.7021 26.0675 15.7553 26.0676 15.8092V21.917H32.1766C32.2305 21.917 32.2839 21.9277 32.3337 21.9483C32.3835 21.969 32.4288 21.9992 32.4669 22.0374C32.505 22.0756 32.5352 22.1209 32.5558 22.1707C32.5764 22.2206 32.587 22.274 32.5869 22.3279V25.6393C32.5869 25.7481 32.5437 25.8525 32.4667 25.9295C32.3897 26.0064 32.2854 26.0496 32.1766 26.0496H26.0676V32.1532C26.0676 32.262 26.0244 32.3664 25.9474 32.4433C25.8705 32.5203 25.7661 32.5635 25.6573 32.5635ZM22.754 31.7428H25.2475V25.6393C25.2475 25.5306 25.2906 25.4263 25.3675 25.3494C25.4443 25.2724 25.5485 25.2291 25.6573 25.229H31.7651V22.7355H25.6573C25.6034 22.7355 25.5502 22.7249 25.5004 22.7043C25.4507 22.6837 25.4055 22.6536 25.3675 22.6155C25.3294 22.5774 25.2993 22.5323 25.2787 22.4826C25.2581 22.4328 25.2475 22.3795 25.2475 22.3257V16.2206H22.754V22.3279C22.7539 22.4365 22.7107 22.5407 22.6338 22.6175C22.557 22.6943 22.4529 22.7376 22.3442 22.7377H16.2353V25.2311H22.3442C22.4529 25.2314 22.5571 25.2748 22.6339 25.3517C22.7107 25.4286 22.7539 25.5328 22.754 25.6415V31.7428Z" fill="currentColor"/>
<path d="M24.0021 9.72126C23.8933 9.72111 23.7889 9.67776 23.7119 9.60072C23.635 9.52368 23.5918 9.41926 23.5918 9.31038V0.409847C23.5918 0.301019 23.635 0.196649 23.712 0.119696C23.7889 0.0427433 23.8933 -0.000488281 24.0021 -0.000488281C24.111 -0.000488281 24.2153 0.0427433 24.2923 0.119696C24.3692 0.196649 24.4125 0.301019 24.4125 0.409847V9.31038C24.4125 9.41926 24.3693 9.52368 24.2923 9.60072C24.2154 9.67776 24.111 9.72111 24.0021 9.72126Z" fill="currentColor"/>
<path d="M24.0021 9.72148C23.9453 9.72164 23.8891 9.7099 23.8371 9.68703C23.7851 9.66416 23.7385 9.63066 23.7002 9.58868L21.4003 7.08331C21.3266 7.00316 21.2878 6.89703 21.2924 6.78826C21.2969 6.67948 21.3445 6.57699 21.4247 6.50331C21.5048 6.42963 21.611 6.39081 21.7197 6.39538C21.8285 6.39996 21.931 6.44755 22.0047 6.5277L24.3041 9.03308C24.3579 9.0918 24.3934 9.1649 24.4064 9.24347C24.4195 9.32204 24.4094 9.4027 24.3774 9.47564C24.3454 9.54857 24.2929 9.61064 24.2263 9.65429C24.1596 9.69793 24.0818 9.72128 24.0021 9.72148Z" fill="currentColor"/>
<path d="M24.0016 9.72123C23.9222 9.72084 23.8446 9.69743 23.7782 9.65383C23.7118 9.61024 23.6594 9.54833 23.6275 9.47561C23.5955 9.40288 23.5853 9.32245 23.5982 9.24406C23.611 9.16567 23.6462 9.09267 23.6997 9.03391L25.9953 6.52799C26.0689 6.44777 26.1714 6.40007 26.2801 6.3954C26.3889 6.39072 26.4951 6.42945 26.5753 6.50305C26.6555 6.57666 26.7032 6.67912 26.7079 6.78789C26.7125 6.89666 26.6738 7.00283 26.6002 7.08305L24.3046 9.58843C24.2661 9.63038 24.2193 9.66385 24.1671 9.68672C24.1149 9.70958 24.0586 9.72134 24.0016 9.72123Z" fill="currentColor"/>
<path d="M31.3426 11.6889C31.2706 11.6889 31.1998 11.6699 31.1374 11.6339C31.075 11.5978 31.0232 11.546 30.9873 11.4835C30.9513 11.4211 30.9325 11.3503 30.9326 11.2782C30.9328 11.2061 30.9519 11.1354 30.9881 11.0731L35.4406 3.36562C35.4951 3.27124 35.5848 3.20237 35.6901 3.17416C35.7953 3.14595 35.9075 3.16071 36.0019 3.2152C36.0963 3.26969 36.1651 3.35943 36.1933 3.4647C36.2215 3.56996 36.2068 3.68212 36.1523 3.7765L31.6982 11.4834C31.6623 11.5459 31.6105 11.5978 31.548 11.6339C31.4856 11.67 31.4148 11.6889 31.3426 11.6889Z" fill="currentColor"/>
<path d="M31.3423 11.6887C31.2491 11.6886 31.1586 11.6567 31.0859 11.5982C31.0132 11.5398 30.9625 11.4583 30.9423 11.3673L30.2051 8.04936C30.1934 7.99675 30.1922 7.94235 30.2015 7.88927C30.2108 7.83619 30.2305 7.78546 30.2594 7.73999C30.2883 7.69451 30.3259 7.65517 30.37 7.62422C30.4141 7.59328 30.4639 7.57132 30.5165 7.55961C30.5691 7.5479 30.6235 7.54667 30.6766 7.55598C30.7297 7.56529 30.7804 7.58497 30.8259 7.61388C30.8714 7.6428 30.9107 7.68039 30.9417 7.72451C30.9726 7.76863 30.9946 7.81841 31.0063 7.87102L31.7429 11.1895C31.7662 11.2954 31.7465 11.4063 31.6882 11.4977C31.6298 11.5891 31.5377 11.6537 31.4318 11.6773C31.4024 11.684 31.3724 11.6873 31.3423 11.6871" fill="currentColor"/>
<path d="M31.3435 11.6891C31.2457 11.6887 31.1513 11.6535 31.0772 11.5897C31.0032 11.526 30.9543 11.4379 30.9394 11.3413C30.9245 11.2447 30.9445 11.146 30.996 11.0628C31.0474 10.9797 31.1268 10.9177 31.2199 10.8879L34.4597 9.86288C34.5111 9.84662 34.5652 9.84063 34.6189 9.84527C34.6726 9.84991 34.7249 9.86509 34.7728 9.88993C34.8206 9.91477 34.8631 9.94879 34.8978 9.99005C34.9325 10.0313 34.9587 10.079 34.975 10.1304C34.9912 10.1818 34.9972 10.2359 34.9926 10.2896C34.9879 10.3433 34.9728 10.3956 34.9479 10.4434C34.9231 10.4912 34.8891 10.5337 34.8478 10.5684C34.8065 10.6031 34.7589 10.6293 34.7075 10.6456L31.4671 11.6695C31.4271 11.6823 31.3854 11.6889 31.3435 11.6891Z" fill="currentColor"/>
<path d="M36.7153 17.0564C36.6248 17.0568 36.5367 17.0272 36.4648 16.9723C36.3929 16.9174 36.3412 16.8402 36.3177 16.7529C36.2943 16.6655 36.3004 16.5728 36.3351 16.4892C36.3699 16.4057 36.4313 16.336 36.5098 16.291L44.2227 11.8408C44.2695 11.812 44.3215 11.7929 44.3757 11.7845C44.43 11.7762 44.4854 11.7789 44.5386 11.7923C44.5918 11.8058 44.6418 11.8298 44.6855 11.8629C44.7293 11.896 44.766 11.9376 44.7934 11.9851C44.8208 12.0327 44.8384 12.0853 44.8452 12.1397C44.8519 12.1942 44.8477 12.2495 44.8327 12.3023C44.8177 12.3551 44.7922 12.4043 44.7578 12.4471C44.7235 12.4899 44.6808 12.5254 44.6325 12.5514L36.9196 17.0017C36.8574 17.0373 36.787 17.0565 36.7153 17.0564Z" fill="currentColor"/>
<path d="M36.7145 17.056C36.6724 17.056 36.6306 17.0496 36.5904 17.037C36.4867 17.0043 36.4003 16.9317 36.3501 16.8352C36.2999 16.7388 36.29 16.6263 36.3226 16.5226L37.3482 13.28C37.3834 13.1793 37.4564 13.0962 37.5518 13.0484C37.6472 13.0006 37.7575 12.9918 37.8593 13.024C37.961 13.0561 38.0463 13.1267 38.0969 13.2206C38.1475 13.3146 38.1595 13.4245 38.1304 13.5272L37.1054 16.7698C37.0789 16.8527 37.0268 16.9252 36.9566 16.9766C36.8864 17.028 36.8016 17.0558 36.7145 17.056Z" fill="currentColor"/>
<path d="M40.0353 17.7933C40.0052 17.793 39.9753 17.7897 39.9458 17.7836L36.6252 17.0469C36.5723 17.0356 36.5221 17.0139 36.4776 16.9831C36.4331 16.9523 36.3951 16.9129 36.3658 16.8674C36.3366 16.8218 36.3166 16.7709 36.3071 16.7176C36.2976 16.6643 36.2988 16.6096 36.3105 16.5568C36.3223 16.5039 36.3443 16.4539 36.3755 16.4096C36.4066 16.3653 36.4462 16.3277 36.492 16.2987C36.5378 16.2698 36.5888 16.2503 36.6422 16.2412C36.6956 16.2321 36.7502 16.2336 36.803 16.2458L40.1236 16.9824C40.2247 17.002 40.3148 17.0588 40.3759 17.1416C40.4371 17.2245 40.4648 17.3273 40.4537 17.4296C40.4426 17.532 40.3934 17.6264 40.3159 17.6942C40.2384 17.762 40.1382 17.7981 40.0353 17.7955" fill="currentColor"/>
<path d="M47.5903 24.3924H38.6838C38.5749 24.3924 38.4706 24.3492 38.3936 24.2723C38.3167 24.1953 38.2734 24.0909 38.2734 23.9821C38.2734 23.8733 38.3167 23.7689 38.3936 23.692C38.4706 23.615 38.5749 23.5718 38.6838 23.5718H47.5903C47.6991 23.5718 47.8035 23.615 47.8804 23.692C47.9574 23.7689 48.0006 23.8733 48.0006 23.9821C48.0006 24.0909 47.9574 24.1953 47.8804 24.2723C47.8035 24.3492 47.6991 24.3924 47.5903 24.3924Z" fill="currentColor"/>
<path d="M38.6847 24.3924C38.602 24.3923 38.5213 24.3672 38.4531 24.3205C38.3849 24.2738 38.3324 24.2076 38.3024 24.1305C38.2724 24.0535 38.2664 23.9691 38.2851 23.8886C38.3038 23.8081 38.3463 23.735 38.4072 23.6791L40.9142 21.3846C40.9946 21.3115 41.1006 21.2733 41.2091 21.2783C41.3176 21.2833 41.4197 21.3311 41.493 21.4112C41.5663 21.4913 41.6048 21.5972 41.6002 21.7057C41.5955 21.8142 41.5481 21.9165 41.4682 21.99L38.9612 24.284C38.886 24.3537 38.7873 24.3924 38.6847 24.3924Z" fill="currentColor"/>
<path d="M41.1907 26.6897C41.0878 26.6898 40.9887 26.6511 40.9132 26.5813L38.4067 24.2841C38.3264 24.2105 38.2786 24.1081 38.2738 23.9993C38.2691 23.8906 38.3077 23.7843 38.3812 23.7041C38.4548 23.6238 38.5572 23.576 38.6659 23.5712C38.7747 23.5664 38.8809 23.605 38.9612 23.6786L41.4677 25.9774C41.5284 26.0334 41.5709 26.1063 41.5895 26.1868C41.6082 26.2672 41.6021 26.3514 41.5721 26.4283C41.5422 26.5053 41.4897 26.5714 41.4215 26.618C41.3534 26.6646 41.2733 26.6896 41.1907 26.6897Z" fill="currentColor"/>
<path d="M44.427 36.1816C44.3552 36.1816 44.2845 36.1629 44.2221 36.1274L36.5092 31.6771C36.4149 31.6228 36.346 31.5332 36.3178 31.4281C36.2895 31.323 36.3042 31.2109 36.3585 31.1166C36.4129 31.0223 36.5024 30.9535 36.6076 30.9252C36.7127 30.8969 36.8247 30.9116 36.919 30.9659L44.6324 35.4162C44.7108 35.4613 44.7721 35.5311 44.8067 35.6146C44.8413 35.6981 44.8474 35.7908 44.824 35.8781C44.8006 35.9654 44.7489 36.0426 44.6772 36.0976C44.6054 36.1526 44.5174 36.1817 44.427 36.1816Z" fill="currentColor"/>
<path d="M36.7145 31.7305C36.6132 31.731 36.5152 31.6939 36.4396 31.6264C36.364 31.5589 36.3161 31.4659 36.3051 31.3651C36.2942 31.2644 36.3209 31.1631 36.3802 31.081C36.4395 30.9988 36.5271 30.9415 36.6261 30.9201L39.9468 30.1829C40.0527 30.1603 40.1632 30.1804 40.2544 30.2389C40.3455 30.2974 40.4098 30.3895 40.4333 30.4953C40.4567 30.601 40.4374 30.7117 40.3796 30.8033C40.3218 30.8948 40.2301 30.9598 40.1246 30.9841L36.8039 31.7213C36.7746 31.7278 36.7446 31.7309 36.7145 31.7305Z" fill="currentColor"/>
<path d="M37.7396 34.9697C37.6524 34.9695 37.5675 34.9417 37.4971 34.8901C37.4268 34.8386 37.3746 34.766 37.3482 34.6829L36.3232 31.4447C36.2941 31.342 36.3061 31.232 36.3567 31.1381C36.4073 31.0441 36.4925 30.9736 36.5943 30.9414C36.6961 30.9093 36.8064 30.918 36.9018 30.9658C36.9972 31.0137 37.0702 31.0968 37.1054 31.1975L38.1309 34.4352C38.1501 34.4967 38.1546 34.5619 38.144 34.6254C38.1334 34.689 38.1081 34.7491 38.07 34.8011C38.0319 34.8531 37.9822 34.8954 37.9248 34.9247C37.8675 34.954 37.804 34.9694 37.7396 34.9697Z" fill="currentColor"/>
<path d="M35.7967 44.8065C35.7246 44.8065 35.6538 44.7875 35.5913 44.7516C35.5288 44.7156 35.4769 44.6639 35.4406 44.6016L30.9876 36.8935C30.9607 36.8469 30.9432 36.7955 30.9361 36.7421C30.9291 36.6887 30.9326 36.6344 30.9465 36.5824C30.9605 36.5304 30.9845 36.4816 31.0173 36.4389C31.05 36.3961 31.0909 36.3603 31.1375 36.3333C31.1841 36.3064 31.2356 36.2889 31.289 36.2818C31.3424 36.2748 31.3966 36.2783 31.4487 36.2923C31.5007 36.3062 31.5494 36.3302 31.5922 36.363C31.6349 36.3957 31.6708 36.4366 31.6977 36.4832L36.1518 44.1907C36.1877 44.2531 36.2066 44.3238 36.2065 44.3958C36.2065 44.4678 36.1875 44.5385 36.1516 44.6008C36.1156 44.6632 36.0639 44.715 36.0017 44.7511C35.9394 44.7872 35.8687 44.8063 35.7967 44.8065Z" fill="currentColor"/>
<path d="M34.5829 38.1225C34.541 38.1225 34.4993 38.1161 34.4593 38.1035L31.2194 37.0796C31.168 37.0634 31.1204 37.0372 31.0791 37.0025C31.0378 36.9679 31.0038 36.9254 30.9789 36.8776C30.954 36.8298 30.9388 36.7775 30.9342 36.7238C30.9295 36.6701 30.9354 36.6161 30.9517 36.5647C30.9679 36.5133 30.9941 36.4656 31.0288 36.4243C31.0634 36.383 31.1059 36.349 31.1537 36.3241C31.2015 36.2993 31.2538 36.2841 31.3074 36.2794C31.3611 36.2747 31.4152 36.2807 31.4666 36.2969L34.707 37.3214C34.8009 37.3505 34.8811 37.4124 34.9332 37.4957C34.9852 37.5791 35.0055 37.6784 34.9905 37.7755C34.9754 37.8726 34.926 37.9611 34.8512 38.0248C34.7764 38.0885 34.6812 38.1232 34.5829 38.1225Z" fill="currentColor"/>
<path d="M30.6063 40.4174C30.5764 40.4176 30.5465 40.4143 30.5174 40.4076C30.4115 40.384 30.3192 40.3194 30.2608 40.228C30.2024 40.1366 30.1826 40.0257 30.2057 39.9197L30.9423 36.6013C30.9537 36.5483 30.9754 36.4982 31.0062 36.4536C31.037 36.4091 31.0763 36.3711 31.1219 36.3419C31.1675 36.3126 31.2184 36.2927 31.2717 36.2832C31.325 36.2737 31.3796 36.2749 31.4325 36.2866C31.4853 36.2983 31.5354 36.3204 31.5796 36.3516C31.6239 36.3827 31.6616 36.4223 31.6905 36.4681C31.7194 36.5139 31.739 36.5649 31.7481 36.6183C31.7572 36.6717 31.7556 36.7263 31.7435 36.7791L31.0063 40.0959C30.9862 40.187 30.9356 40.2686 30.8628 40.327C30.7901 40.3855 30.6996 40.4173 30.6063 40.4174Z" fill="currentColor"/>
<path d="M24.0021 47.9678C23.9482 47.9679 23.8948 47.9573 23.845 47.9367C23.7952 47.9161 23.7499 47.8859 23.7118 47.8478C23.6737 47.8096 23.6435 47.7644 23.6229 47.7146C23.6023 47.6647 23.5917 47.6114 23.5918 47.5575V38.6569C23.5918 38.5481 23.635 38.4437 23.712 38.3668C23.7889 38.2898 23.8933 38.2466 24.0021 38.2466C24.111 38.2466 24.2153 38.2898 24.2923 38.3668C24.3692 38.4437 24.4125 38.5481 24.4125 38.6569V47.5575C24.4125 47.6114 24.402 47.6647 24.3814 47.7146C24.3608 47.7644 24.3306 47.8096 24.2924 47.8478C24.2543 47.8859 24.2091 47.9161 24.1592 47.9367C24.1094 47.9573 24.056 47.9679 24.0021 47.9678Z" fill="currentColor"/>
<path d="M26.2988 41.5717C26.2419 41.5717 26.1856 41.5598 26.1334 41.537C26.0813 41.5141 26.0344 41.4807 25.9958 41.4389L23.7002 38.9336C23.6637 38.8938 23.6353 38.8473 23.6168 38.7967C23.5983 38.746 23.5899 38.6922 23.5922 38.6382C23.5944 38.5843 23.6073 38.5314 23.63 38.4825C23.6527 38.4335 23.6849 38.3895 23.7246 38.353C23.7643 38.3165 23.8108 38.2882 23.8615 38.2696C23.9122 38.2511 23.966 38.2427 24.0199 38.245C24.0738 38.2473 24.1268 38.2601 24.1757 38.2828C24.2246 38.3056 24.2686 38.3377 24.3051 38.3774L26.6013 40.8828C26.6552 40.9414 26.6909 41.0145 26.704 41.0931C26.7171 41.1717 26.7069 41.2525 26.6748 41.3254C26.6427 41.3983 26.5901 41.4603 26.5233 41.5038C26.4565 41.5473 26.3785 41.5703 26.2988 41.5701" fill="currentColor"/>
<path d="M21.7025 41.5716C21.623 41.5715 21.5452 41.5482 21.4786 41.5046C21.4121 41.4611 21.3596 41.3991 21.3276 41.3263C21.2956 41.2535 21.2855 41.1729 21.2984 41.0945C21.3114 41.016 21.3469 40.943 21.4006 40.8843L23.7005 38.3773C23.7369 38.3376 23.7808 38.3055 23.8296 38.2828C23.8784 38.2602 23.9312 38.2473 23.985 38.245C24.0388 38.2427 24.0925 38.251 24.143 38.2695C24.1936 38.288 24.24 38.3162 24.2797 38.3526C24.3193 38.389 24.3514 38.4329 24.3741 38.4817C24.3968 38.5305 24.4097 38.5833 24.412 38.6371C24.4143 38.6909 24.4059 38.7446 24.3875 38.7952C24.369 38.8457 24.3408 38.8922 24.3044 38.9318L22.0077 41.4388C21.9691 41.4806 21.9224 41.514 21.8703 41.5369C21.8183 41.5597 21.7621 41.5715 21.7052 41.5716" fill="currentColor"/>
<path d="M12.2042 44.8064C12.1325 44.8066 12.062 44.7879 11.9998 44.7521C11.9057 44.6976 11.8371 44.608 11.8089 44.5029C11.7808 44.3979 11.7954 44.2859 11.8497 44.1917L16.3032 36.4842C16.3302 36.4376 16.366 36.3967 16.4088 36.3639C16.4515 36.3312 16.5003 36.3071 16.5523 36.2932C16.6043 36.2793 16.6585 36.2758 16.7119 36.2828C16.7653 36.2899 16.8168 36.3074 16.8634 36.3343C16.91 36.3613 16.9509 36.3971 16.9837 36.4399C17.0164 36.4826 17.0405 36.5314 17.0544 36.5834C17.0683 36.6354 17.0718 36.6897 17.0648 36.743C17.0577 36.7964 17.0402 36.8479 17.0133 36.8945L12.5603 44.6015C12.5242 44.6639 12.4723 44.7157 12.4098 44.7517C12.3472 44.7877 12.2763 44.8065 12.2042 44.8064Z" fill="currentColor"/>
<path d="M17.3947 40.417C17.3014 40.4169 17.211 40.385 17.1383 40.3266C17.0655 40.2681 17.0149 40.1867 16.9947 40.0956L16.2575 36.7771C16.2454 36.7244 16.2438 36.6697 16.2529 36.6163C16.262 36.563 16.2816 36.5119 16.3105 36.4661C16.3394 36.4204 16.3771 36.3808 16.4213 36.3496C16.4656 36.3185 16.5156 36.2964 16.5685 36.2846C16.6214 36.2729 16.676 36.2718 16.7293 36.2813C16.7826 36.2907 16.8335 36.3107 16.8791 36.3399C16.9247 36.3692 16.964 36.4072 16.9948 36.4517C17.0256 36.4962 17.0473 36.5464 17.0586 36.5993L17.7958 39.9178C17.8189 40.0238 17.7991 40.1346 17.7407 40.2261C17.6823 40.3175 17.5901 40.382 17.4842 40.4056C17.4548 40.4124 17.4248 40.4156 17.3947 40.4154" fill="currentColor"/>
<path d="M13.4177 38.1227C13.3199 38.1223 13.2255 38.0871 13.1515 38.0234C13.0774 37.9596 13.0285 37.8715 13.0136 37.7749C12.9987 37.6783 13.0188 37.5796 13.0702 37.4965C13.1216 37.4133 13.201 37.3513 13.2941 37.3215L16.534 36.297C16.5854 36.2807 16.6395 36.2747 16.6932 36.2793C16.7469 36.2839 16.7992 36.2991 16.847 36.3239C16.8949 36.3487 16.9374 36.3827 16.9722 36.424C17.0069 36.4652 17.0331 36.5129 17.0495 36.5643C17.0658 36.6157 17.0718 36.6698 17.0672 36.7235C17.0626 36.7772 17.0474 36.8295 17.0226 36.8774C16.9978 36.9252 16.9638 36.9678 16.9225 37.0025C16.8813 37.0372 16.8336 37.0635 16.7822 37.0798L13.5413 38.1037C13.5013 38.1164 13.4596 38.1228 13.4177 38.1227Z" fill="currentColor"/>
<path d="M3.57409 36.1813C3.48366 36.1814 3.39572 36.1517 3.32393 36.0967C3.25214 36.0418 3.20052 35.9646 3.1771 35.8773C3.15367 35.7899 3.15975 35.6973 3.19439 35.6138C3.22903 35.5302 3.29029 35.4605 3.36865 35.4154L11.0815 30.9651C11.1758 30.9107 11.2879 30.896 11.3931 30.9242C11.4982 30.9524 11.5879 31.0212 11.6423 31.1155C11.6967 31.2098 11.7114 31.3219 11.6832 31.4271C11.655 31.5322 11.5862 31.6219 11.4919 31.6763L3.77844 36.1265C3.71624 36.1622 3.64577 36.1814 3.57409 36.1813Z" fill="currentColor"/>
<path d="M10.2624 34.9696C10.2201 34.9695 10.178 34.9629 10.1377 34.9501C10.0863 34.9339 10.0386 34.9077 9.9974 34.873C9.95617 34.8383 9.92218 34.7959 9.89741 34.748C9.87263 34.7002 9.85754 34.6479 9.85301 34.5942C9.84848 34.5405 9.8546 34.4865 9.87101 34.4352L10.8955 31.1975C10.9283 31.0937 11.0009 31.0071 11.0975 30.9569C11.1941 30.9067 11.3066 30.8969 11.4104 30.9297C11.5142 30.9625 11.6008 31.0351 11.651 31.1317C11.7012 31.2283 11.711 31.3408 11.6782 31.4446L10.6532 34.6829C10.6269 34.766 10.5749 34.8386 10.5046 34.8901C10.4344 34.9417 10.3495 34.9695 10.2624 34.9696Z" fill="currentColor"/>
<path d="M11.2871 31.7305C11.2572 31.7309 11.2274 31.7278 11.1982 31.7213L7.87704 30.9841C7.77149 30.9598 7.67981 30.8948 7.62199 30.8033C7.56416 30.7117 7.54488 30.601 7.56834 30.4953C7.5918 30.3895 7.65611 30.2974 7.74724 30.2389C7.83837 30.1804 7.94894 30.1603 8.05483 30.1829L11.376 30.9201C11.4741 30.9425 11.5606 31.0002 11.619 31.0822C11.6774 31.1642 11.7035 31.2648 11.6926 31.3649C11.6816 31.465 11.6342 31.5575 11.5595 31.6249C11.4847 31.6923 11.3878 31.7299 11.2871 31.7305Z" fill="currentColor"/>
<path d="M9.31737 24.3924H0.410335C0.301507 24.3924 0.197137 24.3492 0.120184 24.2723C0.0432316 24.1953 0 24.0909 0 23.9821C0 23.8733 0.0432316 23.7689 0.120184 23.692C0.197137 23.615 0.301507 23.5718 0.410335 23.5718H9.31737C9.4262 23.5718 9.53057 23.615 9.60752 23.692C9.68448 23.7689 9.72771 23.8733 9.72771 23.9821C9.72771 24.0909 9.68448 24.1953 9.60752 24.2723C9.53057 24.3492 9.4262 24.3924 9.31737 24.3924Z" fill="currentColor"/>
<path d="M6.80971 26.6897C6.72705 26.6898 6.6463 26.6649 6.57804 26.6183C6.50979 26.5716 6.45724 26.5055 6.42728 26.4284C6.39732 26.3514 6.39136 26.2671 6.41018 26.1866C6.42899 26.1061 6.47171 26.0332 6.53272 25.9774L9.03972 23.6786C9.12001 23.605 9.22623 23.5664 9.335 23.5712C9.44377 23.576 9.54619 23.6238 9.61972 23.7041C9.69326 23.7843 9.73188 23.8906 9.7271 23.9993C9.72233 24.1081 9.67454 24.2105 9.59425 24.2841L7.08724 26.5818C7.01164 26.6515 6.91256 26.6897 6.80971 26.6897Z" fill="currentColor"/>
<path d="M9.31717 24.3926C9.21449 24.3926 9.11559 24.3539 9.04018 24.2842L6.53372 21.9908C6.49377 21.9545 6.46138 21.9106 6.4384 21.8618C6.41543 21.8129 6.40233 21.76 6.39985 21.706C6.39737 21.6521 6.40556 21.5982 6.42394 21.5474C6.44233 21.4967 6.47056 21.45 6.50701 21.4102C6.54346 21.3704 6.58741 21.3381 6.63635 21.3153C6.68529 21.2925 6.73825 21.2795 6.79219 21.2772C6.84614 21.2749 6.90001 21.2833 6.95072 21.3018C7.00143 21.3204 7.04798 21.3488 7.0877 21.3853L9.59524 23.6793C9.6753 23.7528 9.72291 23.855 9.72758 23.9636C9.73226 24.0722 9.69362 24.1781 9.62018 24.2582C9.58199 24.3007 9.53526 24.3346 9.48304 24.3578C9.43082 24.381 9.37429 24.3929 9.31717 24.3926Z" fill="currentColor"/>
<path d="M11.2869 17.0564C11.215 17.0564 11.1444 17.0378 11.082 17.0022L3.3691 12.5514C3.32077 12.5254 3.27815 12.4899 3.24377 12.4471C3.2094 12.4043 3.18395 12.3551 3.16895 12.3023C3.15394 12.2495 3.14969 12.1942 3.15643 12.1397C3.16317 12.0853 3.18077 12.0327 3.20819 11.9851C3.23561 11.9376 3.27229 11.896 3.31606 11.8629C3.35984 11.8298 3.40981 11.8058 3.46302 11.7923C3.51624 11.7789 3.57161 11.7762 3.62587 11.7845C3.68012 11.7929 3.73216 11.812 3.77889 11.8408L11.4923 16.291C11.5704 16.3363 11.6314 16.406 11.6659 16.4894C11.7003 16.5728 11.7063 16.6653 11.6829 16.7525C11.6595 16.8396 11.608 16.9166 11.5364 16.9716C11.4649 17.0265 11.3771 17.0564 11.2869 17.0564Z" fill="currentColor"/>
<path d="M7.96478 17.7934C7.86185 17.7961 7.76169 17.7599 7.68418 17.6921C7.60667 17.6244 7.55747 17.5299 7.54635 17.4276C7.53522 17.3252 7.56299 17.2224 7.62413 17.1396C7.68528 17.0567 7.77533 16.9999 7.87642 16.9803L11.1976 16.2437C11.3038 16.22 11.4151 16.2396 11.507 16.298C11.5988 16.3564 11.6637 16.4489 11.6873 16.5551C11.711 16.6613 11.6915 16.7726 11.6331 16.8645C11.5747 16.9563 11.4822 17.0212 11.3759 17.0448L8.05422 17.7815C8.0248 17.7877 7.99484 17.791 7.96478 17.7913" fill="currentColor"/>
<path d="M11.2869 17.056C11.1998 17.0559 11.115 17.0282 11.0447 16.9767C10.9745 16.9253 10.9224 16.8528 10.8961 16.7698L9.87105 13.5272C9.84192 13.4245 9.85394 13.3146 9.90455 13.2206C9.95517 13.1267 10.0404 13.0561 10.1422 13.024C10.2439 12.9918 10.3542 13.0006 10.4496 13.0484C10.545 13.0962 10.6181 13.1793 10.6532 13.28L11.6783 16.5226C11.6945 16.574 11.7004 16.628 11.6958 16.6817C11.6911 16.7353 11.6759 16.7876 11.651 16.8353C11.6261 16.8831 11.5921 16.9255 11.5508 16.9601C11.5096 16.9947 11.4619 17.0209 11.4105 17.037C11.3705 17.0497 11.3288 17.0561 11.2869 17.056Z" fill="currentColor"/>
<path d="M16.6591 11.6889C16.5869 11.689 16.516 11.6701 16.4535 11.6341C16.3909 11.598 16.339 11.546 16.303 11.4834L11.85 3.77652C11.8231 3.72985 11.8055 3.67834 11.7985 3.6249C11.7914 3.57147 11.7949 3.51717 11.8088 3.4651C11.8228 3.41303 11.8468 3.36421 11.8796 3.32143C11.9124 3.27864 11.9533 3.24274 11.9999 3.21576C12.0466 3.18878 12.0981 3.17126 12.1515 3.16419C12.205 3.15712 12.2593 3.16065 12.3113 3.17456C12.3634 3.18848 12.4122 3.21252 12.455 3.2453C12.4978 3.27809 12.5337 3.31898 12.5607 3.36564L17.0136 11.0731C17.0679 11.1675 17.0826 11.2795 17.0545 11.3846C17.0263 11.4898 16.9577 11.5795 16.8635 11.6341C16.8014 11.67 16.7309 11.6893 16.6591 11.6889Z" fill="currentColor"/>
<path d="M16.6582 11.689C16.6161 11.6889 16.5742 11.6823 16.5341 11.6695L13.2937 10.6455C13.1899 10.6127 13.1033 10.5401 13.0531 10.4435C13.0029 10.3469 12.9931 10.2344 13.0259 10.1306C13.0587 10.0268 13.1313 9.94026 13.2279 9.89004C13.3245 9.83982 13.437 9.83002 13.5408 9.8628L16.7818 10.8878C16.8749 10.9176 16.9543 10.9796 17.0057 11.0628C17.0571 11.1459 17.0772 11.2446 17.0623 11.3412C17.0474 11.4378 16.9985 11.5259 16.9244 11.5897C16.8503 11.6534 16.7559 11.6886 16.6582 11.689Z" fill="currentColor"/>
<path d="M16.658 11.689C16.6279 11.6893 16.5979 11.686 16.5686 11.6793C16.4627 11.6557 16.3704 11.5911 16.3119 11.4997C16.2534 11.4083 16.2334 11.2975 16.2563 11.1914L16.9935 7.87297C17.0172 7.76673 17.0821 7.67424 17.1739 7.61584C17.2658 7.55744 17.377 7.53791 17.4833 7.56156C17.5895 7.58521 17.682 7.6501 17.7404 7.74194C17.7988 7.83379 17.8183 7.94507 17.7947 8.05131L17.0575 11.3692C17.0375 11.4603 16.987 11.5418 16.9143 11.6003C16.8417 11.6587 16.7513 11.6906 16.658 11.6907" fill="currentColor"/>
</svg>
