<svg width="48" height="48" viewBox="0 0 48 48" fill="none" xmlns="http://www.w3.org/2000/svg">
<path d="M41.3824 43.2424H5.67526C5.62141 43.2425 5.56807 43.232 5.51829 43.2114C5.46851 43.1909 5.42327 43.1607 5.38514 43.1227C5.34701 43.0847 5.31674 43.0395 5.29607 42.9898C5.2754 42.9401 5.26472 42.8867 5.26465 42.8329V0.410071C5.26479 0.301264 5.30812 0.196962 5.38511 0.120074C5.4621 0.0431864 5.56645 -9.49373e-08 5.67526 0L41.3824 0C41.4911 0.000143516 41.5953 0.0433934 41.6722 0.120266C41.749 0.197138 41.7923 0.301357 41.7924 0.410071V42.8329C41.7923 42.9416 41.749 43.0457 41.6721 43.1225C41.5952 43.1993 41.491 43.2424 41.3824 43.2424ZM6.08533 42.4223H40.9723V0.821227H6.08533V42.4223Z" fill="currentColor"/>
<path d="M5.67494 13.9054H3.09464C2.98583 13.9052 2.88153 13.8619 2.80464 13.7849C2.72776 13.7079 2.68457 13.6036 2.68457 13.4947V7.14841C2.68457 7.0396 2.72776 6.93524 2.80464 6.85825C2.88153 6.78126 2.98583 6.73794 3.09464 6.73779H5.67494C5.78375 6.73794 5.88805 6.78126 5.96494 6.85825C6.04183 6.93524 6.08501 7.0396 6.08501 7.14841V13.4947C6.08501 13.6036 6.04183 13.7079 5.96494 13.7849C5.88805 13.8619 5.78375 13.9052 5.67494 13.9054ZM3.50525 13.0841H5.26433V7.55848H3.50525V13.0841Z" fill="currentColor"/>
<path d="M5.67494 34.7193H3.09464C2.98583 34.7192 2.88153 34.6759 2.80464 34.5989C2.72776 34.5219 2.68457 34.4175 2.68457 34.3087V27.9624C2.68457 27.8536 2.72776 27.7492 2.80464 27.6722C2.88153 27.5952 2.98583 27.5519 3.09464 27.5518H5.67494C5.78375 27.5519 5.88805 27.5952 5.96494 27.6722C6.04183 27.7492 6.08501 27.8536 6.08501 27.9624V34.3087C6.08501 34.4175 6.04183 34.5219 5.96494 34.5989C5.88805 34.6759 5.78375 34.7192 5.67494 34.7193ZM3.50525 33.8981H5.26433V28.3724H3.50525V33.8981Z" fill="currentColor"/>
<path d="M26.9017 29.2675H20.155C20.1011 29.2676 20.0476 29.257 19.9977 29.2364C19.9479 29.2158 19.9025 29.1856 19.8643 29.1475C19.8261 29.1093 19.7959 29.064 19.7752 29.0142C19.7545 28.9643 19.7439 28.9109 19.7439 28.8569V21.7344H12.6186C12.5647 21.7344 12.5113 21.7238 12.4615 21.7031C12.4117 21.6825 12.3664 21.6522 12.3283 21.6141C12.2901 21.576 12.2599 21.5307 12.2393 21.4809C12.2186 21.4311 12.208 21.3777 12.208 21.3238V14.5815C12.2079 14.5275 12.2185 14.4741 12.2391 14.4242C12.2597 14.3744 12.29 14.3291 12.3281 14.291C12.3663 14.2528 12.4116 14.2226 12.4614 14.202C12.5113 14.1814 12.5647 14.1708 12.6186 14.1709H19.7439V7.04885C19.7439 6.99486 19.7545 6.94139 19.7752 6.89151C19.7958 6.84162 19.8261 6.7963 19.8643 6.75812C19.9025 6.71994 19.9478 6.68966 19.9977 6.66899C20.0476 6.64833 20.101 6.6377 20.155 6.6377H26.9017C27.0106 6.63784 27.1151 6.68122 27.1921 6.75831C27.269 6.8354 27.3123 6.9399 27.3123 7.04885V14.1709H34.4403C34.4942 14.1709 34.5475 14.1815 34.5973 14.2021C34.6471 14.2228 34.6923 14.253 34.7304 14.2911C34.7685 14.3293 34.7987 14.3746 34.8193 14.4244C34.8398 14.4742 34.8504 14.5276 34.8503 14.5815V21.3238C34.8503 21.4326 34.8071 21.5369 34.7303 21.6139C34.6534 21.6909 34.5491 21.7342 34.4403 21.7344H27.3123V28.8569C27.3123 28.9658 27.269 29.0703 27.192 29.1473C27.115 29.2243 27.0106 29.2675 26.9017 29.2675ZM20.5651 28.4463H26.4911V21.3238C26.4911 21.2149 26.5343 21.1104 26.6113 21.0334C26.6883 20.9564 26.7928 20.9132 26.9017 20.9132H34.0296V14.9915H26.9017C26.7929 14.9915 26.6885 14.9483 26.6115 14.8715C26.5345 14.7946 26.4912 14.6903 26.4911 14.5815V7.45892H20.5651V14.5815C20.565 14.6902 20.5217 14.7944 20.4448 14.8713C20.368 14.9481 20.2637 14.9914 20.155 14.9915H13.0292V20.9132H20.155C20.2638 20.9133 20.3681 20.9566 20.445 21.0336C20.5219 21.1106 20.5651 21.215 20.5651 21.3238V28.4463Z" fill="currentColor"/>
<path d="M45.6476 43.243H1.41034C1.30409 43.2392 1.20349 43.1943 1.12969 43.1177C1.05589 43.0412 1.01465 42.939 1.01465 42.8327C1.01465 42.7264 1.05589 42.6242 1.12969 42.5477C1.20349 42.4711 1.30409 42.4262 1.41034 42.4224H45.6476C45.7538 42.4262 45.8544 42.4711 45.9282 42.5477C46.002 42.6242 46.0433 42.7264 46.0433 42.8327C46.0433 42.939 46.002 43.0412 45.9282 43.1177C45.8544 43.1943 45.7538 43.2392 45.6476 43.243Z" fill="currentColor"/>
<path d="M35.2307 47.9999H11.8247C11.7158 47.9999 11.6113 47.9567 11.5343 47.8797C11.4573 47.8027 11.4141 47.6982 11.4141 47.5893C11.4141 47.4804 11.4573 47.376 11.5343 47.299C11.6113 47.222 11.7158 47.1787 11.8247 47.1787H35.2307C35.3396 47.1787 35.4441 47.222 35.5211 47.299C35.5981 47.376 35.6413 47.4804 35.6413 47.5893C35.6413 47.6982 35.5981 47.8027 35.5211 47.8797C35.4441 47.9567 35.3396 47.9999 35.2307 47.9999Z" fill="currentColor"/>
<path d="M33.8444 33.5295H13.4113C13.3051 33.5256 13.2045 33.4807 13.1307 33.4041C13.0569 33.3276 13.0156 33.2254 13.0156 33.1191C13.0156 33.0128 13.0569 32.9106 13.1307 32.8341C13.2045 32.7576 13.3051 32.7126 13.4113 32.7088H33.8444C33.8995 32.7068 33.9545 32.7159 34.006 32.7356C34.0575 32.7553 34.1046 32.7852 34.1443 32.8235C34.184 32.8618 34.2156 32.9078 34.2372 32.9585C34.2588 33.0093 34.2699 33.0639 34.2699 33.1191C34.2699 33.1743 34.2588 33.2289 34.2372 33.2797C34.2156 33.3305 34.184 33.3764 34.1443 33.4147C34.1046 33.453 34.0575 33.4829 34.006 33.5026C33.9545 33.5223 33.8995 33.5315 33.8444 33.5295Z" fill="currentColor"/>
<path d="M33.8436 39.081H13.4106C13.3017 39.081 13.1973 39.0377 13.1203 38.9607C13.0433 38.8837 13 38.7793 13 38.6704C13 38.5615 13.0433 38.457 13.1203 38.38C13.1973 38.303 13.3017 38.2598 13.4106 38.2598H33.8436C33.8976 38.2598 33.951 38.2704 34.0008 38.291C34.0506 38.3117 34.0959 38.3419 34.134 38.38C34.1721 38.4182 34.2024 38.4634 34.223 38.5132C34.2436 38.5631 34.2543 38.6165 34.2543 38.6704C34.2543 38.7243 34.2436 38.7777 34.223 38.8275C34.2024 38.8773 34.1721 38.9226 34.134 38.9607C34.0959 38.9989 34.0506 39.0291 34.0008 39.0497C33.951 39.0704 33.8976 39.081 33.8436 39.081Z" fill="currentColor"/>
</svg>
