<svg width="49" height="48" viewBox="0 0 49 48" fill="none" xmlns="http://www.w3.org/2000/svg">
<path d="M46.5092 36.1286H3.11273C2.5529 36.1278 2.01618 35.9052 1.62017 35.5095C1.22416 35.1138 1.00115 34.5773 1 34.0175L1 2.11165C1.001 1.55173 1.22395 1.01504 1.61998 0.619214C2.01601 0.223389 2.55281 0.000716951 3.11273 0L46.5092 0C47.0696 -9.02671e-07 47.6071 0.222354 48.0037 0.618257C48.4003 1.01416 48.6236 1.55126 48.6246 2.11165V34.0175C48.6235 34.5778 48.4001 35.1147 48.0035 35.5105C47.6069 35.9063 47.0695 36.1286 46.5092 36.1286ZM3.11273 0.821227C2.77044 0.82137 2.44218 0.957337 2.20004 1.19928C1.9579 1.44121 1.82166 1.76935 1.82123 2.11165V34.0175C1.8218 34.3597 1.95811 34.6877 2.20023 34.9295C2.44236 35.1713 2.77053 35.3072 3.11273 35.3073H46.5092C46.8514 35.3072 47.1795 35.1713 47.4215 34.9294C47.6635 34.6876 47.7997 34.3596 47.8002 34.0175V2.11165C47.7997 1.76945 47.6636 1.44139 47.4215 1.19947C47.1795 0.957544 46.8514 0.821514 46.5092 0.821227H3.11273Z" fill="currentColor"/>
<path d="M30.4985 41.8992H19.1315C19.0722 41.8993 19.0135 41.8865 18.9595 41.8617C18.9056 41.8369 18.8577 41.8007 18.8191 41.7556C18.7805 41.7104 18.7522 41.6575 18.7361 41.6003C18.72 41.5432 18.7165 41.4832 18.7258 41.4246L19.6398 35.6537C19.6553 35.5571 19.7047 35.4691 19.7791 35.4056C19.8536 35.3421 19.9482 35.3072 20.0461 35.3071H29.5786C29.6763 35.3071 29.7708 35.3419 29.8451 35.4054C29.9193 35.4688 29.9685 35.5567 29.9838 35.6532L30.8961 41.3828C30.9049 41.4174 30.9093 41.4529 30.9092 41.4886C30.9092 41.5975 30.8659 41.7019 30.7889 41.7789C30.7119 41.8559 30.6074 41.8992 30.4985 41.8992ZM19.6127 41.078H30.0163L29.2276 36.1284H20.3959L19.6127 41.078Z" fill="currentColor"/>
<path d="M34.1735 44.8675H15.4535C15.3448 44.8673 15.2406 44.8239 15.1638 44.7469C15.0871 44.6699 15.0439 44.5656 15.0439 44.4569V41.4882C15.0439 41.3795 15.0871 41.2753 15.1638 41.1983C15.2406 41.1213 15.3448 41.0779 15.4535 41.0776H34.1735C34.2274 41.0776 34.2808 41.0883 34.3306 41.1089C34.3804 41.1295 34.4256 41.1598 34.4637 41.1979C34.5018 41.2361 34.532 41.2813 34.5526 41.3312C34.5731 41.381 34.5837 41.4344 34.5836 41.4882V44.4569C34.5837 44.5108 34.5731 44.5642 34.5526 44.614C34.532 44.6638 34.5018 44.7091 34.4637 44.7472C34.4256 44.7854 34.3804 44.8156 34.3306 44.8363C34.2808 44.8569 34.2274 44.8675 34.1735 44.8675ZM15.8625 44.0447H33.7624V41.8989H15.8625V44.0447Z" fill="currentColor"/>
<path d="M48.212 28.8639H1.41186C1.35672 28.8659 1.30174 28.8568 1.25021 28.8371C1.19867 28.8174 1.15164 28.7875 1.11192 28.7492C1.0722 28.7109 1.04061 28.6649 1.01903 28.6142C0.997449 28.5634 0.986328 28.5088 0.986328 28.4536C0.986328 28.3984 0.997449 28.3438 1.01903 28.293C1.04061 28.2422 1.0722 28.1963 1.11192 28.158C1.15164 28.1197 1.19867 28.0898 1.25021 28.0701C1.30174 28.0504 1.35672 28.0412 1.41186 28.0432H48.212C48.2672 28.0412 48.3221 28.0504 48.3737 28.0701C48.4252 28.0898 48.4722 28.1197 48.512 28.158C48.5517 28.1963 48.5833 28.2422 48.6049 28.293C48.6264 28.3438 48.6376 28.3984 48.6376 28.4536C48.6376 28.5088 48.6264 28.5634 48.6049 28.6142C48.5833 28.6649 48.5517 28.7109 48.512 28.7492C48.4722 28.7875 48.4252 28.8174 48.3737 28.8371C48.3221 28.8568 48.2672 28.8659 48.212 28.8639Z" fill="currentColor"/>
<path d="M24.8123 34.1932C24.3952 34.1939 23.9874 34.0708 23.6403 33.8396C23.2933 33.6084 23.0226 33.2794 22.8626 32.8943C22.7025 32.5092 22.6603 32.0853 22.7413 31.6762C22.8222 31.2671 23.0227 30.8912 23.3174 30.5961C23.6121 30.301 23.9876 30.0999 24.3966 30.0183C24.8056 29.9367 25.2296 29.9782 25.6149 30.1377C26.0003 30.2971 26.3297 30.5673 26.5614 30.914C26.7932 31.2607 26.9169 31.6684 26.9169 32.0854C26.9162 32.6436 26.6943 33.1789 26.2999 33.5739C25.9054 33.969 25.3705 34.1917 24.8123 34.1932ZM24.8123 30.7988C24.5577 30.7981 24.3086 30.873 24.0966 31.014C23.8846 31.155 23.7192 31.3557 23.6213 31.5908C23.5234 31.8258 23.4974 32.0846 23.5467 32.3344C23.596 32.5842 23.7183 32.8138 23.8981 32.994C24.0779 33.1743 24.3071 33.2971 24.5568 33.347C24.8065 33.397 25.0654 33.3717 25.3006 33.2744C25.5359 33.1771 25.7371 33.0122 25.8786 32.8005C26.0201 32.5889 26.0956 32.34 26.0956 32.0854C26.0952 31.7448 25.96 31.4183 25.7195 31.1772C25.479 30.9361 25.1528 30.8001 24.8123 30.7988Z" fill="currentColor"/>
<path d="M34.4268 22.1959C34.3177 22.1953 34.2132 22.1521 34.1355 22.0755L34.1246 22.0635C30.728 18.6653 27.2158 15.1504 27.2158 11.5872C27.2173 10.5772 27.6192 9.60897 28.3336 8.89493C29.0479 8.18089 30.0163 7.77932 31.0263 7.77832C32.7301 7.77832 33.656 8.56429 34.4273 9.87532C35.2014 8.56429 36.1273 7.77832 37.8267 7.77832C38.8368 7.77918 39.8053 8.18068 40.5198 8.89474C41.2342 9.60879 41.6363 10.5771 41.6377 11.5872C41.6377 15.1504 38.125 18.6647 34.7284 22.063L34.717 22.0755C34.6397 22.1521 34.5355 22.1953 34.4268 22.1959ZM31.0263 8.59955C30.234 8.60026 29.4742 8.9152 28.9138 9.47527C28.3533 10.0354 28.0378 10.7949 28.0365 11.5872C28.0365 14.7197 31.2368 18.01 34.4268 21.2033C37.6135 18.0084 40.817 14.7197 40.817 11.5872C40.8156 10.7948 40.5 10.0353 39.9394 9.47524C39.3789 8.91518 38.6191 8.60026 37.8267 8.59955C36.4321 8.59955 35.6662 9.18645 34.7929 10.9222C34.7588 10.9903 34.7065 11.0475 34.6417 11.0875C34.577 11.1275 34.5024 11.1487 34.4262 11.1487C34.3501 11.1487 34.2755 11.1275 34.2107 11.0875C34.146 11.0475 34.0936 10.9903 34.0596 10.9222C33.1917 9.18645 32.4252 8.59955 31.0263 8.59955Z" fill="currentColor"/>
<path d="M21.2633 10.4268H8.39596C8.34207 10.4268 8.28869 10.4163 8.23887 10.3957C8.18906 10.3751 8.14379 10.3449 8.10565 10.3068C8.06751 10.2688 8.03726 10.2235 8.01662 10.1737C7.99598 10.124 7.98535 10.0706 7.98535 10.0167V6.94821C7.9855 6.83935 8.0288 6.735 8.10578 6.65802C8.18275 6.58105 8.28711 6.53774 8.39596 6.5376H21.2633C21.3722 6.5376 21.4767 6.58084 21.5538 6.65783C21.6309 6.73482 21.6743 6.83926 21.6745 6.94821V10.0167C21.6745 10.0706 21.6638 10.124 21.6431 10.1739C21.6225 10.2237 21.5922 10.2689 21.554 10.307C21.5158 10.3451 21.4704 10.3753 21.4206 10.3959C21.3707 10.4164 21.3172 10.4269 21.2633 10.4268ZM8.80712 9.60608H20.8527V7.35882H8.80712V9.60608Z" fill="currentColor"/>
<path d="M21.2633 16.9312H8.39596C8.34204 16.9312 8.28865 16.9206 8.23883 16.9C8.18901 16.8793 8.14375 16.8491 8.10562 16.8109C8.06749 16.7728 8.03724 16.7276 8.01661 16.6777C7.99597 16.6279 7.98535 16.5745 7.98535 16.5206V13.4521C7.98535 13.3432 8.02861 13.2388 8.10562 13.1618C8.18262 13.0848 8.28706 13.0415 8.39596 13.0415H21.2633C21.3173 13.0414 21.3707 13.052 21.4206 13.0726C21.4705 13.0932 21.5158 13.1234 21.554 13.1616C21.5922 13.1997 21.6225 13.245 21.6431 13.2949C21.6638 13.3447 21.6745 13.3981 21.6745 13.4521V16.5201C21.6745 16.574 21.6638 16.6275 21.6431 16.6773C21.6225 16.7272 21.5922 16.7725 21.554 16.8106C21.5158 16.8487 21.4705 16.879 21.4206 16.8996C21.3707 16.9202 21.3173 16.9307 21.2633 16.9307M8.80712 16.11H20.8527V13.8633H8.80712V16.11Z" fill="currentColor"/>
<path d="M21.2633 23.436H8.39596C8.28696 23.4358 8.18252 23.3923 8.10555 23.3151C8.02858 23.2379 7.98535 23.1333 7.98535 23.0243V19.9569C7.9855 19.8481 8.02882 19.7438 8.10581 19.6669C8.1828 19.5901 8.28716 19.5469 8.39596 19.5469H21.2633C21.3172 19.5468 21.3706 19.5574 21.4205 19.5779C21.4703 19.5985 21.5156 19.6287 21.5538 19.6668C21.592 19.7048 21.6223 19.7501 21.643 19.7999C21.6637 19.8496 21.6744 19.903 21.6745 19.9569V23.0243C21.6745 23.1334 21.6312 23.2381 21.5541 23.3153C21.477 23.3925 21.3724 23.4359 21.2633 23.436ZM8.80712 22.6143H20.8527V20.3676H8.80712V22.6143Z" fill="currentColor"/>
<path d="M39.2911 44.8632H10.3296C10.2207 44.8632 10.1162 44.82 10.0392 44.743C9.96221 44.6659 9.91895 44.5615 9.91895 44.4526C9.91895 44.3437 9.96221 44.2393 10.0392 44.1623C10.1162 44.0853 10.2207 44.042 10.3296 44.042H39.2911C39.4 44.042 39.5044 44.0853 39.5814 44.1623C39.6584 44.2393 39.7017 44.3437 39.7017 44.4526C39.7017 44.5615 39.6584 44.6659 39.5814 44.743C39.5044 44.82 39.4 44.8632 39.2911 44.8632Z" fill="currentColor"/>
<path d="M31.5106 47.9999H18.1128C18.0039 47.9999 17.8994 47.9567 17.8224 47.8797C17.7454 47.8027 17.7021 47.6982 17.7021 47.5893C17.7021 47.4804 17.7454 47.376 17.8224 47.299C17.8994 47.222 18.0039 47.1787 18.1128 47.1787H31.5106C31.6195 47.1787 31.7239 47.222 31.8009 47.299C31.8779 47.376 31.9212 47.4804 31.9212 47.5893C31.9212 47.6982 31.8779 47.8027 31.8009 47.8797C31.7239 47.9567 31.6195 47.9999 31.5106 47.9999Z" fill="currentColor"/>
</svg>
