<svg width="48" height="48" viewBox="0 0 48 48" fill="none" xmlns="http://www.w3.org/2000/svg">
<path d="M20.3751 41.7235C20.2663 41.7236 20.162 41.6805 20.0851 41.6037C15.1676 36.6895 10.0821 31.6073 6.32082 26.5961C2.06737 20.9284 0 15.9535 0 11.3856C0.00416144 8.63135 1.10059 5.99115 3.04878 4.04418C4.99697 2.09721 7.63785 1.00244 10.3921 1C15.5232 1 18.0892 3.65604 20.3751 7.99242C22.6576 3.65604 25.228 1 30.358 1C33.1124 1.00229 35.7535 2.09699 37.7019 4.04396C39.6503 5.99093 40.7469 8.63121 40.7512 11.3856C40.7512 11.4398 40.7512 11.4941 40.7512 11.5483C40.7512 11.6025 40.7512 11.6464 40.7512 11.6957C40.7511 11.7644 40.7338 11.832 40.7008 11.8923C40.6678 11.9526 40.6203 12.0037 40.5625 12.0408C40.5046 12.078 40.4384 12.1001 40.3699 12.105C40.3014 12.11 40.2327 12.0976 40.1701 12.0692C37.4242 10.8057 34.3033 10.6222 31.4283 11.5553C28.5532 12.4884 26.1348 14.4695 24.6542 17.1047C23.1735 19.7398 22.7391 22.8358 23.4375 25.7767C24.1358 28.7175 25.9156 31.2878 28.4228 32.976C28.4719 33.0092 28.5133 33.0527 28.544 33.1034C28.5747 33.1541 28.594 33.2109 28.6007 33.2698C28.6074 33.3287 28.6013 33.3884 28.5828 33.4447C28.5642 33.501 28.5337 33.5527 28.4933 33.5961C26.1012 36.167 23.6393 38.6371 20.6694 41.6032C20.5922 41.6796 20.488 41.7225 20.3794 41.7225M10.3921 1.82066C7.85538 1.82267 5.42298 2.83084 3.6286 4.624C1.83422 6.41716 0.824392 8.84887 0.820661 11.3856C0.820661 15.7692 2.83383 20.5831 6.9767 26.1039C10.6301 30.9704 15.5682 35.929 20.3756 40.7338C23.0793 38.0344 25.3624 35.7382 27.5675 33.3825C25.0428 31.534 23.2791 28.8281 22.6071 25.7721C21.9351 22.716 22.4009 19.5198 23.9172 16.7827C25.4335 14.0456 27.8962 11.9557 30.8435 10.9047C33.7907 9.85369 37.0201 9.91388 39.9262 11.074C39.8411 8.59242 38.796 6.24082 37.0111 4.51469C35.2262 2.78857 32.841 1.82271 30.358 1.82066C25.3516 1.82066 23.0403 4.48103 20.742 9.07598C20.7079 9.14397 20.6555 9.20113 20.5907 9.24107C20.526 9.28102 20.4514 9.30217 20.3753 9.30217C20.2992 9.30217 20.2247 9.28102 20.1599 9.24107C20.0951 9.20113 20.0428 9.14397 20.0086 9.07598C17.7093 4.48103 15.4012 1.82066 10.3921 1.82066Z" fill="currentColor"/>
<path d="M35.1421 35.8488C32.6018 35.8466 30.1191 35.0912 28.008 33.6783C25.8969 32.2653 24.2521 30.2582 23.2815 27.9106C22.311 25.563 22.0582 22.9803 22.5551 20.4891C23.0521 17.9978 24.2765 15.7099 26.0736 13.9144C27.8707 12.1189 30.1597 10.8965 32.6514 10.4018C35.1431 9.90699 37.7255 10.1621 40.0722 11.1347C42.419 12.1074 44.4247 13.754 45.8358 15.8663C47.2468 17.9787 48 20.462 48 23.0023C47.9955 26.41 46.6391 29.6767 44.2284 32.0853C41.8177 34.4938 38.5498 35.8474 35.1421 35.8488ZM35.1421 10.9791C32.7642 10.9815 30.4403 11.6888 28.4643 13.0116C26.4883 14.3344 24.9489 16.2134 24.0406 18.4109C23.1322 20.6085 22.8958 23.0261 23.3612 25.358C23.8266 27.6899 24.9729 29.8315 26.6552 31.512C28.3375 33.1926 30.4803 34.3367 32.8127 34.7997C35.1451 35.2626 37.5624 35.0237 39.759 34.1131C41.9557 33.2025 43.833 31.6611 45.1538 29.6837C46.4746 27.7064 47.1794 25.3818 47.1793 23.0039C47.1746 19.814 45.9045 16.7563 43.6477 14.5019C41.391 12.2475 38.332 10.9805 35.1421 10.9791Z" fill="currentColor"/>
<path d="M30.339 26.8216C30.2671 26.8214 30.1964 26.8024 30.1341 26.7665C30.0718 26.7305 30.02 26.6789 29.9839 26.6167L27.6607 22.593H25.1597C25.0509 22.593 24.9465 22.5498 24.8696 22.4729C24.7926 22.3959 24.7494 22.2915 24.7494 22.1827C24.7494 22.0739 24.7926 21.9695 24.8696 21.8926C24.9465 21.8156 25.0509 21.7724 25.1597 21.7724H27.8971C27.9691 21.7723 28.0399 21.7912 28.1023 21.8272C28.1647 21.8631 28.2166 21.9149 28.2526 21.9773L30.1991 25.3488L31.9337 18.8654C31.9547 18.787 31.9985 18.7166 32.0596 18.6631C32.1206 18.6096 32.1962 18.5754 32.2766 18.5648C32.3571 18.5542 32.4389 18.5678 32.5117 18.6037C32.5845 18.6397 32.645 18.6964 32.6855 18.7667L34.9524 22.6895L36.8755 20.7685C36.9395 20.7046 37.0228 20.6636 37.1125 20.6518C37.2022 20.64 37.2932 20.6582 37.3715 20.7035L40.2514 22.367H45.1299C45.2387 22.367 45.3431 22.4102 45.42 22.4872C45.497 22.5641 45.5402 22.6685 45.5402 22.7773C45.5402 22.8862 45.497 22.9905 45.42 23.0675C45.3431 23.1444 45.2387 23.1877 45.1299 23.1877H40.143C40.071 23.1877 40.0002 23.1691 39.9376 23.1335L37.2328 21.5707L35.1562 23.6473C35.1117 23.6918 35.0576 23.7255 34.998 23.7457C34.9384 23.766 34.875 23.7722 34.8126 23.764C34.7503 23.7558 34.6906 23.7333 34.6383 23.6983C34.5861 23.6633 34.5425 23.6167 34.5111 23.5622L32.4719 20.034L30.7341 26.5175C30.7131 26.5959 30.6693 26.6663 30.6082 26.7197C30.5471 26.7732 30.4715 26.8073 30.391 26.8178C30.373 26.8201 30.3549 26.8214 30.3368 26.8216" fill="currentColor"/>
<path d="M43.3097 41.7235H4.6833C4.62941 41.7235 4.57605 41.7129 4.52627 41.6923C4.47649 41.6717 4.43125 41.6415 4.39315 41.6034C4.35505 41.5653 4.32482 41.52 4.3042 41.4702C4.28358 41.4205 4.27297 41.3671 4.27297 41.3132C4.27297 41.2593 4.28358 41.206 4.3042 41.1562C4.32482 41.1064 4.35505 41.0612 4.39315 41.0231C4.43125 40.985 4.47649 40.9547 4.52627 40.9341C4.57605 40.9135 4.62941 40.9029 4.6833 40.9029H43.3097C43.3635 40.9029 43.4169 40.9135 43.4667 40.9341C43.5165 40.9547 43.5617 40.985 43.5998 41.0231C43.6379 41.0612 43.6681 41.1064 43.6888 41.1562C43.7094 41.206 43.72 41.2593 43.72 41.3132C43.72 41.3671 43.7094 41.4205 43.6888 41.4702C43.6681 41.52 43.6379 41.5653 43.5998 41.6034C43.5617 41.6415 43.5165 41.6717 43.4667 41.6923C43.4169 41.7129 43.3635 41.7235 43.3097 41.7235Z" fill="currentColor"/>
<path d="M32.4009 46.8226H15.5974C15.4886 46.8226 15.3842 46.7794 15.3073 46.7024C15.2303 46.6255 15.1871 46.5211 15.1871 46.4123C15.1871 46.3034 15.2303 46.1991 15.3073 46.1221C15.3842 46.0452 15.4886 46.0019 15.5974 46.0019H32.4009C32.5098 46.0019 32.6141 46.0452 32.6911 46.1221C32.768 46.1991 32.8113 46.3034 32.8113 46.4123C32.8113 46.5211 32.768 46.6255 32.6911 46.7024C32.6141 46.7794 32.5098 46.8226 32.4009 46.8226Z" fill="currentColor"/>
</svg>
