<svg width="49" height="48" viewBox="0 0 49 48" fill="none" xmlns="http://www.w3.org/2000/svg">
<path d="M24.1597 12.2456C26.5516 12.2429 28.8905 12.9502 30.88 14.2779C32.8696 15.6055 34.4203 17.4938 35.3358 19.7036C36.2512 21.9133 36.4902 24.3451 36.0225 26.6908C35.5547 29.0364 34.4013 31.1905 32.7083 32.8801C31.4464 34.1384 29.9219 35.102 28.2439 35.702C26.566 36.302 24.7761 36.5235 23.0025 36.3507C21.2289 36.1778 19.5154 35.6149 17.9849 34.7023C16.4543 33.7896 15.1445 32.5498 14.1493 31.0716C13.154 29.5934 12.498 27.9134 12.2281 26.1519C11.9583 24.3905 12.0813 22.5911 12.5883 20.8828C13.0954 19.1744 13.9739 17.5994 15.1611 16.2703C16.3482 14.9413 17.8146 13.8913 19.4551 13.1954C20.9434 12.5655 22.5436 12.2425 24.1597 12.2456ZM24.1597 35.2384C26.3168 35.2382 28.4254 34.5985 30.2189 33.4C32.0125 32.2016 33.4103 30.4982 34.2358 28.5053C35.0612 26.5124 35.2772 24.3195 34.8564 22.2039C34.4356 20.0883 33.397 18.1449 31.8717 16.6196C30.8621 15.5926 29.6591 14.7757 28.3322 14.2161C27.0052 13.6565 25.5806 13.3652 24.1405 13.3591C22.7004 13.3529 21.2733 13.6321 19.9416 14.1803C18.6099 14.7286 17.4 15.5352 16.3817 16.5535C15.3634 17.5718 14.5568 18.7818 14.0085 20.1134C13.4603 21.4451 13.1811 22.8722 13.1873 24.3123C13.1934 25.7524 13.4847 27.177 14.0443 28.504C14.6039 29.831 15.4208 31.0339 16.4477 32.0435C17.4581 33.0595 18.66 33.865 19.9837 34.4134C21.3075 34.9618 22.7269 35.2422 24.1597 35.2384Z" fill="currentColor"/>
<path d="M13.4292 27.6119H3.61246C2.65498 27.6119 1.73674 27.2315 1.0597 26.5545C0.382666 25.8775 0.00231934 24.9592 0.00231934 24.0018C0.00231934 23.0443 0.382666 22.126 1.0597 21.449C1.73674 20.7719 2.65498 20.3916 3.61246 20.3916H13.4292V21.5707H3.61246C2.96771 21.5707 2.34937 21.8268 1.89346 22.2827C1.43755 22.7387 1.18143 23.357 1.18143 24.0018C1.18143 24.6465 1.43755 25.2648 1.89346 25.7208C2.34937 26.1767 2.96771 26.4328 3.61246 26.4328H13.4292V27.6119Z" fill="currentColor"/>
<path d="M44.3892 27.6119H34.5725V26.4328H44.3892C45.034 26.4328 45.6523 26.1767 46.1082 25.7208C46.5641 25.2648 46.8202 24.6465 46.8202 24.0018C46.8202 23.357 46.5641 22.7387 46.1082 22.2827C45.6523 21.8268 45.034 21.5707 44.3892 21.5707H34.5725V20.3916H44.3892C45.3467 20.3916 46.2649 20.7719 46.942 21.449C47.619 22.126 47.9994 23.0443 47.9994 24.0018C47.9994 24.9592 47.619 25.8775 46.942 26.5545C46.2649 27.2315 45.3467 27.6119 44.3892 27.6119Z" fill="currentColor"/>
<path d="M24.0005 48.0001C23.0434 47.999 22.1259 47.6183 21.4491 46.9416C20.7724 46.2648 20.3917 45.3473 20.3906 44.3902V34.5735H21.5697V44.3902C21.5697 45.035 21.8259 45.6533 22.2818 46.1092C22.7377 46.5651 23.356 46.8212 24.0008 46.8212C24.6455 46.8212 25.2639 46.5651 25.7198 46.1092C26.1757 45.6533 26.4318 45.035 26.4318 44.3902V34.5735H27.6109V44.3902C27.6098 45.3474 27.2291 46.265 26.5522 46.9418C25.8753 47.6185 24.9576 47.9991 24.0005 48.0001Z" fill="currentColor"/>
<path d="M27.6109 13.43H26.4318V3.61331C26.4318 2.96856 26.1757 2.35022 25.7198 1.89432C25.2639 1.43841 24.6455 1.18229 24.0008 1.18229C23.356 1.18229 22.7377 1.43841 22.2818 1.89432C21.8259 2.35022 21.5697 2.96856 21.5697 3.61331V13.43H20.3906V3.61331C20.3906 2.65584 20.771 1.73759 21.448 1.06056C22.125 0.38352 23.0433 0.00317383 24.0008 0.00317383C24.9583 0.00317383 25.8765 0.38352 26.5535 1.06056C27.2306 1.73759 27.6109 2.65584 27.6109 3.61331V13.43Z" fill="currentColor"/>
<path d="M45.4481 20.8149C45.354 20.8148 45.2613 20.7923 45.1777 20.7491C45.0941 20.706 45.0221 20.6434 44.9676 20.5667C44.9132 20.49 44.8778 20.4014 44.8646 20.3083C44.8514 20.2151 44.8606 20.1202 44.8915 20.0314C46.4833 15.4623 46.8778 13.7231 46.8141 11.5783C46.7904 10.1087 46.5189 8.65375 46.0111 7.27452C45.5594 6.06902 44.8527 4.97524 43.9394 4.06793L43.9317 4.06026C43.0244 3.14696 41.9306 2.44029 40.7251 1.98855C39.3459 1.48076 37.8909 1.20929 36.4214 1.18558C34.276 1.12249 32.538 1.51749 27.9683 3.10811C27.8952 3.13359 27.8178 3.14441 27.7404 3.13996C27.6631 3.13551 27.5875 3.11588 27.5177 3.08219C27.448 3.04849 27.3856 3.00139 27.3341 2.94358C27.2826 2.88577 27.243 2.81838 27.2175 2.74525C27.192 2.67213 27.1812 2.59469 27.1857 2.51739C27.1901 2.44008 27.2097 2.3644 27.2434 2.29468C27.2771 2.22497 27.3242 2.16258 27.382 2.11106C27.4399 2.05954 27.5072 2.01993 27.5804 1.99445C31.9767 0.461606 33.9782 -0.0689967 36.4556 0.00705617C38.0575 0.0346663 39.6433 0.332441 41.1461 0.887847C42.5061 1.40375 43.7413 2.2023 44.77 3.23076C45.7986 4.25923 46.5974 5.49421 47.1136 6.85416C47.669 8.35697 47.9668 9.94275 47.9944 11.5447C48.0675 14.0208 47.5375 16.0253 46.007 20.4205C45.9664 20.5362 45.8908 20.6363 45.7906 20.707C45.6904 20.7777 45.5707 20.8154 45.4481 20.8149Z" fill="currentColor"/>
<path d="M36.0192 47.9995C33.7329 47.9995 31.7155 47.4447 27.5821 46.0056C27.4344 45.9541 27.3132 45.8461 27.2451 45.7053C27.1771 45.5645 27.1678 45.4025 27.2192 45.2548C27.2707 45.1071 27.3787 44.9859 27.5195 44.9178C27.6603 44.8498 27.8223 44.8405 27.97 44.8919C32.5397 46.4837 34.2783 46.8781 36.4231 46.8145C37.8926 46.7907 39.3476 46.5193 40.7269 46.0115C41.9324 45.5597 43.0262 44.8531 43.9335 43.9398L43.9411 43.9321C44.8544 43.0248 45.5611 41.931 46.0128 40.7255C46.5206 39.3463 46.7921 37.8913 46.8158 36.4217C46.8795 34.2763 46.4839 32.5383 44.8933 27.9687C44.8418 27.821 44.8511 27.6589 44.9192 27.5181C44.9872 27.3773 45.1084 27.2693 45.2561 27.2179C45.4038 27.1664 45.5659 27.1758 45.7067 27.2438C45.8475 27.3119 45.9555 27.433 46.0069 27.5807C47.5398 31.9771 48.0704 33.9786 47.9943 36.4559C47.9667 38.0579 47.6689 39.6436 47.1135 41.1464C46.5979 42.5066 45.7996 43.7419 44.7713 44.7708C43.7431 45.7997 42.5082 46.5987 41.1484 47.1151C39.6456 47.6705 38.0598 47.9683 36.4579 47.9959C36.3101 47.9983 36.1639 47.9995 36.0192 47.9995Z" fill="currentColor"/>
<path d="M11.9818 47.9993C11.8368 47.9993 11.6912 47.9994 11.5438 47.9929C9.94187 47.9653 8.35609 47.6675 6.85328 47.1121C5.49383 46.5965 4.25917 45.7985 3.23073 44.7708C2.20229 43.7431 1.40347 42.509 0.886968 41.1499C0.331621 39.6471 0.0340278 38.0613 0.006753 36.4594C-0.0675312 33.9832 0.463085 31.9787 1.99358 27.5842C2.04502 27.4365 2.153 27.3153 2.29381 27.2472C2.43461 27.1792 2.59669 27.1698 2.74438 27.2213C2.89206 27.2727 3.01326 27.3807 3.08131 27.5215C3.14936 27.6623 3.15868 27.8244 3.10724 27.9721C1.51543 32.5417 1.12162 34.2804 1.18529 36.4246C1.2087 37.8941 1.47996 39.3491 1.98767 40.7284C2.43938 41.9339 3.14605 43.0277 4.05938 43.9349L4.06705 43.9426C4.97436 44.8559 6.06814 45.5626 7.27364 46.0143C8.65287 46.5221 10.1079 46.7936 11.5774 46.8173C13.7228 46.881 15.4608 46.4854 20.0305 44.8947C20.1782 44.8433 20.3402 44.8526 20.481 44.9207C20.6218 44.9887 20.7298 45.1099 20.7813 45.2576C20.8327 45.4053 20.8234 45.5674 20.7553 45.7082C20.6873 45.849 20.5661 45.957 20.4184 46.0084C16.285 47.4458 14.2699 47.9993 11.9818 47.9993Z" fill="currentColor"/>
<path d="M2.55307 20.8149C2.43065 20.8148 2.31129 20.7766 2.21157 20.7056C2.11184 20.6346 2.03668 20.5343 1.99653 20.4187C0.463678 16.0218 -0.0669203 14.0202 0.00972216 11.5429C0.0369857 9.941 0.334579 8.3552 0.889938 6.85239C1.40584 5.49315 2.20408 4.25874 3.23201 3.23061C4.25993 2.20248 5.49417 1.40401 6.8533 0.887839C8.35611 0.332422 9.94189 0.0346472 11.5438 0.00704827C14.02 -0.0660568 16.0245 0.463956 20.4196 1.99445C20.5673 2.04589 20.6885 2.15387 20.7565 2.29468C20.8246 2.43548 20.8339 2.59756 20.7825 2.74525C20.731 2.89293 20.623 3.01413 20.4822 3.08218C20.3414 3.15023 20.1794 3.15955 20.0317 3.10811C15.4626 1.5163 13.7234 1.12249 11.5786 1.18557C10.1091 1.20929 8.65405 1.48075 7.27483 1.98855C6.06932 2.44028 4.97554 3.14695 4.06823 4.06025L4.06057 4.06792C3.14724 4.9752 2.44056 6.06898 1.98886 7.27452C1.48134 8.65377 1.21028 10.1088 1.18707 11.5783C1.12281 13.7237 1.51782 15.4617 3.10903 20.0314C3.13998 20.1202 3.14922 20.2151 3.13599 20.3083C3.12275 20.4014 3.08741 20.49 3.03293 20.5667C2.97845 20.6434 2.90642 20.7059 2.82284 20.7491C2.73926 20.7923 2.64714 20.8148 2.55307 20.8149Z" fill="currentColor"/>
<path d="M44.9209 21.5431C44.7793 21.5429 44.6426 21.4917 44.5356 21.3989C44.4287 21.3061 44.3587 21.178 44.3384 21.0379C43.7016 16.6564 41.6662 12.5979 38.5355 9.46718C35.4047 6.33646 31.3463 4.30104 26.9648 3.6642C26.8869 3.65461 26.8117 3.62958 26.7436 3.59056C26.6756 3.55154 26.616 3.49931 26.5683 3.43696C26.5207 3.37461 26.486 3.30339 26.4662 3.22745C26.4465 3.15151 26.4421 3.0724 26.4533 2.99474C26.4645 2.91708 26.4912 2.84244 26.5316 2.7752C26.572 2.70797 26.6255 2.64948 26.6888 2.60317C26.7522 2.55685 26.8241 2.52364 26.9005 2.50549C26.9768 2.48734 27.056 2.48461 27.1334 2.49746C31.7667 3.1707 36.0585 5.32299 39.3692 8.6336C42.6799 11.9442 44.8324 16.2359 45.5058 20.8693C45.5179 20.953 45.5118 21.0383 45.488 21.1195C45.4641 21.2007 45.4231 21.2758 45.3677 21.3398C45.3123 21.4037 45.2438 21.4549 45.1668 21.49C45.0898 21.5251 45.0055 21.5432 44.9209 21.5431Z" fill="currentColor"/>
<path d="M20.9526 45.5126C20.9242 45.5127 20.8958 45.5107 20.8677 45.5067C16.2338 44.8339 11.9414 42.6818 8.63025 39.371C5.31906 36.0602 3.16634 31.7681 2.49294 27.1344C2.48009 27.057 2.48283 26.9778 2.50098 26.9014C2.51913 26.8251 2.55233 26.7532 2.59864 26.6898C2.64496 26.6265 2.70344 26.573 2.77068 26.5326C2.83792 26.4921 2.91256 26.4655 2.99022 26.4543C3.06787 26.4431 3.14699 26.4475 3.22292 26.4672C3.29886 26.487 3.37011 26.5217 3.43246 26.5693C3.49481 26.617 3.54702 26.6765 3.58604 26.7446C3.62506 26.8127 3.65009 26.8879 3.65968 26.9658C4.29651 31.3472 6.33195 35.4057 9.46268 38.5364C12.5934 41.6672 16.6519 43.7026 21.0333 44.3394C21.181 44.3605 21.3153 44.4367 21.409 44.5528C21.5027 44.6689 21.5489 44.8162 21.5382 44.965C21.5276 45.1138 21.461 45.2531 21.3518 45.3547C21.2425 45.4563 21.0988 45.5128 20.9496 45.5126H20.9526Z" fill="currentColor"/>
<path d="M3.08237 21.5429C2.99776 21.543 2.91414 21.5249 2.83714 21.4898C2.76015 21.4547 2.6916 21.4035 2.63617 21.3395C2.58075 21.2756 2.53974 21.2005 2.51592 21.1193C2.4921 21.0381 2.48602 20.9528 2.49812 20.869C3.17077 16.2356 5.32251 11.9435 8.6327 8.63239C11.9429 5.32124 16.2343 3.16827 20.8676 2.49428C20.945 2.48143 21.0241 2.48418 21.1005 2.50233C21.1768 2.52048 21.2488 2.55367 21.3121 2.59999C21.3754 2.6463 21.4289 2.70478 21.4693 2.77202C21.5098 2.83926 21.5364 2.9139 21.5476 2.99156C21.5588 3.06922 21.5544 3.14833 21.5347 3.22427C21.5149 3.3002 21.4802 3.37145 21.4326 3.4338C21.385 3.49615 21.3254 3.54836 21.2573 3.58738C21.1892 3.6264 21.114 3.65143 21.0362 3.66102C16.6547 4.29786 12.5962 6.33329 9.46549 9.46402C6.33476 12.5948 4.29934 16.6532 3.6625 21.0347C3.64296 21.1749 3.5736 21.3035 3.46707 21.3968C3.36055 21.4901 3.22398 21.542 3.08237 21.5429Z" fill="currentColor"/>
<path d="M27.0485 45.5128C26.8993 45.5129 26.7556 45.4565 26.6464 45.3549C26.5371 45.2532 26.4705 45.114 26.4599 44.9652C26.4493 44.8164 26.4954 44.6691 26.5891 44.553C26.6828 44.4369 26.8171 44.3606 26.9648 44.3396C31.3463 43.7027 35.4047 41.6673 38.5354 38.5366C41.6662 35.4059 43.7016 31.3474 44.3384 26.9659C44.3637 26.8138 44.4475 26.6776 44.572 26.5866C44.6965 26.4955 44.8517 26.4569 45.0044 26.479C45.157 26.501 45.2949 26.582 45.3885 26.7046C45.4821 26.8271 45.524 26.9815 45.5051 27.1345C44.8318 31.7678 42.6793 36.0596 39.3686 39.3702C36.0579 42.6808 31.7661 44.8331 27.1328 45.5063C27.1049 45.5105 27.0767 45.5126 27.0485 45.5128Z" fill="currentColor"/>
</svg>
