<svg width="48" height="48" viewBox="0 0 48 48" fill="none" xmlns="http://www.w3.org/2000/svg">
<path d="M21.2107 27.6131C21.0543 27.6131 20.9044 27.551 20.7938 27.4404C20.6833 27.3299 20.6211 27.1799 20.6211 27.0236V17.0425H18.1906C18.0342 17.0425 17.8843 16.9804 17.7737 16.8699C17.6632 16.7593 17.6011 16.6094 17.6011 16.453C17.6011 16.2967 17.6632 16.1467 17.7737 16.0362C17.8843 15.9256 18.0342 15.8635 18.1906 15.8635H21.2107C21.367 15.8635 21.5169 15.9256 21.6275 16.0362C21.7381 16.1467 21.8002 16.2967 21.8002 16.453V27.0236C21.8002 27.1799 21.7381 27.3299 21.6275 27.4404C21.5169 27.551 21.367 27.6131 21.2107 27.6131Z" fill="currentColor"/>
<path d="M23.623 28.3104H18.3174C18.1611 28.3104 18.0111 28.2483 17.9006 28.1377C17.79 28.0272 17.7279 27.8772 17.7279 27.7209C17.7279 27.5645 17.79 27.4146 17.9006 27.304C18.0111 27.1935 18.1611 27.1313 18.3174 27.1313H23.623C23.7794 27.1313 23.9293 27.1935 24.0399 27.304C24.1504 27.4146 24.2125 27.5645 24.2125 27.7209C24.2125 27.8772 24.1504 28.0272 24.0399 28.1377C23.9293 28.2483 23.7794 28.3104 23.623 28.3104Z" fill="currentColor"/>
<path d="M20.8335 14.4828C20.5512 14.4828 20.2752 14.3991 20.0405 14.2423C19.8058 14.0855 19.6229 13.8626 19.5149 13.6018C19.4069 13.341 19.3786 13.054 19.4337 12.7772C19.4887 12.5003 19.6247 12.246 19.8243 12.0464C20.0239 11.8468 20.2782 11.7109 20.555 11.6558C20.8319 11.6008 21.1188 11.629 21.3796 11.7371C21.6404 11.8451 21.8633 12.028 22.0201 12.2627C22.177 12.4974 22.2607 12.7734 22.2607 13.0556C22.2602 13.434 22.1097 13.7967 21.8421 14.0643C21.5746 14.3318 21.2118 14.4824 20.8335 14.4828ZM20.8335 12.2179C20.6678 12.2179 20.5058 12.2671 20.3681 12.3591C20.2303 12.4512 20.1229 12.582 20.0595 12.7351C19.9961 12.8881 19.9795 13.0566 20.0119 13.2191C20.0442 13.3815 20.124 13.5308 20.2411 13.648C20.3583 13.7651 20.5075 13.8449 20.67 13.8772C20.8325 13.9095 21.001 13.893 21.154 13.8296C21.3071 13.7662 21.4379 13.6588 21.53 13.521C21.622 13.3833 21.6712 13.2213 21.6712 13.0556C21.6708 12.8336 21.5825 12.6207 21.4255 12.4636C21.2684 12.3066 21.0555 12.2182 20.8335 12.2179Z" fill="currentColor"/>
<path d="M20.8335 39.6951C16.2559 39.6915 11.8202 38.1059 8.27777 35.2067C4.73531 32.3075 2.3038 28.2731 1.39507 23.7866C0.486345 19.3001 1.15626 14.6374 3.29135 10.5883C5.42644 6.53912 8.89546 3.3524 13.1109 1.56784C16.1281 0.291316 19.4146 -0.218072 22.6767 0.0851633C25.9388 0.388399 29.0751 1.49482 31.8054 3.30561C34.5357 5.1164 36.775 7.57519 38.3234 10.4624C39.8717 13.3496 40.681 16.5754 40.6788 19.8515C40.6784 21.0254 40.5748 22.1969 40.3693 23.3527C40.3565 23.4296 40.3286 23.5032 40.2872 23.5693C40.2458 23.6354 40.1917 23.6926 40.128 23.7376C40.0643 23.7826 39.9923 23.8146 39.9162 23.8316C39.8401 23.8486 39.7613 23.8503 39.6845 23.8366C39.6078 23.823 39.5344 23.7942 39.4688 23.7521C39.4032 23.7099 39.3467 23.6551 39.3024 23.5909C39.2581 23.5267 39.227 23.4543 39.2109 23.378C39.1948 23.3017 39.194 23.2229 39.2085 23.1463C39.4015 22.0589 39.4986 20.9566 39.4986 19.8521C39.5008 16.1575 38.4071 12.5452 36.3558 9.47224C34.3046 6.39931 31.3879 4.00386 27.9749 2.58895C24.5619 1.17404 20.8059 0.803257 17.1822 1.52351C13.5584 2.24376 10.2296 4.02268 7.61712 6.6352C5.00459 9.24772 3.22568 12.5764 2.50543 16.2002C1.78518 19.824 2.15596 23.58 3.57087 26.993C4.98578 30.406 7.38123 33.3226 10.4542 35.3739C13.5271 37.4252 17.1394 38.5189 20.8341 38.5167C21.6913 38.5158 22.5475 38.4568 23.3967 38.3398C23.4741 38.3276 23.5533 38.3309 23.6294 38.3496C23.7056 38.3683 23.7772 38.4021 23.8402 38.4488C23.9032 38.4956 23.9561 38.5544 23.9961 38.6219C24.036 38.6894 24.0621 38.7642 24.0727 38.8419C24.0834 38.9196 24.0785 38.9986 24.0582 39.0744C24.0379 39.1502 24.0028 39.2211 23.9547 39.2831C23.9067 39.3451 23.8468 39.3969 23.7785 39.4355C23.7102 39.474 23.6349 39.4985 23.557 39.5076C22.6545 39.6318 21.7445 39.6944 20.8335 39.6951Z" fill="currentColor"/>
<path d="M43.8645 48C43.7081 48 43.5582 47.9379 43.4476 47.8273C43.3371 47.7168 43.2749 47.5668 43.2749 47.4105V46.6842C43.2749 46.5526 43.3189 46.4248 43.3999 46.3211L44.4162 45.0206C44.5533 44.8467 44.6663 44.6552 44.7523 44.4511C45.7423 42.1749 46.2669 39.7235 46.295 37.2414V32.1563C46.2708 31.8289 46.1237 31.5227 45.8831 31.2993C45.6426 31.0758 45.3264 30.9517 44.9981 30.9517C44.6698 30.9517 44.3536 31.0758 44.1131 31.2993C43.8725 31.5227 43.7254 31.8289 43.7012 32.1563V33.0647C43.7012 33.2211 43.6391 33.371 43.5285 33.4816C43.4179 33.5921 43.268 33.6542 43.1117 33.6542C42.9553 33.6542 42.8054 33.5921 42.6948 33.4816C42.5842 33.371 42.5221 33.2211 42.5221 33.0647V30.7031C42.4979 30.3757 42.3508 30.0696 42.1102 29.8461C41.8697 29.6227 41.5535 29.4985 41.2252 29.4985C40.8969 29.4985 40.5807 29.6227 40.3402 29.8461C40.0996 30.0696 39.9525 30.3757 39.9283 30.7031V31.5538C39.9283 31.7101 39.8662 31.8601 39.7556 31.9706C39.6451 32.0812 39.4951 32.1433 39.3388 32.1433C39.1824 32.1433 39.0325 32.0812 38.9219 31.9706C38.8114 31.8601 38.7493 31.7101 38.7493 31.5538V29.2506C38.7251 28.9232 38.5779 28.617 38.3374 28.3936C38.0968 28.1701 37.7806 28.046 37.4523 28.046C37.124 28.046 36.8079 28.1701 36.5673 28.3936C36.3268 28.617 36.1796 28.9232 36.1554 29.2506V30.7992C36.1554 30.9556 36.0933 31.1055 35.9827 31.2161C35.8722 31.3266 35.7222 31.3887 35.5659 31.3887C35.4096 31.3887 35.2596 31.3266 35.1491 31.2161C35.0385 31.1055 34.9764 30.9556 34.9764 30.7992V20.5341C34.9522 20.2066 34.8051 19.9005 34.5645 19.6771C34.3239 19.4536 34.0078 19.3294 33.6795 19.3294C33.3512 19.3294 33.035 19.4536 32.7944 19.6771C32.5539 19.9005 32.4067 20.2066 32.3825 20.5341V36.8399C32.3825 36.9963 32.3204 37.1462 32.2099 37.2568C32.0993 37.3673 31.9494 37.4295 31.793 37.4295C31.6367 37.4295 31.4867 37.3673 31.3762 37.2568C31.2656 37.1462 31.2035 36.9963 31.2035 36.8399V32.3095C31.0927 31.8022 30.8245 31.3427 30.4372 30.9967C30.1099 30.5947 29.6564 30.3151 29.1502 30.2032C28.8119 30.2032 28.6073 30.2032 28.6073 31.4294V37.2408C28.5934 39.0781 29.0371 40.8899 29.8983 42.5128C29.9762 42.6496 30.0666 42.7789 30.1683 42.8989L33.0015 46.3063C33.0895 46.4121 33.1377 46.5454 33.1377 46.683V47.4093C33.1377 47.5656 33.0756 47.7156 32.965 47.8261C32.8545 47.9367 32.7045 47.9988 32.5482 47.9988C32.3918 47.9988 32.2419 47.9367 32.1313 47.8261C32.0208 47.7156 31.9587 47.5656 31.9587 47.4093V46.897L29.2617 43.6547C29.1123 43.4778 28.9801 43.2871 28.8667 43.0852C27.9055 41.288 27.4073 39.2795 27.4171 37.2414V31.43C27.3831 30.9083 27.4624 30.3855 27.6493 29.8973C27.7785 29.6167 27.9905 29.3825 28.2569 29.2262C28.5233 29.0699 28.8311 28.9989 29.139 29.023C29.9293 29.123 30.6572 29.5038 31.19 30.0959V20.5341C31.19 19.8774 31.4508 19.2476 31.9151 18.7833C32.3795 18.319 33.0092 18.0581 33.6659 18.0581C34.3226 18.0581 34.9523 18.319 35.4167 18.7833C35.881 19.2476 36.1419 19.8774 36.1419 20.5341V27.2026C36.5338 26.9681 36.9821 26.8446 37.4388 26.8454C37.9897 26.8406 38.5264 27.0203 38.9633 27.3558C39.4003 27.6914 39.7124 28.1635 39.8499 28.697C40.257 28.4357 40.7308 28.2974 41.2146 28.2985C41.7655 28.2937 42.3022 28.4734 42.7391 28.809C43.1761 29.1445 43.4882 29.6167 43.6257 30.1502C44.0328 29.8889 44.5067 29.7505 44.9904 29.7517C45.6374 29.7433 46.2613 29.9918 46.7254 30.4426C47.1895 30.8935 47.456 31.5099 47.4664 32.1569V37.242C47.4392 39.8799 46.8839 42.4857 45.8334 44.9056C45.7068 45.2078 45.54 45.4916 45.3376 45.7492L44.454 46.887V47.4105C44.454 47.5668 44.3919 47.7168 44.2813 47.8273C44.1707 47.9379 44.0208 48 43.8645 48Z" fill="currentColor"/>
</svg>
