<svg width="49" height="48" viewBox="0 0 49 48" fill="none" xmlns="http://www.w3.org/2000/svg">
<path d="M24.0036 2.69598C23.8464 2.69598 23.6956 2.63353 23.5844 2.52236C23.4733 2.41119 23.4108 2.26041 23.4108 2.1032L23.4078 0.592784C23.4078 0.435568 23.4703 0.284791 23.5815 0.173622C23.6926 0.0624539 23.8434 0 24.0006 0C24.1578 0 24.3086 0.0624539 24.4198 0.173622C24.531 0.284791 24.5934 0.435568 24.5934 0.592784L24.5964 2.1032C24.5964 2.26041 24.5339 2.41119 24.4227 2.52236C24.3116 2.63353 24.1608 2.69598 24.0036 2.69598Z" fill="currentColor"/>
<path d="M47.4074 22.6058C47.3074 22.6057 47.2092 22.5805 47.1216 22.5323C43.9966 20.777 40.3441 20.205 36.8321 20.9211C35.2833 21.2112 33.7918 21.7501 32.4153 22.5169C32.3259 22.5722 32.2234 22.6029 32.1183 22.6056C32.0132 22.6083 31.9092 22.583 31.8171 22.5323C30.0535 21.559 28.1149 20.944 26.1128 20.7225C24.4444 20.5436 22.7588 20.6084 21.1091 20.9152C19.3976 21.2137 17.7384 21.7584 16.183 22.5323C16.0955 22.5804 15.9972 22.6057 15.8973 22.6057C15.7974 22.6057 15.6991 22.5804 15.6116 22.5323C12.4865 20.777 8.83409 20.205 5.32205 20.9211C3.77331 21.2112 2.28175 21.7501 0.905225 22.5169C0.771684 22.5964 0.612225 22.6203 0.461216 22.5835C0.310206 22.5466 0.179725 22.4519 0.0978711 22.3198C0.0160174 22.1876 -0.0106459 22.0286 0.0236103 21.877C0.0578665 21.7254 0.150302 21.5932 0.281018 21.5091C1.77741 20.6647 3.40294 20.073 5.09205 19.758C8.77111 19.0086 12.5964 19.5694 15.9056 21.3431C17.4781 20.5976 19.1425 20.064 20.8554 19.7563C22.623 19.4241 24.4297 19.3517 26.2183 19.5411C28.2727 19.7649 30.2666 20.3736 32.0957 21.3354C34.5021 20.057 37.1904 19.4017 39.9152 19.4293C42.6399 19.457 45.3143 20.1667 47.6943 21.4937C47.8095 21.5572 47.9004 21.6571 47.9525 21.7779C48.0047 21.8987 48.0152 22.0334 47.9824 22.1608C47.9496 22.2882 47.8754 22.4011 47.7714 22.4816C47.6674 22.5622 47.5395 22.6059 47.408 22.6058H47.4074Z" fill="currentColor"/>
<path d="M15.8966 22.6058C15.7542 22.6057 15.6165 22.5543 15.5089 22.461C15.4012 22.3678 15.3308 22.2388 15.3104 22.0978C14.8919 19.289 15.0532 16.4243 15.7846 13.6803C16.3932 11.4519 17.3527 9.3347 18.627 7.40804C18.6698 7.34296 18.725 7.28695 18.7895 7.24321C18.854 7.19947 18.9264 7.16885 19.0027 7.15311C19.079 7.13737 19.1576 7.1368 19.2341 7.15145C19.3106 7.16611 19.3835 7.19568 19.4486 7.2385C19.5137 7.28131 19.5697 7.33653 19.6134 7.40099C19.6572 7.46545 19.6878 7.53789 19.7035 7.61419C19.7193 7.69048 19.7198 7.76913 19.7052 7.84563C19.6905 7.92214 19.661 7.99502 19.6181 8.0601C18.4131 9.8809 17.5054 11.8819 16.9293 13.9879C16.2392 16.5761 16.0867 19.2783 16.4811 21.9277C16.4933 22.0119 16.4872 22.0977 16.4632 22.1793C16.4393 22.261 16.3981 22.3365 16.3423 22.4008C16.2866 22.4651 16.2177 22.5166 16.1403 22.5519C16.0628 22.5871 15.9788 22.6053 15.8937 22.6052L15.8966 22.6058Z" fill="currentColor"/>
<path d="M32.1022 22.606C32.0172 22.6061 31.9331 22.5879 31.8556 22.5526C31.7782 22.5173 31.7093 22.4658 31.6536 22.4015C31.5979 22.3372 31.5566 22.2617 31.5327 22.1801C31.5087 22.0985 31.5026 22.0126 31.5148 21.9284C31.9093 19.279 31.7568 16.5769 31.0667 13.9887C30.4905 11.8826 29.5828 9.88164 28.3778 8.06084C28.2913 7.92941 28.2606 7.76901 28.2924 7.61493C28.3242 7.46085 28.4159 7.32571 28.5473 7.23924C28.6788 7.15277 28.8392 7.12205 28.9932 7.15384C29.1473 7.18564 29.2824 7.27734 29.3689 7.40877C30.6432 9.33543 31.6027 11.4527 32.2113 13.681C32.9427 16.425 33.1041 19.2898 32.6855 22.0986C32.6651 22.2389 32.595 22.3673 32.488 22.4604C32.381 22.5536 32.2441 22.6052 32.1022 22.606Z" fill="currentColor"/>
<path d="M47.4079 22.6054C47.2507 22.6054 47.0999 22.5429 46.9887 22.4318C46.8776 22.3206 46.8151 22.1698 46.8151 22.0126C46.8127 19.448 46.2033 16.9205 45.0368 14.6366C43.8439 12.3077 42.1873 10.2474 40.1688 8.58248C38.0147 6.79153 35.5565 5.40175 32.9114 4.47923C27.1396 2.46743 20.857 2.46743 15.0852 4.47923C12.44 5.40174 9.98187 6.79152 7.82771 8.58248C5.81071 10.2479 4.15555 12.3081 2.96392 14.6366C1.7974 16.9205 1.18801 19.448 1.18557 22.0126C1.18557 22.1698 1.12311 22.3206 1.01194 22.4318C0.900769 22.5429 0.75 22.6054 0.592784 22.6054C0.435568 22.6054 0.2848 22.5429 0.173631 22.4318C0.0624625 22.3206 0 22.1698 0 22.0126C0.0013372 19.2627 0.653377 16.5521 1.90283 14.1025C3.16802 11.6298 4.92571 9.44199 7.06777 7.67375C9.33032 5.79169 11.9123 4.33102 14.691 3.36124C20.7191 1.25849 27.2816 1.25849 33.3097 3.36124C36.0884 4.33102 38.6704 5.79169 40.9329 7.67375C43.075 9.44199 44.8327 11.6298 46.0979 14.1025C47.3473 16.5521 47.9994 19.2627 48.0007 22.0126C48.0007 22.1698 47.9382 22.3206 47.8271 22.4318C47.7159 22.5429 47.5651 22.6054 47.4079 22.6054Z" fill="currentColor"/>
<path d="M25.5111 45.7356H22.4879C21.8287 45.7086 21.1793 45.5666 20.5691 45.3159C19.1938 44.7652 18.0735 43.7212 17.4273 42.3881C17.3585 42.2477 17.3479 42.0857 17.398 41.9375C17.4481 41.7893 17.5547 41.667 17.6946 41.597C17.8345 41.5271 17.9964 41.5153 18.145 41.5642C18.2936 41.6132 18.4168 41.7188 18.4878 41.8582C18.8559 42.6214 19.4203 43.273 20.1232 43.7461C20.8262 44.2192 21.6423 44.4969 22.4879 44.5506H25.5111C26.547 44.5379 27.5362 44.1175 28.2643 43.3804C28.9924 42.6433 29.4006 41.6491 29.4006 40.613C29.4006 39.577 28.9924 38.5827 28.2643 37.8457C27.5362 37.1086 26.547 36.6882 25.5111 36.6755H22.4879C21.1387 36.661 19.8497 36.1148 18.9008 35.1556C17.9518 34.1964 17.4196 32.9016 17.4196 31.5523C17.4196 30.2031 17.9518 28.9083 18.9008 27.9491C19.8497 26.9899 21.1387 26.4437 22.4879 26.4292H25.5111C26.1703 26.4561 26.8197 26.5982 27.4299 26.8489C28.8052 27.3996 29.9255 28.4436 30.5717 29.7767C30.6072 29.8464 30.6286 29.9224 30.6346 30.0004C30.6405 30.0784 30.631 30.1568 30.6066 30.2311C30.5821 30.3055 30.5432 30.3742 30.492 30.4334C30.4408 30.4926 30.3785 30.541 30.3085 30.576C30.2385 30.611 30.1623 30.6318 30.0842 30.6371C30.0062 30.6425 29.9279 30.6324 29.8537 30.6073C29.7796 30.5823 29.7112 30.5428 29.6524 30.4912C29.5936 30.4396 29.5456 30.3769 29.5112 30.3066C29.1432 29.5433 28.5788 28.8916 27.8759 28.4183C27.1729 27.9451 26.3568 27.6674 25.5111 27.6136H22.4879C21.452 27.6263 20.4628 28.0467 19.7347 28.7838C19.0066 29.5208 18.5983 30.5151 18.5983 31.5512C18.5983 32.5872 19.0066 33.5815 19.7347 34.3185C20.4628 35.0556 21.452 35.476 22.4879 35.4887H25.5111C26.8603 35.5032 28.1493 36.0494 29.0982 37.0086C30.0472 37.9678 30.5794 39.2626 30.5794 40.6119C30.5794 41.9611 30.0472 43.2559 29.0982 44.2151C28.1493 45.1743 26.8603 45.7205 25.5111 45.735V45.7356Z" fill="currentColor"/>
<path d="M24.0006 27.6136C23.8434 27.6136 23.6926 27.5511 23.5815 27.44C23.4703 27.3288 23.4078 27.178 23.4078 27.0208V23.2454C23.4078 23.0882 23.4703 22.9374 23.5815 22.8262C23.6926 22.715 23.8434 22.6526 24.0006 22.6526C24.1578 22.6526 24.3086 22.715 24.4198 22.8262C24.531 22.9374 24.5934 23.0882 24.5934 23.2454V27.0208C24.5934 27.178 24.531 27.3288 24.4198 27.44C24.3086 27.5511 24.1578 27.6136 24.0006 27.6136Z" fill="currentColor"/>
<path d="M24.0006 47.9999C23.8434 47.9999 23.6926 47.9375 23.5815 47.8263C23.4703 47.7151 23.4078 47.5643 23.4078 47.4071V45.1421C23.4078 44.9849 23.4703 44.8341 23.5815 44.7229C23.6926 44.6118 23.8434 44.5493 24.0006 44.5493C24.1578 44.5493 24.3086 44.6118 24.4198 44.7229C24.531 44.8341 24.5934 44.9849 24.5934 45.1421V47.4071C24.5934 47.5643 24.531 47.7151 24.4198 47.8263C24.3086 47.9375 24.1578 47.9999 24.0006 47.9999Z" fill="currentColor"/>
</svg>
