<svg width="48" height="48" viewBox="0 0 48 48" fill="none" xmlns="http://www.w3.org/2000/svg">
<path d="M33.6298 47.9999H18.3844C17.9884 47.9996 17.6087 47.8422 17.3286 47.5622C17.0486 47.2822 16.891 46.9026 16.8906 46.5066V43.1045H13.0438C12.1142 43.1034 11.223 42.7333 10.5661 42.0756C9.90923 41.4178 9.54025 40.5263 9.54025 39.5967V34.5885L7.44867 34.5462C7.15264 34.5405 6.86298 34.4592 6.60724 34.31C6.35149 34.1609 6.13816 33.9487 5.98752 33.6938C5.83689 33.4389 5.75396 33.1497 5.74663 32.8537C5.73929 32.5578 5.80779 32.2648 5.94562 32.0028L8.66966 26.8725C9.24284 25.789 9.5428 24.5818 9.5435 23.356C9.5504 19.3492 11.1466 15.5088 13.9817 12.6775C16.8169 9.84625 20.6594 8.25534 24.6662 8.25391H24.7899C27.365 8.27267 29.8925 8.94979 32.1321 10.2209C34.3717 11.492 36.2489 13.3148 37.5854 15.516C38.9218 17.7172 39.673 20.2237 39.7675 22.7971C39.862 25.3706 39.2967 27.9254 38.1253 30.2187C36.1608 34.0488 35.1323 38.2901 35.1241 42.5946V46.5066C35.1235 46.9026 34.9659 47.2823 34.6857 47.5622C34.4056 47.8422 34.0258 47.9996 33.6298 47.9999ZM24.6662 9.07513C20.8774 9.07613 17.2437 10.5802 14.5625 13.2572C11.8813 15.9342 10.3716 19.5656 10.3647 23.3544C10.3638 24.7146 10.0311 26.0541 9.39542 27.2566L6.67084 32.3857C6.59811 32.5238 6.56194 32.6782 6.56579 32.8342C6.56964 32.9902 6.61338 33.1427 6.69283 33.277C6.77228 33.4113 6.8848 33.523 7.01968 33.6016C7.15455 33.6801 7.30728 33.7227 7.46331 33.7255L9.95846 33.7754C10.0658 33.7775 10.168 33.8217 10.2432 33.8983C10.3183 33.975 10.3604 34.0781 10.3604 34.1855V39.5967C10.3608 40.3082 10.6436 40.9905 11.1465 41.4938C11.6495 41.9971 12.3317 42.2803 13.0432 42.2811H17.3001C17.3541 42.2811 17.4075 42.2918 17.4574 42.3124C17.5073 42.3331 17.5525 42.3634 17.5907 42.4016C17.6288 42.4398 17.659 42.4851 17.6796 42.535C17.7003 42.5849 17.7108 42.6383 17.7108 42.6923V46.5044C17.7112 46.6827 17.7823 46.8536 17.9085 46.9795C18.0346 47.1055 18.2056 47.1763 18.3839 47.1765H33.6298C33.808 47.1763 33.979 47.1055 34.1052 46.9795C34.2314 46.8536 34.3025 46.6827 34.3029 46.5044V42.5946C34.3114 38.1598 35.371 33.7901 37.3947 29.8439C38.5044 27.6754 39.0404 25.2589 38.9518 22.8246C38.8632 20.3903 38.1528 18.0192 36.8883 15.9371C35.6239 13.855 33.8475 12.1314 31.7283 10.9302C29.6091 9.72904 27.2177 9.09041 24.7818 9.07513H24.6662Z" fill="currentColor"/>
<path d="M24.7856 31.9547C22.9653 31.9531 21.1863 31.4118 19.6736 30.3993C18.1609 29.3867 16.9823 27.9484 16.287 26.2661C15.5916 24.5839 15.4106 22.7332 15.7669 20.9481C16.1232 19.1629 17.0008 17.5236 18.2888 16.2371C19.5767 14.9507 21.2171 14.0751 23.0026 13.7209C24.7882 13.3667 26.6386 13.5498 28.3201 14.2472C30.0015 14.9445 31.4385 16.1248 32.4493 17.6387C33.46 19.1526 33.9992 20.9322 33.9987 22.7525C33.9945 25.1937 33.0222 27.5335 31.295 29.2587C29.5678 30.9839 27.2268 31.9534 24.7856 31.9547ZM24.7856 14.3661C23.128 14.3678 21.508 14.8608 20.1304 15.7828C18.7529 16.7049 17.6796 18.0146 17.0462 19.5465C16.4128 21.0784 16.2478 22.7637 16.572 24.3894C16.8962 26.015 17.695 27.5081 18.8675 28.6799C20.0401 29.8517 21.5337 30.6495 23.1595 30.9727C24.7854 31.2958 26.4706 31.1297 28.0021 30.4953C29.5336 29.861 30.8426 28.7868 31.7638 27.4087C32.685 26.0305 33.1769 24.4102 33.1774 22.7525C33.1743 20.5284 32.289 18.3963 30.7157 16.824C29.1425 15.2518 27.0098 14.3679 24.7856 14.3661Z" fill="currentColor"/>
<path d="M24.786 28.4957C23.6497 28.4949 22.539 28.1572 21.5946 27.5253C20.6501 26.8934 19.9143 25.9956 19.48 24.9455C19.0458 23.8954 18.9327 22.7401 19.155 21.6257C19.3773 20.5113 19.925 19.4878 20.729 18.6847C21.5329 17.8816 22.557 17.3349 23.6716 17.1138C24.7862 16.8926 25.9414 17.0069 26.9911 17.4423C28.0407 17.8776 28.9377 18.6144 29.5687 19.5595C30.1996 20.5046 30.5361 21.6156 30.5357 22.752C30.533 24.2755 29.9261 25.7357 28.8483 26.8125C27.7704 27.8892 26.3095 28.4945 24.786 28.4957ZM24.786 17.8251C23.8123 17.8261 22.8608 18.1157 22.0516 18.6573C21.2424 19.1989 20.612 19.9683 20.2399 20.8681C19.8679 21.7679 19.7709 22.7578 19.9613 23.7127C20.1517 24.6676 20.6209 25.5447 21.3096 26.233C21.9983 26.9213 22.8756 27.39 23.8306 27.5799C24.7856 27.7698 25.7755 27.6723 26.6751 27.2997C27.5747 26.9272 28.3437 26.2963 28.8849 25.4868C29.4261 24.6774 29.7151 23.7257 29.7156 22.752C29.7131 21.4456 29.1929 20.1934 28.2689 19.2699C27.3449 18.3464 26.0924 17.8269 24.786 17.8251Z" fill="currentColor"/>
<path d="M22.7607 3.98794C22.6523 3.9878 22.5484 3.94485 22.4716 3.86844C22.3948 3.79204 22.3513 3.68838 22.3506 3.58004V0.410125C22.3506 0.301224 22.3938 0.196783 22.4709 0.119778C22.5479 0.0427727 22.6523 -0.000488281 22.7612 -0.000488281C22.8701 -0.000488281 22.9745 0.0427727 23.0515 0.119778C23.1286 0.196783 23.1718 0.301224 23.1718 0.410125V3.58004C23.1717 3.63396 23.161 3.68734 23.1403 3.73713C23.1196 3.78692 23.0893 3.83215 23.0512 3.87023C23.013 3.90831 22.9677 3.93849 22.9178 3.95906C22.868 3.97963 22.8146 3.99018 22.7607 3.99011" fill="currentColor"/>
<path d="M27.7937 4.11844C27.757 4.11848 27.7206 4.11374 27.6852 4.10434C27.6331 4.09037 27.5842 4.06627 27.5414 4.0334C27.4986 4.00054 27.4627 3.95956 27.4357 3.91281C27.4088 3.86606 27.3913 3.81445 27.3843 3.76095C27.3773 3.70744 27.381 3.65308 27.395 3.60097L28.2189 0.542256C28.2329 0.49015 28.257 0.441304 28.2898 0.398507C28.3226 0.35571 28.3636 0.3198 28.4103 0.292828C28.457 0.265856 28.5086 0.248349 28.5621 0.241308C28.6156 0.234266 28.6699 0.237828 28.722 0.251789C28.7741 0.265751 28.823 0.289838 28.8658 0.322677C28.9086 0.355516 28.9445 0.396463 28.9714 0.44318C28.9984 0.489897 29.0159 0.541469 29.023 0.594951C29.03 0.648434 29.0264 0.702779 29.0125 0.754886L28.1918 3.81415C28.1683 3.90138 28.1168 3.97846 28.0451 4.03346C27.9734 4.08846 27.8856 4.11833 27.7953 4.11844" fill="currentColor"/>
<path d="M32.6232 5.54746C32.5512 5.54806 32.4804 5.52933 32.4182 5.49322C32.3239 5.43866 32.255 5.34888 32.2269 5.24361C32.1987 5.13834 32.2135 5.0262 32.2679 4.93181L33.8551 2.18661C33.882 2.13996 33.9178 2.09906 33.9606 2.06626C34.0033 2.03346 34.0521 2.00939 34.1041 1.99544C34.1561 1.98149 34.2104 1.97792 34.2638 1.98494C34.3172 1.99197 34.3687 2.00944 34.4154 2.03636C34.462 2.06329 34.5029 2.09914 34.5357 2.14187C34.5685 2.1846 34.5926 2.23338 34.6066 2.28541C34.6205 2.33744 34.6241 2.39171 34.617 2.44512C34.61 2.49853 34.5926 2.55003 34.5656 2.59669L32.979 5.34188C32.943 5.40435 32.8911 5.45623 32.8287 5.49232C32.7662 5.5284 32.6954 5.54742 32.6232 5.54746Z" fill="currentColor"/>
<path d="M36.9193 8.17322C36.8383 8.1729 36.7591 8.14864 36.6918 8.10347C36.6245 8.0583 36.5721 7.99425 36.541 7.91937C36.51 7.84448 36.5019 7.7621 36.5175 7.68257C36.5332 7.60305 36.572 7.52993 36.6291 7.47241L38.8688 5.23383C38.9067 5.19503 38.952 5.16413 39.002 5.14294C39.052 5.12174 39.1057 5.11067 39.1599 5.11036C39.2142 5.11005 39.268 5.1205 39.3183 5.14112C39.3685 5.16174 39.4141 5.19211 39.4525 5.23048C39.4909 5.26885 39.5213 5.31445 39.542 5.36465C39.5627 5.41485 39.5732 5.46865 39.5729 5.52294C39.5727 5.57723 39.5616 5.63092 39.5405 5.68092C39.5193 5.73092 39.4885 5.77623 39.4497 5.81422L37.2095 8.0528C37.1714 8.09099 37.1262 8.12128 37.0764 8.14195C37.0266 8.16261 36.9732 8.17324 36.9193 8.17322Z" fill="currentColor"/>
<path d="M40.3888 11.8213C40.2983 11.8214 40.2103 11.7917 40.1385 11.7367C40.0667 11.6816 40.015 11.6044 39.9916 11.517C39.9681 11.4296 39.9742 11.3369 40.0089 11.2534C40.0435 11.1698 40.1048 11.1 40.1832 11.0548L42.9263 9.47313C42.973 9.44432 43.0251 9.42518 43.0794 9.41686C43.1337 9.40853 43.1891 9.41118 43.2424 9.42465C43.2956 9.43812 43.3456 9.46214 43.3894 9.49528C43.4332 9.52842 43.4699 9.57002 43.4974 9.6176C43.5248 9.66518 43.5424 9.71779 43.5492 9.7723C43.5559 9.82681 43.5516 9.88212 43.5366 9.93496C43.5216 9.98779 43.4961 10.0371 43.4617 10.0799C43.4273 10.1227 43.3847 10.1582 43.3363 10.1842L40.5939 11.7665C40.5314 11.802 40.4607 11.8213 40.3888 11.8213Z" fill="currentColor"/>
<path d="M7.15689 15.3298C7.08498 15.33 7.01427 15.3113 6.95186 15.2756L4.20503 13.689C4.11081 13.6345 4.04207 13.5449 4.01394 13.4397C3.98582 13.3346 4.0006 13.2226 4.05506 13.1284C4.10951 13.0341 4.19916 12.9654 4.30429 12.9373C4.40942 12.9092 4.52142 12.9239 4.61565 12.9784L7.36302 14.5639C7.4412 14.6092 7.50226 14.679 7.53673 14.7625C7.5712 14.8461 7.57715 14.9386 7.55367 15.0259C7.53019 15.1131 7.47858 15.1902 7.40684 15.2452C7.33511 15.3001 7.24725 15.3299 7.15689 15.3298Z" fill="currentColor"/>
<path d="M9.78546 11.0371C9.73167 11.0371 9.6784 11.0266 9.62869 11.006C9.57899 10.9854 9.53383 10.9552 9.49581 10.9172L7.25452 8.67429C7.2144 8.63661 7.18226 8.59125 7.16002 8.5409C7.13778 8.49056 7.12589 8.43625 7.12505 8.38122C7.12421 8.32619 7.13444 8.27155 7.15514 8.22055C7.17584 8.16955 7.20658 8.12323 7.24554 8.08435C7.28449 8.04547 7.33087 8.01481 7.3819 7.99421C7.43294 7.97361 7.4876 7.96347 7.54263 7.96442C7.59766 7.96536 7.65195 7.97735 7.70225 7.99969C7.75255 8.02202 7.79785 8.05425 7.83546 8.09444L10.0751 10.3368C10.1326 10.3942 10.1718 10.4674 10.1876 10.5471C10.2034 10.6269 10.1952 10.7095 10.164 10.7845C10.1328 10.8595 10.08 10.9236 10.0123 10.9686C9.94462 11.0135 9.8651 11.0374 9.78383 11.0371" fill="currentColor"/>
<path d="M13.4381 7.57053C13.366 7.57049 13.2952 7.55153 13.2328 7.51555C13.1703 7.47957 13.1184 7.42783 13.0822 7.3655L11.4973 4.62409C11.4461 4.53007 11.4336 4.41977 11.4626 4.31669C11.4915 4.21361 11.5596 4.12592 11.6522 4.0723C11.7449 4.01868 11.8548 4.00337 11.9586 4.02964C12.0624 4.05592 12.1519 4.12169 12.2078 4.21294L13.795 6.95434C13.822 7.00098 13.8396 7.0525 13.8467 7.10595C13.8538 7.1594 13.8503 7.21372 13.8364 7.26582C13.8225 7.31792 13.7985 7.36676 13.7657 7.40955C13.7329 7.45234 13.692 7.48824 13.6453 7.5152C13.583 7.55119 13.5122 7.56992 13.4402 7.56945" fill="currentColor"/>
<path d="M17.8615 5.16705C17.7711 5.1669 17.6832 5.13696 17.6116 5.08185C17.5399 5.02674 17.4884 4.94955 17.465 4.86221L16.647 1.8024C16.6313 1.74979 16.6263 1.69455 16.6324 1.63997C16.6384 1.5854 16.6553 1.53258 16.6821 1.48465C16.7089 1.43672 16.745 1.39466 16.7884 1.36094C16.8317 1.32722 16.8814 1.30254 16.9344 1.28836C16.9875 1.27417 17.0428 1.27077 17.0972 1.27835C17.1516 1.28593 17.2039 1.30434 17.251 1.33249C17.2982 1.36065 17.3392 1.39797 17.3717 1.44226C17.4041 1.48654 17.4274 1.53689 17.44 1.59032L18.2586 4.64958C18.2865 4.75495 18.2716 4.86712 18.217 4.96149C18.1624 5.05586 18.0726 5.12471 17.9673 5.15294C17.9328 5.16215 17.8972 5.16689 17.8615 5.16705Z" fill="currentColor"/>
</svg>
