<svg width="48" height="48" viewBox="0 0 48 48" fill="none" xmlns="http://www.w3.org/2000/svg">
<path d="M8.91137 48.0001C8.78126 48.0002 8.65469 47.9578 8.55108 47.8793C8.44746 47.8009 8.37253 47.6906 8.33778 47.5656C8.30302 47.4406 8.31037 47.3076 8.35869 47.1871C8.40701 47.0666 8.49363 46.9653 8.60526 46.8987L11.8673 44.949L4.90337 33.8369L0.847814 35.8565C0.707314 35.9225 0.546471 35.9311 0.399714 35.8803C0.252957 35.8296 0.131943 35.7236 0.0625735 35.585C-0.00679647 35.4464 -0.0190103 35.2862 0.0285438 35.1388C0.0760979 34.9913 0.179641 34.8683 0.317016 34.796L4.85582 32.5363C4.98812 32.4704 5.1403 32.4561 5.28263 32.4961C5.42497 32.5361 5.54723 32.6276 5.62556 32.7527L13.197 44.834C13.2389 44.9009 13.267 44.9753 13.2797 45.0531C13.2923 45.1309 13.2894 45.2104 13.2709 45.287C13.2524 45.3636 13.2188 45.4357 13.172 45.4992C13.1252 45.5627 13.0662 45.6163 12.9984 45.6568L9.2163 47.9165C9.12409 47.9713 9.01872 48.0002 8.91137 48.0001Z" fill="currentColor"/>
<path d="M20.2696 35.1634C20.112 35.1634 19.9608 35.101 19.8493 34.9898C19.7379 34.8786 19.6752 34.7279 19.6752 34.5707C19.6752 34.4134 19.7379 34.2627 19.8493 34.1515C19.9608 34.0403 20.112 33.9779 20.2696 33.9779L29.3454 33.9725C29.9837 33.9626 30.5924 33.7027 31.0403 33.2491C31.4881 32.7955 31.7391 32.1844 31.7391 31.5478C31.7391 30.9112 31.4881 30.3001 31.0403 29.8465C30.5924 29.3928 29.9837 29.133 29.3454 29.123L17.7708 29.1284C16.5363 29.1292 15.3242 29.4565 14.2579 30.0768L6.94685 34.33C6.81065 34.4092 6.64847 34.4313 6.49598 34.3912C6.34349 34.3512 6.21318 34.2524 6.13372 34.1166C6.05427 33.9808 6.03218 33.819 6.07231 33.6669C6.11244 33.5149 6.2115 33.3849 6.34771 33.3057L13.6588 29.0525C14.9069 28.3271 16.3256 27.9446 17.7702 27.944L29.3449 27.9375C30.2969 27.9497 31.2059 28.3354 31.8749 29.0111C32.5438 29.6869 32.9189 30.5982 32.9189 31.5478C32.9189 32.4974 32.5438 33.4087 31.8749 34.0845C31.2059 34.7602 30.2969 35.1459 29.3449 35.1581L20.2696 35.1634Z" fill="currentColor"/>
<path d="M12.3957 44.2233C12.2656 44.2236 12.1389 44.1813 12.0352 44.1029C11.9315 44.0244 11.8564 43.9142 11.8216 43.7891C11.7868 43.6641 11.7941 43.531 11.8424 43.4105C11.8907 43.29 11.9773 43.1886 12.089 43.1219L14.7935 41.503C15.591 41.025 16.5039 40.7726 17.4344 40.7727H29.3223C30.2529 40.7735 31.1742 40.5879 32.0316 40.2268L45.3977 33.8248L45.4274 33.8118C46.0242 33.5662 46.4987 33.0943 46.7466 32.4998C46.9944 31.9054 46.9953 31.2371 46.7491 30.6419C46.5028 30.0468 46.0296 29.5736 45.4335 29.3264C44.8374 29.0792 44.1673 29.0783 43.5706 29.3239L30.3464 35.1141C30.2035 35.1692 30.0448 35.1671 29.9034 35.1083C29.762 35.0495 29.6488 34.9385 29.5875 34.7985C29.5262 34.6585 29.5214 34.5003 29.5742 34.3569C29.627 34.2135 29.7333 34.0959 29.8709 34.0287L43.1057 28.2373L43.117 28.2326C43.9949 27.909 44.9642 27.9364 45.8223 28.3092C46.6803 28.682 47.3606 29.3712 47.7207 30.2327C48.0809 31.0942 48.0931 32.0612 47.7547 32.9315C47.4164 33.8017 46.7537 34.5077 45.9053 34.9019L32.5404 41.3039L32.5148 41.3157C31.5074 41.7423 30.4239 41.9616 29.3294 41.9607H17.4415C16.7268 41.9604 16.0255 42.1543 15.4129 42.5214L12.7078 44.1403C12.6134 44.1962 12.5054 44.2249 12.3957 44.2233Z" fill="currentColor"/>
<path d="M24.8126 29.123C24.7199 29.1231 24.6285 29.1015 24.5456 29.06C24.4628 29.0185 24.3908 28.9582 24.3355 28.884C24.2801 28.8098 24.243 28.7238 24.227 28.6327C24.2109 28.5416 24.2165 28.4481 24.2432 28.3595C24.7644 26.5779 25.7687 24.9744 27.1456 23.7258C28.3118 22.6915 29.6667 21.8907 31.1364 21.3672C32.7502 20.7718 34.4499 20.4407 36.1697 20.3867C36.3274 20.3867 36.4786 20.4492 36.59 20.5603C36.7015 20.6715 36.7641 20.8223 36.7641 20.9795C36.737 21.7759 36.6008 22.5649 36.3593 23.3245C35.8739 24.9822 34.8717 26.4427 33.4979 27.4941C33.3718 27.5884 33.2133 27.6289 33.0572 27.6067C32.9012 27.5845 32.7604 27.5013 32.6658 27.3755C32.5712 27.2498 32.5306 27.0917 32.5529 26.936C32.5752 26.7804 32.6585 26.64 32.7847 26.5457C34.3173 25.3262 35.3022 23.5501 35.523 21.6072C34.1537 21.7227 32.806 22.0201 31.5156 22.4917C30.195 22.9646 28.9778 23.6863 27.9302 24.6173C26.7216 25.7196 25.84 27.1321 25.3821 28.7004C25.3454 28.8225 25.2701 28.9297 25.1676 29.0058C25.065 29.0819 24.9405 29.123 24.8126 29.123Z" fill="currentColor"/>
<path d="M24.8126 29.1237C24.6962 29.1238 24.5823 29.0898 24.4851 29.0259C24.3879 28.9621 24.3116 28.8711 24.2657 28.7644C22.5283 24.7211 16.2824 23.9962 14.161 23.8663C14.3955 24.6192 14.8173 25.3006 15.3873 25.8468C15.4955 25.9586 15.5554 26.1083 15.5541 26.2638C15.5527 26.4192 15.4902 26.5679 15.38 26.6778C15.2698 26.7877 15.1207 26.85 14.9649 26.8514C14.809 26.8527 14.6589 26.793 14.5468 26.685C13.5715 25.7903 12.9697 24.5622 12.8611 23.2451C12.8611 23.0879 12.9237 22.9371 13.0352 22.826C13.1466 22.7148 13.2978 22.6523 13.4555 22.6523C15.1347 22.6883 16.8042 22.9165 18.4312 23.3323C19.8312 23.6711 21.1697 24.2252 22.3987 24.9748C23.7019 25.7543 24.7348 26.9126 25.3588 28.2944C25.3976 28.3845 25.4133 28.4829 25.4046 28.5806C25.3958 28.6783 25.3629 28.7723 25.3088 28.8542C25.2546 28.9361 25.181 29.0033 25.0944 29.0498C25.0078 29.0963 24.9109 29.1207 24.8126 29.1207V29.1237Z" fill="currentColor"/>
<path d="M24.8127 1.92109e-05C26.8776 -0.00137734 28.8964 0.608247 30.6137 1.75172C32.3309 2.89518 33.6694 4.52108 34.4596 6.42356C35.2498 8.32605 35.4561 10.4196 35.0526 12.4391C34.6491 14.4586 33.6538 16.3133 32.1927 17.7684C31.1033 18.8534 29.7868 19.6846 28.3373 20.2024C26.8879 20.7202 25.3416 20.9118 23.8092 20.7634C22.2768 20.6151 20.7963 20.1305 19.4738 19.3443C18.1513 18.5582 17.0196 17.49 16.1598 16.2164C15.3 14.9427 14.7334 13.4951 14.5006 11.9774C14.2678 10.4596 14.3746 8.90931 14.8133 7.43757C15.2521 5.96583 16.0118 4.60911 17.0382 3.46468C18.0646 2.32024 19.3322 1.41644 20.75 0.818049C22.0353 0.275567 23.4171 -0.00266309 24.8127 1.92109e-05ZM24.8127 19.6315C26.6418 19.6313 28.4297 19.0903 29.9504 18.0767C31.4711 17.0632 32.6563 15.6228 33.3561 13.9375C34.056 12.2523 34.239 10.3979 33.8821 8.60891C33.5252 6.81991 32.6444 5.17663 31.3511 3.88684C30.4983 3.00443 29.4778 2.30035 28.3491 1.81574C27.2204 1.33113 26.0062 1.07571 24.7774 1.0644C23.5486 1.05309 22.3298 1.28611 21.1923 1.74986C20.0549 2.21362 19.0215 2.89879 18.1526 3.76535C17.2836 4.63192 16.5966 5.66249 16.1316 6.79687C15.6665 7.93124 15.4329 9.14666 15.4442 10.3721C15.4556 11.5976 15.7117 12.8085 16.1976 13.9341C16.6835 15.0597 17.3896 16.0775 18.2744 16.9279C19.1308 17.7873 20.1497 18.4688 21.272 18.9328C22.3943 19.3969 23.5978 19.6344 24.8127 19.6315Z" fill="currentColor"/>
<path d="M24.8127 27.6132C24.655 27.6132 24.5038 27.5507 24.3924 27.4396C24.2809 27.3284 24.2183 27.1776 24.2183 27.0204V20.2249C24.2183 20.0676 24.2809 19.9169 24.3924 19.8057C24.5038 19.6945 24.655 19.6321 24.8127 19.6321C24.9703 19.6321 25.1215 19.6945 25.233 19.8057C25.3444 19.9169 25.4071 20.0676 25.4071 20.2249V27.0204C25.4071 27.1776 25.3444 27.3284 25.233 27.4396C25.1215 27.5507 24.9703 27.6132 24.8127 27.6132Z" fill="currentColor"/>
<path d="M25.5698 15.532H24.0553C23.4655 15.5057 22.8937 15.3212 22.4003 14.9977C21.9069 14.6743 21.5102 14.224 21.2522 13.6944C21.1831 13.5539 21.1726 13.392 21.2228 13.2438C21.273 13.0956 21.3799 12.9732 21.5202 12.9033C21.6605 12.8334 21.8228 12.8216 21.9718 12.8705C22.1208 12.9194 22.2443 13.0251 22.3155 13.1645C22.4738 13.4981 22.7185 13.7836 23.0243 13.9915C23.3302 14.1993 23.6861 14.3221 24.0553 14.347H25.5698C26.0146 14.347 26.4412 14.1708 26.7557 13.8572C27.0702 13.5435 27.2469 13.1181 27.2469 12.6745C27.2469 12.2309 27.0702 11.8055 26.7557 11.4919C26.4412 11.1782 26.0146 11.002 25.5698 11.002H24.0553C23.2953 11.002 22.5663 10.7009 22.0288 10.1649C21.4914 9.62892 21.1895 8.90196 21.1895 8.14395C21.1895 7.38595 21.4914 6.65899 22.0288 6.123C22.5663 5.58701 23.2953 5.28589 24.0553 5.28589H25.5698C26.1597 5.31215 26.7315 5.49674 27.2249 5.82018C27.7183 6.14361 28.1149 6.5939 28.373 7.12349C28.442 7.26395 28.4526 7.42592 28.4024 7.5741C28.3522 7.72228 28.2453 7.84466 28.105 7.91458C27.9647 7.9845 27.8023 7.99629 27.6534 7.94737C27.5044 7.89845 27.3808 7.7928 27.3096 7.65343C27.1499 7.3202 26.9044 7.0352 26.5981 6.82754C26.2918 6.61988 25.9358 6.497 25.5663 6.47144H24.0559C23.6111 6.47144 23.1846 6.64765 22.8701 6.96131C22.5555 7.27497 22.3788 7.70038 22.3788 8.14395C22.3788 8.58753 22.5555 9.01294 22.8701 9.3266C23.1846 9.64026 23.6111 9.81647 24.0559 9.81647H25.5704C26.3305 9.81647 27.0595 10.1176 27.5969 10.6536C28.1344 11.1896 28.4363 11.9165 28.4363 12.6745C28.4363 13.4325 28.1344 14.1595 27.5969 14.6955C27.0595 15.2315 26.3305 15.5326 25.5704 15.5326L25.5698 15.532Z" fill="currentColor"/>
<path d="M24.8127 6.47133C24.655 6.47133 24.5038 6.40888 24.3924 6.29771C24.2809 6.18654 24.2183 6.03577 24.2183 5.87856V4.36817C24.2183 4.21095 24.2809 4.06018 24.3924 3.94901C24.5038 3.83784 24.655 3.77539 24.8127 3.77539C24.9703 3.77539 25.1215 3.83784 25.233 3.94901C25.3444 4.06018 25.4071 4.21095 25.4071 4.36817V5.87856C25.4071 6.03577 25.3444 6.18654 25.233 6.29771C25.1215 6.40888 24.9703 6.47133 24.8127 6.47133Z" fill="currentColor"/>
<path d="M24.8127 17.0424C24.655 17.0424 24.5038 16.9799 24.3924 16.8688C24.2809 16.7576 24.2183 16.6068 24.2183 16.4496V14.9392C24.2183 14.782 24.2809 14.6312 24.3924 14.5201C24.5038 14.4089 24.655 14.3464 24.8127 14.3464C24.9703 14.3464 25.1215 14.4089 25.233 14.5201C25.3444 14.6312 25.4071 14.782 25.4071 14.9392V16.4496C25.4071 16.6068 25.3444 16.7576 25.233 16.8688C25.1215 16.9799 24.9703 17.0424 24.8127 17.0424Z" fill="currentColor"/>
</svg>
