<svg width="48" height="48" viewBox="0 0 48 48" fill="none" xmlns="http://www.w3.org/2000/svg">
<path d="M1.19128 23.8399C1.09059 23.8399 0.991549 23.8143 0.903502 23.7655C0.815455 23.7166 0.741303 23.6461 0.688038 23.5607C0.17891 22.7119 -0.0571778 21.7272 0.0117196 20.7398C0.0584939 19.7847 0.377037 18.8628 0.92988 18.0826L0.938771 18.0707C1.00575 17.9842 7.64803 9.39058 9.31778 6.0973L9.40669 5.92303C9.83516 5.20888 10.1173 4.41661 10.2365 3.59237C10.2501 3.10263 10.1527 2.61616 9.95173 2.16935C9.75076 1.72254 9.45136 1.32695 9.07594 1.01216C8.99095 0.927285 8.93375 0.818587 8.91192 0.70047C8.89009 0.582353 8.90465 0.460391 8.9537 0.350741C9.00274 0.24109 9.08393 0.148927 9.18653 0.0864592C9.28912 0.0239918 9.40828 -0.00582881 9.5282 0.000943061C12.1374 0.275322 14.6742 1.02505 17.0134 2.21306C19.4485 3.40009 21.6833 4.96001 23.6373 6.83645C26.1895 9.31522 28.2819 12.227 29.8172 15.4366C29.8514 15.5066 29.8714 15.5827 29.8762 15.6605C29.8809 15.7383 29.8703 15.8163 29.8449 15.89C29.8196 15.9637 29.7799 16.0317 29.7283 16.0901C29.6766 16.1484 29.614 16.1961 29.5439 16.2302C29.4739 16.2644 29.3978 16.2844 29.32 16.2892C29.2422 16.294 29.1642 16.2834 29.0905 16.258C29.0168 16.2326 28.9488 16.193 28.8904 16.1413C28.8321 16.0897 28.7844 16.027 28.7503 15.957C27.2816 12.8843 25.2818 10.0951 22.843 7.71786C20.985 5.92895 18.8599 4.44014 16.5439 3.30489C14.942 2.51878 13.255 1.91934 11.5163 1.51836C11.2821 1.46561 11.0646 1.42056 10.8642 1.38322C11.2799 2.07195 11.4727 2.8723 11.4161 3.67476C11.2901 4.65899 10.9641 5.60705 10.4582 6.46065L10.3705 6.63255C8.65925 10.0053 2.21554 18.3481 1.87649 18.7838C1.46106 19.3781 1.22302 20.0783 1.19009 20.8027C1.13491 21.5451 1.30891 22.2866 1.68859 22.927C1.74464 23.0167 1.77568 23.1198 1.77848 23.2255C1.78128 23.3312 1.75575 23.4358 1.70453 23.5283C1.65331 23.6208 1.57826 23.6979 1.48718 23.7517C1.3961 23.8054 1.29229 23.8338 1.18654 23.8339L1.19128 23.8399Z" fill="currentColor"/>
<path d="M3.45663 26.1047C3.32936 26.1048 3.20541 26.064 3.10313 25.9883C3.00085 25.9125 2.92567 25.8059 2.88871 25.6841C2.85174 25.5623 2.85496 25.4318 2.89789 25.312C2.94082 25.1922 3.02117 25.0894 3.12707 25.0188L9.92227 20.4884C9.9876 20.4449 10.0609 20.4148 10.138 20.3999C10.2151 20.3849 10.2943 20.3854 10.3712 20.4013C10.4481 20.4173 10.521 20.4483 10.5858 20.4927C10.6506 20.537 10.7059 20.5938 10.7485 20.6598C10.9677 20.9994 11.2556 21.2892 11.5938 21.5106C11.932 21.7319 12.3128 21.8799 12.7117 21.9448C13.5473 22.0818 14.4038 21.8989 15.1105 21.4327L15.743 21.0243C16.0802 20.8116 16.3699 20.5319 16.5943 20.2024C16.8186 19.8729 16.9727 19.5008 17.047 19.1091C17.1868 18.2959 17.0088 17.46 16.5497 16.7743C16.5074 16.709 16.4784 16.6359 16.4643 16.5594C16.4502 16.4828 16.4514 16.4042 16.4677 16.3281C16.5006 16.1744 16.5932 16.04 16.7252 15.9546C16.8572 15.8691 17.0177 15.8396 17.1714 15.8725C17.3251 15.9054 17.4595 15.998 17.5449 16.13C18.169 17.0699 18.408 18.2137 18.2124 19.3249C18.1095 19.8752 17.8945 20.3985 17.5806 20.8621C17.2667 21.3257 16.8607 21.7197 16.3879 22.0195L15.7554 22.4279C14.7993 23.0558 13.6416 23.3005 12.5131 23.1131C11.5847 22.9612 10.7376 22.4922 10.1161 21.786L3.78501 26.0069C3.68757 26.0711 3.57333 26.1051 3.45663 26.1047Z" fill="currentColor"/>
<path d="M33.0613 48.0001H8.14538C7.788 47.9998 7.44533 47.8577 7.19262 47.6049C6.93991 47.3522 6.7978 47.0096 6.79749 46.6522V42.877C6.79811 42.3194 7.01988 41.7849 7.41415 41.3906C7.80841 40.9963 8.34296 40.7746 8.90053 40.774H9.06354C9.07302 38.0604 9.21054 35.8411 11.2656 33.6409L10.5904 30.9398C10.5786 30.8927 10.5727 30.8443 10.5727 30.7957V26.2666C10.5727 26.1094 10.6351 25.9586 10.7463 25.8474C10.8574 25.7363 11.0082 25.6738 11.1654 25.6738C11.3226 25.6738 11.4734 25.7363 11.5845 25.8474C11.6957 25.9586 11.7582 26.1094 11.7582 26.2666V30.724L12.4955 33.6735C12.5204 33.7728 12.5191 33.8769 12.4918 33.9756C12.4645 34.0743 12.412 34.1642 12.3396 34.2366C11.4316 35.1042 10.7978 36.2188 10.5164 37.4427C10.2825 38.7372 10.1927 40.0536 10.2484 41.3679C10.2484 41.5251 10.186 41.6759 10.0748 41.787C9.96366 41.8982 9.8129 41.9606 9.65569 41.9606H8.90053C8.65743 41.9608 8.42432 42.0573 8.25231 42.2291C8.0803 42.4009 7.98344 42.6339 7.98297 42.877V46.6522C7.98297 46.6953 8.00008 46.7366 8.03054 46.767C8.061 46.7975 8.10231 46.8146 8.14538 46.8146H33.0613C33.2185 46.8146 33.3693 46.877 33.4805 46.9882C33.5916 47.0994 33.6541 47.2501 33.6541 47.4073C33.6541 47.5645 33.5916 47.7153 33.4805 47.8265C33.3693 47.9376 33.2185 48.0001 33.0613 48.0001Z" fill="currentColor"/>
<path d="M13.4308 34.4096H11.9205C11.7633 34.4096 11.6125 34.3472 11.5014 34.236C11.3902 34.1248 11.3278 33.9741 11.3278 33.8169C11.3278 33.6597 11.3902 33.5089 11.5014 33.3977C11.6125 33.2866 11.7633 33.2241 11.9205 33.2241H13.4308C13.588 33.2241 13.7388 33.2866 13.8499 33.3977C13.9611 33.5089 14.0236 33.6597 14.0236 33.8169C14.0236 33.9741 13.9611 34.1248 13.8499 34.236C13.7388 34.3472 13.588 34.4096 13.4308 34.4096Z" fill="currentColor"/>
<path d="M11.9205 41.9599H9.65561C9.4984 41.9599 9.34764 41.8975 9.23648 41.7863C9.12532 41.6751 9.06287 41.5244 9.06287 41.3672C9.06287 41.21 9.12532 41.0592 9.23648 40.948C9.34764 40.8369 9.4984 40.7744 9.65561 40.7744H11.9205C12.0777 40.7744 12.2285 40.8369 12.3396 40.948C12.4508 41.0592 12.5132 41.21 12.5132 41.3672C12.5132 41.5244 12.4508 41.6751 12.3396 41.7863C12.2285 41.8975 12.0777 41.9599 11.9205 41.9599Z" fill="currentColor"/>
<path d="M42.1652 15.7786C42.3036 15.7786 42.4377 15.8271 42.5441 15.9157C42.6506 16.0042 42.7226 16.1273 42.7478 16.2634L43.3702 19.6338H46.6522C46.7632 19.6338 46.8719 19.665 46.966 19.7237C47.0601 19.7825 47.1358 19.8665 47.1846 19.9662C47.2333 20.0659 47.2531 20.1772 47.2416 20.2876C47.2302 20.3979 47.188 20.5029 47.1199 20.5904L41.8344 27.3857C41.779 27.4569 41.7081 27.5145 41.6271 27.5542C41.546 27.5938 41.457 27.6144 41.3667 27.6145H37.5945C37.4526 27.6145 37.3154 27.5636 37.2078 27.471C37.1003 27.3785 37.0295 27.2504 37.0083 27.11L36.4701 23.5423C36.447 23.3891 36.4849 23.2329 36.5756 23.1072L41.6874 16.0246C41.7421 15.9488 41.8138 15.8871 41.8968 15.8443C41.9798 15.8016 42.0718 15.779 42.1652 15.7786ZM45.4407 20.8169H42.8777C42.7392 20.8168 42.6051 20.7683 42.4987 20.6798C42.3923 20.5912 42.3202 20.4682 42.295 20.332L41.835 17.8425L37.6769 23.6045L38.1031 26.4284H41.0781L45.4407 20.8169Z" fill="currentColor"/>
<path d="M33.0613 33.6545C32.933 33.6545 32.8082 33.6129 32.7056 33.5359C32.5798 33.4416 32.4967 33.3012 32.4745 33.1456C32.4522 32.9899 32.4927 32.8319 32.5871 32.7061L37.1174 26.6661C37.1641 26.6038 37.2226 26.5513 37.2896 26.5117C37.3566 26.472 37.4307 26.4459 37.5078 26.4349C37.5848 26.4239 37.6633 26.4282 37.7387 26.4475C37.8141 26.4668 37.885 26.5008 37.9472 26.5475C38.073 26.6418 38.1561 26.7822 38.1784 26.9379C38.2006 27.0935 38.1601 27.2516 38.0658 27.3773L33.5354 33.4174C33.4802 33.491 33.4086 33.5508 33.3263 33.5919C33.244 33.6331 33.1533 33.6545 33.0613 33.6545Z" fill="currentColor"/>
<path d="M33.06 47.9983C29.0985 47.9983 25.2992 46.4245 22.4979 43.6233C19.6966 40.822 18.1229 37.0227 18.1229 33.0611C18.1229 29.0996 19.6966 25.3003 22.4979 22.499C25.2992 19.6977 29.0985 18.124 33.06 18.124C34.2481 18.1289 35.4314 18.275 36.5851 18.5591C36.6607 18.5774 36.7321 18.6105 36.7949 18.6564C36.8578 18.7023 36.9111 18.7601 36.9516 18.8266C36.9921 18.893 37.0192 18.9668 37.0312 19.0437C37.0432 19.1206 37.04 19.1992 37.0216 19.2748C37.0033 19.3505 36.9703 19.4218 36.9244 19.4847C36.8785 19.5476 36.8206 19.6008 36.7542 19.6413C36.6877 19.6819 36.6139 19.7089 36.537 19.7209C36.4601 19.733 36.3816 19.7297 36.3059 19.7114C35.2437 19.4494 34.1541 19.3145 33.06 19.3095C30.0517 19.3082 27.1259 20.293 24.7305 22.1129C22.3352 23.9328 20.6023 26.4877 19.7973 29.3863C18.9922 32.2849 19.1594 35.3675 20.2731 38.162C21.3868 40.9566 23.3858 43.3091 25.9639 44.8594C28.542 46.4096 31.5571 47.0722 34.5477 46.7457C37.5382 46.4192 40.3393 45.1215 42.5221 43.0514C44.7049 40.9812 46.149 38.2528 46.6334 35.2837C47.1178 32.3147 46.6158 29.2687 45.2042 26.6121C45.166 26.5433 45.1419 26.4676 45.1333 26.3893C45.1247 26.3111 45.1317 26.232 45.1541 26.1565C45.1764 26.081 45.2135 26.0108 45.2632 25.9498C45.313 25.8888 45.3744 25.8384 45.4438 25.8014C45.5133 25.7644 45.5894 25.7416 45.6678 25.7343C45.7462 25.7271 45.8252 25.7355 45.9002 25.7591C45.9753 25.7827 46.0449 25.821 46.1051 25.8718C46.1652 25.9226 46.2146 25.9848 46.2504 26.0549C47.4613 28.3306 48.0624 30.8811 47.995 33.4581C47.9277 36.0351 47.1943 38.5507 45.8662 40.7601C44.5382 42.9695 42.6606 44.7974 40.4164 46.0658C38.1723 47.3342 35.6379 48 33.06 47.9983Z" fill="currentColor"/>
<path d="M33.0612 41.9599C31.8357 41.9682 30.6216 41.7232 29.4952 41.2404C28.3687 40.7575 27.3542 40.0472 26.5151 39.1539C25.676 38.2606 25.0305 37.2036 24.6191 36.0491C24.2076 34.8947 24.0391 33.6677 24.1241 32.4451C24.209 31.2224 24.5456 30.0305 25.1127 28.9441C25.6799 27.8576 26.4654 26.9001 27.4199 26.1314C28.3744 25.3627 29.4775 24.7995 30.6599 24.477C31.8423 24.1546 33.0786 24.0799 34.2912 24.2576C34.4467 24.2795 34.5871 24.3622 34.6817 24.4875C34.7763 24.6128 34.8173 24.7706 34.7957 24.9261C34.7741 25.0816 34.6917 25.2222 34.5665 25.317C34.4414 25.4118 34.2837 25.4531 34.1282 25.4318C32.448 25.1953 30.7367 25.5187 29.2588 26.352C27.7808 27.1853 26.6184 28.4822 25.9513 30.0423C25.2841 31.6024 25.1493 33.3387 25.5678 34.983C25.9862 36.6274 26.9345 38.0881 28.2662 39.1395C29.5979 40.1909 31.2388 40.7745 32.9353 40.8C34.6318 40.8256 36.2896 40.2917 37.6523 39.2808C39.015 38.2699 40.0069 36.8384 40.4746 35.2074C40.9423 33.5764 40.8598 31.8368 40.2399 30.2574C40.2116 30.1848 40.1978 30.1075 40.1994 30.0296C40.201 29.9518 40.2179 29.875 40.2491 29.8037C40.3122 29.6597 40.4299 29.5467 40.5763 29.4895C40.7228 29.4322 40.8859 29.4355 41.0299 29.4986C41.1739 29.5617 41.287 29.6794 41.3442 29.8258C41.8723 31.1741 42.0632 32.6309 41.9002 34.0696C41.7372 35.5084 41.2253 36.8856 40.4089 38.0815C39.5926 39.2774 38.4965 40.2558 37.216 40.9317C35.9354 41.6076 34.5092 41.9606 33.0612 41.9599Z" fill="currentColor"/>
<path d="M33.0643 36.6751C32.3695 36.6738 31.6898 36.4724 31.1065 36.095C30.5232 35.7176 30.0609 35.1801 29.7751 34.5468C29.4893 33.9136 29.392 33.2114 29.4948 32.5243C29.5976 31.8372 29.8962 31.1942 30.3548 30.6723C30.4588 30.5544 30.6054 30.4827 30.7623 30.4728C30.9192 30.463 31.0736 30.5159 31.1915 30.6199C31.3094 30.7239 31.3812 30.8705 31.391 31.0274C31.4008 31.1843 31.348 31.3386 31.244 31.4566C31.0157 31.7105 30.8436 32.0098 30.7388 32.3347C30.6339 32.6597 30.5988 33.0031 30.6355 33.3426C30.6723 33.682 30.7802 34.0099 30.9522 34.3049C31.1242 34.5999 31.3564 34.8553 31.6337 35.0545C31.911 35.2538 32.2272 35.3923 32.5616 35.4612C32.8961 35.53 33.2412 35.5276 33.5747 35.4541C33.9082 35.3806 34.2224 35.2377 34.4969 35.0347C34.7714 34.8316 35 34.573 35.1679 34.2756C35.2055 34.2058 35.2568 34.1442 35.3186 34.0945C35.3805 34.0448 35.4517 34.008 35.528 33.9863C35.6043 33.9646 35.6842 33.9585 35.763 33.9683C35.8417 33.9781 35.9177 34.0036 35.9864 34.0433C36.0551 34.083 36.1151 34.136 36.1629 34.1994C36.2107 34.2627 36.2454 34.335 36.2647 34.4119C36.2841 34.4889 36.2878 34.5689 36.2756 34.6473C36.2635 34.7257 36.2357 34.8009 36.194 34.8684C35.8758 35.4169 35.4193 35.8723 34.8702 36.1893C34.321 36.5063 33.6984 36.6738 33.0643 36.6751Z" fill="currentColor"/>
</svg>
