<svg width="48" height="48" viewBox="0 0 48 48" fill="none" xmlns="http://www.w3.org/2000/svg">
<path d="M29.5791 29.123H18.4142C18.2841 29.1231 18.1577 29.0803 18.0543 29.0014C17.9509 28.9224 17.8764 28.8117 17.8422 28.6862C15.2506 19.1798 15.1409 16.1448 15.1362 15.8585C15.0261 14.1045 15.1322 12.3435 15.4521 10.6154C15.7133 9.24101 16.1571 7.90772 16.7716 6.65094C17.7156 4.79422 19.0122 3.13919 20.5891 1.77833C22.4907 0.055128 23.8494 0 23.9952 0C24.141 0 25.5026 0.0533497 27.4054 1.77833C28.9817 3.13952 30.2778 4.79475 31.2211 6.65153C31.8359 7.90829 32.2798 9.24159 32.5412 10.616C32.8611 12.3441 32.9672 14.1051 32.8572 15.8591C32.853 16.1448 32.7422 19.1787 30.1506 28.6868C30.1163 28.812 30.0418 28.9226 29.9385 29.0014C29.8353 29.0802 29.709 29.123 29.5791 29.123ZM18.8683 27.9375H29.1233C31.6177 18.7056 31.6722 15.8644 31.6722 15.8366C31.6722 15.8259 31.6722 15.817 31.6722 15.8064C31.7776 14.1456 31.6781 12.4782 31.3758 10.8419C31.1347 9.57131 30.7248 8.33867 30.1571 7.17672C29.2785 5.4543 28.0734 3.91917 26.6087 2.65681C25.1398 1.32544 24.1191 1.19682 23.9952 1.18615C23.8725 1.19682 22.8505 1.32603 21.3828 2.65622C19.9178 3.91867 18.7122 5.45401 17.8333 7.17672C17.2655 8.33866 16.8557 9.5713 16.6146 10.8419C16.3123 12.4782 16.2127 14.1456 16.3182 15.8064C16.3182 15.817 16.3182 15.8279 16.3182 15.8389C16.3223 15.8644 16.3733 18.7056 18.8677 27.9375H18.8683Z" fill="currentColor"/>
<path d="M23.9963 5.71612C22.5375 5.71612 20.9062 5.61239 19.8682 4.84474C19.8046 4.79888 19.7506 4.74083 19.7096 4.67397C19.6685 4.60711 19.6411 4.53277 19.629 4.45524C19.6169 4.37772 19.6203 4.29857 19.6391 4.22237C19.6578 4.14617 19.6915 4.07444 19.7381 4.01135C19.7848 3.94826 19.8435 3.89506 19.9108 3.85484C19.9782 3.81461 20.0529 3.78817 20.1305 3.77703C20.2082 3.76589 20.2873 3.77027 20.3633 3.78993C20.4392 3.80959 20.5105 3.84415 20.573 3.89158C21.3383 4.45768 22.8043 4.53057 23.9957 4.53057C24.6253 4.53057 26.5447 4.53057 27.422 3.88919C27.4848 3.84198 27.5564 3.80773 27.6325 3.78843C27.7087 3.76912 27.7879 3.76516 27.8656 3.77676C27.9434 3.78836 28.018 3.81529 28.0852 3.85599C28.1524 3.8967 28.2109 3.95037 28.2572 4.01387C28.3034 4.07736 28.3366 4.14942 28.3548 4.22586C28.373 4.30231 28.3758 4.3816 28.3631 4.45913C28.3503 4.53667 28.3223 4.61091 28.2806 4.67752C28.2389 4.74412 28.1844 4.80178 28.1202 4.84713C27.0645 5.61714 25.3615 5.71612 23.9963 5.71612Z" fill="currentColor"/>
<path d="M23.9963 9.81641C24.8603 9.81641 25.7048 10.0726 26.4232 10.5526C27.1415 11.0326 27.7014 11.7148 28.032 12.5129C28.3626 13.3111 28.4491 14.1894 28.2806 15.0368C28.112 15.8841 27.696 16.6624 27.0851 17.2733C26.4742 17.8842 25.6959 18.3002 24.8485 18.4688C24.0012 18.6373 23.1229 18.5508 22.3247 18.2202C21.5265 17.8896 20.8443 17.3297 20.3643 16.6114C19.8844 15.893 19.6282 15.0485 19.6282 14.1846C19.6294 13.0264 20.09 11.9161 20.909 11.0972C21.7279 10.2783 22.8382 9.81766 23.9963 9.81641ZM23.9963 17.3672C24.6258 17.3672 25.2411 17.1805 25.7645 16.8308C26.2879 16.4811 26.6958 15.984 26.9367 15.4025C27.1776 14.821 27.2406 14.181 27.1178 13.5637C26.995 12.9463 26.6919 12.3792 26.2468 11.9341C25.8017 11.489 25.2346 11.1859 24.6172 11.0631C23.9999 10.9403 23.3599 11.0033 22.7784 11.2442C22.1969 11.4851 21.6998 11.893 21.3501 12.4164C21.0004 12.9398 20.8137 13.5551 20.8137 14.1846C20.8147 15.0284 21.1503 15.8373 21.7469 16.434C22.3436 17.0306 23.1525 17.3662 23.9963 17.3672Z" fill="currentColor"/>
<path d="M27.0165 32.8985H20.9762C20.8394 32.8987 20.7068 32.8515 20.6008 32.7651C20.4948 32.6787 20.422 32.5583 20.3946 32.4243L19.6394 28.6489C19.6229 28.5721 19.6219 28.4928 19.6363 28.4156C19.6507 28.3383 19.6804 28.2647 19.7235 28.1991C19.7666 28.1334 19.8223 28.077 19.8874 28.033C19.9526 27.9891 20.0258 27.9585 20.1028 27.9431C20.1798 27.9277 20.2592 27.9278 20.3362 27.9433C20.4132 27.9589 20.4863 27.9895 20.5514 28.0336C20.6164 28.0776 20.6721 28.1342 20.7151 28.1999C20.7581 28.2656 20.7876 28.3393 20.8019 28.4165L21.4616 31.7153H26.5305L27.1902 28.4165C27.2229 28.2643 27.3142 28.131 27.4444 28.0455C27.5746 27.96 27.7332 27.9292 27.886 27.9597C28.0387 27.9903 28.1733 28.0797 28.2606 28.2086C28.3479 28.3376 28.381 28.4958 28.3526 28.6489L27.5974 32.4243C27.5701 32.5582 27.4974 32.6785 27.3915 32.7649C27.2857 32.8513 27.1532 32.8985 27.0165 32.8985Z" fill="currentColor"/>
<path d="M16.4462 35.9185H14.1812C14.068 35.9185 13.9571 35.8861 13.8617 35.8251C13.7663 35.764 13.6904 35.6769 13.643 35.5741L10.0828 27.8609C9.75147 27.1405 9.66601 26.3311 9.83951 25.5574C10.013 24.7836 10.4359 24.0882 11.0431 23.5781L15.2968 19.7844C15.4141 19.6797 15.5682 19.6258 15.7251 19.6347C15.8821 19.6436 16.0291 19.7145 16.1338 19.8318C16.2385 19.9491 16.2923 20.1032 16.2834 20.2601C16.2745 20.4171 16.2037 20.5641 16.0864 20.6688L11.8255 24.4715L11.8101 24.4845C11.3998 24.8265 11.1136 25.2941 10.9958 25.8151C10.8779 26.336 10.9349 26.8813 11.1581 27.3666L14.5594 34.7354H16.4456C16.6028 34.7354 16.7536 34.7978 16.8648 34.909C16.9759 35.0201 17.0384 35.1709 17.0384 35.3281C17.0384 35.4853 16.9759 35.6361 16.8648 35.7473C16.7536 35.8584 16.6028 35.9209 16.4456 35.9209L16.4462 35.9185Z" fill="currentColor"/>
<path d="M33.8121 35.9187H31.5471C31.3899 35.9187 31.2391 35.8563 31.128 35.7451C31.0168 35.6339 30.9543 35.4832 30.9543 35.3259C30.9543 35.1687 31.0168 35.0179 31.128 34.9068C31.2391 34.7956 31.3899 34.7332 31.5471 34.7332H33.4333L36.8347 27.3644C37.0578 26.8791 37.1148 26.3338 36.9969 25.8129C36.8791 25.2919 36.5929 24.8243 36.1826 24.4823L36.1672 24.4693L31.9063 20.6666C31.8483 20.6148 31.801 20.552 31.7672 20.4819C31.7334 20.4117 31.7137 20.3357 31.7093 20.2579C31.7004 20.101 31.7542 19.9469 31.8589 19.8296C31.9636 19.7123 32.1106 19.6414 32.2676 19.6325C32.4246 19.6236 32.5786 19.6775 32.6959 19.7822L36.9497 23.5759C37.5573 24.0857 37.9804 24.7811 38.154 25.555C38.3275 26.3289 38.2418 27.1384 37.91 27.8587L34.3498 35.5719C34.3027 35.6751 34.227 35.7626 34.1317 35.8241C34.0364 35.8855 33.9255 35.9184 33.8121 35.9187Z" fill="currentColor"/>
<path d="M16.4456 46.4903C16.2884 46.4903 16.1376 46.4278 16.0264 46.3167C15.9153 46.2055 15.8528 46.0547 15.8528 45.8975C15.8551 45.2775 15.6756 44.6705 15.3365 44.1514C14.9974 43.6324 14.5136 43.2241 13.9449 42.9771C13.3762 42.7301 12.7476 42.6552 12.1369 42.7617C11.5261 42.8682 10.9599 43.1513 10.5083 43.5762C10.4348 43.6446 10.3452 43.6932 10.2477 43.7175C10.1503 43.7417 10.0483 43.7408 9.95132 43.7149C9.85433 43.6889 9.76552 43.6388 9.69322 43.5691C9.62092 43.4994 9.5675 43.4125 9.53797 43.3166C9.14873 42.0633 8.37523 40.9643 7.32692 40.1749C6.40804 39.4872 5.31651 39.0677 4.17359 38.9631C3.03067 38.8585 1.88111 39.0727 0.852633 39.5821C0.712013 39.6507 0.549982 39.6609 0.401864 39.6105C0.253747 39.5601 0.131558 39.4532 0.0619341 39.3131C-0.00768985 39.173 -0.019105 39.011 0.030186 38.8625C0.079477 38.7141 0.185474 38.5911 0.325063 38.5204C1.55026 37.9133 2.91983 37.6579 4.28151 37.7825C5.64319 37.9071 6.94363 38.407 8.03825 39.2264C9.0592 39.9957 9.86562 41.0142 10.3803 42.1844C11.0669 41.7549 11.8604 41.5271 12.6702 41.527C13.8283 41.5282 14.9386 41.9888 15.7576 42.8078C16.5765 43.6267 17.0371 44.737 17.0384 45.8951C17.0387 45.9732 17.0236 46.0505 16.9939 46.1227C16.9643 46.1949 16.9206 46.2605 16.8656 46.3158C16.8105 46.3711 16.7451 46.415 16.673 46.4449C16.6009 46.4749 16.5236 46.4903 16.4456 46.4903Z" fill="currentColor"/>
<path d="M31.5471 46.4902C31.3899 46.4902 31.2391 46.4277 31.128 46.3166C31.0168 46.2054 30.9543 46.0546 30.9543 45.8974C30.9556 44.7393 31.4162 43.6289 32.2351 42.81C33.0541 41.9911 34.1644 41.5305 35.3225 41.5292C36.1321 41.5294 36.9254 41.7572 37.6118 42.1866C38.1265 41.0165 38.9329 39.998 39.9539 39.2287C41.0486 38.4092 42.3491 37.9093 43.7109 37.7847C45.0727 37.66 46.4424 37.9155 47.6676 38.5227C47.7379 38.557 47.8008 38.6048 47.8525 38.6635C47.9042 38.7222 47.9438 38.7905 47.969 38.8646C47.9942 38.9386 48.0044 39.0169 47.9992 39.0949C47.994 39.173 47.9734 39.2492 47.9386 39.3193C47.9038 39.3893 47.8555 39.4518 47.7964 39.503C47.7374 39.5543 47.6688 39.5934 47.5945 39.6181C47.5203 39.6427 47.4419 39.6524 47.3639 39.6466C47.2859 39.6408 47.2098 39.6197 47.1401 39.5844C46.1116 39.0751 44.962 38.8608 43.8191 38.9655C42.6762 39.0701 41.5847 39.4895 40.6658 40.1771C39.6176 40.9667 38.8442 42.0657 38.4547 43.3188C38.4252 43.4149 38.3717 43.5018 38.2993 43.5715C38.227 43.6412 38.1381 43.6913 38.041 43.7172C37.9439 43.7431 37.8418 43.7439 37.7444 43.7195C37.6469 43.6952 37.5572 43.6464 37.4838 43.5779C37.0324 43.1531 36.4664 42.8698 35.8558 42.7633C35.2452 42.6567 34.6167 42.7314 34.0481 42.9782C33.4796 43.225 32.9958 43.6331 32.6566 44.1519C32.3175 44.6707 32.1378 45.2776 32.1399 45.8974C32.1399 46.0546 32.0774 46.2054 31.9663 46.3166C31.8551 46.4277 31.7043 46.4902 31.5471 46.4902Z" fill="currentColor"/>
<path d="M15.7568 48C15.6575 47.9999 15.5598 47.9749 15.4727 47.9272C15.3855 47.8795 15.3118 47.8106 15.2582 47.727C15.2046 47.6434 15.1729 47.5477 15.166 47.4486C15.1591 47.3495 15.1771 47.2503 15.2185 47.16C15.989 45.48 17.2253 44.0563 18.7808 43.058C20.3363 42.0597 22.1457 41.5288 23.994 41.5283C25.8422 41.5278 27.6518 42.0577 29.2079 43.0552C30.7639 44.0526 32.0011 45.4756 32.7724 47.1553C32.8381 47.2981 32.8444 47.4612 32.7899 47.6087C32.7353 47.7561 32.6245 47.8759 32.4816 47.9416C32.3388 48.0073 32.1757 48.0136 32.0283 47.9591C31.8808 47.9046 31.761 47.7937 31.6953 47.6508C31.0187 46.1773 29.9335 44.9289 28.5684 44.0539C27.2034 43.1788 25.6159 42.7139 23.9944 42.7144C22.373 42.7148 20.7857 43.1806 19.4212 44.0563C18.0566 44.9321 16.972 46.1811 16.2962 47.655C16.2488 47.7581 16.1727 47.8454 16.0771 47.9066C15.9815 47.9677 15.8703 48.0002 15.7568 48Z" fill="currentColor"/>
<path d="M17.2014 40.4493H16.4462C16.289 40.4493 16.1382 40.3868 16.027 40.2757C15.9158 40.1645 15.8534 40.0137 15.8534 39.8565C15.8534 39.6993 15.9158 39.5485 16.027 39.4373C16.1382 39.3262 16.289 39.2637 16.4462 39.2637H17.2014C18.0452 39.2628 18.8541 38.9272 19.4508 38.3305C20.0474 37.7339 20.383 36.9249 20.384 36.0811V35.3259C20.384 35.1687 20.4464 35.0179 20.5576 34.9068C20.6688 34.7956 20.8195 34.7332 20.9768 34.7332C21.134 34.7332 21.2847 34.7956 21.3959 34.9068C21.5071 35.0179 21.5695 35.1687 21.5695 35.3259V36.0811C21.5683 37.2392 21.1076 38.3496 20.2887 39.1685C19.4698 39.9874 18.3595 40.448 17.2014 40.4493Z" fill="currentColor"/>
<path d="M31.5477 40.4493H30.7925C29.6343 40.448 28.524 39.9874 27.7051 39.1685C26.8862 38.3496 26.4256 37.2392 26.4243 36.0811V35.3259C26.4243 35.1687 26.4868 35.0179 26.5979 34.9068C26.7091 34.7956 26.8599 34.7332 27.0171 34.7332C27.1743 34.7332 27.3251 34.7956 27.4362 34.9068C27.5474 35.0179 27.6099 35.1687 27.6099 35.3259V36.0811C27.6108 36.9249 27.9464 37.7339 28.5431 38.3305C29.1397 38.9272 29.9487 39.2628 30.7925 39.2637H31.5477C31.7049 39.2637 31.8557 39.3262 31.9668 39.4373C32.078 39.5485 32.1404 39.6993 32.1404 39.8565C32.1404 40.0137 32.078 40.1645 31.9668 40.2757C31.8557 40.3868 31.7049 40.4493 31.5477 40.4493Z" fill="currentColor"/>
</svg>
