<svg width="48" height="48" viewBox="0 0 48 48" fill="none" xmlns="http://www.w3.org/2000/svg">
<path d="M35.9841 48.0001H11.6961C10.7344 47.999 9.81238 47.6185 9.13221 46.9421C8.45203 46.2657 8.0692 45.3486 8.06763 44.3917V27.9419H9.25281V44.3917C9.2536 45.0362 9.51125 45.6541 9.96928 46.1098C10.4273 46.5655 11.0483 46.8219 11.6961 46.8227H35.9841C36.6318 46.8219 37.2528 46.5655 37.7109 46.1098C38.1689 45.6541 38.4265 45.0362 38.4273 44.3917V35.4935H39.6125V44.3917C39.6109 45.3486 39.2281 46.2657 38.5479 46.9421C37.8677 47.6185 36.9458 47.999 35.9841 48.0001Z" fill="currentColor"/>
<path d="M9.25281 15.5277H8.06763V3.61012C8.06872 2.65299 8.45136 1.73538 9.13159 1.05858C9.81182 0.381791 10.7341 0.00109235 11.6961 0H35.9841C36.9461 0.00109235 37.8683 0.381791 38.5486 1.05858C39.2288 1.73538 39.6114 2.65299 39.6125 3.61012V7.22024H38.4273V3.61012C38.4265 2.96564 38.1689 2.34778 37.7109 1.89206C37.2528 1.43635 36.6318 1.17998 35.9841 1.1792H11.6961C11.0483 1.17998 10.4273 1.43635 9.96928 1.89206C9.51125 2.34778 9.2536 2.96564 9.25281 3.61012V15.5277Z" fill="currentColor"/>
<path d="M13.8069 10.9966H12.6217V5.12061C12.6217 4.96423 12.6841 4.81427 12.7953 4.7037C12.9064 4.59312 13.0571 4.53101 13.2143 4.53101H34.4664C34.6236 4.53101 34.7743 4.59312 34.8855 4.7037C34.9966 4.81427 35.059 4.96423 35.059 5.12061V7.22076H33.8739V5.71021H13.8069V10.9966Z" fill="currentColor"/>
<path d="M34.4664 38.9385H13.2143C13.0571 38.9385 12.9064 38.8763 12.7953 38.7658C12.6841 38.6552 12.6217 38.5052 12.6217 38.3489V32.4729H13.8069V37.7593H33.8739V35.494H35.059V38.3489C35.059 38.5052 34.9966 38.6552 34.8855 38.7658C34.7743 38.8763 34.6236 38.9385 34.4664 38.9385Z" fill="currentColor"/>
<path d="M26.6666 42.9507H20.7407C20.5835 42.9507 20.4328 42.8886 20.3216 42.778C20.2105 42.6674 20.1481 42.5175 20.1481 42.3611C20.1481 42.2047 20.2105 42.0547 20.3216 41.9442C20.4328 41.8336 20.5835 41.7715 20.7407 41.7715H26.6666C26.8238 41.7715 26.9745 41.8336 27.0856 41.9442C27.1967 42.0547 27.2592 42.2047 27.2592 42.3611C27.2592 42.5175 27.1967 42.6674 27.0856 42.778C26.9745 42.8886 26.8238 42.9507 26.6666 42.9507Z" fill="currentColor"/>
<path d="M2.96296 19.9563H0.592593C0.435427 19.9563 0.284699 19.8942 0.173566 19.7836C0.0624337 19.673 0 19.5231 0 19.3667C0 19.2103 0.0624337 19.0604 0.173566 18.9498C0.284699 18.8392 0.435427 18.7771 0.592593 18.7771H2.96296C3.12013 18.7771 3.27086 18.8392 3.38199 18.9498C3.49312 19.0604 3.55556 19.2103 3.55556 19.3667C3.55556 19.5231 3.49312 19.673 3.38199 19.7836C3.27086 19.8942 3.12013 19.9563 2.96296 19.9563Z" fill="currentColor"/>
<path d="M14.8148 19.9563H7.70368C7.54651 19.9563 7.39578 19.8942 7.28465 19.7836C7.17352 19.673 7.11108 19.5231 7.11108 19.3667C7.11108 19.2103 7.17352 19.0604 7.28465 18.9498C7.39578 18.8392 7.54651 18.7771 7.70368 18.7771H14.8148C14.972 18.7771 15.1227 18.8392 15.2338 18.9498C15.3449 19.0604 15.4074 19.2103 15.4074 19.3667C15.4074 19.5231 15.3449 19.673 15.2338 19.7836C15.1227 19.8942 14.972 19.9563 14.8148 19.9563Z" fill="currentColor"/>
<path d="M5.92598 24.6731H2.37042C2.21326 24.6731 2.06253 24.611 1.9514 24.5004C1.84027 24.3898 1.77783 24.2399 1.77783 24.0835C1.77783 23.9271 1.84027 23.7772 1.9514 23.6666C2.06253 23.556 2.21326 23.4939 2.37042 23.4939H5.92598C6.08315 23.4939 6.23387 23.556 6.34501 23.6666C6.45614 23.7772 6.51857 23.9271 6.51857 24.0835C6.51857 24.2399 6.45614 24.3898 6.34501 24.5004C6.23387 24.611 6.08315 24.6731 5.92598 24.6731Z" fill="currentColor"/>
<path d="M17.1851 24.6731H10.074C9.91687 24.6731 9.76614 24.611 9.65501 24.5004C9.54388 24.3898 9.48145 24.2399 9.48145 24.0835C9.48145 23.9271 9.54388 23.7772 9.65501 23.6666C9.76614 23.556 9.91687 23.4939 10.074 23.4939H17.1851C17.3423 23.4939 17.493 23.556 17.6042 23.6666C17.7153 23.7772 17.7777 23.9271 17.7777 24.0835C17.7777 24.2399 17.7153 24.3898 17.6042 24.5004C17.493 24.611 17.3423 24.6731 17.1851 24.6731Z" fill="currentColor"/>
<path d="M23.1111 28.8003C23.0192 28.8003 22.9284 28.779 22.8461 28.7381C22.7638 28.6971 22.6923 28.6377 22.6371 28.5645C22.5428 28.4394 22.5023 28.2821 22.5245 28.1273C22.5467 27.9725 22.6299 27.8328 22.7556 27.739L29.8667 22.4326C29.929 22.3862 29.9998 22.3524 30.0752 22.3331C30.1506 22.3139 30.229 22.3097 30.3061 22.3206C30.3831 22.3316 30.4572 22.3575 30.5242 22.397C30.5911 22.4364 30.6496 22.4886 30.6963 22.5505C30.743 22.6125 30.777 22.683 30.7963 22.758C30.8156 22.833 30.8199 22.911 30.8089 22.9877C30.7979 23.0643 30.7718 23.1381 30.7322 23.2047C30.6925 23.2713 30.6401 23.3295 30.5778 23.376L23.4667 28.6824C23.3641 28.7589 23.2394 28.8003 23.1111 28.8003Z" fill="currentColor"/>
<path d="M44.4444 28.8003C44.3241 28.8001 44.2067 28.7635 44.1078 28.6954L36.4041 23.389C36.2749 23.3001 36.1864 23.1637 36.1582 23.0099C36.13 22.8561 36.1643 22.6975 36.2536 22.5688C36.3431 22.4403 36.4802 22.3524 36.6347 22.3245C36.7893 22.2965 36.9487 22.3307 37.0779 22.4197L44.7816 27.7261C44.8854 27.7976 44.9635 27.9003 45.0046 28.019C45.0456 28.1378 45.0474 28.2666 45.0098 28.3865C44.9722 28.5064 44.897 28.6112 44.7953 28.6856C44.6936 28.7601 44.5707 28.8003 44.4444 28.8003Z" fill="currentColor"/>
<path d="M33.7067 23.922C32.7321 23.9182 31.7904 23.5707 31.0489 22.9414C31.0359 22.9304 31.0232 22.9189 31.011 22.9067L22.662 14.5998C22.554 14.4886 22.4943 14.3397 22.4956 14.1851C22.497 14.0305 22.5593 13.8826 22.6692 13.7733C22.779 13.664 22.9277 13.602 23.083 13.6006C23.2384 13.5993 23.3881 13.6587 23.4999 13.7661L31.83 22.0541C32.3527 22.4998 33.0185 22.7448 33.707 22.7448C34.3955 22.7448 35.0612 22.4998 35.584 22.0541L43.9141 13.7661C44.0259 13.6587 44.1755 13.5993 44.3309 13.6006C44.4863 13.602 44.6349 13.664 44.7448 13.7733C44.8547 13.8826 44.917 14.0305 44.9183 14.1851C44.9197 14.3397 44.86 14.4886 44.752 14.5998L36.403 22.909C36.3907 22.9212 36.3781 22.9328 36.3651 22.9438C35.6229 23.5722 34.6811 23.9187 33.7067 23.922Z" fill="currentColor"/>
<path d="M21.8737 11.1123H46.2749C46.7323 11.1128 47.1707 11.2937 47.4942 11.6155C47.8176 11.9373 47.9995 12.3736 47.9999 12.8286V30.0314C47.9995 30.4866 47.8175 30.923 47.494 31.2449C47.1705 31.5668 46.7318 31.7478 46.2743 31.7483H21.8737C21.4162 31.7478 20.9775 31.5668 20.654 31.2449C20.3305 30.923 20.1485 30.4866 20.1481 30.0314V12.8292C20.1485 12.374 20.3305 11.9376 20.654 11.6157C20.9775 11.2938 21.4162 11.1128 21.8737 11.1123ZM46.2743 30.5691C46.4176 30.569 46.555 30.5123 46.6563 30.4114C46.7576 30.3106 46.8146 30.174 46.8147 30.0314V12.8286C46.8146 12.6862 46.7577 12.5497 46.6564 12.449C46.5552 12.3483 46.418 12.2917 46.2749 12.2915H21.8737C21.7304 12.2917 21.593 12.3484 21.4917 12.4492C21.3904 12.55 21.3334 12.6867 21.3333 12.8292V30.0314C21.3334 30.174 21.3904 30.3106 21.4917 30.4114C21.593 30.5123 21.7304 30.569 21.8737 30.5691H46.2743Z" fill="currentColor"/>
</svg>
