<svg width="48" height="48" viewBox="0 0 48 48" fill="none" xmlns="http://www.w3.org/2000/svg">
<path d="M23.8432 5.90199C25.6215 5.89077 27.3354 6.5667 28.6273 7.78874C29.2572 8.37714 29.7594 9.08875 30.1028 9.87937C30.4461 10.67 30.6233 11.5228 30.6233 12.3847C30.6233 13.2467 30.4461 14.0994 30.1028 14.8901C29.7594 15.6807 29.2572 16.3923 28.6273 16.9807C27.3364 18.2049 25.6223 18.883 23.8432 18.8733C22.065 18.8846 20.3511 18.2086 19.0592 16.9866C18.4293 16.3982 17.9271 15.6866 17.5837 14.896C17.2404 14.1053 17.0632 13.2526 17.0632 12.3906C17.0632 11.5287 17.2404 10.6759 17.5837 9.88527C17.9271 9.09464 18.4293 8.38304 19.0592 7.79463C20.3501 6.57045 22.0642 5.89236 23.8432 5.90199ZM23.8432 17.6941C25.2889 17.7305 26.6901 17.1924 27.7399 16.1978C28.7898 15.2033 29.4027 13.8332 29.4445 12.3877C29.4027 10.9421 28.7898 9.57207 27.7399 8.57749C26.6901 7.58292 25.2889 7.04488 23.8432 7.08121C22.3976 7.04488 20.9964 7.58292 19.9466 8.57749C18.8967 9.57207 18.2838 10.9421 18.242 12.3877C18.2838 13.8332 18.8967 15.2033 19.9466 16.1978C20.9964 17.1924 22.3976 17.7305 23.8432 17.6941Z" fill="currentColor"/>
<path d="M23.999 4.45193e-06C25.6635 -0.00139134 27.312 0.325438 28.8501 0.961792C30.3882 1.59815 31.7858 2.53154 32.9628 3.70856C34.1398 4.88558 35.0732 6.28313 35.7096 7.82125C36.3459 9.35937 36.6728 11.0079 36.6714 12.6724C36.6714 14.3127 36.1266 16.3728 35.0511 18.7949C34.0143 21.0705 32.7858 23.2538 31.3791 25.3213C30.1487 27.1784 28.7757 28.937 27.2725 30.5811C26.7349 31.1699 26.1503 31.7137 25.5243 32.2073C25.3335 32.424 25.0988 32.5976 24.8358 32.7165C24.5727 32.8354 24.2873 32.8969 23.9986 32.8969C23.71 32.8969 23.4246 32.8354 23.1615 32.7165C22.8985 32.5976 22.6638 32.424 22.473 32.2073C21.847 31.7137 21.2624 31.1699 20.7249 30.5811C19.2216 28.937 17.8486 27.1784 16.6183 25.3213C15.2115 23.2538 13.983 21.0705 12.9462 18.7949C11.8713 16.3728 11.3259 14.3139 11.3259 12.6724C11.3246 11.0078 11.6515 9.35933 12.2879 7.8212C12.9244 6.28308 13.8578 4.88553 15.0349 3.70852C16.2119 2.53151 17.6095 1.59813 19.1477 0.961781C20.6858 0.325434 22.3344 -0.00139123 23.999 4.45193e-06ZM23.999 31.7173C24.0048 31.7173 24.6086 31.6949 26.4128 29.7716C27.8724 28.174 29.2056 26.4653 30.4003 24.6609C31.769 22.6502 32.9643 20.5269 33.9733 18.3138C34.981 16.0432 35.4921 14.1441 35.4921 12.6695C35.4921 9.62129 34.2813 6.69795 32.1259 4.54255C29.9705 2.38716 27.0471 1.17627 23.999 1.17627C20.9508 1.17627 18.0274 2.38716 15.872 4.54255C13.7166 6.69795 12.5057 9.62129 12.5057 12.6695C12.5057 14.1435 13.0169 16.0432 14.0246 18.3138C15.0336 20.5269 16.2289 22.6502 17.5976 24.6609C18.7923 26.4665 20.1257 28.1764 21.5857 29.7751C23.3893 31.6955 23.9931 31.7173 23.999 31.7173Z" fill="currentColor"/>
<path d="M13.5252 42.4576C13.4942 42.4576 13.4632 42.4553 13.4326 42.4505C13.3561 42.4384 13.2827 42.4114 13.2167 42.371C13.1506 42.3305 13.0931 42.2775 13.0476 42.2149C13.002 42.1522 12.9693 42.0812 12.9512 42.0059C12.933 41.9306 12.93 41.8525 12.9421 41.776L14.7109 30.5734C14.7229 30.4969 14.75 30.4234 14.7904 30.3573C14.8309 30.2912 14.884 30.2338 14.9467 30.1882C15.0094 30.1426 15.0805 30.1099 15.1559 30.0918C15.2312 30.0737 15.3094 30.0707 15.386 30.0829C15.4625 30.095 15.5359 30.122 15.6019 30.1624C15.668 30.2028 15.7254 30.2559 15.771 30.3185C15.8165 30.3812 15.8493 30.4522 15.8674 30.5275C15.8855 30.6028 15.8886 30.6809 15.8765 30.7574L14.1077 41.9599C14.0858 42.0987 14.0151 42.225 13.9083 42.3163C13.8015 42.4075 13.6656 42.4576 13.5252 42.4576Z" fill="currentColor"/>
<path d="M34.1614 42.4576C34.021 42.4575 33.8853 42.4073 33.7786 42.3161C33.6719 42.2249 33.6013 42.0986 33.5794 41.96L31.8106 30.7574C31.7862 30.603 31.824 30.4452 31.9159 30.3187C32.0078 30.1922 32.1462 30.1074 32.3006 30.0829C32.3771 30.0708 32.4552 30.0739 32.5305 30.092C32.6058 30.1101 32.6768 30.1429 32.7394 30.1885C32.8021 30.234 32.8551 30.2915 32.8956 30.3575C32.936 30.4236 32.963 30.497 32.9751 30.5735L34.7439 41.776C34.7572 41.8602 34.7521 41.9462 34.7289 42.0282C34.7057 42.1103 34.6651 42.1863 34.6097 42.2511C34.5543 42.3158 34.4856 42.3678 34.4082 42.4035C34.3308 42.4392 34.2466 42.4576 34.1614 42.4576Z" fill="currentColor"/>
<path d="M47.4099 47.9999C47.3328 48 47.2565 47.985 47.1852 47.9557L34.5765 42.7636L24.2318 47.1969C24.1584 47.2283 24.0794 47.2446 23.9995 47.2446C23.9197 47.2446 23.8406 47.2283 23.7672 47.1969L13.4226 42.7636L0.813831 47.9557C0.709397 47.9986 0.594825 48.0107 0.483743 47.9904C0.37266 47.9701 0.269733 47.9184 0.187203 47.8413C0.104673 47.7643 0.0460078 47.6651 0.0181822 47.5557C-0.00964344 47.4462 -0.00545891 47.3311 0.0302378 47.224L6.82664 26.8342C6.8556 26.7474 6.90433 26.6686 6.969 26.6039C7.03368 26.5393 7.11252 26.4905 7.19927 26.4616L12.2899 24.7647L12.6626 25.8849L7.85197 27.4887L1.55555 46.3744L13.2026 41.5785C13.2752 41.5487 13.353 41.5336 13.4315 41.5342C13.5099 41.5348 13.5875 41.5511 13.6596 41.582L24.0001 46.0135L34.3406 41.582C34.4127 41.5511 34.4903 41.5348 34.5688 41.5342C34.6472 41.5336 34.725 41.5487 34.7976 41.5785L46.4447 46.3744L40.1471 27.4863L35.3365 25.8826L35.7091 24.7623L40.7998 26.4592C40.8866 26.4882 40.9654 26.5369 41.0301 26.6016C41.0947 26.6663 41.1435 26.7451 41.1724 26.8319L47.9694 47.224C47.9989 47.3126 48.007 47.407 47.9929 47.4994C47.9788 47.5917 47.9429 47.6794 47.8882 47.7552C47.8336 47.831 47.7617 47.8927 47.6786 47.9352C47.5954 47.9778 47.5033 47.9999 47.4099 47.9999Z" fill="currentColor"/>
</svg>
