<svg width="48" height="48" viewBox="0 0 48 48" fill="none" xmlns="http://www.w3.org/2000/svg">
<path d="M2.69597 40.4465H1.51038V14.1856C1.51038 13.2266 1.89135 12.3068 2.5695 11.6287C3.24764 10.9506 4.1674 10.5696 5.12644 10.5696H13.2703V11.7552H5.12644C4.48184 11.7552 3.86364 12.0112 3.40783 12.467C2.95203 12.9228 2.69597 13.541 2.69597 14.1856V40.4465Z" fill="currentColor"/>
<path d="M46.4913 40.4465H45.3057V14.1856C45.3057 13.541 45.0497 12.9228 44.5939 12.467C44.1381 12.0112 43.5199 11.7552 42.8753 11.7552H34.7344V10.5696H42.8782C43.8373 10.5696 44.757 10.9506 45.4352 11.6287C46.1133 12.3068 46.4943 13.2266 46.4943 14.1856L46.4913 40.4465Z" fill="currentColor"/>
<path d="M42.8782 48H5.12354C3.76513 47.9986 2.46276 47.4584 1.50221 46.4978C0.541668 45.5373 0.00141232 44.2349 0 42.8765C0 42.7193 0.0624547 42.5685 0.173626 42.4573C0.284797 42.3461 0.435577 42.2837 0.592797 42.2837H18.7152C18.8724 42.2837 19.0232 42.3461 19.1344 42.4573C19.2455 42.5685 19.308 42.7193 19.308 42.8765V43.7941H28.6914V42.8765C28.6914 42.7193 28.7538 42.5685 28.865 42.4573C28.9762 42.3461 29.1269 42.2837 29.2842 42.2837H47.4065C47.5638 42.2837 47.7145 42.3461 47.8257 42.4573C47.9369 42.5685 47.9993 42.7193 47.9993 42.8765C47.9979 44.2345 47.458 45.5365 46.498 46.497C45.5379 47.4575 44.2362 47.998 42.8782 48ZM1.23005 43.4693C1.37297 44.3998 1.84403 45.2485 2.55809 45.862C3.27216 46.4755 4.18212 46.8133 5.12354 46.8144H42.8782C43.8196 46.8133 44.7296 46.4755 45.4436 45.862C46.1577 45.2485 46.6287 44.3998 46.7717 43.4693H29.877V44.3869C29.877 44.5442 29.8145 44.6949 29.7033 44.8061C29.5922 44.9173 29.4414 44.9797 29.2842 44.9797H18.7152C18.558 44.9797 18.4072 44.9173 18.296 44.8061C18.1848 44.6949 18.1224 44.5442 18.1224 44.3869V43.4693H1.23005Z" fill="currentColor"/>
<path d="M42.1235 37.4286H42.1004C41.9434 37.4226 41.7951 37.3545 41.6883 37.2392C41.5815 37.1239 41.5248 36.9709 41.5307 36.8139C41.5337 36.7321 41.7868 28.6422 37.5169 26.4992L28.1021 22.154C27.9594 22.0881 27.8486 21.9683 27.7943 21.8207C27.7399 21.6732 27.7464 21.5101 27.8122 21.3674C27.8781 21.2246 27.998 21.1139 28.1455 21.0595C28.293 21.0052 28.4561 21.0116 28.5989 21.0775L38.0243 25.4268L38.0409 25.4351C39.2854 26.0917 40.299 27.1134 40.9456 28.363C41.5792 29.5534 42.0302 30.8323 42.2836 32.1569C42.5995 33.7039 42.7446 35.2809 42.7163 36.8595C42.7102 37.0126 42.6451 37.1574 42.5345 37.2635C42.424 37.3695 42.2767 37.4287 42.1235 37.4286Z" fill="currentColor"/>
<path d="M5.88348 37.428C5.73019 37.4281 5.5828 37.3688 5.47227 37.2626C5.36174 37.1564 5.29666 37.0115 5.29068 36.8583C5.26244 35.2796 5.40756 33.7026 5.72342 32.1556C5.97678 30.8311 6.4278 29.5522 7.06137 28.3618C7.70801 27.1122 8.72165 26.0905 9.96607 25.4339L9.98267 25.4256L19.4081 21.0763C19.5509 21.0104 19.714 21.0039 19.8615 21.0583C20.009 21.1127 20.1289 21.2234 20.1948 21.3662C20.2606 21.5089 20.2671 21.672 20.2128 21.8195C20.1584 21.967 20.0477 22.0869 19.9049 22.1528L10.4901 26.498C6.22197 28.6433 6.47272 36.7332 6.47628 36.8127C6.48221 36.9697 6.42553 37.1227 6.3187 37.238C6.21188 37.3532 6.06364 37.4214 5.9066 37.4274L5.88348 37.428Z" fill="currentColor"/>
<path d="M31.9743 29.4547C31.9259 29.4547 31.8777 29.4487 31.8308 29.437C29.8782 28.9607 28.0702 28.0179 26.562 26.6893C25.9335 26.1439 25.3865 25.511 24.9378 24.8102C24.8669 24.6747 24.8511 24.5171 24.8937 24.3702C24.9363 24.2234 25.034 24.0987 25.1664 24.0222C25.2988 23.9457 25.4556 23.9233 25.6041 23.9596C25.7526 23.996 25.8813 24.0883 25.9633 24.2174C26.3619 24.824 26.8433 25.372 27.3937 25.8452C28.5232 26.8367 29.8441 27.5858 31.2748 28.0463L30.6612 23.1391C30.6417 22.9831 30.685 22.8257 30.7816 22.7015C30.8781 22.5774 31.02 22.4967 31.1761 22.4772C31.3321 22.4577 31.4895 22.501 31.6136 22.5976C31.7377 22.6941 31.8184 22.836 31.8379 22.9921L32.5629 28.7914C32.5733 28.8748 32.5659 28.9594 32.5411 29.0398C32.5163 29.1201 32.4748 29.1942 32.4191 29.2572C32.3635 29.3202 32.2952 29.3706 32.2186 29.4052C32.142 29.4398 32.0589 29.4577 31.9749 29.4577L31.9743 29.4547Z" fill="currentColor"/>
<path d="M16.0268 29.4548C15.9428 29.4548 15.8597 29.4369 15.7831 29.4023C15.7065 29.3677 15.6382 29.3173 15.5825 29.2542C15.5269 29.1912 15.4854 29.1171 15.4606 29.0368C15.4358 28.9565 15.4284 28.8719 15.4388 28.7885L16.1638 22.9891C16.1734 22.9119 16.1982 22.8373 16.2367 22.7696C16.2752 22.7019 16.3266 22.6425 16.3881 22.5946C16.4495 22.5468 16.5198 22.5116 16.5949 22.491C16.67 22.4703 16.7484 22.4646 16.8256 22.4743C16.9029 22.484 16.9775 22.5087 17.0452 22.5472C17.1129 22.5857 17.1723 22.6371 17.2201 22.6986C17.2679 22.7601 17.3032 22.8303 17.3238 22.9054C17.3445 22.9805 17.3501 23.0589 17.3405 23.1362L16.7269 28.0427C18.157 27.5816 19.4778 26.833 20.608 25.8429C21.1589 25.3694 21.6408 24.8211 22.0396 24.2139C22.1187 24.078 22.2486 23.9792 22.4006 23.9391C22.5527 23.899 22.7144 23.921 22.8502 24.0002C22.9861 24.0793 23.0849 24.2092 23.125 24.3612C23.165 24.5133 23.1431 24.675 23.0639 24.8108C22.6152 25.5116 22.0682 26.1445 21.4397 26.69C19.934 28.0222 18.1251 28.9655 16.1709 29.4376C16.1238 29.4492 16.0754 29.455 16.0268 29.4548Z" fill="currentColor"/>
<path d="M26.9005 37.4286C26.7433 37.4286 26.5925 37.3662 26.4813 37.255C26.3702 37.1438 26.3077 36.993 26.3077 36.8358C26.3077 34.5998 24.8909 29.0654 24.8767 29.0109C24.851 28.9111 24.8518 28.8064 24.8789 28.707C24.906 28.6077 24.9586 28.5171 25.0314 28.4442C25.3151 28.1485 25.5119 27.7806 25.6005 27.3806C25.689 26.9806 25.6659 26.5639 25.5335 26.1761C25.4102 25.7063 25.2166 25.2578 24.9591 24.8459C24.8711 24.7157 24.8384 24.5558 24.8682 24.4014C24.8981 24.247 24.988 24.1109 25.1183 24.0228C25.2485 23.9348 25.4084 23.9021 25.5628 23.9319C25.7171 23.9618 25.8533 24.0517 25.9414 24.182C26.2764 24.7071 26.5269 25.2816 26.6835 25.8845C26.8489 26.416 26.8825 26.9797 26.7814 27.5271C26.6803 28.0744 26.4475 28.589 26.1032 29.0263C26.4103 30.2564 27.4933 34.7462 27.4933 36.8382C27.4927 36.995 27.4299 37.1452 27.3188 37.2558C27.2077 37.3665 27.0573 37.4286 26.9005 37.4286Z" fill="currentColor"/>
<path d="M21.1012 37.4288C20.944 37.4288 20.7932 37.3663 20.682 37.2551C20.5709 37.144 20.5084 36.9932 20.5084 36.836C20.5084 34.744 21.5921 30.2559 21.8985 29.0241C21.5542 28.5867 21.3215 28.0722 21.2203 27.5248C21.1192 26.9775 21.1528 26.4137 21.3182 25.8823C21.4745 25.279 21.7248 24.7041 22.0598 24.1786C22.1478 24.0483 22.284 23.9584 22.4384 23.9285C22.5927 23.8987 22.7526 23.9314 22.8829 24.0194C23.0131 24.1074 23.1031 24.2436 23.1329 24.398C23.1628 24.5523 23.1301 24.7122 23.042 24.8425C22.7792 25.2626 22.583 25.721 22.4605 26.2012C22.3336 26.5855 22.3139 26.9971 22.4037 27.3918C22.4934 27.7864 22.6891 28.1491 22.9697 28.4408C23.0425 28.5136 23.0951 28.6042 23.1222 28.7036C23.1493 28.803 23.1501 28.9077 23.1244 29.0075C23.1102 29.0632 21.6934 34.5976 21.6934 36.8324C21.6939 36.9105 21.6789 36.9879 21.6494 37.0602C21.6198 37.1325 21.5763 37.1982 21.5213 37.2537C21.4662 37.3091 21.4008 37.3531 21.3287 37.3831C21.2566 37.4132 21.1793 37.4287 21.1012 37.4288Z" fill="currentColor"/>
<path d="M26.9005 20.0311C26.764 20.0311 26.6317 19.9839 26.526 19.8976C26.4202 19.8114 26.3475 19.6912 26.32 19.5575C26.2926 19.4238 26.3121 19.2847 26.3753 19.1638C26.4385 19.0428 26.5415 18.9473 26.667 18.8935C30.4395 17.2764 30.8563 13.8832 31.2967 10.2909V10.2748C31.5149 8.49112 31.618 6.43887 30.727 4.74347C29.8829 3.25464 28.499 2.14705 26.8614 1.64966C25.0037 1.02879 22.9945 1.02879 21.1368 1.64966C19.4992 2.14705 18.1153 3.25464 17.2711 4.74347C16.382 6.43887 16.4833 8.49112 16.7015 10.2748V10.2903C17.1425 13.8826 17.5587 17.2758 21.3312 18.8929C21.4038 18.9228 21.4698 18.9669 21.5253 19.0226C21.5807 19.0782 21.6246 19.1443 21.6543 19.217C21.6839 19.2898 21.6989 19.3677 21.6982 19.4462C21.6975 19.5248 21.6812 19.6024 21.6503 19.6746C21.6193 19.7468 21.5743 19.8122 21.5179 19.8668C21.4614 19.9215 21.3947 19.9644 21.3216 19.993C21.2484 20.0217 21.1703 20.0355 21.0918 20.0337C21.0132 20.0319 20.9358 20.0145 20.8641 19.9825C19.9274 19.6051 19.0759 19.0439 18.3598 18.3319C17.6437 17.6199 17.0776 16.7716 16.695 15.8371C16.0573 14.0988 15.6635 12.2806 15.5248 10.4343V10.4183C15.2841 8.4526 15.1792 6.17507 16.2219 4.19394C17.2067 2.43479 18.8308 1.12212 20.7574 0.528085C22.8614 -0.176028 25.1374 -0.176028 27.2414 0.528085C29.1679 1.12198 30.7919 2.43442 31.7769 4.19335C32.8196 6.17744 32.7147 8.45437 32.474 10.4177V10.4337C32.3353 12.28 31.9415 14.0982 31.3038 15.8365C30.9212 16.771 30.355 17.6193 29.639 18.3313C28.9229 19.0433 28.0714 19.6046 27.1347 19.9819C27.0608 20.014 26.9811 20.0308 26.9005 20.0311Z" fill="currentColor"/>
<path d="M24.1819 24.5922H23.8197C22.5093 24.5908 21.253 24.0695 20.3264 23.1429C19.3999 22.2162 18.8788 20.9598 18.8776 19.6494V18.7134C18.8776 18.5562 18.94 18.4054 19.0512 18.2942C19.1624 18.1831 19.3131 18.1206 19.4704 18.1206C19.6276 18.1206 19.7784 18.1831 19.8895 18.2942C20.0007 18.4054 20.0632 18.5562 20.0632 18.7134V19.6494C20.0666 20.6447 20.4635 21.5982 21.1672 22.3019C21.871 23.0057 22.8245 23.4025 23.8197 23.406H24.1819C25.1771 23.4025 26.1306 23.0057 26.8344 22.3019C27.5381 21.5982 27.935 20.6447 27.9385 19.6494V18.7134C27.9385 18.5562 28.0009 18.4054 28.1121 18.2942C28.2233 18.1831 28.374 18.1206 28.5313 18.1206C28.6885 18.1206 28.8393 18.1831 28.9504 18.2942C29.0616 18.4054 29.1241 18.5562 29.1241 18.7134V19.6494C29.1228 20.9598 28.6017 22.2162 27.6752 23.1429C26.7486 24.0695 25.4923 24.5908 24.1819 24.5922Z" fill="currentColor"/>
</svg>
