<svg width="48" height="48" viewBox="0 0 48 48" fill="none" xmlns="http://www.w3.org/2000/svg">
<path d="M37.4324 23.0851H30.5917C30.3283 23.0849 30.0658 23.056 29.8087 22.9991L23.4007 21.5767H19.6911C19.5339 21.5767 19.3832 21.5142 19.272 21.4031C19.1609 21.2919 19.0984 21.1412 19.0984 20.984C19.0984 20.8268 19.1609 20.6761 19.272 20.5649C19.3832 20.4538 19.5339 20.3913 19.6911 20.3913H23.4659C23.5091 20.3914 23.5523 20.3961 23.5945 20.4056L30.0654 21.844C30.2383 21.8828 30.415 21.9027 30.5923 21.9033H37.4329C37.7763 21.9033 38.1056 21.7669 38.3484 21.524C38.5913 21.2812 38.7277 20.9519 38.7277 20.6085C38.7277 20.2652 38.5913 19.9359 38.3484 19.6931C38.1056 19.4503 37.7763 19.3139 37.4329 19.3139C37.2758 19.3139 37.125 19.2514 37.0139 19.1403C36.9027 19.0291 36.8403 18.8784 36.8403 18.7212C36.8403 18.564 36.9027 18.4132 37.0139 18.3021C37.125 18.1909 37.2758 18.1285 37.4329 18.1285H38.9431C39.2865 18.1285 39.6158 17.9921 39.8586 17.7493C40.1014 17.5065 40.2378 17.1772 40.2378 16.8338C40.2378 16.4904 40.1014 16.1611 39.8586 15.9183C39.6158 15.6755 39.2865 15.5391 38.9431 15.5391H37.8105C37.6533 15.5391 37.5026 15.4766 37.3914 15.3655C37.2803 15.2543 37.2178 15.1036 37.2178 14.9464C37.2178 14.7892 37.2803 14.6385 37.3914 14.5273C37.5026 14.4162 37.6533 14.3537 37.8105 14.3537H39.6976C40.041 14.3537 40.3703 14.2173 40.6131 13.9745C40.8559 13.7317 40.9923 13.4024 40.9923 13.059C40.9923 12.7157 40.8559 12.3863 40.6131 12.1435C40.3703 11.9007 40.041 11.7643 39.6976 11.7643H38.1874C38.0302 11.7643 37.8795 11.7019 37.7683 11.5907C37.6572 11.4796 37.5948 11.3288 37.5948 11.1716C37.5948 11.0145 37.6572 10.8637 37.7683 10.7526C37.8795 10.6414 38.0302 10.579 38.1874 10.579H38.9425C39.2859 10.579 39.6152 10.4426 39.858 10.1997C40.1008 9.95694 40.2372 9.62763 40.2372 9.28425C40.2372 8.94087 40.1008 8.61156 39.858 8.36875C39.6152 8.12595 39.2859 7.98956 38.9425 7.98956H30.2604C30.1032 7.98956 29.9524 7.9271 29.8413 7.81596C29.7301 7.70481 29.6677 7.55407 29.6677 7.39688C29.6677 7.23969 29.7301 7.08893 29.8413 6.97778C29.9524 6.86663 30.1032 6.8042 30.2604 6.8042H38.9425C39.4132 6.80392 39.8742 6.93767 40.2717 7.1898C40.6691 7.44193 40.9866 7.80202 41.1869 8.22794C41.3872 8.65387 41.4621 9.12802 41.4028 9.59495C41.3435 10.0619 41.1525 10.5023 40.8521 10.8646C41.2513 11.0751 41.5854 11.3906 41.8185 11.7771C42.0516 12.1635 42.1748 12.6063 42.1748 13.0575C42.1748 13.5088 42.0516 13.9516 41.8185 14.338C41.5854 14.7244 41.2513 15.0399 40.8521 15.2504C41.1219 15.5757 41.304 15.9645 41.3811 16.38C41.4583 16.7954 41.428 17.2237 41.2931 17.6241C41.1582 18.0245 40.9231 18.3838 40.6103 18.6679C40.2974 18.9519 39.9171 19.1512 39.5056 19.2469C39.751 19.6209 39.8907 20.0543 39.9097 20.5013C39.9288 20.9482 39.8266 21.392 39.614 21.7855C39.4014 22.1791 39.0862 22.5078 38.7019 22.7368C38.3176 22.9658 37.8785 23.0865 37.4312 23.0862L37.4324 23.0851Z" fill="currentColor"/>
<path d="M20.5766 9.496H18.9367C18.7795 9.496 18.6288 9.43356 18.5176 9.32242C18.4065 9.21127 18.344 9.06051 18.344 8.90332C18.344 8.74613 18.4065 8.59539 18.5176 8.48424C18.6288 8.37309 18.7795 8.31064 18.9367 8.31064H20.5766C20.8198 8.30981 21.0528 8.21313 21.225 8.04158L24.6661 4.60049C25.17 4.09553 25.8126 3.75164 26.5123 3.61248L29.3904 3.037C29.5435 3.00866 29.7016 3.04171 29.8305 3.12903C29.9595 3.21634 30.0489 3.35089 30.0794 3.50359C30.1099 3.6563 30.0791 3.81487 29.9937 3.94505C29.9082 4.07522 29.7749 4.16654 29.6227 4.19924L26.7447 4.77472C26.2747 4.86833 25.8432 5.09937 25.5048 5.43854L22.0637 8.87962C21.6685 9.27287 21.1341 9.49435 20.5766 9.496Z" fill="currentColor"/>
<path d="M18.9355 23.8394H11.3871C11.2299 23.8394 11.0792 23.7769 10.9681 23.6658C10.8569 23.5546 10.7945 23.4039 10.7945 23.2467C10.7945 23.0895 10.8569 22.9388 10.9681 22.8276C11.0792 22.7165 11.2299 22.654 11.3871 22.654H18.3428V7.23077H4.59268C4.43549 7.23077 4.28475 7.16832 4.1736 7.05717C4.06245 6.94602 4 6.79528 4 6.63809C4 6.4809 4.06245 6.33016 4.1736 6.21901C4.28475 6.10786 4.43549 6.04541 4.59268 6.04541H18.9355C19.0927 6.04541 19.2434 6.10786 19.3546 6.21901C19.4657 6.33016 19.5282 6.4809 19.5282 6.63809V23.2467C19.5282 23.4039 19.4657 23.5546 19.3546 23.6658C19.2434 23.7769 19.0927 23.8394 18.9355 23.8394Z" fill="currentColor"/>
<path d="M14.7844 20.5233C14.5018 20.5233 14.2255 20.4395 13.9905 20.2825C13.7555 20.1255 13.5724 19.9023 13.4642 19.6412C13.3561 19.3801 13.3278 19.0928 13.3829 18.8156C13.438 18.5384 13.5741 18.2838 13.774 18.0839C13.9738 17.8841 14.2284 17.748 14.5056 17.6929C14.7828 17.6377 15.0701 17.666 15.3312 17.7742C15.5923 17.8823 15.8155 18.0655 15.9725 18.3005C16.1295 18.5355 16.2133 18.8117 16.2133 19.0944C16.213 19.4732 16.0624 19.8365 15.7944 20.1044C15.5265 20.3723 15.1633 20.523 14.7844 20.5233ZM14.7844 18.2587C14.619 18.2587 14.4573 18.3077 14.3198 18.3996C14.1822 18.4915 14.0751 18.6221 14.0118 18.7749C13.9485 18.9277 13.9319 19.0959 13.9642 19.2581C13.9964 19.4203 14.0761 19.5693 14.1931 19.6863C14.31 19.8032 14.459 19.8829 14.6212 19.9152C14.7835 19.9474 14.9516 19.9309 15.1044 19.8676C15.2572 19.8043 15.3878 19.6971 15.4797 19.5596C15.5716 19.422 15.6206 19.2604 15.6206 19.095C15.6205 18.8732 15.5323 18.6606 15.3756 18.5038C15.2188 18.347 15.0061 18.2588 14.7844 18.2587Z" fill="currentColor"/>
<path d="M35.5453 7.98597H31.0155C30.8806 7.98595 30.7499 7.93997 30.6447 7.8556C30.5395 7.77123 30.4663 7.65352 30.437 7.52191L28.9269 0.727454C28.9076 0.640773 28.9081 0.550859 28.9282 0.464377C28.9483 0.377896 28.9877 0.297042 29.0432 0.227798C29.0988 0.158554 29.1693 0.102691 29.2494 0.0643268C29.3294 0.0259623 29.4171 0.00608515 29.5059 0.00615872H33.2807C33.3978 0.00613246 33.5122 0.0407789 33.6096 0.105728C34.0929 0.456234 34.6695 0.655103 35.2662 0.677064C35.7687 0.681025 36.2559 0.503641 36.6382 0.177444C36.7275 0.0856102 36.8444 0.0255747 36.971 0.00652046C37.0976 -0.0125337 37.227 0.0104387 37.3394 0.0719415C37.4537 0.133557 37.5446 0.23102 37.5981 0.349343C37.6517 0.467667 37.6649 0.600306 37.6357 0.726858L36.1255 7.52131C36.0963 7.65333 36.0229 7.77141 35.9173 7.85593C35.8118 7.94044 35.6805 7.98632 35.5453 7.98597ZM31.4914 6.80062H35.07L36.1961 1.72908C35.8937 1.81779 35.5801 1.86268 35.265 1.86242C34.4966 1.84654 33.7484 1.61398 33.1064 1.19152H30.245L31.4914 6.80062Z" fill="currentColor"/>
<path d="M32.525 47.9978C30.5289 48.0284 28.5409 47.7374 26.6374 47.136C25.0681 46.6335 23.6279 45.7938 22.4175 44.6758C21.3024 43.6168 20.4448 42.3164 19.9104 40.8743C19.3527 39.3386 19.0776 37.7145 19.0985 36.0808C19.0985 33.7148 20.1831 31.0827 22.3227 28.2574C24.1113 25.9762 26.1378 23.8921 28.368 22.0402C28.4876 21.9381 28.6429 21.8876 28.7997 21.8999C28.9566 21.9123 29.1021 21.9864 29.2042 22.106C29.3064 22.2256 29.3569 22.3809 29.3445 22.5378C29.3322 22.6946 29.2581 22.8401 29.1385 22.9423C25.097 26.3875 20.2838 31.4632 20.2838 36.0808C20.2632 37.5714 20.5124 39.0534 21.0194 40.4553C21.4904 41.7291 22.2471 42.8781 23.2312 43.814C24.3168 44.8135 25.6078 45.5636 27.0137 46.0117C30.6107 47.0795 34.4405 47.0795 38.0375 46.0117C39.4434 45.5636 40.7344 44.8135 41.82 43.814C42.8042 42.8781 43.5608 41.7291 44.0319 40.4553C44.5388 39.0534 44.788 37.5714 44.7674 36.0808C44.7422 34.8819 44.4944 33.6982 44.0366 32.5899C43.5303 31.3378 42.8877 30.1453 42.1205 29.0338C40.5596 26.7845 38.727 24.7365 36.6643 22.9364C36.6027 22.8859 36.552 22.8235 36.5151 22.753C36.4781 22.6825 36.4558 22.6053 36.4494 22.526C36.4429 22.4467 36.4525 22.3668 36.4776 22.2913C36.5027 22.2158 36.5427 22.1461 36.5953 22.0863C36.6479 22.0266 36.712 21.9781 36.7837 21.9437C36.8555 21.9093 36.9335 21.8896 37.013 21.886C37.0925 21.8824 37.1719 21.8948 37.2465 21.9225C37.3211 21.9502 37.3894 21.9927 37.4472 22.0473C39.5855 23.9142 41.4849 26.0381 43.1026 28.3706C44.9938 31.1687 45.9527 33.764 45.9527 36.0814C45.9734 37.7152 45.6981 39.3392 45.1402 40.8749C44.6058 42.3169 43.7482 43.6173 42.6332 44.6764C41.4228 45.7944 39.9825 46.6341 38.4133 47.1366C36.5095 47.7379 34.5213 48.0286 32.525 47.9978Z" fill="currentColor"/>
<path d="M33.2806 39.6932H31.7705C31.1824 39.6669 30.6122 39.4824 30.1203 39.159C29.6283 38.8356 29.2328 38.3854 28.9754 37.8559C28.9066 37.7154 28.8961 37.5535 28.9462 37.4053C28.9962 37.2572 29.1028 37.1348 29.2427 37.0649C29.3826 36.995 29.5445 36.9832 29.693 37.0321C29.8416 37.081 29.9648 37.1867 30.0357 37.326C30.1949 37.6593 30.4397 37.9444 30.7451 38.1521C31.0505 38.3598 31.4056 38.4828 31.7741 38.5084H33.2801C33.7236 38.5084 34.1489 38.3322 34.4625 38.0186C34.7761 37.705 34.9523 37.2797 34.9523 36.8362C34.9523 36.3927 34.7761 35.9673 34.4625 35.6537C34.1489 35.3401 33.7236 35.1639 33.2801 35.1639H31.7699C31.012 35.1639 30.2852 34.8629 29.7493 34.3269C29.2134 33.791 28.9123 33.0642 28.9123 32.3063C28.9123 31.5484 29.2134 30.8216 29.7493 30.2857C30.2852 29.7498 31.012 29.4487 31.7699 29.4487H33.2801C33.8682 29.475 34.4384 29.6595 34.9303 29.9829C35.4223 30.3063 35.8178 30.7565 36.0751 31.286C36.1107 31.3557 36.132 31.4318 36.138 31.5098C36.144 31.5877 36.1345 31.6661 36.11 31.7404C36.0855 31.8147 36.0466 31.8835 35.9955 31.9426C35.9443 32.0018 35.8819 32.0503 35.812 32.0853C35.742 32.1202 35.6658 32.141 35.5878 32.1464C35.5098 32.1517 35.4314 32.1416 35.3573 32.1166C35.2832 32.0915 35.2148 32.0521 35.156 32.0005C35.0972 31.9489 35.0493 31.8861 35.0148 31.8159C34.857 31.4825 34.613 31.1972 34.3082 30.9895C34.0034 30.7818 33.6487 30.6591 33.2806 30.6341H31.7705C31.327 30.6341 30.9017 30.8103 30.5881 31.1239C30.2745 31.4375 30.0983 31.8628 30.0983 32.3063C30.0983 32.7498 30.2745 33.1752 30.5881 33.4888C30.9017 33.8024 31.327 33.9786 31.7705 33.9786H33.2806C34.0385 33.9786 34.7654 34.2796 35.3013 34.8155C35.8372 35.3514 36.1382 36.0783 36.1382 36.8362C36.1382 37.5941 35.8372 38.3209 35.3013 38.8568C34.7654 39.3927 34.0385 39.6938 33.2806 39.6938V39.6932Z" fill="currentColor"/>
<path d="M32.5256 30.6339C32.3684 30.6339 32.2177 30.5714 32.1065 30.4603C31.9954 30.3491 31.9329 30.1984 31.9329 30.0412V28.531C31.9329 28.3738 31.9954 28.2231 32.1065 28.1119C32.2177 28.0008 32.3684 27.9384 32.5256 27.9384C32.6828 27.9384 32.8335 28.0008 32.9447 28.1119C33.0558 28.2231 33.1183 28.3738 33.1183 28.531V30.0412C33.1183 30.1984 33.0558 30.3491 32.9447 30.4603C32.8335 30.5714 32.6828 30.6339 32.5256 30.6339Z" fill="currentColor"/>
<path d="M32.5256 41.2031C32.3684 41.2031 32.2177 41.1406 32.1065 41.0295C31.9954 40.9183 31.9329 40.7676 31.9329 40.6104V39.1002C31.9329 38.9431 31.9954 38.7923 32.1065 38.6812C32.2177 38.57 32.3684 38.5076 32.5256 38.5076C32.6828 38.5076 32.8335 38.57 32.9447 38.6812C33.0558 38.7923 33.1183 38.9431 33.1183 39.1002V40.6104C33.1183 40.7676 33.0558 40.9183 32.9447 41.0295C32.8335 41.1406 32.6828 41.2031 32.5256 41.2031Z" fill="currentColor"/>
</svg>
