<svg width="48" height="48" viewBox="0 0 48 48" fill="none" xmlns="http://www.w3.org/2000/svg">
<path d="M8.9304 47.9999C8.80035 48.0001 8.67383 47.9577 8.57027 47.8792C8.4667 47.8007 8.39181 47.6904 8.35707 47.5653C8.32233 47.4403 8.32968 47.3072 8.37797 47.1867C8.42627 47.0662 8.51284 46.9649 8.62442 46.8982L11.8855 44.9479L4.92493 33.832L0.87135 35.8522C0.801351 35.8891 0.724668 35.9116 0.645823 35.9185C0.566978 35.9254 0.487554 35.9165 0.412209 35.8923C0.336864 35.8681 0.267126 35.8291 0.207078 35.7777C0.147031 35.7262 0.0978882 35.6633 0.0625408 35.5926C0.0271934 35.5219 0.00635379 35.4449 0.00124098 35.3661C-0.00387183 35.2873 0.00684783 35.2082 0.0327702 35.1336C0.0586926 35.0589 0.0992983 34.9902 0.152197 34.9315C0.205096 34.8727 0.269218 34.8251 0.34081 34.7914L4.87739 32.531C5.00963 32.4651 5.16174 32.4507 5.30401 32.4907C5.44627 32.5308 5.56848 32.6223 5.64677 32.7474L13.2145 44.8328C13.2564 44.8997 13.2844 44.9742 13.2971 45.052C13.3098 45.1298 13.3068 45.2093 13.2884 45.2859C13.2699 45.3626 13.2363 45.4348 13.1895 45.4983C13.1428 45.5618 13.0838 45.6154 13.0161 45.6559L9.23575 47.9163C9.14342 47.9712 9.03789 48.0001 8.9304 47.9999Z" fill="currentColor"/>
<path d="M20.2837 35.1596C20.1261 35.1596 19.975 35.0971 19.8636 34.9859C19.7522 34.8747 19.6896 34.7239 19.6896 34.5666C19.6896 34.4093 19.7522 34.2585 19.8636 34.1473C19.975 34.0361 20.1261 33.9736 20.2837 33.9736L29.3545 33.9683C29.6768 33.9733 29.997 33.9143 30.2962 33.7947C30.5955 33.675 30.8679 33.4972 31.0976 33.2714C31.3274 33.0457 31.5098 32.7766 31.6343 32.4798C31.7589 32.183 31.823 31.8645 31.823 31.5427C31.823 31.221 31.7589 30.9024 31.6343 30.6056C31.5098 30.3089 31.3274 30.0398 31.0976 29.814C30.8679 29.5883 30.5955 29.4104 30.2962 29.2908C29.997 29.1711 29.6768 29.1121 29.3545 29.1172L17.7861 29.1225C16.5523 29.1235 15.3408 29.4509 14.2749 30.0713L6.96741 34.3258C6.83128 34.4051 6.66917 34.4272 6.51676 34.3871C6.36434 34.3471 6.2341 34.2483 6.15469 34.1124C6.07527 33.9765 6.05319 33.8147 6.0933 33.6626C6.13341 33.5104 6.23242 33.3804 6.36856 33.3012L13.6761 29.0466C14.9236 28.3211 16.3416 27.9385 17.7855 27.9377L29.3539 27.9312C29.833 27.9251 30.3085 28.014 30.7529 28.1927C31.1973 28.3715 31.6017 28.6365 31.9426 28.9725C32.2836 29.3084 32.5543 29.7086 32.7391 30.1498C32.9238 30.5911 33.019 31.0645 33.019 31.5427C33.019 32.0209 32.9238 32.4944 32.7391 32.9356C32.5543 33.3768 32.2836 33.777 31.9426 34.113C31.6017 34.4489 31.1973 34.714 30.7529 34.8927C30.3085 35.0715 29.833 35.1604 29.3539 35.1542L20.2837 35.1596Z" fill="currentColor"/>
<path d="M12.4131 44.2227C12.283 44.223 12.1564 44.1807 12.0528 44.1022C11.9491 44.0237 11.8741 43.9135 11.8393 43.7884C11.8045 43.6633 11.8118 43.5302 11.8601 43.4096C11.9083 43.289 11.995 43.1876 12.1066 43.1209L14.8098 41.5015C15.6069 41.0233 16.5194 40.7708 17.4494 40.771H29.3315C30.2617 40.7717 31.1825 40.586 32.0394 40.2248L45.3991 33.8207L45.4288 33.8077C45.9937 33.541 46.4343 33.0679 46.6595 32.4862C46.8848 31.9045 46.8774 31.2586 46.639 30.6821C46.4006 30.1057 45.9493 29.6427 45.3785 29.3889C44.8077 29.1352 44.161 29.1101 43.5722 29.3188L30.3551 35.1104C30.2123 35.1655 30.0536 35.1634 29.9123 35.1046C29.771 35.0458 29.6579 34.9348 29.5965 34.7947C29.5352 34.6547 29.5305 34.4964 29.5833 34.3529C29.636 34.2094 29.7423 34.0919 29.8798 34.0247L43.1082 28.2313L43.1195 28.2266C43.9969 27.9028 44.9658 27.9303 45.8234 28.3032C46.681 28.6761 47.361 29.3656 47.721 30.2274C48.081 31.0891 48.0931 32.0565 47.7549 32.927C47.4168 33.7976 46.7544 34.5038 45.9064 34.8981L32.548 41.3023L32.5224 41.3141C31.5155 41.7408 30.4326 41.9603 29.3386 41.9593H17.4565C16.7421 41.9591 16.0411 42.153 15.4288 42.5202L12.725 44.1397C12.6307 44.1955 12.5228 44.2243 12.4131 44.2227Z" fill="currentColor"/>
<path d="M12.0934 26.8521C11.9796 26.8522 11.8681 26.8197 11.7723 26.7584C11.6764 26.6971 11.6003 26.6097 11.5528 26.5064C10.2608 23.6873 9.69052 20.5922 9.89308 17.4988C10.0957 14.4054 11.0647 11.4106 12.7133 8.78333C14.362 6.15608 16.6385 3.9786 19.3385 2.4464C22.0385 0.914193 25.0775 0.0752216 28.1826 0.0048277C31.2877 -0.0655662 34.3617 0.634821 37.1287 2.04309C39.8956 3.45136 42.2688 5.52343 44.0352 8.07326C45.8016 10.6231 46.906 13.5708 47.249 16.6519C47.5921 19.7329 47.1632 22.8508 46.0008 25.7255C45.9719 25.7982 45.9289 25.8644 45.8743 25.9205C45.8196 25.9765 45.7544 26.0212 45.6823 26.052C45.6103 26.0827 45.5328 26.099 45.4545 26.0998C45.3761 26.1005 45.2984 26.0859 45.2258 26.0565C45.1531 26.0272 45.087 25.9838 45.0313 25.9289C44.9755 25.874 44.9312 25.8085 44.9008 25.7364C44.8705 25.6643 44.8547 25.5869 44.8545 25.5087C44.8542 25.4305 44.8695 25.353 44.8993 25.2807C45.9888 22.5878 46.3911 19.667 46.0701 16.7806C45.7491 13.8941 44.7149 11.1325 43.0603 8.74356C41.4057 6.35465 39.1826 4.41331 36.5905 3.09386C33.9984 1.77442 31.1186 1.11819 28.2097 1.1841C25.3007 1.25002 22.4537 2.03602 19.9243 3.47151C17.3949 4.907 15.2624 6.94705 13.7181 9.40845C12.1738 11.8698 11.2662 14.6755 11.0768 17.5735C10.8874 20.4715 11.4221 23.3711 12.6329 26.0119C12.6744 26.1022 12.6925 26.2014 12.6855 26.3005C12.6786 26.3997 12.6468 26.4954 12.5931 26.5791C12.5394 26.6627 12.4655 26.7316 12.3782 26.7793C12.2909 26.827 12.1929 26.852 12.0934 26.8521Z" fill="currentColor"/>
<path d="M28.5876 10.697C25.03 10.7252 21.476 10.4662 17.9602 9.9226C17.8823 9.9112 17.8074 9.88444 17.7399 9.84388C17.6724 9.80332 17.6137 9.74976 17.5671 9.68633C17.5206 9.62291 17.4871 9.55088 17.4687 9.47443C17.4503 9.39798 17.4473 9.31862 17.4599 9.24101C17.4725 9.16339 17.5005 9.08905 17.5421 9.02231C17.5838 8.95558 17.6383 8.89778 17.7026 8.85228C17.7668 8.80678 17.8395 8.7745 17.9164 8.7573C17.9933 8.74009 18.0728 8.73831 18.1503 8.75207C21.6031 9.28532 25.0933 9.53915 28.587 9.51107H28.6072C32.1074 9.53957 35.6042 9.28574 39.0635 8.75207C39.2178 8.72949 39.3749 8.76842 39.5007 8.86044C39.6266 8.95246 39.7111 9.09018 39.7361 9.24388C39.761 9.39758 39.7244 9.55493 39.6341 9.68192C39.5439 9.80891 39.4072 9.89535 39.2536 9.9226C35.7311 10.4666 32.1703 10.7256 28.606 10.697H28.5876Z" fill="currentColor"/>
<path d="M28.6078 25.34C28.4502 25.34 28.2991 25.2775 28.1877 25.1663C28.0763 25.0551 28.0137 24.9043 28.0137 24.747V5.10884C28.0137 4.95158 28.0763 4.80075 28.1877 4.68955C28.2991 4.57834 28.4502 4.51587 28.6078 4.51587C28.7653 4.51587 28.9165 4.57834 29.0279 4.68955C29.1393 4.80075 29.2019 4.95158 29.2019 5.10884V24.747C29.2019 24.9043 29.1393 25.0551 29.0279 25.1663C28.9165 25.2775 28.7653 25.34 28.6078 25.34Z" fill="currentColor"/>
<path d="M42.984 20.0531H14.2292C14.0717 20.0531 13.9206 19.9907 13.8091 19.8795C13.6977 19.7683 13.6351 19.6174 13.6351 19.4602C13.6351 19.3029 13.6977 19.1521 13.8091 19.0409C13.9206 18.9297 14.0717 18.8672 14.2292 18.8672H42.984C43.1415 18.8672 43.2926 18.9297 43.4041 19.0409C43.5155 19.1521 43.5781 19.3029 43.5781 19.4602C43.5781 19.6174 43.5155 19.7683 43.4041 19.8795C43.2926 19.9907 43.1415 20.0531 42.984 20.0531Z" fill="currentColor"/>
<path d="M19.2393 25.3412C19.1049 25.3412 18.9745 25.2956 18.8694 25.212C18.7643 25.1285 18.6907 25.0118 18.6606 24.8811C18.254 23.1027 18.0503 21.2842 18.0534 19.4601C18.0427 16.8917 18.4529 14.3389 19.2678 11.9026C20.0464 9.57953 21.2294 7.41163 22.7623 5.4985C22.8105 5.43582 22.8707 5.38339 22.9394 5.34425C23.0082 5.30512 23.0841 5.28008 23.1626 5.27062C23.2412 5.26116 23.3209 5.26748 23.397 5.28919C23.4731 5.31089 23.5441 5.34754 23.6058 5.397C23.6675 5.44646 23.7186 5.50773 23.7563 5.5772C23.794 5.64668 23.8173 5.72296 23.825 5.80158C23.8327 5.88019 23.8246 5.95956 23.8012 6.035C23.7778 6.11045 23.7394 6.18045 23.6885 6.24092C22.2429 8.04609 21.1275 10.0915 20.3936 12.2833C19.6203 14.5973 19.2314 17.022 19.2422 19.4613C19.2391 21.1957 19.4326 22.925 19.8191 24.616C19.8392 24.703 19.8394 24.7933 19.8197 24.8804C19.7999 24.9674 19.7608 25.0489 19.7051 25.1187C19.6494 25.1886 19.5786 25.2449 19.4981 25.2837C19.4175 25.3224 19.3293 25.3425 19.2398 25.3424L19.2393 25.3412Z" fill="currentColor"/>
<path d="M37.9763 25.3401C37.8869 25.3402 37.7986 25.3201 37.7181 25.2814C37.6375 25.2426 37.5668 25.1863 37.5111 25.1164C37.4554 25.0466 37.4162 24.9651 37.3965 24.8781C37.3767 24.791 37.3769 24.7007 37.397 24.6137C37.7836 22.9229 37.977 21.1938 37.9733 19.4596C37.9842 17.0203 37.5952 14.5956 36.8219 12.2816C36.088 10.0898 34.9727 8.04439 33.527 6.23921C33.4761 6.17875 33.4378 6.10874 33.4144 6.0333C33.3909 5.95785 33.3828 5.87849 33.3905 5.79987C33.3982 5.72126 33.4216 5.64496 33.4593 5.57548C33.4969 5.506 33.5481 5.44474 33.6098 5.39528C33.6715 5.34582 33.7425 5.30916 33.8186 5.28746C33.8947 5.26576 33.9744 5.25946 34.0529 5.26891C34.1315 5.27837 34.2074 5.3034 34.2761 5.34253C34.3449 5.38166 34.4051 5.43412 34.4532 5.4968C35.9861 7.40992 37.1691 9.57781 37.9478 11.9009C38.7627 14.3372 39.1729 16.89 39.1621 19.4584C39.1656 21.2823 38.9619 23.1007 38.555 24.8788C38.5251 25.0097 38.4516 25.1266 38.3465 25.2105C38.2413 25.2943 38.1108 25.34 37.9763 25.3401Z" fill="currentColor"/>
</svg>
