<svg width="48" height="48" viewBox="0 0 48 48" fill="none" xmlns="http://www.w3.org/2000/svg">
<path d="M38.7401 41.6677C38.4169 41.6672 38.0981 41.5955 37.8071 41.4578L20.2552 33.207C20.1728 33.1681 20.1003 33.1115 20.0434 33.0413C19.9865 32.9711 19.9466 32.8892 19.9266 32.8017C19.9067 32.7142 19.9073 32.6234 19.9283 32.5362C19.9494 32.4489 19.9904 32.3675 20.0482 32.298L34.4394 15L16.9831 26.7532C16.8508 26.8404 16.6887 26.8729 16.532 26.8437C16.3753 26.8144 16.2367 26.7258 16.1464 26.5971C16.056 26.4684 16.0211 26.3099 16.0494 26.1562C16.0777 26.0025 16.1667 25.8659 16.2972 25.7761L37.2327 11.6797C37.3527 11.5987 37.4986 11.5628 37.6435 11.5786C37.7884 11.5945 37.9226 11.661 38.0214 11.766C38.1202 11.871 38.177 12.0074 38.1814 12.1502C38.1857 12.2929 38.1373 12.4324 38.0451 12.543L21.4721 32.4646L38.3308 40.39C38.462 40.4516 38.6059 40.4827 38.7514 40.4809C38.8968 40.4792 39.0399 40.4445 39.1694 40.3798C39.299 40.315 39.4116 40.2218 39.4984 40.1075C39.5852 39.9932 39.6439 39.8608 39.6699 39.7206L46.7844 1.38211C46.7899 1.35186 46.7867 1.3207 46.7752 1.29211C46.7637 1.26352 46.7443 1.23862 46.7192 1.22018C46.6941 1.20174 46.6643 1.19049 46.633 1.18767C46.6018 1.18486 46.5704 1.19059 46.5422 1.20424L1.30791 22.6402C1.27895 22.6537 1.25451 22.6751 1.23739 22.7016C1.22028 22.7282 1.2112 22.759 1.2112 22.7905C1.2112 22.8219 1.22028 22.8527 1.23739 22.8793C1.25451 22.9059 1.27895 22.9272 1.30791 22.9408L13.0197 28.3362C13.0916 28.3694 13.1562 28.4161 13.2097 28.4737C13.2632 28.5313 13.3046 28.5987 13.3315 28.672C13.3585 28.7453 13.3704 28.823 13.3666 28.9008C13.3629 28.9786 13.3435 29.0549 13.3096 29.1254C13.2758 29.1959 13.2281 29.2591 13.1693 29.3115C13.1104 29.3639 13.0417 29.4045 12.9668 29.4308C12.892 29.4572 12.8126 29.4689 12.7332 29.4652C12.6537 29.4615 12.5758 29.4426 12.5039 29.4094L0.792721 24.0139C0.55681 23.9052 0.357161 23.7332 0.216878 23.5179C0.0765941 23.3027 0.00141305 23.0529 1.97234e-05 22.7976C-0.0013736 22.5422 0.0710807 22.2917 0.209007 22.0749C0.346934 21.8582 0.54469 21.6842 0.779401 21.5729L46.018 0.135232C46.2474 0.0263829 46.5031 -0.0181108 46.7568 0.00668239C47.0104 0.0314756 47.2522 0.124589 47.4551 0.275696C47.658 0.426803 47.8143 0.630001 47.9065 0.862762C47.9987 1.09552 48.0233 1.34875 47.9776 1.59437L40.8601 39.9317C40.7693 40.4177 40.5077 40.8574 40.1208 41.1744C39.7338 41.4915 39.2458 41.666 38.7413 41.6677H38.7401Z" fill="currentColor"/>
<path d="M21.2281 48C21.1288 47.9998 21.0311 47.9758 20.9435 47.93C20.8734 47.8934 20.8113 47.8436 20.7608 47.7834C20.7103 47.7233 20.6723 47.654 20.6492 47.5795C20.626 47.505 20.6181 47.4268 20.6258 47.3493C20.6335 47.2718 20.6567 47.1965 20.6941 47.1278L25.5372 38.2342C25.6128 38.0955 25.7416 37.992 25.8952 37.9463C26.0488 37.9006 26.2147 37.9165 26.3563 37.9905C26.4979 38.0646 26.6036 38.1907 26.6503 38.3412C26.697 38.4916 26.6807 38.654 26.6051 38.7927L21.762 47.6863C21.7104 47.7811 21.6334 47.8603 21.5394 47.9155C21.4453 47.9708 21.3377 48 21.2281 48Z" fill="currentColor"/>
<path d="M21.2281 48C21.0675 48 20.9135 47.9376 20.8 47.8264C20.6865 47.7152 20.6227 47.5644 20.6227 47.4071V33.1774C20.6227 33.0201 20.6865 32.8693 20.8 32.7581C20.9135 32.6469 21.0675 32.5845 21.2281 32.5845C21.3886 32.5845 21.5426 32.6469 21.6561 32.7581C21.7697 32.8693 21.8334 33.0201 21.8334 33.1774V47.4071C21.8334 47.5644 21.7697 47.7152 21.6561 47.8264C21.5426 47.9376 21.3886 48 21.2281 48Z" fill="currentColor"/>
<path d="M21.2281 48.0001C21.1115 48.0001 20.9974 47.9672 20.8995 47.9053C20.8015 47.8433 20.7239 47.755 20.676 47.6509L12.2006 29.2708C12.1679 29.1998 12.1498 29.1232 12.1473 29.0454C12.1448 28.9676 12.158 28.89 12.1861 28.8172C12.2142 28.7443 12.2567 28.6776 12.3111 28.6209C12.3655 28.5641 12.4308 28.5184 12.5033 28.4864C12.5758 28.4543 12.654 28.4366 12.7334 28.4341C12.8129 28.4317 12.8921 28.4446 12.9665 28.4721C13.0408 28.4997 13.1089 28.5413 13.1669 28.5946C13.2249 28.6479 13.2715 28.7119 13.3042 28.7828L21.7796 47.1629C21.8213 47.2532 21.8392 47.3523 21.8317 47.4511C21.8242 47.55 21.7916 47.6454 21.7367 47.7286C21.6818 47.8119 21.6065 47.8804 21.5177 47.9278C21.4289 47.9752 21.3293 48.0001 21.2281 48.0001Z" fill="currentColor"/>
</svg>
