<svg width="48" height="48" viewBox="0 0 48 48" fill="none" xmlns="http://www.w3.org/2000/svg">
<path d="M47.4087 48C47.3242 48 47.2407 47.9818 47.1637 47.9468C47.0868 47.9117 47.0183 47.8605 46.9627 47.7967L16.5353 12.8444L1.0542 32.295C1.00577 32.3559 0.945838 32.4066 0.877844 32.4443C0.809849 32.482 0.735121 32.5058 0.657918 32.5146C0.580715 32.5233 0.502549 32.5167 0.427891 32.4951C0.353233 32.4736 0.283542 32.4375 0.222795 32.389C0.162048 32.3405 0.111434 32.2804 0.073846 32.2123C0.0362581 32.1441 0.0124328 32.0692 0.00372656 31.9919C-0.00497972 31.9145 0.00160489 31.8362 0.0231057 31.7614C0.0446064 31.6866 0.0806018 31.6167 0.129036 31.5559L16.0502 11.5497C16.1043 11.4819 16.1725 11.4267 16.2501 11.3882C16.3278 11.3497 16.4129 11.3287 16.4995 11.3268C16.5861 11.3249 16.6721 11.342 16.7514 11.3771C16.8306 11.4121 16.9013 11.4642 16.9582 11.5296L47.8512 47.0178C47.9258 47.1035 47.9742 47.2089 47.9906 47.3215C48.007 47.434 47.9908 47.5489 47.9438 47.6524C47.8969 47.756 47.8212 47.8438 47.7258 47.9054C47.6304 47.9671 47.5193 47.9999 47.4058 48H47.4087Z" fill="currentColor"/>
<path d="M47.41 33.6537C47.3261 33.6537 47.2431 33.6359 47.1666 33.6013C47.0901 33.5668 47.0219 33.5163 46.9663 33.4533L36.1057 21.1189L30.5216 27.4141C30.4174 27.5316 30.2708 27.6028 30.1141 27.6121C29.9575 27.6213 29.8036 27.5678 29.6864 27.4633C29.5691 27.3589 29.498 27.212 29.4888 27.055C29.4796 26.898 29.533 26.7438 29.6373 26.6263L35.665 19.8308C35.7205 19.7682 35.7885 19.7181 35.8647 19.6838C35.9408 19.6494 36.0234 19.6317 36.1069 19.6316C36.1906 19.6317 36.2733 19.6496 36.3496 19.6842C36.4259 19.7187 36.4939 19.7691 36.5494 19.832L47.8518 32.6679C47.9272 32.7534 47.9763 32.8589 47.9934 32.9717C48.0104 33.0845 47.9946 33.1998 47.9478 33.3038C47.901 33.4079 47.8253 33.4961 47.7297 33.5581C47.634 33.62 47.5226 33.653 47.4088 33.6531L47.41 33.6537Z" fill="currentColor"/>
<path d="M19.6051 44.9797H0.691878C0.534993 44.9797 0.384533 44.9173 0.273598 44.8061C0.162664 44.6949 0.100342 44.5441 0.100342 44.3869C0.100342 44.2297 0.162664 44.0789 0.273598 43.9678C0.384533 43.8566 0.534993 43.7942 0.691878 43.7942H19.6051C20.309 43.7939 20.9918 43.5537 21.5414 43.1129C22.0909 42.6721 22.4744 42.0571 22.6288 41.3689C22.7832 40.6807 22.6993 39.9603 22.3909 39.3262C22.0825 38.6922 21.568 38.1822 20.9319 37.8801L12.1038 33.6891C11.6173 33.4582 11.1885 33.1211 10.849 32.7025C10.5095 32.2839 10.2679 31.7944 10.1418 31.2699C10.0158 30.7455 10.0085 30.1994 10.1206 29.6718C10.2326 29.1441 10.4612 28.6484 10.7894 28.2208L16.0458 21.3731C16.1427 21.2522 16.283 21.1742 16.4366 21.1558C16.5902 21.1374 16.7449 21.18 16.8675 21.2745C16.9902 21.369 17.071 21.5079 17.0926 21.6614C17.1143 21.8149 17.0751 21.9708 16.9834 22.0957L11.727 28.9434C11.5062 29.2307 11.3525 29.5639 11.2771 29.9185C11.2017 30.2731 11.2065 30.6402 11.2912 30.9927C11.3759 31.3452 11.5383 31.6743 11.7666 31.9556C11.9948 32.237 12.2831 32.4635 12.6101 32.6186L21.4382 36.8095C22.317 37.227 23.0278 37.9317 23.4539 38.8077C23.8799 39.6838 23.9957 40.679 23.7823 41.6298C23.5689 42.5806 23.039 43.4303 22.2797 44.0393C21.5205 44.6482 20.577 44.9801 19.6045 44.9803L19.6051 44.9797Z" fill="currentColor"/>
<path d="M16.5152 12.5117C16.3584 12.5117 16.2079 12.4492 16.097 12.3381C15.986 12.2269 15.9237 12.0761 15.9237 11.9189V0.592774C15.9237 0.43556 15.986 0.284786 16.097 0.173619C16.2079 0.0624528 16.3584 0 16.5152 0C16.6721 0 16.8226 0.0624528 16.9335 0.173619C17.0445 0.284786 17.1068 0.43556 17.1068 0.592774V11.9189C17.1068 12.0761 17.0445 12.2269 16.9335 12.3381C16.8226 12.4492 16.6721 12.5117 16.5152 12.5117Z" fill="currentColor"/>
<path d="M16.5152 2.26562H24.8038C24.9607 2.26562 25.1112 2.32808 25.2221 2.43924C25.3331 2.55041 25.3954 2.70119 25.3954 2.8584V8.14357C25.3954 8.30078 25.3331 8.45156 25.2221 8.56272C25.1112 8.67389 24.9607 8.73634 24.8038 8.73634H16.5152C16.3584 8.73634 16.2079 8.67389 16.097 8.56272C15.986 8.45156 15.9237 8.30078 15.9237 8.14357V2.8584C15.9237 2.70119 15.986 2.55041 16.097 2.43924C16.2079 2.32808 16.3584 2.26562 16.5152 2.26562ZM24.2123 3.45117H17.1068V7.5508H24.2123V3.45117Z" fill="currentColor"/>
</svg>
