<svg width="48" height="48" viewBox="0 0 48 48" fill="none" xmlns="http://www.w3.org/2000/svg">
<path d="M38.3437 47.9999H38.3206C38.1635 47.9939 38.0153 47.9258 37.9085 47.8105C37.8017 47.6953 37.745 47.5423 37.7509 47.3852C37.7539 47.2999 38.0182 38.8576 33.5558 36.6157L23.7484 32.0893C23.6056 32.0234 23.4949 31.9035 23.4405 31.756C23.3862 31.6085 23.3926 31.4454 23.4585 31.3027C23.5244 31.1599 23.6443 31.0492 23.7918 30.9948C23.9393 30.9405 24.1024 30.9469 24.2451 31.0128L34.0609 35.5434L34.0775 35.5517C35.3696 36.2332 36.4221 37.294 37.0935 38.5914C37.7525 39.8298 38.2214 41.1603 38.4848 42.5381C38.8135 44.1476 38.9646 45.7884 38.9353 47.4309C38.9291 47.5837 38.8642 47.7283 38.7539 47.8344C38.6437 47.9404 38.4967 47.9998 38.3437 47.9999Z" fill="currentColor"/>
<path d="M0.596401 48C0.443112 48.0002 0.295739 47.9409 0.185214 47.8347C0.0746882 47.7285 0.00960398 47.5836 0.00362575 47.4304C-0.0259 45.7879 0.124977 44.1472 0.453543 42.5376C0.71686 41.1598 1.18586 39.8293 1.84479 38.5909C2.51621 37.2935 3.5687 36.2327 4.86082 35.5512L4.87743 35.5429L14.6932 31.0123C14.8359 30.9464 14.999 30.94 15.1465 30.9943C15.294 31.0487 15.4139 31.1594 15.4798 31.3022C15.5457 31.4449 15.5521 31.608 15.4978 31.7555C15.4434 31.903 15.3327 32.0229 15.1899 32.0888L5.38247 36.6152C0.920059 38.8571 1.18444 47.2994 1.1874 47.3847C1.19333 47.5418 1.13666 47.6948 1.02984 47.81C0.923016 47.9253 0.774788 47.9934 0.617747 47.9995L0.596401 48Z" fill="currentColor"/>
<path d="M27.7739 39.6941C27.7256 39.694 27.6774 39.688 27.6305 39.6763C25.6007 39.1811 23.7213 38.2011 22.1532 36.8203C21.5005 36.2539 20.9323 35.5967 20.4662 34.8689C20.4224 34.8014 20.3928 34.7258 20.3792 34.6465C20.3656 34.5673 20.3682 34.4861 20.387 34.4079C20.4057 34.3297 20.4402 34.2562 20.4883 34.1917C20.5363 34.1273 20.597 34.0733 20.6666 34.033C20.7362 33.9927 20.8133 33.9671 20.8931 33.9575C20.973 33.948 21.0539 33.9548 21.1311 33.9776C21.2082 34.0003 21.2799 34.0385 21.3418 34.0898C21.4037 34.1411 21.4545 34.2045 21.4911 34.2761C21.9071 34.9097 22.4097 35.4819 22.9843 35.9762C24.1736 37.0207 25.5662 37.8078 27.0745 38.288L26.4319 33.1344C26.4222 33.0572 26.4279 32.9788 26.4485 32.9037C26.4692 32.8286 26.5044 32.7583 26.5522 32.6969C26.6 32.6354 26.6595 32.584 26.7272 32.5455C26.7948 32.507 26.8695 32.4822 26.9467 32.4726C27.024 32.4629 27.1024 32.4686 27.1775 32.4892C27.2525 32.5099 27.3228 32.5451 27.3842 32.5929C27.4457 32.6407 27.4972 32.7002 27.5356 32.7679C27.5741 32.8356 27.5989 32.9102 27.6085 32.9874L28.3637 39.0278C28.3742 39.1112 28.3667 39.1958 28.342 39.2761C28.3172 39.3564 28.2756 39.4305 28.22 39.4935C28.1644 39.5565 28.096 39.607 28.0194 39.6416C27.9428 39.6762 27.8597 39.694 27.7757 39.6941H27.7739Z" fill="currentColor"/>
<path d="M11.1626 39.6941C11.0786 39.694 10.9955 39.6762 10.9189 39.6416C10.8423 39.607 10.774 39.5565 10.7183 39.4935C10.6627 39.4305 10.6212 39.3564 10.5964 39.2761C10.5716 39.1958 10.5642 39.1112 10.5746 39.0278L11.3298 32.9874C11.3394 32.9102 11.3642 32.8356 11.4027 32.7679C11.4412 32.7002 11.4926 32.6407 11.5541 32.5929C11.6155 32.5451 11.6858 32.5099 11.7609 32.4892C11.8359 32.4686 11.9144 32.4629 11.9916 32.4726C12.0689 32.4822 12.1435 32.507 12.2112 32.5455C12.2788 32.584 12.3383 32.6354 12.3861 32.6969C12.4339 32.7583 12.4691 32.8286 12.4898 32.9037C12.5104 32.9788 12.5161 33.0572 12.5064 33.1344L11.8627 38.285C14.1256 37.6215 16.095 36.2066 17.446 34.2737C17.5288 34.1463 17.6573 34.0555 17.805 34.0201C17.9528 33.9846 18.1085 34.0073 18.24 34.0834C18.3715 34.1594 18.4688 34.2831 18.5118 34.4288C18.5548 34.5746 18.5402 34.7313 18.4709 34.8665C18.0048 35.5943 17.4367 36.2515 16.7839 36.8179C15.2186 38.2027 13.3381 39.1832 11.3067 39.6739C11.2597 39.6865 11.2113 39.6933 11.1626 39.6941Z" fill="currentColor"/>
<path d="M22.4888 47.9994C22.3316 47.9994 22.1808 47.9369 22.0696 47.8258C21.9584 47.7146 21.896 47.5638 21.896 47.4066C21.896 45.0735 20.4194 39.3063 20.4046 39.2483C20.379 39.1484 20.3798 39.0437 20.4071 38.9443C20.4343 38.8449 20.487 38.7544 20.5599 38.6816C20.8585 38.3707 21.0659 37.9837 21.1592 37.5629C21.2526 37.142 21.2284 36.7036 21.0892 36.2956C20.9601 35.8034 20.7572 35.3336 20.4876 34.902C20.3995 34.7718 20.3668 34.6119 20.3967 34.4575C20.4265 34.3032 20.5165 34.167 20.6467 34.079C20.777 33.9909 20.9369 33.9582 21.0912 33.9881C21.2456 34.0179 21.3818 34.1079 21.4698 34.2381C21.8177 34.7831 22.0778 35.3794 22.2404 36.0052C22.4124 36.557 22.4469 37.1425 22.341 37.7107C22.2351 38.2789 21.992 38.8126 21.6328 39.2654C21.9482 40.5286 23.0833 45.2252 23.0833 47.4084C23.0831 47.4862 23.0675 47.5633 23.0375 47.6351C23.0075 47.7069 22.9637 47.7721 22.9084 47.827C22.8532 47.8819 22.7878 47.9254 22.7158 47.9549C22.6437 47.9845 22.5666 47.9996 22.4888 47.9994Z" fill="currentColor"/>
<path d="M16.4484 47.9993C16.2912 47.9993 16.1404 47.9369 16.0293 47.8257C15.9181 47.7145 15.8557 47.5638 15.8557 47.4065C15.8557 45.2234 16.9908 40.5262 17.3062 39.263C16.9472 38.8101 16.7042 38.2763 16.5984 37.7081C16.4926 37.1399 16.5272 36.5545 16.6992 36.0027C16.8618 35.377 17.1218 34.7806 17.4698 34.2357C17.5578 34.1054 17.694 34.0155 17.8483 33.9856C18.0027 33.9558 18.1626 33.9885 18.2929 34.0765C18.4231 34.1646 18.513 34.3007 18.5429 34.4551C18.5727 34.6094 18.54 34.7693 18.452 34.8996C18.1768 35.3395 17.9715 35.8194 17.8432 36.3222C17.7097 36.7267 17.6891 37.16 17.7836 37.5753C17.8782 37.9906 18.0842 38.3723 18.3797 38.6791C18.4525 38.752 18.5051 38.8426 18.5322 38.942C18.5593 39.0413 18.5601 39.1461 18.5344 39.2458C18.5196 39.3051 17.043 45.0716 17.043 47.4042C17.0433 47.4824 17.0281 47.5598 16.9984 47.6322C16.9686 47.7045 16.9248 47.7702 16.8696 47.8255C16.8143 47.8808 16.7486 47.9246 16.6764 47.9545C16.6041 47.9843 16.5266 47.9996 16.4484 47.9993Z" fill="currentColor"/>
<path d="M16.4478 29.8789C16.3677 29.8788 16.2885 29.8624 16.2149 29.8308C15.242 29.4391 14.3575 28.8562 13.6137 28.1167C12.87 27.3772 12.282 26.4961 11.8846 25.5255C11.2214 23.7165 10.8119 21.8244 10.6677 19.9031V19.8882C10.4169 17.8449 10.3073 15.478 11.3915 13.4163C12.4137 11.5893 14.1006 10.2264 16.1016 9.61071C18.288 8.87862 20.6533 8.87862 22.8397 9.61071C24.8408 10.2265 26.5277 11.5897 27.5499 13.4169C28.6341 15.478 28.5238 17.8449 28.2737 19.8882V19.9025C28.1295 21.8238 27.72 23.7159 27.0567 25.5249C26.6593 26.4957 26.0713 27.377 25.3275 28.1166C24.5836 28.8561 23.699 29.4391 22.7259 29.8308C22.5819 29.8902 22.4203 29.8904 22.2761 29.8316C22.1319 29.7727 22.0167 29.6595 21.9553 29.5163C21.8939 29.3732 21.8913 29.2116 21.9481 29.0666C22.0049 28.9216 22.1165 28.8047 22.2588 28.7413C26.2025 27.0513 26.6364 23.5089 27.0964 19.7584V19.7442C27.3246 17.8829 27.4325 15.7406 26.5001 13.9688C25.6188 12.412 24.1723 11.2539 22.4603 10.7346C20.5199 10.0855 18.4209 10.0855 16.4804 10.7346C14.7685 11.2539 13.322 12.412 12.4407 13.9688C11.5082 15.7412 11.6161 17.8811 11.8443 19.7448V19.7596C12.3043 23.5101 12.7382 27.0507 16.682 28.7425C16.8074 28.7963 16.9104 28.8918 16.9736 29.0127C17.0368 29.1337 17.0564 29.2728 17.0289 29.4065C17.0015 29.5402 16.9287 29.6603 16.823 29.7466C16.7172 29.8329 16.5849 29.88 16.4484 29.88L16.4478 29.8789Z" fill="currentColor"/>
<path d="M19.4685 35.1634C18.1109 35.16 16.8098 34.6192 15.8498 33.6592C14.8897 32.6993 14.3488 31.3983 14.3452 30.0407V28.5303C14.3452 28.3731 14.4076 28.2223 14.5188 28.1111C14.63 28 14.7807 27.9375 14.938 27.9375C15.0952 27.9375 15.2459 28 15.3571 28.1111C15.4683 28.2223 15.5307 28.3731 15.5307 28.5303V30.0407C15.5434 31.0766 15.9639 32.0658 16.7009 32.7938C17.438 33.5219 18.4322 33.9302 19.4682 33.9302C20.5042 33.9302 21.4985 33.5219 22.2356 32.7938C22.9726 32.0658 23.393 31.0766 23.4057 30.0407V28.5303C23.4057 28.3731 23.4682 28.2223 23.5794 28.1111C23.6905 28 23.8413 27.9375 23.9985 27.9375C24.1557 27.9375 24.3065 28 24.4177 28.1111C24.5288 28.2223 24.5913 28.3731 24.5913 28.5303V30.0407C24.5879 31.3984 24.047 32.6995 23.0869 33.6596C22.1268 34.6197 20.8257 35.1606 19.4679 35.164L19.4685 35.1634Z" fill="currentColor"/>
<path d="M30.7947 25.3476C30.6375 25.3476 30.4867 25.2852 30.3756 25.174C30.2644 25.0629 30.2019 24.9121 30.2019 24.7549V21.1389H31.3875V23.4454L36.445 19.0204C36.5532 18.9258 36.692 18.8738 36.8357 18.8739H45.8962C46.1386 18.8736 46.3711 18.7775 46.5429 18.6065C46.7146 18.4355 46.8119 18.2035 46.8133 17.9611V2.10316C46.8131 1.85985 46.7164 1.62654 46.5443 1.45449C46.3723 1.28243 46.139 1.18571 45.8956 1.18555H20.979C20.7356 1.18571 20.5023 1.28243 20.3303 1.45449C20.1582 1.62654 20.0615 1.85985 20.0613 2.10316V7.22592H18.8758V2.10316C18.8764 1.54556 19.0982 1.01098 19.4925 0.616696C19.8868 0.222412 20.4214 0.000627577 20.979 0L45.8962 0C46.4539 0.000627577 46.9884 0.222412 47.3827 0.616696C47.777 1.01098 47.9988 1.54556 47.9994 2.10316V17.9611C47.9988 18.5187 47.777 19.0533 47.3827 19.4475C46.9884 19.8418 46.4539 20.0636 45.8962 20.0642H37.058L31.1853 25.203C31.0769 25.2969 30.9381 25.3483 30.7947 25.3476Z" fill="currentColor"/>
<path d="M28.9067 11.4602C28.6241 11.4602 28.3477 11.3763 28.1127 11.2193C27.8777 11.0623 27.6945 10.8391 27.5863 10.5779C27.4782 10.3168 27.4499 10.0294 27.505 9.75217C27.5601 9.47493 27.6963 9.22028 27.8961 9.0204C28.096 8.82053 28.3507 8.68441 28.6279 8.62927C28.9051 8.57412 29.1925 8.60243 29.4536 8.7106C29.7148 8.81877 29.938 9.00195 30.095 9.23698C30.2521 9.47201 30.3359 9.74832 30.3359 10.031C30.3356 10.4099 30.1849 10.7733 29.9169 11.0412C29.649 11.3092 29.2857 11.4599 28.9067 11.4602ZM28.9067 9.19517C28.7413 9.19517 28.5796 9.24423 28.442 9.33613C28.3045 9.42804 28.1973 9.55867 28.134 9.7115C28.0707 9.86433 28.0541 10.0325 28.0864 10.1948C28.1187 10.357 28.1983 10.506 28.3153 10.623C28.4323 10.74 28.5813 10.8196 28.7436 10.8519C28.9058 10.8842 29.074 10.8676 29.2268 10.8043C29.3796 10.741 29.5103 10.6338 29.6022 10.4963C29.6941 10.3587 29.7431 10.197 29.7431 10.0316C29.743 9.8098 29.6548 9.59715 29.498 9.44033C29.3412 9.2835 29.1285 9.19533 28.9067 9.19517Z" fill="currentColor"/>
<path d="M33.4373 11.4602C33.1546 11.4602 32.8783 11.3763 32.6433 11.2193C32.4082 11.0623 32.2251 10.8391 32.1169 10.5779C32.0087 10.3168 31.9804 10.0294 32.0355 9.75217C32.0907 9.47493 32.2268 9.22028 32.4267 9.0204C32.6266 8.82053 32.8812 8.68441 33.1585 8.62927C33.4357 8.57412 33.723 8.60243 33.9842 8.7106C34.2453 8.81877 34.4686 9.00195 34.6256 9.23698C34.7826 9.47201 34.8664 9.74832 34.8664 10.031C34.8661 10.4099 34.7154 10.7733 34.4475 11.0412C34.1795 11.3092 33.8162 11.4599 33.4373 11.4602ZM33.4373 9.19517C33.2718 9.19517 33.1101 9.24423 32.9726 9.33613C32.835 9.42804 32.7278 9.55867 32.6645 9.7115C32.6012 9.86433 32.5847 10.0325 32.6169 10.1948C32.6492 10.357 32.7289 10.506 32.8458 10.623C32.9628 10.74 33.1119 10.8196 33.2741 10.8519C33.4363 10.8842 33.6045 10.8676 33.7573 10.8043C33.9102 10.741 34.0408 10.6338 34.1327 10.4963C34.2246 10.3587 34.2737 10.197 34.2737 10.0316C34.2735 9.8098 34.1854 9.59715 34.0285 9.44033C33.8717 9.2835 33.6591 9.19533 33.4373 9.19517Z" fill="currentColor"/>
<path d="M37.9679 11.4602C37.6852 11.4602 37.4089 11.3763 37.1739 11.2193C36.9389 11.0623 36.7557 10.8391 36.6475 10.5779C36.5393 10.3168 36.511 10.0294 36.5662 9.75217C36.6213 9.47493 36.7575 9.22028 36.9573 9.0204C37.1572 8.82053 37.4119 8.68441 37.6891 8.62927C37.9663 8.57412 38.2537 8.60243 38.5148 8.7106C38.776 8.81877 38.9992 9.00195 39.1562 9.23698C39.3133 9.47201 39.3971 9.74832 39.3971 10.031C39.3968 10.4099 39.2461 10.7733 38.9781 11.0412C38.7102 11.3092 38.3469 11.4599 37.9679 11.4602ZM37.9679 9.19517C37.8025 9.19517 37.6408 9.24423 37.5032 9.33613C37.3657 9.42804 37.2585 9.55867 37.1952 9.7115C37.1319 9.86433 37.1153 10.0325 37.1476 10.1948C37.1798 10.357 37.2595 10.506 37.3765 10.623C37.4935 10.74 37.6425 10.8196 37.8047 10.8519C37.967 10.8842 38.1351 10.8676 38.288 10.8043C38.4408 10.741 38.5714 10.6338 38.6633 10.4963C38.7553 10.3587 38.8043 10.197 38.8043 10.0316C38.8041 9.8098 38.716 9.59715 38.5592 9.44033C38.4023 9.2835 38.1897 9.19533 37.9679 9.19517Z" fill="currentColor"/>
</svg>
