<svg width="48" height="48" viewBox="0 0 48 48" fill="none" xmlns="http://www.w3.org/2000/svg">
<path d="M38.3374 48H38.3143C38.2365 47.997 38.1601 47.9787 38.0893 47.9462C38.0186 47.9136 37.955 47.8675 37.9021 47.8104C37.8492 47.7532 37.8081 47.6862 37.7811 47.6132C37.7541 47.5402 37.7417 47.4626 37.7447 47.3848C37.7483 47.2846 38.0079 38.8568 33.5504 36.6177L23.7447 32.0921C23.674 32.0595 23.6105 32.0133 23.5577 31.9561C23.5049 31.899 23.4638 31.8319 23.4369 31.7589C23.41 31.6859 23.3977 31.6083 23.4008 31.5305C23.4039 31.4527 23.4223 31.3763 23.4549 31.3057C23.4875 31.235 23.5337 31.1714 23.5909 31.1186C23.6481 31.0658 23.7151 31.0248 23.7881 30.9979C23.8611 30.9709 23.9387 30.9587 24.0165 30.9618C24.0943 30.9649 24.1707 30.9832 24.2414 31.0158L34.0554 35.5456L34.072 35.5539C35.3639 36.2353 36.4162 37.2959 37.0875 38.5931C37.7463 39.8313 38.2152 41.1615 38.4785 42.5391C38.807 44.1484 38.9578 45.7888 38.9283 47.431C38.9222 47.5837 38.8573 47.7282 38.7472 47.8342C38.6371 47.9402 38.4903 47.9996 38.3374 48Z" fill="currentColor"/>
<path d="M0.596247 48C0.442887 48.0002 0.295457 47.9408 0.184935 47.8345C0.0744132 47.7282 0.00940594 47.5831 0.00357829 47.4299C-0.025752 45.7877 0.125301 44.1472 0.454013 42.538C0.717282 41.1604 1.18618 39.8302 1.845 38.592C2.51629 37.2948 3.56862 36.2342 4.86051 35.5528L4.87709 35.5445L14.6911 31.0147C14.8338 30.9489 14.9969 30.9424 15.1444 30.9968C15.2919 31.0511 15.4117 31.1618 15.4776 31.3046C15.5434 31.4473 15.5499 31.6103 15.4956 31.7578C15.4412 31.9053 15.3305 32.0252 15.1878 32.091L5.38206 36.6166C0.913333 38.8617 1.18418 47.2989 1.18774 47.3837C1.19076 47.4615 1.1784 47.5391 1.1514 47.6121C1.12441 47.6851 1.0833 47.7521 1.0304 47.8093C0.977512 47.8664 0.913883 47.9125 0.843151 47.9451C0.772419 47.9776 0.695984 47.9959 0.618187 47.9989L0.596247 48Z" fill="currentColor"/>
<path d="M27.7696 39.6956C27.7212 39.6955 27.673 39.6896 27.6261 39.6778C25.5967 39.1827 23.7176 38.2029 22.1499 36.8223C21.4972 36.256 20.9292 35.5989 20.4631 34.8713C20.4194 34.8038 20.3898 34.7282 20.3761 34.649C20.3625 34.5697 20.3652 34.4886 20.3839 34.4104C20.4027 34.3322 20.4371 34.2587 20.4852 34.1942C20.5333 34.1298 20.5939 34.0758 20.6635 34.0355C20.7331 33.9953 20.8102 33.9696 20.89 33.9601C20.9698 33.9505 21.0508 33.9574 21.1279 33.9801C21.205 34.0028 21.2767 34.041 21.3385 34.0923C21.4004 34.1437 21.4512 34.207 21.4879 34.2786C21.9038 34.912 22.4063 35.4842 22.9808 35.9784C24.1699 37.0227 25.5622 37.8096 27.0702 38.2898L26.4278 33.1371C26.4181 33.0599 26.4238 32.9815 26.4444 32.9064C26.465 32.8314 26.5003 32.7611 26.5481 32.6997C26.5959 32.6382 26.6553 32.5868 26.723 32.5483C26.7907 32.5098 26.8652 32.485 26.9425 32.4754C27.0197 32.4657 27.0981 32.4714 27.1732 32.492C27.2483 32.5127 27.3185 32.5479 27.3799 32.5957C27.4414 32.6435 27.4928 32.7029 27.5313 32.7706C27.5698 32.8383 27.5946 32.9129 27.6042 32.9901L28.3593 39.0294C28.3697 39.1128 28.3623 39.1974 28.3375 39.2777C28.3127 39.358 28.2711 39.4321 28.2155 39.4951C28.1599 39.5581 28.0916 39.6085 28.015 39.6431C27.9384 39.6777 27.8554 39.6956 27.7713 39.6956H27.7696Z" fill="currentColor"/>
<path d="M11.1606 39.6956C11.0765 39.6956 10.9935 39.6777 10.9169 39.6431C10.8403 39.6085 10.772 39.5581 10.7164 39.4951C10.6608 39.4321 10.6192 39.358 10.5944 39.2777C10.5696 39.1974 10.5622 39.1128 10.5726 39.0294L11.3277 32.9901C11.3472 32.8341 11.4278 32.6923 11.5519 32.5957C11.676 32.4992 11.8334 32.4559 11.9894 32.4754C12.1454 32.4949 12.2873 32.5756 12.3838 32.6997C12.4804 32.8238 12.5236 32.9811 12.5041 33.1371L11.8605 38.2868C14.1231 37.6233 16.092 36.2088 17.4429 34.2762C17.4795 34.2047 17.5303 34.1413 17.5922 34.09C17.654 34.0387 17.7257 34.0005 17.8028 33.9777C17.8799 33.955 17.9609 33.9482 18.0407 33.9577C18.1205 33.9672 18.1976 33.9929 18.2672 34.0332C18.3368 34.0734 18.3974 34.1274 18.4455 34.1918C18.4936 34.2563 18.528 34.3298 18.5468 34.408C18.5655 34.4862 18.5682 34.5674 18.5546 34.6466C18.5409 34.7258 18.5114 34.8015 18.4676 34.8689C18.0015 35.5966 17.4335 36.2536 16.7808 36.82C15.2158 38.2045 13.3357 39.1848 11.3046 39.6754C11.2576 39.688 11.2092 39.6948 11.1606 39.6956Z" fill="currentColor"/>
<path d="M22.4853 47.9993C22.3281 47.9993 22.1773 47.9369 22.0662 47.8257C21.9551 47.7146 21.8926 47.5638 21.8926 47.4067C21.8926 45.0739 20.4163 39.3078 20.4015 39.2498C20.3759 39.15 20.3767 39.0452 20.404 38.9459C20.4312 38.8465 20.4838 38.756 20.5567 38.6832C20.8553 38.3724 21.0626 37.9854 21.156 37.5647C21.2493 37.1439 21.2251 36.7056 21.086 36.2977C20.9569 35.8055 20.7541 35.3358 20.4844 34.9043C20.3964 34.7741 20.3637 34.6142 20.3936 34.4599C20.4234 34.3056 20.5133 34.1694 20.6436 34.0814C20.7738 33.9934 20.9337 33.9607 21.088 33.9905C21.2423 34.0204 21.3785 34.1103 21.4665 34.2405C21.8144 34.7854 22.0744 35.3816 22.237 36.0073C22.4089 36.559 22.4434 37.1444 22.3375 37.7125C22.2317 38.2806 21.9886 38.8142 21.6295 39.2669C21.9448 40.5299 23.0797 45.2256 23.0797 47.4084C23.0795 47.4863 23.0639 47.5633 23.0339 47.6351C23.0039 47.7069 22.9601 47.7721 22.9049 47.827C22.8497 47.8819 22.7842 47.9253 22.7122 47.9549C22.6402 47.9845 22.5631 47.9996 22.4853 47.9993Z" fill="currentColor"/>
<path d="M16.4454 47.9993C16.2882 47.9993 16.1375 47.9368 16.0264 47.8257C15.9152 47.7145 15.8528 47.5638 15.8528 47.4066C15.8528 45.2238 16.9877 40.5275 17.303 39.2645C16.9441 38.8117 16.7012 38.278 16.5954 37.7099C16.4896 37.1418 16.5242 36.5565 16.6961 36.0048C16.8587 35.3791 17.1187 34.7829 17.4666 34.2381C17.5546 34.1078 17.6908 34.0179 17.8451 33.9881C17.9994 33.9582 18.1593 33.9909 18.2895 34.0789C18.4197 34.167 18.5097 34.3031 18.5395 34.4574C18.5694 34.6118 18.5367 34.7716 18.4486 34.9019C18.1735 35.3417 17.9682 35.8215 17.84 36.3243C17.7065 36.7287 17.6859 37.1619 17.7804 37.5771C17.8749 37.9924 18.0809 38.3739 18.3763 38.6807C18.4491 38.7536 18.5017 38.8442 18.5288 38.9435C18.5559 39.0429 18.5567 39.1476 18.531 39.2473C18.5162 39.3066 17.0399 45.0721 17.0399 47.4042C17.0402 47.4824 17.025 47.5599 16.9953 47.6322C16.9655 47.7045 16.9218 47.7702 16.8665 47.8255C16.8112 47.8808 16.7456 47.9246 16.6733 47.9544C16.601 47.9843 16.5236 47.9995 16.4454 47.9993Z" fill="currentColor"/>
<path d="M16.4448 29.8821C16.3647 29.882 16.2854 29.8657 16.2118 29.8341C15.239 29.4423 14.3547 28.8595 13.6111 28.12C12.8674 27.3806 12.2796 26.4995 11.8824 25.5289C11.2193 23.7203 10.8098 21.8285 10.6656 19.9075V19.8927C10.4149 17.8497 10.3053 15.4832 11.3893 13.4219C12.4114 11.5952 14.098 10.2325 16.0986 9.61696C18.2846 8.885 20.6495 8.885 22.8355 9.61696C24.8363 10.2327 26.5229 11.5956 27.5449 13.4225C28.6288 15.4832 28.5186 17.8497 28.2685 19.8927V19.9075C28.1243 21.8285 27.7149 23.7203 27.0518 25.5289C26.6545 26.4995 26.0667 27.3806 25.323 28.12C24.5794 28.8595 23.6951 29.4423 22.7223 29.8341C22.5783 29.8934 22.4168 29.8937 22.2726 29.8348C22.1284 29.776 22.0132 29.6628 21.9518 29.5196C21.8905 29.3765 21.8879 29.215 21.9447 29.07C22.0015 28.925 22.113 28.8082 22.2553 28.7448C26.1983 27.0551 26.6321 23.5133 27.092 19.7635V19.7486C27.3202 17.8877 27.4281 15.7458 26.4958 13.9743C25.6147 12.4177 24.1684 11.2599 22.4568 10.7407C20.5167 10.0917 18.4181 10.0917 16.4779 10.7407C14.7663 11.2599 13.3201 12.4177 12.4389 13.9743C11.5072 15.7463 11.6145 17.8859 11.8427 19.7492V19.764C12.3026 23.5139 12.7364 27.0539 16.6794 28.7454C16.8049 28.7992 16.9079 28.8946 16.9711 29.0155C17.0343 29.1365 17.0538 29.2755 17.0263 29.4092C16.9989 29.5429 16.9262 29.663 16.8204 29.7493C16.7147 29.8355 16.5824 29.8827 16.4459 29.8827L16.4448 29.8821Z" fill="currentColor"/>
<path d="M19.465 35.1658C18.1076 35.1624 16.8068 34.6216 15.8469 33.6619C14.887 32.7021 14.3462 31.4013 14.3426 30.044V28.5338C14.3426 28.3766 14.405 28.2259 14.5162 28.1148C14.6273 28.0036 14.778 27.9412 14.9352 27.9412C15.0924 27.9412 15.2432 28.0036 15.3543 28.1148C15.4654 28.2259 15.5279 28.3766 15.5279 28.5338V30.044C15.5406 31.0797 15.961 32.0687 16.6979 32.7966C17.4348 33.5246 18.4289 33.9327 19.4647 33.9327C20.5005 33.9327 21.4946 33.5246 22.2315 32.7966C22.9684 32.0687 23.3888 31.0797 23.4015 30.044V28.5338C23.4015 28.3766 23.4639 28.2259 23.5751 28.1148C23.6862 28.0036 23.837 27.9412 23.9942 27.9412C24.1514 27.9412 24.3021 28.0036 24.4133 28.1148C24.5244 28.2259 24.5868 28.3766 24.5868 28.5338V30.044C24.5834 31.4014 24.0426 32.7024 23.0827 33.6623C22.1228 34.6222 20.8219 35.163 19.4644 35.1664L19.465 35.1658Z" fill="currentColor"/>
<path d="M33.8082 28.3714C32.749 28.3716 31.6931 28.2539 30.66 28.0205C30.5066 27.9858 30.3734 27.8916 30.2895 27.7586C30.2057 27.6256 30.1781 27.4647 30.2128 27.3114C30.2475 27.1581 30.3418 27.0248 30.4747 26.941C30.6077 26.8571 30.7686 26.8295 30.9219 26.8642C31.8691 27.078 32.8372 27.1858 33.8082 27.1855C36.8064 27.1834 39.7117 26.1451 42.032 24.2464C44.3523 22.3477 45.945 19.7053 46.5402 16.7668C47.1355 13.8283 46.6967 10.7744 45.2983 8.12239C43.8998 5.47035 41.6277 3.38322 38.8666 2.21453C37.1346 1.48578 35.2654 1.14024 33.3873 1.20162C31.5092 1.263 29.6666 1.72984 27.9858 2.57014C26.2419 3.44932 24.7162 4.70672 23.5201 6.25061C23.4232 6.37487 23.281 6.45557 23.1247 6.47496C22.9684 6.49436 22.8107 6.45086 22.6865 6.35403C22.5622 6.25721 22.4815 6.11498 22.4621 5.95866C22.4427 5.80233 22.4862 5.6447 22.5831 5.52044C23.8881 3.83624 25.5527 2.46463 27.4554 1.5057C29.6177 0.420711 32.0218 -0.0928845 34.4387 0.0137909C36.8556 0.120466 39.205 0.843863 41.2634 2.11514C43.3217 3.38642 45.0205 5.16328 46.1981 7.27664C47.3756 9.39 47.9928 11.7695 47.9908 14.1888C47.9924 16.0518 47.6267 17.8967 46.9145 19.6182C46.2024 21.3396 45.1578 22.9038 43.8405 24.2211C42.5232 25.5384 40.959 26.583 39.2376 27.2951C37.5161 28.0073 35.6712 28.373 33.8082 28.3714Z" fill="currentColor"/>
<path d="M34.5639 9.49844C34.4067 9.49844 34.2559 9.436 34.1448 9.32485C34.0336 9.2137 33.9712 9.06295 33.9712 8.90577V7.39565C33.9712 7.23846 34.0336 7.08771 34.1448 6.97657C34.2559 6.86542 34.4067 6.80298 34.5639 6.80298C34.721 6.80298 34.8718 6.86542 34.9829 6.97657C35.0941 7.08771 35.1565 7.23846 35.1565 7.39565V8.90577C35.1565 9.06295 35.0941 9.2137 34.9829 9.32485C34.8718 9.436 34.721 9.49844 34.5639 9.49844Z" fill="currentColor"/>
<path d="M34.5639 21.5775C34.4067 21.5775 34.2559 21.5151 34.1448 21.404C34.0336 21.2928 33.9712 21.1421 33.9712 20.9849V19.4747C33.9712 19.3176 34.0336 19.1668 34.1448 19.0557C34.2559 18.9445 34.4067 18.8821 34.5639 18.8821C34.721 18.8821 34.8718 18.9445 34.9829 19.0557C35.0941 19.1668 35.1565 19.3176 35.1565 19.4747V20.9849C35.1565 21.1421 35.0941 21.2928 34.9829 21.404C34.8718 21.5151 34.721 21.5775 34.5639 21.5775Z" fill="currentColor"/>
<path d="M35.6964 20.0674H33.4319C32.5741 20.0666 31.7517 19.7256 31.1452 19.1191C30.5386 18.5127 30.1974 17.6904 30.1965 16.8326C30.1965 16.6754 30.2589 16.5247 30.3701 16.4135C30.4812 16.3024 30.632 16.24 30.7891 16.24C30.9463 16.24 31.0971 16.3024 31.2082 16.4135C31.3194 16.5247 31.3818 16.6754 31.3818 16.8326C31.3824 17.376 31.5986 17.8969 31.9828 18.2811C32.367 18.6653 32.8879 18.8814 33.4313 18.8821H35.6958C36.2394 18.8821 36.7607 18.6662 37.145 18.2818C37.5294 17.8975 37.7453 17.3762 37.7453 16.8326C37.7453 16.2891 37.5294 15.7678 37.145 15.3834C36.7607 14.9991 36.2394 14.7832 35.6958 14.7832H33.4313C33.0065 14.7832 32.5858 14.6995 32.1934 14.5369C31.8009 14.3744 31.4443 14.1361 31.1439 13.8357C30.8435 13.5353 30.6053 13.1787 30.4427 12.7863C30.2801 12.3938 30.1965 11.9732 30.1965 11.5484C30.1965 11.1236 30.2801 10.7029 30.4427 10.3105C30.6053 9.91802 30.8435 9.56142 31.1439 9.26105C31.4443 8.96067 31.8009 8.7224 32.1934 8.55983C32.5858 8.39727 33.0065 8.3136 33.4313 8.3136H35.6958C36.306 8.31688 36.9031 8.49138 37.419 8.81723C37.9349 9.14309 38.349 9.60721 38.6142 10.1568C38.6723 10.2968 38.6746 10.4538 38.6205 10.5955C38.5665 10.7371 38.4602 10.8527 38.3235 10.9183C38.1869 10.984 38.0302 10.9948 37.8859 10.9485C37.7415 10.9022 37.6203 10.8024 37.5474 10.6695C37.3797 10.3203 37.1173 10.0254 36.79 9.81826C36.4627 9.61118 36.0837 9.50032 35.6964 9.49834H33.4319C32.8883 9.49834 32.367 9.71427 31.9827 10.0986C31.5983 10.483 31.3824 11.0042 31.3824 11.5478C31.3824 12.0913 31.5983 12.6126 31.9827 12.997C32.367 13.3813 32.8883 13.5972 33.4319 13.5972H35.6964C36.5544 13.5972 37.3771 13.9381 37.9838 14.5447C38.5904 15.1513 38.9312 15.9741 38.9312 16.832C38.9312 17.69 38.5904 18.5127 37.9838 19.1194C37.3771 19.726 36.5544 20.0674 35.6964 20.0674Z" fill="currentColor"/>
</svg>
