<svg width="48" height="48" viewBox="0 0 48 48" fill="none" xmlns="http://www.w3.org/2000/svg">
<path d="M0.589762 29.8777C0.495396 29.8778 0.402399 29.8552 0.318589 29.8118C0.234778 29.7684 0.162604 29.7056 0.108132 29.6285C0.0536606 29.5514 0.0184806 29.4624 0.00555561 29.369C-0.00736939 29.2755 0.00233605 29.1803 0.0338545 29.0913L2.25277 22.8189C1.03241 20.8557 0.284453 18.636 0.0677754 16.3345C-0.148902 14.0331 0.17162 11.7127 1.0041 9.55623C1.83659 7.39971 3.15831 5.46588 4.8652 3.90699C6.57208 2.3481 8.61755 1.20671 10.8405 0.572703C13.0635 -0.0613086 15.4033 -0.170631 17.6757 0.253328C19.9481 0.677287 22.0911 1.62296 23.9359 3.01589C25.7807 4.40882 27.277 6.21097 28.307 8.28047C29.3369 10.35 29.8724 12.6303 29.8713 14.9419C29.8713 15.0983 29.8092 15.2482 29.6986 15.3588C29.5881 15.4693 29.4381 15.5314 29.2818 15.5314C29.1254 15.5314 28.9755 15.4693 28.8649 15.3588C28.7544 15.2482 28.6923 15.0983 28.6923 14.9419C28.6943 12.8008 28.1964 10.6888 27.2384 8.77391C26.2804 6.85906 24.8886 5.19426 23.1739 3.91203C21.4591 2.62979 19.4688 1.76551 17.3612 1.38796C15.2536 1.01042 13.087 1.13004 11.0338 1.7373C8.9806 2.34457 7.09748 3.42271 5.53433 4.88592C3.97117 6.34913 2.77114 8.15701 2.02974 10.1657C1.28833 12.1744 1.02603 14.3284 1.26371 16.4562C1.50138 18.5841 2.23246 20.6272 3.39878 22.4228C3.44769 22.4988 3.47845 22.5851 3.48867 22.675C3.49889 22.7649 3.4883 22.8559 3.45773 22.941L1.55479 28.3191L6.93171 26.4138C7.01712 26.3835 7.10835 26.3734 7.19832 26.3841C7.28829 26.3948 7.37458 26.4262 7.45047 26.4757C9.67524 27.9285 12.2754 28.7008 14.9325 28.6981C15.0889 28.6981 15.2388 28.7602 15.3494 28.8708C15.4599 28.9813 15.522 29.1313 15.522 29.2876C15.522 29.444 15.4599 29.5939 15.3494 29.7045C15.2388 29.815 15.0889 29.8771 14.9325 29.8771C12.1466 29.88 9.41612 29.0984 7.05373 27.6217L0.783123 29.8435C0.721035 29.8657 0.655674 29.8772 0.589762 29.8777Z" fill="currentColor"/>
<path d="M14.9361 8.99927C15.6386 9.00741 16.3307 9.17094 16.9626 9.47813C17.5945 9.78533 18.1506 10.2286 18.591 10.776C19.5556 11.9486 20.0745 13.4245 20.056 14.9427C20.0742 16.4611 19.5548 17.9369 18.5898 19.1094C18.1495 19.6568 17.5934 20.1001 16.9614 20.4073C16.3295 20.7145 15.6375 20.878 14.9349 20.8861C14.2323 20.878 13.5402 20.7145 12.9083 20.4073C12.2764 20.1001 11.7203 19.6568 11.2799 19.1094C10.3158 17.9366 9.79731 16.4608 9.81617 14.9427C9.79797 13.4243 10.3173 11.9485 11.2823 10.776C11.7225 10.2287 12.2785 9.78557 12.9101 9.47838C13.5418 9.1712 14.2337 9.00758 14.9361 8.99927ZM14.9361 19.7077C17.109 19.7077 18.8769 17.5701 18.8769 14.9433C18.8769 12.3164 17.109 10.1783 14.9361 10.1783C12.7631 10.1783 10.9952 12.3158 10.9952 14.9427C10.9952 17.5696 12.7637 19.7077 14.9361 19.7077Z" fill="currentColor"/>
<path d="M18.7119 21.5722C18.6723 21.5722 18.6328 21.5683 18.594 21.5604L15.5734 20.9567C15.4974 20.9413 15.4252 20.9111 15.3609 20.8677C15.2966 20.8244 15.2415 20.7688 15.1987 20.7041C15.156 20.6395 15.1264 20.567 15.1117 20.4909C15.097 20.4147 15.0974 20.3365 15.113 20.2605C15.1284 20.1845 15.1586 20.1123 15.202 20.048C15.2453 19.9838 15.3009 19.9286 15.3656 19.8859C15.4302 19.8431 15.5027 19.8135 15.5788 19.7988C15.655 19.7841 15.7332 19.7845 15.8092 19.8001L18.8269 20.4044C18.9708 20.4328 19.099 20.5139 19.1863 20.6318C19.2736 20.7497 19.3138 20.8959 19.2991 21.0419C19.2844 21.1879 19.2157 21.3231 19.1066 21.4212C18.9975 21.5192 18.8557 21.5731 18.709 21.5722H18.7119Z" fill="currentColor"/>
<path d="M47.4033 47.9995C47.3363 47.9995 47.2697 47.9882 47.2064 47.9659L40.9358 45.744C37.8191 47.6824 34.0983 48.407 30.4819 47.7797C26.8656 47.1524 23.6062 45.2171 21.3244 42.3422C19.0425 39.4673 17.8976 35.8537 18.1076 32.1893C18.3177 28.525 19.8679 25.0658 22.4633 22.4705C25.0586 19.8751 28.5178 18.3249 32.1821 18.1148C35.8465 17.9048 39.4601 19.0497 42.335 21.3316C45.2099 23.6134 47.1452 26.8728 47.7725 30.4891C48.3998 34.1055 47.6752 37.8263 45.7368 40.943L47.9587 47.2136C47.9902 47.3026 47.9999 47.3978 47.987 47.4913C47.974 47.5848 47.9389 47.6738 47.8844 47.7508C47.8299 47.8279 47.7577 47.8907 47.6739 47.9341C47.5901 47.9775 47.4971 48.0001 47.4027 48L47.4033 47.9995ZM33.0576 19.3074C30.916 19.3048 28.8034 19.8022 26.888 20.76C24.9725 21.7178 23.3071 23.1096 22.0244 24.8246C20.7417 26.5395 19.8771 28.5303 19.4995 30.6383C19.1218 32.7463 19.2415 34.9134 19.8491 36.967C20.4566 39.0206 21.5353 40.9039 22.9991 42.4672C24.4629 44.0304 26.2714 45.2303 28.2807 45.9713C30.29 46.7123 32.4446 46.9739 34.5728 46.7354C36.7011 46.4969 38.7443 45.7648 40.5397 44.5974C40.6156 44.5479 40.7019 44.5166 40.7918 44.5058C40.8818 44.4951 40.973 44.5053 41.0585 44.5355L46.4348 46.4408L44.5295 41.0645C44.4992 40.9791 44.4891 40.8878 44.4998 40.7979C44.5106 40.7079 44.5419 40.6216 44.5914 40.5457C45.9405 38.4704 46.7042 36.0693 46.8018 33.5959C46.8995 31.1226 46.3275 28.6687 45.1462 26.4935C43.9649 24.3183 42.2182 22.5024 40.0904 21.2375C37.9627 19.9727 35.5329 19.3059 33.0576 19.3074Z" fill="currentColor"/>
<path d="M29.2835 39.4137C29.2235 39.4135 29.1638 39.4042 29.1066 39.386C28.9576 39.3391 28.8333 39.2349 28.761 39.0964C28.6887 38.9579 28.6744 38.7964 28.7211 38.6473L32.2581 27.4466C32.2814 27.3728 32.3189 27.3042 32.3686 27.2449C32.4183 27.1855 32.4793 27.1366 32.5479 27.1008C32.6166 27.0649 32.6916 27.043 32.7687 27.0362C32.8458 27.0294 32.9235 27.0379 32.9974 27.0611C33.0712 27.0843 33.1398 27.1219 33.1992 27.1716C33.2585 27.2213 33.3075 27.2822 33.3433 27.3509C33.3791 27.4195 33.401 27.4945 33.4078 27.5717C33.4146 27.6488 33.4062 27.7265 33.3829 27.8003L29.8459 39.001C29.8082 39.1207 29.7334 39.2252 29.6323 39.2995C29.5311 39.3737 29.4089 39.4137 29.2835 39.4137Z" fill="currentColor"/>
<path d="M36.9472 39.4137C36.8266 39.4136 36.7089 39.3766 36.61 39.3075C36.5111 39.2385 36.4358 39.1408 36.3942 39.0276L32.2676 27.8269C32.2138 27.6803 32.2202 27.5183 32.2857 27.3765C32.3511 27.2347 32.4701 27.1247 32.6166 27.0706C32.7633 27.0165 32.9254 27.0229 33.0673 27.0883C33.2093 27.1538 33.3194 27.2729 33.3736 27.4196L37.5001 38.6202C37.533 38.7093 37.5438 38.8051 37.5317 38.8993C37.5196 38.9935 37.485 39.0833 37.4307 39.1613C37.3764 39.2392 37.3041 39.3028 37.2199 39.3468C37.1357 39.3907 37.0421 39.4137 36.9472 39.4137Z" fill="currentColor"/>
<path d="M35.1786 35.2872H31.052C30.8957 35.2872 30.7457 35.2251 30.6352 35.1145C30.5246 35.004 30.4625 34.854 30.4625 34.6977C30.4625 34.5413 30.5246 34.3914 30.6352 34.2808C30.7457 34.1703 30.8957 34.1082 31.052 34.1082H35.1786C35.3349 34.1082 35.4849 34.1703 35.5954 34.2808C35.706 34.3914 35.7681 34.5413 35.7681 34.6977C35.7681 34.854 35.706 35.004 35.5954 35.1145C35.4849 35.2251 35.3349 35.2872 35.1786 35.2872Z" fill="currentColor"/>
</svg>
