<svg width="48" height="48" viewBox="0 0 48 48" fill="none" xmlns="http://www.w3.org/2000/svg">
<path d="M24.5075 36.0608C22.4068 36.0608 20.3463 35.4858 18.5497 34.3982C16.7531 33.3106 15.2891 31.7521 14.3168 29.8918C13.3444 28.0315 12.9008 25.9407 13.0341 23.8463C13.1675 21.7519 13.8727 19.734 15.0731 18.0118C15.1658 17.8792 15.3074 17.7888 15.4668 17.7605C15.6262 17.7322 15.7903 17.7683 15.923 17.8609C16.0558 17.9535 16.1463 18.095 16.1746 18.2542C16.2029 18.4135 16.1668 18.5774 16.0741 18.71C14.6316 20.7827 14.0052 23.3141 14.3149 25.8194C14.6246 28.3247 15.8486 30.6279 17.7525 32.2876C19.6564 33.9474 22.1063 34.8472 24.6329 34.8145C27.1596 34.7819 29.5853 33.8192 31.4456 32.1108C33.3059 30.4024 34.4699 28.0684 34.7147 25.5559C34.9594 23.0434 34.2677 20.529 32.7721 18.4944C31.2765 16.4597 29.082 15.0478 26.6091 14.529C24.1361 14.0103 21.5586 14.4213 19.3701 15.6832C19.2303 15.7583 19.0668 15.7761 18.9141 15.7328C18.7615 15.6895 18.6317 15.5885 18.5523 15.4512C18.4729 15.314 18.4502 15.1512 18.4889 14.9975C18.5276 14.8437 18.6248 14.7111 18.7597 14.6277C20.287 13.7454 21.9971 13.2261 23.7576 13.1099C25.518 12.9938 27.2816 13.2839 28.9118 13.9579C30.542 14.6318 31.9951 15.6715 33.1586 16.9964C34.3221 18.3214 35.1648 19.896 35.6215 21.5985C36.0781 23.301 36.1365 25.0856 35.7921 26.8142C35.4476 28.5429 34.7096 30.1691 33.6352 31.5671C32.5607 32.9651 31.1787 34.0973 29.596 34.8762C28.0133 35.655 26.2724 36.0595 24.5081 36.0584L24.5075 36.0608Z" fill="currentColor"/>
<path d="M8.48546 22.0794H0.611758C0.524995 22.0794 0.439223 22.061 0.360165 22.0253C0.281107 21.9896 0.210573 21.9374 0.153276 21.8723C0.0959788 21.8073 0.0532293 21.7307 0.02788 21.6478C0.00253077 21.5649 -0.0048328 21.4776 0.00627287 21.3916C0.723514 15.8523 3.30156 10.7203 7.31853 6.83532C11.3355 2.95036 16.5535 0.542573 22.1186 0.00598699C22.2037 -0.00256168 22.2897 0.0068658 22.3709 0.0336577C22.4522 0.0604496 22.5269 0.104007 22.5902 0.161505C22.6535 0.219002 22.704 0.289155 22.7384 0.36741C22.7728 0.445665 22.7904 0.530276 22.79 0.61575V8.44999C22.79 8.59672 22.7371 8.73854 22.6409 8.84943C22.5447 8.96031 22.4117 9.03282 22.2663 9.05366C19.039 9.51594 16.036 10.971 13.6745 13.2166C11.313 15.4622 9.71034 18.3869 9.08911 21.5843C9.06229 21.7243 8.98722 21.8505 8.87695 21.9409C8.76667 22.0314 8.62815 22.0804 8.48546 22.0794ZM1.31733 20.8599H7.98924C8.7243 17.6081 10.4052 14.646 12.8207 12.3459C15.2362 10.0458 18.2785 8.5105 21.565 7.93291V1.2932C16.5257 1.92803 11.8283 4.1782 8.17764 7.70611C4.52695 11.234 2.1198 15.8494 1.31733 20.8599Z" fill="currentColor"/>
<path d="M0.612947 25.9204H8.48665C8.62852 25.9204 8.76595 25.9698 8.87533 26.06C8.98471 26.1503 9.05922 26.2758 9.08603 26.4149C9.39505 28.0168 9.95448 29.5601 10.7438 30.9882C11.5177 32.3895 12.5016 33.6644 13.6613 34.7687C14.8221 35.8754 16.1457 36.7981 17.586 37.5047C19.0596 38.2278 20.638 38.7145 22.2632 38.9468C22.4086 38.9676 22.5416 39.0401 22.6378 39.151C22.734 39.2619 22.7869 39.4037 22.7869 39.5505V47.3871C22.7873 47.4726 22.7698 47.5572 22.7353 47.6355C22.7009 47.7137 22.6504 47.7839 22.5871 47.8414C22.5238 47.8989 22.4491 47.9424 22.3679 47.9692C22.2866 47.996 22.2006 48.0054 22.1155 47.9969C19.3122 47.7297 16.576 46.9819 14.0269 45.7865C11.545 44.6235 9.27433 43.0557 7.30804 41.1474C5.34072 39.2428 3.704 37.0248 2.46479 34.5839C1.19419 32.0855 0.362197 29.3878 0.00502165 26.6082C-0.00608402 26.5223 0.00127955 26.4349 0.0266288 26.352C0.0519781 26.2691 0.0947276 26.1926 0.152025 26.1275C0.209322 26.0624 0.279855 26.0103 0.358913 25.9746C0.437972 25.9389 0.523734 25.9204 0.610497 25.9204H0.612947ZM7.9892 27.1399H1.3173C1.69869 29.5394 2.45392 31.8643 3.55552 34.0303C4.7337 36.3498 6.28956 38.4576 8.1595 40.2675C10.0288 42.0818 12.1875 43.5723 14.547 44.678C16.7653 45.7184 19.1342 46.4025 21.5662 46.7048V40.0688C19.9986 39.794 18.4779 39.2986 17.0495 38.5974C15.4976 37.836 14.0715 36.8417 12.8209 35.6492C11.5712 34.4595 10.5109 33.0859 9.67686 31.576C8.9066 30.1847 8.33835 28.6911 7.9892 27.1399Z" fill="currentColor"/>
<path d="M47.3882 22.0795H39.5145C39.3727 22.0795 39.2352 22.0302 39.1259 21.9399C39.0165 21.8497 38.942 21.7242 38.9152 21.585C38.2927 18.3882 36.6896 15.4643 34.3284 13.219C31.9671 10.9737 28.9647 9.51836 25.738 9.055C25.5926 9.03416 25.4596 8.96165 25.3634 8.85076C25.2672 8.73988 25.2143 8.59806 25.2143 8.45133V0.612821C25.2139 0.527346 25.2314 0.442736 25.2659 0.36448C25.3003 0.286225 25.3508 0.216072 25.4141 0.158575C25.4774 0.101078 25.5521 0.05752 25.6333 0.030728C25.7146 0.00393611 25.8006 -0.00549137 25.8857 0.00305731C31.4497 0.54179 36.6662 2.95036 40.6822 6.83498C44.6983 10.7196 47.2764 15.8505 47.995 21.3887C48.0061 21.4746 47.9987 21.562 47.9734 21.6449C47.948 21.7278 47.9053 21.8043 47.848 21.8694C47.7907 21.9345 47.7201 21.9866 47.6411 22.0223C47.562 22.0581 47.4762 22.0765 47.3895 22.0765L47.3882 22.0795ZM40.012 20.86H46.6839C45.8829 15.8489 43.4763 11.2327 39.8253 7.70448C36.1743 4.17629 31.4761 1.92663 26.4363 1.29332V7.9312C29.7232 8.50781 32.7659 10.0428 35.1816 12.343C37.5973 14.6433 39.2779 17.6059 40.012 20.8582V20.86Z" fill="currentColor"/>
<path d="M39.5158 25.9204H47.3895C47.4762 25.9204 47.562 25.9389 47.6411 25.9746C47.7201 26.0103 47.7907 26.0624 47.848 26.1275C47.9053 26.1926 47.948 26.2691 47.9734 26.352C47.9987 26.4349 48.0061 26.5223 47.995 26.6082C47.6378 29.3878 46.8058 32.0855 45.5352 34.5839C44.2959 37.0236 42.6594 39.2406 40.6926 41.1444C38.7263 43.0527 36.4556 44.6205 33.9737 45.7835C31.4246 46.9789 28.6884 47.7266 25.8851 47.9938C25.8 48.0024 25.714 47.993 25.6327 47.9662C25.5515 47.9394 25.4768 47.8958 25.4135 47.8383C25.3502 47.7808 25.2997 47.7107 25.2652 47.6324C25.2308 47.5542 25.2133 47.4696 25.2137 47.3841V39.5505C25.2137 39.4037 25.2666 39.2619 25.3628 39.151C25.459 39.0401 25.592 38.9676 25.7374 38.9468C27.3626 38.7145 28.941 38.2278 30.4146 37.5047C31.8549 36.7981 33.1785 35.8754 34.3393 34.7687C35.499 33.6644 36.4829 32.3895 37.2568 30.9882C38.0461 29.5601 38.6055 28.0168 38.9146 26.4149C38.9414 26.2755 39.0162 26.1497 39.126 26.0594C39.2357 25.9692 39.3736 25.92 39.5158 25.9204ZM46.6839 27.1399H40.012C39.664 28.6909 39.097 30.1845 38.328 31.576C37.4942 33.0853 36.4344 34.4585 35.1852 35.648C33.9346 36.8405 32.5085 37.8348 30.9566 38.5962C29.5282 39.2974 28.0075 39.7928 26.4399 40.0675V46.7066C28.8719 46.4043 31.2408 45.7203 33.4591 44.6798C35.8186 43.5741 37.9773 42.0836 39.8466 40.2694C41.7165 38.4594 43.2724 36.3516 44.4506 34.0321C45.5507 31.8653 46.3042 29.5397 46.6839 27.1399Z" fill="currentColor"/>
<mask id="mask0_149_1107" style="mask-type:luminance" maskUnits="userSpaceOnUse" x="19" y="16" width="11" height="16">
<path d="M29.9502 16.4666H19.118V31.6247H29.9502V16.4666Z" fill="white"/>
</mask>
<g mask="url(#mask0_149_1107)">
<path d="M28.865 29.4509V29.6912C28.865 30.2192 28.865 30.7467 28.865 31.2766C28.865 31.5308 28.7746 31.6266 28.5268 31.6266C25.5059 31.6266 22.4852 31.6266 19.4647 31.6266C19.2114 31.6266 19.1217 31.5351 19.1217 31.2821C19.1217 29.056 19.1217 26.83 19.1217 24.6039C19.1217 24.1771 19.1174 23.7503 19.118 23.3234C19.118 23.0637 19.1968 22.9838 19.4568 22.9789C19.7009 22.9746 19.9414 22.9789 20.2082 22.9789V22.7106C20.2082 21.8984 20.2051 21.0868 20.2082 20.2746C20.2269 19.2978 20.6235 18.3661 21.3147 17.675C22.006 16.9838 22.9382 16.5868 23.916 16.5673C24.8938 16.5477 25.8412 16.9071 26.5595 17.5701C27.2779 18.233 27.7115 19.1481 27.7694 20.1234C27.7864 20.9825 27.7755 21.8417 27.7773 22.7009C27.7773 22.7807 27.7773 22.8606 27.7773 22.9789C28.0214 22.9789 28.2522 22.9789 28.4804 22.9789C28.796 22.9789 28.8644 23.0472 28.8656 23.357C28.8656 23.7618 28.8656 24.1667 28.8656 24.5942C29.1024 24.5942 29.3246 24.5942 29.5461 24.5942C29.8769 24.5942 29.9416 24.6472 29.9441 24.982C29.9514 25.9631 29.9477 26.9442 29.9477 27.9253C29.9477 28.3247 29.9477 28.7241 29.9477 29.1229C29.9477 29.3668 29.8617 29.4503 29.6163 29.4528C29.371 29.4552 29.1323 29.4528 28.8644 29.4528M28.326 29.4528H28.0965C27.7376 29.4528 27.3787 29.4528 27.0198 29.4528C26.8062 29.4528 26.7146 29.3686 26.7146 29.1631C26.7122 27.7403 26.7122 26.3194 26.7146 24.9003C26.7146 24.6948 26.8056 24.6058 27.0149 24.6015C27.3397 24.5954 27.665 24.6015 27.9915 24.5984H28.3278V23.5131H19.6582V31.0814H28.3254L28.326 29.4528ZM26.1531 22.9655C26.1594 22.9292 26.1636 22.8925 26.1659 22.8557C26.1659 21.9563 26.1855 21.0557 26.1549 20.1575C26.1352 19.595 25.8966 19.0624 25.49 18.6728C25.0834 18.2832 24.5407 18.0673 23.9773 18.0712C23.4139 18.075 22.8741 18.2981 22.4728 18.6932C22.0715 19.0882 21.8402 19.6241 21.8281 20.1868C21.8067 21.0655 21.8207 21.9454 21.8207 22.8246C21.8242 22.872 21.8309 22.9191 21.8409 22.9655H26.1531ZM29.4039 26.2174H27.2548V26.7527H29.4039V26.2174ZM27.2487 27.8302H29.4064V27.3027H27.2487V27.8302ZM29.4003 25.1405H27.2542V25.6661H29.4003V25.1405ZM27.256 28.9137H29.4003V28.382H27.256V28.9137Z" fill="currentColor"/>
</g>
</svg>
