<svg width="48" height="48" viewBox="0 0 48 48" fill="none" xmlns="http://www.w3.org/2000/svg">
<path d="M16.7777 3.24291e-05H31.221C32.0159 -0.00303288 32.7965 0.211265 33.4783 0.619753C34.1602 1.02824 34.7175 1.61537 35.0898 2.31765C35.4621 3.01994 35.6353 3.81064 35.5908 4.60427C35.5462 5.39789 35.2855 6.16423 34.8369 6.8204L26.9898 18.3841C26.6587 18.8721 26.2131 19.2717 25.692 19.5478C25.1708 19.824 24.59 19.9684 24.0002 19.9684C23.4104 19.9684 22.8296 19.824 22.3085 19.5478C21.7874 19.2717 21.3418 18.8721 21.0106 18.3841L13.1636 6.8204C12.715 6.16435 12.4544 5.39819 12.4097 4.60472C12.3651 3.81125 12.5382 3.02067 12.9103 2.31845C13.2824 1.61622 13.8393 1.02907 14.521 0.620449C15.2026 0.211831 15.9829 -0.00270733 16.7777 3.24291e-05ZM23.9999 18.783C24.397 18.7858 24.7885 18.6897 25.1392 18.5034C25.4899 18.3172 25.7887 18.0466 26.0088 17.716L33.8553 6.15236C34.1792 5.67384 34.3668 5.11614 34.3979 4.5391C34.4289 3.96206 34.3022 3.38745 34.0315 2.87694C33.7607 2.36642 33.3561 1.93926 32.8609 1.64128C32.3658 1.34331 31.7989 1.18577 31.221 1.18557H16.7777C16.1994 1.18549 15.6321 1.34299 15.1366 1.64112C14.6412 1.93926 14.2363 2.36676 13.9656 2.8777C13.6949 3.38863 13.5685 3.96369 13.6 4.54107C13.6315 5.11845 13.8198 5.67631 14.1446 6.15473L21.9905 17.7184C22.2108 18.0486 22.5099 18.3188 22.8607 18.5046C23.2115 18.6905 23.603 18.7861 23.9999 18.783Z" fill="currentColor"/>
<path d="M30.5405 7.31051C30.4515 7.31056 30.3636 7.29055 30.2833 7.25196C30.2031 7.21338 30.1325 7.15721 30.077 7.08763C29.7151 6.65257 29.2607 6.3037 28.747 6.06642C28.2333 5.82914 27.6731 5.70941 27.1072 5.71597H20.8932C20.3275 5.70942 19.7674 5.82915 19.2537 6.06644C18.7401 6.30372 18.2858 6.65259 17.9241 7.08763C17.8762 7.15044 17.8163 7.20307 17.7478 7.24241C17.6794 7.28175 17.6037 7.30702 17.5254 7.31672C17.447 7.32643 17.3675 7.32038 17.2915 7.29893C17.2155 7.27748 17.1446 7.24107 17.0828 7.19182C17.0211 7.14258 16.9698 7.08149 16.932 7.01215C16.8942 6.94282 16.8707 6.86664 16.8627 6.78808C16.8548 6.70951 16.8626 6.63015 16.8858 6.55465C16.9089 6.47916 16.9469 6.40905 16.9976 6.34845C17.4708 5.77471 18.066 5.31378 18.74 4.99927C19.4139 4.68476 20.1495 4.52459 20.8932 4.53043H27.1072C27.8511 4.52449 28.5869 4.68462 29.2611 4.99913C29.9352 5.31364 30.5307 5.77461 31.0041 6.34845C31.0737 6.43565 31.1173 6.54073 31.1299 6.65162C31.1424 6.7625 31.1234 6.87468 31.0751 6.97524C31.0267 7.07581 30.9509 7.16068 30.8565 7.2201C30.762 7.27951 30.6527 7.31105 30.5411 7.3111L30.5405 7.31051Z" fill="currentColor"/>
<path d="M11.9188 24.5927C11.8389 24.5928 11.7599 24.5767 11.6863 24.5454C11.6128 24.5142 11.5464 24.4684 11.491 24.4108C11.4357 24.3532 11.3925 24.285 11.3642 24.2103C11.3358 24.1357 11.3228 24.056 11.326 23.9762L12.0812 5.09956C12.0875 4.94235 12.156 4.79407 12.2716 4.68735C12.3872 4.58063 12.5405 4.52422 12.6977 4.5305C12.8549 4.53679 13.0032 4.60528 13.1099 4.72089C13.2166 4.8365 13.273 4.98977 13.2668 5.14698L12.543 23.2477L21.6022 21.157C21.7554 21.1216 21.9164 21.1486 22.0498 21.2319C22.1831 21.3152 22.2779 21.4481 22.3133 21.6013C22.3486 21.7545 22.3217 21.9155 22.2384 22.0488C22.1551 22.1822 22.0222 22.2769 21.869 22.3123L12.0534 24.5773C12.0092 24.5875 11.9641 24.5927 11.9188 24.5927Z" fill="currentColor"/>
<path d="M36.0806 24.5927C36.0357 24.5926 35.9909 24.5875 35.9472 24.5773L26.1316 22.3135C25.9784 22.2781 25.8455 22.1834 25.7622 22.05C25.6789 21.9167 25.6519 21.7557 25.6873 21.6025C25.7227 21.4493 25.8175 21.3164 25.9508 21.2331C26.0842 21.1498 26.2451 21.1228 26.3983 21.1582L35.4576 23.2489L34.7332 5.14698C34.7269 4.98977 34.7834 4.8365 34.8901 4.72089C34.9968 4.60528 35.1451 4.53679 35.3023 4.5305C35.4595 4.52422 35.6128 4.58063 35.7284 4.68735C35.844 4.79407 35.9125 4.94235 35.9188 5.09956L36.6728 23.9733C36.676 24.0531 36.663 24.1327 36.6346 24.2074C36.6063 24.2821 36.5631 24.3502 36.5078 24.4078C36.4524 24.4654 36.386 24.5112 36.3125 24.5424C36.2389 24.5737 36.1599 24.5898 36.08 24.5897L36.0806 24.5927Z" fill="currentColor"/>
<path d="M15.5305 46.4888H2.10314C1.54565 46.4881 1.01116 46.2664 0.616899 45.8723C0.222637 45.4781 0.000786391 44.9437 1.98631e-06 44.3862V9.74612C-0.000843399 8.94008 0.268185 8.15696 0.764197 7.52161C1.26021 6.88626 1.95465 6.43526 2.73681 6.2405L13.1055 3.64893L13.393 4.79889L3.02311 7.39106C2.4979 7.5222 2.03167 7.82528 1.69867 8.25207C1.36566 8.67885 1.18503 9.20479 1.18554 9.74612V44.3856C1.18569 44.629 1.28242 44.8623 1.45447 45.0343C1.62652 45.2064 1.85982 45.3031 2.10314 45.3032H15.5305V46.4888Z" fill="currentColor"/>
<path d="M45.8961 46.4887H28.6923V45.3031H45.8961C46.1394 45.303 46.3727 45.2063 46.5448 45.0342C46.7168 44.8622 46.8136 44.6289 46.8137 44.3855V9.74602C46.8142 9.20469 46.6336 8.67875 46.3006 8.25197C45.9676 7.82518 45.5014 7.5221 44.9762 7.39096L34.6081 4.79938L34.8956 3.64941L45.2636 6.241C46.0458 6.43585 46.7401 6.88688 47.2361 7.52221C47.7321 8.15754 48.0012 8.94061 48.0004 9.74662V44.3861C47.9997 44.9438 47.7777 45.4784 47.3831 45.8726C46.9886 46.2668 46.4538 46.4884 45.8961 46.4887Z" fill="currentColor"/>
<path d="M27.0201 28.3674H24.7551C24.5979 28.3674 24.4471 28.305 24.336 28.1938C24.2248 28.0826 24.1624 27.9319 24.1624 27.7747C24.1624 27.6174 24.2248 27.4667 24.336 27.3555C24.4471 27.2443 24.5979 27.1819 24.7551 27.1819H27.0201C27.1773 27.1819 27.3281 27.2443 27.4392 27.3555C27.5504 27.4667 27.6128 27.6174 27.6128 27.7747C27.6128 27.9319 27.5504 28.0826 27.4392 28.1938C27.3281 28.305 27.1773 28.3674 27.0201 28.3674Z" fill="currentColor"/>
<path d="M28.5298 47.9995H19.4694C19.3876 47.9997 19.3066 47.983 19.2315 47.9504C19.1564 47.9178 19.0889 47.87 19.0333 47.81C18.9776 47.75 18.9349 47.6792 18.908 47.6019C18.881 47.5247 18.8703 47.4426 18.8766 47.361L20.3787 27.8353L18.8968 22.6522C18.8559 22.5017 18.876 22.3412 18.9526 22.2055C19.0292 22.0697 19.1562 21.9696 19.3061 21.9268C19.456 21.884 19.6167 21.902 19.7535 21.9769C19.8902 22.0517 19.992 22.1774 20.0367 22.3267L21.5471 27.6118C21.5664 27.6794 21.5737 27.7498 21.5684 27.8199L20.1096 46.8139H27.8902L26.4291 27.8205C26.4238 27.7504 26.431 27.68 26.4504 27.6124L27.9608 22.3273C28.0055 22.178 28.1073 22.0523 28.244 21.9774C28.3807 21.9026 28.5415 21.8846 28.6914 21.9274C28.8412 21.9702 28.9683 22.0703 29.0449 22.2061C29.1215 22.3418 29.1415 22.5023 29.1007 22.6527L27.6188 27.8359L29.1208 47.3616C29.1271 47.4432 29.1165 47.5252 29.0895 47.6025C29.0626 47.6798 29.0199 47.7506 28.9642 47.8106C28.9085 47.8706 28.841 47.9184 28.766 47.951C28.6909 47.9836 28.6099 48.0003 28.5281 48.0001L28.5298 47.9995Z" fill="currentColor"/>
</svg>
