<svg width="48" height="48" viewBox="0 0 48 48" fill="none" xmlns="http://www.w3.org/2000/svg">
<path d="M1.18555 0H31.7135C32.0279 0 32.3295 0.124906 32.5518 0.34724C32.7741 0.569574 32.899 0.871123 32.899 1.18555V4.53058C32.899 4.68627 32.8684 4.84044 32.8088 4.98427C32.7492 5.12811 32.6619 5.2588 32.5518 5.36889C32.4417 5.47898 32.311 5.56631 32.1672 5.62589C32.0233 5.68547 31.8692 5.71613 31.7135 5.71613H1.18555C0.871123 5.71613 0.569574 5.59123 0.34724 5.36889C0.124906 5.14656 0 4.84501 0 4.53058V1.18555C0 0.871123 0.124906 0.569574 0.34724 0.34724C0.569574 0.124906 0.871123 0 1.18555 0ZM31.7135 4.53058V1.18555H1.18555V4.53058H31.7135Z" fill="currentColor"/>
<path d="M2.10312 43.4694C1.9459 43.4694 1.79513 43.407 1.68396 43.2958C1.57279 43.1846 1.51034 43.0339 1.51034 42.8766V39.857C1.50723 38.123 1.79126 36.4004 2.3509 34.7592C2.88413 33.1931 3.67029 31.7249 4.67813 30.4129C5.6607 29.1301 6.85199 28.0215 8.20218 27.1337C9.55384 26.2436 11.0542 25.6031 12.632 25.2428C12.8189 25.1892 12.9937 25.0998 13.1465 24.9796C13.2886 24.8551 13.4019 24.7012 13.4786 24.5287C13.5554 24.3561 13.5937 24.1689 13.591 23.9801C13.5883 23.7912 13.5446 23.6052 13.4629 23.4349C13.3813 23.2647 13.2636 23.1141 13.1181 22.9938C12.9732 22.8864 12.8101 22.8061 12.6367 22.7567H12.6326C11.0546 22.3961 9.55399 21.7555 8.20218 20.8651C6.85199 19.9773 5.6607 18.8688 4.67813 17.5859C3.67029 16.2739 2.88413 14.8057 2.3509 13.2396C1.79145 11.599 1.50743 9.877 1.51034 8.14356C1.51034 7.98634 1.57279 7.83557 1.68396 7.7244C1.79513 7.61323 1.9459 7.55078 2.10312 7.55078C2.26033 7.55078 2.4111 7.61323 2.52227 7.7244C2.63344 7.83557 2.69589 7.98634 2.69589 8.14356C2.6931 9.7461 2.95549 11.3381 3.47243 12.8549C3.96398 14.2986 4.68866 15.6521 5.61768 16.8615C7.41992 19.2378 9.99287 20.9129 12.8952 21.5996C13.2336 21.6861 13.5515 21.8388 13.8306 22.0489C14.1256 22.2815 14.364 22.5779 14.528 22.9159C14.6919 23.2539 14.7771 23.6246 14.7771 24.0003C14.7771 24.376 14.6919 24.7467 14.528 25.0847C14.364 25.4227 14.1256 25.7191 13.8306 25.9517C13.5515 26.1618 13.2336 26.3145 12.8952 26.401C9.99295 27.0875 7.42002 28.7624 5.61768 31.1385C4.68866 32.3479 3.96398 33.7014 3.47243 35.1451C2.95542 36.6621 2.69303 38.2543 2.69589 39.857V42.8802C2.69495 43.0368 2.63208 43.1867 2.52102 43.297C2.40995 43.4074 2.25972 43.4694 2.10312 43.4694Z" fill="currentColor"/>
<path d="M1.18555 42.2838H31.7135C32.0279 42.2838 32.3295 42.4087 32.5518 42.6311C32.7741 42.8534 32.899 43.1549 32.899 43.4694V46.8144C32.899 46.9701 32.8684 47.1242 32.8088 47.2681C32.7492 47.4119 32.6619 47.5426 32.5518 47.6527C32.4417 47.7628 32.311 47.8501 32.1672 47.9097C32.0233 47.9693 31.8692 47.9999 31.7135 47.9999H1.18555C0.871123 47.9999 0.569574 47.875 0.34724 47.6527C0.124906 47.4304 0 47.1288 0 46.8144V43.4694C0 43.1549 0.124906 42.8534 0.34724 42.6311C0.569574 42.4087 0.871123 42.2838 1.18555 42.2838ZM31.7135 46.8144V43.4694H1.18555V46.8144H31.7135Z" fill="currentColor"/>
<path d="M30.7958 43.4695C30.6386 43.4695 30.4878 43.407 30.3767 43.2958C30.2655 43.1847 30.2031 43.0339 30.2031 42.8767V39.8535C30.2059 38.251 29.9435 36.659 29.4265 35.1422C28.935 33.6985 28.2103 32.345 27.2813 31.1356C25.4782 28.7618 22.9055 27.0891 20.0044 26.4041C19.6657 26.3176 19.3476 26.1649 19.0684 25.9547C18.7734 25.7222 18.5349 25.4257 18.371 25.0877C18.2071 24.7497 18.1219 24.379 18.1219 24.0033C18.1219 23.6277 18.2071 23.2569 18.371 22.9189C18.5349 22.5809 18.7734 22.2845 19.0684 22.0519C19.3476 21.8417 19.6657 21.689 20.0044 21.6026C22.9068 20.9146 25.4794 19.238 27.2807 16.8604C28.2097 15.6509 28.9344 14.2975 29.4259 12.8538C29.9429 11.3369 30.2053 9.74496 30.2025 8.14242V5.12341C30.2025 4.9662 30.2649 4.81543 30.3761 4.70426C30.4873 4.59309 30.638 4.53064 30.7952 4.53064C30.9525 4.53064 31.1032 4.59309 31.2144 4.70426C31.3256 4.81543 31.388 4.9662 31.388 5.12341V8.14657C31.3911 9.8806 31.1071 11.6032 30.5475 13.2444C30.0142 14.8105 29.2281 16.2787 28.2202 17.5907C27.2377 18.8736 26.0464 19.9821 24.6962 20.8699C23.3445 21.76 21.8442 22.4005 20.2664 22.7609C20.0794 22.8144 19.9047 22.9038 19.7518 23.024C19.6098 23.1485 19.4965 23.3024 19.4198 23.4749C19.343 23.6475 19.3047 23.8347 19.3074 24.0235C19.3101 24.2124 19.3538 24.3984 19.4354 24.5687C19.5171 24.739 19.6347 24.8895 19.7803 25.0098C19.9252 25.1172 20.0882 25.1975 20.2616 25.247H20.2658C21.8438 25.6075 23.3444 26.2481 24.6962 27.1385C26.0464 28.0263 27.2377 29.1348 28.2202 30.4177C29.2281 31.7291 30.0145 33.1967 30.5481 34.7622C31.1077 36.4034 31.3917 38.126 31.3886 39.86V42.8832C31.3869 43.0393 31.3237 43.1884 31.2127 43.2982C31.1017 43.4079 30.9519 43.4695 30.7958 43.4695Z" fill="currentColor"/>
<path d="M26.2647 43.4694C26.1074 43.4694 25.9567 43.407 25.8455 43.2958C25.7343 43.1846 25.6719 43.0339 25.6719 42.8767C25.6718 42.3298 25.506 41.7958 25.1964 41.345C24.8868 40.8942 24.4478 40.5478 23.9374 40.3514L16.4483 37.4711L8.96036 40.3514C8.44994 40.5478 8.011 40.8942 7.70137 41.345C7.39174 41.7958 7.22597 42.3298 7.22589 42.8767C7.22589 43.0339 7.16344 43.1846 7.05228 43.2958C6.94111 43.407 6.79033 43.4694 6.63312 43.4694C6.47591 43.4694 6.32513 43.407 6.21396 43.2958C6.1028 43.1846 6.04034 43.0339 6.04034 42.8767C6.04038 42.0901 6.27875 41.322 6.72404 40.6737C7.16934 40.0253 7.80064 39.5271 8.53474 39.2447L16.2367 36.2808C16.3737 36.2282 16.5253 36.2282 16.6623 36.2808L24.3642 39.2447C25.0983 39.5271 25.7296 40.0253 26.1749 40.6737C26.6202 41.322 26.8586 42.0901 26.8586 42.8767C26.8586 42.9546 26.8432 43.0318 26.8134 43.1038C26.7835 43.1758 26.7397 43.2412 26.6846 43.2962C26.6294 43.3513 26.5639 43.3949 26.4919 43.4247C26.4198 43.4544 26.3426 43.4696 26.2647 43.4694Z" fill="currentColor"/>
<path d="M7.38828 9.81642C7.40804 9.81642 7.4278 9.81642 7.44756 9.81642C7.52284 9.82413 14.9859 10.5687 16.4494 10.5687C17.913 10.5687 25.3755 9.82709 25.4507 9.81642C25.5384 9.80765 25.6269 9.81853 25.7098 9.84825C25.7927 9.87797 25.8679 9.9258 25.93 9.98824C25.9921 10.0507 26.0395 10.1262 26.0688 10.2093C26.0981 10.2923 26.1085 10.3809 26.0992 10.4685C25.9337 11.6651 25.56 12.8235 24.9949 13.8912C24.4388 15.0072 23.6237 15.974 22.6178 16.7108C21.6118 17.4476 20.4442 17.933 19.2124 18.1265C18.7461 18.2272 18.3051 18.4212 17.9159 18.697C17.5267 18.9728 17.1974 19.3246 16.948 19.7312C16.8944 19.8151 16.8205 19.8843 16.7332 19.9321C16.6458 19.98 16.5479 20.0051 16.4483 20.0051C16.3487 20.0051 16.2507 19.98 16.1633 19.9321C16.076 19.8843 16.0021 19.8151 15.9485 19.7312C15.6991 19.3246 15.3698 18.9728 14.9806 18.697C14.5914 18.4212 14.1504 18.2272 13.6841 18.1265C12.4523 17.933 11.2847 17.4476 10.2787 16.7108C9.27279 15.974 8.45773 15.0072 7.90162 13.8912C7.33653 12.8235 6.96277 11.6651 6.79728 10.4685C6.78899 10.3859 6.79811 10.3026 6.82405 10.2238C6.84999 10.145 6.89217 10.0726 6.94787 10.0111C7.00358 9.94965 7.07156 9.90057 7.14742 9.86703C7.22328 9.83349 7.30534 9.81625 7.38828 9.81642ZM16.4489 18.4372C17.1149 17.6702 18.0196 17.1497 19.0173 16.9594C20.1718 16.782 21.2584 16.3013 22.1662 15.5663C22.9013 14.95 23.5059 14.193 23.9445 13.3399C24.3189 12.6242 24.601 11.864 24.7839 11.0773C22.8004 11.2711 17.6925 11.7584 16.4465 11.7584C15.2005 11.7584 10.0949 11.2717 8.11028 11.0778C8.2969 11.8766 8.58559 12.648 8.96921 13.3731C9.43899 14.3217 10.1307 15.1431 10.9857 15.7673C11.8407 16.3915 12.8337 16.8002 13.8804 16.9588C14.8782 17.1493 15.7829 17.67 16.4489 18.4372Z" fill="currentColor"/>
<path d="M16.4495 33.6566C16.2923 33.6566 16.1415 33.5941 16.0304 33.483C15.9192 33.3718 15.8568 33.221 15.8568 33.0638V30.0407C15.8568 29.8834 15.9192 29.7327 16.0304 29.6215C16.1415 29.5103 16.2923 29.4479 16.4495 29.4479C16.6067 29.4479 16.7575 29.5103 16.8687 29.6215C16.9798 29.7327 17.0423 29.8834 17.0423 30.0407V33.0638C17.0423 33.221 16.9798 33.3718 16.8687 33.483C16.7575 33.5941 16.6067 33.6566 16.4495 33.6566Z" fill="currentColor"/>
<path d="M33.816 38.1843C33.6588 38.1843 33.5081 38.1218 33.3969 38.0106C33.2857 37.8995 33.2233 37.7487 33.2233 37.5915C33.2233 37.4343 33.2857 37.2835 33.3969 37.1723C33.5081 37.0612 33.6588 36.9987 33.816 36.9987C37.2634 36.9987 40.5696 35.6292 43.0073 33.1916C45.4449 30.7539 46.8144 27.4477 46.8144 24.0003C46.8144 20.553 45.4449 17.2468 43.0073 14.8091C40.5696 12.3714 37.2634 11.002 33.816 11.002C33.6588 11.002 33.5081 10.9395 33.3969 10.8283C33.2857 10.7172 33.2233 10.5664 33.2233 10.4092C33.2233 10.252 33.2857 10.1012 33.3969 9.99003C33.5081 9.87886 33.6588 9.81641 33.816 9.81641C35.6787 9.81641 37.5231 10.1833 39.244 10.8961C40.9649 11.6089 42.5285 12.6537 43.8456 13.9708C45.1627 15.2879 46.2075 16.8515 46.9203 18.5724C47.6331 20.2933 48 22.1377 48 24.0003C48 25.863 47.6331 27.7074 46.9203 29.4283C46.2075 31.1492 45.1627 32.7128 43.8456 34.0299C42.5285 35.347 40.9649 36.3918 39.244 37.1046C37.5231 37.8174 35.6787 38.1843 33.816 38.1843Z" fill="currentColor"/>
<path d="M34.5706 19.308C34.4134 19.308 34.2626 19.2455 34.1515 19.1344C34.0403 19.0232 33.9778 18.8724 33.9778 18.7152V17.2048C33.9778 17.0476 34.0403 16.8968 34.1515 16.7857C34.2626 16.6745 34.4134 16.6121 34.5706 16.6121C34.7278 16.6121 34.8786 16.6745 34.9898 16.7857C35.1009 16.8968 35.1634 17.0476 35.1634 17.2048V18.7152C35.1634 18.8724 35.1009 19.0232 34.9898 19.1344C34.8786 19.2455 34.7278 19.308 34.5706 19.308Z" fill="currentColor"/>
<path d="M34.5706 31.3887C34.4134 31.3887 34.2626 31.3262 34.1515 31.2151C34.0403 31.1039 33.9778 30.9531 33.9778 30.7959V29.2855C33.9778 29.1283 34.0403 28.9775 34.1515 28.8664C34.2626 28.7552 34.4134 28.6927 34.5706 28.6927C34.7278 28.6927 34.8786 28.7552 34.9898 28.8664C35.1009 28.9775 35.1634 29.1283 35.1634 29.2855V30.7959C35.1634 30.9531 35.1009 31.1039 34.9898 31.2151C34.8786 31.3262 34.7278 31.3887 34.5706 31.3887Z" fill="currentColor"/>
<path d="M35.704 29.8782H33.439C32.5811 29.8775 31.7585 29.5363 31.1519 28.9298C30.5452 28.3232 30.2039 27.5008 30.203 26.6429C30.203 26.4857 30.2655 26.3349 30.3766 26.2237C30.4878 26.1125 30.6386 26.0501 30.7958 26.0501C30.953 26.0501 31.1038 26.1125 31.2149 26.2237C31.3261 26.3349 31.3886 26.4857 31.3886 26.6429C31.3892 27.1863 31.6053 27.7073 31.9896 28.0916C32.3739 28.4759 32.8949 28.6921 33.4384 28.6927H35.7034C36.247 28.6927 36.7684 28.4767 37.1528 28.0923C37.5372 27.7079 37.7532 27.1865 37.7532 26.6429C37.7532 26.0992 37.5372 25.5778 37.1528 25.1934C36.7684 24.809 36.247 24.5931 35.7034 24.5931H33.4384C32.5803 24.5931 31.7574 24.2522 31.1506 23.6454C30.5439 23.0387 30.203 22.2158 30.203 21.3577C30.203 20.4996 30.5439 19.6767 31.1506 19.0699C31.7574 18.4632 32.5803 18.1223 33.4384 18.1223H35.7034C36.3137 18.1256 36.9108 18.3001 37.4268 18.626C37.9428 18.952 38.357 19.4162 38.6222 19.9658C38.6804 20.1059 38.6826 20.2629 38.6286 20.4046C38.5745 20.5463 38.4682 20.6618 38.3315 20.7275C38.1948 20.7932 38.0382 20.804 37.8938 20.7577C37.7494 20.7114 37.6282 20.6115 37.5552 20.4786C37.3875 20.1294 37.125 19.8345 36.7976 19.6273C36.4703 19.4202 36.0913 19.3093 35.704 19.3073H33.439C32.8953 19.3073 32.3739 19.5232 31.9895 19.9077C31.6051 20.2921 31.3892 20.8134 31.3892 21.3571C31.3892 21.9007 31.6051 22.4221 31.9895 22.8065C32.3739 23.1909 32.8953 23.4069 33.439 23.4069H35.704C36.562 23.4069 37.385 23.7478 37.9917 24.3545C38.5985 24.9613 38.9393 25.7842 38.9393 26.6423C38.9393 27.5003 38.5985 28.3233 37.9917 28.93C37.385 29.5368 36.562 29.8782 35.704 29.8782Z" fill="currentColor"/>
</svg>
