<svg width="591" height="428" viewBox="0 0 591 428" fill="none" xmlns="http://www.w3.org/2000/svg">
<path fill-rule="evenodd" clip-rule="evenodd" d="M2.56022 140.899C19.164 166.578 35.4084 192.5 51.7777 218.335C83.2557 268.019 114.696 317.725 146.098 367.453C149.664 373.134 153.861 376.316 160.365 377.813C198.728 386.651 237.049 395.669 275.328 404.866C306.472 412.295 337.573 419.916 368.694 427.448C371.027 426.766 373.359 426.082 375.691 425.394C386.087 418.463 396.404 411.414 406.895 404.626C419.815 396.271 432.832 388.066 445.945 380.013C448.268 378.539 451.016 377.882 453.755 378.147C467.924 380.666 482.008 383.655 496.122 386.483C498.085 385.625 500.047 384.768 502.009 383.912C511.341 372.262 520.677 360.611 530.017 348.958C546.03 328.993 562.045 309.032 578.062 289.077C578.017 288.494 577.974 287.903 577.93 287.314C575.292 286.406 572.352 285.955 569.939 284.709C572.352 285.955 575.293 286.407 577.936 287.315C581.177 283.618 584.414 279.92 587.648 276.22C591.641 271.631 591.628 267.221 587.997 262.159C582.76 254.856 578.134 247.118 573.197 239.597C560.744 220.627 548.167 201.735 535.818 182.697C522.711 162.486 509.809 142.14 496.82 121.855L487.675 113.22C485.65 113.297 483.433 113.951 481.626 113.36C465.724 108.18 449.899 102.77 434.045 97.4477C427.34 95.1937 420.65 92.8878 413.909 90.7432C391.659 83.6704 369.35 76.7579 347.125 69.5946C321.998 61.4921 296.937 53.1846 271.849 44.9618C259.53 40.9248 247.173 37.0009 234.932 32.7397C232.42 31.8641 230.356 29.7037 228.084 28.1332C227.101 28.9009 226.119 29.6686 225.139 30.4363C216.998 27.953 208.918 25.25 200.707 23.0224C174.656 15.9551 148.561 9.04287 122.469 2.12819C119.964 1.4645 117.358 1.18165 114.799 0.723907C111.352 3.60062 107.393 6.0372 104.545 9.4134C70.7742 49.4735 37.2192 89.7111 3.44304 129.769C0.179024 133.642 -0.343349 136.407 2.55974 140.901" fill="currentColor"/>
</svg>
