<svg width="1054" height="763" viewBox="0 0 1054 763" fill="none" xmlns="http://www.w3.org/2000/svg">
<path fill-rule="evenodd" clip-rule="evenodd" d="M3.5111 250.565C33.162 296.435 62.1741 342.721 91.4097 388.86C147.626 477.591 203.777 566.361 259.862 655.171C266.231 665.312 273.727 670.995 285.343 673.673C353.851 689.457 422.288 705.562 490.653 721.989C546.273 735.257 601.817 748.866 657.396 762.317C661.561 761.099 665.727 759.876 669.892 758.648C688.457 746.272 706.882 733.681 725.619 721.564C748.693 706.643 771.939 691.99 795.358 677.607C799.286 675.202 804.944 673.494 809.307 674.27C834.612 678.767 859.765 684.106 884.97 689.158C888.476 687.628 891.981 686.097 895.483 684.565C912.15 663.76 928.823 642.952 945.503 622.141C974.098 586.489 1002.7 550.842 1031.31 515.199C1031.23 514.157 1031.15 513.099 1031.07 512.049C1026.36 510.429 1021.11 509.623 1016.8 507.397C1021.11 509.623 1026.36 510.428 1031.08 512.051C1036.87 505.45 1042.65 498.845 1048.43 492.236C1055.56 484.04 1055.53 476.165 1049.05 467.124C1039.7 454.081 1031.43 440.265 1022.62 426.833C1000.38 392.953 977.915 359.215 955.862 325.215C932.454 289.12 909.412 252.783 886.215 216.55C880.773 211.411 875.329 206.27 869.884 201.128C866.266 201.267 862.308 202.434 859.078 201.383C830.681 192.132 802.416 182.474 774.104 172.963C762.129 168.937 750.182 164.82 738.143 160.991C698.4 148.358 658.564 136.014 618.874 123.222C574 108.751 529.243 93.9149 484.44 79.232C462.441 72.0218 440.371 65.0143 418.51 57.4048C414.024 55.8411 410.339 51.983 406.28 49.1787C404.525 50.5501 402.769 51.9205 401.014 53.2898C386.478 48.8555 372.045 44.0275 357.385 40.0497C310.857 27.4266 264.258 15.0848 217.661 2.73911C213.188 1.55279 208.533 1.04762 203.961 0.230255C197.807 5.36717 190.732 9.7189 185.648 15.7489C125.335 87.2931 65.4063 159.153 5.08957 230.693C-0.739768 237.609 -1.67254 242.549 3.51213 250.574" fill="currentColor"/>
</svg>
