<svg xmlns="http://www.w3.org/2000/svg" xmlns:xlink="http://www.w3.org/1999/xlink" width="176.414" height="185.549" viewBox="0 0 176.414 185.549">
  <defs>
    <clipPath id="clip-path">
      <path id="Path_1471" data-name="Path 1471" d="M0,0,162.466,7.808l5.18,149.346L5.18,149.346Z" fill="#fff"/>
    </clipPath>
  </defs>
  <g id="Group_2171" data-name="Group 2171" transform="translate(176.414 19.152) rotate(97)">
    <g id="Mask_Group_20" data-name="Mask Group 20" clip-path="url(#clip-path)">
      <path id="Path_1470" data-name="Path 1470" d="M165.032,80.2c-6.262-8.063-12.45-16.239-18.664-24.375q-17.923-23.47-35.823-46.973c-1.358-1.791-2.684-2.625-4.474-2.666-10.557-.245-21.118-.583-31.681-.942-8.59-.292-17.184-.657-25.776-.988q-.821.644-1.642,1.29c-2.138,3.328-4.247,6.693-6.421,9.975,2.174-3.282,4.284-6.647,6.421-9.976a6.562,6.562,0,0,0-2.1-.8c-4.764.026-9.52.167-14.281.253a12.464,12.464,0,0,0-2.652-.028,2.308,2.308,0,0,0-1.571,1.339c-1.627,5.07-3.1,10.251-4.7,15.337-.8,2.528-1.777,4.931-2.675,7.39l-1.316,1.392q-2.249,7.445-4.5,14.893Q9.316,58.086,5.452,70.844l.17.632a12.1,12.1,0,0,1,2.258.329,12.1,12.1,0,0,0-2.26-.329q-.821,2.395-1.64,4.791a4.868,4.868,0,0,0,1,5.145c1.913,2.253,3.7,4.711,5.556,7.066,4.674,5.941,9.374,11.843,14.027,17.816,4.939,6.342,9.835,12.748,14.749,19.127l3.022,2.435c5.59,7.428,11.235,14.778,16.738,22.328,1.839,2.523,3.779,3.222,6.089,3.08a49.309,49.309,0,0,1,5.151.2l45.241,2.058a.966.966,0,0,1,.242.21c7.935.154,15.866.207,23.807.533,2.04.083,3.273-.547,3.979-3.245s1.766-5.154,2.672-7.716q.377-2.69.752-5.381a28,28,0,0,0,1.965-3.957c5.588-17.2,11.107-34.443,16.7-51.641a3.812,3.812,0,0,0-.635-4.12" transform="translate(-0.973 -1.136)" fill="#fff" fill-rule="evenodd"/>
    </g>
  </g>
</svg>
