<svg xmlns="http://www.w3.org/2000/svg" xmlns:xlink="http://www.w3.org/1999/xlink" width="307.367" height="224.391" viewBox="0 0 307.367 224.391">
  <defs>
    <clipPath id="clip-path">
      <rect id="Rectangle_1041" data-name="Rectangle 1041" width="276.293" height="162.373" fill="#47a0fa"/>
    </clipPath>
  </defs>
  <g id="Group_2173" data-name="Group 2173" transform="translate(0 66.841) rotate(-14)" opacity="0.646">
    <g id="Group_2158" data-name="Group 2158" clip-path="url(#clip-path)">
      <path id="Path_1467" data-name="Path 1467" d="M274.8,74.857C264.6,84.4,254.546,94.087,244.442,103.722q-29.146,27.8-58.248,55.636a9.694,9.694,0,0,1-7.463,3.014q-26.954-.484-53.911-.714c-14.616-.149-29.234-.208-43.851-.309q-1.437-.84-2.872-1.683c-3.839-4.218-7.63-8.48-11.528-12.644q-7.2-7.692-14.579-15.215a5.64,5.64,0,0,0-3.253-1.69c-6.554-.449-13.123-.681-19.687-.986q-1.162-.9-2.324-1.789-4.271-9.286-8.546-18.576Q10.847,92.849,3.511,76.935l.253-.767A27.475,27.475,0,0,0,7.591,75.9a27.484,27.484,0,0,1-3.83.271Q2.22,73.175.684,70.181c-1.262-2.474-.769-4.426,1.4-6.267,3.126-2.657,6.03-5.573,9.047-8.359C18.742,48.527,26.4,41.548,33.971,34.479c8.038-7.5,16-15.092,23.994-22.645l5-2.815a8.48,8.48,0,0,0,2.664.731c7.615-.538,15.223-1.186,22.833-1.794,3.219-.258,6.437-.54,9.66-.746,10.639-.676,21.282-1.274,31.917-1.992,12.025-.814,24.043-1.726,36.064-2.6,5.9-.428,11.809-.8,17.7-1.337A14.654,14.654,0,0,0,187.352,0L188.4,1.345c3.88-.2,7.758-.506,11.64-.586,12.32-.254,24.642-.433,36.963-.614,1.183-.018,2.369.145,3.553.225a35.823,35.823,0,0,1,3.582,4.982c10.535,21.474,20.955,43,31.491,64.477,1.018,2.076.944,3.359-.838,5.028" transform="translate(0 0)" fill="#47a0fa" fill-rule="evenodd"/>
    </g>
  </g>
</svg>
