<svg xmlns="http://www.w3.org/2000/svg" xmlns:xlink="http://www.w3.org/1999/xlink" width="651.935" height="383.133" viewBox="0 0 651.935 383.133">
  <defs>
    <clipPath id="clip-path">
      <rect id="Rectangle_1041" data-name="Rectangle 1041" width="651.935" height="383.133" fill="#47a0fa"/>
    </clipPath>
  </defs>
  <g id="Group_2158" data-name="Group 2158" clip-path="url(#clip-path)">
    <path id="Path_1467" data-name="Path 1467" d="M648.4,176.632c-24.046,22.518-47.779,45.373-71.621,68.109Q508.009,310.329,439.34,376.018c-5.207,5.007-10.423,7.24-17.61,7.111q-63.6-1.141-127.208-1.684c-34.487-.351-68.979-.491-103.469-.729q-3.39-1.981-6.778-3.97c-9.059-9.953-18-20.01-27.2-29.834q-16.99-18.15-34.4-35.9c-1.948-1.981-5.01-3.806-7.677-3.989-15.466-1.06-30.965-1.606-46.453-2.327q-2.743-2.112-5.483-4.222Q52.983,278.559,42.9,256.64q-17.3-37.555-34.611-75.106c.2-.6.4-1.2.6-1.809,2.993-.261,6.184.034,9.031-.64-2.847.673-6.038.379-9.038.64Q5.239,172.662,1.615,165.6c-2.978-5.837-1.815-10.443,3.3-14.787,7.376-6.268,14.227-13.151,21.347-19.724,17.96-16.582,36.027-33.05,53.9-49.73,18.966-17.708,37.753-35.612,56.615-53.432l11.808-6.643c2.1.609,4.243,1.87,6.287,1.726,17.969-1.27,35.92-2.8,53.877-4.233,7.6-.609,15.188-1.275,22.793-1.76,25.1-1.594,50.217-3.005,75.312-4.7,28.374-1.921,56.732-4.073,85.095-6.129,13.927-1.009,27.864-1.89,41.77-3.154,2.853-.261,5.573-1.981,8.358-3.03q1.24,1.588,2.482,3.174c9.154-.474,18.305-1.194,27.465-1.382,29.07-.6,58.145-1.022,87.218-1.45,2.791-.041,5.589.342,8.383.531,2.852,3.9,6.357,7.483,8.453,11.754C600.931,63.3,625.518,114.1,650.379,164.767c2.4,4.9,2.227,7.925-1.977,11.865" transform="translate(0 0)" fill="#47a0fa" fill-rule="evenodd"/>
  </g>
</svg>
