<svg width="319" height="355" viewBox="0 0 319 355" fill="none" xmlns="http://www.w3.org/2000/svg">
<path fill-rule="evenodd" clip-rule="evenodd" d="M318.284 295.914C317.154 287.483 316.338 279.012 315.411 270.554C310.531 225.956 305.64 181.359 300.736 136.763C300.448 135.55 300.011 134.377 299.435 133.271C299.602 133.112 299.767 132.951 299.931 132.792C299.787 131.041 299.768 129.282 299.872 127.529C300.287 124.156 298.634 122.15 296.112 120.223C264.792 96.2743 233.504 72.2838 202.248 48.2517C182.272 32.9227 162.303 17.5854 142.343 2.23988C141.597 1.5572 140.664 1.11207 139.664 0.961207C138.664 0.81034 137.642 0.960556 136.727 1.39272C121.127 7.75625 105.499 14.0488 89.8873 20.3814C76.0795 25.9851 62.2913 31.6383 48.4809 37.2367C33.7295 43.2167 18.9882 49.2218 4.18062 55.0613C1.32904 56.1859 0.535307 57.6939 0.858559 60.7045C5.83996 107.174 10.7554 153.651 15.6048 200.136C16.732 210.822 17.9089 221.496 18.9542 232.185C19.0117 233.145 19.2905 234.078 19.7689 234.912C20.2473 235.746 20.9123 236.457 21.7117 236.991C26.5121 240.504 31.2154 244.152 35.9605 247.743C40.4649 251.153 44.9712 254.561 49.4793 257.967C53.9088 261.321 58.2929 264.737 62.7728 268.023C67.1522 271.235 71.3509 274.682 75.7526 277.867C78.5836 279.915 81.1084 282.384 83.9126 284.473C89.5331 288.659 95.236 292.734 100.944 296.801C101.949 297.415 103 297.951 104.086 298.407L104.541 298.246C105.373 299.333 106.303 300.341 107.32 301.257C116.71 308.33 126.161 315.327 135.576 322.361C149.297 332.616 163.007 342.886 176.706 353.169C178.388 354.432 179.957 354.944 182.073 354.102C191.605 350.316 201.196 346.676 210.751 342.949C217.895 340.163 225.014 337.309 232.159 334.521C242.139 330.628 252.128 326.754 262.125 322.898C269.531 320.036 276.979 317.275 284.349 314.321C287.392 313.101 290.279 311.493 293.237 310.061C293.271 309.931 293.283 309.796 293.274 309.662C298.73 307.416 304.186 305.165 309.642 302.911L311.07 303.217C312.423 302.615 313.742 301.915 315.135 301.433C317.854 300.493 318.676 298.839 318.283 295.908" fill="currentColor"/>
</svg>
