<svg width="973" height="816" viewBox="0 0 973 816" fill="none" xmlns="http://www.w3.org/2000/svg">
<path fill-rule="evenodd" clip-rule="evenodd" d="M962.379 158.584C940.438 151.31 918.767 143.22 897 135.415C782.238 94.2523 667.465 53.12 552.681 12.018C549.599 10.918 545.981 11.334 542.601 11.042C542.411 10.442 542.214 9.85001 542.019 9.25901C537.691 7.25901 533.054 5.71201 529.091 3.13901C521.345 -1.89199 514.477 -0.238987 506.768 3.62701C410.979 51.6383 315.128 99.522 219.213 147.278C157.986 177.835 96.7434 208.363 35.4861 238.863C29.8391 241.663 27.1571 245.337 26.7451 251.575C23.7231 297.261 20.4841 342.931 17.3831 388.61C14.6391 429.01 12.0361 469.427 9.27608 509.831C6.32708 552.985 3.45208 596.148 0.0920768 639.273C-0.555923 647.579 2.18408 651.312 9.92608 654.106C129.383 697.249 248.78 740.559 368.117 784.036C395.555 794 423.042 803.83 450.4 814C452.813 815.002 455.424 815.432 458.031 815.256C460.637 815.08 463.167 814.302 465.423 812.985C479.718 805.437 494.23 798.291 508.651 790.976C522.343 784.029 536.033 777.076 549.72 770.117C563.186 763.287 576.751 756.644 590.109 749.61C603.17 742.735 616.588 736.58 629.609 729.616C637.983 725.137 647.021 721.908 655.463 717.543C672.379 708.794 689.125 699.713 705.855 690.609C708.629 689.098 710.97 686.791 713.513 684.853C713.563 684.42 713.613 683.985 713.663 683.548C717.231 682.507 721.073 682.002 724.328 680.348C752.783 665.825 781.118 651.066 809.518 636.436C850.906 615.119 892.313 593.846 933.739 572.619C938.829 570.013 941.946 566.79 942.409 560.619C944.503 532.827 947.023 505.063 949.297 477.282C950.997 456.512 952.497 435.724 954.19 414.951C956.557 385.934 958.982 356.919 961.463 327.908C963.286 306.408 965.408 284.925 966.963 263.403C967.605 254.518 967.111 245.552 967.134 236.622C966.857 236.384 966.542 236.192 966.203 236.055C967.208 220.052 968.208 204.044 969.203 188.032L971.647 184.908C971.788 180.886 971.647 176.831 972.128 172.854C973.069 165.095 970.005 161.117 962.377 158.588" fill="currentColor"/>
</svg>
