<svg xmlns="http://www.w3.org/2000/svg" xmlns:xlink="http://www.w3.org/1999/xlink" width="797.036" height="784.299" viewBox="0 0 797.036 784.299">
  <defs>
    <clipPath id="clip-path">
      <path id="Path_1471" data-name="Path 1471" d="M0,0,576.435,27.7l18.38,529.885L18.38,529.885Z" fill="#fff"/>
    </clipPath>
  </defs>
  <g id="Group_2172" data-name="Group 2172" transform="translate(797.036 477.946) rotate(149)">
    <g id="Mask_Group_20" data-name="Mask Group 20" clip-path="url(#clip-path)">
      <path id="Path_1470" data-name="Path 1470" d="M576.246,273.711c-22.218-28.608-44.174-57.616-66.221-86.482q-63.592-83.273-127.1-166.663c-4.817-6.354-9.523-9.312-15.873-9.459-37.457-.868-74.929-2.068-112.4-3.342-30.478-1.035-60.97-2.33-91.455-3.5q-2.913,2.283-5.824,4.576C149.78,20.644,142.3,32.583,134.582,44.228c7.714-11.645,15.2-23.584,22.783-35.4-2.487-.992-5.027-2.844-7.449-2.833-16.9.094-33.779.594-50.669.9-3.138.057-6.414-.826-9.411-.1-2.1.511-4.8,2.342-5.573,4.749-5.772,17.99-10.983,36.371-16.676,54.417-2.829,8.97-6.306,17.5-9.489,26.221q-2.336,2.471-4.669,4.939-7.979,26.415-15.967,52.84-13.7,45.273-27.411,90.539c.2.741.4,1.492.6,2.241,2.658.447,5.468.221,8.013,1.167-2.545-.946-5.355-.721-8.018-1.168q-2.915,8.5-5.818,17C2.448,266.768,3.672,272.459,8.379,278c6.788,7.993,13.139,16.715,19.713,25.071,16.585,21.078,33.26,42.019,49.767,63.213,17.522,22.5,34.895,45.231,52.329,67.864l10.723,8.64c19.832,26.356,39.861,52.434,59.386,79.22,6.524,8.95,13.406,11.433,21.6,10.928,6.038-.365,12.182.428,18.278.7q80.255,3.646,160.516,7.3a3.427,3.427,0,0,1,.86.745c28.152.546,56.292.734,84.467,1.891,7.239.3,11.613-1.941,14.119-11.513,2.494-9.526,6.265-18.287,9.482-27.377q1.337-9.544,2.666-19.09c2.354-4.662,5.3-8.9,6.973-14.041,19.827-61.018,39.407-122.206,59.235-183.223,1.916-5.9,1.633-9.614-2.253-14.619" transform="translate(5.84 6.821)" fill="#fff" fill-rule="evenodd"/>
    </g>
  </g>
</svg>
