<svg width="24" height="24" viewBox="0 0 24 24" fill="none" xmlns="http://www.w3.org/2000/svg">
<path d="M7.83335 3C8.04724 2.99978 8.25297 3.08408 8.40754 3.23534L16.7405 11.3785C16.8226 11.4589 16.8878 11.5554 16.9324 11.6623C16.977 11.7692 17 11.8842 17 12.0004C17 12.1166 16.977 12.2316 16.9324 12.3385C16.8878 12.4454 16.8226 12.542 16.7405 12.6223L8.40754 20.7645C8.32834 20.842 8.23487 20.9026 8.13266 20.943C8.03044 20.9834 7.92142 21.0026 7.81189 20.9997C7.70236 20.9968 7.59456 20.9717 7.49455 20.9259C7.39454 20.8801 7.30438 20.8145 7.22926 20.7329C7.07727 20.5677 6.99512 20.3478 7.00073 20.121C7.00633 19.8942 7.09922 19.6788 7.25917 19.5217L14.9562 12.0004L7.25917 4.4792C7.09894 4.32202 7.00587 4.10639 7.00027 3.87935C6.99466 3.6523 7.07699 3.43219 7.22926 3.26693C7.30683 3.18263 7.40036 3.11546 7.50425 3.06955C7.60814 3.02364 7.72019 2.99998 7.83335 3Z" fill="currentColor"/>
</svg>
