<svg width="24" height="24" viewBox="0 0 24 24" fill="none" xmlns="http://www.w3.org/2000/svg">
<path d="M3 5V6.77122L10.738 11.8301L10.7825 11.8485C10.8469 11.8746 10.9459 11.913 11.0726 11.9506C11.396 12.0496 11.732 12.1013 12.0702 12.1041C12.5977 12.1109 13.1143 11.9535 13.5483 11.6536C14.7224 10.837 18.578 8.18712 21 6.52411V5H3ZM12.0756 13.84H12.0664C11.3293 13.8386 10.6011 13.6784 9.9314 13.3703L9.88612 13.3473L3 8.84481V18.2136H20.9969V8.62993C18.6217 10.2615 15.5536 12.3711 14.536 13.081C13.8133 13.5809 12.9543 13.8465 12.0756 13.8415" fill="currentColor"/>
</svg>
