<svg width="24" height="24" viewBox="0 0 24 24" fill="none" xmlns="http://www.w3.org/2000/svg">
<path d="M21.8143 15.7674L18.3286 12.654C18.2415 12.5077 18.1176 12.3864 17.969 12.3022C17.8205 12.2179 17.6524 12.1736 17.4814 12.1736C17.3105 12.1736 17.1424 12.2179 16.9939 12.3022C16.8453 12.3864 16.7214 12.5077 16.6342 12.654C15.7111 13.7781 15.7628 14.0842 14.8389 13.0622C13.9798 12.1185 11.7397 9.89979 10.8782 9.12755C9.8517 8.2092 10.1594 8.25981 11.2885 7.34065C11.4366 7.25488 11.5596 7.13194 11.645 6.98412C11.7305 6.83629 11.7754 6.66874 11.7754 6.49821C11.7754 6.32768 11.7305 6.16014 11.645 6.01231C11.5596 5.86448 11.4366 5.74154 11.2885 5.65578L8.15811 2.184C7.23501 1.16361 5.43804 4.68518 5.38635 5.44925C5.01875 9.10633 13.0862 16.9984 17.4843 18.3266C17.4007 18.9045 17.2327 19.4672 16.9854 19.9968C16.8636 20.3274 16.6451 20.6143 16.3581 20.8204C16.071 21.0266 15.7286 21.1426 15.3747 21.1535C14.761 21.1178 14.1665 20.927 13.6475 20.5992C12.79 20.1861 11.1859 18.3307 9.56287 16.6058C7.898 14.8915 6.23478 13.2108 4.5814 13.161C4.43475 13.1604 4.28853 13.1768 4.1457 13.2099C3.55503 13.2821 3.01113 13.5662 2.61608 14.009C2.22102 14.4518 2.00196 15.0228 2 15.6148C2.05919 16.7256 2.55487 17.7687 3.38014 18.5192L3.96682 17.9062C3.31335 17.3132 2.91458 16.4926 2.85336 15.6148C2.87961 14.8866 3.17501 14.3291 4.3377 14.0344C4.41703 14.0159 4.49829 14.0068 4.57976 14.0075C5.58246 13.9593 7.34496 15.4695 8.94172 17.1837C10.5828 18.898 12.077 20.7323 13.2421 21.3469C13.8853 21.7429 14.6199 21.9677 15.3755 22H15.3903C15.7366 22.001 16.079 21.9276 16.3941 21.7847C16.7092 21.6418 16.9896 21.4329 17.216 21.1722C17.8193 20.3976 18.2014 19.4755 18.3221 18.5029C18.3935 18.5094 18.4649 18.5217 18.5321 18.5233C19.3018 18.4727 22.8424 16.685 21.8143 15.7658" fill="currentColor"/>
</svg>
