<svg width="24" height="24" viewBox="0 0 24 24" fill="none" xmlns="http://www.w3.org/2000/svg">
<path d="M12 0C9.62663 0 7.30655 0.703788 5.33316 2.02236C3.35977 3.34094 1.8217 5.21508 0.913451 7.4078C0.00519933 9.60051 -0.232441 12.0133 0.230582 14.3411C0.693605 16.6689 1.83649 18.807 3.51472 20.4853C5.19295 22.1635 7.33115 23.3064 9.65892 23.7694C11.9867 24.2324 14.3995 23.9948 16.5922 23.0866C18.7849 22.1783 20.6591 20.6402 21.9776 18.6668C23.2962 16.6935 24 14.3734 24 12C24 8.8174 22.7357 5.76515 20.4853 3.51472C18.2348 1.26428 15.1826 0 12 0Z" fill="currentColor"/>
<path d="M16.2675 12.7413L10.2422 16.5064C10.1283 16.5776 9.99732 16.617 9.863 16.6205C9.72868 16.624 9.59586 16.5916 9.47831 16.5265C9.36077 16.4614 9.26278 16.366 9.1945 16.2503C9.12623 16.1345 9.09016 16.0026 9.09003 15.8683V8.33679C9.09005 8.20237 9.12604 8.0704 9.19427 7.95459C9.2625 7.83877 9.36048 7.74332 9.47804 7.67814C9.59561 7.61297 9.72847 7.58044 9.86285 7.58393C9.99722 7.58743 10.1282 7.62682 10.2422 7.69802L16.2675 11.4638C16.3758 11.5315 16.4652 11.6256 16.5271 11.7374C16.589 11.8491 16.6215 11.9748 16.6215 12.1025C16.6215 12.2303 16.589 12.356 16.5271 12.4677C16.4652 12.5794 16.3758 12.6736 16.2675 12.7413Z" fill="white"/>
</svg>
