<svg width="24" height="24" viewBox="0 0 24 24" fill="none" xmlns="http://www.w3.org/2000/svg">
<path fill-rule="evenodd" clip-rule="evenodd" d="M10.4615 2C8.78801 2 7.15206 2.49626 5.76056 3.42603C4.36907 4.35579 3.28453 5.6773 2.6441 7.22345C2.00367 8.76959 1.8361 10.4709 2.16259 12.1123C2.48908 13.7537 3.29497 15.2614 4.47833 16.4447C5.6617 17.6281 7.1694 18.434 8.81078 18.7605C10.4522 19.087 12.1535 18.9194 13.6996 18.279C14.2498 18.0511 14.7714 17.767 15.2572 17.4329L19.3737 21.5494C19.9745 22.1502 20.9486 22.1502 21.5494 21.5494C22.1502 20.9486 22.1502 19.9745 21.5494 19.3737L17.4329 15.2572C17.4545 15.2258 17.4759 15.1942 17.4971 15.1625C18.4268 13.771 18.9231 12.1351 18.9231 10.4615C18.9231 9.35035 18.7042 8.25005 18.279 7.22345C17.8538 6.19685 17.2305 5.26405 16.4448 4.47833C15.659 3.6926 14.7262 3.06933 13.6996 2.6441C12.673 2.21886 11.5727 2 10.4615 2ZM7.47001 5.98439C8.35551 5.39273 9.39657 5.07692 10.4615 5.07692C11.1687 5.07692 11.8689 5.2162 12.5221 5.4868C13.1754 5.7574 13.769 6.15403 14.269 6.65404C14.769 7.15405 15.1657 7.74765 15.4363 8.40094C15.7069 9.05423 15.8462 9.75442 15.8462 10.4615C15.8462 11.5265 15.5304 12.5676 14.9387 13.4531C14.347 14.3386 13.5061 15.0287 12.5221 15.4363C11.5382 15.8438 10.4556 15.9505 9.41106 15.7427C8.36654 15.5349 7.4071 15.0221 6.65405 14.269C5.90099 13.516 5.38816 12.5565 5.18039 11.512C4.97262 10.4675 5.07926 9.38485 5.48681 8.40094C5.89436 7.41703 6.58452 6.57606 7.47001 5.98439Z" fill="currentColor"/>
</svg>
