<svg xmlns="http://www.w3.org/2000/svg" xmlns:xlink="http://www.w3.org/1999/xlink" width="24.94" height="17.123" viewBox="0 0 24.94 17.123"><defs><clipPath id="a"><rect width="24.941" height="17.123" fill="#fff"/></clipPath></defs><g transform="translate(0 0)"><g transform="translate(0 0)" clip-path="url(#a)"><path d="M0,13.046S5.564,14,8.3,11.463c.048-.24-.1-.288-.863-.288s-1.1-.672-.24-1.679c.48-.624-.144-.672-.624-.624S4.222,8.249,4.222,6.954c.816-.1,1.63-.383.719-.959S3.07,4.6,3.118,3.5a.751.751,0,0,0,.767-.335S2.159,1.438,2.542,0c8.2,3.885,8.538,4.173,8.538,4.173l.863.144S12.711.192,17.65.287c1.055.048,3.261.145,5.18,4.845l1.007.336.911.239-1.294.72,1.486.863-2.349.384A13.654,13.654,0,0,1,9.256,17.122,15.448,15.448,0,0,1,0,13.046" transform="translate(0 0)" fill="#fff"/></g></g></svg>