<svg xmlns="http://www.w3.org/2000/svg" xmlns:xlink="http://www.w3.org/1999/xlink" width="20.745" height="20.494" viewBox="0 0 20.745 20.494"><defs><clipPath id="a"><rect width="20.745" height="20.494" fill="#fff"/></clipPath></defs><g transform="translate(0 0)"><g transform="translate(0 0)" clip-path="url(#a)"><path d="M19.908,0H.836A.836.836,0,0,0,0,.836V19.657a.836.836,0,0,0,.836.837H19.908a.837.837,0,0,0,.837-.837V.836A.836.836,0,0,0,19.908,0M6.3,17.043H3.194V7.988H6.3ZM4.794,6.782A1.717,1.717,0,0,1,3.03,5.116,1.717,1.717,0,0,1,4.794,3.451,1.716,1.716,0,0,1,6.557,5.116,1.717,1.717,0,0,1,4.794,6.782m12.911,5.533v4.727H14.6V11.952H14.6a1.742,1.742,0,0,0-1.409-1.891c-1.364,0-1.788.678-1.92,1.13v5.851H8.162V7.988h3.11V9.007a3.2,3.2,0,0,1,3.079-1.324c3.694.385,3.357,4.59,3.354,4.632" transform="translate(0 0)" fill="#fff"/></g></g></svg>