<svg xmlns="http://www.w3.org/2000/svg" xmlns:xlink="http://www.w3.org/1999/xlink" width="21" height="21" viewBox="0 0 21 21"><defs><clipPath id="a"><rect width="21" height="21" transform="translate(0 0)" fill="#fff"/></clipPath></defs><g transform="translate(0 0)"><g clip-path="url(#a)"><path d="M19.382,0H1.618A1.618,1.618,0,0,0,0,1.619V19.45A1.562,1.562,0,0,0,1.618,21H19.382A1.562,1.562,0,0,0,21,19.45V1.619A1.618,1.618,0,0,0,19.382,0M11.03,6.957A2.823,2.823,0,0,0,9.6,6.421a1.719,1.719,0,0,0-1.148.335,1.692,1.692,0,0,0-.326,1.211V8.85H10.8l-.58,2.459h-2.1v8.167H4.771V11.309H3.2V8.85H4.771V7.913a4.6,4.6,0,0,1,.351-2.067A2.938,2.938,0,0,1,6.433,4.511a6.071,6.071,0,0,1,2.514-.459,9.478,9.478,0,0,1,2.7.592Z" fill="#fff"/></g></g></svg>