<svg xmlns="http://www.w3.org/2000/svg" xmlns:xlink="http://www.w3.org/1999/xlink" width="23.451" height="17.218" viewBox="0 0 23.451 17.218"><defs><clipPath id="a"><rect width="23.451" height="17.218" fill="#fff"/></clipPath></defs><g transform="translate(0 0)"><g transform="translate(0 0)" clip-path="url(#a)"><path d="M0,0V2.308L10.083,8.9l.058.024c.084.034.213.084.378.133a4.573,4.573,0,0,0,1.3.2,3.312,3.312,0,0,0,1.926-.587c1.53-1.064,6.554-4.517,9.71-6.684V0ZM11.826,11.519h-.012a6.688,6.688,0,0,1-2.782-.612l-.059-.03L0,5.01V17.218H23.451V4.73c-3.095,2.126-7.093,4.875-8.419,5.8a5.58,5.58,0,0,1-3.206.991" transform="translate(0 0)" fill="#fff"/></g></g></svg>