<svg xmlns="http://www.w3.org/2000/svg" width="30" height="29.637" viewBox="0 0 30 29.637"><path d="M-7606.39-4443.592h-27.581a1.209,1.209,0,0,0-1.209,1.209v27.218a1.209,1.209,0,0,0,1.209,1.21h27.581a1.21,1.21,0,0,0,1.21-1.21v-27.218A1.21,1.21,0,0,0-7606.39-4443.592Zm-19.675,24.646h-4.5v-13.094h4.5Zm-2.182-14.838a2.483,2.483,0,0,1-2.551-2.409,2.483,2.483,0,0,1,2.551-2.408,2.482,2.482,0,0,1,2.55,2.408A2.483,2.483,0,0,1-7628.247-4433.784Zm18.671,8v6.836h-4.5v-7.362h.01c-.054-2.046-1.464-2.734-2.038-2.734-1.973,0-2.586.981-2.778,1.634v8.462h-4.5v-13.094h4.5v1.474c1.391-2.031,3.252-1.914,4.453-1.914C-7609.084-4431.923-7609.572-4425.841-7609.576-4425.782Z" transform="translate(7635.18 4443.592)" fill="#3a393a"/></svg>