<svg id="icon-42" xmlns="http://www.w3.org/2000/svg" xmlns:xlink="http://www.w3.org/1999/xlink" width="86.408" height="84.536" viewBox="0 0 86.408 84.536">
  <defs>
    <clipPath id="clip-path">
      <rect id="Rectangle_1056" data-name="Rectangle 1056" width="86.408" height="84.536" fill="#0583ff"/>
    </clipPath>
  </defs>
  <g id="Group_2199" data-name="Group 2199" transform="translate(0 0)" clip-path="url(#clip-path)">
    <path id="Path_1527" data-name="Path 1527" d="M85.186,37.9A13.947,13.947,0,0,0,70.367,24.019a13.966,13.966,0,0,0-21.68-12.477A18.452,18.452,0,0,0,13.127,18.4a17.691,17.691,0,0,0,.935,5.615,13.849,13.849,0,0,0,.314,27.451v7.954a3.8,3.8,0,0,0,3.743,3.743h4.055V65.2H18.119a3.8,3.8,0,0,0-3.743,3.743v7.954a3.794,3.794,0,0,0,3.743,3.743h4.055V83.6a1.008,1.008,0,0,0,.933.937H62.1a1.007,1.007,0,0,0,.935-.937V80.636h4.055a3.8,3.8,0,0,0,3.745-3.743V68.939A3.8,3.8,0,0,0,67.093,65.2H63.038V63.167h4.055a3.8,3.8,0,0,0,3.745-3.743V51.47h.309A13.4,13.4,0,0,0,85.186,37.9m-81.1,0A11.858,11.858,0,0,1,15.466,26.046a1.138,1.138,0,0,0,.937-1.4,16.131,16.131,0,0,1-1.09-6.082A16.527,16.527,0,0,1,47.6,13.569a.991.991,0,0,0,1.559.469A12.285,12.285,0,0,1,56.8,11.387,11.79,11.79,0,0,1,68.5,25.111.927.927,0,0,0,69.589,26.2a11.85,11.85,0,1,1,1.87,23.551h-.78A3.948,3.948,0,0,0,67.4,47.727H63.35V45.7H67.4a3.794,3.794,0,0,0,3.743-3.743V34A3.794,3.794,0,0,0,67.4,30.258H18.273A3.8,3.8,0,0,0,14.53,34v7.954A3.8,3.8,0,0,0,18.273,45.7H22.33v2.028H18.273A3.8,3.8,0,0,0,15,49.6,11.531,11.531,0,0,1,4.083,37.9m14.19,6.084a1.8,1.8,0,0,1-1.87-1.872V34.158a1.8,1.8,0,0,1,1.87-1.872H67.248a1.8,1.8,0,0,1,1.872,1.872v7.954a1.8,1.8,0,0,1-1.872,1.872ZM24.2,46.011H61.323v2.027H24.2ZM61.166,82.975H24.2V80.948h37.12v2.027Zm7.8-13.726v7.956a1.8,1.8,0,0,1-1.872,1.872H18.119a1.8,1.8,0,0,1-1.872-1.872V69.25a1.8,1.8,0,0,1,1.872-1.872H67.093a1.9,1.9,0,0,1,1.872,1.872m-7.8-3.742H24.2V63.48h37.12v2.028Zm7.8-5.772a1.8,1.8,0,0,1-1.872,1.872H18.119a1.8,1.8,0,0,1-1.872-1.872V51.782a1.8,1.8,0,0,1,1.872-1.872H67.093a1.8,1.8,0,0,1,1.872,1.872Z" transform="translate(1.221 0)" fill="#0583ff"/>
    <path id="Path_1528" data-name="Path 1528" d="M14.191,16.394a1.006,1.006,0,0,0,.937-.937A9.718,9.718,0,0,1,24.8,5.788a1.006,1.006,0,0,0,.937-.935,1.007,1.007,0,0,0-.937-.937A11.516,11.516,0,0,0,13.254,15.458a.9.9,0,0,0,.937.937" transform="translate(7.332 2.167)" fill="#0583ff"/>
    <path id="Path_1529" data-name="Path 1529" d="M38.962,48.252a2.964,2.964,0,1,0,2.964-2.964,2.962,2.962,0,0,0-2.964,2.964m3.9,0a.936.936,0,1,1-.937-.935.9.9,0,0,1,.937.935" transform="translate(21.554 25.054)" fill="#0583ff"/>
    <path id="Path_1530" data-name="Path 1530" d="M36.906,45.289a2.964,2.964,0,1,0,2.962,2.964,3.185,3.185,0,0,0-2.962-2.964m0,3.9a.936.936,0,1,1,.937-.935,1,1,0,0,1-.937.935" transform="translate(18.777 25.054)" fill="#0583ff"/>
    <path id="Path_1531" data-name="Path 1531" d="M40.216,46.594H14.794a.936.936,0,1,0,0,1.872H40.216a1.006,1.006,0,0,0,.937-.937.9.9,0,0,0-.937-.935" transform="translate(7.666 25.776)" fill="#0583ff"/>
    <path id="Path_1532" data-name="Path 1532" d="M41.926,34.041a2.964,2.964,0,1,0,2.964,2.965,3.066,3.066,0,0,0-2.964-2.965m0,3.9a.936.936,0,1,1,.937-.935,1.006,1.006,0,0,1-.937.935" transform="translate(21.554 18.832)" fill="#0583ff"/>
    <path id="Path_1533" data-name="Path 1533" d="M36.906,34.041a2.964,2.964,0,1,0,2.962,2.965,3.064,3.064,0,0,0-2.962-2.965m0,3.9a.936.936,0,1,1,.937-.935,1,1,0,0,1-.937.935" transform="translate(18.777 18.832)" fill="#0583ff"/>
    <path id="Path_1534" data-name="Path 1534" d="M40.216,35.247H14.794a.936.936,0,1,0,0,1.872H40.216a.936.936,0,1,0,0-1.872" transform="translate(7.666 19.499)" fill="#0583ff"/>
    <path id="Path_1535" data-name="Path 1535" d="M41.926,22.694a2.961,2.961,0,0,0-2.964,2.964,2.867,2.867,0,0,0,2.964,2.964,2.964,2.964,0,1,0,0-5.927m0,3.9a.936.936,0,1,1,.937-.937,1.006,1.006,0,0,1-.937.937" transform="translate(21.554 12.555)" fill="#0583ff"/>
    <path id="Path_1536" data-name="Path 1536" d="M36.906,22.694a2.96,2.96,0,0,0-2.964,2.964,2.867,2.867,0,0,0,2.964,2.964,2.964,2.964,0,0,0,0-5.927m0,3.9a.936.936,0,1,1,.937-.937,1,1,0,0,1-.937.937" transform="translate(18.777 12.555)" fill="#0583ff"/>
    <path id="Path_1537" data-name="Path 1537" d="M40.216,24H14.794a.936.936,0,1,0,0,1.872H40.216a1.006,1.006,0,0,0,.937-.935A.9.9,0,0,0,40.216,24" transform="translate(7.666 13.277)" fill="#0583ff"/>
    <path id="Path_1538" data-name="Path 1538" d="M8.332.8a1.4,1.4,0,1,1-1.4,1.4A1.4,1.4,0,0,1,8.332.8" transform="translate(3.833 0.445)" fill="#0583ff"/>
    <path id="Path_1539" data-name="Path 1539" d="M2.107,13.958a1.4,1.4,0,1,1-1.4,1.4,1.4,1.4,0,0,1,1.4-1.4" transform="translate(0.389 7.722)" fill="#0583ff"/>
    <path id="Path_1540" data-name="Path 1540" d="M53.521,37.155a1.4,1.4,0,1,1-1.4,1.4,1.4,1.4,0,0,1,1.4-1.4" transform="translate(28.832 20.555)" fill="#0583ff"/>
    <path id="Path_1541" data-name="Path 1541" d="M43.479.8a1.4,1.4,0,1,1-1.4,1.4,1.4,1.4,0,0,1,1.4-1.4" transform="translate(23.277 0.445)" fill="#0583ff"/>
    <path id="Path_1542" data-name="Path 1542" d="M51.01,51.615a1.4,1.4,0,1,1-1.4,1.4,1.4,1.4,0,0,1,1.4-1.4" transform="translate(27.443 28.554)" fill="#0583ff"/>
    <path id="Path_1543" data-name="Path 1543" d="M5.22,35.95a1.4,1.4,0,1,1-1.4,1.4,1.4,1.4,0,0,1,1.4-1.4" transform="translate(2.111 19.888)" fill="#0583ff"/>
    <path id="Path_1544" data-name="Path 1544" d="M53.839,12.984A4.835,4.835,0,1,0,49,8.149a4.858,4.858,0,0,0,4.835,4.835m0-7.8a2.964,2.964,0,1,1-2.964,2.964,2.96,2.96,0,0,1,2.964-2.964" transform="translate(27.109 1.834)" fill="#0583ff"/>
    <path id="Path_1545" data-name="Path 1545" d="M6.395,42.176a6.395,6.395,0,1,0,6.395,6.395,6.422,6.422,0,0,0-6.395-6.395m0,10.762a4.368,4.368,0,1,1,4.366-4.368,4.463,4.463,0,0,1-4.366,4.368" transform="translate(0 23.332)" fill="#0583ff"/>
  </g>
</svg>
