<svg id="icon-46" xmlns="http://www.w3.org/2000/svg" xmlns:xlink="http://www.w3.org/1999/xlink" width="83.067" height="88.492" viewBox="0 0 83.067 88.492">
  <defs>
    <clipPath id="clip-path">
      <rect id="Rectangle_1095" data-name="Rectangle 1095" width="83.067" height="88.492" transform="translate(0 0)" fill="none"/>
    </clipPath>
  </defs>
  <g id="Group_2287" data-name="Group 2287" clip-path="url(#clip-path)">
    <path id="Path_1634" data-name="Path 1634" d="M74.449,79.721H8.62a.756.756,0,0,1-.757-.755V.756A.757.757,0,0,1,8.62,0H74.449a.757.757,0,0,1,.756.756v78.21a.756.756,0,0,1-.756.755M9.376,78.209H73.693V1.514H9.376Z" fill="#0064ff"/>
    <path id="Path_1635" data-name="Path 1635" d="M8.62,25.636H3.863a.757.757,0,0,1-.756-.757v-11.7a.757.757,0,0,1,.756-.757H8.62a.757.757,0,0,1,.756.757v11.7a.757.757,0,0,1-.756.757m-4-1.514H7.863V13.935H4.62Z" fill="#0064ff"/>
    <path id="Path_1636" data-name="Path 1636" d="M8.62,64.008H3.863a.757.757,0,0,1-.756-.757v-11.7a.757.757,0,0,1,.756-.757H8.62a.757.757,0,0,1,.756.757v11.7a.757.757,0,0,1-.756.757m-4-1.514H7.863V52.307H4.62Z" fill="#0064ff"/>
    <path id="Path_1637" data-name="Path 1637" d="M47.752,53.957H35.314a.757.757,0,0,1-.758-.757V40.069H21.42a.757.757,0,0,1-.757-.757V26.882a.756.756,0,0,1,.757-.757H34.556V12.995a.758.758,0,0,1,.758-.758H47.752a.758.758,0,0,1,.757.758v13.13H61.65a.756.756,0,0,1,.756.757v12.43a.757.757,0,0,1-.756.757H48.509V53.2a.757.757,0,0,1-.757.757M36.07,52.443H46.995V39.312a.757.757,0,0,1,.757-.757H60.893V27.638H47.752a.757.757,0,0,1-.757-.756V13.751H36.07V26.882a.757.757,0,0,1-.756.756H22.177V38.555H35.314a.757.757,0,0,1,.756.757Z" fill="#0064ff"/>
    <path id="Path_1638" data-name="Path 1638" d="M82.312,79.722H.757a.757.757,0,0,1,0-1.513H82.312a.757.757,0,0,1,0,1.513" fill="#0064ff"/>
    <path id="Path_1639" data-name="Path 1639" d="M63.108,88.492H19.957a.757.757,0,1,1,0-1.514H63.108a.757.757,0,1,1,0,1.514" fill="#0064ff"/>
    <path id="Path_1640" data-name="Path 1640" d="M60.551,61.814H22.881a.757.757,0,0,1,0-1.513h37.67a.757.757,0,1,1,0,1.513" fill="#0064ff"/>
    <path id="Path_1641" data-name="Path 1641" d="M60.551,72.049H22.881a.757.757,0,0,1,0-1.514h37.67a.757.757,0,1,1,0,1.514" fill="#0064ff"/>
  </g>
</svg>
