<svg xmlns="http://www.w3.org/2000/svg" width="81.411" height="71.187" viewBox="0 0 81.411 71.187">
  <g id="icon-32" transform="translate(-512.326 -4279.336)">
    <path id="Path_217" data-name="Path 217" d="M117.842,309h-1.281A2.561,2.561,0,0,0,114,311.562v55.075a2.561,2.561,0,0,0,2.562,2.562H144.74a1.259,1.259,0,0,1,1.281,1.281,2.664,2.664,0,0,0,2.562,2.562h10.247a2.664,2.664,0,0,0,2.562-2.562,1.259,1.259,0,0,1,1.281-1.281h28.178a2.561,2.561,0,0,0,2.562-2.562V311.562A2.561,2.561,0,0,0,190.849,309h-1.281" transform="translate(399.326 3976.482)" fill="none" stroke="#0583ff" stroke-linejoin="round" stroke-width="2"/>
    <path id="Path_218" data-name="Path 218" d="M120,362.64s28.178-1.5,32.02,3.842V309.646C149.564,304.522,120,305,120,305Z" transform="translate(401.011 3975.356)" fill="none" stroke="#0583ff" stroke-linecap="round" stroke-linejoin="round" stroke-width="2"/>
    <path id="Path_219" data-name="Path 219" d="M177.021,362.64s-28.178-1.5-32.021,3.842V309.646c2.457-5.123,32.021-4.643,32.021-4.643Z" transform="translate(408.032 3975.356)" fill="none" stroke="#0583ff" stroke-linecap="round" stroke-linejoin="round" stroke-width="2"/>
    <path id="Path_220" data-name="Path 220" d="M154,323h5.123v15.37" transform="translate(410.559 3980.413)" fill="none" stroke="#0583ff" stroke-linecap="round" stroke-linejoin="round" stroke-width="2"/>
    <line id="Line_10" data-name="Line 10" x2="8" transform="translate(565 4320)" fill="none" stroke="#0583ff" stroke-linecap="round" stroke-linejoin="round" stroke-width="2"/>
    <path id="Path_221" data-name="Path 221" d="M159.562,319.281A1.281,1.281,0,1,1,158.281,318a1.283,1.283,0,0,1,1.281,1.281" transform="translate(411.402 3979.009)" fill="#464646" stroke="#0583ff" stroke-width="1"/>
  </g>
</svg>
