<svg xmlns="http://www.w3.org/2000/svg" width="70.784" height="80.975" viewBox="0 0 70.784 80.975">
  <g id="icon-39" transform="translate(-1546.724 -4273.398)">
    <g id="Group_1925" data-name="Group 1925">
      <path id="Path_1215" data-name="Path 1215" d="M381.833,310h14.649a3.184,3.184,0,1,1,0,6.369h1.274a3.184,3.184,0,0,1,0,6.369h-1.274a3.184,3.184,0,1,1,0,6.369h-2.548a3.184,3.184,0,1,1,0,6.369H382.392a5.125,5.125,0,0,1-1.106-.121l-10.918-2.427H364" transform="translate(1209.199 3975.863)" fill="none" stroke="#0583ff" stroke-linecap="round" stroke-linejoin="round" stroke-width="2"/>
      <path id="Path_1216" data-name="Path 1216" d="M363,313.917h2.767a2.549,2.549,0,0,0,1.8-.746l5.806-5.806a5.1,5.1,0,0,1,2.6-1.394l4.856-.971" transform="translate(1208.926 3974.494)" fill="none" stroke="#0583ff" stroke-linecap="round" stroke-linejoin="round" stroke-width="2"/>
      <path id="Path_1217" data-name="Path 1217" d="M344,309h24.2v28.023H355.464" transform="translate(1203.724 3975.589)" fill="none" stroke="#0583ff" stroke-linecap="round" stroke-linejoin="round" stroke-width="2"/>
      <path id="Path_1218" data-name="Path 1218" d="M359.821,325.911A1.911,1.911,0,1,1,357.911,324a1.911,1.911,0,0,1,1.911,1.911" transform="translate(1207.009 3979.696)" fill="#464646" stroke="#0583ff" stroke-width="1"/>
      <path id="Path_1219" data-name="Path 1219" d="M387.19,312.464h-7.643L377,301h6.369c3.821,2.548,6.369,0,6.369,0Z" transform="translate(1212.759 3973.399)" fill="none" stroke="#0583ff" stroke-linecap="round" stroke-linejoin="round" stroke-width="2"/>
      <path id="Path_1220" data-name="Path 1220" d="M379.285,330C372.869,335.473,364,344.438,364,352.928c0,11.256,6.881,19.107,21.654,19.107s21.654-7.85,21.654-19.107c0-8.185-7.7-17.371-14.012-22.928" transform="translate(1209.199 3981.338)" fill="none" stroke="#0583ff" stroke-linecap="round" stroke-linejoin="round" stroke-width="2"/>
      <path id="Path_1221" data-name="Path 1221" d="M377,352.738a4.525,4.525,0,0,0,3.821,2.548h2.548a3.821,3.821,0,0,0,0-7.643h-2.548a3.821,3.821,0,1,1,0-7.643h2.548a4.525,4.525,0,0,1,3.821,2.548" transform="translate(1212.759 3984.076)" fill="none" stroke="#0583ff" stroke-linecap="round" stroke-linejoin="round" stroke-width="2"/>
      <line id="Line_63" data-name="Line 63" y2="2.548" transform="translate(1594.854 4321.528)" fill="none" stroke="#0583ff" stroke-linecap="round" stroke-linejoin="round" stroke-width="2"/>
      <line id="Line_64" data-name="Line 64" y2="2.548" transform="translate(1594.854 4339.361)" fill="none" stroke="#0583ff" stroke-linecap="round" stroke-linejoin="round" stroke-width="2"/>
    </g>
  </g>
</svg>
