<svg id="icon-47" xmlns="http://www.w3.org/2000/svg" xmlns:xlink="http://www.w3.org/1999/xlink" width="91.943" height="91.772" viewBox="0 0 91.943 91.772">
  <defs>
    <clipPath id="clip-path">
      <rect id="Rectangle_1096" data-name="Rectangle 1096" width="91.943" height="91.772" fill="#1068f0"/>
    </clipPath>
  </defs>
  <g id="Group_2289" data-name="Group 2289" transform="translate(0 0)" clip-path="url(#clip-path)">
    <path id="Path_1642" data-name="Path 1642" d="M53.318,42.8a1.538,1.538,0,1,1-1.539,1.537A1.54,1.54,0,0,1,53.318,42.8" transform="translate(35.891 29.664)" fill="#1068f0"/>
    <path id="Path_1643" data-name="Path 1643" d="M52.005,18.875a1.537,1.537,0,1,1-1.537,1.537,1.537,1.537,0,0,1,1.537-1.537" transform="translate(34.982 13.083)" fill="#1068f0"/>
    <path id="Path_1644" data-name="Path 1644" d="M41.306.606a1.537,1.537,0,1,1-1.537,1.537A1.536,1.536,0,0,1,41.306.606" transform="translate(27.566 0.42)" fill="#1068f0"/>
    <path id="Path_1645" data-name="Path 1645" d="M11.025,0A1.538,1.538,0,1,1,9.488,1.539,1.538,1.538,0,0,1,11.025,0" transform="translate(6.577 0)" fill="#1068f0"/>
    <path id="Path_1646" data-name="Path 1646" d="M2.244,15.14A1.538,1.538,0,1,1,.707,16.679,1.538,1.538,0,0,1,2.244,15.14" transform="translate(0.49 10.494)" fill="#1068f0"/>
    <path id="Path_1647" data-name="Path 1647" d="M12.337,42.9A1.538,1.538,0,1,1,10.8,44.434,1.539,1.539,0,0,1,12.337,42.9" transform="translate(7.486 29.734)" fill="#1068f0"/>
    <path id="Path_1648" data-name="Path 1648" d="M4.769,49.862A1.538,1.538,0,1,1,3.23,51.4a1.537,1.537,0,0,1,1.539-1.537" transform="translate(2.239 34.562)" fill="#1068f0"/>
    <path id="Path_1649" data-name="Path 1649" d="M49.482,51.679a1.538,1.538,0,1,1-1.537,1.537,1.537,1.537,0,0,1,1.537-1.537" transform="translate(33.233 35.821)" fill="#1068f0"/>
    <path id="Path_1650" data-name="Path 1650" d="M65.825,83.6H53.008V82.574a1.1,1.1,0,0,0-1.026-1.024h-5.3V78.3a1.1,1.1,0,0,0-1.026-1.026V71.807a34.95,34.95,0,1,0-7.69,0v5.469A1.1,1.1,0,0,0,36.942,78.3V81.55h-5.3a1.1,1.1,0,0,0-1.024,1.024V83.6H17.8a3.247,3.247,0,0,0,0,6.493H65.825a3.244,3.244,0,0,0,3.246-3.246A3.491,3.491,0,0,0,65.825,83.6M8.917,38.141H17.46A48.734,48.734,0,0,0,21.05,55.572a35.92,35.92,0,0,0-3.932,3.247,33.426,33.426,0,0,1-8.2-20.678m8.373-22.729a36.189,36.189,0,0,0,3.93,3.247A47.337,47.337,0,0,0,17.63,36.09H9.084a31.6,31.6,0,0,1,8.205-20.678m48.707,0A31.942,31.942,0,0,1,74.2,36.09H65.651a48.7,48.7,0,0,0-3.588-17.431A36.228,36.228,0,0,0,66,15.412m0,43.407a36.427,36.427,0,0,0-3.933-3.247,47.2,47.2,0,0,0,3.588-17.431H74.2A31.586,31.586,0,0,1,66,58.819M28.227,38.141a78.589,78.589,0,0,0,1.024,12.988,31.692,31.692,0,0,0-6.322,3.247,40.845,40.845,0,0,1-3.247-16.065Zm12.306-33.5V23.1a38.694,38.694,0,0,1-8.889-1.539c1.881-9.57,5.469-15.892,8.889-16.918M51.64,21.734a38.712,38.712,0,0,1-8.887,1.539V4.645c3.418,1.026,7.008,7.348,8.887,17.089M63.6,38.141a46.369,46.369,0,0,1-3.247,16.065,44.3,44.3,0,0,0-6.324-3.247A78.588,78.588,0,0,0,55.057,37.97H63.6ZM59.33,56.256c-2.907,5.982-7.008,10.254-11.964,12.306,3.247-3.932,5.127-10.254,6.151-15.382a31.42,31.42,0,0,1,5.813,3.076m-7.348-5.811a40.139,40.139,0,0,0-9.229-1.537V38.141H53.008q-.262,6.667-1.026,12.3M42.753,36.09V25.323a40.139,40.139,0,0,0,9.229-1.537q.767,5.638,1.026,12.3Zm-2.22-10.767V36.09H30.276a68.99,68.99,0,0,1,1.026-12.3,40.138,40.138,0,0,0,9.231,1.537m0,12.817V48.907A40.138,40.138,0,0,0,31.3,50.445q-.767-5.638-1.026-12.3ZM29.594,53.35c1.026,4.958,2.9,11.451,6.153,15.381-4.785-2.05-9.057-6.493-11.962-12.3a21.233,21.233,0,0,1,5.809-3.076m2.05-.853a38.694,38.694,0,0,1,8.889-1.539V69.586c-3.42-1.024-7.008-7.348-8.889-17.089m11.109-1.368a38.712,38.712,0,0,1,8.887,1.539c-1.879,9.741-5.3,16.063-8.887,17.089Zm18.455,6.324a26.522,26.522,0,0,1,3.249,2.9,32.576,32.576,0,0,1-11.281,7.179,29.146,29.146,0,0,0,8.032-10.083M63.6,36.09H55.057A78.618,78.618,0,0,0,54.033,23.1a31.616,31.616,0,0,0,6.324-3.247A48.216,48.216,0,0,1,63.6,36.09M53.518,20.881C52.494,15.925,50.614,9.43,47.367,5.5c4.785,2.05,9.057,6.493,11.964,12.3a19.056,19.056,0,0,1-5.813,3.076m-23.924,0A37.828,37.828,0,0,1,23.784,17.8C26.69,11.824,30.791,7.55,35.747,5.5,32.5,9.6,30.62,15.925,29.594,20.881M29.252,23.1A78.619,78.619,0,0,0,28.227,36.09H19.682a46.291,46.291,0,0,1,3.247-16.065A43.168,43.168,0,0,0,29.252,23.1M22.074,57.453a28.771,28.771,0,0,0,7.863,10.083,35.3,35.3,0,0,1-11.28-7.179c1.2-1.024,2.221-1.879,3.417-2.9m42.383-43.58c-1.028,1.026-2.221,2.052-3.249,2.905A31.467,31.467,0,0,0,53.176,6.524a31.49,31.49,0,0,1,11.281,7.348M22.074,16.778a26.242,26.242,0,0,1-3.247-2.905A32.639,32.639,0,0,1,30.1,6.7a27.385,27.385,0,0,0-8.031,10.083M40.189,71.807h3.247v5.3H40.189ZM16.607,86.848a1.1,1.1,0,0,1,1.023-1.026H30.449v2.221H17.63a1.279,1.279,0,0,1-1.023-1.2M32.668,83.6h5.3a1.1,1.1,0,0,0,1.024-1.026V79.328h5.3v3.246A1.1,1.1,0,0,0,45.318,83.6h5.3v4.272H32.668Zm33.157,4.272H53.008V85.651H65.825a1.1,1.1,0,0,1,1.024,1.026c0,.853-.511,1.2-1.024,1.2" transform="translate(4.757 1.679)" fill="#1068f0"/>
    <path id="Path_1651" data-name="Path 1651" d="M5.811,34.015a5.81,5.81,0,1,0,0,11.62,5.763,5.763,0,0,0,5.811-5.811,5.658,5.658,0,0,0-5.811-5.809m0,9.57a3.76,3.76,0,1,1,0-7.519,3.76,3.76,0,1,1,0,7.519" transform="translate(0 23.577)" fill="#1068f0"/>
    <path id="Path_1652" data-name="Path 1652" d="M60.458,9.942a7.518,7.518,0,1,0-15.037,0,7.518,7.518,0,1,0,15.037,0m-7.519,5.3a5.3,5.3,0,1,1,5.3-5.3,5.324,5.324,0,0,1-5.3,5.3" transform="translate(31.484 1.679)" fill="#1068f0"/>
  </g>
</svg>
