<svg xmlns="http://www.w3.org/2000/svg" width="80.975" height="80.975" viewBox="0 0 80.975 80.975">
  <g id="icon-27" transform="translate(-1255.027 -4144.746)">
    <path id="Path_1249" data-name="Path 1249" d="M117,262.4V219.1a5.1,5.1,0,0,1,5.1-5.1h12.738" transform="translate(1141.575 3949.579)" fill="none" stroke="#0583ff" stroke-linecap="square" stroke-linejoin="round" stroke-width="2"/>
    <path id="Path_1250" data-name="Path 1250" d="M178.833,262.4V219.1a5.1,5.1,0,0,0-5.1-5.1H161" transform="translate(1153.621 3949.579)" fill="none" stroke="#0583ff" stroke-linecap="square" stroke-linejoin="round" stroke-width="2"/>
    <path id="Path_1251" data-name="Path 1251" d="M186.332,263.643H122.643A7.642,7.642,0,0,1,115,256h30.571v2.548H163.4V256h30.571A7.642,7.642,0,0,1,186.332,263.643Z" transform="translate(1141.027 3961.078)" fill="none" stroke="#0583ff" stroke-linecap="round" stroke-linejoin="round" stroke-width="2"/>
    <path id="Path_1252" data-name="Path 1252" d="M174.994,253.519s.553-14.4-7.337-18.342l-15.9-7.337" transform="translate(1151.091 3953.368)" fill="none" stroke="#0583ff" stroke-linecap="round" stroke-linejoin="round" stroke-width="2"/>
    <path id="Path_1253" data-name="Path 1253" d="M122.009,253.519s-.553-14.4,7.337-18.342l15.9-7.337" transform="translate(1142.944 3953.368)" fill="none" stroke="#0583ff" stroke-linecap="round" stroke-linejoin="round" stroke-width="2"/>
    <path id="Path_1254" data-name="Path 1254" d="M157.7,229.76l1.223,9.783c-7.89-1.972-11.005-7.337-11.005-7.337" transform="translate(1150.04 3953.894)" fill="none" stroke="#0583ff" stroke-linecap="round" stroke-linejoin="round" stroke-width="2"/>
    <path id="Path_1255" data-name="Path 1255" d="M136.663,229.76l-1.223,9.783c7.89-1.972,11.005-7.337,11.005-7.337" transform="translate(1146.623 3953.894)" fill="none" stroke="#0583ff" stroke-linecap="round" stroke-linejoin="round" stroke-width="2"/>
    <path id="Path_1256" data-name="Path 1256" d="M147.92,231.68s2.959,4.378,0,7.337c0,0,2.446,9.508,2.446,13.451" transform="translate(1150.04 3954.42)" fill="none" stroke="#0583ff" stroke-linecap="round" stroke-linejoin="round" stroke-width="2"/>
    <path id="Path_1257" data-name="Path 1257" d="M142.16,252.468c0-3.944,2.446-13.451,2.446-13.451-2.959-2.959,0-7.337,0-7.337" transform="translate(1148.463 3954.42)" fill="none" stroke="#0583ff" stroke-linecap="round" stroke-linejoin="round" stroke-width="2"/>
    <path id="Path_1258" data-name="Path 1258" d="M153.807,231.794c6.9-2.959,7.659-9.2,8.412-15.336.405-3.312.529-6.878-1.069-9.918a12.328,12.328,0,0,0-7.086-5.7,16.233,16.233,0,0,0-10.3,0,12.328,12.328,0,0,0-7.086,5.7c-1.6,3.039-1.474,6.606-1.069,9.918.753,6.135,1.509,12.377,8.412,15.336" transform="translate(1146.599 3945.746)" fill="none" stroke="#0583ff" stroke-linecap="round" stroke-linejoin="round" stroke-width="2"/>
    <path id="Path_1259" data-name="Path 1259" d="M155.285,224v1.579a7.359,7.359,0,0,1-7.337,7.337h-.611A7.359,7.359,0,0,1,140,225.579V224" transform="translate(1147.872 3952.317)" fill="none" stroke="#0583ff" stroke-linecap="round" stroke-linejoin="round" stroke-width="2"/>
  </g>
</svg>
