<svg xmlns="http://www.w3.org/2000/svg" width="81.443" height="81.441" viewBox="0 0 81.443 81.441">
  <g id="icon-24" transform="translate(-801.76 -4146.153)">
    <path id="Path_231" data-name="Path 231" d="M358.683,259.388a94.019,94.019,0,0,1-9.394-11.055c-3.342-4.6-6.744-9.663-8.325-15.194a22.1,22.1,0,0,1,.195-13.537c1.621-4.447,6.291-10.308,11.616-9.743,4.639.493,8.53,4.936,10.489,8.867.908,1.823,1.524,3.958.861,5.883-.9,2.6-3.759,3.942-5.337,6.2-2.011,2.87-1.392,6.572.348,9.41A53.822,53.822,0,0,0,377.719,258.8c2.84,1.739,6.54,2.358,9.41.348,2.253-1.578,3.6-4.442,6.2-5.338,1.925-.663,4.061-.047,5.884.861,3.93,1.96,8.374,5.851,8.866,10.489.566,5.326-5.3,10-9.742,11.616a22.087,22.087,0,0,1-13.537.195c-5.533-1.581-10.6-4.982-15.194-8.324A91.547,91.547,0,0,1,358.683,259.388Z" transform="translate(462.792 3948.63)" fill="none" stroke="#0583ff" stroke-linecap="round" stroke-linejoin="round" stroke-width="2"/>
    <line id="Line_21" data-name="Line 21" x2="2" y2="2" transform="translate(820 4174)" fill="none" stroke="#0583ff" stroke-linecap="round" stroke-linejoin="round" stroke-width="2"/>
    <line id="Line_22" data-name="Line 22" x2="3" y2="3" transform="translate(853 4207)" fill="none" stroke="#0583ff" stroke-linecap="round" stroke-linejoin="round" stroke-width="2"/>
    <path id="Path_232" data-name="Path 232" d="M352.935,207.321a40.978,40.978,0,0,1,56.523,56.523" transform="translate(466.424 3946.153)" fill="none" stroke="#0583ff" stroke-linecap="round" stroke-linejoin="round" stroke-width="2"/>
    <path id="Path_233" data-name="Path 233" d="M366,222.4a6.4,6.4,0,0,1,6.4-6.4c3.536,0,6.444,1.68,6.4,6.4,0,2.882-3.8,6.685-3.8,6.685L366,239.055h14.089" transform="translate(470.093 3950.366)" fill="none" stroke="#0583ff" stroke-linecap="round" stroke-linejoin="round" stroke-width="2"/>
    <path id="Path_234" data-name="Path 234" d="M389.527,239.055V216L378,232.651h15.37" transform="translate(473.463 3950.366)" fill="none" stroke="#0583ff" stroke-linecap="round" stroke-linejoin="round" stroke-width="2"/>
  </g>
</svg>
