<svg xmlns="http://www.w3.org/2000/svg" width="81.188" height="80.975" viewBox="0 0 81.188 80.975">
  <g id="icon-17" transform="translate(-1253.54 -4018.642)">
    <path id="Path_1284" data-name="Path 1284" d="M162.4,126.476C150.546,102.2,129.017,101,129.017,101c3.821,3.821,1.937,7.085.591,9.738-2.893,5.7-14.237,20.355-14.237,20.355a7.6,7.6,0,0,0-.366,8.12" transform="translate(1140.753 3918.642)" fill="none" stroke="#0583ff" stroke-linecap="round" stroke-linejoin="round" stroke-width="2"/>
    <path id="Path_1285" data-name="Path 1285" d="M117.789,137.285l11.464-7.643a6.26,6.26,0,0,0,8.742,1.6l1.066-.689A6.051,6.051,0,0,0,140.717,122" transform="translate(1141.791 3924.391)" fill="none" stroke="#0583ff" stroke-linecap="round" stroke-linejoin="round" stroke-width="2"/>
    <path id="Path_1286" data-name="Path 1286" d="M129.369,135v7.643l1.274,5.1c-3.821,3.821-3.821,7.643-3.821,12.738h-1.274A2.547,2.547,0,0,0,123,163.023v6.369a1.274,1.274,0,0,0,1.274,1.274h42.035" transform="translate(1143.217 3927.95)" fill="none" stroke="#0583ff" stroke-linecap="round" stroke-linejoin="round" stroke-width="2"/>
    <line id="Line_94" data-name="Line 94" x2="2.548" transform="translate(1273.86 4075.688)" fill="none" stroke="#0583ff" stroke-linecap="round" stroke-linejoin="round" stroke-width="2"/>
    <line id="Line_95" data-name="Line 95" x2="3.821" transform="translate(1270.039 4088.426)" fill="none" stroke="#0583ff" stroke-linecap="round" stroke-linejoin="round" stroke-width="2"/>
    <path id="Path_1287" data-name="Path 1287" d="M170.911,121.894l1.2,6.5h6.369l-8.917,11.464H163.2l-.908-6.019Z" transform="translate(1153.974 3924.362)" fill="none" stroke="#0583ff" stroke-linecap="round" stroke-linejoin="round" stroke-width="2"/>
    <line id="Line_96" data-name="Line 96" y1="10.19" x2="7.643" transform="translate(1309.526 4064.224)" fill="none" stroke="#0583ff" stroke-linecap="round" stroke-linejoin="round" stroke-width="2"/>
    <path id="Path_1288" data-name="Path 1288" d="M167.914,125.706a24.175,24.175,0,1,0,15.659,12.144" transform="translate(1147.324 3925.213)" fill="none" stroke="#0583ff" stroke-linecap="round" stroke-linejoin="round" stroke-width="2"/>
    <path id="Path_1289" data-name="Path 1289" d="M161.949,133.149a14.028,14.028,0,1,0,11.1,8.767" transform="translate(1149.514 3927.403)" fill="none" stroke="#0583ff" stroke-linecap="round" stroke-linejoin="round" stroke-width="2"/>
    <path id="Path_1290" data-name="Path 1290" d="M162.509,147.272a5.1,5.1,0,1,1-8.235-5.918" transform="translate(1151.431 3929.69)" fill="none" stroke="#0583ff" stroke-linecap="round" stroke-linejoin="round" stroke-width="2"/>
  </g>
</svg>
