<svg xmlns="http://www.w3.org/2000/svg" width="81.339" height="81.346" viewBox="0 0 81.339 81.346">
  <g id="icon-28" transform="translate(-1397.347 -4146.02)">
    <path id="Path_1243" data-name="Path 1243" d="M227,247.819l7.636-3.812,12.738,20.381-6.363,3.812" transform="translate(1171.69 3957.795)" fill="none" stroke="#0583ff" stroke-linecap="round" stroke-linejoin="round" stroke-width="2"/>
    <path id="Path_1244" data-name="Path 1244" d="M257.926,248.19l15.269-.009a5.091,5.091,0,0,0,0-10.181l-19.474.009a12.734,12.734,0,0,0-6.413,1.734l-12.3,7.175" transform="translate(1173.883 3956.15)" fill="none" stroke="#0583ff" stroke-linecap="round" stroke-linejoin="round" stroke-width="2"/>
    <path id="Path_1245" data-name="Path 1245" d="M272.4,248.183l22.266-9.77a5.095,5.095,0,1,1,3.9,9.415l-22.509,10.811a12.758,12.758,0,0,1-4.969,1.009h-20a7.62,7.62,0,0,0-3.928,1.089l-4.55,2.731" transform="translate(1175.962 3956.157)" fill="none" stroke="#0583ff" stroke-linecap="round" stroke-linejoin="round" stroke-width="2"/>
    <path id="Path_1246" data-name="Path 1246" d="M273.012,238.19c5.1-3.821,5.1-10.19,5.1-10.19S262.821,228,259,240.738" transform="translate(1180.452 3953.412)" fill="none" stroke="#0583ff" stroke-linecap="round" stroke-linejoin="round" stroke-width="2"/>
    <path id="Path_1247" data-name="Path 1247" d="M263.107,239.916C259.285,231,244,231,244,231a7.89,7.89,0,0,0,2.548,5.1" transform="translate(1176.345 3954.234)" fill="none" stroke="#0583ff" stroke-linecap="round" stroke-linejoin="round" stroke-width="2"/>
    <ellipse id="Ellipse_10" data-name="Ellipse 10" cx="16.559" cy="16.559" rx="16.559" ry="16.559" transform="translate(1422.893 4147.02)" fill="none" stroke="#0583ff" stroke-linecap="round" stroke-linejoin="round" stroke-width="2"/>
    <line id="Line_78" data-name="Line 78" y2="11.464" transform="translate(1439.452 4180.139)" fill="none" stroke="#0583ff" stroke-linecap="round" stroke-linejoin="round" stroke-width="2"/>
    <path id="Path_1248" data-name="Path 1248" d="M255,220.738a4.525,4.525,0,0,0,3.821,2.548h2.548a3.821,3.821,0,0,0,0-7.643h-2.548a3.821,3.821,0,1,1,0-7.643h2.548a4.525,4.525,0,0,1,3.821,2.548" transform="translate(1179.357 3947.937)" fill="none" stroke="#0583ff" stroke-linecap="round" stroke-linejoin="round" stroke-width="2"/>
    <line id="Line_79" data-name="Line 79" y2="2.548" transform="translate(1439.452 4153.389)" fill="none" stroke="#0583ff" stroke-linecap="round" stroke-linejoin="round" stroke-width="2"/>
    <line id="Line_80" data-name="Line 80" y2="2.548" transform="translate(1439.452 4171.222)" fill="none" stroke="#0583ff" stroke-linecap="round" stroke-linejoin="round" stroke-width="2"/>
  </g>
</svg>
