<svg xmlns="http://www.w3.org/2000/svg" width="81.411" height="81.411" viewBox="0 0 81.411 81.411">
  <g id="icon-05" transform="translate(-946.525 -3889.99)">
    <line id="Line_52" data-name="Line 52" x2="15" transform="translate(976 3925)" fill="none" stroke="#0583ff" stroke-linecap="round" stroke-linejoin="round" stroke-width="2"/>
    <line id="Line_53" data-name="Line 53" x2="15" transform="translate(976 3936)" fill="none" stroke="#0583ff" stroke-linecap="round" stroke-linejoin="round" stroke-width="2"/>
    <line id="Line_54" data-name="Line 54" x2="37" transform="translate(976 3946)" fill="none" stroke="#0583ff" stroke-linecap="round" stroke-linejoin="round" stroke-width="2"/>
    <line id="Line_55" data-name="Line 55" x2="37" transform="translate(976 3956)" fill="none" stroke="#0583ff" stroke-linecap="round" stroke-linejoin="round" stroke-width="2"/>
    <rect id="Rectangle_46" data-name="Rectangle 46" width="15" height="11" transform="translate(998 3925)" fill="none" stroke="#0583ff" stroke-linecap="round" stroke-linejoin="round" stroke-width="2"/>
    <rect id="Rectangle_47" data-name="Rectangle 47" width="37" height="10" transform="translate(976 3905)" fill="none" stroke="#0583ff" stroke-linecap="round" stroke-linejoin="round" stroke-width="2"/>
    <path id="Path_267" data-name="Path 267" d="M460.685,80.411h61.479a10.247,10.247,0,0,0,10.247-10.247V3.562A2.561,2.561,0,0,0,529.849,1H470.931a2.561,2.561,0,0,0-2.562,2.562V72.726a7.685,7.685,0,0,1-15.37,0V25.245h6.4" transform="translate(494.525 3889.99)" fill="none" stroke="#0583ff" stroke-linecap="square" stroke-linejoin="round" stroke-width="2"/>
  </g>
</svg>
