<svg xmlns="http://www.w3.org/2000/svg" width="80.975" height="80.975" viewBox="0 0 80.975 80.975">
  <g id="icon-26" transform="translate(-1109.815 -4146.02)">
    <path id="Path_1260" data-name="Path 1260" d="M23.806,201H48.172a6.369,6.369,0,0,1,5.271,9.944L40.206,230.452a5.1,5.1,0,0,1-8.432,0L18.537,210.944A6.368,6.368,0,0,1,23.806,201Z" transform="translate(1114.313 3946.02)" fill="none" stroke="#0583ff" stroke-linecap="round" stroke-linejoin="round" stroke-width="2"/>
    <path id="Path_1261" data-name="Path 1261" d="M45.4,209.69A7.425,7.425,0,0,0,39.613,207H29.13a7.424,7.424,0,0,0-5.791,2.69" transform="translate(1115.932 3947.663)" fill="none" stroke="#0583ff" stroke-linecap="round" stroke-linejoin="round" stroke-width="2"/>
    <path id="Path_1262" data-name="Path 1262" d="M17.274,207,16,238.845l16.559-3.821" transform="translate(1113.922 3947.663)" fill="none" stroke="#0583ff" stroke-linecap="round" stroke-linejoin="round" stroke-width="2"/>
    <path id="Path_1263" data-name="Path 1263" d="M50.285,207l1.274,31.845L35,235.023" transform="translate(1119.124 3947.663)" fill="none" stroke="#0583ff" stroke-linecap="round" stroke-linejoin="round" stroke-width="2"/>
    <path id="Path_1264" data-name="Path 1264" d="M25.2,276.058H3.548A2.548,2.548,0,0,1,1,273.511V215.073a5.1,5.1,0,0,1,3.86-4.944L21.381,206" transform="translate(1109.815 3947.389)" fill="none" stroke="#0583ff" stroke-linecap="square" stroke-linejoin="round" stroke-width="2"/>
    <path id="Path_1265" data-name="Path 1265" d="M49.19,206l16.521,4.13a5.1,5.1,0,0,1,3.86,4.944v58.437a2.547,2.547,0,0,1-2.548,2.548H39" transform="translate(1120.219 3947.389)" fill="none" stroke="#0583ff" stroke-linecap="square" stroke-linejoin="round" stroke-width="2"/>
    <line id="Line_81" data-name="Line 81" x2="3.821" transform="translate(1151.577 4192.876)" fill="none" stroke="#0583ff" stroke-linecap="round" stroke-linejoin="round" stroke-width="2"/>
    <path id="Path_1266" data-name="Path 1266" d="M26,230l2.548,8.916L26,272.035H41.285l-2.548-33.118L41.285,230" transform="translate(1116.66 3953.96)" fill="none" stroke="#0583ff" stroke-linecap="round" stroke-linejoin="round" stroke-width="2"/>
  </g>
</svg>
