<svg xmlns="http://www.w3.org/2000/svg" xmlns:xlink="http://www.w3.org/1999/xlink" width="87.453" height="84.183" viewBox="0 0 87.453 84.183">
  <defs>
    <clipPath id="clip-path">
      <rect id="Rectangle_1098" data-name="Rectangle 1098" width="87.453" height="84.183" fill="#1068f0"/>
    </clipPath>
  </defs>
  <g id="icon-49" transform="translate(0 0)">
    <g id="Group_2293" data-name="Group 2293" transform="translate(0 0)" clip-path="url(#clip-path)">
      <path id="Path_1671" data-name="Path 1671" d="M48.54,16.867a.946.946,0,1,0-.311,1.867,17.277,17.277,0,0,1,11.516,7.625,1.013,1.013,0,1,0,1.71-1.088,18.8,18.8,0,0,0-12.915-8.4" transform="translate(25.686 9.119)" fill="#1068f0"/>
      <path id="Path_1672" data-name="Path 1672" d="M6.814,28.287a.913.913,0,0,0,.779-1.09,21.3,21.3,0,0,1,39.058-14.16,1.014,1.014,0,1,0,1.711-1.088A23.233,23.233,0,0,0,5.725,27.354a1.041,1.041,0,0,0,1.088.933" transform="translate(2.988 0.656)" fill="#1068f0"/>
      <path id="Path_1673" data-name="Path 1673" d="M69.516,28.3a13.935,13.935,0,0,0-21.63-12.449A18.409,18.409,0,0,0,12.407,22.7a17.664,17.664,0,0,0,.933,5.6,13.853,13.853,0,0,0,1.4,27.542h15.4v8.4a3.357,3.357,0,0,1-2.957,3.267,5,5,0,0,0-4.824-3.89,4.824,4.824,0,0,0,0,9.648,5,5,0,0,0,4.824-3.891,5.289,5.289,0,0,0,4.981-5.289v-8.4h6.845V72.808a3.355,3.355,0,0,1-2.957,3.267,5,5,0,0,0-4.824-3.89,4.824,4.824,0,0,0,0,9.648,5,5,0,0,0,4.824-3.891,5.287,5.287,0,0,0,4.981-5.289V55.535h5.914V72.653a5.286,5.286,0,0,0,4.978,5.289,5,5,0,0,0,4.824,3.891,4.824,4.824,0,0,0,0-9.648,5,5,0,0,0-4.824,3.89,3.232,3.232,0,0,1-2.957-3.267V55.691h6.848v8.559A5.288,5.288,0,0,0,60.8,69.54a5,5,0,0,0,4.824,3.891,4.825,4.825,0,0,0,0-9.649A5,5,0,0,0,60.8,67.673,3.231,3.231,0,0,1,57.845,64.4V56H70.76A13.881,13.881,0,0,0,84.61,42.154,14.254,14.254,0,0,0,69.516,28.3m-46.995,43.1a2.956,2.956,0,0,1,0-5.912,2.861,2.861,0,0,1,2.957,2.957,3.056,3.056,0,0,1-2.957,2.955m8.714,8.871a2.957,2.957,0,0,1,0-5.914,2.861,2.861,0,0,1,2.957,2.957,3.061,3.061,0,0,1-2.957,2.957m25.209-5.914a2.957,2.957,0,1,1-2.957,2.957,3.06,3.06,0,0,1,2.957-2.957m8.871-8.714a2.956,2.956,0,1,1-2.957,2.957,2.861,2.861,0,0,1,2.957-2.957m5.134-11.67H57.534V42.309a.933.933,0,1,0-1.867,0V53.98H48.82V47.133a.933.933,0,1,0-1.867,0V53.98H41.039V47.133a.933.933,0,1,0-1.867,0V53.98H32.324V42.309a.933.933,0,1,0-1.865,0V53.98H15.051a11.836,11.836,0,0,1,0-23.652,1.138,1.138,0,0,0,.936-1.4,16.109,16.109,0,0,1-1.09-6.068,16.489,16.489,0,0,1,32.21-4.98.989.989,0,0,0,1.556.467A12.257,12.257,0,0,1,56.288,15.7,11.765,11.765,0,0,1,67.96,29.393a.925.925,0,0,0,1.088,1.09,11.857,11.857,0,0,1,13.695,11.67c-.467,6.379-5.76,11.826-12.295,11.826" transform="translate(0.82 2.351)" fill="#1068f0"/>
      <path id="Path_1674" data-name="Path 1674" d="M25.165,9.109a1,1,0,0,0-.934-.933A11.488,11.488,0,0,0,12.718,19.691a.933.933,0,0,0,1.867,0,9.7,9.7,0,0,1,9.646-9.648,1,1,0,0,0,.934-.934" transform="translate(6.889 4.428)" fill="#1068f0"/>
      <path id="Path_1675" data-name="Path 1675" d="M7.658,0a1.4,1.4,0,1,1-1.4,1.4A1.4,1.4,0,0,1,7.658,0" transform="translate(3.39 -0.001)" fill="#1068f0"/>
      <path id="Path_1676" data-name="Path 1676" d="M38.645,1.211a1.4,1.4,0,1,1-1.4,1.4,1.4,1.4,0,0,1,1.4-1.4" transform="translate(20.175 0.655)" fill="#1068f0"/>
      <path id="Path_1677" data-name="Path 1677" d="M56.308,13.828a1.4,1.4,0,1,1-1.4,1.4,1.4,1.4,0,0,1,1.4-1.4" transform="translate(29.742 7.49)" fill="#1068f0"/>
      <path id="Path_1678" data-name="Path 1678" d="M2.713,13.223a1.4,1.4,0,1,1-1.4,1.4,1.4,1.4,0,0,1,1.4-1.4" transform="translate(0.711 7.162)" fill="#1068f0"/>
      <path id="Path_1679" data-name="Path 1679" d="M55,39.062a1.4,1.4,0,1,1-1.4,1.4,1.4,1.4,0,0,1,1.4-1.4" transform="translate(29.032 21.158)" fill="#1068f0"/>
      <path id="Path_1680" data-name="Path 1680" d="M37.674,25.839a.933.933,0,1,1-.933.933.932.932,0,0,1,.933-.933" transform="translate(19.902 13.996)" fill="#1068f0"/>
      <path id="Path_1681" data-name="Path 1681" d="M21.12,25.839a.933.933,0,1,1-.934.933.933.933,0,0,1,.934-.933" transform="translate(10.934 13.996)" fill="#1068f0"/>
      <path id="Path_1682" data-name="Path 1682" d="M49.345,49.155a1.4,1.4,0,1,1-1.4,1.4,1.4,1.4,0,0,1,1.4-1.4" transform="translate(25.971 26.625)" fill="#1068f0"/>
      <path id="Path_1683" data-name="Path 1683" d="M11.494,39.667a1.4,1.4,0,1,1-1.4,1.4,1.4,1.4,0,0,1,1.4-1.4" transform="translate(5.468 21.486)" fill="#1068f0"/>
      <path id="Path_1684" data-name="Path 1684" d="M4.529,52.284a1.4,1.4,0,1,1-1.4,1.4,1.4,1.4,0,0,1,1.4-1.4" transform="translate(1.695 28.32)" fill="#1068f0"/>
      <path id="Path_1685" data-name="Path 1685" d="M52.872,16.115a6.906,6.906,0,0,0,6.847-6.847,6.846,6.846,0,1,0-13.692,0,6.806,6.806,0,0,0,6.845,6.847m0-11.67a4.824,4.824,0,1,1-4.824,4.824,4.659,4.659,0,0,1,4.824-4.824" transform="translate(24.932 1.311)" fill="#1068f0"/>
      <path id="Path_1686" data-name="Path 1686" d="M4.824,40.273A4.824,4.824,0,1,0,9.648,45.1a4.848,4.848,0,0,0-4.824-4.824m0,7.781a2.956,2.956,0,1,1,0-5.912A2.861,2.861,0,0,1,7.781,45.1a2.955,2.955,0,0,1-2.957,2.957" transform="translate(0 21.814)" fill="#1068f0"/>
    </g>
  </g>
</svg>
