<svg xmlns="http://www.w3.org/2000/svg" xmlns:xlink="http://www.w3.org/1999/xlink" width="88.553" height="84.536" viewBox="0 0 88.553 84.536">
  <defs>
    <clipPath id="clip-path">
      <rect id="Rectangle_1054" data-name="Rectangle 1054" width="88.553" height="84.536" transform="translate(0 0)" fill="none"/>
    </clipPath>
  </defs>
  <g id="icon-41" transform="translate(0 0)">
    <g id="Group_2197" data-name="Group 2197" clip-path="url(#clip-path)">
      <path id="Path_1522" data-name="Path 1522" d="M37.589,75.129a.757.757,0,0,1-.535-.221C27.982,65.842,18.6,56.466,11.661,47.221,3.814,36.765,0,27.587,0,19.16A19.189,19.189,0,0,1,19.172,0c9.466,0,14.2,4.9,18.417,12.9C41.8,4.9,46.542,0,56.006,0A19.19,19.19,0,0,1,75.18,19.16c0,.1,0,.2,0,.3s0,.181,0,.272a.758.758,0,0,1-1.072.689,22.193,22.193,0,0,0-21.672,38.57.758.758,0,0,1,.13,1.144c-4.413,4.743-8.955,9.3-14.434,14.772a.76.76,0,0,1-.535.22M19.172,1.514A17.672,17.672,0,0,0,1.514,19.16c0,8.087,3.714,16.968,11.357,27.153,6.74,8.978,15.85,18.126,24.719,26.99,4.988-4.98,9.2-9.216,13.268-13.562a23.713,23.713,0,0,1,22.8-41.156A17.677,17.677,0,0,0,56.006,1.514c-9.236,0-13.5,4.908-17.74,13.385a.757.757,0,0,1-1.353,0c-4.242-8.477-8.5-13.385-17.741-13.385" fill="#0064ff"/>
      <path id="Path_1523" data-name="Path 1523" d="M64.832,64.291a23.7,23.7,0,1,1,23.721-23.7,23.731,23.731,0,0,1-23.721,23.7m0-45.881A22.185,22.185,0,1,0,87.039,40.594,22.217,22.217,0,0,0,64.832,18.41" fill="#0064ff"/>
      <path id="Path_1524" data-name="Path 1524" d="M55.971,47.637a.759.759,0,0,1-.655-.378L51.03,39.836H46.416a.757.757,0,0,1,0-1.514h5.05a.757.757,0,0,1,.656.378l3.591,6.22,3.2-11.961a.757.757,0,0,1,1.387-.182l4.182,7.237L68.03,36.47a.758.758,0,0,1,.915-.12l5.313,3.069h9a.757.757,0,1,1,0,1.514h-9.2a.765.765,0,0,1-.379-.1L68.689,37.95l-3.831,3.831a.756.756,0,0,1-1.19-.157l-3.762-6.509L56.7,47.076a.756.756,0,0,1-.633.554.824.824,0,0,1-.1.007" fill="#0064ff"/>
      <path id="Path_1525" data-name="Path 1525" d="M79.9,75.129H8.64a.757.757,0,1,1,0-1.514H79.9a.757.757,0,1,1,0,1.514" fill="#0064ff"/>
      <path id="Path_1526" data-name="Path 1526" d="M59.775,84.536h-31a.757.757,0,0,1,0-1.514h31a.757.757,0,1,1,0,1.514" fill="#0064ff"/>
    </g>
  </g>
</svg>
