<svg xmlns="http://www.w3.org/2000/svg" width="80.975" height="80.975" viewBox="0 0 80.975 80.975">
  <g id="icon-06" transform="translate(-1109.815 -3891.263)">
    <path id="Path_1327" data-name="Path 1327" d="M76.88,35V68.118a2.547,2.547,0,0,1-2.548,2.548H5.548A2.547,2.547,0,0,1,3,68.118V41.369" transform="translate(1110.363 3900.572)" fill="none" stroke="#0583ff" stroke-linecap="round" stroke-linejoin="round" stroke-width="2"/>
    <path id="Path_1328" data-name="Path 1328" d="M18,8.643V6.1S23.1,1,35.833,1,53.666,6.1,53.666,6.1V8.643" transform="translate(1114.47 3891.263)" fill="none" stroke="#0583ff" stroke-linecap="square" stroke-linejoin="round" stroke-width="2"/>
    <rect id="Rectangle_982" data-name="Rectangle 982" width="10.19" height="12.738" rx="2" transform="translate(1145.208 3935.572)" fill="none" stroke="#0583ff" stroke-linecap="round" stroke-linejoin="round" stroke-width="2"/>
    <path id="Path_1329" data-name="Path 1329" d="M45.582,46.465C60.609,45.39,79.975,40.3,79.975,40.3V13.548A2.547,2.547,0,0,0,77.427,11H3.548A2.547,2.547,0,0,0,1,13.548V40.3s19.365,5.093,34.392,6.168" transform="translate(1109.815 3894.001)" fill="none" stroke="#0583ff" stroke-linecap="round" stroke-linejoin="round" stroke-width="2"/>
  </g>
</svg>
