<svg id="icon-44" xmlns="http://www.w3.org/2000/svg" xmlns:xlink="http://www.w3.org/1999/xlink" width="82.646" height="88.492" viewBox="0 0 82.646 88.492">
  <defs>
    <clipPath id="clip-path">
      <rect id="Rectangle_1093" data-name="Rectangle 1093" width="82.646" height="88.492" transform="translate(0 0)" fill="none"/>
    </clipPath>
  </defs>
  <g id="Group_2283" data-name="Group 2283" clip-path="url(#clip-path)">
    <path id="Path_1618" data-name="Path 1618" d="M46.183,82.6H36.467a.757.757,0,0,1-.756-.757V74.132a33.513,33.513,0,0,1-5.954-1.591L25.9,79.209a.758.758,0,0,1-1.033.277l-8.413-4.848a.759.759,0,0,1-.277-1.035l3.858-6.683a33.6,33.6,0,0,1-4.353-4.355L9,66.427a.756.756,0,0,1-1.034-.278L3.11,57.74a.757.757,0,0,1,.276-1.034l6.676-3.847A33.568,33.568,0,0,1,8.47,46.906H.757A.758.758,0,0,1,0,46.149v-9.7a.758.758,0,0,1,.757-.757H8.474a33.147,33.147,0,0,1,1.588-5.946L3.385,25.888a.757.757,0,0,1-.275-1.034l4.854-8.409A.759.759,0,0,1,9,16.168l6.688,3.862a33.471,33.471,0,0,1,4.353-4.354L16.181,8.992a.759.759,0,0,1,.277-1.035l8.413-4.849a.755.755,0,0,1,1.033.278l3.853,6.669a33,33,0,0,1,5.954-1.586V.756A.757.757,0,0,1,36.467,0h9.716a.757.757,0,0,1,.757.756V8.469a32.966,32.966,0,0,1,5.951,1.586l3.856-6.669a.758.758,0,0,1,1.035-.278L66.2,7.957a.761.761,0,0,1,.352.459.753.753,0,0,1-.075.576L62.61,15.676a33.572,33.572,0,0,1,4.358,4.354l6.681-3.862a.758.758,0,0,1,1.034.277l4.858,8.409a.754.754,0,0,1-.276,1.034l-6.68,3.853a32.641,32.641,0,0,1,1.593,5.947H81.89a.757.757,0,0,1,.757.757v9.7a.757.757,0,0,1-.757.757H74.177a33.232,33.232,0,0,1-1.593,5.953l6.681,3.847a.755.755,0,0,1,.276,1.034l-4.858,8.409a.755.755,0,0,1-1.034.278l-6.681-3.862a33.9,33.9,0,0,1-4.358,4.356L66.473,73.6a.76.76,0,0,1-.277,1.036l-8.414,4.848a.76.76,0,0,1-1.035-.277L52.891,72.54a33.422,33.422,0,0,1-5.951,1.592v7.707a.757.757,0,0,1-.757.757m-8.957-1.514h8.2v-7.6a.757.757,0,0,1,.644-.748,31.765,31.765,0,0,0,6.878-1.84.757.757,0,0,1,.931.327l3.8,6.572,7.1-4.092-3.807-6.586a.757.757,0,0,1,.184-.97A32.237,32.237,0,0,0,66.2,61.115a.754.754,0,0,1,.968-.182l6.585,3.8,4.1-7.1L71.27,53.849a.757.757,0,0,1-.327-.933,31.875,31.875,0,0,0,1.841-6.879.756.756,0,0,1,.748-.645h7.6V37.2h-7.6a.756.756,0,0,1-.749-.646,31.257,31.257,0,0,0-1.839-6.87.756.756,0,0,1,.326-.933l6.583-3.8-4.1-7.1-6.585,3.8a.754.754,0,0,1-.968-.182,32.293,32.293,0,0,0-5.039-5.035.758.758,0,0,1-.183-.97L64.783,8.89,57.68,4.8l-3.8,6.572a.756.756,0,0,1-.931.326,31.408,31.408,0,0,0-6.876-1.831.758.758,0,0,1-.646-.749v-7.6h-8.2v7.6a.759.759,0,0,1-.648.749A31.425,31.425,0,0,0,29.7,11.7a.757.757,0,0,1-.932-.326L24.971,4.8l-7.1,4.092,3.8,6.585a.757.757,0,0,1-.181.97,32.242,32.242,0,0,0-5.033,5.033.753.753,0,0,1-.969.184L8.9,17.858l-4.1,7.1,6.58,3.8a.759.759,0,0,1,.327.933,31.518,31.518,0,0,0-1.837,6.871.756.756,0,0,1-.749.645H1.514v8.19h7.6a.757.757,0,0,1,.749.645,31.588,31.588,0,0,0,1.84,6.879.759.759,0,0,1-.327.933L4.8,57.64l4.1,7.1,6.591-3.8a.754.754,0,0,1,.969.183,32.07,32.07,0,0,0,5.033,5.033.758.758,0,0,1,.181.97l-3.8,6.585,7.1,4.093,3.8-6.572A.758.758,0,0,1,29.7,70.9a31.8,31.8,0,0,0,6.88,1.84.757.757,0,0,1,.646.748Z" fill="#0064ff"/>
    <path id="Path_1619" data-name="Path 1619" d="M41.323,63.37A22.073,22.073,0,1,1,63.415,41.294,22.107,22.107,0,0,1,41.323,63.37m0-42.632A20.559,20.559,0,1,0,61.9,41.294,20.589,20.589,0,0,0,41.323,20.738" fill="#0064ff"/>
    <path id="Path_1620" data-name="Path 1620" d="M45.9,55H36.755A.757.757,0,0,1,36,54.24V46.623H28.374a.757.757,0,0,1-.756-.757V36.728a.757.757,0,0,1,.756-.758H36V28.355a.757.757,0,0,1,.757-.758H45.9a.757.757,0,0,1,.757.758V35.97h7.622a.756.756,0,0,1,.756.758v9.138a.756.756,0,0,1-.756.757H46.657V54.24A.757.757,0,0,1,45.9,55m-8.388-1.514h7.63V45.866a.757.757,0,0,1,.758-.756h7.622V37.484H45.9a.758.758,0,0,1-.758-.756V29.111h-7.63v7.617a.757.757,0,0,1-.757.756H29.132V45.11h7.623a.756.756,0,0,1,.757.756Z" fill="#0064ff"/>
    <path id="Path_1621" data-name="Path 1621" d="M71.7,82.6H10.946a.757.757,0,0,1,0-1.514H71.7a.757.757,0,0,1,0,1.514" fill="#0064ff"/>
    <path id="Path_1622" data-name="Path 1622" d="M57.134,88.492H25.517a.757.757,0,1,1,0-1.514H57.134a.757.757,0,1,1,0,1.514" fill="#0064ff"/>
  </g>
</svg>
