<svg xmlns="http://www.w3.org/2000/svg" xmlns:xlink="http://www.w3.org/1999/xlink" width="88.552" height="88.492" viewBox="0 0 88.552 88.492"><defs><clipPath id="a"><rect width="88.552" height="88.492" transform="translate(0 0)" fill="none"/></clipPath></defs><g transform="translate(0 0)"><g clip-path="url(#a)"><path d="M44.279,66.339a22.1,22.1,0,1,1,22.113-22.1,22.132,22.132,0,0,1-22.113,22.1m0-42.679a20.583,20.583,0,1,0,20.6,20.582,20.616,20.616,0,0,0-20.6-20.582" fill="#0064ff"/><path d="M47.332,60.074H41.22a.757.757,0,0,1-.758-.757V48.056H29.194a.758.758,0,0,1-.759-.757V41.191a.758.758,0,0,1,.759-.758H40.462V29.165a.756.756,0,0,1,.758-.755h6.112a.756.756,0,0,1,.757.755V40.433h11.27a.757.757,0,0,1,.757.758V47.3a.757.757,0,0,1-.757.757H48.089V59.317a.757.757,0,0,1-.757.757M41.976,58.56h4.6V47.3a.757.757,0,0,1,.756-.757H58.6v-4.6H47.332a.756.756,0,0,1-.756-.756V29.924h-4.6V41.191a.757.757,0,0,1-.756.756H29.95v4.6H41.22a.758.758,0,0,1,.756.757Z" fill="#0064ff"/><path d="M44.279,17.934a.758.758,0,0,1-.757-.758V.756a.757.757,0,0,1,1.514,0v16.42a.758.758,0,0,1-.757.758" fill="#0064ff"/><path d="M44.279,17.934a.751.751,0,0,1-.557-.245l-4.243-4.622a.757.757,0,0,1,1.115-1.025l4.242,4.622a.758.758,0,0,1-.557,1.27" fill="#0064ff"/><path d="M44.278,17.934a.758.758,0,0,1-.557-1.268l4.235-4.623a.757.757,0,1,1,1.116,1.024l-4.235,4.622a.757.757,0,0,1-.559.245" fill="#0064ff"/><path d="M57.821,21.564a.756.756,0,0,1-.654-1.136L65.381,6.209a.758.758,0,0,1,1.313.758L58.477,21.185a.756.756,0,0,1-.656.379" fill="#0064ff"/><path d="M57.821,21.564a.757.757,0,0,1-.738-.593l-1.36-6.121a.757.757,0,1,1,1.478-.329l1.359,6.122a.756.756,0,0,1-.574.9.719.719,0,0,1-.165.018" fill="#0064ff"/><path d="M57.822,21.564a.757.757,0,0,1-.228-1.478l5.977-1.891a.757.757,0,1,1,.457,1.444L58.05,21.528a.758.758,0,0,1-.228.036" fill="#0064ff"/><path d="M67.732,31.466a.756.756,0,0,1-.379-1.412l14.229-8.21a.757.757,0,1,1,.756,1.311l-14.229,8.21a.756.756,0,0,1-.377.1" fill="#0064ff"/><path d="M67.731,31.466a.768.768,0,0,1-.229-.035.757.757,0,0,1-.494-.949L68.9,24.5a.757.757,0,0,1,1.443.456l-1.891,5.982a.758.758,0,0,1-.721.528" fill="#0064ff"/><path d="M73.858,32.826a.85.85,0,0,1-.165-.018l-6.126-1.359a.757.757,0,1,1,.328-1.478l6.126,1.359a.757.757,0,0,1-.163,1.5" fill="#0064ff"/><path d="M87.795,45H71.364a.757.757,0,0,1,0-1.514H87.795a.757.757,0,1,1,0,1.514" fill="#0064ff"/><path d="M71.365,45a.758.758,0,0,1-.512-1.316l4.625-4.233A.757.757,0,0,1,76.5,40.568L71.875,44.8a.75.75,0,0,1-.51.2" fill="#0064ff"/><path d="M75.989,49.238a.753.753,0,0,1-.512-.2L70.853,44.8a.757.757,0,0,1,1.023-1.117L76.5,47.924a.757.757,0,0,1-.512,1.314" fill="#0064ff"/><path d="M81.96,66.749a.763.763,0,0,1-.378-.1l-14.229-8.21a.757.757,0,1,1,.756-1.312l14.23,8.21a.757.757,0,0,1-.379,1.413" fill="#0064ff"/><path d="M67.73,58.538a.756.756,0,0,1-.163-1.495l6.126-1.36a.757.757,0,0,1,.328,1.478l-6.126,1.36a.723.723,0,0,1-.165.017" fill="#0064ff"/><path d="M69.622,64.513a.759.759,0,0,1-.722-.529L67.009,58.01a.757.757,0,0,1,1.443-.456l1.892,5.973a.76.76,0,0,1-.722.986" fill="#0064ff"/><path d="M66.039,82.66a.76.76,0,0,1-.657-.378l-8.215-14.22a.756.756,0,1,1,1.31-.757l8.217,14.219a.758.758,0,0,1-.655,1.136" fill="#0064ff"/><path d="M63.8,70.33a.757.757,0,0,1-.228-.035l-5.977-1.889a.757.757,0,1,1,.456-1.444l5.978,1.89A.756.756,0,0,1,63.8,70.33" fill="#0064ff"/><path d="M56.462,74.563a.7.7,0,0,1-.164-.018.757.757,0,0,1-.575-.9l1.359-6.122a.757.757,0,1,1,1.478.328L57.2,73.97a.756.756,0,0,1-.738.593" fill="#0064ff"/><path d="M44.279,88.492a.756.756,0,0,1-.757-.757V71.315a.757.757,0,1,1,1.514,0v16.42a.756.756,0,0,1-.757.757" fill="#0064ff"/><path d="M48.515,76.693a.763.763,0,0,1-.559-.245l-4.235-4.622A.757.757,0,1,1,44.837,70.8l4.236,4.622a.756.756,0,0,1-.558,1.268" fill="#0064ff"/><path d="M40.037,76.693a.757.757,0,0,1-.557-1.268L43.723,70.8a.756.756,0,1,1,1.114,1.023L40.6,76.448a.76.76,0,0,1-.558.245" fill="#0064ff"/><path d="M22.513,82.66a.75.75,0,0,1-.377-.1.758.758,0,0,1-.277-1.034l8.216-14.219a.756.756,0,1,1,1.31.757L23.17,82.282a.757.757,0,0,1-.657.378" fill="#0064ff"/><path d="M32.089,74.563a.757.757,0,0,1-.738-.593l-1.36-6.122a.757.757,0,1,1,1.478-.328l1.36,6.122a.757.757,0,0,1-.575.9.713.713,0,0,1-.165.018" fill="#0064ff"/><path d="M24.752,70.33a.757.757,0,0,1-.228-1.478l5.977-1.89a.757.757,0,0,1,.458,1.444L24.98,70.295a.752.752,0,0,1-.228.035" fill="#0064ff"/><path d="M6.593,66.749a.757.757,0,0,1-.379-1.413l14.229-8.21a.757.757,0,0,1,.757,1.312L6.97,66.648a.756.756,0,0,1-.377.1" fill="#0064ff"/><path d="M18.931,64.513a.771.771,0,0,1-.23-.036.755.755,0,0,1-.492-.95l1.89-5.973a.757.757,0,0,1,1.444.456l-1.891,5.974a.757.757,0,0,1-.721.529" fill="#0064ff"/><path d="M20.822,58.538a.7.7,0,0,1-.164-.017l-6.127-1.36a.757.757,0,0,1,.328-1.478l6.127,1.36a.757.757,0,0,1-.164,1.495" fill="#0064ff"/><path d="M17.188,45H.756a.757.757,0,0,1,0-1.514H17.188a.757.757,0,1,1,0,1.514" fill="#0064ff"/><path d="M12.563,49.238a.756.756,0,0,1-.511-1.314l4.625-4.241A.757.757,0,0,1,17.7,44.8l-4.625,4.239a.755.755,0,0,1-.512.2" fill="#0064ff"/><path d="M17.187,45a.753.753,0,0,1-.511-.2l-4.624-4.231a.757.757,0,1,1,1.022-1.117L17.7,43.684a.756.756,0,0,1,.046,1.068.748.748,0,0,1-.559.248" fill="#0064ff"/><path d="M20.821,31.466a.763.763,0,0,1-.378-.1L6.214,23.155a.757.757,0,1,1,.756-1.311l14.23,8.21a.757.757,0,0,1-.379,1.412" fill="#0064ff"/><path d="M14.693,32.826a.757.757,0,0,1-.163-1.5l6.127-1.359a.757.757,0,0,1,.329,1.478l-6.128,1.359a.842.842,0,0,1-.165.018" fill="#0064ff"/><path d="M20.821,31.466a.757.757,0,0,1-.721-.528l-1.891-5.982a.757.757,0,0,1,1.443-.456l1.891,5.982a.756.756,0,0,1-.494.949.747.747,0,0,1-.228.035" fill="#0064ff"/><path d="M30.731,21.564a.756.756,0,0,1-.657-.379L21.859,6.967a.757.757,0,1,1,1.311-.758l8.215,14.219a.759.759,0,0,1-.277,1.035.746.746,0,0,1-.377.1" fill="#0064ff"/><path d="M30.73,21.564a.76.76,0,0,1-.229-.036l-5.978-1.889a.757.757,0,0,1,.456-1.444l5.979,1.891a.757.757,0,0,1-.228,1.478" fill="#0064ff"/><path d="M30.731,21.564a.707.707,0,0,1-.165-.018.758.758,0,0,1-.576-.9l1.36-6.122a.757.757,0,1,1,1.478.329l-1.36,6.121a.755.755,0,0,1-.737.593" fill="#0064ff"/></g></g></svg>