<svg xmlns="http://www.w3.org/2000/svg" xmlns:xlink="http://www.w3.org/1999/xlink" width="50" height="50" viewBox="0 0 50 50"><defs><clipPath id="a"><rect width="21.235" height="19.655" transform="translate(0 0)" fill="#fff"/></clipPath></defs><g transform="translate(-160)"><g transform="translate(160)"><circle cx="25" cy="25" r="25" fill="#0583ff"/></g><g transform="translate(174 15)"><rect width="4.496" height="13.094" transform="translate(0.237 6.561)" fill="#fff"/><g clip-path="url(#a)"><path d="M2.551,4.816A2.483,2.483,0,0,1,0,2.407,2.482,2.482,0,0,1,2.551,0,2.482,2.482,0,0,1,5.1,2.407a2.483,2.483,0,0,1-2.55,2.409" fill="#fff"/><path d="M21.222,12.819v6.836h-4.5V12.293h.01c-.054-2.046-1.464-2.734-2.038-2.734-1.973,0-2.585.981-2.777,1.634v8.462h-4.5V6.561h4.5V8.035C13.311,6,15.171,6.121,16.372,6.121c5.342.557,4.854,6.638,4.85,6.7" fill="#fff"/></g></g></g></svg>