<svg xmlns="http://www.w3.org/2000/svg" width="81.411" height="81.411" viewBox="0 0 81.411 81.411">
  <g id="icon-31" transform="translate(-367.594 -4274.235)">
    <path id="Rectangle_42" data-name="Rectangle 42" d="M4.139,0H7.86A4.14,4.14,0,0,1,12,4.14V8.86A4.14,4.14,0,0,1,7.86,13H4.139A4.139,4.139,0,0,1,0,8.861V4.139A4.139,4.139,0,0,1,4.139,0Z" transform="translate(390 4312)" fill="none" stroke="#0583ff" stroke-linecap="round" stroke-linejoin="round" stroke-width="2"/>
    <path id="Path_222" data-name="Path 222" d="M38.467,353.331s-.425-6.224-3.837-8.3L30.267,342.7a8.6,8.6,0,0,1-10.076.005l-4.354,2.326c-3.412,2.077-3.837,8.3-3.837,8.3" transform="translate(370.683 3985.945)" fill="none" stroke="#0583ff" stroke-linecap="round" stroke-linejoin="round" stroke-width="2"/>
    <path id="Path_223" data-name="Path 223" d="M69.425,329.178H41.247L31,338.144V303.562A2.562,2.562,0,0,1,33.562,301H69.425a2.562,2.562,0,0,1,2.562,2.562v23.055A2.561,2.561,0,0,1,69.425,329.178Z" transform="translate(376.018 3974.235)" fill="none" stroke="#0583ff" stroke-linecap="round" stroke-linejoin="round" stroke-width="2"/>
    <line id="Line_11" data-name="Line 11" x2="21" transform="translate(417 4286)" fill="none" stroke="#0583ff" stroke-linecap="round" stroke-linejoin="round" stroke-width="2"/>
    <line id="Line_12" data-name="Line 12" x2="11" transform="translate(417 4293)" fill="none" stroke="#0583ff" stroke-linecap="round" stroke-linejoin="round" stroke-width="2"/>
    <line id="Line_13" data-name="Line 13" y2="31" transform="translate(443 4311)" fill="none" stroke="#0583ff" stroke-linecap="square" stroke-linejoin="round" stroke-width="2"/>
    <path id="Path_224" data-name="Path 224" d="M5,363.671V320.123A5.123,5.123,0,0,1,10.123,315H30.616" transform="translate(368.717 3978.167)" fill="none" stroke="#0583ff" stroke-linecap="square" stroke-linejoin="round" stroke-width="2"/>
    <path id="Path_225" data-name="Path 225" d="M72.726,364.685H8.685A7.684,7.684,0,0,1,1,357H31.74v2.562H49.671V357h30.74A7.684,7.684,0,0,1,72.726,364.685Z" transform="translate(367.594 3989.961)" fill="none" stroke="#0583ff" stroke-linecap="round" stroke-linejoin="round" stroke-width="2"/>
  </g>
</svg>
