<svg xmlns="http://www.w3.org/2000/svg" width="78.849" height="81.411" viewBox="0 0 78.849 81.411">
  <g id="icon-02" transform="translate(-513.607 -3889.99)">
    <path id="Path_272" data-name="Path 272" d="M137,22h5.123V39.931" transform="translate(405.785 3895.886)" fill="none" stroke="#0583ff" stroke-linecap="round" stroke-linejoin="round" stroke-width="2"/>
    <line id="Line_58" data-name="Line 58" x2="9" transform="translate(543 3937)" fill="none" stroke="#0583ff" stroke-linecap="round" stroke-linejoin="round" stroke-width="2"/>
    <path id="Path_273" data-name="Path 273" d="M142.842,17.921A1.921,1.921,0,1,1,140.921,16a1.922,1.922,0,0,1,1.921,1.921" transform="translate(406.347 3894.202)" fill="#464646" stroke="#0583ff" stroke-width="1"/>
    <path id="Path_274" data-name="Path 274" d="M152.144,66.017a32.628,32.628,0,1,1,27.671-26.592" transform="translate(399.607 3889.99)" fill="none" stroke="#0583ff" stroke-linecap="round" stroke-linejoin="round" stroke-width="2"/>
    <path id="Path_275" data-name="Path 275" d="M157.685,73.671V72.439l-4.806-5.779a5.286,5.286,0,0,1-.565-.812A19.759,19.759,0,0,1,150,56.421V46.563c0-1.693.16-3.08,1.921-3.08s4.483,2.878,4.483,4.573V28.08a3.2,3.2,0,0,1,6.4,0V42.866a3.2,3.2,0,0,1,6.4,0V45.33a3.2,3.2,0,0,1,6.4,0v2.464a3.2,3.2,0,0,1,6.4,0v8.626a32.564,32.564,0,0,1-2.694,12.614,5.2,5.2,0,0,1-.706,1.2L176.9,72.439v1.232" transform="translate(409.436 3896.729)" fill="none" stroke="#0583ff" stroke-linecap="round" stroke-linejoin="round" stroke-width="2"/>
  </g>
</svg>
