<svg xmlns="http://www.w3.org/2000/svg" width="81.655" height="81.301" viewBox="0 0 81.655 81.301">
  <g id="icon-38" transform="translate(-1397.351 -4273.398)">
    <path id="Path_1222" data-name="Path 1222" d="M261.012,348.13h9.417c4.527-16.606,4.531-21.41,4.531-21.41.725-13.131-4.853-19.359-8.869-22.98-3.018-2.735-5.079-2.74-5.079-2.74s-2.061.005-5.079,2.74c-4.016,3.621-9.594,9.849-8.868,22.98,0,0,0,4.8,4.53,21.41Z" transform="translate(1177.166 3973.398)" fill="none" stroke="#0583ff" stroke-linecap="round" stroke-linejoin="round" stroke-width="2"/>
    <path id="Path_1223" data-name="Path 1223" d="M265.738,306c-1.522,1.109-4.214,1.274-6.369,1.274-2.182,0-4.837-.14-6.369-1.274" transform="translate(1178.809 3974.768)" fill="none" stroke="#0583ff" stroke-linecap="round" stroke-linejoin="round" stroke-width="2"/>
    <ellipse id="Ellipse_5" data-name="Ellipse 5" cx="6.369" cy="6.369" rx="6.369" ry="6.369" transform="translate(1431.809 4290.958)" fill="none" stroke="#0583ff" stroke-linecap="round" stroke-linejoin="round" stroke-width="2"/>
    <path id="Path_1224" data-name="Path 1224" d="M253,338l1.274,6.369h10.19L265.738,338" transform="translate(1178.809 3983.528)" fill="none" stroke="#0583ff" stroke-linecap="round" stroke-linejoin="round" stroke-width="2"/>
    <path id="Path_1225" data-name="Path 1225" d="M248.939,327l-7.188,6.415a5.1,5.1,0,0,0-1.366,6.049l6.006,13.012h3.821" transform="translate(1175.227 3980.517)" fill="none" stroke="#0583ff" stroke-linecap="round" stroke-linejoin="round" stroke-width="2"/>
    <path id="Path_1226" data-name="Path 1226" d="M269.274,327l7.188,6.415a5.1,5.1,0,0,1,1.366,6.049l-6.006,13.012H268" transform="translate(1182.916 3980.517)" fill="none" stroke="#0583ff" stroke-linecap="round" stroke-linejoin="round" stroke-width="2"/>
    <path id="Path_1227" data-name="Path 1227" d="M253.749,363.738a6.35,6.35,0,0,0-10.7-4.648,11.47,11.47,0,0,0-16.052-6.9" transform="translate(1171.691 3987.088)" fill="none" stroke="#0583ff" stroke-linecap="round" stroke-linejoin="round" stroke-width="2"/>
    <path id="Path_1228" data-name="Path 1228" d="M268,363.738a6.349,6.349,0,0,1,10.7-4.648,11.471,11.471,0,0,1,16.053-6.9" transform="translate(1182.916 3987.088)" fill="none" stroke="#0583ff" stroke-linecap="round" stroke-linejoin="round" stroke-width="2"/>
    <path id="Path_1229" data-name="Path 1229" d="M247.088,364.916a15.292,15.292,0,0,1,27.8-.008" transform="translate(1177.191 3988.457)" fill="none" stroke="#0583ff" stroke-linecap="round" stroke-linejoin="round" stroke-width="2"/>
    <path id="Path_1230" data-name="Path 1230" d="M255.643,347v1.274a6.37,6.37,0,0,1-6.369,6.369H248" transform="translate(1177.441 3985.993)" fill="none" stroke="#0583ff" stroke-linecap="round" stroke-linejoin="round" stroke-width="2"/>
    <path id="Path_1231" data-name="Path 1231" d="M262,347v1.274a6.37,6.37,0,0,0,6.369,6.369h1.274" transform="translate(1181.273 3985.993)" fill="none" stroke="#0583ff" stroke-linecap="round" stroke-linejoin="round" stroke-width="2"/>
  </g>
</svg>
