<svg xmlns="http://www.w3.org/2000/svg" width="81.411" height="81.421" viewBox="0 0 81.411 81.421">
  <g id="icon-21" transform="translate(-367.594 -4146.154)">
    <g id="Group_1884" data-name="Group 1884" transform="translate(368.594 4147.154)">
      <path id="Path_246" data-name="Path 246" d="M37,250.545a7.029,7.029,0,0,1,6.938-7.044c3.831,0,6.98,1.928,6.937,7.044,0,3.123-4.119,7.134-4.119,7.134L37,268.476H52.37" transform="translate(9.11 -189.065)" fill="none" stroke="#0583ff" stroke-linecap="round" stroke-linejoin="round" stroke-width="2"/>
      <path id="Path_247" data-name="Path 247" d="M62.738,268.359V243.917L50.25,261.955H66.58" transform="translate(12.83 -188.948)" fill="none" stroke="#0583ff" stroke-linecap="round" stroke-linejoin="round" stroke-width="2"/>
      <path id="Path_248" data-name="Path 248" d="M39.425,280.39a39.661,39.661,0,1,1,40.243-32" transform="translate(-1 -201)" fill="none" stroke="#0583ff" stroke-linecap="round" stroke-linejoin="round" stroke-width="2"/>
      <line id="Line_27" data-name="Line 27" y2="23" transform="translate(39.406 12.846)" fill="none" stroke="#0583ff" stroke-linecap="round" stroke-linejoin="round" stroke-width="2"/>
      <circle id="Ellipse_3" data-name="Ellipse 3" cx="4" cy="4" r="4" transform="translate(35.406 35.846)" fill="none" stroke="#0583ff" stroke-linecap="round" stroke-linejoin="round" stroke-width="2"/>
      <line id="Line_28" data-name="Line 28" y1="7.931" x2="7.931" transform="translate(43.548 27.932)" fill="none" stroke="#0583ff" stroke-linecap="round" stroke-miterlimit="10" stroke-width="2"/>
    </g>
  </g>
</svg>
