<svg xmlns="http://www.w3.org/2000/svg" width="80.986" height="81.012" viewBox="0 0 80.986 81.012">
  <g id="icon-09" transform="translate(-1541.617 -3891.263)">
    <g id="Group_1922" data-name="Group 1922">
      <path id="Path_1307" data-name="Path 1307" d="M395.2,68.749s.576-15-7.643-19.107L371,42" transform="translate(1211.116 3902.489)" fill="none" stroke="#0583ff" stroke-linecap="round" stroke-linejoin="round" stroke-width="2"/>
      <path id="Path_1308" data-name="Path 1308" d="M340.009,68.749s-.576-15,7.643-19.107L364.211,42" transform="translate(1202.628 3902.489)" fill="none" stroke="#0583ff" stroke-linecap="round" stroke-linejoin="round" stroke-width="2"/>
      <path id="Path_1309" data-name="Path 1309" d="M377.19,44l1.274,10.19C370.246,52.136,367,46.548,367,46.548" transform="translate(1210.021 3903.036)" fill="none" stroke="#0583ff" stroke-linecap="round" stroke-linejoin="round" stroke-width="2"/>
      <path id="Path_1310" data-name="Path 1310" d="M355.274,44,354,54.19c8.218-2.055,11.464-7.643,11.464-7.643" transform="translate(1206.461 3903.036)" fill="none" stroke="#0583ff" stroke-linecap="round" stroke-linejoin="round" stroke-width="2"/>
      <path id="Path_1311" data-name="Path 1311" d="M367,46s3.083,4.561,0,7.643c0,0,2.548,9.9,2.548,14.012" transform="translate(1210.021 3903.583)" fill="none" stroke="#0583ff" stroke-linecap="round" stroke-linejoin="round" stroke-width="2"/>
      <path id="Path_1312" data-name="Path 1312" d="M361,67.654c0-4.108,2.548-14.012,2.548-14.012-3.081-3.081,0-7.643,0-7.643" transform="translate(1208.378 3903.583)" fill="none" stroke="#0583ff" stroke-linecap="round" stroke-linejoin="round" stroke-width="2"/>
      <path id="Path_1313" data-name="Path 1313" d="M373.132,46.118c7.191-3.081,7.979-9.585,8.762-15.976.423-3.449.552-7.165-1.113-10.33a12.828,12.828,0,0,0-7.38-5.938,16.9,16.9,0,0,0-10.728,0,12.828,12.828,0,0,0-7.38,5.938c-1.665,3.165-1.536,6.881-1.113,10.33.783,6.391,1.572,12.895,8.762,15.976" transform="translate(1206.436 3894.549)" fill="none" stroke="#0583ff" stroke-linecap="round" stroke-linejoin="round" stroke-width="2"/>
      <path id="Path_1314" data-name="Path 1314" d="M374.285,38v2.548a7.643,7.643,0,0,1-15.285,0V38" transform="translate(1207.83 3901.393)" fill="none" stroke="#0583ff" stroke-linecap="round" stroke-linejoin="round" stroke-width="2"/>
      <path id="Path_1315" data-name="Path 1315" d="M382.81,46.289A22.931,22.931,0,1,0,369.751,9.916" transform="translate(1210.774 3891.263)" fill="none" stroke="#0583ff" stroke-linecap="round" stroke-linejoin="round" stroke-width="2"/>
      <line id="Line_97" data-name="Line 97" y2="2.548" transform="translate(1599.949 3903.727)" fill="none" stroke="#0583ff" stroke-linecap="round" stroke-linejoin="round" stroke-width="2"/>
      <line id="Line_98" data-name="Line 98" y2="2.548" transform="translate(1599.949 3924.108)" fill="none" stroke="#0583ff" stroke-linecap="round" stroke-linejoin="round" stroke-width="2"/>
      <path id="Path_1316" data-name="Path 1316" d="M380,25.375h0a4.471,4.471,0,0,0,4.458,4.458h3.821a4.458,4.458,0,0,0,0-8.916h-3.821a4.458,4.458,0,1,1,0-8.916h3.821a4.472,4.472,0,0,1,4.023,2.542" transform="translate(1213.58 3894.275)" fill="none" stroke="#0583ff" stroke-linecap="round" stroke-linejoin="round" stroke-width="2"/>
    </g>
  </g>
</svg>
