<svg xmlns="http://www.w3.org/2000/svg" xmlns:xlink="http://www.w3.org/1999/xlink" width="72.9" height="88.492" viewBox="0 0 72.9 88.492">
  <defs>
    <clipPath id="clip-path">
      <rect id="Rectangle_1092" data-name="Rectangle 1092" width="72.9" height="88.492" transform="translate(0 0)" fill="none"/>
    </clipPath>
  </defs>
  <g id="icon-43" transform="translate(0 0)">
    <g id="Group_2281" data-name="Group 2281" clip-path="url(#clip-path)">
      <path id="Path_1606" data-name="Path 1606" d="M54.625,88.492H26.519a2.756,2.756,0,0,1-2.754-2.753V79.467H16.673A6.467,6.467,0,0,1,10.214,73V63.767l-3.856-.078A3.2,3.2,0,0,1,3.587,59l5.022-9.458a13.882,13.882,0,0,0,1.611-6.483A27.89,27.89,0,0,1,38.1,15.217h.228A27.834,27.834,0,0,1,62.913,55.711,50.2,50.2,0,0,0,57.38,78.527v7.212a2.757,2.757,0,0,1-2.755,2.753M38.1,16.731A26.373,26.373,0,0,0,11.734,43.056,15.415,15.415,0,0,1,9.947,50.25L4.924,59.706a1.685,1.685,0,0,0,1.461,2.47l4.6.092a.756.756,0,0,1,.741.756V73a4.952,4.952,0,0,0,4.946,4.949h7.848a.757.757,0,0,1,.757.758v7.028a1.242,1.242,0,0,0,1.241,1.239H54.625a1.242,1.242,0,0,0,1.241-1.239V78.527a51.731,51.731,0,0,1,5.7-23.507A26.306,26.306,0,0,0,38.313,16.731Z" fill="#0064ff"/>
      <path id="Path_1607" data-name="Path 1607" d="M38.32,58.911A16.97,16.97,0,1,1,55.305,41.946,16.994,16.994,0,0,1,38.32,58.911m0-32.426A15.456,15.456,0,1,0,53.791,41.946,15.483,15.483,0,0,0,38.32,26.485" fill="#0064ff"/>
      <path id="Path_1608" data-name="Path 1608" d="M38.32,52.534a10.593,10.593,0,1,1,10.6-10.589,10.608,10.608,0,0,1-10.6,10.589m0-19.672a9.079,9.079,0,1,0,9.088,9.083,9.1,9.1,0,0,0-9.088-9.083" fill="#0064ff"/>
      <path id="Path_1609" data-name="Path 1609" d="M34.586,7.352A.757.757,0,0,1,33.83,6.6V.756a.757.757,0,0,1,1.514,0V6.6a.757.757,0,0,1-.758.756" fill="#0064ff"/>
      <path id="Path_1610" data-name="Path 1610" d="M43.866,7.593a.776.776,0,0,1-.2-.026.757.757,0,0,1-.535-.928L44.65,1a.757.757,0,1,1,1.463.392L44.6,7.032a.758.758,0,0,1-.731.561" fill="#0064ff"/>
      <path id="Path_1611" data-name="Path 1611" d="M52.769,10.227a.741.741,0,0,1-.378-.1.758.758,0,0,1-.277-1.035L55.04,4.031a.756.756,0,1,1,1.31.756L53.425,9.848a.758.758,0,0,1-.656.379" fill="#0064ff"/>
      <path id="Path_1612" data-name="Path 1612" d="M60.689,15.068a.758.758,0,0,1-.535-1.292l4.129-4.127a.757.757,0,1,1,1.071,1.07l-4.13,4.127a.755.755,0,0,1-.535.222" fill="#0064ff"/>
      <path id="Path_1613" data-name="Path 1613" d="M67.086,21.793a.757.757,0,0,1-.379-1.413l5.057-2.916a.757.757,0,1,1,.756,1.311l-5.056,2.917a.765.765,0,0,1-.378.1" fill="#0064ff"/>
      <path id="Path_1614" data-name="Path 1614" d="M5.82,28.262a.756.756,0,0,1-.378-.1L.378,25.237a.756.756,0,1,1,.757-1.31L6.2,26.85a.757.757,0,0,1-.38,1.412" fill="#0064ff"/>
      <path id="Path_1615" data-name="Path 1615" d="M10.666,20.348a.754.754,0,0,1-.534-.221L6,15.992a.757.757,0,1,1,1.071-1.069L11.2,19.057a.756.756,0,0,1-.537,1.291" fill="#0064ff"/>
      <path id="Path_1616" data-name="Path 1616" d="M17.4,13.957a.759.759,0,0,1-.656-.378L13.822,8.525a.757.757,0,0,1,1.31-.758l2.926,5.054a.756.756,0,0,1-.276,1.034.746.746,0,0,1-.378.1" fill="#0064ff"/>
      <path id="Path_1617" data-name="Path 1617" d="M25.555,9.526a.758.758,0,0,1-.731-.562L23.316,3.323a.757.757,0,1,1,1.462-.391l1.509,5.64a.759.759,0,0,1-.537.928.769.769,0,0,1-.195.026" fill="#0064ff"/>
    </g>
  </g>
</svg>
