<svg xmlns="http://www.w3.org/2000/svg" width="82.067" height="81.461" viewBox="0 0 82.067 81.461">
  <g id="icon-01" transform="translate(-367.265 -3889.939)">
    <path id="Path_276" data-name="Path 276" d="M80.411,20V69.952a5.124,5.124,0,0,1-5.123,5.123H6.123A5.124,5.124,0,0,1,1,69.952V20" transform="translate(367.594 3895.325)" fill="none" stroke="#0583ff" stroke-linejoin="round" stroke-width="2"/>
    <line id="Line_59" data-name="Line 59" x1="7.632" y2="4.859" transform="translate(368.646 3910.393)" fill="none" stroke="#0583ff" stroke-linecap="round" stroke-linejoin="round" stroke-width="2"/>
    <path id="Path_277" data-name="Path 277" d="M48.458,8.688,37.594,1.81a4.951,4.951,0,0,0-5.427,0L21.37,8.684" transform="translate(373.314 3889.989)" fill="none" stroke="#0583ff" stroke-linecap="round" stroke-linejoin="round" stroke-width="2"/>
    <line id="Line_60" data-name="Line 60" x1="7.631" y1="4.831" transform="translate(440.321 3910.422)" fill="none" stroke="#0583ff" stroke-linecap="round" stroke-linejoin="round" stroke-width="2"/>
    <path id="Path_278" data-name="Path 278" d="M80.347,33.04,43.3,56.494a4.946,4.946,0,0,1-5.426,0L1.041,33.04" transform="translate(367.605 3898.987)" fill="none" stroke="#0583ff" stroke-linecap="round" stroke-linejoin="round" stroke-width="2"/>
    <path id="Path_279" data-name="Path 279" d="M7,37.74V12.123A5.124,5.124,0,0,1,12.123,7H65.918a5.124,5.124,0,0,1,5.123,5.123V37.74" transform="translate(369.279 3891.674)" fill="none" stroke="#0583ff" stroke-linecap="round" stroke-linejoin="round" stroke-width="2"/>
    <path id="Path_280" data-name="Path 280" d="M38.817,48.965a21.989,21.989,0,0,1-13.312-3.848c-6.685-4.932-7.851-14.77-4.086-21.9a16.868,16.868,0,0,1,18.4-8.268c6.95,1.5,12.117,7.5,12.268,14.281.005.206,0,.412.008.619.25,14.71-11.4,9.5-11.4,5.7V22.8" transform="translate(372.731 3893.801)" fill="none" stroke="#0583ff" stroke-linecap="round" stroke-linejoin="round" stroke-width="2"/>
    <path id="Path_281" data-name="Path 281" d="M37.478,21.852a9.34,9.34,0,0,0-6.384.274c-3.969,1.83-5.541,6.754-4.46,10.6a6.362,6.362,0,0,0,4.1,4.371c4.108,1.264,6.449-.993,7.626-3.807" transform="translate(374.699 3895.725)" fill="none" stroke="#0583ff" stroke-linecap="round" stroke-linejoin="round" stroke-width="2"/>
  </g>
</svg>
