<svg xmlns="http://www.w3.org/2000/svg" width="80.986" height="81.012" viewBox="0 0 80.986 81.012">
  <g id="icon-10" transform="translate(-1685.555 -3891.263)">
    <path id="Path_1295" data-name="Path 1295" d="M508.2,68.749s.576-15-7.643-19.107L484,42" transform="translate(1242.053 3902.489)" fill="none" stroke="#0583ff" stroke-linecap="round" stroke-linejoin="round" stroke-width="2"/>
    <path id="Path_1296" data-name="Path 1296" d="M453.009,68.749s-.576-15,7.643-19.107L477.211,42" transform="translate(1233.566 3902.489)" fill="none" stroke="#0583ff" stroke-linecap="round" stroke-linejoin="round" stroke-width="2"/>
    <path id="Path_1297" data-name="Path 1297" d="M490.19,44l1.274,10.19C483.246,52.136,480,46.548,480,46.548" transform="translate(1240.958 3903.036)" fill="none" stroke="#0583ff" stroke-linecap="round" stroke-linejoin="round" stroke-width="2"/>
    <path id="Path_1298" data-name="Path 1298" d="M468.274,44,467,54.19c8.218-2.055,11.464-7.643,11.464-7.643" transform="translate(1237.399 3903.036)" fill="none" stroke="#0583ff" stroke-linecap="round" stroke-linejoin="round" stroke-width="2"/>
    <path id="Path_1299" data-name="Path 1299" d="M480,46s3.083,4.561,0,7.643c0,0,2.548,9.9,2.548,14.012" transform="translate(1240.958 3903.583)" fill="none" stroke="#0583ff" stroke-linecap="round" stroke-linejoin="round" stroke-width="2"/>
    <path id="Path_1300" data-name="Path 1300" d="M474,67.654c0-4.108,2.548-14.012,2.548-14.012-3.081-3.081,0-7.643,0-7.643" transform="translate(1239.316 3903.583)" fill="none" stroke="#0583ff" stroke-linecap="round" stroke-linejoin="round" stroke-width="2"/>
    <path id="Path_1301" data-name="Path 1301" d="M486.132,46.118c7.191-3.081,7.979-9.585,8.762-15.976.423-3.449.552-7.165-1.113-10.33a12.828,12.828,0,0,0-7.38-5.938,16.9,16.9,0,0,0-10.728,0,12.828,12.828,0,0,0-7.38,5.938c-1.665,3.165-1.536,6.881-1.113,10.33.783,6.391,1.572,12.895,8.762,15.976" transform="translate(1237.374 3894.549)" fill="none" stroke="#0583ff" stroke-linecap="round" stroke-linejoin="round" stroke-width="2"/>
    <path id="Path_1302" data-name="Path 1302" d="M487.285,38v2.548a7.643,7.643,0,1,1-15.285,0V38" transform="translate(1238.768 3901.393)" fill="none" stroke="#0583ff" stroke-linecap="round" stroke-linejoin="round" stroke-width="2"/>
    <path id="Path_1303" data-name="Path 1303" d="M478,11.19V3.548A2.547,2.547,0,0,1,480.548,1h42.035a2.547,2.547,0,0,1,2.548,2.548V30.3a2.547,2.547,0,0,1-2.548,2.548H507.3l-10.19,8.916v-5.1" transform="translate(1240.411 3891.263)" fill="none" stroke="#0583ff" stroke-linecap="square" stroke-linejoin="round" stroke-width="2"/>
    <path id="Path_1304" data-name="Path 1304" d="M492.821,13.911A1.911,1.911,0,1,1,490.911,12a1.911,1.911,0,0,1,1.911,1.911" transform="translate(1243.422 3894.275)" fill="#464646" stroke="#0583ff" stroke-width="1"/>
    <path id="Path_1305" data-name="Path 1305" d="M498.821,13.911A1.911,1.911,0,1,1,496.911,12a1.911,1.911,0,0,1,1.911,1.911" transform="translate(1245.065 3894.275)" fill="#464646" stroke="#0583ff" stroke-width="1"/>
    <path id="Path_1306" data-name="Path 1306" d="M504.821,13.911A1.911,1.911,0,1,1,502.911,12a1.911,1.911,0,0,1,1.911,1.911" transform="translate(1246.708 3894.275)" fill="#464646" stroke="#0583ff" stroke-width="1"/>
  </g>
</svg>
