<svg xmlns="http://www.w3.org/2000/svg" width="81.47" height="81.411" viewBox="0 0 81.47 81.411">
  <g id="icon-13" transform="translate(-657 -4018.071)">
    <g id="Group_1902" data-name="Group 1902">
      <g id="Group_1888" data-name="Group 1888" transform="translate(658.059 4019.071)">
        <path id="Path_254" data-name="Path 254" d="M270.548,167.6H232.123A5.124,5.124,0,0,1,227,162.479V106.123A5.124,5.124,0,0,1,232.123,101h69.164a5.124,5.124,0,0,1,5.123,5.123v56.356a5.124,5.124,0,0,1-5.123,5.123h-2.562" transform="translate(-227 -101)" fill="none" stroke="#0583ff" stroke-linecap="square" stroke-linejoin="round" stroke-width="2"/>
        <line id="Line_41" data-name="Line 41" x2="79" transform="translate(-0.059 13.929)" fill="none" stroke="#0583ff" stroke-linecap="round" stroke-linejoin="round" stroke-width="2"/>
        <path id="Path_255" data-name="Path 255" d="M234.842,106.921A1.921,1.921,0,1,1,232.921,105a1.922,1.922,0,0,1,1.921,1.921" transform="translate(-225.877 -99.877)" fill="#464646" stroke="#0583ff" stroke-width="1"/>
        <path id="Path_256" data-name="Path 256" d="M239.842,106.921A1.921,1.921,0,1,1,237.921,105a1.922,1.922,0,0,1,1.921,1.921" transform="translate(-224.472 -99.877)" fill="#464646" stroke="#0583ff" stroke-width="1"/>
        <path id="Path_257" data-name="Path 257" d="M244.842,106.921A1.921,1.921,0,1,1,242.921,105a1.922,1.922,0,0,1,1.921,1.921" transform="translate(-223.068 -99.877)" fill="#464646" stroke="#0583ff" stroke-width="1"/>
        <rect id="Rectangle_45" data-name="Rectangle 45" width="47" height="7" transform="translate(24.941 23.929)" fill="none" stroke="#0583ff" stroke-linecap="round" stroke-linejoin="round" stroke-width="2"/>
        <path id="Path_258" data-name="Path 258" d="M264.931,148.931H247V131h46.11v15.37" transform="translate(-221.383 -92.575)" fill="none" stroke="#0583ff" stroke-linecap="square" stroke-linejoin="round" stroke-width="2"/>
        <line id="Line_42" data-name="Line 42" x2="11" transform="translate(6.941 38.929)" fill="none" stroke="#0583ff" stroke-linecap="round" stroke-linejoin="round" stroke-width="2"/>
        <line id="Line_43" data-name="Line 43" x2="11" transform="translate(6.941 23.929)" fill="none" stroke="#0583ff" stroke-linecap="round" stroke-linejoin="round" stroke-width="2"/>
        <path id="Path_259" data-name="Path 259" d="M265,136v28.178l7.685-6.4,7.685,12.808,6.4-3.842-7.685-12.808,8.966-2.562Z" transform="translate(-216.329 -91.171)" fill="none" stroke="#0583ff" stroke-linecap="round" stroke-linejoin="round" stroke-width="2"/>
      </g>
    </g>
  </g>
</svg>
