<svg xmlns="http://www.w3.org/2000/svg" width="81.411" height="79.957" viewBox="0 0 81.411 79.957">
  <g id="icon-04" transform="translate(-801.792 -3889.99)">
    <g id="Group_1887" data-name="Group 1887" transform="translate(802.792 3890.99)">
      <path id="Path_268" data-name="Path 268" d="M400.2,1H345.123A5.123,5.123,0,0,0,340,6.123V63.307a1.28,1.28,0,0,0,2.186.906l14.524-14.541H400.2a5.123,5.123,0,0,0,5.123-5.123V6.123A5.123,5.123,0,0,0,400.2,1Z" transform="translate(-340 -1)" fill="none" stroke="#0583ff" stroke-linecap="square" stroke-linejoin="round" stroke-width="2"/>
      <path id="Path_269" data-name="Path 269" d="M406.548,23h1.281a5.124,5.124,0,0,1,5.123,5.123V71.468a1.281,1.281,0,0,1-2.2.89L400.173,61.425h-32.05A5.123,5.123,0,0,1,363,56.3V51.178" transform="translate(-333.541 5.178)" fill="none" stroke="#0583ff" stroke-linecap="square" stroke-linejoin="round" stroke-width="2"/>
    </g>
  </g>
</svg>
