<svg xmlns="http://www.w3.org/2000/svg" width="81.71" height="80.977" viewBox="0 0 81.71 80.977">
  <g id="icon-29" transform="translate(-1541.252 -4146.018)">
    <line id="Line_75" data-name="Line 75" x2="0.005" y2="2.548" transform="translate(1582.116 4147.02)" fill="none" stroke="#0583ff" stroke-linecap="round" stroke-linejoin="round" stroke-width="2"/>
    <path id="Path_1238" data-name="Path 1238" d="M340,230.087a26.769,26.769,0,0,1,25.818,0s13.669-7.528,27.338,0a26.769,26.769,0,0,1,25.818,0" transform="translate(1202.628 3953.068)" fill="none" stroke="#0583ff" stroke-linecap="round" stroke-linejoin="round" stroke-width="2"/>
    <path id="Path_1239" data-name="Path 1239" d="M365.794,210.456a34.229,34.229,0,0,0-5.445,24.09" transform="translate(1208.098 3948.609)" fill="none" stroke="#0583ff" stroke-linecap="round" stroke-linejoin="round" stroke-width="2"/>
    <path id="Path_1240" data-name="Path 1240" d="M377.456,210.456a34.229,34.229,0,0,1,5.445,24.09" transform="translate(1212.883 3948.609)" fill="none" stroke="#0583ff" stroke-linecap="round" stroke-linejoin="round" stroke-width="2"/>
    <path id="Path_1241" data-name="Path 1241" d="M340,236.487c0-18.294,17.679-33.123,39.487-33.123s39.487,14.829,39.487,33.123" transform="translate(1202.628 3946.667)" fill="none" stroke="#0583ff" stroke-linecap="round" stroke-linejoin="round" stroke-width="2"/>
    <path id="Path_1242" data-name="Path 1242" d="M363,261.476a9.05,9.05,0,0,0,7.643,5.1h5.1a7.643,7.643,0,1,0,0-15.285h-5.1a7.643,7.643,0,1,1,0-15.285h5.1a9.05,9.05,0,0,1,7.643,5.1" transform="translate(1208.926 3955.603)" fill="none" stroke="#0583ff" stroke-linecap="round" stroke-linejoin="round" stroke-width="2"/>
    <line id="Line_76" data-name="Line 76" y2="6.369" transform="translate(1582.116 4185.234)" fill="none" stroke="#0583ff" stroke-linecap="round" stroke-linejoin="round" stroke-width="2"/>
    <line id="Line_77" data-name="Line 77" y2="3.821" transform="translate(1582.116 4222.173)" fill="none" stroke="#0583ff" stroke-linecap="round" stroke-linejoin="round" stroke-width="2"/>
  </g>
</svg>
