<svg xmlns="http://www.w3.org/2000/svg" width="80.975" height="80.975" viewBox="0 0 80.975 80.975">
  <g id="icon-16" transform="translate(-1109.815 -4018.642)">
    <path id="Path_1291" data-name="Path 1291" d="M1,140.487H14.777a8.246,8.246,0,0,1-2.3-5.3,8.393,8.393,0,0,1,8.151-8.711,8.273,8.273,0,0,1,6.084,14.01H40.487V126.71a8.273,8.273,0,0,0,14.01-6.084,8.393,8.393,0,0,0-8.711-8.151,8.246,8.246,0,0,0-5.3,2.3V101H6.1A5.1,5.1,0,0,0,1,106.1v26.751" transform="translate(1109.815 3918.642)" fill="none" stroke="#0583ff" stroke-linejoin="round" stroke-width="2"/>
    <path id="Path_1292" data-name="Path 1292" d="M32,101v13.777a8.246,8.246,0,0,1,5.3-2.3,8.393,8.393,0,0,1,8.711,8.151A8.273,8.273,0,0,1,32,126.71v13.777H45.777a8.273,8.273,0,0,0,6.084,14.01,8.393,8.393,0,0,0,8.151-8.711,8.246,8.246,0,0,0-2.3-5.3H71.487V106.1a5.1,5.1,0,0,0-5.1-5.1H39.641" transform="translate(1118.303 3918.642)" fill="none" stroke="#0583ff" stroke-linejoin="round" stroke-width="2"/>
    <path id="Path_1293" data-name="Path 1293" d="M74.5,132H60.722a8.246,8.246,0,0,1,2.3,5.3,8.393,8.393,0,0,1-8.15,8.711A8.273,8.273,0,0,1,48.789,132H35.012v13.777A8.273,8.273,0,0,0,21,151.862a8.393,8.393,0,0,0,8.711,8.15,8.246,8.246,0,0,0,5.3-2.3v13.777H69.4a5.1,5.1,0,0,0,5.1-5.1V139.643" transform="translate(1115.291 3927.129)" fill="none" stroke="#0583ff" stroke-linejoin="round" stroke-width="2"/>
    <path id="Path_1294" data-name="Path 1294" d="M40.487,174.5V160.722a8.246,8.246,0,0,1-5.3,2.3,8.393,8.393,0,0,1-8.711-8.15,8.273,8.273,0,0,1,14.01-6.085V135.012H26.71A8.273,8.273,0,0,0,20.625,121a8.393,8.393,0,0,0-8.15,8.711,8.246,8.246,0,0,0,2.3,5.3H1V169.4a5.1,5.1,0,0,0,5.1,5.1H32.845" transform="translate(1109.815 3924.117)" fill="none" stroke="#0583ff" stroke-linejoin="round" stroke-width="2"/>
  </g>
</svg>
