<svg xmlns="http://www.w3.org/2000/svg" width="81.339" height="81.347" viewBox="0 0 81.339 81.347">
  <g id="icon-40" transform="translate(-1685.222 -4273.398)">
    <path id="Path_1208" data-name="Path 1208" d="M453,347.819l7.636-3.812,12.738,20.381-6.363,3.812" transform="translate(1233.565 3985.173)" fill="none" stroke="#0583ff" stroke-linecap="round" stroke-linejoin="round" stroke-width="2"/>
    <path id="Path_1209" data-name="Path 1209" d="M483.926,348.19l15.268-.009a5.091,5.091,0,1,0,0-10.181l-19.472.009a12.737,12.737,0,0,0-6.414,1.734l-12.3,7.175" transform="translate(1235.759 3983.529)" fill="none" stroke="#0583ff" stroke-linecap="round" stroke-linejoin="round" stroke-width="2"/>
    <path id="Path_1210" data-name="Path 1210" d="M498.4,348.183l22.266-9.77a5.1,5.1,0,1,1,3.9,9.415l-22.509,10.811a12.758,12.758,0,0,1-4.969,1.009h-20a7.62,7.62,0,0,0-3.928,1.089l-4.55,2.731" transform="translate(1237.837 3983.536)" fill="none" stroke="#0583ff" stroke-linecap="round" stroke-linejoin="round" stroke-width="2"/>
    <path id="Path_1211" data-name="Path 1211" d="M468.773,344.31a30.569,30.569,0,1,1,56.147-1.275" transform="translate(1237.125 3973.399)" fill="none" stroke="#0583ff" stroke-linecap="round" stroke-linejoin="round" stroke-width="2"/>
    <path id="Path_1212" data-name="Path 1212" d="M476.056,312.6a122.649,122.649,0,0,0,35.523,0" transform="translate(1239.878 3976.574)" fill="none" stroke="#0583ff" stroke-linecap="round" stroke-linejoin="round" stroke-width="2"/>
    <line id="Line_61" data-name="Line 61" y2="33.118" transform="translate(1733.696 4282.041)" fill="none" stroke="#0583ff" stroke-linecap="round" stroke-linejoin="round" stroke-width="2"/>
    <line id="Line_62" data-name="Line 62" x2="48.404" transform="translate(1709.494 4306.243)" fill="none" stroke="#0583ff" stroke-linecap="round" stroke-linejoin="round" stroke-width="2"/>
    <path id="Path_1213" data-name="Path 1213" d="M484.544,308a36.3,36.3,0,0,0-7.705,22.922,39.7,39.7,0,0,0,1,8.918" transform="translate(1240.093 3975.316)" fill="none" stroke="#0583ff" stroke-linecap="round" stroke-linejoin="round" stroke-width="2"/>
    <path id="Path_1214" data-name="Path 1214" d="M497.112,308a36.3,36.3,0,0,1,7.705,22.922,39.618,39.618,0,0,1-1,8.916" transform="translate(1245.643 3975.316)" fill="none" stroke="#0583ff" stroke-linecap="round" stroke-linejoin="round" stroke-width="2"/>
  </g>
</svg>
