<svg xmlns="http://www.w3.org/2000/svg" width="80.975" height="81.172" viewBox="0 0 80.975 81.172">
  <g id="icon-18" transform="translate(-1397.691 -4018.642)">
    <path id="Path_1272" data-name="Path 1272" d="M262.917,137.1h-6.369a2.548,2.548,0,1,1,0-5.1h6.369a2.548,2.548,0,0,1,0,5.1Z" transform="translate(1179.083 3927.129)" fill="none" stroke="#0583ff" stroke-linecap="round" stroke-linejoin="round" stroke-width="2"/>
    <path id="Path_1273" data-name="Path 1273" d="M256.012,136.464h-6.369A7.642,7.642,0,0,1,242,128.821V125" transform="translate(1175.798 3925.213)" fill="none" stroke="#0583ff" stroke-linecap="round" stroke-linejoin="round" stroke-width="2"/>
    <path id="Path_1274" data-name="Path 1274" d="M243.369,134.285c-3.821,0-6.369-2.579-6.369-5.732v-3.821c0-3.153,2.548-5.732,6.369-5.732" transform="translate(1174.429 3923.57)" fill="none" stroke="#0583ff" stroke-linecap="round" stroke-linejoin="round" stroke-width="2"/>
    <path id="Path_1275" data-name="Path 1275" d="M275,134.285c3.821,0,6.369-2.579,6.369-5.732v-3.821c0-3.153-2.548-5.732-6.369-5.732" transform="translate(1184.833 3923.57)" fill="none" stroke="#0583ff" stroke-linecap="round" stroke-linejoin="round" stroke-width="2"/>
    <path id="Path_1276" data-name="Path 1276" d="M242,131.571v-10.19A20.038,20.038,0,0,1,262.381,101c11.6,0,21.654,8.916,21.654,20.381v17.833" transform="translate(1175.798 3918.642)" fill="none" stroke="#0583ff" stroke-linecap="round" stroke-linejoin="round" stroke-width="2"/>
    <path id="Path_1277" data-name="Path 1277" d="M277.845,121v7.006c0,8.757-5.1,18.47-15.922,18.47S246,136.763,246,128.006V121" transform="translate(1176.893 3924.117)" fill="none" stroke="#0583ff" stroke-linecap="square" stroke-linejoin="round" stroke-width="2"/>
    <path id="Path_1278" data-name="Path 1278" d="M246,118.643c16.813,0,22.928-3.821,25.476-7.643,0,0,0,7.643,6.369,7.643" transform="translate(1176.893 3921.38)" fill="none" stroke="#0583ff" stroke-linecap="square" stroke-linejoin="round" stroke-width="2"/>
    <line id="Line_92" data-name="Line 92" y2="6.369" transform="translate(1427.988 4066.772)" fill="none" stroke="#0583ff" stroke-linecap="round" stroke-linejoin="round" stroke-width="2"/>
    <line id="Line_93" data-name="Line 93" y2="5.095" transform="translate(1448.368 4068.045)" fill="none" stroke="#0583ff" stroke-linecap="round" stroke-linejoin="round" stroke-width="2"/>
    <path id="Path_1279" data-name="Path 1279" d="M295.3,168.476s0-11.464-10.19-16.559L266,143" transform="translate(1182.368 3930.141)" fill="none" stroke="#0583ff" stroke-linecap="round" stroke-linejoin="round" stroke-width="2"/>
    <path id="Path_1280" data-name="Path 1280" d="M227,167.928s0-11.464,10.19-16.559L251.2,145" transform="translate(1171.691 3930.688)" fill="none" stroke="#0583ff" stroke-linecap="round" stroke-linejoin="round" stroke-width="2"/>
    <path id="Path_1281" data-name="Path 1281" d="M246.274,145.548,245,159.559c10.19-2.548,12.738-10.19,12.738-10.19-5.1-1.274-6.369-6.369-6.369-6.369" transform="translate(1176.619 3930.141)" fill="none" stroke="#0583ff" stroke-linecap="round" stroke-linejoin="round" stroke-width="2"/>
    <path id="Path_1282" data-name="Path 1282" d="M272.464,145.548l1.274,14.012c-10.19-2.548-12.738-10.19-12.738-10.19,5.1-1.274,6.369-6.369,6.369-6.369" transform="translate(1181 3930.141)" fill="none" stroke="#0583ff" stroke-linecap="round" stroke-linejoin="round" stroke-width="2"/>
    <path id="Path_1283" data-name="Path 1283" d="M253.744,167.107c1.131-4.964,2.874-10.19,2.874-10.19C252.8,153.1,255.344,148,255.344,148a13.451,13.451,0,0,0,7.643,0s2.548,5.1-1.274,8.917c0,0,1.741,5.225,2.874,10.186" transform="translate(1179.013 3931.51)" fill="none" stroke="#0583ff" stroke-linecap="round" stroke-linejoin="round" stroke-width="2"/>
  </g>
</svg>
