<svg xmlns="http://www.w3.org/2000/svg" width="81.411" height="81.411" viewBox="0 0 81.411 81.411">
  <g id="icon-14" transform="translate(-801.792 -4018.071)">
    <path id="Path_250" data-name="Path 250" d="M401.425,118.931v-8.966L392.459,101H363v17.931" transform="translate(469.251 3918.071)" fill="none" stroke="#0583ff" stroke-linecap="square" stroke-linejoin="round" stroke-width="2"/>
    <path id="Path_251" data-name="Path 251" d="M385,104v3.842a2.561,2.561,0,0,0,2.562,2.562H391.4" transform="translate(475.429 3918.914)" fill="none" stroke="#0583ff" stroke-linejoin="round" stroke-width="2"/>
    <path id="Path_252" data-name="Path 252" d="M349.606,174.794h0A9.634,9.634,0,0,1,340,165.188V130.606a9.606,9.606,0,1,1,19.212,0v34.582A9.634,9.634,0,0,1,349.606,174.794Z" transform="translate(462.792 3923.688)" fill="none" stroke="#0583ff" stroke-linecap="round" stroke-linejoin="round" stroke-width="2"/>
    <path id="Path_253" data-name="Path 253" d="M358,121h51.233a5.123,5.123,0,0,1,5.123,5.123v43.548a5.123,5.123,0,0,1-5.123,5.123H358" transform="translate(467.846 3923.688)" fill="none" stroke="#0583ff" stroke-linecap="square" stroke-linejoin="round" stroke-width="2"/>
    <rect id="Rectangle_44" data-name="Rectangle 44" width="36" height="10" transform="translate(833 4052)" fill="none" stroke="#0583ff" stroke-linecap="round" stroke-linejoin="round" stroke-width="2"/>
    <line id="Line_32" data-name="Line 32" x2="5" transform="translate(838 4080)" fill="none" stroke="#0583ff" stroke-linecap="round" stroke-linejoin="round" stroke-width="2"/>
    <line id="Line_33" data-name="Line 33" x2="5" transform="translate(849 4080)" fill="none" stroke="#0583ff" stroke-linecap="round" stroke-linejoin="round" stroke-width="2"/>
    <line id="Line_34" data-name="Line 34" x2="5" transform="translate(860 4080)" fill="none" stroke="#0583ff" stroke-linecap="round" stroke-linejoin="round" stroke-width="2"/>
    <line id="Line_35" data-name="Line 35" x2="5" transform="translate(838 4089)" fill="none" stroke="#0583ff" stroke-linecap="round" stroke-linejoin="round" stroke-width="2"/>
    <line id="Line_36" data-name="Line 36" x2="5" transform="translate(849 4089)" fill="none" stroke="#0583ff" stroke-linecap="round" stroke-linejoin="round" stroke-width="2"/>
    <line id="Line_37" data-name="Line 37" x2="5" transform="translate(860 4089)" fill="none" stroke="#0583ff" stroke-linecap="round" stroke-linejoin="round" stroke-width="2"/>
    <line id="Line_38" data-name="Line 38" x2="5" transform="translate(838 4068)" fill="none" stroke="#0583ff" stroke-linecap="round" stroke-linejoin="round" stroke-width="2"/>
    <line id="Line_39" data-name="Line 39" x2="5" transform="translate(849 4068)" fill="none" stroke="#0583ff" stroke-linecap="round" stroke-linejoin="round" stroke-width="2"/>
    <line id="Line_40" data-name="Line 40" x2="5" transform="translate(860 4068)" fill="none" stroke="#0583ff" stroke-linecap="round" stroke-linejoin="round" stroke-width="2"/>
  </g>
</svg>
