<svg xmlns="http://www.w3.org/2000/svg" width="81.411" height="81.411" viewBox="0 0 81.411 81.411">
  <g id="icon-23" transform="translate(-657.059 -4146.154)">
    <g id="Group_1890" data-name="Group 1890" transform="translate(658.059 4147.154)">
      <path id="Path_235" data-name="Path 235" d="M262.966,240.123h-6.4a2.562,2.562,0,1,1,0-5.123h6.4a2.562,2.562,0,0,1,0,5.123Z" transform="translate(-219.418 -191.452)" fill="none" stroke="#0583ff" stroke-linecap="round" stroke-linejoin="round" stroke-width="2"/>
      <path id="Path_236" data-name="Path 236" d="M256.089,240.089h-6.4A7.684,7.684,0,0,1,242,232.4V226" transform="translate(-222.788 -193.98)" fill="none" stroke="#0583ff" stroke-linecap="round" stroke-linejoin="round" stroke-width="2"/>
      <path id="Path_237" data-name="Path 237" d="M243.4,235.37c-3.842,0-6.4-2.594-6.4-5.764v-3.842c0-3.17,2.562-5.764,6.4-5.764" transform="translate(-224.192 -195.665)" fill="none" stroke="#0583ff" stroke-linecap="round" stroke-linejoin="round" stroke-width="2"/>
      <path id="Path_238" data-name="Path 238" d="M306.411,268.055v-.179a17.931,17.931,0,0,0-10.256-16.206L282.075,245a21.979,21.979,0,0,1-15.37,6.4c-6.025,0-10.051-2.5-14.089-6.4l-15.361,6.669A17.931,17.931,0,0,0,227,267.875v.179" transform="translate(-227 -188.644)" fill="none" stroke="#0583ff" stroke-linecap="square" stroke-linejoin="round" stroke-width="2"/>
      <path id="Path_239" data-name="Path 239" d="M248.966,245,240,261.651l12.808-2.562" transform="translate(-223.349 -188.644)" fill="none" stroke="#0583ff" stroke-linecap="round" stroke-linejoin="round" stroke-width="2"/>
      <path id="Path_240" data-name="Path 240" d="M271.123,245l7.685,16.651L266,259.089" transform="translate(-216.048 -188.644)" fill="none" stroke="#0583ff" stroke-linecap="round" stroke-linejoin="round" stroke-width="2"/>
      <path id="Path_241" data-name="Path 241" d="M242,233.021V221.493A20.149,20.149,0,0,1,262.493,201c11.662,0,21.774,8.966,21.774,20.493v19.212s-1.281,15.37,5.123,21.774" transform="translate(-222.788 -201)" fill="none" stroke="#0583ff" stroke-linecap="round" stroke-linejoin="round" stroke-width="2"/>
      <path id="Path_242" data-name="Path 242" d="M278.021,222v9.606c0,8.806-7.2,18.572-16.01,18.572S246,240.412,246,231.606V222" transform="translate(-221.664 -195.103)" fill="none" stroke="#0583ff" stroke-linecap="square" stroke-linejoin="round" stroke-width="2"/>
      <path id="Path_243" data-name="Path 243" d="M278.021,219.685h-7.685V212l-6.4,7.685H246" transform="translate(-221.664 -197.911)" fill="none" stroke="#0583ff" stroke-linecap="square" stroke-linejoin="round" stroke-width="2"/>
    </g>
  </g>
</svg>
