<svg xmlns="http://www.w3.org/2000/svg" width="80.975" height="80.975" viewBox="0 0 80.975 80.975">
  <g id="icon-07" transform="translate(-1253.753 -3891.263)">
    <rect id="Rectangle_980" data-name="Rectangle 980" width="53.499" height="7.643" rx="1" transform="translate(1254.753 3892.263)" fill="none" stroke="#0583ff" stroke-linecap="round" stroke-linejoin="round" stroke-width="2"/>
    <path id="Path_1321" data-name="Path 1321" d="M116,69.594V64.5c0-11.618,7.7-21.336,17.985-23.675a3.171,3.171,0,0,0,0-6.15C123.7,32.336,116,22.618,116,11" transform="translate(1141.301 3894.001)" fill="none" stroke="#0583ff" stroke-linecap="round" stroke-linejoin="round" stroke-width="2"/>
    <rect id="Rectangle_981" data-name="Rectangle 981" width="53.499" height="7.643" rx="1" transform="translate(1254.753 3963.595)" fill="none" stroke="#0583ff" stroke-linecap="round" stroke-linejoin="round" stroke-width="2"/>
    <path id="Path_1322" data-name="Path 1322" d="M158.381,70.689v-5.1c0-11.618-7.7-21.336-17.985-23.675a3.171,3.171,0,0,1,0-6.15c10.282-2.339,17.985-12.056,17.985-23.675V7" transform="translate(1147.324 3892.906)" fill="none" stroke="#0583ff" stroke-linecap="round" stroke-linejoin="round" stroke-width="2"/>
    <path id="Path_1323" data-name="Path 1323" d="M122,59.19h0A5.565,5.565,0,0,1,125.567,54l12.993-5,12.993,5a5.565,5.565,0,0,1,3.567,5.193" transform="translate(1142.943 3904.405)" fill="none" stroke="#0583ff" stroke-linecap="round" stroke-linejoin="round" stroke-width="2"/>
    <path id="Path_1324" data-name="Path 1324" d="M123,14s1.078,10.414,10.788,12.036a6.944,6.944,0,0,1,4.5,3.155,6.944,6.944,0,0,1,4.5-3.155C152.493,24.414,153.571,14,153.571,14s-12.738,1.274-15.285,1.274S123,14,123,14Z" transform="translate(1143.217 3894.823)" fill="none" stroke="#0583ff" stroke-linecap="round" stroke-linejoin="round" stroke-width="2"/>
    <line id="Line_101" data-name="Line 101" y2="5.095" transform="translate(1281.503 3941.941)" fill="none" stroke="#0583ff" stroke-linecap="round" stroke-linejoin="round" stroke-width="2"/>
    <path id="Path_1325" data-name="Path 1325" d="M158,14a22.928,22.928,0,0,1,0,45.856" transform="translate(1152.8 3894.823)" fill="none" stroke="#0583ff" stroke-linecap="round" stroke-linejoin="round" stroke-width="2"/>
    <line id="Line_102" data-name="Line 102" y2="2.548" transform="translate(1312.073 3920.287)" fill="none" stroke="#0583ff" stroke-linecap="round" stroke-linejoin="round" stroke-width="2"/>
    <line id="Line_103" data-name="Line 103" y2="2.548" transform="translate(1312.073 3940.667)" fill="none" stroke="#0583ff" stroke-linecap="round" stroke-linejoin="round" stroke-width="2"/>
    <path id="Path_1326" data-name="Path 1326" d="M154,38.375h0a4.471,4.471,0,0,0,4.458,4.458h3.821a4.458,4.458,0,0,0,0-8.916h-3.821a4.458,4.458,0,0,1,0-8.916h3.821a4.472,4.472,0,0,1,4.023,2.542" transform="translate(1151.705 3897.834)" fill="none" stroke="#0583ff" stroke-linecap="round" stroke-linejoin="round" stroke-width="2"/>
  </g>
</svg>
