<svg xmlns="http://www.w3.org/2000/svg" width="81.455" height="81.455" viewBox="0 0 81.455 81.455">
  <g id="icon-34" transform="translate(-801.765 -4274.209)">
    <path id="Path_214" data-name="Path 214" d="M362,329.028A11.529,11.529,0,0,1,373.854,317.5a11.653,11.653,0,0,1,11.2,11.2,11.527,11.527,0,0,1-11.522,11.854v8.325" transform="translate(468.97 3978.869)" fill="none" stroke="#0583ff" stroke-linecap="round" stroke-linejoin="round" stroke-width="2"/>
    <path id="Path_215" data-name="Path 215" d="M371.281,345a1.281,1.281,0,1,0,1.281,1.281A1.281,1.281,0,0,0,371.281,345" transform="translate(471.217 3986.592)" fill="#464646" stroke="#0583ff" stroke-width="1"/>
    <path id="Path_216" data-name="Path 216" d="M414.078,360.508a39.781,39.781,0,1,0-14.569,14.569l16.346,4.38a2.126,2.126,0,0,0,2.6-2.6Z" transform="translate(462.792 3974.235)" fill="none" stroke="#0583ff" stroke-linecap="round" stroke-linejoin="round" stroke-width="2"/>
  </g>
</svg>
