<svg id="icon-45" xmlns="http://www.w3.org/2000/svg" xmlns:xlink="http://www.w3.org/1999/xlink" width="87.796" height="88.492" viewBox="0 0 87.796 88.492">
  <defs>
    <clipPath id="clip-path">
      <rect id="Rectangle_1094" data-name="Rectangle 1094" width="87.796" height="88.492" transform="translate(0 0)" fill="none"/>
    </clipPath>
  </defs>
  <g id="Group_2285" data-name="Group 2285" clip-path="url(#clip-path)">
    <path id="Path_1623" data-name="Path 1623" d="M83.9,66.606H3.895A3.9,3.9,0,0,1,0,62.714V3.893A3.9,3.9,0,0,1,3.895,0H83.9A3.9,3.9,0,0,1,87.8,3.893V62.714A3.9,3.9,0,0,1,83.9,66.606M3.895,1.514A2.382,2.382,0,0,0,1.514,3.893V62.714a2.382,2.382,0,0,0,2.381,2.378H83.9a2.381,2.381,0,0,0,2.38-2.378V3.893A2.382,2.382,0,0,0,83.9,1.514Z" fill="#0064ff"/>
    <path id="Path_1624" data-name="Path 1624" d="M54.382,77.245H33.426a.756.756,0,0,1-.748-.875l1.685-10.639a.759.759,0,0,1,.749-.639H52.686a.756.756,0,0,1,.747.638l1.682,10.563a.778.778,0,0,1,.024.195.757.757,0,0,1-.757.757M34.313,75.731h19.18l-1.454-9.125H35.757Z" fill="#0064ff"/>
    <path id="Path_1625" data-name="Path 1625" d="M61.158,82.717H26.646a.757.757,0,0,1-.755-.757V76.487a.757.757,0,0,1,.755-.757H61.158a.756.756,0,0,1,.756.757V81.96a.756.756,0,0,1-.756.757M27.4,81.2h33V77.244h-33Z" fill="#0064ff"/>
    <path id="Path_1626" data-name="Path 1626" d="M87.039,53.213H.759a.757.757,0,1,1,0-1.513h86.28a.757.757,0,1,1,0,1.513" fill="#0064ff"/>
    <path id="Path_1627" data-name="Path 1627" d="M43.9,63.038a3.886,3.886,0,1,1,3.88-3.886,3.891,3.891,0,0,1-3.88,3.886m0-6.258a2.372,2.372,0,1,0,2.366,2.372A2.375,2.375,0,0,0,43.9,56.78" fill="#0064ff"/>
    <path id="Path_1628" data-name="Path 1628" d="M61.625,40.92a.771.771,0,0,1-.537-.222l-.02-.022c-6.262-6.265-12.737-12.745-12.737-19.314a7.032,7.032,0,0,1,7.025-7.022c3.141,0,4.848,1.449,6.27,3.866,1.427-2.417,3.134-3.866,6.267-3.866a7.032,7.032,0,0,1,7.026,7.022c0,6.569-6.476,13.048-12.738,19.313l-.021.023a.766.766,0,0,1-.535.222M55.356,15.854a5.517,5.517,0,0,0-5.512,5.508c0,5.775,5.9,11.841,11.781,17.728C67.5,33.2,73.406,27.137,73.406,21.362a5.518,5.518,0,0,0-5.513-5.508c-2.571,0-3.983,1.082-5.593,4.282a.756.756,0,0,1-1.352,0c-1.6-3.2-3.013-4.281-5.592-4.281" fill="#0064ff"/>
    <path id="Path_1629" data-name="Path 1629" d="M37.357,19.223H13.635a.756.756,0,0,1-.757-.756V12.81a.758.758,0,0,1,.757-.757H37.357a.758.758,0,0,1,.758.757v5.657a.756.756,0,0,1-.758.756M14.393,17.71H36.6V13.567H14.393Z" fill="#0064ff"/>
    <path id="Path_1630" data-name="Path 1630" d="M37.357,31.214H13.635a.757.757,0,0,1-.757-.757V24.8a.757.757,0,0,1,.757-.757H37.357a.757.757,0,0,1,.758.757v5.656a.757.757,0,0,1-.758.757M14.393,29.7H36.6V25.558H14.393Z" fill="#0064ff"/>
    <path id="Path_1631" data-name="Path 1631" d="M37.357,43.206H13.635a.759.759,0,0,1-.757-.759V36.792a.757.757,0,0,1,.757-.756H37.357a.757.757,0,0,1,.758.756v5.655a.759.759,0,0,1-.758.759M14.393,41.691H36.6V37.549H14.393Z" fill="#0064ff"/>
    <path id="Path_1632" data-name="Path 1632" d="M70.593,82.709H17.2a.757.757,0,0,1,0-1.514H70.593a.757.757,0,0,1,0,1.514" fill="#0064ff"/>
    <path id="Path_1633" data-name="Path 1633" d="M56.249,88.492h-24.7a.757.757,0,0,1,0-1.514h24.7a.757.757,0,1,1,0,1.514" fill="#0064ff"/>
  </g>
</svg>
