<svg xmlns="http://www.w3.org/2000/svg" xmlns:xlink="http://www.w3.org/1999/xlink" width="93.225" height="86.686" viewBox="0 0 93.225 86.686">
  <defs>
    <clipPath id="clip-path">
      <rect id="Rectangle_1097" data-name="Rectangle 1097" width="93.225" height="86.686" fill="#1068f0"/>
    </clipPath>
  </defs>
  <g id="icon-48" transform="translate(0 0)">
    <g id="Group_2291" data-name="Group 2291" transform="translate(0 0.001)" clip-path="url(#clip-path)">
      <path id="Path_1653" data-name="Path 1653" d="M23.537,17.665a4.3,4.3,0,0,0-4.359,4.191,4.276,4.276,0,0,0,8.55,0,4.05,4.05,0,0,0-4.191-4.191m0,6.538a2.179,2.179,0,1,1,2.179-2.179A2.112,2.112,0,0,1,23.537,24.2" transform="translate(12.68 11.679)" fill="#1068f0"/>
      <path id="Path_1654" data-name="Path 1654" d="M25.273,14.939a8.719,8.719,0,1,0,8.718,8.72,8.66,8.66,0,0,0-8.718-8.72m0,15.426a6.706,6.706,0,1,1,6.706-6.706,6.725,6.725,0,0,1-6.706,6.706" transform="translate(10.945 9.877)" fill="#1068f0"/>
      <path id="Path_1655" data-name="Path 1655" d="M40.613,20.723l2.347-3.69a1.039,1.039,0,0,0-.168-1.342l-2.346-2.178a1.271,1.271,0,0,0-1.342-.169l-3.69,2.347A11.259,11.259,0,0,0,32.4,14.518L31.39,10.327a1.06,1.06,0,0,0-1.005-.839H27.2a1.065,1.065,0,0,0-1.007.839l-.837,4.191a22.375,22.375,0,0,0-3.018,1.173l-3.69-2.347a1.039,1.039,0,0,0-1.341.169L14.959,15.86a1.261,1.261,0,0,0-.168,1.339l2.347,3.69a11.353,11.353,0,0,0-1.174,3.02l-4.023.837a1.065,1.065,0,0,0-.839,1.007v3.185a1.064,1.064,0,0,0,.839,1.007l4.193,1.007a22.356,22.356,0,0,0,1.173,3.017l-2.347,3.69A1.039,1.039,0,0,0,15.127,39l2.347,2.347a1.263,1.263,0,0,0,1.342.166L22.5,39.165a11.231,11.231,0,0,0,3.018,1.174l1.007,4.193a1.059,1.059,0,0,0,1.005.836h3.186a1.062,1.062,0,0,0,1.007-.836l1.005-4.193a22.474,22.474,0,0,0,3.018-1.174l3.688,2.347a1.039,1.039,0,0,0,1.342-.166L43.128,39a1.267,1.267,0,0,0,.168-1.342l-2.347-3.69a11.161,11.161,0,0,0,1.173-3.017l4.193-1.007a1.062,1.062,0,0,0,.839-1.007V25.753a1.063,1.063,0,0,0-.839-1.007l-4.193-1.007a25.542,25.542,0,0,1-1.508-3.017M44.637,28.1l-4.023.837a1.378,1.378,0,0,0-.839.839A13.187,13.187,0,0,1,38.266,33.3a1.429,1.429,0,0,0,0,1.173l2.181,3.522L39.439,39l-3.52-2.181a1.433,1.433,0,0,0-1.174,0,15.819,15.819,0,0,1-3.52,1.508,1.379,1.379,0,0,0-.839.839l-.839,4.025H28.038L27.2,39.165a1.379,1.379,0,0,0-.837-.839,13.059,13.059,0,0,1-3.522-1.508,1.429,1.429,0,0,0-1.173,0L18.145,39l-1.007-1.007,2.181-3.522a1.442,1.442,0,0,0,0-1.173,15.839,15.839,0,0,1-1.51-3.522,1.384,1.384,0,0,0-.837-.839L12.948,28.1V26.59l4.025-.837a1.384,1.384,0,0,0,.837-.839,13.063,13.063,0,0,1,1.51-3.522,1.442,1.442,0,0,0,0-1.173L17.139,16.7l1.007-1.007,3.522,2.181a1.442,1.442,0,0,0,1.173,0,13.006,13.006,0,0,1,3.522-1.508,1.389,1.389,0,0,0,.837-.839l.839-4.025h1.508l.839,4.025a1.378,1.378,0,0,0,.839.839,11.106,11.106,0,0,1,3.52,1.508,1.446,1.446,0,0,0,1.174,0l3.52-2.181L40.447,16.7l-2.181,3.522a1.429,1.429,0,0,0,0,1.173,15.987,15.987,0,0,1,1.508,3.522,1.382,1.382,0,0,0,.839.839l4.023.837Z" transform="translate(7.341 6.273)" fill="#1068f0"/>
      <path id="Path_1656" data-name="Path 1656" d="M30.745,6.662A22.468,22.468,0,1,0,53.212,29.131,22.469,22.469,0,0,0,30.745,6.662m0,42.924A20.456,20.456,0,1,1,51.2,29.131,20.429,20.429,0,0,1,30.745,49.586" transform="translate(5.473 4.404)" fill="#1068f0"/>
      <path id="Path_1657" data-name="Path 1657" d="M2.214,33.41A1.508,1.508,0,1,1,.706,34.918,1.509,1.509,0,0,1,2.214,33.41" transform="translate(0.467 22.09)" fill="#1068f0"/>
      <path id="Path_1658" data-name="Path 1658" d="M29.265,40.979a1.509,1.509,0,1,1-1.508,1.51,1.509,1.509,0,0,1,1.508-1.51" transform="translate(18.353 27.094)" fill="#1068f0"/>
      <path id="Path_1659" data-name="Path 1659" d="M53.893,15.746a1.509,1.509,0,1,1-1.508,1.508,1.51,1.51,0,0,1,1.508-1.508" transform="translate(34.637 10.41)" fill="#1068f0"/>
      <path id="Path_1660" data-name="Path 1660" d="M48.846,25.84a1.508,1.508,0,1,1-1.508,1.508,1.509,1.509,0,0,1,1.508-1.508" transform="translate(31.3 17.084)" fill="#1068f0"/>
      <path id="Path_1661" data-name="Path 1661" d="M55.205,37.245A1.509,1.509,0,1,1,53.7,38.753a1.51,1.51,0,0,1,1.508-1.508" transform="translate(35.504 24.625)" fill="#1068f0"/>
      <path id="Path_1662" data-name="Path 1662" d="M40.672,2.523a1.509,1.509,0,1,1-1.51,1.51,1.51,1.51,0,0,1,1.51-1.51" transform="translate(25.894 1.667)" fill="#1068f0"/>
      <path id="Path_1663" data-name="Path 1663" d="M7.261,0A1.509,1.509,0,1,1,5.753,1.51,1.51,1.51,0,0,1,7.261,0" transform="translate(3.804 -0.001)" fill="#1068f0"/>
      <path id="Path_1664" data-name="Path 1664" d="M1.508,10.094A1.509,1.509,0,1,1,0,11.6a1.508,1.508,0,0,1,1.508-1.508" transform="translate(0 6.673)" fill="#1068f0"/>
      <path id="Path_1665" data-name="Path 1665" d="M52.564,51.522a3.942,3.942,0,0,0-2.681-6.706,3.792,3.792,0,0,0-3.856,3.856A3.336,3.336,0,0,0,47.2,51.354a3.609,3.609,0,0,0,5.364.168M49.883,47a1.517,1.517,0,0,1,1.173.5,1.778,1.778,0,1,1-3.017,1.341A1.86,1.86,0,0,1,49.883,47" transform="translate(30.433 29.631)" fill="#1068f0"/>
      <path id="Path_1666" data-name="Path 1666" d="M90.2,84.024h-6.54a8.342,8.342,0,0,0,.5-12.406L70.08,57.533a3.835,3.835,0,0,0-.334-5.03,3.968,3.968,0,0,0-2.683-1.173A3.337,3.337,0,0,0,64.379,52.5l-1.173,1.173-2.851-2.851a31.552,31.552,0,1,0-8.72,8.384l3.02,3.018L53.482,63.4a3.947,3.947,0,0,0,0,5.532,3.833,3.833,0,0,0,5.03.337C73.434,84.192,72.6,83.355,73.1,83.858H10.558a1.006,1.006,0,1,0,0,2.012H90.2a.926.926,0,1,0,0-1.846M52.139,57.2A1.267,1.267,0,0,0,50.8,57.03,29.487,29.487,0,0,1,13.409,11.759a29.449,29.449,0,0,1,41.749,0,29.761,29.761,0,0,1,2.851,38.4.885.885,0,0,0,.168,1.341l3.518,3.522-5.866,5.869Zm2.517,10.4a1.819,1.819,0,0,1,0-2.515l2.01-2.012,9.221-9.223A1.779,1.779,0,1,1,68.4,56.359L57.17,67.593a1.818,1.818,0,0,1-2.513,0m5.028.336,8.886-8.887L82.656,73.127A6.476,6.476,0,0,1,84.5,77.655a6.368,6.368,0,0,1-6.372,6.369A6.794,6.794,0,0,1,73.6,82.18Z" transform="translate(2.019 0.817)" fill="#1068f0"/>
      <path id="Path_1667" data-name="Path 1667" d="M44.579,49.555a1.081,1.081,0,0,0-1.005-1.005H4.84a1.005,1.005,0,0,0,0,2.01H43.574c.5.169,1.005-.334,1.005-1.005" transform="translate(2.536 32.1)" fill="#1068f0"/>
      <path id="Path_1668" data-name="Path 1668" d="M15.746,47.032a1.083,1.083,0,0,0,1.007,1.007H46.094a1.006,1.006,0,0,0,0-2.012H16.919a1.12,1.12,0,0,0-1.173,1.005" transform="translate(10.411 30.432)" fill="#1068f0"/>
      <path id="Path_1669" data-name="Path 1669" d="M16.149,44.361a5.2,5.2,0,1,0-5.2,5.2,5.224,5.224,0,0,0,5.2-5.2m-8.384,0a3.184,3.184,0,0,1,3.186-3.186,3.084,3.084,0,0,1,3.186,3.186,3.186,3.186,0,1,1-6.372,0" transform="translate(3.804 25.894)" fill="#1068f0"/>
      <path id="Path_1670" data-name="Path 1670" d="M51.486,19.094a7.441,7.441,0,0,0,7.376-7.377,7.377,7.377,0,0,0-14.753,0,7.441,7.441,0,0,0,7.377,7.377m0-12.575a5.2,5.2,0,1,1-5.2,5.2,5.224,5.224,0,0,1,5.2-5.2" transform="translate(29.165 2.869)" fill="#1068f0"/>
    </g>
  </g>
</svg>
