<svg xmlns="http://www.w3.org/2000/svg" width="81.411" height="81.411" viewBox="0 0 81.411 81.411">
  <g id="icon-33" transform="translate(-657.059 -4274.235)">
    <path id="Path_206" data-name="Path 206" d="M262.966,340.123h-6.4a2.562,2.562,0,1,1,0-5.123h6.4a2.562,2.562,0,1,1,0,5.123Z" transform="translate(438.641 3983.783)" fill="none" stroke="#0583ff" stroke-linecap="round" stroke-linejoin="round" stroke-width="2"/>
    <path id="Path_207" data-name="Path 207" d="M256.089,340.089h-6.4A7.684,7.684,0,0,1,242,332.4V326" transform="translate(435.271 3981.256)" fill="none" stroke="#0583ff" stroke-linecap="round" stroke-linejoin="round" stroke-width="2"/>
    <path id="Path_208" data-name="Path 208" d="M243.4,335.37c-3.842,0-6.4-2.594-6.4-5.764v-3.842c0-3.17,2.562-5.764,6.4-5.764" transform="translate(433.867 3979.571)" fill="none" stroke="#0583ff" stroke-linecap="round" stroke-linejoin="round" stroke-width="2"/>
    <path id="Path_209" data-name="Path 209" d="M275,335.37c3.842,0,6.4-2.594,6.4-5.764v-3.842c0-3.17-2.562-5.764-6.4-5.764" transform="translate(444.538 3979.571)" fill="none" stroke="#0583ff" stroke-linecap="round" stroke-linejoin="round" stroke-width="2"/>
    <path id="Path_210" data-name="Path 210" d="M306.411,367.774v-.179a17.931,17.931,0,0,0-10.256-16.206L282.075,346c-3.842,2.562-8.064,5.123-14.089,5.123A22.992,22.992,0,0,1,252.616,346l-15.361,5.388A17.931,17.931,0,0,0,227,367.595v.179" transform="translate(431.059 3986.872)" fill="none" stroke="#0583ff" stroke-linecap="square" stroke-linejoin="round" stroke-width="2"/>
    <path id="Path_211" data-name="Path 211" d="M242,333.021V321.493A20.149,20.149,0,0,1,262.493,301c11.662,0,21.774,8.966,21.774,20.493v19.212" transform="translate(435.271 3974.235)" fill="none" stroke="#0583ff" stroke-linecap="round" stroke-linejoin="round" stroke-width="2"/>
    <path id="Path_212" data-name="Path 212" d="M278.021,322v9.606c0,8.806-5.123,18.572-16.01,18.572S246,340.412,246,331.606V322" transform="translate(436.395 3980.133)" fill="none" stroke="#0583ff" stroke-linecap="square" stroke-linejoin="round" stroke-width="2"/>
    <path id="Path_213" data-name="Path 213" d="M246,319.685c16.906,0,23.055-3.842,25.616-7.685,0,0,0,7.685,6.4,7.685" transform="translate(436.395 3977.324)" fill="none" stroke="#0583ff" stroke-linecap="square" stroke-linejoin="round" stroke-width="2"/>
  </g>
</svg>
