<svg xmlns="http://www.w3.org/2000/svg" xmlns:xlink="http://www.w3.org/1999/xlink" width="38.522" height="48.813" viewBox="0 0 38.522 48.813"><defs><clipPath id="a"><rect width="38.522" height="48.813" fill="#fff"/></clipPath></defs><g clip-path="url(#a)"><path d="M15.6,48.813c-1.926-.608-2.98-2.051-3.965-3.742C8.273,39.3,4.753,33.622,1.355,27.872A10.569,10.569,0,0,1,.08,24.593,4.572,4.572,0,0,1,2.613,19.7a4.526,4.526,0,0,1,5.334.817c1.11,1.069,2.144,2.216,3.212,3.328l.334-.163V22.4c0-5.79-.017-11.581.008-17.371C11.514,2.188,13.331.14,15.862.007a4.669,4.669,0,0,1,4.886,4.74c.036,2.332.007,4.665.007,6.819l4.61,1.034c2.515-1.384,4.084-1.153,6.342,1.1a1.206,1.206,0,0,0,.935.25c3.4-.63,5.853,1.326,5.872,4.772.025,4.681-.018,9.363.008,14.044.022,3.917-1.358,7.557-2.114,11.322a5.568,5.568,0,0,1-4.06,4.726Zm-.762-32.439c0,3.7-.009,7.4.006,11.1,0,.871-.106,1.668-.994,2.068-.953.429-1.629-.071-2.275-.726-1.9-1.93-3.794-3.876-5.774-5.725a1.816,1.816,0,0,0-1.671-.335,2.754,2.754,0,0,0-.715,1.753A2.292,2.292,0,0,0,3.9,25.74q5.61,9.4,11.27,18.777a1.923,1.923,0,0,0,1.331.859q7.51.092,15.022,0a1.736,1.736,0,0,0,1.31-.969c.824-3.211,1.922-6.424,2.169-9.694.4-5.273.22-10.591.269-15.89.008-.9-.3-1.717-1.349-1.705-1.018.011-1.344.76-1.337,1.706.015,1.973.025,3.946,0,5.918a1.569,1.569,0,0,1-1.907,1.679,1.586,1.586,0,0,1-1.334-1.786q0-3.761,0-7.521c0-.959-.125-1.964-1.326-1.973-1.183-.009-1.358.923-1.346,1.93.029,2.383.012,4.767.008,7.151,0,1.494-.57,2.254-1.66,2.24-1.074-.014-1.616-.765-1.622-2.29q-.014-3.637,0-7.274c0-.97-.265-1.81-1.39-1.762-1.026.044-1.262.833-1.251,1.769.029,2.548.022,5.1,0,7.644-.008,1.192-.639,1.9-1.624,1.915s-1.613-.683-1.686-1.873c-.02-.328-.006-.658-.006-.986q0-8.878,0-17.755c0-1.851-.322-2.477-1.273-2.495-1-.019-1.323.565-1.323,2.419q0,5.3,0,10.6" transform="translate(0 0)" fill="#fff"/></g></svg>