<svg xmlns="http://www.w3.org/2000/svg" width="81" height="81.411" viewBox="0 0 81 81.411">
  <g id="icon-25" transform="translate(-947 -4146.153)">
    <path id="Path_226" data-name="Path 226" d="M515.233,250.808V264.9a5.123,5.123,0,0,1-5.123,5.123H469.123A5.123,5.123,0,0,1,464,264.9V238" transform="translate(497.614 3956.544)" fill="none" stroke="#0583ff" stroke-linecap="square" stroke-linejoin="round" stroke-width="2"/>
    <path id="Path_227" data-name="Path 227" d="M464,225.336V206.123A5.124,5.124,0,0,1,469.123,201h40.986a5.124,5.124,0,0,1,5.123,5.123v5.123" transform="translate(497.614 3946.153)" fill="none" stroke="#0583ff" stroke-linecap="square" stroke-linejoin="round" stroke-width="2"/>
    <path id="Path_228" data-name="Path 228" d="M505.863,209.562V207H470v8.966" transform="translate(499.299 3947.838)" fill="none" stroke="#0583ff" stroke-linecap="square" stroke-linejoin="round" stroke-width="2"/>
    <path id="Path_229" data-name="Path 229" d="M470,244v8.966h35.863v-3.842" transform="translate(499.299 3958.229)" fill="none" stroke="#0583ff" stroke-linecap="square" stroke-linejoin="round" stroke-width="2"/>
    <line id="Line_14" data-name="Line 14" x2="10" transform="translate(982 4218)" fill="none" stroke="#0583ff" stroke-linecap="round" stroke-linejoin="round" stroke-width="2"/>
    <line id="Line_15" data-name="Line 15" x2="4" transform="translate(948 4179)" fill="none" stroke="#0583ff" stroke-linecap="round" stroke-linejoin="round" stroke-width="2"/>
    <line id="Line_16" data-name="Line 16" x2="12" transform="translate(960 4179)" fill="none" stroke="#0583ff" stroke-linecap="round" stroke-linejoin="round" stroke-width="2"/>
    <line id="Line_17" data-name="Line 17" x2="6" transform="translate(951 4187)" fill="none" stroke="#0583ff" stroke-linecap="round" stroke-linejoin="round" stroke-width="2"/>
    <line id="Line_18" data-name="Line 18" x2="12" transform="translate(964 4187)" fill="none" stroke="#0583ff" stroke-linecap="round" stroke-linejoin="round" stroke-width="2"/>
    <line id="Line_19" data-name="Line 19" y1="9" x2="12" transform="translate(986 4185)" fill="none" stroke="#0583ff" stroke-linecap="round" stroke-linejoin="round" stroke-width="2"/>
    <line id="Line_20" data-name="Line 20" x2="13" y2="9" transform="translate(1009 4185)" fill="none" stroke="#0583ff" stroke-linecap="round" stroke-linejoin="round" stroke-width="2"/>
    <path id="Path_230" data-name="Path 230" d="M483,219l14.089,14.089a5.87,5.87,0,0,0,7.685,0L518.863,219" transform="translate(502.949 3951.208)" fill="none" stroke="#0583ff" stroke-linecap="round" stroke-linejoin="round" stroke-width="2"/>
    <path id="Rectangle_43" data-name="Rectangle 43" d="M1.912,0H43.089A1.911,1.911,0,0,1,45,1.911V31.088A1.912,1.912,0,0,1,43.088,33H1.912A1.912,1.912,0,0,1,0,31.088V1.912A1.912,1.912,0,0,1,1.912,0Z" transform="translate(982 4166)" fill="none" stroke="#0583ff" stroke-linecap="round" stroke-linejoin="round" stroke-width="2"/>
  </g>
</svg>
