<svg xmlns="http://www.w3.org/2000/svg" xmlns:xlink="http://www.w3.org/1999/xlink" width="94.364" height="82.398" viewBox="0 0 94.364 82.398">
  <defs>
    <clipPath id="clip-path">
      <rect id="Rectangle_1099" data-name="Rectangle 1099" width="94.364" height="82.398" fill="#1068f0"/>
    </clipPath>
  </defs>
  <g id="icon-50" transform="translate(0 0)">
    <g id="Group_2295" data-name="Group 2295" transform="translate(0 0)" clip-path="url(#clip-path)">
      <path id="Path_1687" data-name="Path 1687" d="M29.645,11.608a4.007,4.007,0,1,0,4.007,4.007,3.968,3.968,0,0,0-4.007-4.007m0,6.091a2.084,2.084,0,1,1,2.084-2.084A2.021,2.021,0,0,1,29.645,17.7" transform="translate(15.081 6.828)" fill="#1068f0"/>
      <path id="Path_1688" data-name="Path 1688" d="M39.584,17.318a8.336,8.336,0,1,0-8.335,8.337,8.38,8.38,0,0,0,8.335-8.337m-8.335,6.253a6.413,6.413,0,1,1,6.412-6.412,6.538,6.538,0,0,1-6.412,6.412" transform="translate(13.478 5.284)" fill="#1068f0"/>
      <path id="Path_1689" data-name="Path 1689" d="M36.978,36.776l.961-4.007a21.607,21.607,0,0,0,2.886-1.121l3.527,2.244a1,1,0,0,0,1.282-.16l2.244-2.244a1.211,1.211,0,0,0,.16-1.283l-2.244-3.526a10.758,10.758,0,0,0,1.123-2.886l4.007-.962a1.017,1.017,0,0,0,.8-.962V18.822a1.017,1.017,0,0,0-.8-.962L46.917,16.9a21.323,21.323,0,0,0-1.123-2.886l2.244-3.527a.991.991,0,0,0-.16-1.282L45.634,6.959a1.209,1.209,0,0,0-1.282-.16L40.825,9.043A10.738,10.738,0,0,0,37.939,7.92l-.961-3.686a1.017,1.017,0,0,0-.962-.8H32.971a1.015,1.015,0,0,0-.962.8l-.962,4.007A21.69,21.69,0,0,0,28.16,9.362L24.634,7.118a1,1,0,0,0-1.283.16L21.107,9.523a1.211,1.211,0,0,0-.16,1.283l2.244,3.527a10.776,10.776,0,0,0-1.121,2.884l-4.009.962a1.017,1.017,0,0,0-.8.962v3.046a1.017,1.017,0,0,0,.8.961l4.009.961A21.311,21.311,0,0,0,23.19,27l-2.244,3.527a.991.991,0,0,0,.16,1.282l2.244,2.244a1.211,1.211,0,0,0,1.283.16l3.526-2.244a10.758,10.758,0,0,0,2.886,1.123l.962,4.007a1.015,1.015,0,0,0,.962.8h3.045c.481-.321.962-.642.962-1.123m-3.207-1.282-.8-3.847a1.318,1.318,0,0,0-.8-.8A12.608,12.608,0,0,1,28.8,29.4a1.354,1.354,0,0,0-1.121,0l-3.367,2.084-.962-.962,2.084-3.367a1.354,1.354,0,0,0,0-1.121,15.285,15.285,0,0,1-1.442-3.367,1.318,1.318,0,0,0-.8-.8l-3.847-.8V19.623l3.847-.8a1.318,1.318,0,0,0,.8-.8,12.63,12.63,0,0,1,1.442-3.367,1.354,1.354,0,0,0,0-1.121l-2.084-3.367.962-.961,3.367,2.084a1.366,1.366,0,0,0,1.121,0,12.507,12.507,0,0,1,3.367-1.442,1.326,1.326,0,0,0,.8-.8l.8-3.848h1.442l.8,3.848a1.322,1.322,0,0,0,.8.8,10.663,10.663,0,0,1,3.367,1.442,1.366,1.366,0,0,0,1.121,0L44.673,9.2l.961.961L43.55,13.532a1.366,1.366,0,0,0,0,1.121,15.167,15.167,0,0,1,1.442,3.367,1.318,1.318,0,0,0,.8.8l3.848.8v1.444l-3.848.8a1.322,1.322,0,0,0-.8.8,12.507,12.507,0,0,1-1.442,3.367,1.366,1.366,0,0,0,0,1.121l2.084,3.367-.961.962L41.306,29.4a1.354,1.354,0,0,0-1.121,0,15.317,15.317,0,0,1-3.367,1.442,1.314,1.314,0,0,0-.8.8l-.8,3.847Z" transform="translate(10.153 2.018)" fill="#1068f0"/>
      <path id="Path_1690" data-name="Path 1690" d="M49.525,43.853H45.677V40.646a1.035,1.035,0,0,0-.961-.961H34.135L30.125,36.8c-.159-.16-.319-.16-.638-.16H21.148a1.035,1.035,0,0,0-.961.961V59.883c0,.16,0,.16.16.321a.88.88,0,0,0,.8.481H44.716a1.085,1.085,0,0,0,.961-.642l4.809-14.748a1.058,1.058,0,0,0-.162-.961.878.878,0,0,0-.8-.481m-20.36-5.29,4.006,2.886c.16.16.321.16.642.16h9.939v2.244H26.117a1.084,1.084,0,0,0-.962.642l-2.883,8.816V38.4ZM43.912,58.6H22.433L26.6,45.776H48.081L47.119,48.5H30.445a.962.962,0,0,0,0,1.923H46.479Z" transform="translate(11.875 21.552)" fill="#1068f0"/>
      <path id="Path_1691" data-name="Path 1691" d="M93.462,64.931H89.613V61.724a1.036,1.036,0,0,0-.962-.961h-9.46V49.7a1.031,1.031,0,0,0-.959-.961H45.689v-4.97a23.425,23.425,0,1,0-2.084-.16v4.968H13.467a1.032,1.032,0,0,0-.961.962v10.1L9.939,57.717c-.159-.16-.321-.16-.642-.16H.961A1.036,1.036,0,0,0,0,58.517V80.8a1.314,1.314,0,0,0,.8.8H24.529a1.085,1.085,0,0,0,.961-.642L30.3,66.212a1.025,1.025,0,0,0-.959-1.282H25.49V61.724a1.035,1.035,0,0,0-.961-.961H14.588V50.822H43.766v4.97a.962.962,0,1,0,1.923,0v-4.97h31.26v9.46L73.9,58.038c-.16-.16-.322-.16-.643-.16H64.926a1.036,1.036,0,0,0-.964.961V81.282c0,.16.164.321.324.481a.583.583,0,0,0,.48.16H88.489a1.079,1.079,0,0,0,.962-.642l4.809-14.748c.321-.961-.157-1.6-.8-1.6m-68.293-42.8A19.558,19.558,0,1,1,44.728,41.687,19.743,19.743,0,0,1,25.169,22.128m1.765,47.452H10.258a.962.962,0,0,0,0,1.923H26.292l-2.725,8.016H2.246L6.412,66.694H27.894ZM23.4,64.931H5.77a1.08,1.08,0,0,0-.961.642L1.923,74.389V59.48H8.978c4.006,2.886,3.847,2.886,4.168,2.886.159,0,.321.16.48.16h9.941v2.4Zm42.643-5.29H73.1l4.006,2.886c.162.16.321.16.642.16h9.939v2.244H70.054a1.084,1.084,0,0,0-.962.642l-2.883,8.816Zm21.8,20.039H66.368l4.168-12.825H92.018l-.961,2.725H74.382a.962.962,0,0,0,0,1.923H90.415Z" transform="translate(0 0.474)" fill="#1068f0"/>
      <path id="Path_1692" data-name="Path 1692" d="M7.873,29.27a5.45,5.45,0,1,0,0-10.9,5.406,5.406,0,0,0-5.451,5.451A5.507,5.507,0,0,0,7.873,29.27m0-8.977a3.527,3.527,0,1,1-3.527,3.527,3.559,3.559,0,0,1,3.527-3.527" transform="translate(1.425 10.805)" fill="#1068f0"/>
      <path id="Path_1693" data-name="Path 1693" d="M54.066,20.115a7.534,7.534,0,1,0-7.535-7.533,7.63,7.63,0,0,0,7.535,7.533m0-13.144a5.451,5.451,0,0,1,0,10.9,5.273,5.273,0,0,1-5.451-5.29A5.651,5.651,0,0,1,54.066,6.97" transform="translate(27.371 2.968)" fill="#1068f0"/>
      <path id="Path_1694" data-name="Path 1694" d="M2.048,8.882A1.442,1.442,0,1,1,.606,10.324,1.442,1.442,0,0,1,2.048,8.882" transform="translate(0.356 5.224)" fill="#1068f0"/>
      <path id="Path_1695" data-name="Path 1695" d="M10.829,1.918A1.443,1.443,0,1,1,9.387,3.362a1.444,1.444,0,0,1,1.442-1.444" transform="translate(5.522 1.128)" fill="#1068f0"/>
      <path id="Path_1696" data-name="Path 1696" d="M41.717,0a1.443,1.443,0,1,1-1.444,1.442A1.442,1.442,0,0,1,41.717,0" transform="translate(23.69 -0.001)" fill="#1068f0"/>
      <path id="Path_1697" data-name="Path 1697" d="M55.644,17.664A1.442,1.442,0,1,1,54.2,19.106a1.443,1.443,0,0,1,1.442-1.442" transform="translate(31.884 10.39)" fill="#1068f0"/>
      <path id="Path_1698" data-name="Path 1698" d="M46.157,23.417a1.443,1.443,0,1,1-1.442,1.444,1.444,1.444,0,0,1,1.442-1.444" transform="translate(26.303 13.774)" fill="#1068f0"/>
      <path id="Path_1699" data-name="Path 1699" d="M55.04,30.987A1.443,1.443,0,1,1,53.6,32.429a1.443,1.443,0,0,1,1.444-1.442" transform="translate(31.527 18.227)" fill="#1068f0"/>
      <path id="Path_1700" data-name="Path 1700" d="M4.573,30.28a1.443,1.443,0,1,1-1.444,1.442A1.443,1.443,0,0,1,4.573,30.28" transform="translate(1.841 17.811)" fill="#1068f0"/>
    </g>
  </g>
</svg>
