<svg xmlns="http://www.w3.org/2000/svg" width="81.411" height="81.411" viewBox="0 0 81.411 81.411">
  <g id="icon-22" transform="translate(-512.326 -4146.153)">
    <path id="Path_244" data-name="Path 244" d="M138.336,249.671a24.168,24.168,0,0,1-13.239-3.932L114,249.671l3.927-11.1a24.331,24.331,0,1,1,44.744-13.236" transform="translate(399.326 3946.153)" fill="none" stroke="#0583ff" stroke-linecap="round" stroke-linejoin="round" stroke-width="2"/>
    <ellipse id="Ellipse_2" data-name="Ellipse 2" cx="7.685" cy="9.082" rx="7.685" ry="9.082" transform="translate(529.977 4162.407)" fill="none" stroke="#0583ff" stroke-linecap="round" stroke-linejoin="round" stroke-width="2"/>
    <line id="Line_23" data-name="Line 23" x2="5.123" y2="1.025" transform="translate(538.943 4180.71)" fill="none" stroke="#0583ff" stroke-linecap="round" stroke-linejoin="round" stroke-width="2"/>
    <path id="Path_245" data-name="Path 245" d="M182.739,262.574a24.371,24.371,0,1,0-7.165,7.165l11.1,3.932Z" transform="translate(406.066 3952.893)" fill="none" stroke="#0583ff" stroke-linecap="round" stroke-linejoin="round" stroke-width="2"/>
    <line id="Line_24" data-name="Line 24" x1="6" y2="19" transform="translate(562 4193)" fill="none" stroke="#0583ff" stroke-linecap="round" stroke-linejoin="round" stroke-width="2"/>
    <line id="Line_25" data-name="Line 25" x2="7" y2="19" transform="translate(568 4193)" fill="none" stroke="#0583ff" stroke-linecap="round" stroke-linejoin="round" stroke-width="2"/>
    <line id="Line_26" data-name="Line 26" x2="7" transform="translate(565 4205)" fill="none" stroke="#0583ff" stroke-linecap="round" stroke-linejoin="round" stroke-width="2"/>
  </g>
</svg>
