<svg xmlns="http://www.w3.org/2000/svg" xmlns:xlink="http://www.w3.org/1999/xlink" width="67.42" height="67.527" viewBox="0 0 67.42 67.527"><defs><clipPath id="a"><rect width="67.42" height="67.527" fill="#fff"/></clipPath></defs><g clip-path="url(#a)"><path d="M67.335,31.193C66.208,14.456,53.147,2.51,38.63.363,20.234-2.358,2.807,10.534.326,28.909A33.642,33.642,0,0,0,28.95,67.158a6.8,6.8,0,0,1,1.126.37h7.633c1.407-.338,2.819-.657,4.22-1.017A33.464,33.464,0,0,0,67.335,31.193M46.613,49.055c-1.194,1.009-2.352.6-3.3-.544-1.236-1.5-2.538-2.942-3.7-4.491a2.565,2.565,0,0,0-3.314-1.082,12.748,12.748,0,1,1,6.722-4.588c-.4.53-.835,1.034-1.329,1.643,1.635,1.988,3.228,3.955,4.857,5.892.894,1.064,1.223,2.193.069,3.169" transform="translate(0 0)" fill="#fff"/><path d="M68.625,54.791a8.59,8.59,0,0,0-8.736,8.542A8.773,8.773,0,0,0,68.6,71.979a8.6,8.6,0,0,0,8.453-8.623,8.435,8.435,0,0,0-8.431-8.564" transform="translate(-35.688 -32.65)" fill="#fff"/></g></svg>