<svg xmlns="http://www.w3.org/2000/svg" xmlns:xlink="http://www.w3.org/1999/xlink" width="363.538" height="216.198" viewBox="0 0 363.538 216.198"><defs><clipPath id="a"><rect width="363.538" height="216.198" fill="none"/></clipPath></defs><g transform="translate(0 0)"><g transform="translate(0 0)" clip-path="url(#a)"><path d="M3,100.495V44H31.089a18.806,18.806,0,0,1,6.594,36.487l15.38,20.008H38.309L24.185,81.664H15.554v18.83ZM15.554,70.364H30.462c3.453,0,7.062-3.374,7.062-7.534s-3.608-7.53-7.062-7.53H15.554Z" transform="translate(7.803 114.448)" fill="#fff"/><path d="M63.872,70.013a22.98,22.98,0,0,1-.393,4.08H29.268a11.858,11.858,0,0,0,11.063,7.688,11.713,11.713,0,0,0,9.259-4.548H62.615A23.43,23.43,0,0,1,40.331,92.455c-13.025,0-23.537-10.044-23.537-22.442S27.306,47.574,40.331,47.574,63.872,57.618,63.872,70.013M51.4,65.933a11.806,11.806,0,0,0-22.129,0Z" transform="translate(43.683 123.745)" fill="#fff"/><path d="M64.894,78.018c0,9.1-8.157,14.437-17.26,14.437S30.37,87.118,30.37,78.018H42.139c0,3.608,2.906,4.552,5.5,4.552s5.492-1.336,5.492-4.084c0-1.959-2.589-3.763-6.118-4.235-8.239-1.019-16.166-6.043-16.166-12.712,0-8.628,7.692-13.965,16.792-13.965s16.792,5.337,16.792,14.437H52.654c0-3.608-2.431-4.552-5.02-4.552s-5.024.943-5.024,3.767c0,2.51,5.178,4.473,9.73,5.024,6.2.7,12.554,4.627,12.554,11.769" transform="translate(78.996 123.745)" fill="#fff"/><path d="M87.538,70.013a22.978,22.978,0,0,1-.393,4.08H52.934A11.858,11.858,0,0,0,64,81.781a11.713,11.713,0,0,0,9.259-4.548H86.281A23.43,23.43,0,0,1,64,92.455c-13.025,0-23.537-10.044-23.537-22.442S50.972,47.574,64,47.574,87.538,57.618,87.538,70.013m-12.474-4.08a11.806,11.806,0,0,0-22.129,0Z" transform="translate(105.242 123.745)" fill="#fff"/><path d="M100.467,70.013V91.2H89.483V85.94a14.913,14.913,0,0,1-12.316,6.511c-12.874,0-23.307-10.044-23.307-22.439S64.293,47.574,77.168,47.574s23.3,10.044,23.3,22.439m-11.3,0A11.769,11.769,0,1,0,77.4,81.781,11.753,11.753,0,0,0,89.17,70.013" transform="translate(140.1 123.745)" fill="#fff"/><path d="M90.189,47.574h1.567v10.67A11.754,11.754,0,0,0,79.987,70.013V91.2H68.222V70.013c0-12.4,8.942-22.439,21.967-22.439" transform="translate(177.455 123.745)" fill="#fff"/><path d="M86.749,70.013A11.752,11.752,0,0,0,98.518,81.781a11.429,11.429,0,0,0,10.044-5.963h12.633A23.283,23.283,0,0,1,98.518,92.451c-13.025,0-23.541-10.044-23.541-22.439S85.492,47.574,98.518,47.574c10.987,0,20.242,7.217,22.831,16.947h-12.4a11.786,11.786,0,0,0-22.2,5.492" transform="translate(195.025 123.745)" fill="#fff"/><path d="M88.749,44h11.772V60.634a15.557,15.557,0,0,1,10.2-3.767c13.022,0,21.971,10.044,21.971,22.442v21.185H120.922V79.309c0-6.514-3.691-11.772-10.2-11.772s-10.2,5.258-10.2,11.693v21.265H88.749Z" transform="translate(230.848 114.448)" fill="#fff"/><path d="M25.006,58.061,0,28.406H25.006V0H60.719V104.843c0,6.893,2.928,9.817,10.861,9.817H84.324v30.282H66.149c-24.225,0-41.143-10.234-41.143-40.516Z" transform="translate(0 -0.001)" fill="#e50019"/><path d="M51.134,7.888H86.846l16.5,83.33,19.633-83.33h37.8L180.623,90.8,196.908,7.888h33.624L199,124.424H159.524l-18.377-75.6-19.007,75.6H82.878Z" transform="translate(133.006 20.517)" fill="#e50019"/><path d="M69.389,66.363,117.846,7.888H73.782L25.325,66.363l47.29,56.178,1.368,1.883h44.283Z" transform="translate(65.875 20.517)" fill="#e50019"/></g></g></svg>